<?xml version="1.0" encoding="UTF-8" standalone="no"?>
<svg
   xmlns:dc="http://purl.org/dc/elements/1.1/"
   xmlns:cc="http://creativecommons.org/ns#"
   xmlns:rdf="http://www.w3.org/1999/02/22-rdf-syntax-ns#"
   xmlns:svg="http://www.w3.org/2000/svg"
   xmlns="http://www.w3.org/2000/svg"
   version="1.1"
   id="svg4356"
   viewBox="0 0 744.09448819 1052.3622047"
   height="297mm"
   width="210mm">
  <defs
     id="defs4358" />
  <metadata
     id="metadata4361">
    <rdf:RDF>
      <cc:Work
         rdf:about="">
        <dc:format>image/svg+xml</dc:format>
        <dc:type
           rdf:resource="http://purl.org/dc/dcmitype/StillImage" />
        <dc:title></dc:title>
      </cc:Work>
    </rdf:RDF>
  </metadata>
  <g
     id="layer1">
    <g
       id="g4915">
      <path
         style="opacity:1;fill:#000000;fill-opacity:1;stroke:#000000;stroke-width:0.79621065;stroke-miterlimit:4;stroke-dasharray:none;stroke-opacity:1"
         d="m 208.22266,392.05859 -69.92774,89.76172 c -16.63956,21.44655 -29.8505,44.33652 -29.85937,71.07617 1.8e-4,55.00835 44.59321,99.60138 99.60156,99.60157 55.00835,-1.9e-4 99.60138,-44.59322 99.60156,-99.60157 -0.002,-25.95721 -9.86397,-47.89294 -28.24609,-69.48437 z"
         id="path4904" />
      <path
         style="opacity:1;fill:#ffffff;fill-opacity:1;stroke:#000000;stroke-width:0.79621065;stroke-miterlimit:4;stroke-dasharray:none;stroke-opacity:1"
         id="path4913"
         d="m 208.22266,408.94336 -61.74219,79.25391 c -16.07038,20.71609 -27.66088,41.38314 -27.66992,64.69921 0,6.6e-4 0,0.001 0,0.002 0,6.5e-4 0,0.001 0,0.002 0.002,49.39906 39.82698,89.22249 89.22656,89.22266 49.40089,-1.7e-4 89.2264,-39.82568 89.22656,-89.22657 -0.002,-23.3296 -8.45053,-42.41282 -25.77148,-62.75781 a 10.376813,10.376813 0 0 1 -0.28516,-0.34961 l -62.98437,-80.8457 z" />
    </g>
  </g>
</svg>
