<?xml version="1.0" encoding="UTF-8" standalone="no"?>
<svg
   xmlns:dc="http://purl.org/dc/elements/1.1/"
   xmlns:cc="http://creativecommons.org/ns#"
   xmlns:rdf="http://www.w3.org/1999/02/22-rdf-syntax-ns#"
   xmlns:svg="http://www.w3.org/2000/svg"
   xmlns="http://www.w3.org/2000/svg"
   version="1.1"
   id="svg2"
   viewBox="0 0 744.09448819 1052.3622047"
   height="297mm"
   width="210mm">
  <defs
     id="defs4" />
  <metadata
     id="metadata7">
    <rdf:RDF>
      <cc:Work
         rdf:about="">
        <dc:format>image/svg+xml</dc:format>
        <dc:type
           rdf:resource="http://purl.org/dc/dcmitype/StillImage" />
        <dc:title></dc:title>
      </cc:Work>
    </rdf:RDF>
  </metadata>
  <g
     id="layer1">
    <g
       id="g4330">
      <path
         style="opacity:1;fill:none;fill-opacity:1;stroke:#000000;stroke-width:1.06762326;stroke-miterlimit:4;stroke-dasharray:none;stroke-opacity:1"
         d="m 224.99995,42.914063 a 29.448521,29.448521 0 0 0 -29.44922,29.447266 29.448521,29.448521 0 0 0 0.0195,0.529297 l -0.043,0 0,171.724604 a 49.593319,49.593323 0 0 0 -20.12109,39.81446 49.593319,49.593323 0 0 0 49.59375,49.59375 49.593319,49.593323 0 0 0 49.59375,-49.59375 49.593319,49.593323 0 0 0 -20.12109,-39.81641 l 0,-171.722654 -0.0508,0 a 29.448521,29.448521 0 0 0 0.0273,-0.529297 29.448521,29.448521 0 0 0 -29.44922,-29.447266 z"
         id="rect4136" />
      <path
         style="opacity:1;fill:#000000;fill-opacity:1;stroke:#000000;stroke-width:1.06762326;stroke-miterlimit:4;stroke-dasharray:none;stroke-opacity:1"
         id="path4328"
         d="m 225,50.074219 c -11.66154,-2.77e-4 -22.27104,10.601732 -22.28711,22.261719 0.003,0.07558 0.006,0.151016 0.01,0.226562 a 7.1607201,7.1607201 0 0 1 -0.0352,1.025391 l 0,171.027339 a 7.1607201,7.1607201 0 0 1 -2.9043,5.75782 c -10.6135,7.84243 -17.19777,20.86982 -17.21679,34.0664 0.003,11.10586 4.57468,22.14305 12.42773,29.9961 7.85535,7.85534 18.89672,12.42783 30.00586,12.42773 11.10914,1e-4 22.15051,-4.57239 30.00586,-12.42773 7.85443,-7.85443 12.42676,-18.89413 12.42773,-30.00196 -0.0204,-13.19513 -6.60442,-26.22089 -17.21679,-34.0625 a 7.1607201,7.1607201 0 0 1 -2.9043,-5.75781 l 0,-170.943358 a 7.1607201,7.1607201 0 0 1 -0.0371,-1.212891 c 0.003,-0.05079 0.005,-0.101534 0.008,-0.152343 C 247.24792,60.657224 236.65094,50.073942 225,50.074219 Z" />
      <path
         id="path4324"
         d="m 224.99995,42.914063 a 29.448521,29.448521 0 0 0 -29.44922,29.447266 29.448521,29.448521 0 0 0 0.0195,0.529297 l -0.043,0 0,171.724604 a 49.593319,49.593323 0 0 0 -20.12109,39.81446 49.593319,49.593323 0 0 0 49.59375,49.59375 49.593319,49.593323 0 0 0 49.59375,-49.59375 49.593319,49.593323 0 0 0 -20.12109,-39.81641 l 0,-171.722654 -0.0508,0 a 29.448521,29.448521 0 0 0 0.0273,-0.529297 29.448521,29.448521 0 0 0 -29.44922,-29.447266 z"
         style="opacity:1;fill:none;fill-opacity:1;stroke:#000000;stroke-width:1.06762326;stroke-miterlimit:4;stroke-dasharray:none;stroke-opacity:1" />
    </g>
  </g>
</svg>
