G04 #@! TF.FileFunction,Copper,L4,Bot,Signal*
%FSLAX46Y46*%
G04 Gerber Fmt 4.6, Leading zero omitted, Abs format (unit mm)*
G04 Created by KiCad (PCBNEW 4.0.1-stable) date 10/3/2016 4:29:35 PM*
%MOMM*%
G01*
G04 APERTURE LIST*
%ADD10C,0.100000*%
%ADD11O,3.048000X1.727200*%
%ADD12R,0.500000X0.600000*%
%ADD13R,0.600000X0.400000*%
%ADD14R,0.600000X1.500000*%
%ADD15R,0.400000X0.600000*%
%ADD16R,0.800100X0.800100*%
%ADD17R,1.727200X2.032000*%
%ADD18O,1.727200X2.032000*%
%ADD19O,2.000000X1.270000*%
%ADD20R,1.500000X1.500000*%
%ADD21C,0.600000*%
%ADD22C,0.250000*%
%ADD23C,0.500000*%
%ADD24C,0.152400*%
%ADD25C,0.254000*%
G04 APERTURE END LIST*
D10*
D11*
X129895600Y-26238200D03*
X129895600Y-31318200D03*
X142595600Y-26238200D03*
X142595600Y-31318200D03*
D12*
X136067800Y-44365000D03*
X136067800Y-43265000D03*
D13*
X139319000Y-44163400D03*
X139319000Y-43263400D03*
D14*
X132257800Y-47007800D03*
X133527800Y-47007800D03*
X134797800Y-47007800D03*
X136067800Y-47007800D03*
X137337800Y-47007800D03*
X138607800Y-47007800D03*
X139877800Y-47007800D03*
X141147800Y-47007800D03*
X141147800Y-52407800D03*
X139877800Y-52407800D03*
X138607800Y-52407800D03*
X137337800Y-52407800D03*
X136067800Y-52407800D03*
X134797800Y-52407800D03*
X133527800Y-52407800D03*
X132257800Y-52407800D03*
D13*
X141147800Y-54464800D03*
X141147800Y-55364800D03*
X133553200Y-54464800D03*
X133553200Y-55364800D03*
D15*
X132657000Y-39497000D03*
X131757000Y-39497000D03*
D16*
X133207800Y-43418760D03*
X131307800Y-43418760D03*
X132257800Y-41419780D03*
D17*
X132486400Y-20548600D03*
D18*
X135026400Y-20548600D03*
X137566400Y-20548600D03*
X140106400Y-20548600D03*
D12*
X142621000Y-53382000D03*
X142621000Y-52282000D03*
D13*
X130733800Y-48227400D03*
X130733800Y-47327400D03*
X129336800Y-48227400D03*
X129336800Y-47327400D03*
D19*
X145338800Y-38887400D03*
X127558800Y-38887400D03*
X145338800Y-41427400D03*
X127558800Y-41427400D03*
X145338800Y-43967400D03*
X127558800Y-43967400D03*
X145338800Y-46507400D03*
X127558800Y-46507400D03*
X145338800Y-49047400D03*
X127558800Y-49047400D03*
X145338800Y-51587400D03*
X127558800Y-51587400D03*
X145338800Y-54127400D03*
X127558800Y-54127400D03*
X145338800Y-56667400D03*
X127558800Y-56667400D03*
X145338800Y-59207400D03*
X127558800Y-59207400D03*
X145338800Y-61747400D03*
X127558800Y-61747400D03*
X145338800Y-64287400D03*
X127558800Y-64287400D03*
X145338800Y-66827400D03*
X127558800Y-66827400D03*
D20*
X127558800Y-28727400D03*
X145338800Y-28727400D03*
D11*
X155295600Y-26238200D03*
X155295600Y-31318200D03*
X167995600Y-26238200D03*
X167995600Y-31318200D03*
D12*
X161467800Y-44365000D03*
X161467800Y-43265000D03*
D13*
X164719000Y-44163400D03*
X164719000Y-43263400D03*
D14*
X157657800Y-47007800D03*
X158927800Y-47007800D03*
X160197800Y-47007800D03*
X161467800Y-47007800D03*
X162737800Y-47007800D03*
X164007800Y-47007800D03*
X165277800Y-47007800D03*
X166547800Y-47007800D03*
X166547800Y-52407800D03*
X165277800Y-52407800D03*
X164007800Y-52407800D03*
X162737800Y-52407800D03*
X161467800Y-52407800D03*
X160197800Y-52407800D03*
X158927800Y-52407800D03*
X157657800Y-52407800D03*
D13*
X166547800Y-54464800D03*
X166547800Y-55364800D03*
X158953200Y-54464800D03*
X158953200Y-55364800D03*
D15*
X158057000Y-39497000D03*
X157157000Y-39497000D03*
D16*
X158607800Y-43418760D03*
X156707800Y-43418760D03*
X157657800Y-41419780D03*
D17*
X157886400Y-20548600D03*
D18*
X160426400Y-20548600D03*
X162966400Y-20548600D03*
X165506400Y-20548600D03*
D12*
X168021000Y-53382000D03*
X168021000Y-52282000D03*
D13*
X156133800Y-48227400D03*
X156133800Y-47327400D03*
X154736800Y-48227400D03*
X154736800Y-47327400D03*
D19*
X170738800Y-38887400D03*
X152958800Y-38887400D03*
X170738800Y-41427400D03*
X152958800Y-41427400D03*
X170738800Y-43967400D03*
X152958800Y-43967400D03*
X170738800Y-46507400D03*
X152958800Y-46507400D03*
X170738800Y-49047400D03*
X152958800Y-49047400D03*
X170738800Y-51587400D03*
X152958800Y-51587400D03*
X170738800Y-54127400D03*
X152958800Y-54127400D03*
X170738800Y-56667400D03*
X152958800Y-56667400D03*
X170738800Y-59207400D03*
X152958800Y-59207400D03*
X170738800Y-61747400D03*
X152958800Y-61747400D03*
X170738800Y-64287400D03*
X152958800Y-64287400D03*
X170738800Y-66827400D03*
X152958800Y-66827400D03*
D20*
X152958800Y-28727400D03*
X170738800Y-28727400D03*
X170738800Y-148107400D03*
X152958800Y-148107400D03*
D19*
X170738800Y-158267400D03*
X152958800Y-158267400D03*
X170738800Y-160807400D03*
X152958800Y-160807400D03*
X170738800Y-163347400D03*
X152958800Y-163347400D03*
X170738800Y-165887400D03*
X152958800Y-165887400D03*
X170738800Y-168427400D03*
X152958800Y-168427400D03*
X170738800Y-170967400D03*
X152958800Y-170967400D03*
X170738800Y-173507400D03*
X152958800Y-173507400D03*
X170738800Y-176047400D03*
X152958800Y-176047400D03*
X170738800Y-178587400D03*
X152958800Y-178587400D03*
X170738800Y-181127400D03*
X152958800Y-181127400D03*
X170738800Y-183667400D03*
X152958800Y-183667400D03*
X170738800Y-186207400D03*
X152958800Y-186207400D03*
D13*
X154736800Y-167607400D03*
X154736800Y-166707400D03*
X156133800Y-167607400D03*
X156133800Y-166707400D03*
D12*
X168021000Y-172762000D03*
X168021000Y-171662000D03*
D17*
X157886400Y-139928600D03*
D18*
X160426400Y-139928600D03*
X162966400Y-139928600D03*
X165506400Y-139928600D03*
D16*
X158607800Y-162798760D03*
X156707800Y-162798760D03*
X157657800Y-160799780D03*
D15*
X158057000Y-158877000D03*
X157157000Y-158877000D03*
D13*
X158953200Y-173844800D03*
X158953200Y-174744800D03*
X166547800Y-173844800D03*
X166547800Y-174744800D03*
D14*
X157657800Y-166387800D03*
X158927800Y-166387800D03*
X160197800Y-166387800D03*
X161467800Y-166387800D03*
X162737800Y-166387800D03*
X164007800Y-166387800D03*
X165277800Y-166387800D03*
X166547800Y-166387800D03*
X166547800Y-171787800D03*
X165277800Y-171787800D03*
X164007800Y-171787800D03*
X162737800Y-171787800D03*
X161467800Y-171787800D03*
X160197800Y-171787800D03*
X158927800Y-171787800D03*
X157657800Y-171787800D03*
D13*
X164719000Y-163543400D03*
X164719000Y-162643400D03*
D12*
X161467800Y-163745000D03*
X161467800Y-162645000D03*
D11*
X155295600Y-145618200D03*
X155295600Y-150698200D03*
X167995600Y-145618200D03*
X167995600Y-150698200D03*
D20*
X145338800Y-148107400D03*
X127558800Y-148107400D03*
D19*
X145338800Y-158267400D03*
X127558800Y-158267400D03*
X145338800Y-160807400D03*
X127558800Y-160807400D03*
X145338800Y-163347400D03*
X127558800Y-163347400D03*
X145338800Y-165887400D03*
X127558800Y-165887400D03*
X145338800Y-168427400D03*
X127558800Y-168427400D03*
X145338800Y-170967400D03*
X127558800Y-170967400D03*
X145338800Y-173507400D03*
X127558800Y-173507400D03*
X145338800Y-176047400D03*
X127558800Y-176047400D03*
X145338800Y-178587400D03*
X127558800Y-178587400D03*
X145338800Y-181127400D03*
X127558800Y-181127400D03*
X145338800Y-183667400D03*
X127558800Y-183667400D03*
X145338800Y-186207400D03*
X127558800Y-186207400D03*
D13*
X129336800Y-167607400D03*
X129336800Y-166707400D03*
X130733800Y-167607400D03*
X130733800Y-166707400D03*
D12*
X142621000Y-172762000D03*
X142621000Y-171662000D03*
D17*
X132486400Y-139928600D03*
D18*
X135026400Y-139928600D03*
X137566400Y-139928600D03*
X140106400Y-139928600D03*
D16*
X133207800Y-162798760D03*
X131307800Y-162798760D03*
X132257800Y-160799780D03*
D15*
X132657000Y-158877000D03*
X131757000Y-158877000D03*
D13*
X133553200Y-173844800D03*
X133553200Y-174744800D03*
X141147800Y-173844800D03*
X141147800Y-174744800D03*
D14*
X132257800Y-166387800D03*
X133527800Y-166387800D03*
X134797800Y-166387800D03*
X136067800Y-166387800D03*
X137337800Y-166387800D03*
X138607800Y-166387800D03*
X139877800Y-166387800D03*
X141147800Y-166387800D03*
X141147800Y-171787800D03*
X139877800Y-171787800D03*
X138607800Y-171787800D03*
X137337800Y-171787800D03*
X136067800Y-171787800D03*
X134797800Y-171787800D03*
X133527800Y-171787800D03*
X132257800Y-171787800D03*
D13*
X139319000Y-163543400D03*
X139319000Y-162643400D03*
D12*
X136067800Y-163745000D03*
X136067800Y-162645000D03*
D11*
X129895600Y-145618200D03*
X129895600Y-150698200D03*
X142595600Y-145618200D03*
X142595600Y-150698200D03*
D20*
X43738800Y-148107400D03*
X25958800Y-148107400D03*
D19*
X43738800Y-158267400D03*
X25958800Y-158267400D03*
X43738800Y-160807400D03*
X25958800Y-160807400D03*
X43738800Y-163347400D03*
X25958800Y-163347400D03*
X43738800Y-165887400D03*
X25958800Y-165887400D03*
X43738800Y-168427400D03*
X25958800Y-168427400D03*
X43738800Y-170967400D03*
X25958800Y-170967400D03*
X43738800Y-173507400D03*
X25958800Y-173507400D03*
X43738800Y-176047400D03*
X25958800Y-176047400D03*
X43738800Y-178587400D03*
X25958800Y-178587400D03*
X43738800Y-181127400D03*
X25958800Y-181127400D03*
X43738800Y-183667400D03*
X25958800Y-183667400D03*
X43738800Y-186207400D03*
X25958800Y-186207400D03*
D13*
X27736800Y-167607400D03*
X27736800Y-166707400D03*
X29133800Y-167607400D03*
X29133800Y-166707400D03*
D12*
X41021000Y-172762000D03*
X41021000Y-171662000D03*
D17*
X30886400Y-139928600D03*
D18*
X33426400Y-139928600D03*
X35966400Y-139928600D03*
X38506400Y-139928600D03*
D16*
X31607800Y-162798760D03*
X29707800Y-162798760D03*
X30657800Y-160799780D03*
D15*
X31057000Y-158877000D03*
X30157000Y-158877000D03*
D13*
X31953200Y-173844800D03*
X31953200Y-174744800D03*
X39547800Y-173844800D03*
X39547800Y-174744800D03*
D14*
X30657800Y-166387800D03*
X31927800Y-166387800D03*
X33197800Y-166387800D03*
X34467800Y-166387800D03*
X35737800Y-166387800D03*
X37007800Y-166387800D03*
X38277800Y-166387800D03*
X39547800Y-166387800D03*
X39547800Y-171787800D03*
X38277800Y-171787800D03*
X37007800Y-171787800D03*
X35737800Y-171787800D03*
X34467800Y-171787800D03*
X33197800Y-171787800D03*
X31927800Y-171787800D03*
X30657800Y-171787800D03*
D13*
X37719000Y-163543400D03*
X37719000Y-162643400D03*
D12*
X34467800Y-163745000D03*
X34467800Y-162645000D03*
D11*
X28295600Y-145618200D03*
X28295600Y-150698200D03*
X40995600Y-145618200D03*
X40995600Y-150698200D03*
X53695600Y-145618200D03*
X53695600Y-150698200D03*
X66395600Y-145618200D03*
X66395600Y-150698200D03*
D12*
X59867800Y-163745000D03*
X59867800Y-162645000D03*
D13*
X63119000Y-163543400D03*
X63119000Y-162643400D03*
D14*
X56057800Y-166387800D03*
X57327800Y-166387800D03*
X58597800Y-166387800D03*
X59867800Y-166387800D03*
X61137800Y-166387800D03*
X62407800Y-166387800D03*
X63677800Y-166387800D03*
X64947800Y-166387800D03*
X64947800Y-171787800D03*
X63677800Y-171787800D03*
X62407800Y-171787800D03*
X61137800Y-171787800D03*
X59867800Y-171787800D03*
X58597800Y-171787800D03*
X57327800Y-171787800D03*
X56057800Y-171787800D03*
D13*
X64947800Y-173844800D03*
X64947800Y-174744800D03*
X57353200Y-173844800D03*
X57353200Y-174744800D03*
D15*
X56457000Y-158877000D03*
X55557000Y-158877000D03*
D16*
X57007800Y-162798760D03*
X55107800Y-162798760D03*
X56057800Y-160799780D03*
D17*
X56286400Y-139928600D03*
D18*
X58826400Y-139928600D03*
X61366400Y-139928600D03*
X63906400Y-139928600D03*
D12*
X66421000Y-172762000D03*
X66421000Y-171662000D03*
D13*
X54533800Y-167607400D03*
X54533800Y-166707400D03*
X53136800Y-167607400D03*
X53136800Y-166707400D03*
D19*
X69138800Y-158267400D03*
X51358800Y-158267400D03*
X69138800Y-160807400D03*
X51358800Y-160807400D03*
X69138800Y-163347400D03*
X51358800Y-163347400D03*
X69138800Y-165887400D03*
X51358800Y-165887400D03*
X69138800Y-168427400D03*
X51358800Y-168427400D03*
X69138800Y-170967400D03*
X51358800Y-170967400D03*
X69138800Y-173507400D03*
X51358800Y-173507400D03*
X69138800Y-176047400D03*
X51358800Y-176047400D03*
X69138800Y-178587400D03*
X51358800Y-178587400D03*
X69138800Y-181127400D03*
X51358800Y-181127400D03*
X69138800Y-183667400D03*
X51358800Y-183667400D03*
X69138800Y-186207400D03*
X51358800Y-186207400D03*
D20*
X51358800Y-148107400D03*
X69138800Y-148107400D03*
X119938800Y-148107400D03*
X102158800Y-148107400D03*
D19*
X119938800Y-158267400D03*
X102158800Y-158267400D03*
X119938800Y-160807400D03*
X102158800Y-160807400D03*
X119938800Y-163347400D03*
X102158800Y-163347400D03*
X119938800Y-165887400D03*
X102158800Y-165887400D03*
X119938800Y-168427400D03*
X102158800Y-168427400D03*
X119938800Y-170967400D03*
X102158800Y-170967400D03*
X119938800Y-173507400D03*
X102158800Y-173507400D03*
X119938800Y-176047400D03*
X102158800Y-176047400D03*
X119938800Y-178587400D03*
X102158800Y-178587400D03*
X119938800Y-181127400D03*
X102158800Y-181127400D03*
X119938800Y-183667400D03*
X102158800Y-183667400D03*
X119938800Y-186207400D03*
X102158800Y-186207400D03*
D13*
X103936800Y-167607400D03*
X103936800Y-166707400D03*
X105333800Y-167607400D03*
X105333800Y-166707400D03*
D12*
X117221000Y-172762000D03*
X117221000Y-171662000D03*
D17*
X107086400Y-139928600D03*
D18*
X109626400Y-139928600D03*
X112166400Y-139928600D03*
X114706400Y-139928600D03*
D16*
X107807800Y-162798760D03*
X105907800Y-162798760D03*
X106857800Y-160799780D03*
D15*
X107257000Y-158877000D03*
X106357000Y-158877000D03*
D13*
X108153200Y-173844800D03*
X108153200Y-174744800D03*
X115747800Y-173844800D03*
X115747800Y-174744800D03*
D14*
X106857800Y-166387800D03*
X108127800Y-166387800D03*
X109397800Y-166387800D03*
X110667800Y-166387800D03*
X111937800Y-166387800D03*
X113207800Y-166387800D03*
X114477800Y-166387800D03*
X115747800Y-166387800D03*
X115747800Y-171787800D03*
X114477800Y-171787800D03*
X113207800Y-171787800D03*
X111937800Y-171787800D03*
X110667800Y-171787800D03*
X109397800Y-171787800D03*
X108127800Y-171787800D03*
X106857800Y-171787800D03*
D13*
X113919000Y-163543400D03*
X113919000Y-162643400D03*
D12*
X110667800Y-163745000D03*
X110667800Y-162645000D03*
D11*
X104495600Y-145618200D03*
X104495600Y-150698200D03*
X117195600Y-145618200D03*
X117195600Y-150698200D03*
X79095600Y-145618200D03*
X79095600Y-150698200D03*
X91795600Y-145618200D03*
X91795600Y-150698200D03*
D12*
X85267800Y-163745000D03*
X85267800Y-162645000D03*
D13*
X88519000Y-163543400D03*
X88519000Y-162643400D03*
D14*
X81457800Y-166387800D03*
X82727800Y-166387800D03*
X83997800Y-166387800D03*
X85267800Y-166387800D03*
X86537800Y-166387800D03*
X87807800Y-166387800D03*
X89077800Y-166387800D03*
X90347800Y-166387800D03*
X90347800Y-171787800D03*
X89077800Y-171787800D03*
X87807800Y-171787800D03*
X86537800Y-171787800D03*
X85267800Y-171787800D03*
X83997800Y-171787800D03*
X82727800Y-171787800D03*
X81457800Y-171787800D03*
D13*
X90347800Y-173844800D03*
X90347800Y-174744800D03*
X82753200Y-173844800D03*
X82753200Y-174744800D03*
D15*
X81857000Y-158877000D03*
X80957000Y-158877000D03*
D16*
X82407800Y-162798760D03*
X80507800Y-162798760D03*
X81457800Y-160799780D03*
D17*
X81686400Y-139928600D03*
D18*
X84226400Y-139928600D03*
X86766400Y-139928600D03*
X89306400Y-139928600D03*
D12*
X91821000Y-172762000D03*
X91821000Y-171662000D03*
D13*
X79933800Y-167607400D03*
X79933800Y-166707400D03*
X78536800Y-167607400D03*
X78536800Y-166707400D03*
D19*
X94538800Y-158267400D03*
X76758800Y-158267400D03*
X94538800Y-160807400D03*
X76758800Y-160807400D03*
X94538800Y-163347400D03*
X76758800Y-163347400D03*
X94538800Y-165887400D03*
X76758800Y-165887400D03*
X94538800Y-168427400D03*
X76758800Y-168427400D03*
X94538800Y-170967400D03*
X76758800Y-170967400D03*
X94538800Y-173507400D03*
X76758800Y-173507400D03*
X94538800Y-176047400D03*
X76758800Y-176047400D03*
X94538800Y-178587400D03*
X76758800Y-178587400D03*
X94538800Y-181127400D03*
X76758800Y-181127400D03*
X94538800Y-183667400D03*
X76758800Y-183667400D03*
X94538800Y-186207400D03*
X76758800Y-186207400D03*
D20*
X76758800Y-148107400D03*
X94538800Y-148107400D03*
X94538800Y-28727400D03*
X76758800Y-28727400D03*
D19*
X94538800Y-38887400D03*
X76758800Y-38887400D03*
X94538800Y-41427400D03*
X76758800Y-41427400D03*
X94538800Y-43967400D03*
X76758800Y-43967400D03*
X94538800Y-46507400D03*
X76758800Y-46507400D03*
X94538800Y-49047400D03*
X76758800Y-49047400D03*
X94538800Y-51587400D03*
X76758800Y-51587400D03*
X94538800Y-54127400D03*
X76758800Y-54127400D03*
X94538800Y-56667400D03*
X76758800Y-56667400D03*
X94538800Y-59207400D03*
X76758800Y-59207400D03*
X94538800Y-61747400D03*
X76758800Y-61747400D03*
X94538800Y-64287400D03*
X76758800Y-64287400D03*
X94538800Y-66827400D03*
X76758800Y-66827400D03*
D13*
X78536800Y-48227400D03*
X78536800Y-47327400D03*
X79933800Y-48227400D03*
X79933800Y-47327400D03*
D12*
X91821000Y-53382000D03*
X91821000Y-52282000D03*
D17*
X81686400Y-20548600D03*
D18*
X84226400Y-20548600D03*
X86766400Y-20548600D03*
X89306400Y-20548600D03*
D16*
X82407800Y-43418760D03*
X80507800Y-43418760D03*
X81457800Y-41419780D03*
D15*
X81857000Y-39497000D03*
X80957000Y-39497000D03*
D13*
X82753200Y-54464800D03*
X82753200Y-55364800D03*
X90347800Y-54464800D03*
X90347800Y-55364800D03*
D14*
X81457800Y-47007800D03*
X82727800Y-47007800D03*
X83997800Y-47007800D03*
X85267800Y-47007800D03*
X86537800Y-47007800D03*
X87807800Y-47007800D03*
X89077800Y-47007800D03*
X90347800Y-47007800D03*
X90347800Y-52407800D03*
X89077800Y-52407800D03*
X87807800Y-52407800D03*
X86537800Y-52407800D03*
X85267800Y-52407800D03*
X83997800Y-52407800D03*
X82727800Y-52407800D03*
X81457800Y-52407800D03*
D13*
X88519000Y-44163400D03*
X88519000Y-43263400D03*
D12*
X85267800Y-44365000D03*
X85267800Y-43265000D03*
D11*
X79095600Y-26238200D03*
X79095600Y-31318200D03*
X91795600Y-26238200D03*
X91795600Y-31318200D03*
X104495600Y-26238200D03*
X104495600Y-31318200D03*
X117195600Y-26238200D03*
X117195600Y-31318200D03*
D12*
X110667800Y-44365000D03*
X110667800Y-43265000D03*
D13*
X113919000Y-44163400D03*
X113919000Y-43263400D03*
D14*
X106857800Y-47007800D03*
X108127800Y-47007800D03*
X109397800Y-47007800D03*
X110667800Y-47007800D03*
X111937800Y-47007800D03*
X113207800Y-47007800D03*
X114477800Y-47007800D03*
X115747800Y-47007800D03*
X115747800Y-52407800D03*
X114477800Y-52407800D03*
X113207800Y-52407800D03*
X111937800Y-52407800D03*
X110667800Y-52407800D03*
X109397800Y-52407800D03*
X108127800Y-52407800D03*
X106857800Y-52407800D03*
D13*
X115747800Y-54464800D03*
X115747800Y-55364800D03*
X108153200Y-54464800D03*
X108153200Y-55364800D03*
D15*
X107257000Y-39497000D03*
X106357000Y-39497000D03*
D16*
X107807800Y-43418760D03*
X105907800Y-43418760D03*
X106857800Y-41419780D03*
D17*
X107086400Y-20548600D03*
D18*
X109626400Y-20548600D03*
X112166400Y-20548600D03*
X114706400Y-20548600D03*
D12*
X117221000Y-53382000D03*
X117221000Y-52282000D03*
D13*
X105333800Y-48227400D03*
X105333800Y-47327400D03*
X103936800Y-48227400D03*
X103936800Y-47327400D03*
D19*
X119938800Y-38887400D03*
X102158800Y-38887400D03*
X119938800Y-41427400D03*
X102158800Y-41427400D03*
X119938800Y-43967400D03*
X102158800Y-43967400D03*
X119938800Y-46507400D03*
X102158800Y-46507400D03*
X119938800Y-49047400D03*
X102158800Y-49047400D03*
X119938800Y-51587400D03*
X102158800Y-51587400D03*
X119938800Y-54127400D03*
X102158800Y-54127400D03*
X119938800Y-56667400D03*
X102158800Y-56667400D03*
X119938800Y-59207400D03*
X102158800Y-59207400D03*
X119938800Y-61747400D03*
X102158800Y-61747400D03*
X119938800Y-64287400D03*
X102158800Y-64287400D03*
X119938800Y-66827400D03*
X102158800Y-66827400D03*
D20*
X102158800Y-28727400D03*
X119938800Y-28727400D03*
X69138800Y-28727400D03*
X51358800Y-28727400D03*
D19*
X69138800Y-38887400D03*
X51358800Y-38887400D03*
X69138800Y-41427400D03*
X51358800Y-41427400D03*
X69138800Y-43967400D03*
X51358800Y-43967400D03*
X69138800Y-46507400D03*
X51358800Y-46507400D03*
X69138800Y-49047400D03*
X51358800Y-49047400D03*
X69138800Y-51587400D03*
X51358800Y-51587400D03*
X69138800Y-54127400D03*
X51358800Y-54127400D03*
X69138800Y-56667400D03*
X51358800Y-56667400D03*
X69138800Y-59207400D03*
X51358800Y-59207400D03*
X69138800Y-61747400D03*
X51358800Y-61747400D03*
X69138800Y-64287400D03*
X51358800Y-64287400D03*
X69138800Y-66827400D03*
X51358800Y-66827400D03*
D13*
X53136800Y-48227400D03*
X53136800Y-47327400D03*
X54533800Y-48227400D03*
X54533800Y-47327400D03*
D12*
X66421000Y-53382000D03*
X66421000Y-52282000D03*
D17*
X56286400Y-20548600D03*
D18*
X58826400Y-20548600D03*
X61366400Y-20548600D03*
X63906400Y-20548600D03*
D16*
X57007800Y-43418760D03*
X55107800Y-43418760D03*
X56057800Y-41419780D03*
D15*
X56457000Y-39497000D03*
X55557000Y-39497000D03*
D13*
X57353200Y-54464800D03*
X57353200Y-55364800D03*
X64947800Y-54464800D03*
X64947800Y-55364800D03*
D14*
X56057800Y-47007800D03*
X57327800Y-47007800D03*
X58597800Y-47007800D03*
X59867800Y-47007800D03*
X61137800Y-47007800D03*
X62407800Y-47007800D03*
X63677800Y-47007800D03*
X64947800Y-47007800D03*
X64947800Y-52407800D03*
X63677800Y-52407800D03*
X62407800Y-52407800D03*
X61137800Y-52407800D03*
X59867800Y-52407800D03*
X58597800Y-52407800D03*
X57327800Y-52407800D03*
X56057800Y-52407800D03*
D13*
X63119000Y-44163400D03*
X63119000Y-43263400D03*
D12*
X59867800Y-44365000D03*
X59867800Y-43265000D03*
D11*
X53695600Y-26238200D03*
X53695600Y-31318200D03*
X66395600Y-26238200D03*
X66395600Y-31318200D03*
X28295600Y-26238200D03*
X28295600Y-31318200D03*
X40995600Y-26238200D03*
X40995600Y-31318200D03*
D12*
X34467800Y-44365000D03*
X34467800Y-43265000D03*
D13*
X37719000Y-44163400D03*
X37719000Y-43263400D03*
D14*
X30657800Y-47007800D03*
X31927800Y-47007800D03*
X33197800Y-47007800D03*
X34467800Y-47007800D03*
X35737800Y-47007800D03*
X37007800Y-47007800D03*
X38277800Y-47007800D03*
X39547800Y-47007800D03*
X39547800Y-52407800D03*
X38277800Y-52407800D03*
X37007800Y-52407800D03*
X35737800Y-52407800D03*
X34467800Y-52407800D03*
X33197800Y-52407800D03*
X31927800Y-52407800D03*
X30657800Y-52407800D03*
D13*
X39547800Y-54464800D03*
X39547800Y-55364800D03*
X31953200Y-54464800D03*
X31953200Y-55364800D03*
D15*
X31057000Y-39497000D03*
X30157000Y-39497000D03*
D16*
X31607800Y-43418760D03*
X29707800Y-43418760D03*
X30657800Y-41419780D03*
D17*
X30886400Y-20548600D03*
D18*
X33426400Y-20548600D03*
X35966400Y-20548600D03*
X38506400Y-20548600D03*
D12*
X41021000Y-53382000D03*
X41021000Y-52282000D03*
D13*
X29133800Y-48227400D03*
X29133800Y-47327400D03*
X27736800Y-48227400D03*
X27736800Y-47327400D03*
D19*
X43738800Y-38887400D03*
X25958800Y-38887400D03*
X43738800Y-41427400D03*
X25958800Y-41427400D03*
X43738800Y-43967400D03*
X25958800Y-43967400D03*
X43738800Y-46507400D03*
X25958800Y-46507400D03*
X43738800Y-49047400D03*
X25958800Y-49047400D03*
X43738800Y-51587400D03*
X25958800Y-51587400D03*
X43738800Y-54127400D03*
X25958800Y-54127400D03*
X43738800Y-56667400D03*
X25958800Y-56667400D03*
X43738800Y-59207400D03*
X25958800Y-59207400D03*
X43738800Y-61747400D03*
X25958800Y-61747400D03*
X43738800Y-64287400D03*
X25958800Y-64287400D03*
X43738800Y-66827400D03*
X25958800Y-66827400D03*
D20*
X25958800Y-28727400D03*
X43738800Y-28727400D03*
D21*
X134493000Y-45237400D03*
X159893000Y-45237400D03*
X159893000Y-164617400D03*
X134493000Y-164617400D03*
X32893000Y-164617400D03*
X58293000Y-164617400D03*
X109093000Y-164617400D03*
X83693000Y-164617400D03*
X83693000Y-45237400D03*
X109093000Y-45237400D03*
X58293000Y-45237400D03*
X32893000Y-45237400D03*
X141147800Y-48514000D03*
X142595600Y-54508400D03*
X137414000Y-41986200D03*
X166547800Y-48514000D03*
X167995600Y-54508400D03*
X162814000Y-41986200D03*
X162814000Y-161366200D03*
X167995600Y-173888400D03*
X166547800Y-167894000D03*
X137414000Y-161366200D03*
X142595600Y-173888400D03*
X141147800Y-167894000D03*
X35814000Y-161366200D03*
X40995600Y-173888400D03*
X39547800Y-167894000D03*
X64947800Y-167894000D03*
X66395600Y-173888400D03*
X61214000Y-161366200D03*
X112014000Y-161366200D03*
X117195600Y-173888400D03*
X115747800Y-167894000D03*
X90347800Y-167894000D03*
X91795600Y-173888400D03*
X86614000Y-161366200D03*
X86614000Y-41986200D03*
X91795600Y-54508400D03*
X90347800Y-48514000D03*
X115747800Y-48514000D03*
X117195600Y-54508400D03*
X112014000Y-41986200D03*
X61214000Y-41986200D03*
X66395600Y-54508400D03*
X64947800Y-48514000D03*
X39547800Y-48514000D03*
X40995600Y-54508400D03*
X35814000Y-41986200D03*
X133477000Y-48869600D03*
X158877000Y-48869600D03*
X158877000Y-168249600D03*
X133477000Y-168249600D03*
X31877000Y-168249600D03*
X57277000Y-168249600D03*
X108077000Y-168249600D03*
X82677000Y-168249600D03*
X82677000Y-48869600D03*
X108077000Y-48869600D03*
X57277000Y-48869600D03*
X31877000Y-48869600D03*
X136220200Y-56311800D03*
X161620200Y-56311800D03*
X161620200Y-175691800D03*
X136220200Y-175691800D03*
X34620200Y-175691800D03*
X60020200Y-175691800D03*
X110820200Y-175691800D03*
X85420200Y-175691800D03*
X85420200Y-56311800D03*
X110820200Y-56311800D03*
X60020200Y-56311800D03*
X34620200Y-56311800D03*
X130175000Y-53060600D03*
X155575000Y-53060600D03*
X155575000Y-172440600D03*
X130175000Y-172440600D03*
X28575000Y-172440600D03*
X53975000Y-172440600D03*
X104775000Y-172440600D03*
X79375000Y-172440600D03*
X79375000Y-53060600D03*
X104775000Y-53060600D03*
X53975000Y-53060600D03*
X28575000Y-53060600D03*
X140081000Y-41046400D03*
X165481000Y-41046400D03*
X165481000Y-160426400D03*
X140081000Y-160426400D03*
X38481000Y-160426400D03*
X63881000Y-160426400D03*
X114681000Y-160426400D03*
X89281000Y-160426400D03*
X89281000Y-41046400D03*
X114681000Y-41046400D03*
X63881000Y-41046400D03*
X38481000Y-41046400D03*
D22*
X136067800Y-47007800D02*
X136067800Y-44365000D01*
X134797800Y-47007800D02*
X136067800Y-47007800D01*
X161467800Y-47007800D02*
X161467800Y-44365000D01*
X160197800Y-47007800D02*
X161467800Y-47007800D01*
X160197800Y-166387800D02*
X161467800Y-166387800D01*
X161467800Y-166387800D02*
X161467800Y-163745000D01*
X134797800Y-166387800D02*
X136067800Y-166387800D01*
X136067800Y-166387800D02*
X136067800Y-163745000D01*
X33197800Y-166387800D02*
X34467800Y-166387800D01*
X34467800Y-166387800D02*
X34467800Y-163745000D01*
X59867800Y-166387800D02*
X59867800Y-163745000D01*
X58597800Y-166387800D02*
X59867800Y-166387800D01*
X109397800Y-166387800D02*
X110667800Y-166387800D01*
X110667800Y-166387800D02*
X110667800Y-163745000D01*
X85267800Y-166387800D02*
X85267800Y-163745000D01*
X83997800Y-166387800D02*
X85267800Y-166387800D01*
X83997800Y-47007800D02*
X85267800Y-47007800D01*
X85267800Y-47007800D02*
X85267800Y-44365000D01*
X110667800Y-47007800D02*
X110667800Y-44365000D01*
X109397800Y-47007800D02*
X110667800Y-47007800D01*
X58597800Y-47007800D02*
X59867800Y-47007800D01*
X59867800Y-47007800D02*
X59867800Y-44365000D01*
X34467800Y-47007800D02*
X34467800Y-44365000D01*
X33197800Y-47007800D02*
X34467800Y-47007800D01*
X136067800Y-43265000D02*
X135373200Y-43265000D01*
X134493000Y-44145200D02*
X134493000Y-45237400D01*
X135373200Y-43265000D02*
X134493000Y-44145200D01*
X136067800Y-43265000D02*
X139317400Y-43265000D01*
X139317400Y-43265000D02*
X139319000Y-43263400D01*
X161467800Y-43265000D02*
X160773200Y-43265000D01*
X159893000Y-44145200D02*
X159893000Y-45237400D01*
X160773200Y-43265000D02*
X159893000Y-44145200D01*
X161467800Y-43265000D02*
X164717400Y-43265000D01*
X164717400Y-43265000D02*
X164719000Y-43263400D01*
X164717400Y-162645000D02*
X164719000Y-162643400D01*
X161467800Y-162645000D02*
X164717400Y-162645000D01*
X160773200Y-162645000D02*
X159893000Y-163525200D01*
X159893000Y-163525200D02*
X159893000Y-164617400D01*
X161467800Y-162645000D02*
X160773200Y-162645000D01*
X139317400Y-162645000D02*
X139319000Y-162643400D01*
X136067800Y-162645000D02*
X139317400Y-162645000D01*
X135373200Y-162645000D02*
X134493000Y-163525200D01*
X134493000Y-163525200D02*
X134493000Y-164617400D01*
X136067800Y-162645000D02*
X135373200Y-162645000D01*
X37717400Y-162645000D02*
X37719000Y-162643400D01*
X34467800Y-162645000D02*
X37717400Y-162645000D01*
X33773200Y-162645000D02*
X32893000Y-163525200D01*
X32893000Y-163525200D02*
X32893000Y-164617400D01*
X34467800Y-162645000D02*
X33773200Y-162645000D01*
X59867800Y-162645000D02*
X59173200Y-162645000D01*
X58293000Y-163525200D02*
X58293000Y-164617400D01*
X59173200Y-162645000D02*
X58293000Y-163525200D01*
X59867800Y-162645000D02*
X63117400Y-162645000D01*
X63117400Y-162645000D02*
X63119000Y-162643400D01*
X113917400Y-162645000D02*
X113919000Y-162643400D01*
X110667800Y-162645000D02*
X113917400Y-162645000D01*
X109973200Y-162645000D02*
X109093000Y-163525200D01*
X109093000Y-163525200D02*
X109093000Y-164617400D01*
X110667800Y-162645000D02*
X109973200Y-162645000D01*
X85267800Y-162645000D02*
X84573200Y-162645000D01*
X83693000Y-163525200D02*
X83693000Y-164617400D01*
X84573200Y-162645000D02*
X83693000Y-163525200D01*
X85267800Y-162645000D02*
X88517400Y-162645000D01*
X88517400Y-162645000D02*
X88519000Y-162643400D01*
X88517400Y-43265000D02*
X88519000Y-43263400D01*
X85267800Y-43265000D02*
X88517400Y-43265000D01*
X84573200Y-43265000D02*
X83693000Y-44145200D01*
X83693000Y-44145200D02*
X83693000Y-45237400D01*
X85267800Y-43265000D02*
X84573200Y-43265000D01*
X110667800Y-43265000D02*
X109973200Y-43265000D01*
X109093000Y-44145200D02*
X109093000Y-45237400D01*
X109973200Y-43265000D02*
X109093000Y-44145200D01*
X110667800Y-43265000D02*
X113917400Y-43265000D01*
X113917400Y-43265000D02*
X113919000Y-43263400D01*
X63117400Y-43265000D02*
X63119000Y-43263400D01*
X59867800Y-43265000D02*
X63117400Y-43265000D01*
X59173200Y-43265000D02*
X58293000Y-44145200D01*
X58293000Y-44145200D02*
X58293000Y-45237400D01*
X59867800Y-43265000D02*
X59173200Y-43265000D01*
X34467800Y-43265000D02*
X33773200Y-43265000D01*
X32893000Y-44145200D02*
X32893000Y-45237400D01*
X33773200Y-43265000D02*
X32893000Y-44145200D01*
X34467800Y-43265000D02*
X37717400Y-43265000D01*
X37717400Y-43265000D02*
X37719000Y-43263400D01*
D23*
X129514600Y-38887400D02*
X129514600Y-38785800D01*
X130022600Y-38277800D02*
X129895600Y-38277800D01*
X129514600Y-38785800D02*
X130022600Y-38277800D01*
X127558800Y-38887400D02*
X129514600Y-38887400D01*
X129514600Y-38887400D02*
X130632200Y-38887400D01*
X130632200Y-38887400D02*
X131241800Y-39497000D01*
X130733800Y-47327400D02*
X130733800Y-43992760D01*
X130733800Y-43992760D02*
X131307800Y-43418760D01*
D22*
X131307800Y-43418760D02*
X131023360Y-43418760D01*
D23*
X131023360Y-43418760D02*
X130378200Y-42773600D01*
X130378200Y-42773600D02*
X130378200Y-40875800D01*
X130378200Y-40875800D02*
X131757000Y-39497000D01*
X129895600Y-31318200D02*
X129895600Y-38277800D01*
X129895600Y-38277800D02*
X129895600Y-38150800D01*
X129895600Y-38150800D02*
X131241800Y-39497000D01*
D22*
X131241800Y-39497000D02*
X131757000Y-39497000D01*
D23*
X129895600Y-31318200D02*
X142595600Y-31318200D01*
X154914600Y-38887400D02*
X154914600Y-38785800D01*
X155422600Y-38277800D02*
X155295600Y-38277800D01*
X154914600Y-38785800D02*
X155422600Y-38277800D01*
X152958800Y-38887400D02*
X154914600Y-38887400D01*
X154914600Y-38887400D02*
X156032200Y-38887400D01*
X156032200Y-38887400D02*
X156641800Y-39497000D01*
X156133800Y-47327400D02*
X156133800Y-43992760D01*
X156133800Y-43992760D02*
X156707800Y-43418760D01*
D22*
X156707800Y-43418760D02*
X156423360Y-43418760D01*
D23*
X156423360Y-43418760D02*
X155778200Y-42773600D01*
X155778200Y-42773600D02*
X155778200Y-40875800D01*
X155778200Y-40875800D02*
X157157000Y-39497000D01*
X155295600Y-31318200D02*
X155295600Y-38277800D01*
X155295600Y-38277800D02*
X155295600Y-38150800D01*
X155295600Y-38150800D02*
X156641800Y-39497000D01*
D22*
X156641800Y-39497000D02*
X157157000Y-39497000D01*
D23*
X155295600Y-31318200D02*
X167995600Y-31318200D01*
X155295600Y-150698200D02*
X167995600Y-150698200D01*
D22*
X156641800Y-158877000D02*
X157157000Y-158877000D01*
D23*
X155295600Y-157530800D02*
X156641800Y-158877000D01*
X155295600Y-157657800D02*
X155295600Y-157530800D01*
X155295600Y-150698200D02*
X155295600Y-157657800D01*
X155778200Y-160255800D02*
X157157000Y-158877000D01*
X155778200Y-162153600D02*
X155778200Y-160255800D01*
X156423360Y-162798760D02*
X155778200Y-162153600D01*
D22*
X156707800Y-162798760D02*
X156423360Y-162798760D01*
D23*
X156133800Y-163372760D02*
X156707800Y-162798760D01*
X156133800Y-166707400D02*
X156133800Y-163372760D01*
X156032200Y-158267400D02*
X156641800Y-158877000D01*
X154914600Y-158267400D02*
X156032200Y-158267400D01*
X152958800Y-158267400D02*
X154914600Y-158267400D01*
X154914600Y-158165800D02*
X155422600Y-157657800D01*
X155422600Y-157657800D02*
X155295600Y-157657800D01*
X154914600Y-158267400D02*
X154914600Y-158165800D01*
X129895600Y-150698200D02*
X142595600Y-150698200D01*
D22*
X131241800Y-158877000D02*
X131757000Y-158877000D01*
D23*
X129895600Y-157530800D02*
X131241800Y-158877000D01*
X129895600Y-157657800D02*
X129895600Y-157530800D01*
X129895600Y-150698200D02*
X129895600Y-157657800D01*
X130378200Y-160255800D02*
X131757000Y-158877000D01*
X130378200Y-162153600D02*
X130378200Y-160255800D01*
X131023360Y-162798760D02*
X130378200Y-162153600D01*
D22*
X131307800Y-162798760D02*
X131023360Y-162798760D01*
D23*
X130733800Y-163372760D02*
X131307800Y-162798760D01*
X130733800Y-166707400D02*
X130733800Y-163372760D01*
X130632200Y-158267400D02*
X131241800Y-158877000D01*
X129514600Y-158267400D02*
X130632200Y-158267400D01*
X127558800Y-158267400D02*
X129514600Y-158267400D01*
X129514600Y-158165800D02*
X130022600Y-157657800D01*
X130022600Y-157657800D02*
X129895600Y-157657800D01*
X129514600Y-158267400D02*
X129514600Y-158165800D01*
X28295600Y-150698200D02*
X40995600Y-150698200D01*
D22*
X29641800Y-158877000D02*
X30157000Y-158877000D01*
D23*
X28295600Y-157530800D02*
X29641800Y-158877000D01*
X28295600Y-157657800D02*
X28295600Y-157530800D01*
X28295600Y-150698200D02*
X28295600Y-157657800D01*
X28778200Y-160255800D02*
X30157000Y-158877000D01*
X28778200Y-162153600D02*
X28778200Y-160255800D01*
X29423360Y-162798760D02*
X28778200Y-162153600D01*
D22*
X29707800Y-162798760D02*
X29423360Y-162798760D01*
D23*
X29133800Y-163372760D02*
X29707800Y-162798760D01*
X29133800Y-166707400D02*
X29133800Y-163372760D01*
X29032200Y-158267400D02*
X29641800Y-158877000D01*
X27914600Y-158267400D02*
X29032200Y-158267400D01*
X25958800Y-158267400D02*
X27914600Y-158267400D01*
X27914600Y-158165800D02*
X28422600Y-157657800D01*
X28422600Y-157657800D02*
X28295600Y-157657800D01*
X27914600Y-158267400D02*
X27914600Y-158165800D01*
X53314600Y-158267400D02*
X53314600Y-158165800D01*
X53822600Y-157657800D02*
X53695600Y-157657800D01*
X53314600Y-158165800D02*
X53822600Y-157657800D01*
X51358800Y-158267400D02*
X53314600Y-158267400D01*
X53314600Y-158267400D02*
X54432200Y-158267400D01*
X54432200Y-158267400D02*
X55041800Y-158877000D01*
X54533800Y-166707400D02*
X54533800Y-163372760D01*
X54533800Y-163372760D02*
X55107800Y-162798760D01*
D22*
X55107800Y-162798760D02*
X54823360Y-162798760D01*
D23*
X54823360Y-162798760D02*
X54178200Y-162153600D01*
X54178200Y-162153600D02*
X54178200Y-160255800D01*
X54178200Y-160255800D02*
X55557000Y-158877000D01*
X53695600Y-150698200D02*
X53695600Y-157657800D01*
X53695600Y-157657800D02*
X53695600Y-157530800D01*
X53695600Y-157530800D02*
X55041800Y-158877000D01*
D22*
X55041800Y-158877000D02*
X55557000Y-158877000D01*
D23*
X53695600Y-150698200D02*
X66395600Y-150698200D01*
X104495600Y-150698200D02*
X117195600Y-150698200D01*
D22*
X105841800Y-158877000D02*
X106357000Y-158877000D01*
D23*
X104495600Y-157530800D02*
X105841800Y-158877000D01*
X104495600Y-157657800D02*
X104495600Y-157530800D01*
X104495600Y-150698200D02*
X104495600Y-157657800D01*
X104978200Y-160255800D02*
X106357000Y-158877000D01*
X104978200Y-162153600D02*
X104978200Y-160255800D01*
X105623360Y-162798760D02*
X104978200Y-162153600D01*
D22*
X105907800Y-162798760D02*
X105623360Y-162798760D01*
D23*
X105333800Y-163372760D02*
X105907800Y-162798760D01*
X105333800Y-166707400D02*
X105333800Y-163372760D01*
X105232200Y-158267400D02*
X105841800Y-158877000D01*
X104114600Y-158267400D02*
X105232200Y-158267400D01*
X102158800Y-158267400D02*
X104114600Y-158267400D01*
X104114600Y-158165800D02*
X104622600Y-157657800D01*
X104622600Y-157657800D02*
X104495600Y-157657800D01*
X104114600Y-158267400D02*
X104114600Y-158165800D01*
X78714600Y-158267400D02*
X78714600Y-158165800D01*
X79222600Y-157657800D02*
X79095600Y-157657800D01*
X78714600Y-158165800D02*
X79222600Y-157657800D01*
X76758800Y-158267400D02*
X78714600Y-158267400D01*
X78714600Y-158267400D02*
X79832200Y-158267400D01*
X79832200Y-158267400D02*
X80441800Y-158877000D01*
X79933800Y-166707400D02*
X79933800Y-163372760D01*
X79933800Y-163372760D02*
X80507800Y-162798760D01*
D22*
X80507800Y-162798760D02*
X80223360Y-162798760D01*
D23*
X80223360Y-162798760D02*
X79578200Y-162153600D01*
X79578200Y-162153600D02*
X79578200Y-160255800D01*
X79578200Y-160255800D02*
X80957000Y-158877000D01*
X79095600Y-150698200D02*
X79095600Y-157657800D01*
X79095600Y-157657800D02*
X79095600Y-157530800D01*
X79095600Y-157530800D02*
X80441800Y-158877000D01*
D22*
X80441800Y-158877000D02*
X80957000Y-158877000D01*
D23*
X79095600Y-150698200D02*
X91795600Y-150698200D01*
X79095600Y-31318200D02*
X91795600Y-31318200D01*
D22*
X80441800Y-39497000D02*
X80957000Y-39497000D01*
D23*
X79095600Y-38150800D02*
X80441800Y-39497000D01*
X79095600Y-38277800D02*
X79095600Y-38150800D01*
X79095600Y-31318200D02*
X79095600Y-38277800D01*
X79578200Y-40875800D02*
X80957000Y-39497000D01*
X79578200Y-42773600D02*
X79578200Y-40875800D01*
X80223360Y-43418760D02*
X79578200Y-42773600D01*
D22*
X80507800Y-43418760D02*
X80223360Y-43418760D01*
D23*
X79933800Y-43992760D02*
X80507800Y-43418760D01*
X79933800Y-47327400D02*
X79933800Y-43992760D01*
X79832200Y-38887400D02*
X80441800Y-39497000D01*
X78714600Y-38887400D02*
X79832200Y-38887400D01*
X76758800Y-38887400D02*
X78714600Y-38887400D01*
X78714600Y-38785800D02*
X79222600Y-38277800D01*
X79222600Y-38277800D02*
X79095600Y-38277800D01*
X78714600Y-38887400D02*
X78714600Y-38785800D01*
X104114600Y-38887400D02*
X104114600Y-38785800D01*
X104622600Y-38277800D02*
X104495600Y-38277800D01*
X104114600Y-38785800D02*
X104622600Y-38277800D01*
X102158800Y-38887400D02*
X104114600Y-38887400D01*
X104114600Y-38887400D02*
X105232200Y-38887400D01*
X105232200Y-38887400D02*
X105841800Y-39497000D01*
X105333800Y-47327400D02*
X105333800Y-43992760D01*
X105333800Y-43992760D02*
X105907800Y-43418760D01*
D22*
X105907800Y-43418760D02*
X105623360Y-43418760D01*
D23*
X105623360Y-43418760D02*
X104978200Y-42773600D01*
X104978200Y-42773600D02*
X104978200Y-40875800D01*
X104978200Y-40875800D02*
X106357000Y-39497000D01*
X104495600Y-31318200D02*
X104495600Y-38277800D01*
X104495600Y-38277800D02*
X104495600Y-38150800D01*
X104495600Y-38150800D02*
X105841800Y-39497000D01*
D22*
X105841800Y-39497000D02*
X106357000Y-39497000D01*
D23*
X104495600Y-31318200D02*
X117195600Y-31318200D01*
X53695600Y-31318200D02*
X66395600Y-31318200D01*
D22*
X55041800Y-39497000D02*
X55557000Y-39497000D01*
D23*
X53695600Y-38150800D02*
X55041800Y-39497000D01*
X53695600Y-38277800D02*
X53695600Y-38150800D01*
X53695600Y-31318200D02*
X53695600Y-38277800D01*
X54178200Y-40875800D02*
X55557000Y-39497000D01*
X54178200Y-42773600D02*
X54178200Y-40875800D01*
X54823360Y-43418760D02*
X54178200Y-42773600D01*
D22*
X55107800Y-43418760D02*
X54823360Y-43418760D01*
D23*
X54533800Y-43992760D02*
X55107800Y-43418760D01*
X54533800Y-47327400D02*
X54533800Y-43992760D01*
X54432200Y-38887400D02*
X55041800Y-39497000D01*
X53314600Y-38887400D02*
X54432200Y-38887400D01*
X51358800Y-38887400D02*
X53314600Y-38887400D01*
X53314600Y-38785800D02*
X53822600Y-38277800D01*
X53822600Y-38277800D02*
X53695600Y-38277800D01*
X53314600Y-38887400D02*
X53314600Y-38785800D01*
X27914600Y-38887400D02*
X27914600Y-38785800D01*
X28422600Y-38277800D02*
X28295600Y-38277800D01*
X27914600Y-38785800D02*
X28422600Y-38277800D01*
X25958800Y-38887400D02*
X27914600Y-38887400D01*
X27914600Y-38887400D02*
X29032200Y-38887400D01*
X29032200Y-38887400D02*
X29641800Y-39497000D01*
X29133800Y-47327400D02*
X29133800Y-43992760D01*
X29133800Y-43992760D02*
X29707800Y-43418760D01*
D22*
X29707800Y-43418760D02*
X29423360Y-43418760D01*
D23*
X29423360Y-43418760D02*
X28778200Y-42773600D01*
X28778200Y-42773600D02*
X28778200Y-40875800D01*
X28778200Y-40875800D02*
X30157000Y-39497000D01*
X28295600Y-31318200D02*
X28295600Y-38277800D01*
X28295600Y-38277800D02*
X28295600Y-38150800D01*
X28295600Y-38150800D02*
X29641800Y-39497000D01*
D22*
X29641800Y-39497000D02*
X30157000Y-39497000D01*
D23*
X28295600Y-31318200D02*
X40995600Y-31318200D01*
X142621000Y-53382000D02*
X142621000Y-54483000D01*
X141147800Y-48514000D02*
X141147800Y-47007800D01*
X142621000Y-54483000D02*
X142595600Y-54508400D01*
X141147800Y-47007800D02*
X144838400Y-47007800D01*
X144838400Y-47007800D02*
X145338800Y-46507400D01*
X129336800Y-47327400D02*
X129336800Y-42849800D01*
X129336800Y-42849800D02*
X127914400Y-41427400D01*
X127914400Y-41427400D02*
X127558800Y-41427400D01*
X143484600Y-42062400D02*
X137490200Y-42062400D01*
X137490200Y-42062400D02*
X137414000Y-41986200D01*
X145338800Y-28727400D02*
X145338800Y-36271200D01*
X143484600Y-44983400D02*
X145008600Y-46507400D01*
X143484600Y-38125400D02*
X143484600Y-42062400D01*
X143484600Y-42062400D02*
X143484600Y-44983400D01*
X145338800Y-36271200D02*
X143484600Y-38125400D01*
X145008600Y-46507400D02*
X145338800Y-46507400D01*
X132486400Y-20548600D02*
X132537200Y-20548600D01*
X132537200Y-20548600D02*
X133959600Y-19126200D01*
D22*
X133959600Y-19126200D02*
X138684000Y-19126200D01*
D23*
X138684000Y-19126200D02*
X140106400Y-20548600D01*
X140106400Y-20548600D02*
X140258800Y-20548600D01*
X140258800Y-20548600D02*
X145338800Y-26187400D01*
X145338800Y-26187400D02*
X145338800Y-28727400D01*
X168021000Y-53382000D02*
X168021000Y-54483000D01*
X166547800Y-48514000D02*
X166547800Y-47007800D01*
X168021000Y-54483000D02*
X167995600Y-54508400D01*
X166547800Y-47007800D02*
X170238400Y-47007800D01*
X170238400Y-47007800D02*
X170738800Y-46507400D01*
X154736800Y-47327400D02*
X154736800Y-42849800D01*
X154736800Y-42849800D02*
X153314400Y-41427400D01*
X153314400Y-41427400D02*
X152958800Y-41427400D01*
X168884600Y-42062400D02*
X162890200Y-42062400D01*
X162890200Y-42062400D02*
X162814000Y-41986200D01*
X170738800Y-28727400D02*
X170738800Y-36271200D01*
X168884600Y-44983400D02*
X170408600Y-46507400D01*
X168884600Y-38125400D02*
X168884600Y-42062400D01*
X168884600Y-42062400D02*
X168884600Y-44983400D01*
X170738800Y-36271200D02*
X168884600Y-38125400D01*
X170408600Y-46507400D02*
X170738800Y-46507400D01*
X157886400Y-20548600D02*
X157937200Y-20548600D01*
X157937200Y-20548600D02*
X159359600Y-19126200D01*
D22*
X159359600Y-19126200D02*
X164084000Y-19126200D01*
D23*
X164084000Y-19126200D02*
X165506400Y-20548600D01*
X165506400Y-20548600D02*
X165658800Y-20548600D01*
X165658800Y-20548600D02*
X170738800Y-26187400D01*
X170738800Y-26187400D02*
X170738800Y-28727400D01*
X170738800Y-145567400D02*
X170738800Y-148107400D01*
X165658800Y-139928600D02*
X170738800Y-145567400D01*
X165506400Y-139928600D02*
X165658800Y-139928600D01*
X164084000Y-138506200D02*
X165506400Y-139928600D01*
D22*
X159359600Y-138506200D02*
X164084000Y-138506200D01*
D23*
X157937200Y-139928600D02*
X159359600Y-138506200D01*
X157886400Y-139928600D02*
X157937200Y-139928600D01*
X170408600Y-165887400D02*
X170738800Y-165887400D01*
X170738800Y-155651200D02*
X168884600Y-157505400D01*
X168884600Y-161442400D02*
X168884600Y-164363400D01*
X168884600Y-157505400D02*
X168884600Y-161442400D01*
X168884600Y-164363400D02*
X170408600Y-165887400D01*
X170738800Y-148107400D02*
X170738800Y-155651200D01*
X162890200Y-161442400D02*
X162814000Y-161366200D01*
X168884600Y-161442400D02*
X162890200Y-161442400D01*
X153314400Y-160807400D02*
X152958800Y-160807400D01*
X154736800Y-162229800D02*
X153314400Y-160807400D01*
X154736800Y-166707400D02*
X154736800Y-162229800D01*
X170238400Y-166387800D02*
X170738800Y-165887400D01*
X166547800Y-166387800D02*
X170238400Y-166387800D01*
X168021000Y-173863000D02*
X167995600Y-173888400D01*
X166547800Y-167894000D02*
X166547800Y-166387800D01*
X168021000Y-172762000D02*
X168021000Y-173863000D01*
X145338800Y-145567400D02*
X145338800Y-148107400D01*
X140258800Y-139928600D02*
X145338800Y-145567400D01*
X140106400Y-139928600D02*
X140258800Y-139928600D01*
X138684000Y-138506200D02*
X140106400Y-139928600D01*
D22*
X133959600Y-138506200D02*
X138684000Y-138506200D01*
D23*
X132537200Y-139928600D02*
X133959600Y-138506200D01*
X132486400Y-139928600D02*
X132537200Y-139928600D01*
X145008600Y-165887400D02*
X145338800Y-165887400D01*
X145338800Y-155651200D02*
X143484600Y-157505400D01*
X143484600Y-161442400D02*
X143484600Y-164363400D01*
X143484600Y-157505400D02*
X143484600Y-161442400D01*
X143484600Y-164363400D02*
X145008600Y-165887400D01*
X145338800Y-148107400D02*
X145338800Y-155651200D01*
X137490200Y-161442400D02*
X137414000Y-161366200D01*
X143484600Y-161442400D02*
X137490200Y-161442400D01*
X127914400Y-160807400D02*
X127558800Y-160807400D01*
X129336800Y-162229800D02*
X127914400Y-160807400D01*
X129336800Y-166707400D02*
X129336800Y-162229800D01*
X144838400Y-166387800D02*
X145338800Y-165887400D01*
X141147800Y-166387800D02*
X144838400Y-166387800D01*
X142621000Y-173863000D02*
X142595600Y-173888400D01*
X141147800Y-167894000D02*
X141147800Y-166387800D01*
X142621000Y-172762000D02*
X142621000Y-173863000D01*
X43738800Y-145567400D02*
X43738800Y-148107400D01*
X38658800Y-139928600D02*
X43738800Y-145567400D01*
X38506400Y-139928600D02*
X38658800Y-139928600D01*
X37084000Y-138506200D02*
X38506400Y-139928600D01*
D22*
X32359600Y-138506200D02*
X37084000Y-138506200D01*
D23*
X30937200Y-139928600D02*
X32359600Y-138506200D01*
X30886400Y-139928600D02*
X30937200Y-139928600D01*
X43408600Y-165887400D02*
X43738800Y-165887400D01*
X43738800Y-155651200D02*
X41884600Y-157505400D01*
X41884600Y-161442400D02*
X41884600Y-164363400D01*
X41884600Y-157505400D02*
X41884600Y-161442400D01*
X41884600Y-164363400D02*
X43408600Y-165887400D01*
X43738800Y-148107400D02*
X43738800Y-155651200D01*
X35890200Y-161442400D02*
X35814000Y-161366200D01*
X41884600Y-161442400D02*
X35890200Y-161442400D01*
X26314400Y-160807400D02*
X25958800Y-160807400D01*
X27736800Y-162229800D02*
X26314400Y-160807400D01*
X27736800Y-166707400D02*
X27736800Y-162229800D01*
X43238400Y-166387800D02*
X43738800Y-165887400D01*
X39547800Y-166387800D02*
X43238400Y-166387800D01*
X41021000Y-173863000D02*
X40995600Y-173888400D01*
X39547800Y-167894000D02*
X39547800Y-166387800D01*
X41021000Y-172762000D02*
X41021000Y-173863000D01*
X66421000Y-172762000D02*
X66421000Y-173863000D01*
X64947800Y-167894000D02*
X64947800Y-166387800D01*
X66421000Y-173863000D02*
X66395600Y-173888400D01*
X64947800Y-166387800D02*
X68638400Y-166387800D01*
X68638400Y-166387800D02*
X69138800Y-165887400D01*
X53136800Y-166707400D02*
X53136800Y-162229800D01*
X53136800Y-162229800D02*
X51714400Y-160807400D01*
X51714400Y-160807400D02*
X51358800Y-160807400D01*
X67284600Y-161442400D02*
X61290200Y-161442400D01*
X61290200Y-161442400D02*
X61214000Y-161366200D01*
X69138800Y-148107400D02*
X69138800Y-155651200D01*
X67284600Y-164363400D02*
X68808600Y-165887400D01*
X67284600Y-157505400D02*
X67284600Y-161442400D01*
X67284600Y-161442400D02*
X67284600Y-164363400D01*
X69138800Y-155651200D02*
X67284600Y-157505400D01*
X68808600Y-165887400D02*
X69138800Y-165887400D01*
X56286400Y-139928600D02*
X56337200Y-139928600D01*
X56337200Y-139928600D02*
X57759600Y-138506200D01*
D22*
X57759600Y-138506200D02*
X62484000Y-138506200D01*
D23*
X62484000Y-138506200D02*
X63906400Y-139928600D01*
X63906400Y-139928600D02*
X64058800Y-139928600D01*
X64058800Y-139928600D02*
X69138800Y-145567400D01*
X69138800Y-145567400D02*
X69138800Y-148107400D01*
X119938800Y-145567400D02*
X119938800Y-148107400D01*
X114858800Y-139928600D02*
X119938800Y-145567400D01*
X114706400Y-139928600D02*
X114858800Y-139928600D01*
X113284000Y-138506200D02*
X114706400Y-139928600D01*
D22*
X108559600Y-138506200D02*
X113284000Y-138506200D01*
D23*
X107137200Y-139928600D02*
X108559600Y-138506200D01*
X107086400Y-139928600D02*
X107137200Y-139928600D01*
X119608600Y-165887400D02*
X119938800Y-165887400D01*
X119938800Y-155651200D02*
X118084600Y-157505400D01*
X118084600Y-161442400D02*
X118084600Y-164363400D01*
X118084600Y-157505400D02*
X118084600Y-161442400D01*
X118084600Y-164363400D02*
X119608600Y-165887400D01*
X119938800Y-148107400D02*
X119938800Y-155651200D01*
X112090200Y-161442400D02*
X112014000Y-161366200D01*
X118084600Y-161442400D02*
X112090200Y-161442400D01*
X102514400Y-160807400D02*
X102158800Y-160807400D01*
X103936800Y-162229800D02*
X102514400Y-160807400D01*
X103936800Y-166707400D02*
X103936800Y-162229800D01*
X119438400Y-166387800D02*
X119938800Y-165887400D01*
X115747800Y-166387800D02*
X119438400Y-166387800D01*
X117221000Y-173863000D02*
X117195600Y-173888400D01*
X115747800Y-167894000D02*
X115747800Y-166387800D01*
X117221000Y-172762000D02*
X117221000Y-173863000D01*
X91821000Y-172762000D02*
X91821000Y-173863000D01*
X90347800Y-167894000D02*
X90347800Y-166387800D01*
X91821000Y-173863000D02*
X91795600Y-173888400D01*
X90347800Y-166387800D02*
X94038400Y-166387800D01*
X94038400Y-166387800D02*
X94538800Y-165887400D01*
X78536800Y-166707400D02*
X78536800Y-162229800D01*
X78536800Y-162229800D02*
X77114400Y-160807400D01*
X77114400Y-160807400D02*
X76758800Y-160807400D01*
X92684600Y-161442400D02*
X86690200Y-161442400D01*
X86690200Y-161442400D02*
X86614000Y-161366200D01*
X94538800Y-148107400D02*
X94538800Y-155651200D01*
X92684600Y-164363400D02*
X94208600Y-165887400D01*
X92684600Y-157505400D02*
X92684600Y-161442400D01*
X92684600Y-161442400D02*
X92684600Y-164363400D01*
X94538800Y-155651200D02*
X92684600Y-157505400D01*
X94208600Y-165887400D02*
X94538800Y-165887400D01*
X81686400Y-139928600D02*
X81737200Y-139928600D01*
X81737200Y-139928600D02*
X83159600Y-138506200D01*
D22*
X83159600Y-138506200D02*
X87884000Y-138506200D01*
D23*
X87884000Y-138506200D02*
X89306400Y-139928600D01*
X89306400Y-139928600D02*
X89458800Y-139928600D01*
X89458800Y-139928600D02*
X94538800Y-145567400D01*
X94538800Y-145567400D02*
X94538800Y-148107400D01*
X94538800Y-26187400D02*
X94538800Y-28727400D01*
X89458800Y-20548600D02*
X94538800Y-26187400D01*
X89306400Y-20548600D02*
X89458800Y-20548600D01*
X87884000Y-19126200D02*
X89306400Y-20548600D01*
D22*
X83159600Y-19126200D02*
X87884000Y-19126200D01*
D23*
X81737200Y-20548600D02*
X83159600Y-19126200D01*
X81686400Y-20548600D02*
X81737200Y-20548600D01*
X94208600Y-46507400D02*
X94538800Y-46507400D01*
X94538800Y-36271200D02*
X92684600Y-38125400D01*
X92684600Y-42062400D02*
X92684600Y-44983400D01*
X92684600Y-38125400D02*
X92684600Y-42062400D01*
X92684600Y-44983400D02*
X94208600Y-46507400D01*
X94538800Y-28727400D02*
X94538800Y-36271200D01*
X86690200Y-42062400D02*
X86614000Y-41986200D01*
X92684600Y-42062400D02*
X86690200Y-42062400D01*
X77114400Y-41427400D02*
X76758800Y-41427400D01*
X78536800Y-42849800D02*
X77114400Y-41427400D01*
X78536800Y-47327400D02*
X78536800Y-42849800D01*
X94038400Y-47007800D02*
X94538800Y-46507400D01*
X90347800Y-47007800D02*
X94038400Y-47007800D01*
X91821000Y-54483000D02*
X91795600Y-54508400D01*
X90347800Y-48514000D02*
X90347800Y-47007800D01*
X91821000Y-53382000D02*
X91821000Y-54483000D01*
X117221000Y-53382000D02*
X117221000Y-54483000D01*
X115747800Y-48514000D02*
X115747800Y-47007800D01*
X117221000Y-54483000D02*
X117195600Y-54508400D01*
X115747800Y-47007800D02*
X119438400Y-47007800D01*
X119438400Y-47007800D02*
X119938800Y-46507400D01*
X103936800Y-47327400D02*
X103936800Y-42849800D01*
X103936800Y-42849800D02*
X102514400Y-41427400D01*
X102514400Y-41427400D02*
X102158800Y-41427400D01*
X118084600Y-42062400D02*
X112090200Y-42062400D01*
X112090200Y-42062400D02*
X112014000Y-41986200D01*
X119938800Y-28727400D02*
X119938800Y-36271200D01*
X118084600Y-44983400D02*
X119608600Y-46507400D01*
X118084600Y-38125400D02*
X118084600Y-42062400D01*
X118084600Y-42062400D02*
X118084600Y-44983400D01*
X119938800Y-36271200D02*
X118084600Y-38125400D01*
X119608600Y-46507400D02*
X119938800Y-46507400D01*
X107086400Y-20548600D02*
X107137200Y-20548600D01*
X107137200Y-20548600D02*
X108559600Y-19126200D01*
D22*
X108559600Y-19126200D02*
X113284000Y-19126200D01*
D23*
X113284000Y-19126200D02*
X114706400Y-20548600D01*
X114706400Y-20548600D02*
X114858800Y-20548600D01*
X114858800Y-20548600D02*
X119938800Y-26187400D01*
X119938800Y-26187400D02*
X119938800Y-28727400D01*
X69138800Y-26187400D02*
X69138800Y-28727400D01*
X64058800Y-20548600D02*
X69138800Y-26187400D01*
X63906400Y-20548600D02*
X64058800Y-20548600D01*
X62484000Y-19126200D02*
X63906400Y-20548600D01*
D22*
X57759600Y-19126200D02*
X62484000Y-19126200D01*
D23*
X56337200Y-20548600D02*
X57759600Y-19126200D01*
X56286400Y-20548600D02*
X56337200Y-20548600D01*
X68808600Y-46507400D02*
X69138800Y-46507400D01*
X69138800Y-36271200D02*
X67284600Y-38125400D01*
X67284600Y-42062400D02*
X67284600Y-44983400D01*
X67284600Y-38125400D02*
X67284600Y-42062400D01*
X67284600Y-44983400D02*
X68808600Y-46507400D01*
X69138800Y-28727400D02*
X69138800Y-36271200D01*
X61290200Y-42062400D02*
X61214000Y-41986200D01*
X67284600Y-42062400D02*
X61290200Y-42062400D01*
X51714400Y-41427400D02*
X51358800Y-41427400D01*
X53136800Y-42849800D02*
X51714400Y-41427400D01*
X53136800Y-47327400D02*
X53136800Y-42849800D01*
X68638400Y-47007800D02*
X69138800Y-46507400D01*
X64947800Y-47007800D02*
X68638400Y-47007800D01*
X66421000Y-54483000D02*
X66395600Y-54508400D01*
X64947800Y-48514000D02*
X64947800Y-47007800D01*
X66421000Y-53382000D02*
X66421000Y-54483000D01*
X41021000Y-53382000D02*
X41021000Y-54483000D01*
X39547800Y-48514000D02*
X39547800Y-47007800D01*
X41021000Y-54483000D02*
X40995600Y-54508400D01*
X39547800Y-47007800D02*
X43238400Y-47007800D01*
X43238400Y-47007800D02*
X43738800Y-46507400D01*
X27736800Y-47327400D02*
X27736800Y-42849800D01*
X27736800Y-42849800D02*
X26314400Y-41427400D01*
X26314400Y-41427400D02*
X25958800Y-41427400D01*
X41884600Y-42062400D02*
X35890200Y-42062400D01*
X35890200Y-42062400D02*
X35814000Y-41986200D01*
X43738800Y-28727400D02*
X43738800Y-36271200D01*
X41884600Y-44983400D02*
X43408600Y-46507400D01*
X41884600Y-38125400D02*
X41884600Y-42062400D01*
X41884600Y-42062400D02*
X41884600Y-44983400D01*
X43738800Y-36271200D02*
X41884600Y-38125400D01*
X43408600Y-46507400D02*
X43738800Y-46507400D01*
X30886400Y-20548600D02*
X30937200Y-20548600D01*
X30937200Y-20548600D02*
X32359600Y-19126200D01*
D22*
X32359600Y-19126200D02*
X37084000Y-19126200D01*
D23*
X37084000Y-19126200D02*
X38506400Y-20548600D01*
X38506400Y-20548600D02*
X38658800Y-20548600D01*
X38658800Y-20548600D02*
X43738800Y-26187400D01*
X43738800Y-26187400D02*
X43738800Y-28727400D01*
D22*
X139319000Y-44163400D02*
X139319000Y-45237400D01*
X139877800Y-45796200D02*
X139877800Y-47007800D01*
X139319000Y-45237400D02*
X139877800Y-45796200D01*
X164719000Y-44163400D02*
X164719000Y-45237400D01*
X165277800Y-45796200D02*
X165277800Y-47007800D01*
X164719000Y-45237400D02*
X165277800Y-45796200D01*
X164719000Y-164617400D02*
X165277800Y-165176200D01*
X165277800Y-165176200D02*
X165277800Y-166387800D01*
X164719000Y-163543400D02*
X164719000Y-164617400D01*
X139319000Y-164617400D02*
X139877800Y-165176200D01*
X139877800Y-165176200D02*
X139877800Y-166387800D01*
X139319000Y-163543400D02*
X139319000Y-164617400D01*
X37719000Y-164617400D02*
X38277800Y-165176200D01*
X38277800Y-165176200D02*
X38277800Y-166387800D01*
X37719000Y-163543400D02*
X37719000Y-164617400D01*
X63119000Y-163543400D02*
X63119000Y-164617400D01*
X63677800Y-165176200D02*
X63677800Y-166387800D01*
X63119000Y-164617400D02*
X63677800Y-165176200D01*
X113919000Y-164617400D02*
X114477800Y-165176200D01*
X114477800Y-165176200D02*
X114477800Y-166387800D01*
X113919000Y-163543400D02*
X113919000Y-164617400D01*
X88519000Y-163543400D02*
X88519000Y-164617400D01*
X89077800Y-165176200D02*
X89077800Y-166387800D01*
X88519000Y-164617400D02*
X89077800Y-165176200D01*
X88519000Y-45237400D02*
X89077800Y-45796200D01*
X89077800Y-45796200D02*
X89077800Y-47007800D01*
X88519000Y-44163400D02*
X88519000Y-45237400D01*
X113919000Y-44163400D02*
X113919000Y-45237400D01*
X114477800Y-45796200D02*
X114477800Y-47007800D01*
X113919000Y-45237400D02*
X114477800Y-45796200D01*
X63119000Y-45237400D02*
X63677800Y-45796200D01*
X63677800Y-45796200D02*
X63677800Y-47007800D01*
X63119000Y-44163400D02*
X63119000Y-45237400D01*
X37719000Y-44163400D02*
X37719000Y-45237400D01*
X38277800Y-45796200D02*
X38277800Y-47007800D01*
X37719000Y-45237400D02*
X38277800Y-45796200D01*
X133527800Y-48818800D02*
X133477000Y-48869600D01*
X133527800Y-48818800D02*
X133527800Y-47007800D01*
X158927800Y-48818800D02*
X158877000Y-48869600D01*
X158927800Y-48818800D02*
X158927800Y-47007800D01*
X158927800Y-168198800D02*
X158927800Y-166387800D01*
X158927800Y-168198800D02*
X158877000Y-168249600D01*
X133527800Y-168198800D02*
X133527800Y-166387800D01*
X133527800Y-168198800D02*
X133477000Y-168249600D01*
X31927800Y-168198800D02*
X31927800Y-166387800D01*
X31927800Y-168198800D02*
X31877000Y-168249600D01*
X57327800Y-168198800D02*
X57277000Y-168249600D01*
X57327800Y-168198800D02*
X57327800Y-166387800D01*
X108127800Y-168198800D02*
X108127800Y-166387800D01*
X108127800Y-168198800D02*
X108077000Y-168249600D01*
X82727800Y-168198800D02*
X82677000Y-168249600D01*
X82727800Y-168198800D02*
X82727800Y-166387800D01*
X82727800Y-48818800D02*
X82727800Y-47007800D01*
X82727800Y-48818800D02*
X82677000Y-48869600D01*
X108127800Y-48818800D02*
X108077000Y-48869600D01*
X108127800Y-48818800D02*
X108127800Y-47007800D01*
X57327800Y-48818800D02*
X57327800Y-47007800D01*
X57327800Y-48818800D02*
X57277000Y-48869600D01*
X31927800Y-48818800D02*
X31877000Y-48869600D01*
X31927800Y-48818800D02*
X31927800Y-47007800D01*
X141147800Y-54464800D02*
X141147800Y-52407800D01*
X166547800Y-54464800D02*
X166547800Y-52407800D01*
X166547800Y-173844800D02*
X166547800Y-171787800D01*
X141147800Y-173844800D02*
X141147800Y-171787800D01*
X39547800Y-173844800D02*
X39547800Y-171787800D01*
X64947800Y-173844800D02*
X64947800Y-171787800D01*
X115747800Y-173844800D02*
X115747800Y-171787800D01*
X90347800Y-173844800D02*
X90347800Y-171787800D01*
X90347800Y-54464800D02*
X90347800Y-52407800D01*
X115747800Y-54464800D02*
X115747800Y-52407800D01*
X64947800Y-54464800D02*
X64947800Y-52407800D01*
X39547800Y-54464800D02*
X39547800Y-52407800D01*
X133527800Y-52407800D02*
X133527800Y-54439400D01*
X133527800Y-54439400D02*
X133553200Y-54464800D01*
X158927800Y-52407800D02*
X158927800Y-54439400D01*
X158927800Y-54439400D02*
X158953200Y-54464800D01*
X158927800Y-173819400D02*
X158953200Y-173844800D01*
X158927800Y-171787800D02*
X158927800Y-173819400D01*
X133527800Y-173819400D02*
X133553200Y-173844800D01*
X133527800Y-171787800D02*
X133527800Y-173819400D01*
X31927800Y-173819400D02*
X31953200Y-173844800D01*
X31927800Y-171787800D02*
X31927800Y-173819400D01*
X57327800Y-171787800D02*
X57327800Y-173819400D01*
X57327800Y-173819400D02*
X57353200Y-173844800D01*
X108127800Y-173819400D02*
X108153200Y-173844800D01*
X108127800Y-171787800D02*
X108127800Y-173819400D01*
X82727800Y-171787800D02*
X82727800Y-173819400D01*
X82727800Y-173819400D02*
X82753200Y-173844800D01*
X82727800Y-54439400D02*
X82753200Y-54464800D01*
X82727800Y-52407800D02*
X82727800Y-54439400D01*
X108127800Y-52407800D02*
X108127800Y-54439400D01*
X108127800Y-54439400D02*
X108153200Y-54464800D01*
X57327800Y-54439400D02*
X57353200Y-54464800D01*
X57327800Y-52407800D02*
X57327800Y-54439400D01*
X31927800Y-52407800D02*
X31927800Y-54439400D01*
X31927800Y-54439400D02*
X31953200Y-54464800D01*
D24*
X137167200Y-55364800D02*
X136220200Y-56311800D01*
X137515600Y-55364800D02*
X137167200Y-55364800D01*
X133553200Y-55364800D02*
X137515600Y-55364800D01*
X137515600Y-55364800D02*
X141147800Y-55364800D01*
X162567200Y-55364800D02*
X161620200Y-56311800D01*
X162915600Y-55364800D02*
X162567200Y-55364800D01*
X158953200Y-55364800D02*
X162915600Y-55364800D01*
X162915600Y-55364800D02*
X166547800Y-55364800D01*
X162915600Y-174744800D02*
X166547800Y-174744800D01*
X158953200Y-174744800D02*
X162915600Y-174744800D01*
X162915600Y-174744800D02*
X162567200Y-174744800D01*
X162567200Y-174744800D02*
X161620200Y-175691800D01*
X137515600Y-174744800D02*
X141147800Y-174744800D01*
X133553200Y-174744800D02*
X137515600Y-174744800D01*
X137515600Y-174744800D02*
X137167200Y-174744800D01*
X137167200Y-174744800D02*
X136220200Y-175691800D01*
X35915600Y-174744800D02*
X39547800Y-174744800D01*
X31953200Y-174744800D02*
X35915600Y-174744800D01*
X35915600Y-174744800D02*
X35567200Y-174744800D01*
X35567200Y-174744800D02*
X34620200Y-175691800D01*
X60967200Y-174744800D02*
X60020200Y-175691800D01*
X61315600Y-174744800D02*
X60967200Y-174744800D01*
X57353200Y-174744800D02*
X61315600Y-174744800D01*
X61315600Y-174744800D02*
X64947800Y-174744800D01*
X112115600Y-174744800D02*
X115747800Y-174744800D01*
X108153200Y-174744800D02*
X112115600Y-174744800D01*
X112115600Y-174744800D02*
X111767200Y-174744800D01*
X111767200Y-174744800D02*
X110820200Y-175691800D01*
X86367200Y-174744800D02*
X85420200Y-175691800D01*
X86715600Y-174744800D02*
X86367200Y-174744800D01*
X82753200Y-174744800D02*
X86715600Y-174744800D01*
X86715600Y-174744800D02*
X90347800Y-174744800D01*
X86715600Y-55364800D02*
X90347800Y-55364800D01*
X82753200Y-55364800D02*
X86715600Y-55364800D01*
X86715600Y-55364800D02*
X86367200Y-55364800D01*
X86367200Y-55364800D02*
X85420200Y-56311800D01*
X111767200Y-55364800D02*
X110820200Y-56311800D01*
X112115600Y-55364800D02*
X111767200Y-55364800D01*
X108153200Y-55364800D02*
X112115600Y-55364800D01*
X112115600Y-55364800D02*
X115747800Y-55364800D01*
X61315600Y-55364800D02*
X64947800Y-55364800D01*
X57353200Y-55364800D02*
X61315600Y-55364800D01*
X61315600Y-55364800D02*
X60967200Y-55364800D01*
X60967200Y-55364800D02*
X60020200Y-56311800D01*
X35567200Y-55364800D02*
X34620200Y-56311800D01*
X35915600Y-55364800D02*
X35567200Y-55364800D01*
X31953200Y-55364800D02*
X35915600Y-55364800D01*
X35915600Y-55364800D02*
X39547800Y-55364800D01*
D22*
X130175000Y-53060600D02*
X130175000Y-51993800D01*
X134797800Y-51638200D02*
X134797800Y-52407800D01*
X134061200Y-50901600D02*
X134797800Y-51638200D01*
X131267200Y-50901600D02*
X134061200Y-50901600D01*
X130175000Y-51993800D02*
X131267200Y-50901600D01*
X130175000Y-53060600D02*
X130200400Y-53086000D01*
D24*
X134797800Y-52407800D02*
X134797800Y-51587400D01*
X136575800Y-51054000D02*
X137337800Y-51816000D01*
X135331200Y-51054000D02*
X136575800Y-51054000D01*
X134797800Y-51587400D02*
X135331200Y-51054000D01*
X137337800Y-51816000D02*
X137337800Y-52407800D01*
D22*
X155575000Y-53060600D02*
X155575000Y-51993800D01*
X160197800Y-51638200D02*
X160197800Y-52407800D01*
X159461200Y-50901600D02*
X160197800Y-51638200D01*
X156667200Y-50901600D02*
X159461200Y-50901600D01*
X155575000Y-51993800D02*
X156667200Y-50901600D01*
X155575000Y-53060600D02*
X155600400Y-53086000D01*
D24*
X160197800Y-52407800D02*
X160197800Y-51587400D01*
X161975800Y-51054000D02*
X162737800Y-51816000D01*
X160731200Y-51054000D02*
X161975800Y-51054000D01*
X160197800Y-51587400D02*
X160731200Y-51054000D01*
X162737800Y-51816000D02*
X162737800Y-52407800D01*
X162737800Y-171196000D02*
X162737800Y-171787800D01*
X160197800Y-170967400D02*
X160731200Y-170434000D01*
X160731200Y-170434000D02*
X161975800Y-170434000D01*
X161975800Y-170434000D02*
X162737800Y-171196000D01*
X160197800Y-171787800D02*
X160197800Y-170967400D01*
D22*
X155575000Y-172440600D02*
X155600400Y-172466000D01*
X155575000Y-171373800D02*
X156667200Y-170281600D01*
X156667200Y-170281600D02*
X159461200Y-170281600D01*
X159461200Y-170281600D02*
X160197800Y-171018200D01*
X160197800Y-171018200D02*
X160197800Y-171787800D01*
X155575000Y-172440600D02*
X155575000Y-171373800D01*
D24*
X137337800Y-171196000D02*
X137337800Y-171787800D01*
X134797800Y-170967400D02*
X135331200Y-170434000D01*
X135331200Y-170434000D02*
X136575800Y-170434000D01*
X136575800Y-170434000D02*
X137337800Y-171196000D01*
X134797800Y-171787800D02*
X134797800Y-170967400D01*
D22*
X130175000Y-172440600D02*
X130200400Y-172466000D01*
X130175000Y-171373800D02*
X131267200Y-170281600D01*
X131267200Y-170281600D02*
X134061200Y-170281600D01*
X134061200Y-170281600D02*
X134797800Y-171018200D01*
X134797800Y-171018200D02*
X134797800Y-171787800D01*
X130175000Y-172440600D02*
X130175000Y-171373800D01*
D24*
X35737800Y-171196000D02*
X35737800Y-171787800D01*
X33197800Y-170967400D02*
X33731200Y-170434000D01*
X33731200Y-170434000D02*
X34975800Y-170434000D01*
X34975800Y-170434000D02*
X35737800Y-171196000D01*
X33197800Y-171787800D02*
X33197800Y-170967400D01*
D22*
X28575000Y-172440600D02*
X28600400Y-172466000D01*
X28575000Y-171373800D02*
X29667200Y-170281600D01*
X29667200Y-170281600D02*
X32461200Y-170281600D01*
X32461200Y-170281600D02*
X33197800Y-171018200D01*
X33197800Y-171018200D02*
X33197800Y-171787800D01*
X28575000Y-172440600D02*
X28575000Y-171373800D01*
X53975000Y-172440600D02*
X53975000Y-171373800D01*
X58597800Y-171018200D02*
X58597800Y-171787800D01*
X57861200Y-170281600D02*
X58597800Y-171018200D01*
X55067200Y-170281600D02*
X57861200Y-170281600D01*
X53975000Y-171373800D02*
X55067200Y-170281600D01*
X53975000Y-172440600D02*
X54000400Y-172466000D01*
D24*
X58597800Y-171787800D02*
X58597800Y-170967400D01*
X60375800Y-170434000D02*
X61137800Y-171196000D01*
X59131200Y-170434000D02*
X60375800Y-170434000D01*
X58597800Y-170967400D02*
X59131200Y-170434000D01*
X61137800Y-171196000D02*
X61137800Y-171787800D01*
X111937800Y-171196000D02*
X111937800Y-171787800D01*
X109397800Y-170967400D02*
X109931200Y-170434000D01*
X109931200Y-170434000D02*
X111175800Y-170434000D01*
X111175800Y-170434000D02*
X111937800Y-171196000D01*
X109397800Y-171787800D02*
X109397800Y-170967400D01*
D22*
X104775000Y-172440600D02*
X104800400Y-172466000D01*
X104775000Y-171373800D02*
X105867200Y-170281600D01*
X105867200Y-170281600D02*
X108661200Y-170281600D01*
X108661200Y-170281600D02*
X109397800Y-171018200D01*
X109397800Y-171018200D02*
X109397800Y-171787800D01*
X104775000Y-172440600D02*
X104775000Y-171373800D01*
X79375000Y-172440600D02*
X79375000Y-171373800D01*
X83997800Y-171018200D02*
X83997800Y-171787800D01*
X83261200Y-170281600D02*
X83997800Y-171018200D01*
X80467200Y-170281600D02*
X83261200Y-170281600D01*
X79375000Y-171373800D02*
X80467200Y-170281600D01*
X79375000Y-172440600D02*
X79400400Y-172466000D01*
D24*
X83997800Y-171787800D02*
X83997800Y-170967400D01*
X85775800Y-170434000D02*
X86537800Y-171196000D01*
X84531200Y-170434000D02*
X85775800Y-170434000D01*
X83997800Y-170967400D02*
X84531200Y-170434000D01*
X86537800Y-171196000D02*
X86537800Y-171787800D01*
X86537800Y-51816000D02*
X86537800Y-52407800D01*
X83997800Y-51587400D02*
X84531200Y-51054000D01*
X84531200Y-51054000D02*
X85775800Y-51054000D01*
X85775800Y-51054000D02*
X86537800Y-51816000D01*
X83997800Y-52407800D02*
X83997800Y-51587400D01*
D22*
X79375000Y-53060600D02*
X79400400Y-53086000D01*
X79375000Y-51993800D02*
X80467200Y-50901600D01*
X80467200Y-50901600D02*
X83261200Y-50901600D01*
X83261200Y-50901600D02*
X83997800Y-51638200D01*
X83997800Y-51638200D02*
X83997800Y-52407800D01*
X79375000Y-53060600D02*
X79375000Y-51993800D01*
X104775000Y-53060600D02*
X104775000Y-51993800D01*
X109397800Y-51638200D02*
X109397800Y-52407800D01*
X108661200Y-50901600D02*
X109397800Y-51638200D01*
X105867200Y-50901600D02*
X108661200Y-50901600D01*
X104775000Y-51993800D02*
X105867200Y-50901600D01*
X104775000Y-53060600D02*
X104800400Y-53086000D01*
D24*
X109397800Y-52407800D02*
X109397800Y-51587400D01*
X111175800Y-51054000D02*
X111937800Y-51816000D01*
X109931200Y-51054000D02*
X111175800Y-51054000D01*
X109397800Y-51587400D02*
X109931200Y-51054000D01*
X111937800Y-51816000D02*
X111937800Y-52407800D01*
X61137800Y-51816000D02*
X61137800Y-52407800D01*
X58597800Y-51587400D02*
X59131200Y-51054000D01*
X59131200Y-51054000D02*
X60375800Y-51054000D01*
X60375800Y-51054000D02*
X61137800Y-51816000D01*
X58597800Y-52407800D02*
X58597800Y-51587400D01*
D22*
X53975000Y-53060600D02*
X54000400Y-53086000D01*
X53975000Y-51993800D02*
X55067200Y-50901600D01*
X55067200Y-50901600D02*
X57861200Y-50901600D01*
X57861200Y-50901600D02*
X58597800Y-51638200D01*
X58597800Y-51638200D02*
X58597800Y-52407800D01*
X53975000Y-53060600D02*
X53975000Y-51993800D01*
X28575000Y-53060600D02*
X28575000Y-51993800D01*
X33197800Y-51638200D02*
X33197800Y-52407800D01*
X32461200Y-50901600D02*
X33197800Y-51638200D01*
X29667200Y-50901600D02*
X32461200Y-50901600D01*
X28575000Y-51993800D02*
X29667200Y-50901600D01*
X28575000Y-53060600D02*
X28600400Y-53086000D01*
D24*
X33197800Y-52407800D02*
X33197800Y-51587400D01*
X34975800Y-51054000D02*
X35737800Y-51816000D01*
X33731200Y-51054000D02*
X34975800Y-51054000D01*
X33197800Y-51587400D02*
X33731200Y-51054000D01*
X35737800Y-51816000D02*
X35737800Y-52407800D01*
D22*
X132257800Y-41419780D02*
X132257800Y-47007800D01*
X157657800Y-41419780D02*
X157657800Y-47007800D01*
X157657800Y-160799780D02*
X157657800Y-166387800D01*
X132257800Y-160799780D02*
X132257800Y-166387800D01*
X30657800Y-160799780D02*
X30657800Y-166387800D01*
X56057800Y-160799780D02*
X56057800Y-166387800D01*
X106857800Y-160799780D02*
X106857800Y-166387800D01*
X81457800Y-160799780D02*
X81457800Y-166387800D01*
X81457800Y-41419780D02*
X81457800Y-47007800D01*
X106857800Y-41419780D02*
X106857800Y-47007800D01*
X56057800Y-41419780D02*
X56057800Y-47007800D01*
X30657800Y-41419780D02*
X30657800Y-47007800D01*
D23*
X135026400Y-20548600D02*
X135026400Y-21107400D01*
X135026400Y-21107400D02*
X129895600Y-26238200D01*
X135026400Y-20548600D02*
X137566400Y-20548600D01*
X137566400Y-20548600D02*
X142595600Y-25577800D01*
D22*
X142595600Y-25577800D02*
X142595600Y-26238200D01*
D23*
X127406400Y-28727400D02*
X129895600Y-26238200D01*
X129895600Y-26238200D02*
X142595600Y-26238200D01*
X160426400Y-20548600D02*
X160426400Y-21107400D01*
X160426400Y-21107400D02*
X155295600Y-26238200D01*
X160426400Y-20548600D02*
X162966400Y-20548600D01*
X162966400Y-20548600D02*
X167995600Y-25577800D01*
D22*
X167995600Y-25577800D02*
X167995600Y-26238200D01*
D23*
X152806400Y-28727400D02*
X155295600Y-26238200D01*
X155295600Y-26238200D02*
X167995600Y-26238200D01*
X155295600Y-145618200D02*
X167995600Y-145618200D01*
X152806400Y-148107400D02*
X155295600Y-145618200D01*
D22*
X167995600Y-144957800D02*
X167995600Y-145618200D01*
D23*
X162966400Y-139928600D02*
X167995600Y-144957800D01*
X160426400Y-139928600D02*
X162966400Y-139928600D01*
X160426400Y-140487400D02*
X155295600Y-145618200D01*
X160426400Y-139928600D02*
X160426400Y-140487400D01*
X129895600Y-145618200D02*
X142595600Y-145618200D01*
X127406400Y-148107400D02*
X129895600Y-145618200D01*
D22*
X142595600Y-144957800D02*
X142595600Y-145618200D01*
D23*
X137566400Y-139928600D02*
X142595600Y-144957800D01*
X135026400Y-139928600D02*
X137566400Y-139928600D01*
X135026400Y-140487400D02*
X129895600Y-145618200D01*
X135026400Y-139928600D02*
X135026400Y-140487400D01*
X28295600Y-145618200D02*
X40995600Y-145618200D01*
X25806400Y-148107400D02*
X28295600Y-145618200D01*
D22*
X40995600Y-144957800D02*
X40995600Y-145618200D01*
D23*
X35966400Y-139928600D02*
X40995600Y-144957800D01*
X33426400Y-139928600D02*
X35966400Y-139928600D01*
X33426400Y-140487400D02*
X28295600Y-145618200D01*
X33426400Y-139928600D02*
X33426400Y-140487400D01*
X58826400Y-139928600D02*
X58826400Y-140487400D01*
X58826400Y-140487400D02*
X53695600Y-145618200D01*
X58826400Y-139928600D02*
X61366400Y-139928600D01*
X61366400Y-139928600D02*
X66395600Y-144957800D01*
D22*
X66395600Y-144957800D02*
X66395600Y-145618200D01*
D23*
X51206400Y-148107400D02*
X53695600Y-145618200D01*
X53695600Y-145618200D02*
X66395600Y-145618200D01*
X104495600Y-145618200D02*
X117195600Y-145618200D01*
X102006400Y-148107400D02*
X104495600Y-145618200D01*
D22*
X117195600Y-144957800D02*
X117195600Y-145618200D01*
D23*
X112166400Y-139928600D02*
X117195600Y-144957800D01*
X109626400Y-139928600D02*
X112166400Y-139928600D01*
X109626400Y-140487400D02*
X104495600Y-145618200D01*
X109626400Y-139928600D02*
X109626400Y-140487400D01*
X84226400Y-139928600D02*
X84226400Y-140487400D01*
X84226400Y-140487400D02*
X79095600Y-145618200D01*
X84226400Y-139928600D02*
X86766400Y-139928600D01*
X86766400Y-139928600D02*
X91795600Y-144957800D01*
D22*
X91795600Y-144957800D02*
X91795600Y-145618200D01*
D23*
X76606400Y-148107400D02*
X79095600Y-145618200D01*
X79095600Y-145618200D02*
X91795600Y-145618200D01*
X79095600Y-26238200D02*
X91795600Y-26238200D01*
X76606400Y-28727400D02*
X79095600Y-26238200D01*
D22*
X91795600Y-25577800D02*
X91795600Y-26238200D01*
D23*
X86766400Y-20548600D02*
X91795600Y-25577800D01*
X84226400Y-20548600D02*
X86766400Y-20548600D01*
X84226400Y-21107400D02*
X79095600Y-26238200D01*
X84226400Y-20548600D02*
X84226400Y-21107400D01*
X109626400Y-20548600D02*
X109626400Y-21107400D01*
X109626400Y-21107400D02*
X104495600Y-26238200D01*
X109626400Y-20548600D02*
X112166400Y-20548600D01*
X112166400Y-20548600D02*
X117195600Y-25577800D01*
D22*
X117195600Y-25577800D02*
X117195600Y-26238200D01*
D23*
X102006400Y-28727400D02*
X104495600Y-26238200D01*
X104495600Y-26238200D02*
X117195600Y-26238200D01*
X53695600Y-26238200D02*
X66395600Y-26238200D01*
X51206400Y-28727400D02*
X53695600Y-26238200D01*
D22*
X66395600Y-25577800D02*
X66395600Y-26238200D01*
D23*
X61366400Y-20548600D02*
X66395600Y-25577800D01*
X58826400Y-20548600D02*
X61366400Y-20548600D01*
X58826400Y-21107400D02*
X53695600Y-26238200D01*
X58826400Y-20548600D02*
X58826400Y-21107400D01*
X33426400Y-20548600D02*
X33426400Y-21107400D01*
X33426400Y-21107400D02*
X28295600Y-26238200D01*
X33426400Y-20548600D02*
X35966400Y-20548600D01*
X35966400Y-20548600D02*
X40995600Y-25577800D01*
D22*
X40995600Y-25577800D02*
X40995600Y-26238200D01*
D23*
X25806400Y-28727400D02*
X28295600Y-26238200D01*
X28295600Y-26238200D02*
X40995600Y-26238200D01*
D22*
X140081000Y-41046400D02*
X140004800Y-41122600D01*
X140004800Y-41122600D02*
X134188200Y-41122600D01*
X134188200Y-42438360D02*
X133207800Y-43418760D01*
X132657000Y-39497000D02*
X133705600Y-39497000D01*
X134188200Y-39979600D02*
X134188200Y-40995600D01*
X134188200Y-40995600D02*
X134188200Y-41122600D01*
X134188200Y-41122600D02*
X134188200Y-42438360D01*
X133705600Y-39497000D02*
X134188200Y-39979600D01*
X165481000Y-41046400D02*
X165404800Y-41122600D01*
X165404800Y-41122600D02*
X159588200Y-41122600D01*
X159588200Y-42438360D02*
X158607800Y-43418760D01*
X158057000Y-39497000D02*
X159105600Y-39497000D01*
X159588200Y-39979600D02*
X159588200Y-40995600D01*
X159588200Y-40995600D02*
X159588200Y-41122600D01*
X159588200Y-41122600D02*
X159588200Y-42438360D01*
X159105600Y-39497000D02*
X159588200Y-39979600D01*
X159105600Y-158877000D02*
X159588200Y-159359600D01*
X159588200Y-160502600D02*
X159588200Y-161818360D01*
X159588200Y-160375600D02*
X159588200Y-160502600D01*
X159588200Y-159359600D02*
X159588200Y-160375600D01*
X158057000Y-158877000D02*
X159105600Y-158877000D01*
X159588200Y-161818360D02*
X158607800Y-162798760D01*
X165404800Y-160502600D02*
X159588200Y-160502600D01*
X165481000Y-160426400D02*
X165404800Y-160502600D01*
X133705600Y-158877000D02*
X134188200Y-159359600D01*
X134188200Y-160502600D02*
X134188200Y-161818360D01*
X134188200Y-160375600D02*
X134188200Y-160502600D01*
X134188200Y-159359600D02*
X134188200Y-160375600D01*
X132657000Y-158877000D02*
X133705600Y-158877000D01*
X134188200Y-161818360D02*
X133207800Y-162798760D01*
X140004800Y-160502600D02*
X134188200Y-160502600D01*
X140081000Y-160426400D02*
X140004800Y-160502600D01*
X32105600Y-158877000D02*
X32588200Y-159359600D01*
X32588200Y-160502600D02*
X32588200Y-161818360D01*
X32588200Y-160375600D02*
X32588200Y-160502600D01*
X32588200Y-159359600D02*
X32588200Y-160375600D01*
X31057000Y-158877000D02*
X32105600Y-158877000D01*
X32588200Y-161818360D02*
X31607800Y-162798760D01*
X38404800Y-160502600D02*
X32588200Y-160502600D01*
X38481000Y-160426400D02*
X38404800Y-160502600D01*
X63881000Y-160426400D02*
X63804800Y-160502600D01*
X63804800Y-160502600D02*
X57988200Y-160502600D01*
X57988200Y-161818360D02*
X57007800Y-162798760D01*
X56457000Y-158877000D02*
X57505600Y-158877000D01*
X57988200Y-159359600D02*
X57988200Y-160375600D01*
X57988200Y-160375600D02*
X57988200Y-160502600D01*
X57988200Y-160502600D02*
X57988200Y-161818360D01*
X57505600Y-158877000D02*
X57988200Y-159359600D01*
X108305600Y-158877000D02*
X108788200Y-159359600D01*
X108788200Y-160502600D02*
X108788200Y-161818360D01*
X108788200Y-160375600D02*
X108788200Y-160502600D01*
X108788200Y-159359600D02*
X108788200Y-160375600D01*
X107257000Y-158877000D02*
X108305600Y-158877000D01*
X108788200Y-161818360D02*
X107807800Y-162798760D01*
X114604800Y-160502600D02*
X108788200Y-160502600D01*
X114681000Y-160426400D02*
X114604800Y-160502600D01*
X89281000Y-160426400D02*
X89204800Y-160502600D01*
X89204800Y-160502600D02*
X83388200Y-160502600D01*
X83388200Y-161818360D02*
X82407800Y-162798760D01*
X81857000Y-158877000D02*
X82905600Y-158877000D01*
X83388200Y-159359600D02*
X83388200Y-160375600D01*
X83388200Y-160375600D02*
X83388200Y-160502600D01*
X83388200Y-160502600D02*
X83388200Y-161818360D01*
X82905600Y-158877000D02*
X83388200Y-159359600D01*
X82905600Y-39497000D02*
X83388200Y-39979600D01*
X83388200Y-41122600D02*
X83388200Y-42438360D01*
X83388200Y-40995600D02*
X83388200Y-41122600D01*
X83388200Y-39979600D02*
X83388200Y-40995600D01*
X81857000Y-39497000D02*
X82905600Y-39497000D01*
X83388200Y-42438360D02*
X82407800Y-43418760D01*
X89204800Y-41122600D02*
X83388200Y-41122600D01*
X89281000Y-41046400D02*
X89204800Y-41122600D01*
X114681000Y-41046400D02*
X114604800Y-41122600D01*
X114604800Y-41122600D02*
X108788200Y-41122600D01*
X108788200Y-42438360D02*
X107807800Y-43418760D01*
X107257000Y-39497000D02*
X108305600Y-39497000D01*
X108788200Y-39979600D02*
X108788200Y-40995600D01*
X108788200Y-40995600D02*
X108788200Y-41122600D01*
X108788200Y-41122600D02*
X108788200Y-42438360D01*
X108305600Y-39497000D02*
X108788200Y-39979600D01*
X57505600Y-39497000D02*
X57988200Y-39979600D01*
X57988200Y-41122600D02*
X57988200Y-42438360D01*
X57988200Y-40995600D02*
X57988200Y-41122600D01*
X57988200Y-39979600D02*
X57988200Y-40995600D01*
X56457000Y-39497000D02*
X57505600Y-39497000D01*
X57988200Y-42438360D02*
X57007800Y-43418760D01*
X63804800Y-41122600D02*
X57988200Y-41122600D01*
X63881000Y-41046400D02*
X63804800Y-41122600D01*
X38481000Y-41046400D02*
X38404800Y-41122600D01*
X38404800Y-41122600D02*
X32588200Y-41122600D01*
X32588200Y-42438360D02*
X31607800Y-43418760D01*
X31057000Y-39497000D02*
X32105600Y-39497000D01*
X32588200Y-39979600D02*
X32588200Y-40995600D01*
X32588200Y-40995600D02*
X32588200Y-41122600D01*
X32588200Y-41122600D02*
X32588200Y-42438360D01*
X32105600Y-39497000D02*
X32588200Y-39979600D01*
X138607800Y-47007800D02*
X138607800Y-47726600D01*
X138607800Y-47726600D02*
X140487400Y-49606200D01*
X143713200Y-52501800D02*
X145338800Y-54127400D01*
X143713200Y-51003200D02*
X143713200Y-52501800D01*
X142316200Y-49606200D02*
X143713200Y-51003200D01*
X140487400Y-49606200D02*
X142316200Y-49606200D01*
X137337800Y-47007800D02*
X138607800Y-47007800D01*
X164007800Y-47007800D02*
X164007800Y-47726600D01*
X164007800Y-47726600D02*
X165887400Y-49606200D01*
X169113200Y-52501800D02*
X170738800Y-54127400D01*
X169113200Y-51003200D02*
X169113200Y-52501800D01*
X167716200Y-49606200D02*
X169113200Y-51003200D01*
X165887400Y-49606200D02*
X167716200Y-49606200D01*
X162737800Y-47007800D02*
X164007800Y-47007800D01*
X162737800Y-166387800D02*
X164007800Y-166387800D01*
X165887400Y-168986200D02*
X167716200Y-168986200D01*
X167716200Y-168986200D02*
X169113200Y-170383200D01*
X169113200Y-170383200D02*
X169113200Y-171881800D01*
X169113200Y-171881800D02*
X170738800Y-173507400D01*
X164007800Y-167106600D02*
X165887400Y-168986200D01*
X164007800Y-166387800D02*
X164007800Y-167106600D01*
X137337800Y-166387800D02*
X138607800Y-166387800D01*
X140487400Y-168986200D02*
X142316200Y-168986200D01*
X142316200Y-168986200D02*
X143713200Y-170383200D01*
X143713200Y-170383200D02*
X143713200Y-171881800D01*
X143713200Y-171881800D02*
X145338800Y-173507400D01*
X138607800Y-167106600D02*
X140487400Y-168986200D01*
X138607800Y-166387800D02*
X138607800Y-167106600D01*
X35737800Y-166387800D02*
X37007800Y-166387800D01*
X38887400Y-168986200D02*
X40716200Y-168986200D01*
X40716200Y-168986200D02*
X42113200Y-170383200D01*
X42113200Y-170383200D02*
X42113200Y-171881800D01*
X42113200Y-171881800D02*
X43738800Y-173507400D01*
X37007800Y-167106600D02*
X38887400Y-168986200D01*
X37007800Y-166387800D02*
X37007800Y-167106600D01*
X62407800Y-166387800D02*
X62407800Y-167106600D01*
X62407800Y-167106600D02*
X64287400Y-168986200D01*
X67513200Y-171881800D02*
X69138800Y-173507400D01*
X67513200Y-170383200D02*
X67513200Y-171881800D01*
X66116200Y-168986200D02*
X67513200Y-170383200D01*
X64287400Y-168986200D02*
X66116200Y-168986200D01*
X61137800Y-166387800D02*
X62407800Y-166387800D01*
X111937800Y-166387800D02*
X113207800Y-166387800D01*
X115087400Y-168986200D02*
X116916200Y-168986200D01*
X116916200Y-168986200D02*
X118313200Y-170383200D01*
X118313200Y-170383200D02*
X118313200Y-171881800D01*
X118313200Y-171881800D02*
X119938800Y-173507400D01*
X113207800Y-167106600D02*
X115087400Y-168986200D01*
X113207800Y-166387800D02*
X113207800Y-167106600D01*
X87807800Y-166387800D02*
X87807800Y-167106600D01*
X87807800Y-167106600D02*
X89687400Y-168986200D01*
X92913200Y-171881800D02*
X94538800Y-173507400D01*
X92913200Y-170383200D02*
X92913200Y-171881800D01*
X91516200Y-168986200D02*
X92913200Y-170383200D01*
X89687400Y-168986200D02*
X91516200Y-168986200D01*
X86537800Y-166387800D02*
X87807800Y-166387800D01*
X86537800Y-47007800D02*
X87807800Y-47007800D01*
X89687400Y-49606200D02*
X91516200Y-49606200D01*
X91516200Y-49606200D02*
X92913200Y-51003200D01*
X92913200Y-51003200D02*
X92913200Y-52501800D01*
X92913200Y-52501800D02*
X94538800Y-54127400D01*
X87807800Y-47726600D02*
X89687400Y-49606200D01*
X87807800Y-47007800D02*
X87807800Y-47726600D01*
X113207800Y-47007800D02*
X113207800Y-47726600D01*
X113207800Y-47726600D02*
X115087400Y-49606200D01*
X118313200Y-52501800D02*
X119938800Y-54127400D01*
X118313200Y-51003200D02*
X118313200Y-52501800D01*
X116916200Y-49606200D02*
X118313200Y-51003200D01*
X115087400Y-49606200D02*
X116916200Y-49606200D01*
X111937800Y-47007800D02*
X113207800Y-47007800D01*
X61137800Y-47007800D02*
X62407800Y-47007800D01*
X64287400Y-49606200D02*
X66116200Y-49606200D01*
X66116200Y-49606200D02*
X67513200Y-51003200D01*
X67513200Y-51003200D02*
X67513200Y-52501800D01*
X67513200Y-52501800D02*
X69138800Y-54127400D01*
X62407800Y-47726600D02*
X64287400Y-49606200D01*
X62407800Y-47007800D02*
X62407800Y-47726600D01*
X37007800Y-47007800D02*
X37007800Y-47726600D01*
X37007800Y-47726600D02*
X38887400Y-49606200D01*
X42113200Y-52501800D02*
X43738800Y-54127400D01*
X42113200Y-51003200D02*
X42113200Y-52501800D01*
X40716200Y-49606200D02*
X42113200Y-51003200D01*
X38887400Y-49606200D02*
X40716200Y-49606200D01*
X35737800Y-47007800D02*
X37007800Y-47007800D01*
X142621000Y-52282000D02*
X142731400Y-52282000D01*
X142731400Y-52282000D02*
X143510000Y-53060600D01*
X143510000Y-54914800D02*
X145262600Y-56667400D01*
X143510000Y-53060600D02*
X143510000Y-54914800D01*
X145262600Y-56667400D02*
X145338800Y-56667400D01*
X139877800Y-52407800D02*
X139877800Y-51308000D01*
X142621000Y-51612800D02*
X142621000Y-52282000D01*
X141808200Y-50800000D02*
X142621000Y-51612800D01*
X140385800Y-50800000D02*
X141808200Y-50800000D01*
X139877800Y-51308000D02*
X140385800Y-50800000D01*
X138607800Y-52407800D02*
X139877800Y-52407800D01*
X168021000Y-52282000D02*
X168131400Y-52282000D01*
X168131400Y-52282000D02*
X168910000Y-53060600D01*
X168910000Y-54914800D02*
X170662600Y-56667400D01*
X168910000Y-53060600D02*
X168910000Y-54914800D01*
X170662600Y-56667400D02*
X170738800Y-56667400D01*
X165277800Y-52407800D02*
X165277800Y-51308000D01*
X168021000Y-51612800D02*
X168021000Y-52282000D01*
X167208200Y-50800000D02*
X168021000Y-51612800D01*
X165785800Y-50800000D02*
X167208200Y-50800000D01*
X165277800Y-51308000D02*
X165785800Y-50800000D01*
X164007800Y-52407800D02*
X165277800Y-52407800D01*
X164007800Y-171787800D02*
X165277800Y-171787800D01*
X165277800Y-170688000D02*
X165785800Y-170180000D01*
X165785800Y-170180000D02*
X167208200Y-170180000D01*
X167208200Y-170180000D02*
X168021000Y-170992800D01*
X168021000Y-170992800D02*
X168021000Y-171662000D01*
X165277800Y-171787800D02*
X165277800Y-170688000D01*
X170662600Y-176047400D02*
X170738800Y-176047400D01*
X168910000Y-172440600D02*
X168910000Y-174294800D01*
X168910000Y-174294800D02*
X170662600Y-176047400D01*
X168131400Y-171662000D02*
X168910000Y-172440600D01*
X168021000Y-171662000D02*
X168131400Y-171662000D01*
X138607800Y-171787800D02*
X139877800Y-171787800D01*
X139877800Y-170688000D02*
X140385800Y-170180000D01*
X140385800Y-170180000D02*
X141808200Y-170180000D01*
X141808200Y-170180000D02*
X142621000Y-170992800D01*
X142621000Y-170992800D02*
X142621000Y-171662000D01*
X139877800Y-171787800D02*
X139877800Y-170688000D01*
X145262600Y-176047400D02*
X145338800Y-176047400D01*
X143510000Y-172440600D02*
X143510000Y-174294800D01*
X143510000Y-174294800D02*
X145262600Y-176047400D01*
X142731400Y-171662000D02*
X143510000Y-172440600D01*
X142621000Y-171662000D02*
X142731400Y-171662000D01*
X37007800Y-171787800D02*
X38277800Y-171787800D01*
X38277800Y-170688000D02*
X38785800Y-170180000D01*
X38785800Y-170180000D02*
X40208200Y-170180000D01*
X40208200Y-170180000D02*
X41021000Y-170992800D01*
X41021000Y-170992800D02*
X41021000Y-171662000D01*
X38277800Y-171787800D02*
X38277800Y-170688000D01*
X43662600Y-176047400D02*
X43738800Y-176047400D01*
X41910000Y-172440600D02*
X41910000Y-174294800D01*
X41910000Y-174294800D02*
X43662600Y-176047400D01*
X41131400Y-171662000D02*
X41910000Y-172440600D01*
X41021000Y-171662000D02*
X41131400Y-171662000D01*
X66421000Y-171662000D02*
X66531400Y-171662000D01*
X66531400Y-171662000D02*
X67310000Y-172440600D01*
X67310000Y-174294800D02*
X69062600Y-176047400D01*
X67310000Y-172440600D02*
X67310000Y-174294800D01*
X69062600Y-176047400D02*
X69138800Y-176047400D01*
X63677800Y-171787800D02*
X63677800Y-170688000D01*
X66421000Y-170992800D02*
X66421000Y-171662000D01*
X65608200Y-170180000D02*
X66421000Y-170992800D01*
X64185800Y-170180000D02*
X65608200Y-170180000D01*
X63677800Y-170688000D02*
X64185800Y-170180000D01*
X62407800Y-171787800D02*
X63677800Y-171787800D01*
X113207800Y-171787800D02*
X114477800Y-171787800D01*
X114477800Y-170688000D02*
X114985800Y-170180000D01*
X114985800Y-170180000D02*
X116408200Y-170180000D01*
X116408200Y-170180000D02*
X117221000Y-170992800D01*
X117221000Y-170992800D02*
X117221000Y-171662000D01*
X114477800Y-171787800D02*
X114477800Y-170688000D01*
X119862600Y-176047400D02*
X119938800Y-176047400D01*
X118110000Y-172440600D02*
X118110000Y-174294800D01*
X118110000Y-174294800D02*
X119862600Y-176047400D01*
X117331400Y-171662000D02*
X118110000Y-172440600D01*
X117221000Y-171662000D02*
X117331400Y-171662000D01*
X91821000Y-171662000D02*
X91931400Y-171662000D01*
X91931400Y-171662000D02*
X92710000Y-172440600D01*
X92710000Y-174294800D02*
X94462600Y-176047400D01*
X92710000Y-172440600D02*
X92710000Y-174294800D01*
X94462600Y-176047400D02*
X94538800Y-176047400D01*
X89077800Y-171787800D02*
X89077800Y-170688000D01*
X91821000Y-170992800D02*
X91821000Y-171662000D01*
X91008200Y-170180000D02*
X91821000Y-170992800D01*
X89585800Y-170180000D02*
X91008200Y-170180000D01*
X89077800Y-170688000D02*
X89585800Y-170180000D01*
X87807800Y-171787800D02*
X89077800Y-171787800D01*
X87807800Y-52407800D02*
X89077800Y-52407800D01*
X89077800Y-51308000D02*
X89585800Y-50800000D01*
X89585800Y-50800000D02*
X91008200Y-50800000D01*
X91008200Y-50800000D02*
X91821000Y-51612800D01*
X91821000Y-51612800D02*
X91821000Y-52282000D01*
X89077800Y-52407800D02*
X89077800Y-51308000D01*
X94462600Y-56667400D02*
X94538800Y-56667400D01*
X92710000Y-53060600D02*
X92710000Y-54914800D01*
X92710000Y-54914800D02*
X94462600Y-56667400D01*
X91931400Y-52282000D02*
X92710000Y-53060600D01*
X91821000Y-52282000D02*
X91931400Y-52282000D01*
X117221000Y-52282000D02*
X117331400Y-52282000D01*
X117331400Y-52282000D02*
X118110000Y-53060600D01*
X118110000Y-54914800D02*
X119862600Y-56667400D01*
X118110000Y-53060600D02*
X118110000Y-54914800D01*
X119862600Y-56667400D02*
X119938800Y-56667400D01*
X114477800Y-52407800D02*
X114477800Y-51308000D01*
X117221000Y-51612800D02*
X117221000Y-52282000D01*
X116408200Y-50800000D02*
X117221000Y-51612800D01*
X114985800Y-50800000D02*
X116408200Y-50800000D01*
X114477800Y-51308000D02*
X114985800Y-50800000D01*
X113207800Y-52407800D02*
X114477800Y-52407800D01*
X62407800Y-52407800D02*
X63677800Y-52407800D01*
X63677800Y-51308000D02*
X64185800Y-50800000D01*
X64185800Y-50800000D02*
X65608200Y-50800000D01*
X65608200Y-50800000D02*
X66421000Y-51612800D01*
X66421000Y-51612800D02*
X66421000Y-52282000D01*
X63677800Y-52407800D02*
X63677800Y-51308000D01*
X69062600Y-56667400D02*
X69138800Y-56667400D01*
X67310000Y-53060600D02*
X67310000Y-54914800D01*
X67310000Y-54914800D02*
X69062600Y-56667400D01*
X66531400Y-52282000D02*
X67310000Y-53060600D01*
X66421000Y-52282000D02*
X66531400Y-52282000D01*
X41021000Y-52282000D02*
X41131400Y-52282000D01*
X41131400Y-52282000D02*
X41910000Y-53060600D01*
X41910000Y-54914800D02*
X43662600Y-56667400D01*
X41910000Y-53060600D02*
X41910000Y-54914800D01*
X43662600Y-56667400D02*
X43738800Y-56667400D01*
X38277800Y-52407800D02*
X38277800Y-51308000D01*
X41021000Y-51612800D02*
X41021000Y-52282000D01*
X40208200Y-50800000D02*
X41021000Y-51612800D01*
X38785800Y-50800000D02*
X40208200Y-50800000D01*
X38277800Y-51308000D02*
X38785800Y-50800000D01*
X37007800Y-52407800D02*
X38277800Y-52407800D01*
X127558800Y-54127400D02*
X127584200Y-54127400D01*
X127584200Y-54127400D02*
X129336800Y-52374800D01*
X129336800Y-52374800D02*
X129336800Y-48227400D01*
X129336800Y-48227400D02*
X130733800Y-48227400D01*
X152958800Y-54127400D02*
X152984200Y-54127400D01*
X152984200Y-54127400D02*
X154736800Y-52374800D01*
X154736800Y-52374800D02*
X154736800Y-48227400D01*
X154736800Y-48227400D02*
X156133800Y-48227400D01*
X154736800Y-167607400D02*
X156133800Y-167607400D01*
X154736800Y-171754800D02*
X154736800Y-167607400D01*
X152984200Y-173507400D02*
X154736800Y-171754800D01*
X152958800Y-173507400D02*
X152984200Y-173507400D01*
X129336800Y-167607400D02*
X130733800Y-167607400D01*
X129336800Y-171754800D02*
X129336800Y-167607400D01*
X127584200Y-173507400D02*
X129336800Y-171754800D01*
X127558800Y-173507400D02*
X127584200Y-173507400D01*
X27736800Y-167607400D02*
X29133800Y-167607400D01*
X27736800Y-171754800D02*
X27736800Y-167607400D01*
X25984200Y-173507400D02*
X27736800Y-171754800D01*
X25958800Y-173507400D02*
X25984200Y-173507400D01*
X51358800Y-173507400D02*
X51384200Y-173507400D01*
X51384200Y-173507400D02*
X53136800Y-171754800D01*
X53136800Y-171754800D02*
X53136800Y-167607400D01*
X53136800Y-167607400D02*
X54533800Y-167607400D01*
X103936800Y-167607400D02*
X105333800Y-167607400D01*
X103936800Y-171754800D02*
X103936800Y-167607400D01*
X102184200Y-173507400D02*
X103936800Y-171754800D01*
X102158800Y-173507400D02*
X102184200Y-173507400D01*
X76758800Y-173507400D02*
X76784200Y-173507400D01*
X76784200Y-173507400D02*
X78536800Y-171754800D01*
X78536800Y-171754800D02*
X78536800Y-167607400D01*
X78536800Y-167607400D02*
X79933800Y-167607400D01*
X78536800Y-48227400D02*
X79933800Y-48227400D01*
X78536800Y-52374800D02*
X78536800Y-48227400D01*
X76784200Y-54127400D02*
X78536800Y-52374800D01*
X76758800Y-54127400D02*
X76784200Y-54127400D01*
X102158800Y-54127400D02*
X102184200Y-54127400D01*
X102184200Y-54127400D02*
X103936800Y-52374800D01*
X103936800Y-52374800D02*
X103936800Y-48227400D01*
X103936800Y-48227400D02*
X105333800Y-48227400D01*
X53136800Y-48227400D02*
X54533800Y-48227400D01*
X53136800Y-52374800D02*
X53136800Y-48227400D01*
X51384200Y-54127400D02*
X53136800Y-52374800D01*
X51358800Y-54127400D02*
X51384200Y-54127400D01*
X25958800Y-54127400D02*
X25984200Y-54127400D01*
X25984200Y-54127400D02*
X27736800Y-52374800D01*
X27736800Y-52374800D02*
X27736800Y-48227400D01*
X27736800Y-48227400D02*
X29133800Y-48227400D01*
D25*
G36*
X40817800Y-134010400D02*
X27584400Y-134010400D01*
X27584400Y-120472200D01*
X40817800Y-120472200D01*
X40817800Y-134010400D01*
X40817800Y-134010400D01*
G37*
X40817800Y-134010400D02*
X27584400Y-134010400D01*
X27584400Y-120472200D01*
X40817800Y-120472200D01*
X40817800Y-134010400D01*
G36*
X66217800Y-134010400D02*
X52984400Y-134010400D01*
X52984400Y-120472200D01*
X66217800Y-120472200D01*
X66217800Y-134010400D01*
X66217800Y-134010400D01*
G37*
X66217800Y-134010400D02*
X52984400Y-134010400D01*
X52984400Y-120472200D01*
X66217800Y-120472200D01*
X66217800Y-134010400D01*
G36*
X91617800Y-134010400D02*
X78384400Y-134010400D01*
X78384400Y-120472200D01*
X91617800Y-120472200D01*
X91617800Y-134010400D01*
X91617800Y-134010400D01*
G37*
X91617800Y-134010400D02*
X78384400Y-134010400D01*
X78384400Y-120472200D01*
X91617800Y-120472200D01*
X91617800Y-134010400D01*
G36*
X117017800Y-134010400D02*
X103784400Y-134010400D01*
X103784400Y-120472200D01*
X117017800Y-120472200D01*
X117017800Y-134010400D01*
X117017800Y-134010400D01*
G37*
X117017800Y-134010400D02*
X103784400Y-134010400D01*
X103784400Y-120472200D01*
X117017800Y-120472200D01*
X117017800Y-134010400D01*
G36*
X40817800Y-253390400D02*
X27584400Y-253390400D01*
X27584400Y-239852200D01*
X40817800Y-239852200D01*
X40817800Y-253390400D01*
X40817800Y-253390400D01*
G37*
X40817800Y-253390400D02*
X27584400Y-253390400D01*
X27584400Y-239852200D01*
X40817800Y-239852200D01*
X40817800Y-253390400D01*
G36*
X66217800Y-253390400D02*
X52984400Y-253390400D01*
X52984400Y-239852200D01*
X66217800Y-239852200D01*
X66217800Y-253390400D01*
X66217800Y-253390400D01*
G37*
X66217800Y-253390400D02*
X52984400Y-253390400D01*
X52984400Y-239852200D01*
X66217800Y-239852200D01*
X66217800Y-253390400D01*
G36*
X91617800Y-253390400D02*
X78384400Y-253390400D01*
X78384400Y-239852200D01*
X91617800Y-239852200D01*
X91617800Y-253390400D01*
X91617800Y-253390400D01*
G37*
X91617800Y-253390400D02*
X78384400Y-253390400D01*
X78384400Y-239852200D01*
X91617800Y-239852200D01*
X91617800Y-253390400D01*
G36*
X117017800Y-253390400D02*
X103784400Y-253390400D01*
X103784400Y-239852200D01*
X117017800Y-239852200D01*
X117017800Y-253390400D01*
X117017800Y-253390400D01*
G37*
X117017800Y-253390400D02*
X103784400Y-253390400D01*
X103784400Y-239852200D01*
X117017800Y-239852200D01*
X117017800Y-253390400D01*
G36*
X142417800Y-134010400D02*
X129184400Y-134010400D01*
X129184400Y-120472200D01*
X142417800Y-120472200D01*
X142417800Y-134010400D01*
X142417800Y-134010400D01*
G37*
X142417800Y-134010400D02*
X129184400Y-134010400D01*
X129184400Y-120472200D01*
X142417800Y-120472200D01*
X142417800Y-134010400D01*
G36*
X167817800Y-134010400D02*
X154584400Y-134010400D01*
X154584400Y-120472200D01*
X167817800Y-120472200D01*
X167817800Y-134010400D01*
X167817800Y-134010400D01*
G37*
X167817800Y-134010400D02*
X154584400Y-134010400D01*
X154584400Y-120472200D01*
X167817800Y-120472200D01*
X167817800Y-134010400D01*
G36*
X142417800Y-253390400D02*
X129184400Y-253390400D01*
X129184400Y-239852200D01*
X142417800Y-239852200D01*
X142417800Y-253390400D01*
X142417800Y-253390400D01*
G37*
X142417800Y-253390400D02*
X129184400Y-253390400D01*
X129184400Y-239852200D01*
X142417800Y-239852200D01*
X142417800Y-253390400D01*
G36*
X167817800Y-253390400D02*
X154584400Y-253390400D01*
X154584400Y-239852200D01*
X167817800Y-239852200D01*
X167817800Y-253390400D01*
X167817800Y-253390400D01*
G37*
X167817800Y-253390400D02*
X154584400Y-253390400D01*
X154584400Y-239852200D01*
X167817800Y-239852200D01*
X167817800Y-253390400D01*
M02*
