G04 #@! TF.FileFunction,Profile,NP*
%FSLAX46Y46*%
G04 Gerber Fmt 4.6, Leading zero omitted, Abs format (unit mm)*
G04 Created by KiCad (PCBNEW 4.0.1-stable) date 10/3/2016 4:29:35 PM*
%MOMM*%
G01*
G04 APERTURE LIST*
%ADD10C,0.100000*%
%ADD11C,0.150000*%
G04 APERTURE END LIST*
D10*
D11*
X148869400Y-254152400D02*
X150825200Y-254152400D01*
X23774400Y-254152400D02*
X148869400Y-254152400D01*
X45720000Y-17780000D02*
X45720000Y-134772400D01*
X172720000Y-17780000D02*
X23774400Y-17780000D01*
X172720000Y-254152400D02*
X172720000Y-17780000D01*
X23774400Y-17780000D02*
X23774400Y-254152400D01*
X148986666Y-17780000D02*
G75*
G03X148986666Y-17780000I-1666666J0D01*
G01*
X144820000Y-17780000D02*
X149820000Y-17780000D01*
X147320000Y-15280000D02*
X147320000Y-20280000D01*
X125374400Y-134772400D02*
X125374400Y-17780000D01*
X147320000Y-134772400D02*
X125374400Y-134772400D01*
X147320000Y-17780000D02*
X147320000Y-134772400D01*
X125374400Y-17780000D02*
X147320000Y-17780000D01*
X174386666Y-17780000D02*
G75*
G03X174386666Y-17780000I-1666666J0D01*
G01*
X170220000Y-17780000D02*
X175220000Y-17780000D01*
X172720000Y-15280000D02*
X172720000Y-20280000D01*
X150774400Y-134772400D02*
X150774400Y-17780000D01*
X172720000Y-134772400D02*
X150774400Y-134772400D01*
X172720000Y-17780000D02*
X172720000Y-134772400D01*
X150774400Y-17780000D02*
X172720000Y-17780000D01*
X150774400Y-137160000D02*
X172720000Y-137160000D01*
X172720000Y-137160000D02*
X172720000Y-254152400D01*
X172720000Y-254152400D02*
X150774400Y-254152400D01*
X150774400Y-254152400D02*
X150774400Y-137160000D01*
X174386666Y-137160000D02*
G75*
G03X174386666Y-137160000I-1666666J0D01*
G01*
X170220000Y-137160000D02*
X175220000Y-137160000D01*
X172720000Y-134660000D02*
X172720000Y-139660000D01*
X125374400Y-137160000D02*
X147320000Y-137160000D01*
X147320000Y-137160000D02*
X147320000Y-254152400D01*
X147320000Y-254152400D02*
X125374400Y-254152400D01*
X125374400Y-254152400D02*
X125374400Y-137160000D01*
X148986666Y-137160000D02*
G75*
G03X148986666Y-137160000I-1666666J0D01*
G01*
X144820000Y-137160000D02*
X149820000Y-137160000D01*
X147320000Y-134660000D02*
X147320000Y-139660000D01*
X23774400Y-137160000D02*
X45720000Y-137160000D01*
X45720000Y-137160000D02*
X45720000Y-254152400D01*
X45720000Y-254152400D02*
X23774400Y-254152400D01*
X23774400Y-254152400D02*
X23774400Y-137160000D01*
X47386666Y-137160000D02*
G75*
G03X47386666Y-137160000I-1666666J0D01*
G01*
X43220000Y-137160000D02*
X48220000Y-137160000D01*
X45720000Y-134660000D02*
X45720000Y-139660000D01*
X72786666Y-137160000D02*
G75*
G03X72786666Y-137160000I-1666666J0D01*
G01*
X68620000Y-137160000D02*
X73620000Y-137160000D01*
X71120000Y-134660000D02*
X71120000Y-139660000D01*
X49174400Y-254152400D02*
X49174400Y-137160000D01*
X71120000Y-254152400D02*
X49174400Y-254152400D01*
X71120000Y-137160000D02*
X71120000Y-254152400D01*
X49174400Y-137160000D02*
X71120000Y-137160000D01*
X99974400Y-137160000D02*
X121920000Y-137160000D01*
X121920000Y-137160000D02*
X121920000Y-254152400D01*
X121920000Y-254152400D02*
X99974400Y-254152400D01*
X99974400Y-254152400D02*
X99974400Y-137160000D01*
X123586666Y-137160000D02*
G75*
G03X123586666Y-137160000I-1666666J0D01*
G01*
X119420000Y-137160000D02*
X124420000Y-137160000D01*
X121920000Y-134660000D02*
X121920000Y-139660000D01*
X98186666Y-137160000D02*
G75*
G03X98186666Y-137160000I-1666666J0D01*
G01*
X94020000Y-137160000D02*
X99020000Y-137160000D01*
X96520000Y-134660000D02*
X96520000Y-139660000D01*
X74574400Y-254152400D02*
X74574400Y-137160000D01*
X96520000Y-254152400D02*
X74574400Y-254152400D01*
X96520000Y-137160000D02*
X96520000Y-254152400D01*
X74574400Y-137160000D02*
X96520000Y-137160000D01*
X74574400Y-17780000D02*
X96520000Y-17780000D01*
X96520000Y-17780000D02*
X96520000Y-134772400D01*
X96520000Y-134772400D02*
X74574400Y-134772400D01*
X74574400Y-134772400D02*
X74574400Y-17780000D01*
X98186666Y-17780000D02*
G75*
G03X98186666Y-17780000I-1666666J0D01*
G01*
X94020000Y-17780000D02*
X99020000Y-17780000D01*
X96520000Y-15280000D02*
X96520000Y-20280000D01*
X123586666Y-17780000D02*
G75*
G03X123586666Y-17780000I-1666666J0D01*
G01*
X119420000Y-17780000D02*
X124420000Y-17780000D01*
X121920000Y-15280000D02*
X121920000Y-20280000D01*
X99974400Y-134772400D02*
X99974400Y-17780000D01*
X121920000Y-134772400D02*
X99974400Y-134772400D01*
X121920000Y-17780000D02*
X121920000Y-134772400D01*
X99974400Y-17780000D02*
X121920000Y-17780000D01*
X49174400Y-17780000D02*
X71120000Y-17780000D01*
X71120000Y-17780000D02*
X71120000Y-134772400D01*
X71120000Y-134772400D02*
X49174400Y-134772400D01*
X49174400Y-134772400D02*
X49174400Y-17780000D01*
X72786666Y-17780000D02*
G75*
G03X72786666Y-17780000I-1666666J0D01*
G01*
X68620000Y-17780000D02*
X73620000Y-17780000D01*
X71120000Y-15280000D02*
X71120000Y-20280000D01*
X47386666Y-17780000D02*
G75*
G03X47386666Y-17780000I-1666666J0D01*
G01*
X43220000Y-17780000D02*
X48220000Y-17780000D01*
X45720000Y-15280000D02*
X45720000Y-20280000D01*
X23774400Y-134772400D02*
X23774400Y-17780000D01*
X45720000Y-134772400D02*
X23774400Y-134772400D01*
X23774400Y-17780000D02*
X45720000Y-17780000D01*
M02*
