M48
;DRILL file {KiCad 4.0.1-stable} date 10/3/2016 4:29:36 PM
;FORMAT={-:-/ absolute / inch / decimal}
FMAT,2
INCH,TZ
T1C0.016
T2C0.040
%
G90
G05
M72
T1
X1.125Y-2.089
X1.125Y-6.789
X1.255Y-1.924
X1.255Y-6.624
X1.295Y-1.781
X1.295Y-6.481
X1.363Y-2.217
X1.363Y-6.917
X1.41Y-1.653
X1.41Y-6.353
X1.515Y-1.616
X1.515Y-6.316
X1.557Y-1.91
X1.557Y-6.61
X1.614Y-2.146
X1.614Y-6.846
X2.125Y-2.089
X2.125Y-6.789
X2.255Y-1.924
X2.255Y-6.624
X2.295Y-1.781
X2.295Y-6.481
X2.363Y-2.217
X2.363Y-6.917
X2.41Y-1.653
X2.41Y-6.353
X2.515Y-1.616
X2.515Y-6.316
X2.557Y-1.91
X2.557Y-6.61
X2.614Y-2.146
X2.614Y-6.846
X3.125Y-2.089
X3.125Y-6.789
X3.255Y-1.924
X3.255Y-6.624
X3.295Y-1.781
X3.295Y-6.481
X3.363Y-2.217
X3.363Y-6.917
X3.41Y-1.653
X3.41Y-6.353
X3.515Y-1.616
X3.515Y-6.316
X3.557Y-1.91
X3.557Y-6.61
X3.614Y-2.146
X3.614Y-6.846
X4.125Y-2.089
X4.125Y-6.789
X4.255Y-1.924
X4.255Y-6.624
X4.295Y-1.781
X4.295Y-6.481
X4.363Y-2.217
X4.363Y-6.917
X4.41Y-1.653
X4.41Y-6.353
X4.515Y-1.616
X4.515Y-6.316
X4.557Y-1.91
X4.557Y-6.61
X4.614Y-2.146
X4.614Y-6.846
X5.125Y-2.089
X5.125Y-6.789
X5.255Y-1.924
X5.255Y-6.624
X5.295Y-1.781
X5.295Y-6.481
X5.363Y-2.217
X5.363Y-6.917
X5.41Y-1.653
X5.41Y-6.353
X5.515Y-1.616
X5.515Y-6.316
X5.557Y-1.91
X5.557Y-6.61
X5.614Y-2.146
X5.614Y-6.846
X6.125Y-2.089
X6.125Y-6.789
X6.255Y-1.924
X6.255Y-6.624
X6.295Y-1.781
X6.295Y-6.481
X6.363Y-2.217
X6.363Y-6.917
X6.41Y-1.653
X6.41Y-6.353
X6.515Y-1.616
X6.515Y-6.316
X6.557Y-1.91
X6.557Y-6.61
X6.614Y-2.146
X6.614Y-6.846
T2
X1.022Y-1.531
X1.022Y-1.631
X1.022Y-1.731
X1.022Y-1.831
X1.022Y-1.931
X1.022Y-2.031
X1.022Y-2.131
X1.022Y-2.231
X1.022Y-2.331
X1.022Y-2.431
X1.022Y-2.531
X1.022Y-2.631
X1.022Y-6.231
X1.022Y-6.331
X1.022Y-6.431
X1.022Y-6.531
X1.022Y-6.631
X1.022Y-6.731
X1.022Y-6.831
X1.022Y-6.931
X1.022Y-7.031
X1.022Y-7.131
X1.022Y-7.231
X1.022Y-7.331
X1.114Y-1.033
X1.114Y-1.233
X1.114Y-5.733
X1.114Y-5.933
X1.216Y-0.809
X1.216Y-5.509
X1.316Y-0.809
X1.316Y-5.509
X1.416Y-0.809
X1.416Y-5.509
X1.516Y-0.809
X1.516Y-5.509
X1.614Y-1.033
X1.614Y-1.233
X1.614Y-5.733
X1.614Y-5.933
X1.722Y-1.531
X1.722Y-1.631
X1.722Y-1.731
X1.722Y-1.831
X1.722Y-1.931
X1.722Y-2.031
X1.722Y-2.131
X1.722Y-2.231
X1.722Y-2.331
X1.722Y-2.431
X1.722Y-2.531
X1.722Y-2.631
X1.722Y-6.231
X1.722Y-6.331
X1.722Y-6.431
X1.722Y-6.531
X1.722Y-6.631
X1.722Y-6.731
X1.722Y-6.831
X1.722Y-6.931
X1.722Y-7.031
X1.722Y-7.131
X1.722Y-7.231
X1.722Y-7.331
X2.022Y-1.531
X2.022Y-1.631
X2.022Y-1.731
X2.022Y-1.831
X2.022Y-1.931
X2.022Y-2.031
X2.022Y-2.131
X2.022Y-2.231
X2.022Y-2.331
X2.022Y-2.431
X2.022Y-2.531
X2.022Y-2.631
X2.022Y-6.231
X2.022Y-6.331
X2.022Y-6.431
X2.022Y-6.531
X2.022Y-6.631
X2.022Y-6.731
X2.022Y-6.831
X2.022Y-6.931
X2.022Y-7.031
X2.022Y-7.131
X2.022Y-7.231
X2.022Y-7.331
X2.114Y-1.033
X2.114Y-1.233
X2.114Y-5.733
X2.114Y-5.933
X2.216Y-0.809
X2.216Y-5.509
X2.316Y-0.809
X2.316Y-5.509
X2.416Y-0.809
X2.416Y-5.509
X2.516Y-0.809
X2.516Y-5.509
X2.614Y-1.033
X2.614Y-1.233
X2.614Y-5.733
X2.614Y-5.933
X2.722Y-1.531
X2.722Y-1.631
X2.722Y-1.731
X2.722Y-1.831
X2.722Y-1.931
X2.722Y-2.031
X2.722Y-2.131
X2.722Y-2.231
X2.722Y-2.331
X2.722Y-2.431
X2.722Y-2.531
X2.722Y-2.631
X2.722Y-6.231
X2.722Y-6.331
X2.722Y-6.431
X2.722Y-6.531
X2.722Y-6.631
X2.722Y-6.731
X2.722Y-6.831
X2.722Y-6.931
X2.722Y-7.031
X2.722Y-7.131
X2.722Y-7.231
X2.722Y-7.331
X3.022Y-1.531
X3.022Y-1.631
X3.022Y-1.731
X3.022Y-1.831
X3.022Y-1.931
X3.022Y-2.031
X3.022Y-2.131
X3.022Y-2.231
X3.022Y-2.331
X3.022Y-2.431
X3.022Y-2.531
X3.022Y-2.631
X3.022Y-6.231
X3.022Y-6.331
X3.022Y-6.431
X3.022Y-6.531
X3.022Y-6.631
X3.022Y-6.731
X3.022Y-6.831
X3.022Y-6.931
X3.022Y-7.031
X3.022Y-7.131
X3.022Y-7.231
X3.022Y-7.331
X3.114Y-1.033
X3.114Y-1.233
X3.114Y-5.733
X3.114Y-5.933
X3.216Y-0.809
X3.216Y-5.509
X3.316Y-0.809
X3.316Y-5.509
X3.416Y-0.809
X3.416Y-5.509
X3.516Y-0.809
X3.516Y-5.509
X3.614Y-1.033
X3.614Y-1.233
X3.614Y-5.733
X3.614Y-5.933
X3.722Y-1.531
X3.722Y-1.631
X3.722Y-1.731
X3.722Y-1.831
X3.722Y-1.931
X3.722Y-2.031
X3.722Y-2.131
X3.722Y-2.231
X3.722Y-2.331
X3.722Y-2.431
X3.722Y-2.531
X3.722Y-2.631
X3.722Y-6.231
X3.722Y-6.331
X3.722Y-6.431
X3.722Y-6.531
X3.722Y-6.631
X3.722Y-6.731
X3.722Y-6.831
X3.722Y-6.931
X3.722Y-7.031
X3.722Y-7.131
X3.722Y-7.231
X3.722Y-7.331
X4.022Y-1.531
X4.022Y-1.631
X4.022Y-1.731
X4.022Y-1.831
X4.022Y-1.931
X4.022Y-2.031
X4.022Y-2.131
X4.022Y-2.231
X4.022Y-2.331
X4.022Y-2.431
X4.022Y-2.531
X4.022Y-2.631
X4.022Y-6.231
X4.022Y-6.331
X4.022Y-6.431
X4.022Y-6.531
X4.022Y-6.631
X4.022Y-6.731
X4.022Y-6.831
X4.022Y-6.931
X4.022Y-7.031
X4.022Y-7.131
X4.022Y-7.231
X4.022Y-7.331
X4.114Y-1.033
X4.114Y-1.233
X4.114Y-5.733
X4.114Y-5.933
X4.216Y-0.809
X4.216Y-5.509
X4.316Y-0.809
X4.316Y-5.509
X4.416Y-0.809
X4.416Y-5.509
X4.516Y-0.809
X4.516Y-5.509
X4.614Y-1.033
X4.614Y-1.233
X4.614Y-5.733
X4.614Y-5.933
X4.722Y-1.531
X4.722Y-1.631
X4.722Y-1.731
X4.722Y-1.831
X4.722Y-1.931
X4.722Y-2.031
X4.722Y-2.131
X4.722Y-2.231
X4.722Y-2.331
X4.722Y-2.431
X4.722Y-2.531
X4.722Y-2.631
X4.722Y-6.231
X4.722Y-6.331
X4.722Y-6.431
X4.722Y-6.531
X4.722Y-6.631
X4.722Y-6.731
X4.722Y-6.831
X4.722Y-6.931
X4.722Y-7.031
X4.722Y-7.131
X4.722Y-7.231
X4.722Y-7.331
X5.022Y-1.531
X5.022Y-1.631
X5.022Y-1.731
X5.022Y-1.831
X5.022Y-1.931
X5.022Y-2.031
X5.022Y-2.131
X5.022Y-2.231
X5.022Y-2.331
X5.022Y-2.431
X5.022Y-2.531
X5.022Y-2.631
X5.022Y-6.231
X5.022Y-6.331
X5.022Y-6.431
X5.022Y-6.531
X5.022Y-6.631
X5.022Y-6.731
X5.022Y-6.831
X5.022Y-6.931
X5.022Y-7.031
X5.022Y-7.131
X5.022Y-7.231
X5.022Y-7.331
X5.114Y-1.033
X5.114Y-1.233
X5.114Y-5.733
X5.114Y-5.933
X5.216Y-0.809
X5.216Y-5.509
X5.316Y-0.809
X5.316Y-5.509
X5.416Y-0.809
X5.416Y-5.509
X5.516Y-0.809
X5.516Y-5.509
X5.614Y-1.033
X5.614Y-1.233
X5.614Y-5.733
X5.614Y-5.933
X5.722Y-1.531
X5.722Y-1.631
X5.722Y-1.731
X5.722Y-1.831
X5.722Y-1.931
X5.722Y-2.031
X5.722Y-2.131
X5.722Y-2.231
X5.722Y-2.331
X5.722Y-2.431
X5.722Y-2.531
X5.722Y-2.631
X5.722Y-6.231
X5.722Y-6.331
X5.722Y-6.431
X5.722Y-6.531
X5.722Y-6.631
X5.722Y-6.731
X5.722Y-6.831
X5.722Y-6.931
X5.722Y-7.031
X5.722Y-7.131
X5.722Y-7.231
X5.722Y-7.331
X6.022Y-1.531
X6.022Y-1.631
X6.022Y-1.731
X6.022Y-1.831
X6.022Y-1.931
X6.022Y-2.031
X6.022Y-2.131
X6.022Y-2.231
X6.022Y-2.331
X6.022Y-2.431
X6.022Y-2.531
X6.022Y-2.631
X6.022Y-6.231
X6.022Y-6.331
X6.022Y-6.431
X6.022Y-6.531
X6.022Y-6.631
X6.022Y-6.731
X6.022Y-6.831
X6.022Y-6.931
X6.022Y-7.031
X6.022Y-7.131
X6.022Y-7.231
X6.022Y-7.331
X6.114Y-1.033
X6.114Y-1.233
X6.114Y-5.733
X6.114Y-5.933
X6.216Y-0.809
X6.216Y-5.509
X6.316Y-0.809
X6.316Y-5.509
X6.416Y-0.809
X6.416Y-5.509
X6.516Y-0.809
X6.516Y-5.509
X6.614Y-1.033
X6.614Y-1.233
X6.614Y-5.733
X6.614Y-5.933
X6.722Y-1.531
X6.722Y-1.631
X6.722Y-1.731
X6.722Y-1.831
X6.722Y-1.931
X6.722Y-2.031
X6.722Y-2.131
X6.722Y-2.231
X6.722Y-2.331
X6.722Y-2.431
X6.722Y-2.531
X6.722Y-2.631
X6.722Y-6.231
X6.722Y-6.331
X6.722Y-6.431
X6.722Y-6.531
X6.722Y-6.631
X6.722Y-6.731
X6.722Y-6.831
X6.722Y-6.931
X6.722Y-7.031
X6.722Y-7.131
X6.722Y-7.231
X6.722Y-7.331
T0
M30
