G04 #@! TF.FileFunction,Soldermask,Top*
%FSLAX46Y46*%
G04 Gerber Fmt 4.6, Leading zero omitted, Abs format (unit mm)*
G04 Created by KiCad (PCBNEW 4.0.1-stable) date 10/3/2016 4:29:35 PM*
%MOMM*%
G01*
G04 APERTURE LIST*
%ADD10C,0.100000*%
%ADD11O,3.448000X2.127200*%
%ADD12R,0.800000X1.000000*%
%ADD13R,2.127200X2.432000*%
%ADD14O,2.127200X2.432000*%
%ADD15O,2.400000X1.670000*%
G04 APERTURE END LIST*
D10*
D11*
X129895600Y-26238200D03*
X129895600Y-31318200D03*
X142595600Y-26238200D03*
X142595600Y-31318200D03*
D12*
X132239600Y-119329200D03*
X133139600Y-119329200D03*
D13*
X132486400Y-20548600D03*
D14*
X135026400Y-20548600D03*
X137566400Y-20548600D03*
X140106400Y-20548600D03*
D15*
X145338800Y-38887400D03*
X127558800Y-38887400D03*
X145338800Y-41427400D03*
X127558800Y-41427400D03*
X145338800Y-43967400D03*
X127558800Y-43967400D03*
X145338800Y-46507400D03*
X127558800Y-46507400D03*
X145338800Y-49047400D03*
X127558800Y-49047400D03*
X145338800Y-51587400D03*
X127558800Y-51587400D03*
X145338800Y-54127400D03*
X127558800Y-54127400D03*
X145338800Y-56667400D03*
X127558800Y-56667400D03*
X145338800Y-59207400D03*
X127558800Y-59207400D03*
X145338800Y-61747400D03*
X127558800Y-61747400D03*
X145338800Y-64287400D03*
X127558800Y-64287400D03*
X145338800Y-66827400D03*
X127558800Y-66827400D03*
D11*
X155295600Y-26238200D03*
X155295600Y-31318200D03*
X167995600Y-26238200D03*
X167995600Y-31318200D03*
D12*
X157639600Y-119329200D03*
X158539600Y-119329200D03*
D13*
X157886400Y-20548600D03*
D14*
X160426400Y-20548600D03*
X162966400Y-20548600D03*
X165506400Y-20548600D03*
D15*
X170738800Y-38887400D03*
X152958800Y-38887400D03*
X170738800Y-41427400D03*
X152958800Y-41427400D03*
X170738800Y-43967400D03*
X152958800Y-43967400D03*
X170738800Y-46507400D03*
X152958800Y-46507400D03*
X170738800Y-49047400D03*
X152958800Y-49047400D03*
X170738800Y-51587400D03*
X152958800Y-51587400D03*
X170738800Y-54127400D03*
X152958800Y-54127400D03*
X170738800Y-56667400D03*
X152958800Y-56667400D03*
X170738800Y-59207400D03*
X152958800Y-59207400D03*
X170738800Y-61747400D03*
X152958800Y-61747400D03*
X170738800Y-64287400D03*
X152958800Y-64287400D03*
X170738800Y-66827400D03*
X152958800Y-66827400D03*
X170738800Y-158267400D03*
X152958800Y-158267400D03*
X170738800Y-160807400D03*
X152958800Y-160807400D03*
X170738800Y-163347400D03*
X152958800Y-163347400D03*
X170738800Y-165887400D03*
X152958800Y-165887400D03*
X170738800Y-168427400D03*
X152958800Y-168427400D03*
X170738800Y-170967400D03*
X152958800Y-170967400D03*
X170738800Y-173507400D03*
X152958800Y-173507400D03*
X170738800Y-176047400D03*
X152958800Y-176047400D03*
X170738800Y-178587400D03*
X152958800Y-178587400D03*
X170738800Y-181127400D03*
X152958800Y-181127400D03*
X170738800Y-183667400D03*
X152958800Y-183667400D03*
X170738800Y-186207400D03*
X152958800Y-186207400D03*
D13*
X157886400Y-139928600D03*
D14*
X160426400Y-139928600D03*
X162966400Y-139928600D03*
X165506400Y-139928600D03*
D12*
X157639600Y-238709200D03*
X158539600Y-238709200D03*
D11*
X155295600Y-145618200D03*
X155295600Y-150698200D03*
X167995600Y-145618200D03*
X167995600Y-150698200D03*
D15*
X145338800Y-158267400D03*
X127558800Y-158267400D03*
X145338800Y-160807400D03*
X127558800Y-160807400D03*
X145338800Y-163347400D03*
X127558800Y-163347400D03*
X145338800Y-165887400D03*
X127558800Y-165887400D03*
X145338800Y-168427400D03*
X127558800Y-168427400D03*
X145338800Y-170967400D03*
X127558800Y-170967400D03*
X145338800Y-173507400D03*
X127558800Y-173507400D03*
X145338800Y-176047400D03*
X127558800Y-176047400D03*
X145338800Y-178587400D03*
X127558800Y-178587400D03*
X145338800Y-181127400D03*
X127558800Y-181127400D03*
X145338800Y-183667400D03*
X127558800Y-183667400D03*
X145338800Y-186207400D03*
X127558800Y-186207400D03*
D13*
X132486400Y-139928600D03*
D14*
X135026400Y-139928600D03*
X137566400Y-139928600D03*
X140106400Y-139928600D03*
D12*
X132239600Y-238709200D03*
X133139600Y-238709200D03*
D11*
X129895600Y-145618200D03*
X129895600Y-150698200D03*
X142595600Y-145618200D03*
X142595600Y-150698200D03*
D15*
X43738800Y-158267400D03*
X25958800Y-158267400D03*
X43738800Y-160807400D03*
X25958800Y-160807400D03*
X43738800Y-163347400D03*
X25958800Y-163347400D03*
X43738800Y-165887400D03*
X25958800Y-165887400D03*
X43738800Y-168427400D03*
X25958800Y-168427400D03*
X43738800Y-170967400D03*
X25958800Y-170967400D03*
X43738800Y-173507400D03*
X25958800Y-173507400D03*
X43738800Y-176047400D03*
X25958800Y-176047400D03*
X43738800Y-178587400D03*
X25958800Y-178587400D03*
X43738800Y-181127400D03*
X25958800Y-181127400D03*
X43738800Y-183667400D03*
X25958800Y-183667400D03*
X43738800Y-186207400D03*
X25958800Y-186207400D03*
D13*
X30886400Y-139928600D03*
D14*
X33426400Y-139928600D03*
X35966400Y-139928600D03*
X38506400Y-139928600D03*
D12*
X30639600Y-238709200D03*
X31539600Y-238709200D03*
D11*
X28295600Y-145618200D03*
X28295600Y-150698200D03*
X40995600Y-145618200D03*
X40995600Y-150698200D03*
X53695600Y-145618200D03*
X53695600Y-150698200D03*
X66395600Y-145618200D03*
X66395600Y-150698200D03*
D12*
X56039600Y-238709200D03*
X56939600Y-238709200D03*
D13*
X56286400Y-139928600D03*
D14*
X58826400Y-139928600D03*
X61366400Y-139928600D03*
X63906400Y-139928600D03*
D15*
X69138800Y-158267400D03*
X51358800Y-158267400D03*
X69138800Y-160807400D03*
X51358800Y-160807400D03*
X69138800Y-163347400D03*
X51358800Y-163347400D03*
X69138800Y-165887400D03*
X51358800Y-165887400D03*
X69138800Y-168427400D03*
X51358800Y-168427400D03*
X69138800Y-170967400D03*
X51358800Y-170967400D03*
X69138800Y-173507400D03*
X51358800Y-173507400D03*
X69138800Y-176047400D03*
X51358800Y-176047400D03*
X69138800Y-178587400D03*
X51358800Y-178587400D03*
X69138800Y-181127400D03*
X51358800Y-181127400D03*
X69138800Y-183667400D03*
X51358800Y-183667400D03*
X69138800Y-186207400D03*
X51358800Y-186207400D03*
X119938800Y-158267400D03*
X102158800Y-158267400D03*
X119938800Y-160807400D03*
X102158800Y-160807400D03*
X119938800Y-163347400D03*
X102158800Y-163347400D03*
X119938800Y-165887400D03*
X102158800Y-165887400D03*
X119938800Y-168427400D03*
X102158800Y-168427400D03*
X119938800Y-170967400D03*
X102158800Y-170967400D03*
X119938800Y-173507400D03*
X102158800Y-173507400D03*
X119938800Y-176047400D03*
X102158800Y-176047400D03*
X119938800Y-178587400D03*
X102158800Y-178587400D03*
X119938800Y-181127400D03*
X102158800Y-181127400D03*
X119938800Y-183667400D03*
X102158800Y-183667400D03*
X119938800Y-186207400D03*
X102158800Y-186207400D03*
D13*
X107086400Y-139928600D03*
D14*
X109626400Y-139928600D03*
X112166400Y-139928600D03*
X114706400Y-139928600D03*
D12*
X106839600Y-238709200D03*
X107739600Y-238709200D03*
D11*
X104495600Y-145618200D03*
X104495600Y-150698200D03*
X117195600Y-145618200D03*
X117195600Y-150698200D03*
X79095600Y-145618200D03*
X79095600Y-150698200D03*
X91795600Y-145618200D03*
X91795600Y-150698200D03*
D12*
X81439600Y-238709200D03*
X82339600Y-238709200D03*
D13*
X81686400Y-139928600D03*
D14*
X84226400Y-139928600D03*
X86766400Y-139928600D03*
X89306400Y-139928600D03*
D15*
X94538800Y-158267400D03*
X76758800Y-158267400D03*
X94538800Y-160807400D03*
X76758800Y-160807400D03*
X94538800Y-163347400D03*
X76758800Y-163347400D03*
X94538800Y-165887400D03*
X76758800Y-165887400D03*
X94538800Y-168427400D03*
X76758800Y-168427400D03*
X94538800Y-170967400D03*
X76758800Y-170967400D03*
X94538800Y-173507400D03*
X76758800Y-173507400D03*
X94538800Y-176047400D03*
X76758800Y-176047400D03*
X94538800Y-178587400D03*
X76758800Y-178587400D03*
X94538800Y-181127400D03*
X76758800Y-181127400D03*
X94538800Y-183667400D03*
X76758800Y-183667400D03*
X94538800Y-186207400D03*
X76758800Y-186207400D03*
X94538800Y-38887400D03*
X76758800Y-38887400D03*
X94538800Y-41427400D03*
X76758800Y-41427400D03*
X94538800Y-43967400D03*
X76758800Y-43967400D03*
X94538800Y-46507400D03*
X76758800Y-46507400D03*
X94538800Y-49047400D03*
X76758800Y-49047400D03*
X94538800Y-51587400D03*
X76758800Y-51587400D03*
X94538800Y-54127400D03*
X76758800Y-54127400D03*
X94538800Y-56667400D03*
X76758800Y-56667400D03*
X94538800Y-59207400D03*
X76758800Y-59207400D03*
X94538800Y-61747400D03*
X76758800Y-61747400D03*
X94538800Y-64287400D03*
X76758800Y-64287400D03*
X94538800Y-66827400D03*
X76758800Y-66827400D03*
D13*
X81686400Y-20548600D03*
D14*
X84226400Y-20548600D03*
X86766400Y-20548600D03*
X89306400Y-20548600D03*
D12*
X81439600Y-119329200D03*
X82339600Y-119329200D03*
D11*
X79095600Y-26238200D03*
X79095600Y-31318200D03*
X91795600Y-26238200D03*
X91795600Y-31318200D03*
X104495600Y-26238200D03*
X104495600Y-31318200D03*
X117195600Y-26238200D03*
X117195600Y-31318200D03*
D12*
X106839600Y-119329200D03*
X107739600Y-119329200D03*
D13*
X107086400Y-20548600D03*
D14*
X109626400Y-20548600D03*
X112166400Y-20548600D03*
X114706400Y-20548600D03*
D15*
X119938800Y-38887400D03*
X102158800Y-38887400D03*
X119938800Y-41427400D03*
X102158800Y-41427400D03*
X119938800Y-43967400D03*
X102158800Y-43967400D03*
X119938800Y-46507400D03*
X102158800Y-46507400D03*
X119938800Y-49047400D03*
X102158800Y-49047400D03*
X119938800Y-51587400D03*
X102158800Y-51587400D03*
X119938800Y-54127400D03*
X102158800Y-54127400D03*
X119938800Y-56667400D03*
X102158800Y-56667400D03*
X119938800Y-59207400D03*
X102158800Y-59207400D03*
X119938800Y-61747400D03*
X102158800Y-61747400D03*
X119938800Y-64287400D03*
X102158800Y-64287400D03*
X119938800Y-66827400D03*
X102158800Y-66827400D03*
X69138800Y-38887400D03*
X51358800Y-38887400D03*
X69138800Y-41427400D03*
X51358800Y-41427400D03*
X69138800Y-43967400D03*
X51358800Y-43967400D03*
X69138800Y-46507400D03*
X51358800Y-46507400D03*
X69138800Y-49047400D03*
X51358800Y-49047400D03*
X69138800Y-51587400D03*
X51358800Y-51587400D03*
X69138800Y-54127400D03*
X51358800Y-54127400D03*
X69138800Y-56667400D03*
X51358800Y-56667400D03*
X69138800Y-59207400D03*
X51358800Y-59207400D03*
X69138800Y-61747400D03*
X51358800Y-61747400D03*
X69138800Y-64287400D03*
X51358800Y-64287400D03*
X69138800Y-66827400D03*
X51358800Y-66827400D03*
D13*
X56286400Y-20548600D03*
D14*
X58826400Y-20548600D03*
X61366400Y-20548600D03*
X63906400Y-20548600D03*
D12*
X56039600Y-119329200D03*
X56939600Y-119329200D03*
D11*
X53695600Y-26238200D03*
X53695600Y-31318200D03*
X66395600Y-26238200D03*
X66395600Y-31318200D03*
X28295600Y-26238200D03*
X28295600Y-31318200D03*
X40995600Y-26238200D03*
X40995600Y-31318200D03*
D12*
X30639600Y-119329200D03*
X31539600Y-119329200D03*
D13*
X30886400Y-20548600D03*
D14*
X33426400Y-20548600D03*
X35966400Y-20548600D03*
X38506400Y-20548600D03*
D15*
X43738800Y-38887400D03*
X25958800Y-38887400D03*
X43738800Y-41427400D03*
X25958800Y-41427400D03*
X43738800Y-43967400D03*
X25958800Y-43967400D03*
X43738800Y-46507400D03*
X25958800Y-46507400D03*
X43738800Y-49047400D03*
X25958800Y-49047400D03*
X43738800Y-51587400D03*
X25958800Y-51587400D03*
X43738800Y-54127400D03*
X25958800Y-54127400D03*
X43738800Y-56667400D03*
X25958800Y-56667400D03*
X43738800Y-59207400D03*
X25958800Y-59207400D03*
X43738800Y-61747400D03*
X25958800Y-61747400D03*
X43738800Y-64287400D03*
X25958800Y-64287400D03*
X43738800Y-66827400D03*
X25958800Y-66827400D03*
M02*
