G04 Output by ViewMate Deluxe V11.6.18  PentaLogix*
G04 Tue Jul 19 15:59:14 2016*
%FSLAX35Y35*%
%MOIN*%
%IPPOS*%
%ADD11C,0.15*%
%ADD21C,0.006*%
%ADD65C,0.012*%

%LPD*%
X0Y0D2*D21*G1X149000Y251000D2*Y299000D1*X101000D2*Y251000D1*X147800*X149000Y252800D2*X102200D1*X101000Y254600D2*X147800D1*X149000Y256400D2*X102200D1*X101000Y258200D2*X147800D1*X149000Y260000D2*X102200D1*X101000Y261800D2*X147800D1*X149000Y263600D2*X102200D1*X101000Y265400D2*X147800D1*X149000Y267200D2*X102200D1*X101000Y269000D2*X147800D1*X149000Y270800D2*X102200D1*X101000Y272600D2*X147800D1*X149000Y274400D2*X102200D1*X101000Y276200D2*X147800D1*X149000Y278000D2*X102200D1*X101000Y279800D2*X147800D1*X149000Y281600D2*X102200D1*X101000Y283400D2*X147800D1*X149000Y285200D2*X102200D1*X101000Y287000D2*X147800D1*X149000Y288800D2*X102200D1*X101000Y290600D2*X147800D1*X149000Y292400D2*X102200D1*X101000Y294200D2*X147800D1*X149000Y296000D2*X102200D1*X101000Y297800D2*X147800D1*D65*X20000Y220000D2*X100000D1*Y250000*X100800Y250800*X20000Y180000D2*X45000D1*Y205000*X150000*Y250000*X149400Y251000*D11*X19877Y179449D3*Y219449D3*Y104449D3*X0Y0D2*M02*