G04 #@! TF.FileFunction,Legend,Top*
%FSLAX46Y46*%
G04 Gerber Fmt 4.6, Leading zero omitted, Abs format (unit mm)*
G04 Created by KiCad (PCBNEW 4.0.1-stable) date 2/13/2017 3:52:04 PM*
%MOMM*%
G01*
G04 APERTURE LIST*
%ADD10C,0.100000*%
%ADD11C,0.304800*%
%ADD12C,0.152400*%
%ADD13C,0.200000*%
%ADD14C,0.300000*%
%ADD15C,0.150000*%
%ADD16C,0.050000*%
G04 APERTURE END LIST*
D10*
D11*
X127425600Y-236865800D02*
X127425600Y-249565800D01*
X140100200Y-236840400D02*
X127400200Y-236840400D01*
X140125600Y-249845200D02*
X127425600Y-249845200D01*
X140100200Y-236789600D02*
X140100200Y-249489600D01*
D12*
X138963029Y-239379001D02*
X139572629Y-239379001D01*
X139282343Y-239379001D02*
X139282343Y-239727344D01*
X138963029Y-239727344D02*
X139572629Y-239727344D01*
X138963029Y-240278887D02*
X139282343Y-240278887D01*
X139340400Y-240249858D01*
X139369429Y-240191801D01*
X139369429Y-240075687D01*
X139340400Y-240017630D01*
X138992057Y-240278887D02*
X138963029Y-240220830D01*
X138963029Y-240075687D01*
X138992057Y-240017630D01*
X139050114Y-239988601D01*
X139108171Y-239988601D01*
X139166229Y-240017630D01*
X139195257Y-240075687D01*
X139195257Y-240220830D01*
X139224286Y-240278887D01*
X139369429Y-240511116D02*
X138963029Y-240656259D01*
X139369429Y-240801401D02*
X138963029Y-240656259D01*
X138817886Y-240598201D01*
X138788857Y-240569173D01*
X138759829Y-240511116D01*
X139282343Y-241701287D02*
X139253314Y-241788373D01*
X139224286Y-241817401D01*
X139166229Y-241846430D01*
X139079143Y-241846430D01*
X139021086Y-241817401D01*
X138992057Y-241788373D01*
X138963029Y-241730315D01*
X138963029Y-241498087D01*
X139572629Y-241498087D01*
X139572629Y-241701287D01*
X139543600Y-241759344D01*
X139514571Y-241788373D01*
X139456514Y-241817401D01*
X139398457Y-241817401D01*
X139340400Y-241788373D01*
X139311371Y-241759344D01*
X139282343Y-241701287D01*
X139282343Y-241498087D01*
X138963029Y-242368944D02*
X139282343Y-242368944D01*
X139340400Y-242339915D01*
X139369429Y-242281858D01*
X139369429Y-242165744D01*
X139340400Y-242107687D01*
X138992057Y-242368944D02*
X138963029Y-242310887D01*
X138963029Y-242165744D01*
X138992057Y-242107687D01*
X139050114Y-242078658D01*
X139108171Y-242078658D01*
X139166229Y-242107687D01*
X139195257Y-242165744D01*
X139195257Y-242310887D01*
X139224286Y-242368944D01*
X138963029Y-242746316D02*
X138992057Y-242688258D01*
X139050114Y-242659230D01*
X139572629Y-242659230D01*
X138992057Y-243210772D02*
X138963029Y-243152715D01*
X138963029Y-243036601D01*
X138992057Y-242978544D01*
X139050114Y-242949515D01*
X139282343Y-242949515D01*
X139340400Y-242978544D01*
X139369429Y-243036601D01*
X139369429Y-243152715D01*
X139340400Y-243210772D01*
X139282343Y-243239801D01*
X139224286Y-243239801D01*
X139166229Y-242949515D01*
X138992057Y-243936486D02*
X138963029Y-244023572D01*
X138963029Y-244168715D01*
X138992057Y-244226772D01*
X139021086Y-244255801D01*
X139079143Y-244284829D01*
X139137200Y-244284829D01*
X139195257Y-244255801D01*
X139224286Y-244226772D01*
X139253314Y-244168715D01*
X139282343Y-244052601D01*
X139311371Y-243994543D01*
X139340400Y-243965515D01*
X139398457Y-243936486D01*
X139456514Y-243936486D01*
X139514571Y-243965515D01*
X139543600Y-243994543D01*
X139572629Y-244052601D01*
X139572629Y-244197743D01*
X139543600Y-244284829D01*
X138992057Y-244778314D02*
X138963029Y-244720257D01*
X138963029Y-244604143D01*
X138992057Y-244546086D01*
X139050114Y-244517057D01*
X139282343Y-244517057D01*
X139340400Y-244546086D01*
X139369429Y-244604143D01*
X139369429Y-244720257D01*
X139340400Y-244778314D01*
X139282343Y-244807343D01*
X139224286Y-244807343D01*
X139166229Y-244517057D01*
X139369429Y-245068600D02*
X138963029Y-245068600D01*
X139311371Y-245068600D02*
X139340400Y-245097628D01*
X139369429Y-245155686D01*
X139369429Y-245242771D01*
X139340400Y-245300828D01*
X139282343Y-245329857D01*
X138963029Y-245329857D01*
X138992057Y-245591114D02*
X138963029Y-245649171D01*
X138963029Y-245765286D01*
X138992057Y-245823343D01*
X139050114Y-245852371D01*
X139079143Y-245852371D01*
X139137200Y-245823343D01*
X139166229Y-245765286D01*
X139166229Y-245678200D01*
X139195257Y-245620143D01*
X139253314Y-245591114D01*
X139282343Y-245591114D01*
X139340400Y-245620143D01*
X139369429Y-245678200D01*
X139369429Y-245765286D01*
X139340400Y-245823343D01*
X138963029Y-246200715D02*
X138992057Y-246142657D01*
X139021086Y-246113629D01*
X139079143Y-246084600D01*
X139253314Y-246084600D01*
X139311371Y-246113629D01*
X139340400Y-246142657D01*
X139369429Y-246200715D01*
X139369429Y-246287800D01*
X139340400Y-246345857D01*
X139311371Y-246374886D01*
X139253314Y-246403915D01*
X139079143Y-246403915D01*
X139021086Y-246374886D01*
X138992057Y-246345857D01*
X138963029Y-246287800D01*
X138963029Y-246200715D01*
X138963029Y-246665172D02*
X139369429Y-246665172D01*
X139253314Y-246665172D02*
X139311371Y-246694200D01*
X139340400Y-246723229D01*
X139369429Y-246781286D01*
X139369429Y-246839343D01*
X139572629Y-247419914D02*
X138963029Y-247623114D01*
X139572629Y-247826314D01*
X139369429Y-248290771D02*
X138963029Y-248290771D01*
X139601657Y-248145628D02*
X139166229Y-248000485D01*
X139166229Y-248377857D01*
D13*
X127448400Y-249095400D02*
X127448400Y-249857400D01*
X127372200Y-249501800D02*
X127372200Y-249857400D01*
X127372200Y-249857400D02*
X127524600Y-249857400D01*
X127524600Y-249857400D02*
X127473800Y-249857400D01*
X127473800Y-249857400D02*
X127473800Y-249501800D01*
X140046800Y-249451000D02*
X140046800Y-249908200D01*
X140046800Y-249908200D02*
X140173800Y-249908200D01*
X140173800Y-249908200D02*
X140123000Y-249908200D01*
X140123000Y-249908200D02*
X140148400Y-249908200D01*
X140148400Y-249908200D02*
X140148400Y-249400200D01*
D14*
X130428629Y-138592000D02*
X130285772Y-138520571D01*
X130071486Y-138520571D01*
X129857201Y-138592000D01*
X129714343Y-138734857D01*
X129642915Y-138877714D01*
X129571486Y-139163429D01*
X129571486Y-139377714D01*
X129642915Y-139663429D01*
X129714343Y-139806286D01*
X129857201Y-139949143D01*
X130071486Y-140020571D01*
X130214343Y-140020571D01*
X130428629Y-139949143D01*
X130500058Y-139877714D01*
X130500058Y-139377714D01*
X130214343Y-139377714D01*
X132285772Y-139449143D02*
X133428629Y-139449143D01*
X132857200Y-140020571D02*
X132857200Y-138877714D01*
X135285772Y-139449143D02*
X136428629Y-139449143D01*
X135857200Y-140020571D02*
X135857200Y-138877714D01*
X139071486Y-138592000D02*
X138928629Y-138520571D01*
X138714343Y-138520571D01*
X138500058Y-138592000D01*
X138357200Y-138734857D01*
X138285772Y-138877714D01*
X138214343Y-139163429D01*
X138214343Y-139377714D01*
X138285772Y-139663429D01*
X138357200Y-139806286D01*
X138500058Y-139949143D01*
X138714343Y-140020571D01*
X138857200Y-140020571D01*
X139071486Y-139949143D01*
X139142915Y-139877714D01*
X139142915Y-139377714D01*
X138857200Y-139377714D01*
D13*
X123333600Y-133982600D02*
X145279200Y-133982600D01*
X145279200Y-133982600D02*
X145279200Y-250975000D01*
X145279200Y-250975000D02*
X123333600Y-250975000D01*
X123333600Y-250975000D02*
X123333600Y-133982600D01*
X123333600Y-133982600D02*
X123409800Y-133982600D01*
X123333600Y-15237600D02*
X123409800Y-15237600D01*
X123333600Y-132230000D02*
X123333600Y-15237600D01*
X145279200Y-132230000D02*
X123333600Y-132230000D01*
X145279200Y-15237600D02*
X145279200Y-132230000D01*
X123333600Y-15237600D02*
X145279200Y-15237600D01*
D14*
X130428629Y-19847000D02*
X130285772Y-19775571D01*
X130071486Y-19775571D01*
X129857201Y-19847000D01*
X129714343Y-19989857D01*
X129642915Y-20132714D01*
X129571486Y-20418429D01*
X129571486Y-20632714D01*
X129642915Y-20918429D01*
X129714343Y-21061286D01*
X129857201Y-21204143D01*
X130071486Y-21275571D01*
X130214343Y-21275571D01*
X130428629Y-21204143D01*
X130500058Y-21132714D01*
X130500058Y-20632714D01*
X130214343Y-20632714D01*
X132285772Y-20704143D02*
X133428629Y-20704143D01*
X132857200Y-21275571D02*
X132857200Y-20132714D01*
X135285772Y-20704143D02*
X136428629Y-20704143D01*
X135857200Y-21275571D02*
X135857200Y-20132714D01*
X139071486Y-19847000D02*
X138928629Y-19775571D01*
X138714343Y-19775571D01*
X138500058Y-19847000D01*
X138357200Y-19989857D01*
X138285772Y-20132714D01*
X138214343Y-20418429D01*
X138214343Y-20632714D01*
X138285772Y-20918429D01*
X138357200Y-21061286D01*
X138500058Y-21204143D01*
X138714343Y-21275571D01*
X138857200Y-21275571D01*
X139071486Y-21204143D01*
X139142915Y-21132714D01*
X139142915Y-20632714D01*
X138857200Y-20632714D01*
D13*
X140148400Y-131163200D02*
X140148400Y-130655200D01*
X140123000Y-131163200D02*
X140148400Y-131163200D01*
X140173800Y-131163200D02*
X140123000Y-131163200D01*
X140046800Y-131163200D02*
X140173800Y-131163200D01*
X140046800Y-130706000D02*
X140046800Y-131163200D01*
X127473800Y-131112400D02*
X127473800Y-130756800D01*
X127524600Y-131112400D02*
X127473800Y-131112400D01*
X127372200Y-131112400D02*
X127524600Y-131112400D01*
X127372200Y-130756800D02*
X127372200Y-131112400D01*
X127448400Y-130350400D02*
X127448400Y-131112400D01*
D12*
X138963029Y-120634001D02*
X139572629Y-120634001D01*
X139282343Y-120634001D02*
X139282343Y-120982344D01*
X138963029Y-120982344D02*
X139572629Y-120982344D01*
X138963029Y-121533887D02*
X139282343Y-121533887D01*
X139340400Y-121504858D01*
X139369429Y-121446801D01*
X139369429Y-121330687D01*
X139340400Y-121272630D01*
X138992057Y-121533887D02*
X138963029Y-121475830D01*
X138963029Y-121330687D01*
X138992057Y-121272630D01*
X139050114Y-121243601D01*
X139108171Y-121243601D01*
X139166229Y-121272630D01*
X139195257Y-121330687D01*
X139195257Y-121475830D01*
X139224286Y-121533887D01*
X139369429Y-121766116D02*
X138963029Y-121911259D01*
X139369429Y-122056401D02*
X138963029Y-121911259D01*
X138817886Y-121853201D01*
X138788857Y-121824173D01*
X138759829Y-121766116D01*
X139282343Y-122956287D02*
X139253314Y-123043373D01*
X139224286Y-123072401D01*
X139166229Y-123101430D01*
X139079143Y-123101430D01*
X139021086Y-123072401D01*
X138992057Y-123043373D01*
X138963029Y-122985315D01*
X138963029Y-122753087D01*
X139572629Y-122753087D01*
X139572629Y-122956287D01*
X139543600Y-123014344D01*
X139514571Y-123043373D01*
X139456514Y-123072401D01*
X139398457Y-123072401D01*
X139340400Y-123043373D01*
X139311371Y-123014344D01*
X139282343Y-122956287D01*
X139282343Y-122753087D01*
X138963029Y-123623944D02*
X139282343Y-123623944D01*
X139340400Y-123594915D01*
X139369429Y-123536858D01*
X139369429Y-123420744D01*
X139340400Y-123362687D01*
X138992057Y-123623944D02*
X138963029Y-123565887D01*
X138963029Y-123420744D01*
X138992057Y-123362687D01*
X139050114Y-123333658D01*
X139108171Y-123333658D01*
X139166229Y-123362687D01*
X139195257Y-123420744D01*
X139195257Y-123565887D01*
X139224286Y-123623944D01*
X138963029Y-124001316D02*
X138992057Y-123943258D01*
X139050114Y-123914230D01*
X139572629Y-123914230D01*
X138992057Y-124465772D02*
X138963029Y-124407715D01*
X138963029Y-124291601D01*
X138992057Y-124233544D01*
X139050114Y-124204515D01*
X139282343Y-124204515D01*
X139340400Y-124233544D01*
X139369429Y-124291601D01*
X139369429Y-124407715D01*
X139340400Y-124465772D01*
X139282343Y-124494801D01*
X139224286Y-124494801D01*
X139166229Y-124204515D01*
X138992057Y-125191486D02*
X138963029Y-125278572D01*
X138963029Y-125423715D01*
X138992057Y-125481772D01*
X139021086Y-125510801D01*
X139079143Y-125539829D01*
X139137200Y-125539829D01*
X139195257Y-125510801D01*
X139224286Y-125481772D01*
X139253314Y-125423715D01*
X139282343Y-125307601D01*
X139311371Y-125249543D01*
X139340400Y-125220515D01*
X139398457Y-125191486D01*
X139456514Y-125191486D01*
X139514571Y-125220515D01*
X139543600Y-125249543D01*
X139572629Y-125307601D01*
X139572629Y-125452743D01*
X139543600Y-125539829D01*
X138992057Y-126033314D02*
X138963029Y-125975257D01*
X138963029Y-125859143D01*
X138992057Y-125801086D01*
X139050114Y-125772057D01*
X139282343Y-125772057D01*
X139340400Y-125801086D01*
X139369429Y-125859143D01*
X139369429Y-125975257D01*
X139340400Y-126033314D01*
X139282343Y-126062343D01*
X139224286Y-126062343D01*
X139166229Y-125772057D01*
X139369429Y-126323600D02*
X138963029Y-126323600D01*
X139311371Y-126323600D02*
X139340400Y-126352628D01*
X139369429Y-126410686D01*
X139369429Y-126497771D01*
X139340400Y-126555828D01*
X139282343Y-126584857D01*
X138963029Y-126584857D01*
X138992057Y-126846114D02*
X138963029Y-126904171D01*
X138963029Y-127020286D01*
X138992057Y-127078343D01*
X139050114Y-127107371D01*
X139079143Y-127107371D01*
X139137200Y-127078343D01*
X139166229Y-127020286D01*
X139166229Y-126933200D01*
X139195257Y-126875143D01*
X139253314Y-126846114D01*
X139282343Y-126846114D01*
X139340400Y-126875143D01*
X139369429Y-126933200D01*
X139369429Y-127020286D01*
X139340400Y-127078343D01*
X138963029Y-127455715D02*
X138992057Y-127397657D01*
X139021086Y-127368629D01*
X139079143Y-127339600D01*
X139253314Y-127339600D01*
X139311371Y-127368629D01*
X139340400Y-127397657D01*
X139369429Y-127455715D01*
X139369429Y-127542800D01*
X139340400Y-127600857D01*
X139311371Y-127629886D01*
X139253314Y-127658915D01*
X139079143Y-127658915D01*
X139021086Y-127629886D01*
X138992057Y-127600857D01*
X138963029Y-127542800D01*
X138963029Y-127455715D01*
X138963029Y-127920172D02*
X139369429Y-127920172D01*
X139253314Y-127920172D02*
X139311371Y-127949200D01*
X139340400Y-127978229D01*
X139369429Y-128036286D01*
X139369429Y-128094343D01*
X139572629Y-128674914D02*
X138963029Y-128878114D01*
X139572629Y-129081314D01*
X139369429Y-129545771D02*
X138963029Y-129545771D01*
X139601657Y-129400628D02*
X139166229Y-129255485D01*
X139166229Y-129632857D01*
D11*
X140100200Y-118044600D02*
X140100200Y-130744600D01*
X140125600Y-131100200D02*
X127425600Y-131100200D01*
X140100200Y-118095400D02*
X127400200Y-118095400D01*
X127425600Y-118120800D02*
X127425600Y-130820800D01*
X174669600Y-118120800D02*
X174669600Y-130820800D01*
X187344200Y-118095400D02*
X174644200Y-118095400D01*
X187369600Y-131100200D02*
X174669600Y-131100200D01*
X187344200Y-118044600D02*
X187344200Y-130744600D01*
D12*
X186207029Y-120634001D02*
X186816629Y-120634001D01*
X186526343Y-120634001D02*
X186526343Y-120982344D01*
X186207029Y-120982344D02*
X186816629Y-120982344D01*
X186207029Y-121533887D02*
X186526343Y-121533887D01*
X186584400Y-121504858D01*
X186613429Y-121446801D01*
X186613429Y-121330687D01*
X186584400Y-121272630D01*
X186236057Y-121533887D02*
X186207029Y-121475830D01*
X186207029Y-121330687D01*
X186236057Y-121272630D01*
X186294114Y-121243601D01*
X186352171Y-121243601D01*
X186410229Y-121272630D01*
X186439257Y-121330687D01*
X186439257Y-121475830D01*
X186468286Y-121533887D01*
X186613429Y-121766116D02*
X186207029Y-121911259D01*
X186613429Y-122056401D02*
X186207029Y-121911259D01*
X186061886Y-121853201D01*
X186032857Y-121824173D01*
X186003829Y-121766116D01*
X186526343Y-122956287D02*
X186497314Y-123043373D01*
X186468286Y-123072401D01*
X186410229Y-123101430D01*
X186323143Y-123101430D01*
X186265086Y-123072401D01*
X186236057Y-123043373D01*
X186207029Y-122985315D01*
X186207029Y-122753087D01*
X186816629Y-122753087D01*
X186816629Y-122956287D01*
X186787600Y-123014344D01*
X186758571Y-123043373D01*
X186700514Y-123072401D01*
X186642457Y-123072401D01*
X186584400Y-123043373D01*
X186555371Y-123014344D01*
X186526343Y-122956287D01*
X186526343Y-122753087D01*
X186207029Y-123623944D02*
X186526343Y-123623944D01*
X186584400Y-123594915D01*
X186613429Y-123536858D01*
X186613429Y-123420744D01*
X186584400Y-123362687D01*
X186236057Y-123623944D02*
X186207029Y-123565887D01*
X186207029Y-123420744D01*
X186236057Y-123362687D01*
X186294114Y-123333658D01*
X186352171Y-123333658D01*
X186410229Y-123362687D01*
X186439257Y-123420744D01*
X186439257Y-123565887D01*
X186468286Y-123623944D01*
X186207029Y-124001316D02*
X186236057Y-123943258D01*
X186294114Y-123914230D01*
X186816629Y-123914230D01*
X186236057Y-124465772D02*
X186207029Y-124407715D01*
X186207029Y-124291601D01*
X186236057Y-124233544D01*
X186294114Y-124204515D01*
X186526343Y-124204515D01*
X186584400Y-124233544D01*
X186613429Y-124291601D01*
X186613429Y-124407715D01*
X186584400Y-124465772D01*
X186526343Y-124494801D01*
X186468286Y-124494801D01*
X186410229Y-124204515D01*
X186236057Y-125191486D02*
X186207029Y-125278572D01*
X186207029Y-125423715D01*
X186236057Y-125481772D01*
X186265086Y-125510801D01*
X186323143Y-125539829D01*
X186381200Y-125539829D01*
X186439257Y-125510801D01*
X186468286Y-125481772D01*
X186497314Y-125423715D01*
X186526343Y-125307601D01*
X186555371Y-125249543D01*
X186584400Y-125220515D01*
X186642457Y-125191486D01*
X186700514Y-125191486D01*
X186758571Y-125220515D01*
X186787600Y-125249543D01*
X186816629Y-125307601D01*
X186816629Y-125452743D01*
X186787600Y-125539829D01*
X186236057Y-126033314D02*
X186207029Y-125975257D01*
X186207029Y-125859143D01*
X186236057Y-125801086D01*
X186294114Y-125772057D01*
X186526343Y-125772057D01*
X186584400Y-125801086D01*
X186613429Y-125859143D01*
X186613429Y-125975257D01*
X186584400Y-126033314D01*
X186526343Y-126062343D01*
X186468286Y-126062343D01*
X186410229Y-125772057D01*
X186613429Y-126323600D02*
X186207029Y-126323600D01*
X186555371Y-126323600D02*
X186584400Y-126352628D01*
X186613429Y-126410686D01*
X186613429Y-126497771D01*
X186584400Y-126555828D01*
X186526343Y-126584857D01*
X186207029Y-126584857D01*
X186236057Y-126846114D02*
X186207029Y-126904171D01*
X186207029Y-127020286D01*
X186236057Y-127078343D01*
X186294114Y-127107371D01*
X186323143Y-127107371D01*
X186381200Y-127078343D01*
X186410229Y-127020286D01*
X186410229Y-126933200D01*
X186439257Y-126875143D01*
X186497314Y-126846114D01*
X186526343Y-126846114D01*
X186584400Y-126875143D01*
X186613429Y-126933200D01*
X186613429Y-127020286D01*
X186584400Y-127078343D01*
X186207029Y-127455715D02*
X186236057Y-127397657D01*
X186265086Y-127368629D01*
X186323143Y-127339600D01*
X186497314Y-127339600D01*
X186555371Y-127368629D01*
X186584400Y-127397657D01*
X186613429Y-127455715D01*
X186613429Y-127542800D01*
X186584400Y-127600857D01*
X186555371Y-127629886D01*
X186497314Y-127658915D01*
X186323143Y-127658915D01*
X186265086Y-127629886D01*
X186236057Y-127600857D01*
X186207029Y-127542800D01*
X186207029Y-127455715D01*
X186207029Y-127920172D02*
X186613429Y-127920172D01*
X186497314Y-127920172D02*
X186555371Y-127949200D01*
X186584400Y-127978229D01*
X186613429Y-128036286D01*
X186613429Y-128094343D01*
X186816629Y-128674914D02*
X186207029Y-128878114D01*
X186816629Y-129081314D01*
X186613429Y-129545771D02*
X186207029Y-129545771D01*
X186845657Y-129400628D02*
X186410229Y-129255485D01*
X186410229Y-129632857D01*
D13*
X174692400Y-130350400D02*
X174692400Y-131112400D01*
X174616200Y-130756800D02*
X174616200Y-131112400D01*
X174616200Y-131112400D02*
X174768600Y-131112400D01*
X174768600Y-131112400D02*
X174717800Y-131112400D01*
X174717800Y-131112400D02*
X174717800Y-130756800D01*
X187290800Y-130706000D02*
X187290800Y-131163200D01*
X187290800Y-131163200D02*
X187417800Y-131163200D01*
X187417800Y-131163200D02*
X187367000Y-131163200D01*
X187367000Y-131163200D02*
X187392400Y-131163200D01*
X187392400Y-131163200D02*
X187392400Y-130655200D01*
D14*
X177672629Y-19847000D02*
X177529772Y-19775571D01*
X177315486Y-19775571D01*
X177101201Y-19847000D01*
X176958343Y-19989857D01*
X176886915Y-20132714D01*
X176815486Y-20418429D01*
X176815486Y-20632714D01*
X176886915Y-20918429D01*
X176958343Y-21061286D01*
X177101201Y-21204143D01*
X177315486Y-21275571D01*
X177458343Y-21275571D01*
X177672629Y-21204143D01*
X177744058Y-21132714D01*
X177744058Y-20632714D01*
X177458343Y-20632714D01*
X179529772Y-20704143D02*
X180672629Y-20704143D01*
X180101200Y-21275571D02*
X180101200Y-20132714D01*
X182529772Y-20704143D02*
X183672629Y-20704143D01*
X183101200Y-21275571D02*
X183101200Y-20132714D01*
X186315486Y-19847000D02*
X186172629Y-19775571D01*
X185958343Y-19775571D01*
X185744058Y-19847000D01*
X185601200Y-19989857D01*
X185529772Y-20132714D01*
X185458343Y-20418429D01*
X185458343Y-20632714D01*
X185529772Y-20918429D01*
X185601200Y-21061286D01*
X185744058Y-21204143D01*
X185958343Y-21275571D01*
X186101200Y-21275571D01*
X186315486Y-21204143D01*
X186386915Y-21132714D01*
X186386915Y-20632714D01*
X186101200Y-20632714D01*
D13*
X170577600Y-15237600D02*
X192523200Y-15237600D01*
X192523200Y-15237600D02*
X192523200Y-132230000D01*
X192523200Y-132230000D02*
X170577600Y-132230000D01*
X170577600Y-132230000D02*
X170577600Y-15237600D01*
X170577600Y-15237600D02*
X170653800Y-15237600D01*
X170577600Y-133982600D02*
X170653800Y-133982600D01*
X170577600Y-250975000D02*
X170577600Y-133982600D01*
X192523200Y-250975000D02*
X170577600Y-250975000D01*
X192523200Y-133982600D02*
X192523200Y-250975000D01*
X170577600Y-133982600D02*
X192523200Y-133982600D01*
D14*
X177672629Y-138592000D02*
X177529772Y-138520571D01*
X177315486Y-138520571D01*
X177101201Y-138592000D01*
X176958343Y-138734857D01*
X176886915Y-138877714D01*
X176815486Y-139163429D01*
X176815486Y-139377714D01*
X176886915Y-139663429D01*
X176958343Y-139806286D01*
X177101201Y-139949143D01*
X177315486Y-140020571D01*
X177458343Y-140020571D01*
X177672629Y-139949143D01*
X177744058Y-139877714D01*
X177744058Y-139377714D01*
X177458343Y-139377714D01*
X179529772Y-139449143D02*
X180672629Y-139449143D01*
X180101200Y-140020571D02*
X180101200Y-138877714D01*
X182529772Y-139449143D02*
X183672629Y-139449143D01*
X183101200Y-140020571D02*
X183101200Y-138877714D01*
X186315486Y-138592000D02*
X186172629Y-138520571D01*
X185958343Y-138520571D01*
X185744058Y-138592000D01*
X185601200Y-138734857D01*
X185529772Y-138877714D01*
X185458343Y-139163429D01*
X185458343Y-139377714D01*
X185529772Y-139663429D01*
X185601200Y-139806286D01*
X185744058Y-139949143D01*
X185958343Y-140020571D01*
X186101200Y-140020571D01*
X186315486Y-139949143D01*
X186386915Y-139877714D01*
X186386915Y-139377714D01*
X186101200Y-139377714D01*
D13*
X187392400Y-249908200D02*
X187392400Y-249400200D01*
X187367000Y-249908200D02*
X187392400Y-249908200D01*
X187417800Y-249908200D02*
X187367000Y-249908200D01*
X187290800Y-249908200D02*
X187417800Y-249908200D01*
X187290800Y-249451000D02*
X187290800Y-249908200D01*
X174717800Y-249857400D02*
X174717800Y-249501800D01*
X174768600Y-249857400D02*
X174717800Y-249857400D01*
X174616200Y-249857400D02*
X174768600Y-249857400D01*
X174616200Y-249501800D02*
X174616200Y-249857400D01*
X174692400Y-249095400D02*
X174692400Y-249857400D01*
D12*
X186207029Y-239379001D02*
X186816629Y-239379001D01*
X186526343Y-239379001D02*
X186526343Y-239727344D01*
X186207029Y-239727344D02*
X186816629Y-239727344D01*
X186207029Y-240278887D02*
X186526343Y-240278887D01*
X186584400Y-240249858D01*
X186613429Y-240191801D01*
X186613429Y-240075687D01*
X186584400Y-240017630D01*
X186236057Y-240278887D02*
X186207029Y-240220830D01*
X186207029Y-240075687D01*
X186236057Y-240017630D01*
X186294114Y-239988601D01*
X186352171Y-239988601D01*
X186410229Y-240017630D01*
X186439257Y-240075687D01*
X186439257Y-240220830D01*
X186468286Y-240278887D01*
X186613429Y-240511116D02*
X186207029Y-240656259D01*
X186613429Y-240801401D02*
X186207029Y-240656259D01*
X186061886Y-240598201D01*
X186032857Y-240569173D01*
X186003829Y-240511116D01*
X186526343Y-241701287D02*
X186497314Y-241788373D01*
X186468286Y-241817401D01*
X186410229Y-241846430D01*
X186323143Y-241846430D01*
X186265086Y-241817401D01*
X186236057Y-241788373D01*
X186207029Y-241730315D01*
X186207029Y-241498087D01*
X186816629Y-241498087D01*
X186816629Y-241701287D01*
X186787600Y-241759344D01*
X186758571Y-241788373D01*
X186700514Y-241817401D01*
X186642457Y-241817401D01*
X186584400Y-241788373D01*
X186555371Y-241759344D01*
X186526343Y-241701287D01*
X186526343Y-241498087D01*
X186207029Y-242368944D02*
X186526343Y-242368944D01*
X186584400Y-242339915D01*
X186613429Y-242281858D01*
X186613429Y-242165744D01*
X186584400Y-242107687D01*
X186236057Y-242368944D02*
X186207029Y-242310887D01*
X186207029Y-242165744D01*
X186236057Y-242107687D01*
X186294114Y-242078658D01*
X186352171Y-242078658D01*
X186410229Y-242107687D01*
X186439257Y-242165744D01*
X186439257Y-242310887D01*
X186468286Y-242368944D01*
X186207029Y-242746316D02*
X186236057Y-242688258D01*
X186294114Y-242659230D01*
X186816629Y-242659230D01*
X186236057Y-243210772D02*
X186207029Y-243152715D01*
X186207029Y-243036601D01*
X186236057Y-242978544D01*
X186294114Y-242949515D01*
X186526343Y-242949515D01*
X186584400Y-242978544D01*
X186613429Y-243036601D01*
X186613429Y-243152715D01*
X186584400Y-243210772D01*
X186526343Y-243239801D01*
X186468286Y-243239801D01*
X186410229Y-242949515D01*
X186236057Y-243936486D02*
X186207029Y-244023572D01*
X186207029Y-244168715D01*
X186236057Y-244226772D01*
X186265086Y-244255801D01*
X186323143Y-244284829D01*
X186381200Y-244284829D01*
X186439257Y-244255801D01*
X186468286Y-244226772D01*
X186497314Y-244168715D01*
X186526343Y-244052601D01*
X186555371Y-243994543D01*
X186584400Y-243965515D01*
X186642457Y-243936486D01*
X186700514Y-243936486D01*
X186758571Y-243965515D01*
X186787600Y-243994543D01*
X186816629Y-244052601D01*
X186816629Y-244197743D01*
X186787600Y-244284829D01*
X186236057Y-244778314D02*
X186207029Y-244720257D01*
X186207029Y-244604143D01*
X186236057Y-244546086D01*
X186294114Y-244517057D01*
X186526343Y-244517057D01*
X186584400Y-244546086D01*
X186613429Y-244604143D01*
X186613429Y-244720257D01*
X186584400Y-244778314D01*
X186526343Y-244807343D01*
X186468286Y-244807343D01*
X186410229Y-244517057D01*
X186613429Y-245068600D02*
X186207029Y-245068600D01*
X186555371Y-245068600D02*
X186584400Y-245097628D01*
X186613429Y-245155686D01*
X186613429Y-245242771D01*
X186584400Y-245300828D01*
X186526343Y-245329857D01*
X186207029Y-245329857D01*
X186236057Y-245591114D02*
X186207029Y-245649171D01*
X186207029Y-245765286D01*
X186236057Y-245823343D01*
X186294114Y-245852371D01*
X186323143Y-245852371D01*
X186381200Y-245823343D01*
X186410229Y-245765286D01*
X186410229Y-245678200D01*
X186439257Y-245620143D01*
X186497314Y-245591114D01*
X186526343Y-245591114D01*
X186584400Y-245620143D01*
X186613429Y-245678200D01*
X186613429Y-245765286D01*
X186584400Y-245823343D01*
X186207029Y-246200715D02*
X186236057Y-246142657D01*
X186265086Y-246113629D01*
X186323143Y-246084600D01*
X186497314Y-246084600D01*
X186555371Y-246113629D01*
X186584400Y-246142657D01*
X186613429Y-246200715D01*
X186613429Y-246287800D01*
X186584400Y-246345857D01*
X186555371Y-246374886D01*
X186497314Y-246403915D01*
X186323143Y-246403915D01*
X186265086Y-246374886D01*
X186236057Y-246345857D01*
X186207029Y-246287800D01*
X186207029Y-246200715D01*
X186207029Y-246665172D02*
X186613429Y-246665172D01*
X186497314Y-246665172D02*
X186555371Y-246694200D01*
X186584400Y-246723229D01*
X186613429Y-246781286D01*
X186613429Y-246839343D01*
X186816629Y-247419914D02*
X186207029Y-247623114D01*
X186816629Y-247826314D01*
X186613429Y-248290771D02*
X186207029Y-248290771D01*
X186845657Y-248145628D02*
X186410229Y-248000485D01*
X186410229Y-248377857D01*
D11*
X187344200Y-236789600D02*
X187344200Y-249489600D01*
X187369600Y-249845200D02*
X174669600Y-249845200D01*
X187344200Y-236840400D02*
X174644200Y-236840400D01*
X174669600Y-236865800D02*
X174669600Y-249565800D01*
X151047600Y-236865800D02*
X151047600Y-249565800D01*
X163722200Y-236840400D02*
X151022200Y-236840400D01*
X163747600Y-249845200D02*
X151047600Y-249845200D01*
X163722200Y-236789600D02*
X163722200Y-249489600D01*
D12*
X162585029Y-239379001D02*
X163194629Y-239379001D01*
X162904343Y-239379001D02*
X162904343Y-239727344D01*
X162585029Y-239727344D02*
X163194629Y-239727344D01*
X162585029Y-240278887D02*
X162904343Y-240278887D01*
X162962400Y-240249858D01*
X162991429Y-240191801D01*
X162991429Y-240075687D01*
X162962400Y-240017630D01*
X162614057Y-240278887D02*
X162585029Y-240220830D01*
X162585029Y-240075687D01*
X162614057Y-240017630D01*
X162672114Y-239988601D01*
X162730171Y-239988601D01*
X162788229Y-240017630D01*
X162817257Y-240075687D01*
X162817257Y-240220830D01*
X162846286Y-240278887D01*
X162991429Y-240511116D02*
X162585029Y-240656259D01*
X162991429Y-240801401D02*
X162585029Y-240656259D01*
X162439886Y-240598201D01*
X162410857Y-240569173D01*
X162381829Y-240511116D01*
X162904343Y-241701287D02*
X162875314Y-241788373D01*
X162846286Y-241817401D01*
X162788229Y-241846430D01*
X162701143Y-241846430D01*
X162643086Y-241817401D01*
X162614057Y-241788373D01*
X162585029Y-241730315D01*
X162585029Y-241498087D01*
X163194629Y-241498087D01*
X163194629Y-241701287D01*
X163165600Y-241759344D01*
X163136571Y-241788373D01*
X163078514Y-241817401D01*
X163020457Y-241817401D01*
X162962400Y-241788373D01*
X162933371Y-241759344D01*
X162904343Y-241701287D01*
X162904343Y-241498087D01*
X162585029Y-242368944D02*
X162904343Y-242368944D01*
X162962400Y-242339915D01*
X162991429Y-242281858D01*
X162991429Y-242165744D01*
X162962400Y-242107687D01*
X162614057Y-242368944D02*
X162585029Y-242310887D01*
X162585029Y-242165744D01*
X162614057Y-242107687D01*
X162672114Y-242078658D01*
X162730171Y-242078658D01*
X162788229Y-242107687D01*
X162817257Y-242165744D01*
X162817257Y-242310887D01*
X162846286Y-242368944D01*
X162585029Y-242746316D02*
X162614057Y-242688258D01*
X162672114Y-242659230D01*
X163194629Y-242659230D01*
X162614057Y-243210772D02*
X162585029Y-243152715D01*
X162585029Y-243036601D01*
X162614057Y-242978544D01*
X162672114Y-242949515D01*
X162904343Y-242949515D01*
X162962400Y-242978544D01*
X162991429Y-243036601D01*
X162991429Y-243152715D01*
X162962400Y-243210772D01*
X162904343Y-243239801D01*
X162846286Y-243239801D01*
X162788229Y-242949515D01*
X162614057Y-243936486D02*
X162585029Y-244023572D01*
X162585029Y-244168715D01*
X162614057Y-244226772D01*
X162643086Y-244255801D01*
X162701143Y-244284829D01*
X162759200Y-244284829D01*
X162817257Y-244255801D01*
X162846286Y-244226772D01*
X162875314Y-244168715D01*
X162904343Y-244052601D01*
X162933371Y-243994543D01*
X162962400Y-243965515D01*
X163020457Y-243936486D01*
X163078514Y-243936486D01*
X163136571Y-243965515D01*
X163165600Y-243994543D01*
X163194629Y-244052601D01*
X163194629Y-244197743D01*
X163165600Y-244284829D01*
X162614057Y-244778314D02*
X162585029Y-244720257D01*
X162585029Y-244604143D01*
X162614057Y-244546086D01*
X162672114Y-244517057D01*
X162904343Y-244517057D01*
X162962400Y-244546086D01*
X162991429Y-244604143D01*
X162991429Y-244720257D01*
X162962400Y-244778314D01*
X162904343Y-244807343D01*
X162846286Y-244807343D01*
X162788229Y-244517057D01*
X162991429Y-245068600D02*
X162585029Y-245068600D01*
X162933371Y-245068600D02*
X162962400Y-245097628D01*
X162991429Y-245155686D01*
X162991429Y-245242771D01*
X162962400Y-245300828D01*
X162904343Y-245329857D01*
X162585029Y-245329857D01*
X162614057Y-245591114D02*
X162585029Y-245649171D01*
X162585029Y-245765286D01*
X162614057Y-245823343D01*
X162672114Y-245852371D01*
X162701143Y-245852371D01*
X162759200Y-245823343D01*
X162788229Y-245765286D01*
X162788229Y-245678200D01*
X162817257Y-245620143D01*
X162875314Y-245591114D01*
X162904343Y-245591114D01*
X162962400Y-245620143D01*
X162991429Y-245678200D01*
X162991429Y-245765286D01*
X162962400Y-245823343D01*
X162585029Y-246200715D02*
X162614057Y-246142657D01*
X162643086Y-246113629D01*
X162701143Y-246084600D01*
X162875314Y-246084600D01*
X162933371Y-246113629D01*
X162962400Y-246142657D01*
X162991429Y-246200715D01*
X162991429Y-246287800D01*
X162962400Y-246345857D01*
X162933371Y-246374886D01*
X162875314Y-246403915D01*
X162701143Y-246403915D01*
X162643086Y-246374886D01*
X162614057Y-246345857D01*
X162585029Y-246287800D01*
X162585029Y-246200715D01*
X162585029Y-246665172D02*
X162991429Y-246665172D01*
X162875314Y-246665172D02*
X162933371Y-246694200D01*
X162962400Y-246723229D01*
X162991429Y-246781286D01*
X162991429Y-246839343D01*
X163194629Y-247419914D02*
X162585029Y-247623114D01*
X163194629Y-247826314D01*
X162991429Y-248290771D02*
X162585029Y-248290771D01*
X163223657Y-248145628D02*
X162788229Y-248000485D01*
X162788229Y-248377857D01*
D13*
X151070400Y-249095400D02*
X151070400Y-249857400D01*
X150994200Y-249501800D02*
X150994200Y-249857400D01*
X150994200Y-249857400D02*
X151146600Y-249857400D01*
X151146600Y-249857400D02*
X151095800Y-249857400D01*
X151095800Y-249857400D02*
X151095800Y-249501800D01*
X163668800Y-249451000D02*
X163668800Y-249908200D01*
X163668800Y-249908200D02*
X163795800Y-249908200D01*
X163795800Y-249908200D02*
X163745000Y-249908200D01*
X163745000Y-249908200D02*
X163770400Y-249908200D01*
X163770400Y-249908200D02*
X163770400Y-249400200D01*
D14*
X154050629Y-138592000D02*
X153907772Y-138520571D01*
X153693486Y-138520571D01*
X153479201Y-138592000D01*
X153336343Y-138734857D01*
X153264915Y-138877714D01*
X153193486Y-139163429D01*
X153193486Y-139377714D01*
X153264915Y-139663429D01*
X153336343Y-139806286D01*
X153479201Y-139949143D01*
X153693486Y-140020571D01*
X153836343Y-140020571D01*
X154050629Y-139949143D01*
X154122058Y-139877714D01*
X154122058Y-139377714D01*
X153836343Y-139377714D01*
X155907772Y-139449143D02*
X157050629Y-139449143D01*
X156479200Y-140020571D02*
X156479200Y-138877714D01*
X158907772Y-139449143D02*
X160050629Y-139449143D01*
X159479200Y-140020571D02*
X159479200Y-138877714D01*
X162693486Y-138592000D02*
X162550629Y-138520571D01*
X162336343Y-138520571D01*
X162122058Y-138592000D01*
X161979200Y-138734857D01*
X161907772Y-138877714D01*
X161836343Y-139163429D01*
X161836343Y-139377714D01*
X161907772Y-139663429D01*
X161979200Y-139806286D01*
X162122058Y-139949143D01*
X162336343Y-140020571D01*
X162479200Y-140020571D01*
X162693486Y-139949143D01*
X162764915Y-139877714D01*
X162764915Y-139377714D01*
X162479200Y-139377714D01*
D13*
X146955600Y-133982600D02*
X168901200Y-133982600D01*
X168901200Y-133982600D02*
X168901200Y-250975000D01*
X168901200Y-250975000D02*
X146955600Y-250975000D01*
X146955600Y-250975000D02*
X146955600Y-133982600D01*
X146955600Y-133982600D02*
X147031800Y-133982600D01*
X146955600Y-15237600D02*
X147031800Y-15237600D01*
X146955600Y-132230000D02*
X146955600Y-15237600D01*
X168901200Y-132230000D02*
X146955600Y-132230000D01*
X168901200Y-15237600D02*
X168901200Y-132230000D01*
X146955600Y-15237600D02*
X168901200Y-15237600D01*
D14*
X154050629Y-19847000D02*
X153907772Y-19775571D01*
X153693486Y-19775571D01*
X153479201Y-19847000D01*
X153336343Y-19989857D01*
X153264915Y-20132714D01*
X153193486Y-20418429D01*
X153193486Y-20632714D01*
X153264915Y-20918429D01*
X153336343Y-21061286D01*
X153479201Y-21204143D01*
X153693486Y-21275571D01*
X153836343Y-21275571D01*
X154050629Y-21204143D01*
X154122058Y-21132714D01*
X154122058Y-20632714D01*
X153836343Y-20632714D01*
X155907772Y-20704143D02*
X157050629Y-20704143D01*
X156479200Y-21275571D02*
X156479200Y-20132714D01*
X158907772Y-20704143D02*
X160050629Y-20704143D01*
X159479200Y-21275571D02*
X159479200Y-20132714D01*
X162693486Y-19847000D02*
X162550629Y-19775571D01*
X162336343Y-19775571D01*
X162122058Y-19847000D01*
X161979200Y-19989857D01*
X161907772Y-20132714D01*
X161836343Y-20418429D01*
X161836343Y-20632714D01*
X161907772Y-20918429D01*
X161979200Y-21061286D01*
X162122058Y-21204143D01*
X162336343Y-21275571D01*
X162479200Y-21275571D01*
X162693486Y-21204143D01*
X162764915Y-21132714D01*
X162764915Y-20632714D01*
X162479200Y-20632714D01*
D13*
X163770400Y-131163200D02*
X163770400Y-130655200D01*
X163745000Y-131163200D02*
X163770400Y-131163200D01*
X163795800Y-131163200D02*
X163745000Y-131163200D01*
X163668800Y-131163200D02*
X163795800Y-131163200D01*
X163668800Y-130706000D02*
X163668800Y-131163200D01*
X151095800Y-131112400D02*
X151095800Y-130756800D01*
X151146600Y-131112400D02*
X151095800Y-131112400D01*
X150994200Y-131112400D02*
X151146600Y-131112400D01*
X150994200Y-130756800D02*
X150994200Y-131112400D01*
X151070400Y-130350400D02*
X151070400Y-131112400D01*
D12*
X162585029Y-120634001D02*
X163194629Y-120634001D01*
X162904343Y-120634001D02*
X162904343Y-120982344D01*
X162585029Y-120982344D02*
X163194629Y-120982344D01*
X162585029Y-121533887D02*
X162904343Y-121533887D01*
X162962400Y-121504858D01*
X162991429Y-121446801D01*
X162991429Y-121330687D01*
X162962400Y-121272630D01*
X162614057Y-121533887D02*
X162585029Y-121475830D01*
X162585029Y-121330687D01*
X162614057Y-121272630D01*
X162672114Y-121243601D01*
X162730171Y-121243601D01*
X162788229Y-121272630D01*
X162817257Y-121330687D01*
X162817257Y-121475830D01*
X162846286Y-121533887D01*
X162991429Y-121766116D02*
X162585029Y-121911259D01*
X162991429Y-122056401D02*
X162585029Y-121911259D01*
X162439886Y-121853201D01*
X162410857Y-121824173D01*
X162381829Y-121766116D01*
X162904343Y-122956287D02*
X162875314Y-123043373D01*
X162846286Y-123072401D01*
X162788229Y-123101430D01*
X162701143Y-123101430D01*
X162643086Y-123072401D01*
X162614057Y-123043373D01*
X162585029Y-122985315D01*
X162585029Y-122753087D01*
X163194629Y-122753087D01*
X163194629Y-122956287D01*
X163165600Y-123014344D01*
X163136571Y-123043373D01*
X163078514Y-123072401D01*
X163020457Y-123072401D01*
X162962400Y-123043373D01*
X162933371Y-123014344D01*
X162904343Y-122956287D01*
X162904343Y-122753087D01*
X162585029Y-123623944D02*
X162904343Y-123623944D01*
X162962400Y-123594915D01*
X162991429Y-123536858D01*
X162991429Y-123420744D01*
X162962400Y-123362687D01*
X162614057Y-123623944D02*
X162585029Y-123565887D01*
X162585029Y-123420744D01*
X162614057Y-123362687D01*
X162672114Y-123333658D01*
X162730171Y-123333658D01*
X162788229Y-123362687D01*
X162817257Y-123420744D01*
X162817257Y-123565887D01*
X162846286Y-123623944D01*
X162585029Y-124001316D02*
X162614057Y-123943258D01*
X162672114Y-123914230D01*
X163194629Y-123914230D01*
X162614057Y-124465772D02*
X162585029Y-124407715D01*
X162585029Y-124291601D01*
X162614057Y-124233544D01*
X162672114Y-124204515D01*
X162904343Y-124204515D01*
X162962400Y-124233544D01*
X162991429Y-124291601D01*
X162991429Y-124407715D01*
X162962400Y-124465772D01*
X162904343Y-124494801D01*
X162846286Y-124494801D01*
X162788229Y-124204515D01*
X162614057Y-125191486D02*
X162585029Y-125278572D01*
X162585029Y-125423715D01*
X162614057Y-125481772D01*
X162643086Y-125510801D01*
X162701143Y-125539829D01*
X162759200Y-125539829D01*
X162817257Y-125510801D01*
X162846286Y-125481772D01*
X162875314Y-125423715D01*
X162904343Y-125307601D01*
X162933371Y-125249543D01*
X162962400Y-125220515D01*
X163020457Y-125191486D01*
X163078514Y-125191486D01*
X163136571Y-125220515D01*
X163165600Y-125249543D01*
X163194629Y-125307601D01*
X163194629Y-125452743D01*
X163165600Y-125539829D01*
X162614057Y-126033314D02*
X162585029Y-125975257D01*
X162585029Y-125859143D01*
X162614057Y-125801086D01*
X162672114Y-125772057D01*
X162904343Y-125772057D01*
X162962400Y-125801086D01*
X162991429Y-125859143D01*
X162991429Y-125975257D01*
X162962400Y-126033314D01*
X162904343Y-126062343D01*
X162846286Y-126062343D01*
X162788229Y-125772057D01*
X162991429Y-126323600D02*
X162585029Y-126323600D01*
X162933371Y-126323600D02*
X162962400Y-126352628D01*
X162991429Y-126410686D01*
X162991429Y-126497771D01*
X162962400Y-126555828D01*
X162904343Y-126584857D01*
X162585029Y-126584857D01*
X162614057Y-126846114D02*
X162585029Y-126904171D01*
X162585029Y-127020286D01*
X162614057Y-127078343D01*
X162672114Y-127107371D01*
X162701143Y-127107371D01*
X162759200Y-127078343D01*
X162788229Y-127020286D01*
X162788229Y-126933200D01*
X162817257Y-126875143D01*
X162875314Y-126846114D01*
X162904343Y-126846114D01*
X162962400Y-126875143D01*
X162991429Y-126933200D01*
X162991429Y-127020286D01*
X162962400Y-127078343D01*
X162585029Y-127455715D02*
X162614057Y-127397657D01*
X162643086Y-127368629D01*
X162701143Y-127339600D01*
X162875314Y-127339600D01*
X162933371Y-127368629D01*
X162962400Y-127397657D01*
X162991429Y-127455715D01*
X162991429Y-127542800D01*
X162962400Y-127600857D01*
X162933371Y-127629886D01*
X162875314Y-127658915D01*
X162701143Y-127658915D01*
X162643086Y-127629886D01*
X162614057Y-127600857D01*
X162585029Y-127542800D01*
X162585029Y-127455715D01*
X162585029Y-127920172D02*
X162991429Y-127920172D01*
X162875314Y-127920172D02*
X162933371Y-127949200D01*
X162962400Y-127978229D01*
X162991429Y-128036286D01*
X162991429Y-128094343D01*
X163194629Y-128674914D02*
X162585029Y-128878114D01*
X163194629Y-129081314D01*
X162991429Y-129545771D02*
X162585029Y-129545771D01*
X163223657Y-129400628D02*
X162788229Y-129255485D01*
X162788229Y-129632857D01*
D11*
X163722200Y-118044600D02*
X163722200Y-130744600D01*
X163747600Y-131100200D02*
X151047600Y-131100200D01*
X163722200Y-118095400D02*
X151022200Y-118095400D01*
X151047600Y-118120800D02*
X151047600Y-130820800D01*
X80181600Y-118120800D02*
X80181600Y-130820800D01*
X92856200Y-118095400D02*
X80156200Y-118095400D01*
X92881600Y-131100200D02*
X80181600Y-131100200D01*
X92856200Y-118044600D02*
X92856200Y-130744600D01*
D12*
X91719029Y-120634001D02*
X92328629Y-120634001D01*
X92038343Y-120634001D02*
X92038343Y-120982344D01*
X91719029Y-120982344D02*
X92328629Y-120982344D01*
X91719029Y-121533887D02*
X92038343Y-121533887D01*
X92096400Y-121504858D01*
X92125429Y-121446801D01*
X92125429Y-121330687D01*
X92096400Y-121272630D01*
X91748057Y-121533887D02*
X91719029Y-121475830D01*
X91719029Y-121330687D01*
X91748057Y-121272630D01*
X91806114Y-121243601D01*
X91864171Y-121243601D01*
X91922229Y-121272630D01*
X91951257Y-121330687D01*
X91951257Y-121475830D01*
X91980286Y-121533887D01*
X92125429Y-121766116D02*
X91719029Y-121911259D01*
X92125429Y-122056401D02*
X91719029Y-121911259D01*
X91573886Y-121853201D01*
X91544857Y-121824173D01*
X91515829Y-121766116D01*
X92038343Y-122956287D02*
X92009314Y-123043373D01*
X91980286Y-123072401D01*
X91922229Y-123101430D01*
X91835143Y-123101430D01*
X91777086Y-123072401D01*
X91748057Y-123043373D01*
X91719029Y-122985315D01*
X91719029Y-122753087D01*
X92328629Y-122753087D01*
X92328629Y-122956287D01*
X92299600Y-123014344D01*
X92270571Y-123043373D01*
X92212514Y-123072401D01*
X92154457Y-123072401D01*
X92096400Y-123043373D01*
X92067371Y-123014344D01*
X92038343Y-122956287D01*
X92038343Y-122753087D01*
X91719029Y-123623944D02*
X92038343Y-123623944D01*
X92096400Y-123594915D01*
X92125429Y-123536858D01*
X92125429Y-123420744D01*
X92096400Y-123362687D01*
X91748057Y-123623944D02*
X91719029Y-123565887D01*
X91719029Y-123420744D01*
X91748057Y-123362687D01*
X91806114Y-123333658D01*
X91864171Y-123333658D01*
X91922229Y-123362687D01*
X91951257Y-123420744D01*
X91951257Y-123565887D01*
X91980286Y-123623944D01*
X91719029Y-124001316D02*
X91748057Y-123943258D01*
X91806114Y-123914230D01*
X92328629Y-123914230D01*
X91748057Y-124465772D02*
X91719029Y-124407715D01*
X91719029Y-124291601D01*
X91748057Y-124233544D01*
X91806114Y-124204515D01*
X92038343Y-124204515D01*
X92096400Y-124233544D01*
X92125429Y-124291601D01*
X92125429Y-124407715D01*
X92096400Y-124465772D01*
X92038343Y-124494801D01*
X91980286Y-124494801D01*
X91922229Y-124204515D01*
X91748057Y-125191486D02*
X91719029Y-125278572D01*
X91719029Y-125423715D01*
X91748057Y-125481772D01*
X91777086Y-125510801D01*
X91835143Y-125539829D01*
X91893200Y-125539829D01*
X91951257Y-125510801D01*
X91980286Y-125481772D01*
X92009314Y-125423715D01*
X92038343Y-125307601D01*
X92067371Y-125249543D01*
X92096400Y-125220515D01*
X92154457Y-125191486D01*
X92212514Y-125191486D01*
X92270571Y-125220515D01*
X92299600Y-125249543D01*
X92328629Y-125307601D01*
X92328629Y-125452743D01*
X92299600Y-125539829D01*
X91748057Y-126033314D02*
X91719029Y-125975257D01*
X91719029Y-125859143D01*
X91748057Y-125801086D01*
X91806114Y-125772057D01*
X92038343Y-125772057D01*
X92096400Y-125801086D01*
X92125429Y-125859143D01*
X92125429Y-125975257D01*
X92096400Y-126033314D01*
X92038343Y-126062343D01*
X91980286Y-126062343D01*
X91922229Y-125772057D01*
X92125429Y-126323600D02*
X91719029Y-126323600D01*
X92067371Y-126323600D02*
X92096400Y-126352628D01*
X92125429Y-126410686D01*
X92125429Y-126497771D01*
X92096400Y-126555828D01*
X92038343Y-126584857D01*
X91719029Y-126584857D01*
X91748057Y-126846114D02*
X91719029Y-126904171D01*
X91719029Y-127020286D01*
X91748057Y-127078343D01*
X91806114Y-127107371D01*
X91835143Y-127107371D01*
X91893200Y-127078343D01*
X91922229Y-127020286D01*
X91922229Y-126933200D01*
X91951257Y-126875143D01*
X92009314Y-126846114D01*
X92038343Y-126846114D01*
X92096400Y-126875143D01*
X92125429Y-126933200D01*
X92125429Y-127020286D01*
X92096400Y-127078343D01*
X91719029Y-127455715D02*
X91748057Y-127397657D01*
X91777086Y-127368629D01*
X91835143Y-127339600D01*
X92009314Y-127339600D01*
X92067371Y-127368629D01*
X92096400Y-127397657D01*
X92125429Y-127455715D01*
X92125429Y-127542800D01*
X92096400Y-127600857D01*
X92067371Y-127629886D01*
X92009314Y-127658915D01*
X91835143Y-127658915D01*
X91777086Y-127629886D01*
X91748057Y-127600857D01*
X91719029Y-127542800D01*
X91719029Y-127455715D01*
X91719029Y-127920172D02*
X92125429Y-127920172D01*
X92009314Y-127920172D02*
X92067371Y-127949200D01*
X92096400Y-127978229D01*
X92125429Y-128036286D01*
X92125429Y-128094343D01*
X92328629Y-128674914D02*
X91719029Y-128878114D01*
X92328629Y-129081314D01*
X92125429Y-129545771D02*
X91719029Y-129545771D01*
X92357657Y-129400628D02*
X91922229Y-129255485D01*
X91922229Y-129632857D01*
D13*
X80204400Y-130350400D02*
X80204400Y-131112400D01*
X80128200Y-130756800D02*
X80128200Y-131112400D01*
X80128200Y-131112400D02*
X80280600Y-131112400D01*
X80280600Y-131112400D02*
X80229800Y-131112400D01*
X80229800Y-131112400D02*
X80229800Y-130756800D01*
X92802800Y-130706000D02*
X92802800Y-131163200D01*
X92802800Y-131163200D02*
X92929800Y-131163200D01*
X92929800Y-131163200D02*
X92879000Y-131163200D01*
X92879000Y-131163200D02*
X92904400Y-131163200D01*
X92904400Y-131163200D02*
X92904400Y-130655200D01*
D14*
X83184629Y-19847000D02*
X83041772Y-19775571D01*
X82827486Y-19775571D01*
X82613201Y-19847000D01*
X82470343Y-19989857D01*
X82398915Y-20132714D01*
X82327486Y-20418429D01*
X82327486Y-20632714D01*
X82398915Y-20918429D01*
X82470343Y-21061286D01*
X82613201Y-21204143D01*
X82827486Y-21275571D01*
X82970343Y-21275571D01*
X83184629Y-21204143D01*
X83256058Y-21132714D01*
X83256058Y-20632714D01*
X82970343Y-20632714D01*
X85041772Y-20704143D02*
X86184629Y-20704143D01*
X85613200Y-21275571D02*
X85613200Y-20132714D01*
X88041772Y-20704143D02*
X89184629Y-20704143D01*
X88613200Y-21275571D02*
X88613200Y-20132714D01*
X91827486Y-19847000D02*
X91684629Y-19775571D01*
X91470343Y-19775571D01*
X91256058Y-19847000D01*
X91113200Y-19989857D01*
X91041772Y-20132714D01*
X90970343Y-20418429D01*
X90970343Y-20632714D01*
X91041772Y-20918429D01*
X91113200Y-21061286D01*
X91256058Y-21204143D01*
X91470343Y-21275571D01*
X91613200Y-21275571D01*
X91827486Y-21204143D01*
X91898915Y-21132714D01*
X91898915Y-20632714D01*
X91613200Y-20632714D01*
D13*
X76089600Y-15237600D02*
X98035200Y-15237600D01*
X98035200Y-15237600D02*
X98035200Y-132230000D01*
X98035200Y-132230000D02*
X76089600Y-132230000D01*
X76089600Y-132230000D02*
X76089600Y-15237600D01*
X76089600Y-15237600D02*
X76165800Y-15237600D01*
X76089600Y-133982600D02*
X76165800Y-133982600D01*
X76089600Y-250975000D02*
X76089600Y-133982600D01*
X98035200Y-250975000D02*
X76089600Y-250975000D01*
X98035200Y-133982600D02*
X98035200Y-250975000D01*
X76089600Y-133982600D02*
X98035200Y-133982600D01*
D14*
X83184629Y-138592000D02*
X83041772Y-138520571D01*
X82827486Y-138520571D01*
X82613201Y-138592000D01*
X82470343Y-138734857D01*
X82398915Y-138877714D01*
X82327486Y-139163429D01*
X82327486Y-139377714D01*
X82398915Y-139663429D01*
X82470343Y-139806286D01*
X82613201Y-139949143D01*
X82827486Y-140020571D01*
X82970343Y-140020571D01*
X83184629Y-139949143D01*
X83256058Y-139877714D01*
X83256058Y-139377714D01*
X82970343Y-139377714D01*
X85041772Y-139449143D02*
X86184629Y-139449143D01*
X85613200Y-140020571D02*
X85613200Y-138877714D01*
X88041772Y-139449143D02*
X89184629Y-139449143D01*
X88613200Y-140020571D02*
X88613200Y-138877714D01*
X91827486Y-138592000D02*
X91684629Y-138520571D01*
X91470343Y-138520571D01*
X91256058Y-138592000D01*
X91113200Y-138734857D01*
X91041772Y-138877714D01*
X90970343Y-139163429D01*
X90970343Y-139377714D01*
X91041772Y-139663429D01*
X91113200Y-139806286D01*
X91256058Y-139949143D01*
X91470343Y-140020571D01*
X91613200Y-140020571D01*
X91827486Y-139949143D01*
X91898915Y-139877714D01*
X91898915Y-139377714D01*
X91613200Y-139377714D01*
D13*
X92904400Y-249908200D02*
X92904400Y-249400200D01*
X92879000Y-249908200D02*
X92904400Y-249908200D01*
X92929800Y-249908200D02*
X92879000Y-249908200D01*
X92802800Y-249908200D02*
X92929800Y-249908200D01*
X92802800Y-249451000D02*
X92802800Y-249908200D01*
X80229800Y-249857400D02*
X80229800Y-249501800D01*
X80280600Y-249857400D02*
X80229800Y-249857400D01*
X80128200Y-249857400D02*
X80280600Y-249857400D01*
X80128200Y-249501800D02*
X80128200Y-249857400D01*
X80204400Y-249095400D02*
X80204400Y-249857400D01*
D12*
X91719029Y-239379001D02*
X92328629Y-239379001D01*
X92038343Y-239379001D02*
X92038343Y-239727344D01*
X91719029Y-239727344D02*
X92328629Y-239727344D01*
X91719029Y-240278887D02*
X92038343Y-240278887D01*
X92096400Y-240249858D01*
X92125429Y-240191801D01*
X92125429Y-240075687D01*
X92096400Y-240017630D01*
X91748057Y-240278887D02*
X91719029Y-240220830D01*
X91719029Y-240075687D01*
X91748057Y-240017630D01*
X91806114Y-239988601D01*
X91864171Y-239988601D01*
X91922229Y-240017630D01*
X91951257Y-240075687D01*
X91951257Y-240220830D01*
X91980286Y-240278887D01*
X92125429Y-240511116D02*
X91719029Y-240656259D01*
X92125429Y-240801401D02*
X91719029Y-240656259D01*
X91573886Y-240598201D01*
X91544857Y-240569173D01*
X91515829Y-240511116D01*
X92038343Y-241701287D02*
X92009314Y-241788373D01*
X91980286Y-241817401D01*
X91922229Y-241846430D01*
X91835143Y-241846430D01*
X91777086Y-241817401D01*
X91748057Y-241788373D01*
X91719029Y-241730315D01*
X91719029Y-241498087D01*
X92328629Y-241498087D01*
X92328629Y-241701287D01*
X92299600Y-241759344D01*
X92270571Y-241788373D01*
X92212514Y-241817401D01*
X92154457Y-241817401D01*
X92096400Y-241788373D01*
X92067371Y-241759344D01*
X92038343Y-241701287D01*
X92038343Y-241498087D01*
X91719029Y-242368944D02*
X92038343Y-242368944D01*
X92096400Y-242339915D01*
X92125429Y-242281858D01*
X92125429Y-242165744D01*
X92096400Y-242107687D01*
X91748057Y-242368944D02*
X91719029Y-242310887D01*
X91719029Y-242165744D01*
X91748057Y-242107687D01*
X91806114Y-242078658D01*
X91864171Y-242078658D01*
X91922229Y-242107687D01*
X91951257Y-242165744D01*
X91951257Y-242310887D01*
X91980286Y-242368944D01*
X91719029Y-242746316D02*
X91748057Y-242688258D01*
X91806114Y-242659230D01*
X92328629Y-242659230D01*
X91748057Y-243210772D02*
X91719029Y-243152715D01*
X91719029Y-243036601D01*
X91748057Y-242978544D01*
X91806114Y-242949515D01*
X92038343Y-242949515D01*
X92096400Y-242978544D01*
X92125429Y-243036601D01*
X92125429Y-243152715D01*
X92096400Y-243210772D01*
X92038343Y-243239801D01*
X91980286Y-243239801D01*
X91922229Y-242949515D01*
X91748057Y-243936486D02*
X91719029Y-244023572D01*
X91719029Y-244168715D01*
X91748057Y-244226772D01*
X91777086Y-244255801D01*
X91835143Y-244284829D01*
X91893200Y-244284829D01*
X91951257Y-244255801D01*
X91980286Y-244226772D01*
X92009314Y-244168715D01*
X92038343Y-244052601D01*
X92067371Y-243994543D01*
X92096400Y-243965515D01*
X92154457Y-243936486D01*
X92212514Y-243936486D01*
X92270571Y-243965515D01*
X92299600Y-243994543D01*
X92328629Y-244052601D01*
X92328629Y-244197743D01*
X92299600Y-244284829D01*
X91748057Y-244778314D02*
X91719029Y-244720257D01*
X91719029Y-244604143D01*
X91748057Y-244546086D01*
X91806114Y-244517057D01*
X92038343Y-244517057D01*
X92096400Y-244546086D01*
X92125429Y-244604143D01*
X92125429Y-244720257D01*
X92096400Y-244778314D01*
X92038343Y-244807343D01*
X91980286Y-244807343D01*
X91922229Y-244517057D01*
X92125429Y-245068600D02*
X91719029Y-245068600D01*
X92067371Y-245068600D02*
X92096400Y-245097628D01*
X92125429Y-245155686D01*
X92125429Y-245242771D01*
X92096400Y-245300828D01*
X92038343Y-245329857D01*
X91719029Y-245329857D01*
X91748057Y-245591114D02*
X91719029Y-245649171D01*
X91719029Y-245765286D01*
X91748057Y-245823343D01*
X91806114Y-245852371D01*
X91835143Y-245852371D01*
X91893200Y-245823343D01*
X91922229Y-245765286D01*
X91922229Y-245678200D01*
X91951257Y-245620143D01*
X92009314Y-245591114D01*
X92038343Y-245591114D01*
X92096400Y-245620143D01*
X92125429Y-245678200D01*
X92125429Y-245765286D01*
X92096400Y-245823343D01*
X91719029Y-246200715D02*
X91748057Y-246142657D01*
X91777086Y-246113629D01*
X91835143Y-246084600D01*
X92009314Y-246084600D01*
X92067371Y-246113629D01*
X92096400Y-246142657D01*
X92125429Y-246200715D01*
X92125429Y-246287800D01*
X92096400Y-246345857D01*
X92067371Y-246374886D01*
X92009314Y-246403915D01*
X91835143Y-246403915D01*
X91777086Y-246374886D01*
X91748057Y-246345857D01*
X91719029Y-246287800D01*
X91719029Y-246200715D01*
X91719029Y-246665172D02*
X92125429Y-246665172D01*
X92009314Y-246665172D02*
X92067371Y-246694200D01*
X92096400Y-246723229D01*
X92125429Y-246781286D01*
X92125429Y-246839343D01*
X92328629Y-247419914D02*
X91719029Y-247623114D01*
X92328629Y-247826314D01*
X92125429Y-248290771D02*
X91719029Y-248290771D01*
X92357657Y-248145628D02*
X91922229Y-248000485D01*
X91922229Y-248377857D01*
D11*
X92856200Y-236789600D02*
X92856200Y-249489600D01*
X92881600Y-249845200D02*
X80181600Y-249845200D01*
X92856200Y-236840400D02*
X80156200Y-236840400D01*
X80181600Y-236865800D02*
X80181600Y-249565800D01*
X103803600Y-236865800D02*
X103803600Y-249565800D01*
X116478200Y-236840400D02*
X103778200Y-236840400D01*
X116503600Y-249845200D02*
X103803600Y-249845200D01*
X116478200Y-236789600D02*
X116478200Y-249489600D01*
D12*
X115341029Y-239379001D02*
X115950629Y-239379001D01*
X115660343Y-239379001D02*
X115660343Y-239727344D01*
X115341029Y-239727344D02*
X115950629Y-239727344D01*
X115341029Y-240278887D02*
X115660343Y-240278887D01*
X115718400Y-240249858D01*
X115747429Y-240191801D01*
X115747429Y-240075687D01*
X115718400Y-240017630D01*
X115370057Y-240278887D02*
X115341029Y-240220830D01*
X115341029Y-240075687D01*
X115370057Y-240017630D01*
X115428114Y-239988601D01*
X115486171Y-239988601D01*
X115544229Y-240017630D01*
X115573257Y-240075687D01*
X115573257Y-240220830D01*
X115602286Y-240278887D01*
X115747429Y-240511116D02*
X115341029Y-240656259D01*
X115747429Y-240801401D02*
X115341029Y-240656259D01*
X115195886Y-240598201D01*
X115166857Y-240569173D01*
X115137829Y-240511116D01*
X115660343Y-241701287D02*
X115631314Y-241788373D01*
X115602286Y-241817401D01*
X115544229Y-241846430D01*
X115457143Y-241846430D01*
X115399086Y-241817401D01*
X115370057Y-241788373D01*
X115341029Y-241730315D01*
X115341029Y-241498087D01*
X115950629Y-241498087D01*
X115950629Y-241701287D01*
X115921600Y-241759344D01*
X115892571Y-241788373D01*
X115834514Y-241817401D01*
X115776457Y-241817401D01*
X115718400Y-241788373D01*
X115689371Y-241759344D01*
X115660343Y-241701287D01*
X115660343Y-241498087D01*
X115341029Y-242368944D02*
X115660343Y-242368944D01*
X115718400Y-242339915D01*
X115747429Y-242281858D01*
X115747429Y-242165744D01*
X115718400Y-242107687D01*
X115370057Y-242368944D02*
X115341029Y-242310887D01*
X115341029Y-242165744D01*
X115370057Y-242107687D01*
X115428114Y-242078658D01*
X115486171Y-242078658D01*
X115544229Y-242107687D01*
X115573257Y-242165744D01*
X115573257Y-242310887D01*
X115602286Y-242368944D01*
X115341029Y-242746316D02*
X115370057Y-242688258D01*
X115428114Y-242659230D01*
X115950629Y-242659230D01*
X115370057Y-243210772D02*
X115341029Y-243152715D01*
X115341029Y-243036601D01*
X115370057Y-242978544D01*
X115428114Y-242949515D01*
X115660343Y-242949515D01*
X115718400Y-242978544D01*
X115747429Y-243036601D01*
X115747429Y-243152715D01*
X115718400Y-243210772D01*
X115660343Y-243239801D01*
X115602286Y-243239801D01*
X115544229Y-242949515D01*
X115370057Y-243936486D02*
X115341029Y-244023572D01*
X115341029Y-244168715D01*
X115370057Y-244226772D01*
X115399086Y-244255801D01*
X115457143Y-244284829D01*
X115515200Y-244284829D01*
X115573257Y-244255801D01*
X115602286Y-244226772D01*
X115631314Y-244168715D01*
X115660343Y-244052601D01*
X115689371Y-243994543D01*
X115718400Y-243965515D01*
X115776457Y-243936486D01*
X115834514Y-243936486D01*
X115892571Y-243965515D01*
X115921600Y-243994543D01*
X115950629Y-244052601D01*
X115950629Y-244197743D01*
X115921600Y-244284829D01*
X115370057Y-244778314D02*
X115341029Y-244720257D01*
X115341029Y-244604143D01*
X115370057Y-244546086D01*
X115428114Y-244517057D01*
X115660343Y-244517057D01*
X115718400Y-244546086D01*
X115747429Y-244604143D01*
X115747429Y-244720257D01*
X115718400Y-244778314D01*
X115660343Y-244807343D01*
X115602286Y-244807343D01*
X115544229Y-244517057D01*
X115747429Y-245068600D02*
X115341029Y-245068600D01*
X115689371Y-245068600D02*
X115718400Y-245097628D01*
X115747429Y-245155686D01*
X115747429Y-245242771D01*
X115718400Y-245300828D01*
X115660343Y-245329857D01*
X115341029Y-245329857D01*
X115370057Y-245591114D02*
X115341029Y-245649171D01*
X115341029Y-245765286D01*
X115370057Y-245823343D01*
X115428114Y-245852371D01*
X115457143Y-245852371D01*
X115515200Y-245823343D01*
X115544229Y-245765286D01*
X115544229Y-245678200D01*
X115573257Y-245620143D01*
X115631314Y-245591114D01*
X115660343Y-245591114D01*
X115718400Y-245620143D01*
X115747429Y-245678200D01*
X115747429Y-245765286D01*
X115718400Y-245823343D01*
X115341029Y-246200715D02*
X115370057Y-246142657D01*
X115399086Y-246113629D01*
X115457143Y-246084600D01*
X115631314Y-246084600D01*
X115689371Y-246113629D01*
X115718400Y-246142657D01*
X115747429Y-246200715D01*
X115747429Y-246287800D01*
X115718400Y-246345857D01*
X115689371Y-246374886D01*
X115631314Y-246403915D01*
X115457143Y-246403915D01*
X115399086Y-246374886D01*
X115370057Y-246345857D01*
X115341029Y-246287800D01*
X115341029Y-246200715D01*
X115341029Y-246665172D02*
X115747429Y-246665172D01*
X115631314Y-246665172D02*
X115689371Y-246694200D01*
X115718400Y-246723229D01*
X115747429Y-246781286D01*
X115747429Y-246839343D01*
X115950629Y-247419914D02*
X115341029Y-247623114D01*
X115950629Y-247826314D01*
X115747429Y-248290771D02*
X115341029Y-248290771D01*
X115979657Y-248145628D02*
X115544229Y-248000485D01*
X115544229Y-248377857D01*
D13*
X103826400Y-249095400D02*
X103826400Y-249857400D01*
X103750200Y-249501800D02*
X103750200Y-249857400D01*
X103750200Y-249857400D02*
X103902600Y-249857400D01*
X103902600Y-249857400D02*
X103851800Y-249857400D01*
X103851800Y-249857400D02*
X103851800Y-249501800D01*
X116424800Y-249451000D02*
X116424800Y-249908200D01*
X116424800Y-249908200D02*
X116551800Y-249908200D01*
X116551800Y-249908200D02*
X116501000Y-249908200D01*
X116501000Y-249908200D02*
X116526400Y-249908200D01*
X116526400Y-249908200D02*
X116526400Y-249400200D01*
D14*
X106806629Y-138592000D02*
X106663772Y-138520571D01*
X106449486Y-138520571D01*
X106235201Y-138592000D01*
X106092343Y-138734857D01*
X106020915Y-138877714D01*
X105949486Y-139163429D01*
X105949486Y-139377714D01*
X106020915Y-139663429D01*
X106092343Y-139806286D01*
X106235201Y-139949143D01*
X106449486Y-140020571D01*
X106592343Y-140020571D01*
X106806629Y-139949143D01*
X106878058Y-139877714D01*
X106878058Y-139377714D01*
X106592343Y-139377714D01*
X108663772Y-139449143D02*
X109806629Y-139449143D01*
X109235200Y-140020571D02*
X109235200Y-138877714D01*
X111663772Y-139449143D02*
X112806629Y-139449143D01*
X112235200Y-140020571D02*
X112235200Y-138877714D01*
X115449486Y-138592000D02*
X115306629Y-138520571D01*
X115092343Y-138520571D01*
X114878058Y-138592000D01*
X114735200Y-138734857D01*
X114663772Y-138877714D01*
X114592343Y-139163429D01*
X114592343Y-139377714D01*
X114663772Y-139663429D01*
X114735200Y-139806286D01*
X114878058Y-139949143D01*
X115092343Y-140020571D01*
X115235200Y-140020571D01*
X115449486Y-139949143D01*
X115520915Y-139877714D01*
X115520915Y-139377714D01*
X115235200Y-139377714D01*
D13*
X99711600Y-133982600D02*
X121657200Y-133982600D01*
X121657200Y-133982600D02*
X121657200Y-250975000D01*
X121657200Y-250975000D02*
X99711600Y-250975000D01*
X99711600Y-250975000D02*
X99711600Y-133982600D01*
X99711600Y-133982600D02*
X99787800Y-133982600D01*
X99711600Y-15237600D02*
X99787800Y-15237600D01*
X99711600Y-132230000D02*
X99711600Y-15237600D01*
X121657200Y-132230000D02*
X99711600Y-132230000D01*
X121657200Y-15237600D02*
X121657200Y-132230000D01*
X99711600Y-15237600D02*
X121657200Y-15237600D01*
D14*
X106806629Y-19847000D02*
X106663772Y-19775571D01*
X106449486Y-19775571D01*
X106235201Y-19847000D01*
X106092343Y-19989857D01*
X106020915Y-20132714D01*
X105949486Y-20418429D01*
X105949486Y-20632714D01*
X106020915Y-20918429D01*
X106092343Y-21061286D01*
X106235201Y-21204143D01*
X106449486Y-21275571D01*
X106592343Y-21275571D01*
X106806629Y-21204143D01*
X106878058Y-21132714D01*
X106878058Y-20632714D01*
X106592343Y-20632714D01*
X108663772Y-20704143D02*
X109806629Y-20704143D01*
X109235200Y-21275571D02*
X109235200Y-20132714D01*
X111663772Y-20704143D02*
X112806629Y-20704143D01*
X112235200Y-21275571D02*
X112235200Y-20132714D01*
X115449486Y-19847000D02*
X115306629Y-19775571D01*
X115092343Y-19775571D01*
X114878058Y-19847000D01*
X114735200Y-19989857D01*
X114663772Y-20132714D01*
X114592343Y-20418429D01*
X114592343Y-20632714D01*
X114663772Y-20918429D01*
X114735200Y-21061286D01*
X114878058Y-21204143D01*
X115092343Y-21275571D01*
X115235200Y-21275571D01*
X115449486Y-21204143D01*
X115520915Y-21132714D01*
X115520915Y-20632714D01*
X115235200Y-20632714D01*
D13*
X116526400Y-131163200D02*
X116526400Y-130655200D01*
X116501000Y-131163200D02*
X116526400Y-131163200D01*
X116551800Y-131163200D02*
X116501000Y-131163200D01*
X116424800Y-131163200D02*
X116551800Y-131163200D01*
X116424800Y-130706000D02*
X116424800Y-131163200D01*
X103851800Y-131112400D02*
X103851800Y-130756800D01*
X103902600Y-131112400D02*
X103851800Y-131112400D01*
X103750200Y-131112400D02*
X103902600Y-131112400D01*
X103750200Y-130756800D02*
X103750200Y-131112400D01*
X103826400Y-130350400D02*
X103826400Y-131112400D01*
D12*
X115341029Y-120634001D02*
X115950629Y-120634001D01*
X115660343Y-120634001D02*
X115660343Y-120982344D01*
X115341029Y-120982344D02*
X115950629Y-120982344D01*
X115341029Y-121533887D02*
X115660343Y-121533887D01*
X115718400Y-121504858D01*
X115747429Y-121446801D01*
X115747429Y-121330687D01*
X115718400Y-121272630D01*
X115370057Y-121533887D02*
X115341029Y-121475830D01*
X115341029Y-121330687D01*
X115370057Y-121272630D01*
X115428114Y-121243601D01*
X115486171Y-121243601D01*
X115544229Y-121272630D01*
X115573257Y-121330687D01*
X115573257Y-121475830D01*
X115602286Y-121533887D01*
X115747429Y-121766116D02*
X115341029Y-121911259D01*
X115747429Y-122056401D02*
X115341029Y-121911259D01*
X115195886Y-121853201D01*
X115166857Y-121824173D01*
X115137829Y-121766116D01*
X115660343Y-122956287D02*
X115631314Y-123043373D01*
X115602286Y-123072401D01*
X115544229Y-123101430D01*
X115457143Y-123101430D01*
X115399086Y-123072401D01*
X115370057Y-123043373D01*
X115341029Y-122985315D01*
X115341029Y-122753087D01*
X115950629Y-122753087D01*
X115950629Y-122956287D01*
X115921600Y-123014344D01*
X115892571Y-123043373D01*
X115834514Y-123072401D01*
X115776457Y-123072401D01*
X115718400Y-123043373D01*
X115689371Y-123014344D01*
X115660343Y-122956287D01*
X115660343Y-122753087D01*
X115341029Y-123623944D02*
X115660343Y-123623944D01*
X115718400Y-123594915D01*
X115747429Y-123536858D01*
X115747429Y-123420744D01*
X115718400Y-123362687D01*
X115370057Y-123623944D02*
X115341029Y-123565887D01*
X115341029Y-123420744D01*
X115370057Y-123362687D01*
X115428114Y-123333658D01*
X115486171Y-123333658D01*
X115544229Y-123362687D01*
X115573257Y-123420744D01*
X115573257Y-123565887D01*
X115602286Y-123623944D01*
X115341029Y-124001316D02*
X115370057Y-123943258D01*
X115428114Y-123914230D01*
X115950629Y-123914230D01*
X115370057Y-124465772D02*
X115341029Y-124407715D01*
X115341029Y-124291601D01*
X115370057Y-124233544D01*
X115428114Y-124204515D01*
X115660343Y-124204515D01*
X115718400Y-124233544D01*
X115747429Y-124291601D01*
X115747429Y-124407715D01*
X115718400Y-124465772D01*
X115660343Y-124494801D01*
X115602286Y-124494801D01*
X115544229Y-124204515D01*
X115370057Y-125191486D02*
X115341029Y-125278572D01*
X115341029Y-125423715D01*
X115370057Y-125481772D01*
X115399086Y-125510801D01*
X115457143Y-125539829D01*
X115515200Y-125539829D01*
X115573257Y-125510801D01*
X115602286Y-125481772D01*
X115631314Y-125423715D01*
X115660343Y-125307601D01*
X115689371Y-125249543D01*
X115718400Y-125220515D01*
X115776457Y-125191486D01*
X115834514Y-125191486D01*
X115892571Y-125220515D01*
X115921600Y-125249543D01*
X115950629Y-125307601D01*
X115950629Y-125452743D01*
X115921600Y-125539829D01*
X115370057Y-126033314D02*
X115341029Y-125975257D01*
X115341029Y-125859143D01*
X115370057Y-125801086D01*
X115428114Y-125772057D01*
X115660343Y-125772057D01*
X115718400Y-125801086D01*
X115747429Y-125859143D01*
X115747429Y-125975257D01*
X115718400Y-126033314D01*
X115660343Y-126062343D01*
X115602286Y-126062343D01*
X115544229Y-125772057D01*
X115747429Y-126323600D02*
X115341029Y-126323600D01*
X115689371Y-126323600D02*
X115718400Y-126352628D01*
X115747429Y-126410686D01*
X115747429Y-126497771D01*
X115718400Y-126555828D01*
X115660343Y-126584857D01*
X115341029Y-126584857D01*
X115370057Y-126846114D02*
X115341029Y-126904171D01*
X115341029Y-127020286D01*
X115370057Y-127078343D01*
X115428114Y-127107371D01*
X115457143Y-127107371D01*
X115515200Y-127078343D01*
X115544229Y-127020286D01*
X115544229Y-126933200D01*
X115573257Y-126875143D01*
X115631314Y-126846114D01*
X115660343Y-126846114D01*
X115718400Y-126875143D01*
X115747429Y-126933200D01*
X115747429Y-127020286D01*
X115718400Y-127078343D01*
X115341029Y-127455715D02*
X115370057Y-127397657D01*
X115399086Y-127368629D01*
X115457143Y-127339600D01*
X115631314Y-127339600D01*
X115689371Y-127368629D01*
X115718400Y-127397657D01*
X115747429Y-127455715D01*
X115747429Y-127542800D01*
X115718400Y-127600857D01*
X115689371Y-127629886D01*
X115631314Y-127658915D01*
X115457143Y-127658915D01*
X115399086Y-127629886D01*
X115370057Y-127600857D01*
X115341029Y-127542800D01*
X115341029Y-127455715D01*
X115341029Y-127920172D02*
X115747429Y-127920172D01*
X115631314Y-127920172D02*
X115689371Y-127949200D01*
X115718400Y-127978229D01*
X115747429Y-128036286D01*
X115747429Y-128094343D01*
X115950629Y-128674914D02*
X115341029Y-128878114D01*
X115950629Y-129081314D01*
X115747429Y-129545771D02*
X115341029Y-129545771D01*
X115979657Y-129400628D02*
X115544229Y-129255485D01*
X115544229Y-129632857D01*
D11*
X116478200Y-118044600D02*
X116478200Y-130744600D01*
X116503600Y-131100200D02*
X103803600Y-131100200D01*
X116478200Y-118095400D02*
X103778200Y-118095400D01*
X103803600Y-118120800D02*
X103803600Y-130820800D01*
X56559600Y-118120800D02*
X56559600Y-130820800D01*
X69234200Y-118095400D02*
X56534200Y-118095400D01*
X69259600Y-131100200D02*
X56559600Y-131100200D01*
X69234200Y-118044600D02*
X69234200Y-130744600D01*
D12*
X68097029Y-120634001D02*
X68706629Y-120634001D01*
X68416343Y-120634001D02*
X68416343Y-120982344D01*
X68097029Y-120982344D02*
X68706629Y-120982344D01*
X68097029Y-121533887D02*
X68416343Y-121533887D01*
X68474400Y-121504858D01*
X68503429Y-121446801D01*
X68503429Y-121330687D01*
X68474400Y-121272630D01*
X68126057Y-121533887D02*
X68097029Y-121475830D01*
X68097029Y-121330687D01*
X68126057Y-121272630D01*
X68184114Y-121243601D01*
X68242171Y-121243601D01*
X68300229Y-121272630D01*
X68329257Y-121330687D01*
X68329257Y-121475830D01*
X68358286Y-121533887D01*
X68503429Y-121766116D02*
X68097029Y-121911259D01*
X68503429Y-122056401D02*
X68097029Y-121911259D01*
X67951886Y-121853201D01*
X67922857Y-121824173D01*
X67893829Y-121766116D01*
X68416343Y-122956287D02*
X68387314Y-123043373D01*
X68358286Y-123072401D01*
X68300229Y-123101430D01*
X68213143Y-123101430D01*
X68155086Y-123072401D01*
X68126057Y-123043373D01*
X68097029Y-122985315D01*
X68097029Y-122753087D01*
X68706629Y-122753087D01*
X68706629Y-122956287D01*
X68677600Y-123014344D01*
X68648571Y-123043373D01*
X68590514Y-123072401D01*
X68532457Y-123072401D01*
X68474400Y-123043373D01*
X68445371Y-123014344D01*
X68416343Y-122956287D01*
X68416343Y-122753087D01*
X68097029Y-123623944D02*
X68416343Y-123623944D01*
X68474400Y-123594915D01*
X68503429Y-123536858D01*
X68503429Y-123420744D01*
X68474400Y-123362687D01*
X68126057Y-123623944D02*
X68097029Y-123565887D01*
X68097029Y-123420744D01*
X68126057Y-123362687D01*
X68184114Y-123333658D01*
X68242171Y-123333658D01*
X68300229Y-123362687D01*
X68329257Y-123420744D01*
X68329257Y-123565887D01*
X68358286Y-123623944D01*
X68097029Y-124001316D02*
X68126057Y-123943258D01*
X68184114Y-123914230D01*
X68706629Y-123914230D01*
X68126057Y-124465772D02*
X68097029Y-124407715D01*
X68097029Y-124291601D01*
X68126057Y-124233544D01*
X68184114Y-124204515D01*
X68416343Y-124204515D01*
X68474400Y-124233544D01*
X68503429Y-124291601D01*
X68503429Y-124407715D01*
X68474400Y-124465772D01*
X68416343Y-124494801D01*
X68358286Y-124494801D01*
X68300229Y-124204515D01*
X68126057Y-125191486D02*
X68097029Y-125278572D01*
X68097029Y-125423715D01*
X68126057Y-125481772D01*
X68155086Y-125510801D01*
X68213143Y-125539829D01*
X68271200Y-125539829D01*
X68329257Y-125510801D01*
X68358286Y-125481772D01*
X68387314Y-125423715D01*
X68416343Y-125307601D01*
X68445371Y-125249543D01*
X68474400Y-125220515D01*
X68532457Y-125191486D01*
X68590514Y-125191486D01*
X68648571Y-125220515D01*
X68677600Y-125249543D01*
X68706629Y-125307601D01*
X68706629Y-125452743D01*
X68677600Y-125539829D01*
X68126057Y-126033314D02*
X68097029Y-125975257D01*
X68097029Y-125859143D01*
X68126057Y-125801086D01*
X68184114Y-125772057D01*
X68416343Y-125772057D01*
X68474400Y-125801086D01*
X68503429Y-125859143D01*
X68503429Y-125975257D01*
X68474400Y-126033314D01*
X68416343Y-126062343D01*
X68358286Y-126062343D01*
X68300229Y-125772057D01*
X68503429Y-126323600D02*
X68097029Y-126323600D01*
X68445371Y-126323600D02*
X68474400Y-126352628D01*
X68503429Y-126410686D01*
X68503429Y-126497771D01*
X68474400Y-126555828D01*
X68416343Y-126584857D01*
X68097029Y-126584857D01*
X68126057Y-126846114D02*
X68097029Y-126904171D01*
X68097029Y-127020286D01*
X68126057Y-127078343D01*
X68184114Y-127107371D01*
X68213143Y-127107371D01*
X68271200Y-127078343D01*
X68300229Y-127020286D01*
X68300229Y-126933200D01*
X68329257Y-126875143D01*
X68387314Y-126846114D01*
X68416343Y-126846114D01*
X68474400Y-126875143D01*
X68503429Y-126933200D01*
X68503429Y-127020286D01*
X68474400Y-127078343D01*
X68097029Y-127455715D02*
X68126057Y-127397657D01*
X68155086Y-127368629D01*
X68213143Y-127339600D01*
X68387314Y-127339600D01*
X68445371Y-127368629D01*
X68474400Y-127397657D01*
X68503429Y-127455715D01*
X68503429Y-127542800D01*
X68474400Y-127600857D01*
X68445371Y-127629886D01*
X68387314Y-127658915D01*
X68213143Y-127658915D01*
X68155086Y-127629886D01*
X68126057Y-127600857D01*
X68097029Y-127542800D01*
X68097029Y-127455715D01*
X68097029Y-127920172D02*
X68503429Y-127920172D01*
X68387314Y-127920172D02*
X68445371Y-127949200D01*
X68474400Y-127978229D01*
X68503429Y-128036286D01*
X68503429Y-128094343D01*
X68706629Y-128674914D02*
X68097029Y-128878114D01*
X68706629Y-129081314D01*
X68503429Y-129545771D02*
X68097029Y-129545771D01*
X68735657Y-129400628D02*
X68300229Y-129255485D01*
X68300229Y-129632857D01*
D13*
X56582400Y-130350400D02*
X56582400Y-131112400D01*
X56506200Y-130756800D02*
X56506200Y-131112400D01*
X56506200Y-131112400D02*
X56658600Y-131112400D01*
X56658600Y-131112400D02*
X56607800Y-131112400D01*
X56607800Y-131112400D02*
X56607800Y-130756800D01*
X69180800Y-130706000D02*
X69180800Y-131163200D01*
X69180800Y-131163200D02*
X69307800Y-131163200D01*
X69307800Y-131163200D02*
X69257000Y-131163200D01*
X69257000Y-131163200D02*
X69282400Y-131163200D01*
X69282400Y-131163200D02*
X69282400Y-130655200D01*
D14*
X59562629Y-19847000D02*
X59419772Y-19775571D01*
X59205486Y-19775571D01*
X58991201Y-19847000D01*
X58848343Y-19989857D01*
X58776915Y-20132714D01*
X58705486Y-20418429D01*
X58705486Y-20632714D01*
X58776915Y-20918429D01*
X58848343Y-21061286D01*
X58991201Y-21204143D01*
X59205486Y-21275571D01*
X59348343Y-21275571D01*
X59562629Y-21204143D01*
X59634058Y-21132714D01*
X59634058Y-20632714D01*
X59348343Y-20632714D01*
X61419772Y-20704143D02*
X62562629Y-20704143D01*
X61991200Y-21275571D02*
X61991200Y-20132714D01*
X64419772Y-20704143D02*
X65562629Y-20704143D01*
X64991200Y-21275571D02*
X64991200Y-20132714D01*
X68205486Y-19847000D02*
X68062629Y-19775571D01*
X67848343Y-19775571D01*
X67634058Y-19847000D01*
X67491200Y-19989857D01*
X67419772Y-20132714D01*
X67348343Y-20418429D01*
X67348343Y-20632714D01*
X67419772Y-20918429D01*
X67491200Y-21061286D01*
X67634058Y-21204143D01*
X67848343Y-21275571D01*
X67991200Y-21275571D01*
X68205486Y-21204143D01*
X68276915Y-21132714D01*
X68276915Y-20632714D01*
X67991200Y-20632714D01*
D13*
X52467600Y-15237600D02*
X74413200Y-15237600D01*
X74413200Y-15237600D02*
X74413200Y-132230000D01*
X74413200Y-132230000D02*
X52467600Y-132230000D01*
X52467600Y-132230000D02*
X52467600Y-15237600D01*
X52467600Y-15237600D02*
X52543800Y-15237600D01*
X52467600Y-133982600D02*
X52543800Y-133982600D01*
X52467600Y-250975000D02*
X52467600Y-133982600D01*
X74413200Y-250975000D02*
X52467600Y-250975000D01*
X74413200Y-133982600D02*
X74413200Y-250975000D01*
X52467600Y-133982600D02*
X74413200Y-133982600D01*
D14*
X59562629Y-138592000D02*
X59419772Y-138520571D01*
X59205486Y-138520571D01*
X58991201Y-138592000D01*
X58848343Y-138734857D01*
X58776915Y-138877714D01*
X58705486Y-139163429D01*
X58705486Y-139377714D01*
X58776915Y-139663429D01*
X58848343Y-139806286D01*
X58991201Y-139949143D01*
X59205486Y-140020571D01*
X59348343Y-140020571D01*
X59562629Y-139949143D01*
X59634058Y-139877714D01*
X59634058Y-139377714D01*
X59348343Y-139377714D01*
X61419772Y-139449143D02*
X62562629Y-139449143D01*
X61991200Y-140020571D02*
X61991200Y-138877714D01*
X64419772Y-139449143D02*
X65562629Y-139449143D01*
X64991200Y-140020571D02*
X64991200Y-138877714D01*
X68205486Y-138592000D02*
X68062629Y-138520571D01*
X67848343Y-138520571D01*
X67634058Y-138592000D01*
X67491200Y-138734857D01*
X67419772Y-138877714D01*
X67348343Y-139163429D01*
X67348343Y-139377714D01*
X67419772Y-139663429D01*
X67491200Y-139806286D01*
X67634058Y-139949143D01*
X67848343Y-140020571D01*
X67991200Y-140020571D01*
X68205486Y-139949143D01*
X68276915Y-139877714D01*
X68276915Y-139377714D01*
X67991200Y-139377714D01*
D13*
X69282400Y-249908200D02*
X69282400Y-249400200D01*
X69257000Y-249908200D02*
X69282400Y-249908200D01*
X69307800Y-249908200D02*
X69257000Y-249908200D01*
X69180800Y-249908200D02*
X69307800Y-249908200D01*
X69180800Y-249451000D02*
X69180800Y-249908200D01*
X56607800Y-249857400D02*
X56607800Y-249501800D01*
X56658600Y-249857400D02*
X56607800Y-249857400D01*
X56506200Y-249857400D02*
X56658600Y-249857400D01*
X56506200Y-249501800D02*
X56506200Y-249857400D01*
X56582400Y-249095400D02*
X56582400Y-249857400D01*
D12*
X68097029Y-239379001D02*
X68706629Y-239379001D01*
X68416343Y-239379001D02*
X68416343Y-239727344D01*
X68097029Y-239727344D02*
X68706629Y-239727344D01*
X68097029Y-240278887D02*
X68416343Y-240278887D01*
X68474400Y-240249858D01*
X68503429Y-240191801D01*
X68503429Y-240075687D01*
X68474400Y-240017630D01*
X68126057Y-240278887D02*
X68097029Y-240220830D01*
X68097029Y-240075687D01*
X68126057Y-240017630D01*
X68184114Y-239988601D01*
X68242171Y-239988601D01*
X68300229Y-240017630D01*
X68329257Y-240075687D01*
X68329257Y-240220830D01*
X68358286Y-240278887D01*
X68503429Y-240511116D02*
X68097029Y-240656259D01*
X68503429Y-240801401D02*
X68097029Y-240656259D01*
X67951886Y-240598201D01*
X67922857Y-240569173D01*
X67893829Y-240511116D01*
X68416343Y-241701287D02*
X68387314Y-241788373D01*
X68358286Y-241817401D01*
X68300229Y-241846430D01*
X68213143Y-241846430D01*
X68155086Y-241817401D01*
X68126057Y-241788373D01*
X68097029Y-241730315D01*
X68097029Y-241498087D01*
X68706629Y-241498087D01*
X68706629Y-241701287D01*
X68677600Y-241759344D01*
X68648571Y-241788373D01*
X68590514Y-241817401D01*
X68532457Y-241817401D01*
X68474400Y-241788373D01*
X68445371Y-241759344D01*
X68416343Y-241701287D01*
X68416343Y-241498087D01*
X68097029Y-242368944D02*
X68416343Y-242368944D01*
X68474400Y-242339915D01*
X68503429Y-242281858D01*
X68503429Y-242165744D01*
X68474400Y-242107687D01*
X68126057Y-242368944D02*
X68097029Y-242310887D01*
X68097029Y-242165744D01*
X68126057Y-242107687D01*
X68184114Y-242078658D01*
X68242171Y-242078658D01*
X68300229Y-242107687D01*
X68329257Y-242165744D01*
X68329257Y-242310887D01*
X68358286Y-242368944D01*
X68097029Y-242746316D02*
X68126057Y-242688258D01*
X68184114Y-242659230D01*
X68706629Y-242659230D01*
X68126057Y-243210772D02*
X68097029Y-243152715D01*
X68097029Y-243036601D01*
X68126057Y-242978544D01*
X68184114Y-242949515D01*
X68416343Y-242949515D01*
X68474400Y-242978544D01*
X68503429Y-243036601D01*
X68503429Y-243152715D01*
X68474400Y-243210772D01*
X68416343Y-243239801D01*
X68358286Y-243239801D01*
X68300229Y-242949515D01*
X68126057Y-243936486D02*
X68097029Y-244023572D01*
X68097029Y-244168715D01*
X68126057Y-244226772D01*
X68155086Y-244255801D01*
X68213143Y-244284829D01*
X68271200Y-244284829D01*
X68329257Y-244255801D01*
X68358286Y-244226772D01*
X68387314Y-244168715D01*
X68416343Y-244052601D01*
X68445371Y-243994543D01*
X68474400Y-243965515D01*
X68532457Y-243936486D01*
X68590514Y-243936486D01*
X68648571Y-243965515D01*
X68677600Y-243994543D01*
X68706629Y-244052601D01*
X68706629Y-244197743D01*
X68677600Y-244284829D01*
X68126057Y-244778314D02*
X68097029Y-244720257D01*
X68097029Y-244604143D01*
X68126057Y-244546086D01*
X68184114Y-244517057D01*
X68416343Y-244517057D01*
X68474400Y-244546086D01*
X68503429Y-244604143D01*
X68503429Y-244720257D01*
X68474400Y-244778314D01*
X68416343Y-244807343D01*
X68358286Y-244807343D01*
X68300229Y-244517057D01*
X68503429Y-245068600D02*
X68097029Y-245068600D01*
X68445371Y-245068600D02*
X68474400Y-245097628D01*
X68503429Y-245155686D01*
X68503429Y-245242771D01*
X68474400Y-245300828D01*
X68416343Y-245329857D01*
X68097029Y-245329857D01*
X68126057Y-245591114D02*
X68097029Y-245649171D01*
X68097029Y-245765286D01*
X68126057Y-245823343D01*
X68184114Y-245852371D01*
X68213143Y-245852371D01*
X68271200Y-245823343D01*
X68300229Y-245765286D01*
X68300229Y-245678200D01*
X68329257Y-245620143D01*
X68387314Y-245591114D01*
X68416343Y-245591114D01*
X68474400Y-245620143D01*
X68503429Y-245678200D01*
X68503429Y-245765286D01*
X68474400Y-245823343D01*
X68097029Y-246200715D02*
X68126057Y-246142657D01*
X68155086Y-246113629D01*
X68213143Y-246084600D01*
X68387314Y-246084600D01*
X68445371Y-246113629D01*
X68474400Y-246142657D01*
X68503429Y-246200715D01*
X68503429Y-246287800D01*
X68474400Y-246345857D01*
X68445371Y-246374886D01*
X68387314Y-246403915D01*
X68213143Y-246403915D01*
X68155086Y-246374886D01*
X68126057Y-246345857D01*
X68097029Y-246287800D01*
X68097029Y-246200715D01*
X68097029Y-246665172D02*
X68503429Y-246665172D01*
X68387314Y-246665172D02*
X68445371Y-246694200D01*
X68474400Y-246723229D01*
X68503429Y-246781286D01*
X68503429Y-246839343D01*
X68706629Y-247419914D02*
X68097029Y-247623114D01*
X68706629Y-247826314D01*
X68503429Y-248290771D02*
X68097029Y-248290771D01*
X68735657Y-248145628D02*
X68300229Y-248000485D01*
X68300229Y-248377857D01*
D11*
X69234200Y-236789600D02*
X69234200Y-249489600D01*
X69259600Y-249845200D02*
X56559600Y-249845200D01*
X69234200Y-236840400D02*
X56534200Y-236840400D01*
X56559600Y-236865800D02*
X56559600Y-249565800D01*
X32937600Y-236865800D02*
X32937600Y-249565800D01*
X45612200Y-236840400D02*
X32912200Y-236840400D01*
X45637600Y-249845200D02*
X32937600Y-249845200D01*
X45612200Y-236789600D02*
X45612200Y-249489600D01*
D12*
X44475029Y-239379001D02*
X45084629Y-239379001D01*
X44794343Y-239379001D02*
X44794343Y-239727344D01*
X44475029Y-239727344D02*
X45084629Y-239727344D01*
X44475029Y-240278887D02*
X44794343Y-240278887D01*
X44852400Y-240249858D01*
X44881429Y-240191801D01*
X44881429Y-240075687D01*
X44852400Y-240017630D01*
X44504057Y-240278887D02*
X44475029Y-240220830D01*
X44475029Y-240075687D01*
X44504057Y-240017630D01*
X44562114Y-239988601D01*
X44620171Y-239988601D01*
X44678229Y-240017630D01*
X44707257Y-240075687D01*
X44707257Y-240220830D01*
X44736286Y-240278887D01*
X44881429Y-240511116D02*
X44475029Y-240656259D01*
X44881429Y-240801401D02*
X44475029Y-240656259D01*
X44329886Y-240598201D01*
X44300857Y-240569173D01*
X44271829Y-240511116D01*
X44794343Y-241701287D02*
X44765314Y-241788373D01*
X44736286Y-241817401D01*
X44678229Y-241846430D01*
X44591143Y-241846430D01*
X44533086Y-241817401D01*
X44504057Y-241788373D01*
X44475029Y-241730315D01*
X44475029Y-241498087D01*
X45084629Y-241498087D01*
X45084629Y-241701287D01*
X45055600Y-241759344D01*
X45026571Y-241788373D01*
X44968514Y-241817401D01*
X44910457Y-241817401D01*
X44852400Y-241788373D01*
X44823371Y-241759344D01*
X44794343Y-241701287D01*
X44794343Y-241498087D01*
X44475029Y-242368944D02*
X44794343Y-242368944D01*
X44852400Y-242339915D01*
X44881429Y-242281858D01*
X44881429Y-242165744D01*
X44852400Y-242107687D01*
X44504057Y-242368944D02*
X44475029Y-242310887D01*
X44475029Y-242165744D01*
X44504057Y-242107687D01*
X44562114Y-242078658D01*
X44620171Y-242078658D01*
X44678229Y-242107687D01*
X44707257Y-242165744D01*
X44707257Y-242310887D01*
X44736286Y-242368944D01*
X44475029Y-242746316D02*
X44504057Y-242688258D01*
X44562114Y-242659230D01*
X45084629Y-242659230D01*
X44504057Y-243210772D02*
X44475029Y-243152715D01*
X44475029Y-243036601D01*
X44504057Y-242978544D01*
X44562114Y-242949515D01*
X44794343Y-242949515D01*
X44852400Y-242978544D01*
X44881429Y-243036601D01*
X44881429Y-243152715D01*
X44852400Y-243210772D01*
X44794343Y-243239801D01*
X44736286Y-243239801D01*
X44678229Y-242949515D01*
X44504057Y-243936486D02*
X44475029Y-244023572D01*
X44475029Y-244168715D01*
X44504057Y-244226772D01*
X44533086Y-244255801D01*
X44591143Y-244284829D01*
X44649200Y-244284829D01*
X44707257Y-244255801D01*
X44736286Y-244226772D01*
X44765314Y-244168715D01*
X44794343Y-244052601D01*
X44823371Y-243994543D01*
X44852400Y-243965515D01*
X44910457Y-243936486D01*
X44968514Y-243936486D01*
X45026571Y-243965515D01*
X45055600Y-243994543D01*
X45084629Y-244052601D01*
X45084629Y-244197743D01*
X45055600Y-244284829D01*
X44504057Y-244778314D02*
X44475029Y-244720257D01*
X44475029Y-244604143D01*
X44504057Y-244546086D01*
X44562114Y-244517057D01*
X44794343Y-244517057D01*
X44852400Y-244546086D01*
X44881429Y-244604143D01*
X44881429Y-244720257D01*
X44852400Y-244778314D01*
X44794343Y-244807343D01*
X44736286Y-244807343D01*
X44678229Y-244517057D01*
X44881429Y-245068600D02*
X44475029Y-245068600D01*
X44823371Y-245068600D02*
X44852400Y-245097628D01*
X44881429Y-245155686D01*
X44881429Y-245242771D01*
X44852400Y-245300828D01*
X44794343Y-245329857D01*
X44475029Y-245329857D01*
X44504057Y-245591114D02*
X44475029Y-245649171D01*
X44475029Y-245765286D01*
X44504057Y-245823343D01*
X44562114Y-245852371D01*
X44591143Y-245852371D01*
X44649200Y-245823343D01*
X44678229Y-245765286D01*
X44678229Y-245678200D01*
X44707257Y-245620143D01*
X44765314Y-245591114D01*
X44794343Y-245591114D01*
X44852400Y-245620143D01*
X44881429Y-245678200D01*
X44881429Y-245765286D01*
X44852400Y-245823343D01*
X44475029Y-246200715D02*
X44504057Y-246142657D01*
X44533086Y-246113629D01*
X44591143Y-246084600D01*
X44765314Y-246084600D01*
X44823371Y-246113629D01*
X44852400Y-246142657D01*
X44881429Y-246200715D01*
X44881429Y-246287800D01*
X44852400Y-246345857D01*
X44823371Y-246374886D01*
X44765314Y-246403915D01*
X44591143Y-246403915D01*
X44533086Y-246374886D01*
X44504057Y-246345857D01*
X44475029Y-246287800D01*
X44475029Y-246200715D01*
X44475029Y-246665172D02*
X44881429Y-246665172D01*
X44765314Y-246665172D02*
X44823371Y-246694200D01*
X44852400Y-246723229D01*
X44881429Y-246781286D01*
X44881429Y-246839343D01*
X45084629Y-247419914D02*
X44475029Y-247623114D01*
X45084629Y-247826314D01*
X44881429Y-248290771D02*
X44475029Y-248290771D01*
X45113657Y-248145628D02*
X44678229Y-248000485D01*
X44678229Y-248377857D01*
D13*
X32960400Y-249095400D02*
X32960400Y-249857400D01*
X32884200Y-249501800D02*
X32884200Y-249857400D01*
X32884200Y-249857400D02*
X33036600Y-249857400D01*
X33036600Y-249857400D02*
X32985800Y-249857400D01*
X32985800Y-249857400D02*
X32985800Y-249501800D01*
X45558800Y-249451000D02*
X45558800Y-249908200D01*
X45558800Y-249908200D02*
X45685800Y-249908200D01*
X45685800Y-249908200D02*
X45635000Y-249908200D01*
X45635000Y-249908200D02*
X45660400Y-249908200D01*
X45660400Y-249908200D02*
X45660400Y-249400200D01*
D14*
X35940629Y-138592000D02*
X35797772Y-138520571D01*
X35583486Y-138520571D01*
X35369201Y-138592000D01*
X35226343Y-138734857D01*
X35154915Y-138877714D01*
X35083486Y-139163429D01*
X35083486Y-139377714D01*
X35154915Y-139663429D01*
X35226343Y-139806286D01*
X35369201Y-139949143D01*
X35583486Y-140020571D01*
X35726343Y-140020571D01*
X35940629Y-139949143D01*
X36012058Y-139877714D01*
X36012058Y-139377714D01*
X35726343Y-139377714D01*
X37797772Y-139449143D02*
X38940629Y-139449143D01*
X38369200Y-140020571D02*
X38369200Y-138877714D01*
X40797772Y-139449143D02*
X41940629Y-139449143D01*
X41369200Y-140020571D02*
X41369200Y-138877714D01*
X44583486Y-138592000D02*
X44440629Y-138520571D01*
X44226343Y-138520571D01*
X44012058Y-138592000D01*
X43869200Y-138734857D01*
X43797772Y-138877714D01*
X43726343Y-139163429D01*
X43726343Y-139377714D01*
X43797772Y-139663429D01*
X43869200Y-139806286D01*
X44012058Y-139949143D01*
X44226343Y-140020571D01*
X44369200Y-140020571D01*
X44583486Y-139949143D01*
X44654915Y-139877714D01*
X44654915Y-139377714D01*
X44369200Y-139377714D01*
D13*
X28845600Y-133982600D02*
X50791200Y-133982600D01*
X50791200Y-133982600D02*
X50791200Y-250975000D01*
X50791200Y-250975000D02*
X28845600Y-250975000D01*
X28845600Y-250975000D02*
X28845600Y-133982600D01*
X28845600Y-133982600D02*
X28921800Y-133982600D01*
X28845600Y-15237600D02*
X28921800Y-15237600D01*
X28845600Y-132230000D02*
X28845600Y-15237600D01*
X50791200Y-132230000D02*
X28845600Y-132230000D01*
X50791200Y-15237600D02*
X50791200Y-132230000D01*
X28845600Y-15237600D02*
X50791200Y-15237600D01*
D14*
X35940629Y-19847000D02*
X35797772Y-19775571D01*
X35583486Y-19775571D01*
X35369201Y-19847000D01*
X35226343Y-19989857D01*
X35154915Y-20132714D01*
X35083486Y-20418429D01*
X35083486Y-20632714D01*
X35154915Y-20918429D01*
X35226343Y-21061286D01*
X35369201Y-21204143D01*
X35583486Y-21275571D01*
X35726343Y-21275571D01*
X35940629Y-21204143D01*
X36012058Y-21132714D01*
X36012058Y-20632714D01*
X35726343Y-20632714D01*
X37797772Y-20704143D02*
X38940629Y-20704143D01*
X38369200Y-21275571D02*
X38369200Y-20132714D01*
X40797772Y-20704143D02*
X41940629Y-20704143D01*
X41369200Y-21275571D02*
X41369200Y-20132714D01*
X44583486Y-19847000D02*
X44440629Y-19775571D01*
X44226343Y-19775571D01*
X44012058Y-19847000D01*
X43869200Y-19989857D01*
X43797772Y-20132714D01*
X43726343Y-20418429D01*
X43726343Y-20632714D01*
X43797772Y-20918429D01*
X43869200Y-21061286D01*
X44012058Y-21204143D01*
X44226343Y-21275571D01*
X44369200Y-21275571D01*
X44583486Y-21204143D01*
X44654915Y-21132714D01*
X44654915Y-20632714D01*
X44369200Y-20632714D01*
D13*
X45660400Y-131163200D02*
X45660400Y-130655200D01*
X45635000Y-131163200D02*
X45660400Y-131163200D01*
X45685800Y-131163200D02*
X45635000Y-131163200D01*
X45558800Y-131163200D02*
X45685800Y-131163200D01*
X45558800Y-130706000D02*
X45558800Y-131163200D01*
X32985800Y-131112400D02*
X32985800Y-130756800D01*
X33036600Y-131112400D02*
X32985800Y-131112400D01*
X32884200Y-131112400D02*
X33036600Y-131112400D01*
X32884200Y-130756800D02*
X32884200Y-131112400D01*
X32960400Y-130350400D02*
X32960400Y-131112400D01*
D12*
X44475029Y-120634001D02*
X45084629Y-120634001D01*
X44794343Y-120634001D02*
X44794343Y-120982344D01*
X44475029Y-120982344D02*
X45084629Y-120982344D01*
X44475029Y-121533887D02*
X44794343Y-121533887D01*
X44852400Y-121504858D01*
X44881429Y-121446801D01*
X44881429Y-121330687D01*
X44852400Y-121272630D01*
X44504057Y-121533887D02*
X44475029Y-121475830D01*
X44475029Y-121330687D01*
X44504057Y-121272630D01*
X44562114Y-121243601D01*
X44620171Y-121243601D01*
X44678229Y-121272630D01*
X44707257Y-121330687D01*
X44707257Y-121475830D01*
X44736286Y-121533887D01*
X44881429Y-121766116D02*
X44475029Y-121911259D01*
X44881429Y-122056401D02*
X44475029Y-121911259D01*
X44329886Y-121853201D01*
X44300857Y-121824173D01*
X44271829Y-121766116D01*
X44794343Y-122956287D02*
X44765314Y-123043373D01*
X44736286Y-123072401D01*
X44678229Y-123101430D01*
X44591143Y-123101430D01*
X44533086Y-123072401D01*
X44504057Y-123043373D01*
X44475029Y-122985315D01*
X44475029Y-122753087D01*
X45084629Y-122753087D01*
X45084629Y-122956287D01*
X45055600Y-123014344D01*
X45026571Y-123043373D01*
X44968514Y-123072401D01*
X44910457Y-123072401D01*
X44852400Y-123043373D01*
X44823371Y-123014344D01*
X44794343Y-122956287D01*
X44794343Y-122753087D01*
X44475029Y-123623944D02*
X44794343Y-123623944D01*
X44852400Y-123594915D01*
X44881429Y-123536858D01*
X44881429Y-123420744D01*
X44852400Y-123362687D01*
X44504057Y-123623944D02*
X44475029Y-123565887D01*
X44475029Y-123420744D01*
X44504057Y-123362687D01*
X44562114Y-123333658D01*
X44620171Y-123333658D01*
X44678229Y-123362687D01*
X44707257Y-123420744D01*
X44707257Y-123565887D01*
X44736286Y-123623944D01*
X44475029Y-124001316D02*
X44504057Y-123943258D01*
X44562114Y-123914230D01*
X45084629Y-123914230D01*
X44504057Y-124465772D02*
X44475029Y-124407715D01*
X44475029Y-124291601D01*
X44504057Y-124233544D01*
X44562114Y-124204515D01*
X44794343Y-124204515D01*
X44852400Y-124233544D01*
X44881429Y-124291601D01*
X44881429Y-124407715D01*
X44852400Y-124465772D01*
X44794343Y-124494801D01*
X44736286Y-124494801D01*
X44678229Y-124204515D01*
X44504057Y-125191486D02*
X44475029Y-125278572D01*
X44475029Y-125423715D01*
X44504057Y-125481772D01*
X44533086Y-125510801D01*
X44591143Y-125539829D01*
X44649200Y-125539829D01*
X44707257Y-125510801D01*
X44736286Y-125481772D01*
X44765314Y-125423715D01*
X44794343Y-125307601D01*
X44823371Y-125249543D01*
X44852400Y-125220515D01*
X44910457Y-125191486D01*
X44968514Y-125191486D01*
X45026571Y-125220515D01*
X45055600Y-125249543D01*
X45084629Y-125307601D01*
X45084629Y-125452743D01*
X45055600Y-125539829D01*
X44504057Y-126033314D02*
X44475029Y-125975257D01*
X44475029Y-125859143D01*
X44504057Y-125801086D01*
X44562114Y-125772057D01*
X44794343Y-125772057D01*
X44852400Y-125801086D01*
X44881429Y-125859143D01*
X44881429Y-125975257D01*
X44852400Y-126033314D01*
X44794343Y-126062343D01*
X44736286Y-126062343D01*
X44678229Y-125772057D01*
X44881429Y-126323600D02*
X44475029Y-126323600D01*
X44823371Y-126323600D02*
X44852400Y-126352628D01*
X44881429Y-126410686D01*
X44881429Y-126497771D01*
X44852400Y-126555828D01*
X44794343Y-126584857D01*
X44475029Y-126584857D01*
X44504057Y-126846114D02*
X44475029Y-126904171D01*
X44475029Y-127020286D01*
X44504057Y-127078343D01*
X44562114Y-127107371D01*
X44591143Y-127107371D01*
X44649200Y-127078343D01*
X44678229Y-127020286D01*
X44678229Y-126933200D01*
X44707257Y-126875143D01*
X44765314Y-126846114D01*
X44794343Y-126846114D01*
X44852400Y-126875143D01*
X44881429Y-126933200D01*
X44881429Y-127020286D01*
X44852400Y-127078343D01*
X44475029Y-127455715D02*
X44504057Y-127397657D01*
X44533086Y-127368629D01*
X44591143Y-127339600D01*
X44765314Y-127339600D01*
X44823371Y-127368629D01*
X44852400Y-127397657D01*
X44881429Y-127455715D01*
X44881429Y-127542800D01*
X44852400Y-127600857D01*
X44823371Y-127629886D01*
X44765314Y-127658915D01*
X44591143Y-127658915D01*
X44533086Y-127629886D01*
X44504057Y-127600857D01*
X44475029Y-127542800D01*
X44475029Y-127455715D01*
X44475029Y-127920172D02*
X44881429Y-127920172D01*
X44765314Y-127920172D02*
X44823371Y-127949200D01*
X44852400Y-127978229D01*
X44881429Y-128036286D01*
X44881429Y-128094343D01*
X45084629Y-128674914D02*
X44475029Y-128878114D01*
X45084629Y-129081314D01*
X44881429Y-129545771D02*
X44475029Y-129545771D01*
X45113657Y-129400628D02*
X44678229Y-129255485D01*
X44678229Y-129632857D01*
D11*
X45612200Y-118044600D02*
X45612200Y-130744600D01*
X45637600Y-131100200D02*
X32937600Y-131100200D01*
X45612200Y-118095400D02*
X32912200Y-118095400D01*
X32937600Y-118120800D02*
X32937600Y-130820800D01*
D15*
X124018000Y-153955000D02*
X124018000Y-184165000D01*
X124018000Y-184165000D02*
X144798000Y-184165000D01*
X144798000Y-184165000D02*
X144798000Y-153955000D01*
X144798000Y-153955000D02*
X137871333Y-153955000D01*
X137871333Y-153955000D02*
X137871333Y-154405000D01*
X137871333Y-154405000D02*
X130944667Y-154405000D01*
X130944667Y-154405000D02*
X130944667Y-153955000D01*
X130944667Y-153955000D02*
X124018000Y-153955000D01*
X131715600Y-138021200D02*
X139335600Y-138021200D01*
X131715600Y-135481200D02*
X139335600Y-135481200D01*
X128895600Y-135201200D02*
X130445600Y-135201200D01*
X139335600Y-138021200D02*
X139335600Y-135481200D01*
X131715600Y-135481200D02*
X131715600Y-138021200D01*
X130445600Y-138301200D02*
X128895600Y-138301200D01*
X128895600Y-138301200D02*
X128895600Y-135201200D01*
X130898800Y-235006800D02*
X130398800Y-235006800D01*
X130398800Y-236056800D02*
X130898800Y-236056800D01*
X130898800Y-116261800D02*
X130398800Y-116261800D01*
X130398800Y-117311800D02*
X130898800Y-117311800D01*
X131715600Y-19276200D02*
X139335600Y-19276200D01*
X131715600Y-16736200D02*
X139335600Y-16736200D01*
X128895600Y-16456200D02*
X130445600Y-16456200D01*
X139335600Y-19276200D02*
X139335600Y-16736200D01*
X131715600Y-16736200D02*
X131715600Y-19276200D01*
X130445600Y-19556200D02*
X128895600Y-19556200D01*
X128895600Y-19556200D02*
X128895600Y-16456200D01*
X124018000Y-35210000D02*
X124018000Y-65420000D01*
X124018000Y-65420000D02*
X144798000Y-65420000D01*
X144798000Y-65420000D02*
X144798000Y-35210000D01*
X144798000Y-35210000D02*
X137871333Y-35210000D01*
X137871333Y-35210000D02*
X137871333Y-35660000D01*
X137871333Y-35660000D02*
X130944667Y-35660000D01*
X130944667Y-35660000D02*
X130944667Y-35210000D01*
X130944667Y-35210000D02*
X124018000Y-35210000D01*
X171262000Y-35210000D02*
X171262000Y-65420000D01*
X171262000Y-65420000D02*
X192042000Y-65420000D01*
X192042000Y-65420000D02*
X192042000Y-35210000D01*
X192042000Y-35210000D02*
X185115333Y-35210000D01*
X185115333Y-35210000D02*
X185115333Y-35660000D01*
X185115333Y-35660000D02*
X178188667Y-35660000D01*
X178188667Y-35660000D02*
X178188667Y-35210000D01*
X178188667Y-35210000D02*
X171262000Y-35210000D01*
X178959600Y-19276200D02*
X186579600Y-19276200D01*
X178959600Y-16736200D02*
X186579600Y-16736200D01*
X176139600Y-16456200D02*
X177689600Y-16456200D01*
X186579600Y-19276200D02*
X186579600Y-16736200D01*
X178959600Y-16736200D02*
X178959600Y-19276200D01*
X177689600Y-19556200D02*
X176139600Y-19556200D01*
X176139600Y-19556200D02*
X176139600Y-16456200D01*
X178142800Y-116261800D02*
X177642800Y-116261800D01*
X177642800Y-117311800D02*
X178142800Y-117311800D01*
X178142800Y-235006800D02*
X177642800Y-235006800D01*
X177642800Y-236056800D02*
X178142800Y-236056800D01*
X178959600Y-138021200D02*
X186579600Y-138021200D01*
X178959600Y-135481200D02*
X186579600Y-135481200D01*
X176139600Y-135201200D02*
X177689600Y-135201200D01*
X186579600Y-138021200D02*
X186579600Y-135481200D01*
X178959600Y-135481200D02*
X178959600Y-138021200D01*
X177689600Y-138301200D02*
X176139600Y-138301200D01*
X176139600Y-138301200D02*
X176139600Y-135201200D01*
X171262000Y-153955000D02*
X171262000Y-184165000D01*
X171262000Y-184165000D02*
X192042000Y-184165000D01*
X192042000Y-184165000D02*
X192042000Y-153955000D01*
X192042000Y-153955000D02*
X185115333Y-153955000D01*
X185115333Y-153955000D02*
X185115333Y-154405000D01*
X185115333Y-154405000D02*
X178188667Y-154405000D01*
X178188667Y-154405000D02*
X178188667Y-153955000D01*
X178188667Y-153955000D02*
X171262000Y-153955000D01*
X147640000Y-153955000D02*
X147640000Y-184165000D01*
X147640000Y-184165000D02*
X168420000Y-184165000D01*
X168420000Y-184165000D02*
X168420000Y-153955000D01*
X168420000Y-153955000D02*
X161493333Y-153955000D01*
X161493333Y-153955000D02*
X161493333Y-154405000D01*
X161493333Y-154405000D02*
X154566667Y-154405000D01*
X154566667Y-154405000D02*
X154566667Y-153955000D01*
X154566667Y-153955000D02*
X147640000Y-153955000D01*
X155337600Y-138021200D02*
X162957600Y-138021200D01*
X155337600Y-135481200D02*
X162957600Y-135481200D01*
X152517600Y-135201200D02*
X154067600Y-135201200D01*
X162957600Y-138021200D02*
X162957600Y-135481200D01*
X155337600Y-135481200D02*
X155337600Y-138021200D01*
X154067600Y-138301200D02*
X152517600Y-138301200D01*
X152517600Y-138301200D02*
X152517600Y-135201200D01*
X154520800Y-235006800D02*
X154020800Y-235006800D01*
X154020800Y-236056800D02*
X154520800Y-236056800D01*
X154520800Y-116261800D02*
X154020800Y-116261800D01*
X154020800Y-117311800D02*
X154520800Y-117311800D01*
X155337600Y-19276200D02*
X162957600Y-19276200D01*
X155337600Y-16736200D02*
X162957600Y-16736200D01*
X152517600Y-16456200D02*
X154067600Y-16456200D01*
X162957600Y-19276200D02*
X162957600Y-16736200D01*
X155337600Y-16736200D02*
X155337600Y-19276200D01*
X154067600Y-19556200D02*
X152517600Y-19556200D01*
X152517600Y-19556200D02*
X152517600Y-16456200D01*
X147640000Y-35210000D02*
X147640000Y-65420000D01*
X147640000Y-65420000D02*
X168420000Y-65420000D01*
X168420000Y-65420000D02*
X168420000Y-35210000D01*
X168420000Y-35210000D02*
X161493333Y-35210000D01*
X161493333Y-35210000D02*
X161493333Y-35660000D01*
X161493333Y-35660000D02*
X154566667Y-35660000D01*
X154566667Y-35660000D02*
X154566667Y-35210000D01*
X154566667Y-35210000D02*
X147640000Y-35210000D01*
X76774000Y-35210000D02*
X76774000Y-65420000D01*
X76774000Y-65420000D02*
X97554000Y-65420000D01*
X97554000Y-65420000D02*
X97554000Y-35210000D01*
X97554000Y-35210000D02*
X90627333Y-35210000D01*
X90627333Y-35210000D02*
X90627333Y-35660000D01*
X90627333Y-35660000D02*
X83700667Y-35660000D01*
X83700667Y-35660000D02*
X83700667Y-35210000D01*
X83700667Y-35210000D02*
X76774000Y-35210000D01*
X84471600Y-19276200D02*
X92091600Y-19276200D01*
X84471600Y-16736200D02*
X92091600Y-16736200D01*
X81651600Y-16456200D02*
X83201600Y-16456200D01*
X92091600Y-19276200D02*
X92091600Y-16736200D01*
X84471600Y-16736200D02*
X84471600Y-19276200D01*
X83201600Y-19556200D02*
X81651600Y-19556200D01*
X81651600Y-19556200D02*
X81651600Y-16456200D01*
X83654800Y-116261800D02*
X83154800Y-116261800D01*
X83154800Y-117311800D02*
X83654800Y-117311800D01*
X83654800Y-235006800D02*
X83154800Y-235006800D01*
X83154800Y-236056800D02*
X83654800Y-236056800D01*
X84471600Y-138021200D02*
X92091600Y-138021200D01*
X84471600Y-135481200D02*
X92091600Y-135481200D01*
X81651600Y-135201200D02*
X83201600Y-135201200D01*
X92091600Y-138021200D02*
X92091600Y-135481200D01*
X84471600Y-135481200D02*
X84471600Y-138021200D01*
X83201600Y-138301200D02*
X81651600Y-138301200D01*
X81651600Y-138301200D02*
X81651600Y-135201200D01*
X76774000Y-153955000D02*
X76774000Y-184165000D01*
X76774000Y-184165000D02*
X97554000Y-184165000D01*
X97554000Y-184165000D02*
X97554000Y-153955000D01*
X97554000Y-153955000D02*
X90627333Y-153955000D01*
X90627333Y-153955000D02*
X90627333Y-154405000D01*
X90627333Y-154405000D02*
X83700667Y-154405000D01*
X83700667Y-154405000D02*
X83700667Y-153955000D01*
X83700667Y-153955000D02*
X76774000Y-153955000D01*
X100396000Y-153955000D02*
X100396000Y-184165000D01*
X100396000Y-184165000D02*
X121176000Y-184165000D01*
X121176000Y-184165000D02*
X121176000Y-153955000D01*
X121176000Y-153955000D02*
X114249333Y-153955000D01*
X114249333Y-153955000D02*
X114249333Y-154405000D01*
X114249333Y-154405000D02*
X107322667Y-154405000D01*
X107322667Y-154405000D02*
X107322667Y-153955000D01*
X107322667Y-153955000D02*
X100396000Y-153955000D01*
X108093600Y-138021200D02*
X115713600Y-138021200D01*
X108093600Y-135481200D02*
X115713600Y-135481200D01*
X105273600Y-135201200D02*
X106823600Y-135201200D01*
X115713600Y-138021200D02*
X115713600Y-135481200D01*
X108093600Y-135481200D02*
X108093600Y-138021200D01*
X106823600Y-138301200D02*
X105273600Y-138301200D01*
X105273600Y-138301200D02*
X105273600Y-135201200D01*
X107276800Y-235006800D02*
X106776800Y-235006800D01*
X106776800Y-236056800D02*
X107276800Y-236056800D01*
X107276800Y-116261800D02*
X106776800Y-116261800D01*
X106776800Y-117311800D02*
X107276800Y-117311800D01*
X108093600Y-19276200D02*
X115713600Y-19276200D01*
X108093600Y-16736200D02*
X115713600Y-16736200D01*
X105273600Y-16456200D02*
X106823600Y-16456200D01*
X115713600Y-19276200D02*
X115713600Y-16736200D01*
X108093600Y-16736200D02*
X108093600Y-19276200D01*
X106823600Y-19556200D02*
X105273600Y-19556200D01*
X105273600Y-19556200D02*
X105273600Y-16456200D01*
X100396000Y-35210000D02*
X100396000Y-65420000D01*
X100396000Y-65420000D02*
X121176000Y-65420000D01*
X121176000Y-65420000D02*
X121176000Y-35210000D01*
X121176000Y-35210000D02*
X114249333Y-35210000D01*
X114249333Y-35210000D02*
X114249333Y-35660000D01*
X114249333Y-35660000D02*
X107322667Y-35660000D01*
X107322667Y-35660000D02*
X107322667Y-35210000D01*
X107322667Y-35210000D02*
X100396000Y-35210000D01*
X53152000Y-35210000D02*
X53152000Y-65420000D01*
X53152000Y-65420000D02*
X73932000Y-65420000D01*
X73932000Y-65420000D02*
X73932000Y-35210000D01*
X73932000Y-35210000D02*
X67005333Y-35210000D01*
X67005333Y-35210000D02*
X67005333Y-35660000D01*
X67005333Y-35660000D02*
X60078667Y-35660000D01*
X60078667Y-35660000D02*
X60078667Y-35210000D01*
X60078667Y-35210000D02*
X53152000Y-35210000D01*
X60849600Y-19276200D02*
X68469600Y-19276200D01*
X60849600Y-16736200D02*
X68469600Y-16736200D01*
X58029600Y-16456200D02*
X59579600Y-16456200D01*
X68469600Y-19276200D02*
X68469600Y-16736200D01*
X60849600Y-16736200D02*
X60849600Y-19276200D01*
X59579600Y-19556200D02*
X58029600Y-19556200D01*
X58029600Y-19556200D02*
X58029600Y-16456200D01*
X60032800Y-116261800D02*
X59532800Y-116261800D01*
X59532800Y-117311800D02*
X60032800Y-117311800D01*
X60032800Y-235006800D02*
X59532800Y-235006800D01*
X59532800Y-236056800D02*
X60032800Y-236056800D01*
X60849600Y-138021200D02*
X68469600Y-138021200D01*
X60849600Y-135481200D02*
X68469600Y-135481200D01*
X58029600Y-135201200D02*
X59579600Y-135201200D01*
X68469600Y-138021200D02*
X68469600Y-135481200D01*
X60849600Y-135481200D02*
X60849600Y-138021200D01*
X59579600Y-138301200D02*
X58029600Y-138301200D01*
X58029600Y-138301200D02*
X58029600Y-135201200D01*
X53152000Y-153955000D02*
X53152000Y-184165000D01*
X53152000Y-184165000D02*
X73932000Y-184165000D01*
X73932000Y-184165000D02*
X73932000Y-153955000D01*
X73932000Y-153955000D02*
X67005333Y-153955000D01*
X67005333Y-153955000D02*
X67005333Y-154405000D01*
X67005333Y-154405000D02*
X60078667Y-154405000D01*
X60078667Y-154405000D02*
X60078667Y-153955000D01*
X60078667Y-153955000D02*
X53152000Y-153955000D01*
X29530000Y-153955000D02*
X29530000Y-184165000D01*
X29530000Y-184165000D02*
X50310000Y-184165000D01*
X50310000Y-184165000D02*
X50310000Y-153955000D01*
X50310000Y-153955000D02*
X43383333Y-153955000D01*
X43383333Y-153955000D02*
X43383333Y-154405000D01*
X43383333Y-154405000D02*
X36456667Y-154405000D01*
X36456667Y-154405000D02*
X36456667Y-153955000D01*
X36456667Y-153955000D02*
X29530000Y-153955000D01*
X37227600Y-138021200D02*
X44847600Y-138021200D01*
X37227600Y-135481200D02*
X44847600Y-135481200D01*
X34407600Y-135201200D02*
X35957600Y-135201200D01*
X44847600Y-138021200D02*
X44847600Y-135481200D01*
X37227600Y-135481200D02*
X37227600Y-138021200D01*
X35957600Y-138301200D02*
X34407600Y-138301200D01*
X34407600Y-138301200D02*
X34407600Y-135201200D01*
X36410800Y-235006800D02*
X35910800Y-235006800D01*
X35910800Y-236056800D02*
X36410800Y-236056800D01*
X36410800Y-116261800D02*
X35910800Y-116261800D01*
X35910800Y-117311800D02*
X36410800Y-117311800D01*
X37227600Y-19276200D02*
X44847600Y-19276200D01*
X37227600Y-16736200D02*
X44847600Y-16736200D01*
X34407600Y-16456200D02*
X35957600Y-16456200D01*
X44847600Y-19276200D02*
X44847600Y-16736200D01*
X37227600Y-16736200D02*
X37227600Y-19276200D01*
X35957600Y-19556200D02*
X34407600Y-19556200D01*
X34407600Y-19556200D02*
X34407600Y-16456200D01*
X29530000Y-35210000D02*
X29530000Y-65420000D01*
X29530000Y-65420000D02*
X50310000Y-65420000D01*
X50310000Y-65420000D02*
X50310000Y-35210000D01*
X50310000Y-35210000D02*
X43383333Y-35210000D01*
X43383333Y-35210000D02*
X43383333Y-35660000D01*
X43383333Y-35660000D02*
X36456667Y-35660000D01*
X36456667Y-35660000D02*
X36456667Y-35210000D01*
X36456667Y-35210000D02*
X29530000Y-35210000D01*
X133493714Y-152097857D02*
X133493714Y-153069286D01*
X133550857Y-153183571D01*
X133608000Y-153240714D01*
X133722286Y-153297857D01*
X133950857Y-153297857D01*
X134065143Y-153240714D01*
X134122286Y-153183571D01*
X134179429Y-153069286D01*
X134179429Y-152097857D01*
X134636572Y-152097857D02*
X135379429Y-152097857D01*
X134979429Y-152555000D01*
X135150857Y-152555000D01*
X135265143Y-152612143D01*
X135322286Y-152669286D01*
X135379429Y-152783571D01*
X135379429Y-153069286D01*
X135322286Y-153183571D01*
X135265143Y-153240714D01*
X135150857Y-153297857D01*
X134808000Y-153297857D01*
X134693714Y-153240714D01*
X134636572Y-153183571D01*
X134950857Y-175831427D02*
X133750857Y-175831427D01*
X133750857Y-175374284D01*
X133808000Y-175259998D01*
X133865143Y-175202855D01*
X133979429Y-175145712D01*
X134150857Y-175145712D01*
X134265143Y-175202855D01*
X134322286Y-175259998D01*
X134379429Y-175374284D01*
X134379429Y-175831427D01*
X134950857Y-174117141D02*
X134322286Y-174117141D01*
X134208000Y-174174284D01*
X134150857Y-174288570D01*
X134150857Y-174517141D01*
X134208000Y-174631427D01*
X134893714Y-174117141D02*
X134950857Y-174231427D01*
X134950857Y-174517141D01*
X134893714Y-174631427D01*
X134779429Y-174688570D01*
X134665143Y-174688570D01*
X134550857Y-174631427D01*
X134493714Y-174517141D01*
X134493714Y-174231427D01*
X134436571Y-174117141D01*
X134950857Y-173545713D02*
X134150857Y-173545713D01*
X134379429Y-173545713D02*
X134265143Y-173488570D01*
X134208000Y-173431427D01*
X134150857Y-173317141D01*
X134150857Y-173202856D01*
X134150857Y-172974284D02*
X134150857Y-172517141D01*
X133750857Y-172802856D02*
X134779429Y-172802856D01*
X134893714Y-172745713D01*
X134950857Y-172631427D01*
X134950857Y-172517141D01*
X134950857Y-172117142D02*
X134150857Y-172117142D01*
X133750857Y-172117142D02*
X133808000Y-172174285D01*
X133865143Y-172117142D01*
X133808000Y-172059999D01*
X133750857Y-172117142D01*
X133865143Y-172117142D01*
X134893714Y-171031427D02*
X134950857Y-171145713D01*
X134950857Y-171374284D01*
X134893714Y-171488570D01*
X134836571Y-171545713D01*
X134722286Y-171602856D01*
X134379429Y-171602856D01*
X134265143Y-171545713D01*
X134208000Y-171488570D01*
X134150857Y-171374284D01*
X134150857Y-171145713D01*
X134208000Y-171031427D01*
X134950857Y-170345713D02*
X134893714Y-170459999D01*
X134779429Y-170517142D01*
X133750857Y-170517142D01*
X134893714Y-169431428D02*
X134950857Y-169545714D01*
X134950857Y-169774285D01*
X134893714Y-169888571D01*
X134779429Y-169945714D01*
X134322286Y-169945714D01*
X134208000Y-169888571D01*
X134150857Y-169774285D01*
X134150857Y-169545714D01*
X134208000Y-169431428D01*
X134322286Y-169374285D01*
X134436571Y-169374285D01*
X134550857Y-169945714D01*
X135065143Y-169145714D02*
X135065143Y-168231428D01*
X134950857Y-167945714D02*
X133750857Y-167945714D01*
X133750857Y-167488571D01*
X133808000Y-167374285D01*
X133865143Y-167317142D01*
X133979429Y-167259999D01*
X134150857Y-167259999D01*
X134265143Y-167317142D01*
X134322286Y-167374285D01*
X134379429Y-167488571D01*
X134379429Y-167945714D01*
X134950857Y-166745714D02*
X133750857Y-166745714D01*
X134950857Y-166231428D02*
X134322286Y-166231428D01*
X134208000Y-166288571D01*
X134150857Y-166402857D01*
X134150857Y-166574285D01*
X134208000Y-166688571D01*
X134265143Y-166745714D01*
X134950857Y-165488571D02*
X134893714Y-165602857D01*
X134836571Y-165660000D01*
X134722286Y-165717143D01*
X134379429Y-165717143D01*
X134265143Y-165660000D01*
X134208000Y-165602857D01*
X134150857Y-165488571D01*
X134150857Y-165317143D01*
X134208000Y-165202857D01*
X134265143Y-165145714D01*
X134379429Y-165088571D01*
X134722286Y-165088571D01*
X134836571Y-165145714D01*
X134893714Y-165202857D01*
X134950857Y-165317143D01*
X134950857Y-165488571D01*
X134150857Y-164745714D02*
X134150857Y-164288571D01*
X133750857Y-164574286D02*
X134779429Y-164574286D01*
X134893714Y-164517143D01*
X134950857Y-164402857D01*
X134950857Y-164288571D01*
X134950857Y-163717143D02*
X134893714Y-163831429D01*
X134836571Y-163888572D01*
X134722286Y-163945715D01*
X134379429Y-163945715D01*
X134265143Y-163888572D01*
X134208000Y-163831429D01*
X134150857Y-163717143D01*
X134150857Y-163545715D01*
X134208000Y-163431429D01*
X134265143Y-163374286D01*
X134379429Y-163317143D01*
X134722286Y-163317143D01*
X134836571Y-163374286D01*
X134893714Y-163431429D01*
X134950857Y-163545715D01*
X134950857Y-163717143D01*
X134150857Y-162802858D02*
X134950857Y-162802858D01*
X134265143Y-162802858D02*
X134208000Y-162745715D01*
X134150857Y-162631429D01*
X134150857Y-162460001D01*
X134208000Y-162345715D01*
X134322286Y-162288572D01*
X134950857Y-162288572D01*
D16*
X132457372Y-235293229D02*
X132800229Y-235293229D01*
X132628800Y-235893229D02*
X132628800Y-235293229D01*
X133000229Y-235893229D02*
X133000229Y-235293229D01*
X133000229Y-235578943D02*
X133343086Y-235578943D01*
X133343086Y-235893229D02*
X133343086Y-235293229D01*
X133943086Y-235893229D02*
X133600229Y-235893229D01*
X133771657Y-235893229D02*
X133771657Y-235293229D01*
X133714514Y-235378943D01*
X133657372Y-235436086D01*
X133600229Y-235464657D01*
X132799914Y-234863429D02*
X132457057Y-234863429D01*
X132628485Y-234863429D02*
X132628485Y-234263429D01*
X132571342Y-234349143D01*
X132514200Y-234406286D01*
X132457057Y-234434857D01*
X133171343Y-234263429D02*
X133228486Y-234263429D01*
X133285629Y-234292000D01*
X133314200Y-234320571D01*
X133342771Y-234377714D01*
X133371343Y-234492000D01*
X133371343Y-234634857D01*
X133342771Y-234749143D01*
X133314200Y-234806286D01*
X133285629Y-234834857D01*
X133228486Y-234863429D01*
X133171343Y-234863429D01*
X133114200Y-234834857D01*
X133085629Y-234806286D01*
X133057057Y-234749143D01*
X133028486Y-234634857D01*
X133028486Y-234492000D01*
X133057057Y-234377714D01*
X133085629Y-234320571D01*
X133114200Y-234292000D01*
X133171343Y-234263429D01*
X133628486Y-234863429D02*
X133628486Y-234263429D01*
X133971343Y-234863429D02*
X133714200Y-234520571D01*
X133971343Y-234263429D02*
X133628486Y-234606286D01*
X132457372Y-116548229D02*
X132800229Y-116548229D01*
X132628800Y-117148229D02*
X132628800Y-116548229D01*
X133000229Y-117148229D02*
X133000229Y-116548229D01*
X133000229Y-116833943D02*
X133343086Y-116833943D01*
X133343086Y-117148229D02*
X133343086Y-116548229D01*
X133943086Y-117148229D02*
X133600229Y-117148229D01*
X133771657Y-117148229D02*
X133771657Y-116548229D01*
X133714514Y-116633943D01*
X133657372Y-116691086D01*
X133600229Y-116719657D01*
X132799914Y-116118429D02*
X132457057Y-116118429D01*
X132628485Y-116118429D02*
X132628485Y-115518429D01*
X132571342Y-115604143D01*
X132514200Y-115661286D01*
X132457057Y-115689857D01*
X133171343Y-115518429D02*
X133228486Y-115518429D01*
X133285629Y-115547000D01*
X133314200Y-115575571D01*
X133342771Y-115632714D01*
X133371343Y-115747000D01*
X133371343Y-115889857D01*
X133342771Y-116004143D01*
X133314200Y-116061286D01*
X133285629Y-116089857D01*
X133228486Y-116118429D01*
X133171343Y-116118429D01*
X133114200Y-116089857D01*
X133085629Y-116061286D01*
X133057057Y-116004143D01*
X133028486Y-115889857D01*
X133028486Y-115747000D01*
X133057057Y-115632714D01*
X133085629Y-115575571D01*
X133114200Y-115547000D01*
X133171343Y-115518429D01*
X133628486Y-116118429D02*
X133628486Y-115518429D01*
X133971343Y-116118429D02*
X133714200Y-115775571D01*
X133971343Y-115518429D02*
X133628486Y-115861286D01*
D15*
X133493714Y-33352857D02*
X133493714Y-34324286D01*
X133550857Y-34438571D01*
X133608000Y-34495714D01*
X133722286Y-34552857D01*
X133950857Y-34552857D01*
X134065143Y-34495714D01*
X134122286Y-34438571D01*
X134179429Y-34324286D01*
X134179429Y-33352857D01*
X134636572Y-33352857D02*
X135379429Y-33352857D01*
X134979429Y-33810000D01*
X135150857Y-33810000D01*
X135265143Y-33867143D01*
X135322286Y-33924286D01*
X135379429Y-34038571D01*
X135379429Y-34324286D01*
X135322286Y-34438571D01*
X135265143Y-34495714D01*
X135150857Y-34552857D01*
X134808000Y-34552857D01*
X134693714Y-34495714D01*
X134636572Y-34438571D01*
X134950857Y-57086427D02*
X133750857Y-57086427D01*
X133750857Y-56629284D01*
X133808000Y-56514998D01*
X133865143Y-56457855D01*
X133979429Y-56400712D01*
X134150857Y-56400712D01*
X134265143Y-56457855D01*
X134322286Y-56514998D01*
X134379429Y-56629284D01*
X134379429Y-57086427D01*
X134950857Y-55372141D02*
X134322286Y-55372141D01*
X134208000Y-55429284D01*
X134150857Y-55543570D01*
X134150857Y-55772141D01*
X134208000Y-55886427D01*
X134893714Y-55372141D02*
X134950857Y-55486427D01*
X134950857Y-55772141D01*
X134893714Y-55886427D01*
X134779429Y-55943570D01*
X134665143Y-55943570D01*
X134550857Y-55886427D01*
X134493714Y-55772141D01*
X134493714Y-55486427D01*
X134436571Y-55372141D01*
X134950857Y-54800713D02*
X134150857Y-54800713D01*
X134379429Y-54800713D02*
X134265143Y-54743570D01*
X134208000Y-54686427D01*
X134150857Y-54572141D01*
X134150857Y-54457856D01*
X134150857Y-54229284D02*
X134150857Y-53772141D01*
X133750857Y-54057856D02*
X134779429Y-54057856D01*
X134893714Y-54000713D01*
X134950857Y-53886427D01*
X134950857Y-53772141D01*
X134950857Y-53372142D02*
X134150857Y-53372142D01*
X133750857Y-53372142D02*
X133808000Y-53429285D01*
X133865143Y-53372142D01*
X133808000Y-53314999D01*
X133750857Y-53372142D01*
X133865143Y-53372142D01*
X134893714Y-52286427D02*
X134950857Y-52400713D01*
X134950857Y-52629284D01*
X134893714Y-52743570D01*
X134836571Y-52800713D01*
X134722286Y-52857856D01*
X134379429Y-52857856D01*
X134265143Y-52800713D01*
X134208000Y-52743570D01*
X134150857Y-52629284D01*
X134150857Y-52400713D01*
X134208000Y-52286427D01*
X134950857Y-51600713D02*
X134893714Y-51714999D01*
X134779429Y-51772142D01*
X133750857Y-51772142D01*
X134893714Y-50686428D02*
X134950857Y-50800714D01*
X134950857Y-51029285D01*
X134893714Y-51143571D01*
X134779429Y-51200714D01*
X134322286Y-51200714D01*
X134208000Y-51143571D01*
X134150857Y-51029285D01*
X134150857Y-50800714D01*
X134208000Y-50686428D01*
X134322286Y-50629285D01*
X134436571Y-50629285D01*
X134550857Y-51200714D01*
X135065143Y-50400714D02*
X135065143Y-49486428D01*
X134950857Y-49200714D02*
X133750857Y-49200714D01*
X133750857Y-48743571D01*
X133808000Y-48629285D01*
X133865143Y-48572142D01*
X133979429Y-48514999D01*
X134150857Y-48514999D01*
X134265143Y-48572142D01*
X134322286Y-48629285D01*
X134379429Y-48743571D01*
X134379429Y-49200714D01*
X134950857Y-48000714D02*
X133750857Y-48000714D01*
X134950857Y-47486428D02*
X134322286Y-47486428D01*
X134208000Y-47543571D01*
X134150857Y-47657857D01*
X134150857Y-47829285D01*
X134208000Y-47943571D01*
X134265143Y-48000714D01*
X134950857Y-46743571D02*
X134893714Y-46857857D01*
X134836571Y-46915000D01*
X134722286Y-46972143D01*
X134379429Y-46972143D01*
X134265143Y-46915000D01*
X134208000Y-46857857D01*
X134150857Y-46743571D01*
X134150857Y-46572143D01*
X134208000Y-46457857D01*
X134265143Y-46400714D01*
X134379429Y-46343571D01*
X134722286Y-46343571D01*
X134836571Y-46400714D01*
X134893714Y-46457857D01*
X134950857Y-46572143D01*
X134950857Y-46743571D01*
X134150857Y-46000714D02*
X134150857Y-45543571D01*
X133750857Y-45829286D02*
X134779429Y-45829286D01*
X134893714Y-45772143D01*
X134950857Y-45657857D01*
X134950857Y-45543571D01*
X134950857Y-44972143D02*
X134893714Y-45086429D01*
X134836571Y-45143572D01*
X134722286Y-45200715D01*
X134379429Y-45200715D01*
X134265143Y-45143572D01*
X134208000Y-45086429D01*
X134150857Y-44972143D01*
X134150857Y-44800715D01*
X134208000Y-44686429D01*
X134265143Y-44629286D01*
X134379429Y-44572143D01*
X134722286Y-44572143D01*
X134836571Y-44629286D01*
X134893714Y-44686429D01*
X134950857Y-44800715D01*
X134950857Y-44972143D01*
X134150857Y-44057858D02*
X134950857Y-44057858D01*
X134265143Y-44057858D02*
X134208000Y-44000715D01*
X134150857Y-43886429D01*
X134150857Y-43715001D01*
X134208000Y-43600715D01*
X134322286Y-43543572D01*
X134950857Y-43543572D01*
X180737714Y-33352857D02*
X180737714Y-34324286D01*
X180794857Y-34438571D01*
X180852000Y-34495714D01*
X180966286Y-34552857D01*
X181194857Y-34552857D01*
X181309143Y-34495714D01*
X181366286Y-34438571D01*
X181423429Y-34324286D01*
X181423429Y-33352857D01*
X181880572Y-33352857D02*
X182623429Y-33352857D01*
X182223429Y-33810000D01*
X182394857Y-33810000D01*
X182509143Y-33867143D01*
X182566286Y-33924286D01*
X182623429Y-34038571D01*
X182623429Y-34324286D01*
X182566286Y-34438571D01*
X182509143Y-34495714D01*
X182394857Y-34552857D01*
X182052000Y-34552857D01*
X181937714Y-34495714D01*
X181880572Y-34438571D01*
X182194857Y-57086427D02*
X180994857Y-57086427D01*
X180994857Y-56629284D01*
X181052000Y-56514998D01*
X181109143Y-56457855D01*
X181223429Y-56400712D01*
X181394857Y-56400712D01*
X181509143Y-56457855D01*
X181566286Y-56514998D01*
X181623429Y-56629284D01*
X181623429Y-57086427D01*
X182194857Y-55372141D02*
X181566286Y-55372141D01*
X181452000Y-55429284D01*
X181394857Y-55543570D01*
X181394857Y-55772141D01*
X181452000Y-55886427D01*
X182137714Y-55372141D02*
X182194857Y-55486427D01*
X182194857Y-55772141D01*
X182137714Y-55886427D01*
X182023429Y-55943570D01*
X181909143Y-55943570D01*
X181794857Y-55886427D01*
X181737714Y-55772141D01*
X181737714Y-55486427D01*
X181680571Y-55372141D01*
X182194857Y-54800713D02*
X181394857Y-54800713D01*
X181623429Y-54800713D02*
X181509143Y-54743570D01*
X181452000Y-54686427D01*
X181394857Y-54572141D01*
X181394857Y-54457856D01*
X181394857Y-54229284D02*
X181394857Y-53772141D01*
X180994857Y-54057856D02*
X182023429Y-54057856D01*
X182137714Y-54000713D01*
X182194857Y-53886427D01*
X182194857Y-53772141D01*
X182194857Y-53372142D02*
X181394857Y-53372142D01*
X180994857Y-53372142D02*
X181052000Y-53429285D01*
X181109143Y-53372142D01*
X181052000Y-53314999D01*
X180994857Y-53372142D01*
X181109143Y-53372142D01*
X182137714Y-52286427D02*
X182194857Y-52400713D01*
X182194857Y-52629284D01*
X182137714Y-52743570D01*
X182080571Y-52800713D01*
X181966286Y-52857856D01*
X181623429Y-52857856D01*
X181509143Y-52800713D01*
X181452000Y-52743570D01*
X181394857Y-52629284D01*
X181394857Y-52400713D01*
X181452000Y-52286427D01*
X182194857Y-51600713D02*
X182137714Y-51714999D01*
X182023429Y-51772142D01*
X180994857Y-51772142D01*
X182137714Y-50686428D02*
X182194857Y-50800714D01*
X182194857Y-51029285D01*
X182137714Y-51143571D01*
X182023429Y-51200714D01*
X181566286Y-51200714D01*
X181452000Y-51143571D01*
X181394857Y-51029285D01*
X181394857Y-50800714D01*
X181452000Y-50686428D01*
X181566286Y-50629285D01*
X181680571Y-50629285D01*
X181794857Y-51200714D01*
X182309143Y-50400714D02*
X182309143Y-49486428D01*
X182194857Y-49200714D02*
X180994857Y-49200714D01*
X180994857Y-48743571D01*
X181052000Y-48629285D01*
X181109143Y-48572142D01*
X181223429Y-48514999D01*
X181394857Y-48514999D01*
X181509143Y-48572142D01*
X181566286Y-48629285D01*
X181623429Y-48743571D01*
X181623429Y-49200714D01*
X182194857Y-48000714D02*
X180994857Y-48000714D01*
X182194857Y-47486428D02*
X181566286Y-47486428D01*
X181452000Y-47543571D01*
X181394857Y-47657857D01*
X181394857Y-47829285D01*
X181452000Y-47943571D01*
X181509143Y-48000714D01*
X182194857Y-46743571D02*
X182137714Y-46857857D01*
X182080571Y-46915000D01*
X181966286Y-46972143D01*
X181623429Y-46972143D01*
X181509143Y-46915000D01*
X181452000Y-46857857D01*
X181394857Y-46743571D01*
X181394857Y-46572143D01*
X181452000Y-46457857D01*
X181509143Y-46400714D01*
X181623429Y-46343571D01*
X181966286Y-46343571D01*
X182080571Y-46400714D01*
X182137714Y-46457857D01*
X182194857Y-46572143D01*
X182194857Y-46743571D01*
X181394857Y-46000714D02*
X181394857Y-45543571D01*
X180994857Y-45829286D02*
X182023429Y-45829286D01*
X182137714Y-45772143D01*
X182194857Y-45657857D01*
X182194857Y-45543571D01*
X182194857Y-44972143D02*
X182137714Y-45086429D01*
X182080571Y-45143572D01*
X181966286Y-45200715D01*
X181623429Y-45200715D01*
X181509143Y-45143572D01*
X181452000Y-45086429D01*
X181394857Y-44972143D01*
X181394857Y-44800715D01*
X181452000Y-44686429D01*
X181509143Y-44629286D01*
X181623429Y-44572143D01*
X181966286Y-44572143D01*
X182080571Y-44629286D01*
X182137714Y-44686429D01*
X182194857Y-44800715D01*
X182194857Y-44972143D01*
X181394857Y-44057858D02*
X182194857Y-44057858D01*
X181509143Y-44057858D02*
X181452000Y-44000715D01*
X181394857Y-43886429D01*
X181394857Y-43715001D01*
X181452000Y-43600715D01*
X181566286Y-43543572D01*
X182194857Y-43543572D01*
D16*
X179701372Y-116548229D02*
X180044229Y-116548229D01*
X179872800Y-117148229D02*
X179872800Y-116548229D01*
X180244229Y-117148229D02*
X180244229Y-116548229D01*
X180244229Y-116833943D02*
X180587086Y-116833943D01*
X180587086Y-117148229D02*
X180587086Y-116548229D01*
X181187086Y-117148229D02*
X180844229Y-117148229D01*
X181015657Y-117148229D02*
X181015657Y-116548229D01*
X180958514Y-116633943D01*
X180901372Y-116691086D01*
X180844229Y-116719657D01*
X180043914Y-116118429D02*
X179701057Y-116118429D01*
X179872485Y-116118429D02*
X179872485Y-115518429D01*
X179815342Y-115604143D01*
X179758200Y-115661286D01*
X179701057Y-115689857D01*
X180415343Y-115518429D02*
X180472486Y-115518429D01*
X180529629Y-115547000D01*
X180558200Y-115575571D01*
X180586771Y-115632714D01*
X180615343Y-115747000D01*
X180615343Y-115889857D01*
X180586771Y-116004143D01*
X180558200Y-116061286D01*
X180529629Y-116089857D01*
X180472486Y-116118429D01*
X180415343Y-116118429D01*
X180358200Y-116089857D01*
X180329629Y-116061286D01*
X180301057Y-116004143D01*
X180272486Y-115889857D01*
X180272486Y-115747000D01*
X180301057Y-115632714D01*
X180329629Y-115575571D01*
X180358200Y-115547000D01*
X180415343Y-115518429D01*
X180872486Y-116118429D02*
X180872486Y-115518429D01*
X181215343Y-116118429D02*
X180958200Y-115775571D01*
X181215343Y-115518429D02*
X180872486Y-115861286D01*
X179701372Y-235293229D02*
X180044229Y-235293229D01*
X179872800Y-235893229D02*
X179872800Y-235293229D01*
X180244229Y-235893229D02*
X180244229Y-235293229D01*
X180244229Y-235578943D02*
X180587086Y-235578943D01*
X180587086Y-235893229D02*
X180587086Y-235293229D01*
X181187086Y-235893229D02*
X180844229Y-235893229D01*
X181015657Y-235893229D02*
X181015657Y-235293229D01*
X180958514Y-235378943D01*
X180901372Y-235436086D01*
X180844229Y-235464657D01*
X180043914Y-234863429D02*
X179701057Y-234863429D01*
X179872485Y-234863429D02*
X179872485Y-234263429D01*
X179815342Y-234349143D01*
X179758200Y-234406286D01*
X179701057Y-234434857D01*
X180415343Y-234263429D02*
X180472486Y-234263429D01*
X180529629Y-234292000D01*
X180558200Y-234320571D01*
X180586771Y-234377714D01*
X180615343Y-234492000D01*
X180615343Y-234634857D01*
X180586771Y-234749143D01*
X180558200Y-234806286D01*
X180529629Y-234834857D01*
X180472486Y-234863429D01*
X180415343Y-234863429D01*
X180358200Y-234834857D01*
X180329629Y-234806286D01*
X180301057Y-234749143D01*
X180272486Y-234634857D01*
X180272486Y-234492000D01*
X180301057Y-234377714D01*
X180329629Y-234320571D01*
X180358200Y-234292000D01*
X180415343Y-234263429D01*
X180872486Y-234863429D02*
X180872486Y-234263429D01*
X181215343Y-234863429D02*
X180958200Y-234520571D01*
X181215343Y-234263429D02*
X180872486Y-234606286D01*
D15*
X180737714Y-152097857D02*
X180737714Y-153069286D01*
X180794857Y-153183571D01*
X180852000Y-153240714D01*
X180966286Y-153297857D01*
X181194857Y-153297857D01*
X181309143Y-153240714D01*
X181366286Y-153183571D01*
X181423429Y-153069286D01*
X181423429Y-152097857D01*
X181880572Y-152097857D02*
X182623429Y-152097857D01*
X182223429Y-152555000D01*
X182394857Y-152555000D01*
X182509143Y-152612143D01*
X182566286Y-152669286D01*
X182623429Y-152783571D01*
X182623429Y-153069286D01*
X182566286Y-153183571D01*
X182509143Y-153240714D01*
X182394857Y-153297857D01*
X182052000Y-153297857D01*
X181937714Y-153240714D01*
X181880572Y-153183571D01*
X182194857Y-175831427D02*
X180994857Y-175831427D01*
X180994857Y-175374284D01*
X181052000Y-175259998D01*
X181109143Y-175202855D01*
X181223429Y-175145712D01*
X181394857Y-175145712D01*
X181509143Y-175202855D01*
X181566286Y-175259998D01*
X181623429Y-175374284D01*
X181623429Y-175831427D01*
X182194857Y-174117141D02*
X181566286Y-174117141D01*
X181452000Y-174174284D01*
X181394857Y-174288570D01*
X181394857Y-174517141D01*
X181452000Y-174631427D01*
X182137714Y-174117141D02*
X182194857Y-174231427D01*
X182194857Y-174517141D01*
X182137714Y-174631427D01*
X182023429Y-174688570D01*
X181909143Y-174688570D01*
X181794857Y-174631427D01*
X181737714Y-174517141D01*
X181737714Y-174231427D01*
X181680571Y-174117141D01*
X182194857Y-173545713D02*
X181394857Y-173545713D01*
X181623429Y-173545713D02*
X181509143Y-173488570D01*
X181452000Y-173431427D01*
X181394857Y-173317141D01*
X181394857Y-173202856D01*
X181394857Y-172974284D02*
X181394857Y-172517141D01*
X180994857Y-172802856D02*
X182023429Y-172802856D01*
X182137714Y-172745713D01*
X182194857Y-172631427D01*
X182194857Y-172517141D01*
X182194857Y-172117142D02*
X181394857Y-172117142D01*
X180994857Y-172117142D02*
X181052000Y-172174285D01*
X181109143Y-172117142D01*
X181052000Y-172059999D01*
X180994857Y-172117142D01*
X181109143Y-172117142D01*
X182137714Y-171031427D02*
X182194857Y-171145713D01*
X182194857Y-171374284D01*
X182137714Y-171488570D01*
X182080571Y-171545713D01*
X181966286Y-171602856D01*
X181623429Y-171602856D01*
X181509143Y-171545713D01*
X181452000Y-171488570D01*
X181394857Y-171374284D01*
X181394857Y-171145713D01*
X181452000Y-171031427D01*
X182194857Y-170345713D02*
X182137714Y-170459999D01*
X182023429Y-170517142D01*
X180994857Y-170517142D01*
X182137714Y-169431428D02*
X182194857Y-169545714D01*
X182194857Y-169774285D01*
X182137714Y-169888571D01*
X182023429Y-169945714D01*
X181566286Y-169945714D01*
X181452000Y-169888571D01*
X181394857Y-169774285D01*
X181394857Y-169545714D01*
X181452000Y-169431428D01*
X181566286Y-169374285D01*
X181680571Y-169374285D01*
X181794857Y-169945714D01*
X182309143Y-169145714D02*
X182309143Y-168231428D01*
X182194857Y-167945714D02*
X180994857Y-167945714D01*
X180994857Y-167488571D01*
X181052000Y-167374285D01*
X181109143Y-167317142D01*
X181223429Y-167259999D01*
X181394857Y-167259999D01*
X181509143Y-167317142D01*
X181566286Y-167374285D01*
X181623429Y-167488571D01*
X181623429Y-167945714D01*
X182194857Y-166745714D02*
X180994857Y-166745714D01*
X182194857Y-166231428D02*
X181566286Y-166231428D01*
X181452000Y-166288571D01*
X181394857Y-166402857D01*
X181394857Y-166574285D01*
X181452000Y-166688571D01*
X181509143Y-166745714D01*
X182194857Y-165488571D02*
X182137714Y-165602857D01*
X182080571Y-165660000D01*
X181966286Y-165717143D01*
X181623429Y-165717143D01*
X181509143Y-165660000D01*
X181452000Y-165602857D01*
X181394857Y-165488571D01*
X181394857Y-165317143D01*
X181452000Y-165202857D01*
X181509143Y-165145714D01*
X181623429Y-165088571D01*
X181966286Y-165088571D01*
X182080571Y-165145714D01*
X182137714Y-165202857D01*
X182194857Y-165317143D01*
X182194857Y-165488571D01*
X181394857Y-164745714D02*
X181394857Y-164288571D01*
X180994857Y-164574286D02*
X182023429Y-164574286D01*
X182137714Y-164517143D01*
X182194857Y-164402857D01*
X182194857Y-164288571D01*
X182194857Y-163717143D02*
X182137714Y-163831429D01*
X182080571Y-163888572D01*
X181966286Y-163945715D01*
X181623429Y-163945715D01*
X181509143Y-163888572D01*
X181452000Y-163831429D01*
X181394857Y-163717143D01*
X181394857Y-163545715D01*
X181452000Y-163431429D01*
X181509143Y-163374286D01*
X181623429Y-163317143D01*
X181966286Y-163317143D01*
X182080571Y-163374286D01*
X182137714Y-163431429D01*
X182194857Y-163545715D01*
X182194857Y-163717143D01*
X181394857Y-162802858D02*
X182194857Y-162802858D01*
X181509143Y-162802858D02*
X181452000Y-162745715D01*
X181394857Y-162631429D01*
X181394857Y-162460001D01*
X181452000Y-162345715D01*
X181566286Y-162288572D01*
X182194857Y-162288572D01*
X157115714Y-152097857D02*
X157115714Y-153069286D01*
X157172857Y-153183571D01*
X157230000Y-153240714D01*
X157344286Y-153297857D01*
X157572857Y-153297857D01*
X157687143Y-153240714D01*
X157744286Y-153183571D01*
X157801429Y-153069286D01*
X157801429Y-152097857D01*
X158258572Y-152097857D02*
X159001429Y-152097857D01*
X158601429Y-152555000D01*
X158772857Y-152555000D01*
X158887143Y-152612143D01*
X158944286Y-152669286D01*
X159001429Y-152783571D01*
X159001429Y-153069286D01*
X158944286Y-153183571D01*
X158887143Y-153240714D01*
X158772857Y-153297857D01*
X158430000Y-153297857D01*
X158315714Y-153240714D01*
X158258572Y-153183571D01*
X158572857Y-175831427D02*
X157372857Y-175831427D01*
X157372857Y-175374284D01*
X157430000Y-175259998D01*
X157487143Y-175202855D01*
X157601429Y-175145712D01*
X157772857Y-175145712D01*
X157887143Y-175202855D01*
X157944286Y-175259998D01*
X158001429Y-175374284D01*
X158001429Y-175831427D01*
X158572857Y-174117141D02*
X157944286Y-174117141D01*
X157830000Y-174174284D01*
X157772857Y-174288570D01*
X157772857Y-174517141D01*
X157830000Y-174631427D01*
X158515714Y-174117141D02*
X158572857Y-174231427D01*
X158572857Y-174517141D01*
X158515714Y-174631427D01*
X158401429Y-174688570D01*
X158287143Y-174688570D01*
X158172857Y-174631427D01*
X158115714Y-174517141D01*
X158115714Y-174231427D01*
X158058571Y-174117141D01*
X158572857Y-173545713D02*
X157772857Y-173545713D01*
X158001429Y-173545713D02*
X157887143Y-173488570D01*
X157830000Y-173431427D01*
X157772857Y-173317141D01*
X157772857Y-173202856D01*
X157772857Y-172974284D02*
X157772857Y-172517141D01*
X157372857Y-172802856D02*
X158401429Y-172802856D01*
X158515714Y-172745713D01*
X158572857Y-172631427D01*
X158572857Y-172517141D01*
X158572857Y-172117142D02*
X157772857Y-172117142D01*
X157372857Y-172117142D02*
X157430000Y-172174285D01*
X157487143Y-172117142D01*
X157430000Y-172059999D01*
X157372857Y-172117142D01*
X157487143Y-172117142D01*
X158515714Y-171031427D02*
X158572857Y-171145713D01*
X158572857Y-171374284D01*
X158515714Y-171488570D01*
X158458571Y-171545713D01*
X158344286Y-171602856D01*
X158001429Y-171602856D01*
X157887143Y-171545713D01*
X157830000Y-171488570D01*
X157772857Y-171374284D01*
X157772857Y-171145713D01*
X157830000Y-171031427D01*
X158572857Y-170345713D02*
X158515714Y-170459999D01*
X158401429Y-170517142D01*
X157372857Y-170517142D01*
X158515714Y-169431428D02*
X158572857Y-169545714D01*
X158572857Y-169774285D01*
X158515714Y-169888571D01*
X158401429Y-169945714D01*
X157944286Y-169945714D01*
X157830000Y-169888571D01*
X157772857Y-169774285D01*
X157772857Y-169545714D01*
X157830000Y-169431428D01*
X157944286Y-169374285D01*
X158058571Y-169374285D01*
X158172857Y-169945714D01*
X158687143Y-169145714D02*
X158687143Y-168231428D01*
X158572857Y-167945714D02*
X157372857Y-167945714D01*
X157372857Y-167488571D01*
X157430000Y-167374285D01*
X157487143Y-167317142D01*
X157601429Y-167259999D01*
X157772857Y-167259999D01*
X157887143Y-167317142D01*
X157944286Y-167374285D01*
X158001429Y-167488571D01*
X158001429Y-167945714D01*
X158572857Y-166745714D02*
X157372857Y-166745714D01*
X158572857Y-166231428D02*
X157944286Y-166231428D01*
X157830000Y-166288571D01*
X157772857Y-166402857D01*
X157772857Y-166574285D01*
X157830000Y-166688571D01*
X157887143Y-166745714D01*
X158572857Y-165488571D02*
X158515714Y-165602857D01*
X158458571Y-165660000D01*
X158344286Y-165717143D01*
X158001429Y-165717143D01*
X157887143Y-165660000D01*
X157830000Y-165602857D01*
X157772857Y-165488571D01*
X157772857Y-165317143D01*
X157830000Y-165202857D01*
X157887143Y-165145714D01*
X158001429Y-165088571D01*
X158344286Y-165088571D01*
X158458571Y-165145714D01*
X158515714Y-165202857D01*
X158572857Y-165317143D01*
X158572857Y-165488571D01*
X157772857Y-164745714D02*
X157772857Y-164288571D01*
X157372857Y-164574286D02*
X158401429Y-164574286D01*
X158515714Y-164517143D01*
X158572857Y-164402857D01*
X158572857Y-164288571D01*
X158572857Y-163717143D02*
X158515714Y-163831429D01*
X158458571Y-163888572D01*
X158344286Y-163945715D01*
X158001429Y-163945715D01*
X157887143Y-163888572D01*
X157830000Y-163831429D01*
X157772857Y-163717143D01*
X157772857Y-163545715D01*
X157830000Y-163431429D01*
X157887143Y-163374286D01*
X158001429Y-163317143D01*
X158344286Y-163317143D01*
X158458571Y-163374286D01*
X158515714Y-163431429D01*
X158572857Y-163545715D01*
X158572857Y-163717143D01*
X157772857Y-162802858D02*
X158572857Y-162802858D01*
X157887143Y-162802858D02*
X157830000Y-162745715D01*
X157772857Y-162631429D01*
X157772857Y-162460001D01*
X157830000Y-162345715D01*
X157944286Y-162288572D01*
X158572857Y-162288572D01*
D16*
X156079372Y-235293229D02*
X156422229Y-235293229D01*
X156250800Y-235893229D02*
X156250800Y-235293229D01*
X156622229Y-235893229D02*
X156622229Y-235293229D01*
X156622229Y-235578943D02*
X156965086Y-235578943D01*
X156965086Y-235893229D02*
X156965086Y-235293229D01*
X157565086Y-235893229D02*
X157222229Y-235893229D01*
X157393657Y-235893229D02*
X157393657Y-235293229D01*
X157336514Y-235378943D01*
X157279372Y-235436086D01*
X157222229Y-235464657D01*
X156421914Y-234863429D02*
X156079057Y-234863429D01*
X156250485Y-234863429D02*
X156250485Y-234263429D01*
X156193342Y-234349143D01*
X156136200Y-234406286D01*
X156079057Y-234434857D01*
X156793343Y-234263429D02*
X156850486Y-234263429D01*
X156907629Y-234292000D01*
X156936200Y-234320571D01*
X156964771Y-234377714D01*
X156993343Y-234492000D01*
X156993343Y-234634857D01*
X156964771Y-234749143D01*
X156936200Y-234806286D01*
X156907629Y-234834857D01*
X156850486Y-234863429D01*
X156793343Y-234863429D01*
X156736200Y-234834857D01*
X156707629Y-234806286D01*
X156679057Y-234749143D01*
X156650486Y-234634857D01*
X156650486Y-234492000D01*
X156679057Y-234377714D01*
X156707629Y-234320571D01*
X156736200Y-234292000D01*
X156793343Y-234263429D01*
X157250486Y-234863429D02*
X157250486Y-234263429D01*
X157593343Y-234863429D02*
X157336200Y-234520571D01*
X157593343Y-234263429D02*
X157250486Y-234606286D01*
X156079372Y-116548229D02*
X156422229Y-116548229D01*
X156250800Y-117148229D02*
X156250800Y-116548229D01*
X156622229Y-117148229D02*
X156622229Y-116548229D01*
X156622229Y-116833943D02*
X156965086Y-116833943D01*
X156965086Y-117148229D02*
X156965086Y-116548229D01*
X157565086Y-117148229D02*
X157222229Y-117148229D01*
X157393657Y-117148229D02*
X157393657Y-116548229D01*
X157336514Y-116633943D01*
X157279372Y-116691086D01*
X157222229Y-116719657D01*
X156421914Y-116118429D02*
X156079057Y-116118429D01*
X156250485Y-116118429D02*
X156250485Y-115518429D01*
X156193342Y-115604143D01*
X156136200Y-115661286D01*
X156079057Y-115689857D01*
X156793343Y-115518429D02*
X156850486Y-115518429D01*
X156907629Y-115547000D01*
X156936200Y-115575571D01*
X156964771Y-115632714D01*
X156993343Y-115747000D01*
X156993343Y-115889857D01*
X156964771Y-116004143D01*
X156936200Y-116061286D01*
X156907629Y-116089857D01*
X156850486Y-116118429D01*
X156793343Y-116118429D01*
X156736200Y-116089857D01*
X156707629Y-116061286D01*
X156679057Y-116004143D01*
X156650486Y-115889857D01*
X156650486Y-115747000D01*
X156679057Y-115632714D01*
X156707629Y-115575571D01*
X156736200Y-115547000D01*
X156793343Y-115518429D01*
X157250486Y-116118429D02*
X157250486Y-115518429D01*
X157593343Y-116118429D02*
X157336200Y-115775571D01*
X157593343Y-115518429D02*
X157250486Y-115861286D01*
D15*
X157115714Y-33352857D02*
X157115714Y-34324286D01*
X157172857Y-34438571D01*
X157230000Y-34495714D01*
X157344286Y-34552857D01*
X157572857Y-34552857D01*
X157687143Y-34495714D01*
X157744286Y-34438571D01*
X157801429Y-34324286D01*
X157801429Y-33352857D01*
X158258572Y-33352857D02*
X159001429Y-33352857D01*
X158601429Y-33810000D01*
X158772857Y-33810000D01*
X158887143Y-33867143D01*
X158944286Y-33924286D01*
X159001429Y-34038571D01*
X159001429Y-34324286D01*
X158944286Y-34438571D01*
X158887143Y-34495714D01*
X158772857Y-34552857D01*
X158430000Y-34552857D01*
X158315714Y-34495714D01*
X158258572Y-34438571D01*
X158572857Y-57086427D02*
X157372857Y-57086427D01*
X157372857Y-56629284D01*
X157430000Y-56514998D01*
X157487143Y-56457855D01*
X157601429Y-56400712D01*
X157772857Y-56400712D01*
X157887143Y-56457855D01*
X157944286Y-56514998D01*
X158001429Y-56629284D01*
X158001429Y-57086427D01*
X158572857Y-55372141D02*
X157944286Y-55372141D01*
X157830000Y-55429284D01*
X157772857Y-55543570D01*
X157772857Y-55772141D01*
X157830000Y-55886427D01*
X158515714Y-55372141D02*
X158572857Y-55486427D01*
X158572857Y-55772141D01*
X158515714Y-55886427D01*
X158401429Y-55943570D01*
X158287143Y-55943570D01*
X158172857Y-55886427D01*
X158115714Y-55772141D01*
X158115714Y-55486427D01*
X158058571Y-55372141D01*
X158572857Y-54800713D02*
X157772857Y-54800713D01*
X158001429Y-54800713D02*
X157887143Y-54743570D01*
X157830000Y-54686427D01*
X157772857Y-54572141D01*
X157772857Y-54457856D01*
X157772857Y-54229284D02*
X157772857Y-53772141D01*
X157372857Y-54057856D02*
X158401429Y-54057856D01*
X158515714Y-54000713D01*
X158572857Y-53886427D01*
X158572857Y-53772141D01*
X158572857Y-53372142D02*
X157772857Y-53372142D01*
X157372857Y-53372142D02*
X157430000Y-53429285D01*
X157487143Y-53372142D01*
X157430000Y-53314999D01*
X157372857Y-53372142D01*
X157487143Y-53372142D01*
X158515714Y-52286427D02*
X158572857Y-52400713D01*
X158572857Y-52629284D01*
X158515714Y-52743570D01*
X158458571Y-52800713D01*
X158344286Y-52857856D01*
X158001429Y-52857856D01*
X157887143Y-52800713D01*
X157830000Y-52743570D01*
X157772857Y-52629284D01*
X157772857Y-52400713D01*
X157830000Y-52286427D01*
X158572857Y-51600713D02*
X158515714Y-51714999D01*
X158401429Y-51772142D01*
X157372857Y-51772142D01*
X158515714Y-50686428D02*
X158572857Y-50800714D01*
X158572857Y-51029285D01*
X158515714Y-51143571D01*
X158401429Y-51200714D01*
X157944286Y-51200714D01*
X157830000Y-51143571D01*
X157772857Y-51029285D01*
X157772857Y-50800714D01*
X157830000Y-50686428D01*
X157944286Y-50629285D01*
X158058571Y-50629285D01*
X158172857Y-51200714D01*
X158687143Y-50400714D02*
X158687143Y-49486428D01*
X158572857Y-49200714D02*
X157372857Y-49200714D01*
X157372857Y-48743571D01*
X157430000Y-48629285D01*
X157487143Y-48572142D01*
X157601429Y-48514999D01*
X157772857Y-48514999D01*
X157887143Y-48572142D01*
X157944286Y-48629285D01*
X158001429Y-48743571D01*
X158001429Y-49200714D01*
X158572857Y-48000714D02*
X157372857Y-48000714D01*
X158572857Y-47486428D02*
X157944286Y-47486428D01*
X157830000Y-47543571D01*
X157772857Y-47657857D01*
X157772857Y-47829285D01*
X157830000Y-47943571D01*
X157887143Y-48000714D01*
X158572857Y-46743571D02*
X158515714Y-46857857D01*
X158458571Y-46915000D01*
X158344286Y-46972143D01*
X158001429Y-46972143D01*
X157887143Y-46915000D01*
X157830000Y-46857857D01*
X157772857Y-46743571D01*
X157772857Y-46572143D01*
X157830000Y-46457857D01*
X157887143Y-46400714D01*
X158001429Y-46343571D01*
X158344286Y-46343571D01*
X158458571Y-46400714D01*
X158515714Y-46457857D01*
X158572857Y-46572143D01*
X158572857Y-46743571D01*
X157772857Y-46000714D02*
X157772857Y-45543571D01*
X157372857Y-45829286D02*
X158401429Y-45829286D01*
X158515714Y-45772143D01*
X158572857Y-45657857D01*
X158572857Y-45543571D01*
X158572857Y-44972143D02*
X158515714Y-45086429D01*
X158458571Y-45143572D01*
X158344286Y-45200715D01*
X158001429Y-45200715D01*
X157887143Y-45143572D01*
X157830000Y-45086429D01*
X157772857Y-44972143D01*
X157772857Y-44800715D01*
X157830000Y-44686429D01*
X157887143Y-44629286D01*
X158001429Y-44572143D01*
X158344286Y-44572143D01*
X158458571Y-44629286D01*
X158515714Y-44686429D01*
X158572857Y-44800715D01*
X158572857Y-44972143D01*
X157772857Y-44057858D02*
X158572857Y-44057858D01*
X157887143Y-44057858D02*
X157830000Y-44000715D01*
X157772857Y-43886429D01*
X157772857Y-43715001D01*
X157830000Y-43600715D01*
X157944286Y-43543572D01*
X158572857Y-43543572D01*
X86249714Y-33352857D02*
X86249714Y-34324286D01*
X86306857Y-34438571D01*
X86364000Y-34495714D01*
X86478286Y-34552857D01*
X86706857Y-34552857D01*
X86821143Y-34495714D01*
X86878286Y-34438571D01*
X86935429Y-34324286D01*
X86935429Y-33352857D01*
X87392572Y-33352857D02*
X88135429Y-33352857D01*
X87735429Y-33810000D01*
X87906857Y-33810000D01*
X88021143Y-33867143D01*
X88078286Y-33924286D01*
X88135429Y-34038571D01*
X88135429Y-34324286D01*
X88078286Y-34438571D01*
X88021143Y-34495714D01*
X87906857Y-34552857D01*
X87564000Y-34552857D01*
X87449714Y-34495714D01*
X87392572Y-34438571D01*
X87706857Y-57086427D02*
X86506857Y-57086427D01*
X86506857Y-56629284D01*
X86564000Y-56514998D01*
X86621143Y-56457855D01*
X86735429Y-56400712D01*
X86906857Y-56400712D01*
X87021143Y-56457855D01*
X87078286Y-56514998D01*
X87135429Y-56629284D01*
X87135429Y-57086427D01*
X87706857Y-55372141D02*
X87078286Y-55372141D01*
X86964000Y-55429284D01*
X86906857Y-55543570D01*
X86906857Y-55772141D01*
X86964000Y-55886427D01*
X87649714Y-55372141D02*
X87706857Y-55486427D01*
X87706857Y-55772141D01*
X87649714Y-55886427D01*
X87535429Y-55943570D01*
X87421143Y-55943570D01*
X87306857Y-55886427D01*
X87249714Y-55772141D01*
X87249714Y-55486427D01*
X87192571Y-55372141D01*
X87706857Y-54800713D02*
X86906857Y-54800713D01*
X87135429Y-54800713D02*
X87021143Y-54743570D01*
X86964000Y-54686427D01*
X86906857Y-54572141D01*
X86906857Y-54457856D01*
X86906857Y-54229284D02*
X86906857Y-53772141D01*
X86506857Y-54057856D02*
X87535429Y-54057856D01*
X87649714Y-54000713D01*
X87706857Y-53886427D01*
X87706857Y-53772141D01*
X87706857Y-53372142D02*
X86906857Y-53372142D01*
X86506857Y-53372142D02*
X86564000Y-53429285D01*
X86621143Y-53372142D01*
X86564000Y-53314999D01*
X86506857Y-53372142D01*
X86621143Y-53372142D01*
X87649714Y-52286427D02*
X87706857Y-52400713D01*
X87706857Y-52629284D01*
X87649714Y-52743570D01*
X87592571Y-52800713D01*
X87478286Y-52857856D01*
X87135429Y-52857856D01*
X87021143Y-52800713D01*
X86964000Y-52743570D01*
X86906857Y-52629284D01*
X86906857Y-52400713D01*
X86964000Y-52286427D01*
X87706857Y-51600713D02*
X87649714Y-51714999D01*
X87535429Y-51772142D01*
X86506857Y-51772142D01*
X87649714Y-50686428D02*
X87706857Y-50800714D01*
X87706857Y-51029285D01*
X87649714Y-51143571D01*
X87535429Y-51200714D01*
X87078286Y-51200714D01*
X86964000Y-51143571D01*
X86906857Y-51029285D01*
X86906857Y-50800714D01*
X86964000Y-50686428D01*
X87078286Y-50629285D01*
X87192571Y-50629285D01*
X87306857Y-51200714D01*
X87821143Y-50400714D02*
X87821143Y-49486428D01*
X87706857Y-49200714D02*
X86506857Y-49200714D01*
X86506857Y-48743571D01*
X86564000Y-48629285D01*
X86621143Y-48572142D01*
X86735429Y-48514999D01*
X86906857Y-48514999D01*
X87021143Y-48572142D01*
X87078286Y-48629285D01*
X87135429Y-48743571D01*
X87135429Y-49200714D01*
X87706857Y-48000714D02*
X86506857Y-48000714D01*
X87706857Y-47486428D02*
X87078286Y-47486428D01*
X86964000Y-47543571D01*
X86906857Y-47657857D01*
X86906857Y-47829285D01*
X86964000Y-47943571D01*
X87021143Y-48000714D01*
X87706857Y-46743571D02*
X87649714Y-46857857D01*
X87592571Y-46915000D01*
X87478286Y-46972143D01*
X87135429Y-46972143D01*
X87021143Y-46915000D01*
X86964000Y-46857857D01*
X86906857Y-46743571D01*
X86906857Y-46572143D01*
X86964000Y-46457857D01*
X87021143Y-46400714D01*
X87135429Y-46343571D01*
X87478286Y-46343571D01*
X87592571Y-46400714D01*
X87649714Y-46457857D01*
X87706857Y-46572143D01*
X87706857Y-46743571D01*
X86906857Y-46000714D02*
X86906857Y-45543571D01*
X86506857Y-45829286D02*
X87535429Y-45829286D01*
X87649714Y-45772143D01*
X87706857Y-45657857D01*
X87706857Y-45543571D01*
X87706857Y-44972143D02*
X87649714Y-45086429D01*
X87592571Y-45143572D01*
X87478286Y-45200715D01*
X87135429Y-45200715D01*
X87021143Y-45143572D01*
X86964000Y-45086429D01*
X86906857Y-44972143D01*
X86906857Y-44800715D01*
X86964000Y-44686429D01*
X87021143Y-44629286D01*
X87135429Y-44572143D01*
X87478286Y-44572143D01*
X87592571Y-44629286D01*
X87649714Y-44686429D01*
X87706857Y-44800715D01*
X87706857Y-44972143D01*
X86906857Y-44057858D02*
X87706857Y-44057858D01*
X87021143Y-44057858D02*
X86964000Y-44000715D01*
X86906857Y-43886429D01*
X86906857Y-43715001D01*
X86964000Y-43600715D01*
X87078286Y-43543572D01*
X87706857Y-43543572D01*
D16*
X85213372Y-116548229D02*
X85556229Y-116548229D01*
X85384800Y-117148229D02*
X85384800Y-116548229D01*
X85756229Y-117148229D02*
X85756229Y-116548229D01*
X85756229Y-116833943D02*
X86099086Y-116833943D01*
X86099086Y-117148229D02*
X86099086Y-116548229D01*
X86699086Y-117148229D02*
X86356229Y-117148229D01*
X86527657Y-117148229D02*
X86527657Y-116548229D01*
X86470514Y-116633943D01*
X86413372Y-116691086D01*
X86356229Y-116719657D01*
X85555914Y-116118429D02*
X85213057Y-116118429D01*
X85384485Y-116118429D02*
X85384485Y-115518429D01*
X85327342Y-115604143D01*
X85270200Y-115661286D01*
X85213057Y-115689857D01*
X85927343Y-115518429D02*
X85984486Y-115518429D01*
X86041629Y-115547000D01*
X86070200Y-115575571D01*
X86098771Y-115632714D01*
X86127343Y-115747000D01*
X86127343Y-115889857D01*
X86098771Y-116004143D01*
X86070200Y-116061286D01*
X86041629Y-116089857D01*
X85984486Y-116118429D01*
X85927343Y-116118429D01*
X85870200Y-116089857D01*
X85841629Y-116061286D01*
X85813057Y-116004143D01*
X85784486Y-115889857D01*
X85784486Y-115747000D01*
X85813057Y-115632714D01*
X85841629Y-115575571D01*
X85870200Y-115547000D01*
X85927343Y-115518429D01*
X86384486Y-116118429D02*
X86384486Y-115518429D01*
X86727343Y-116118429D02*
X86470200Y-115775571D01*
X86727343Y-115518429D02*
X86384486Y-115861286D01*
X85213372Y-235293229D02*
X85556229Y-235293229D01*
X85384800Y-235893229D02*
X85384800Y-235293229D01*
X85756229Y-235893229D02*
X85756229Y-235293229D01*
X85756229Y-235578943D02*
X86099086Y-235578943D01*
X86099086Y-235893229D02*
X86099086Y-235293229D01*
X86699086Y-235893229D02*
X86356229Y-235893229D01*
X86527657Y-235893229D02*
X86527657Y-235293229D01*
X86470514Y-235378943D01*
X86413372Y-235436086D01*
X86356229Y-235464657D01*
X85555914Y-234863429D02*
X85213057Y-234863429D01*
X85384485Y-234863429D02*
X85384485Y-234263429D01*
X85327342Y-234349143D01*
X85270200Y-234406286D01*
X85213057Y-234434857D01*
X85927343Y-234263429D02*
X85984486Y-234263429D01*
X86041629Y-234292000D01*
X86070200Y-234320571D01*
X86098771Y-234377714D01*
X86127343Y-234492000D01*
X86127343Y-234634857D01*
X86098771Y-234749143D01*
X86070200Y-234806286D01*
X86041629Y-234834857D01*
X85984486Y-234863429D01*
X85927343Y-234863429D01*
X85870200Y-234834857D01*
X85841629Y-234806286D01*
X85813057Y-234749143D01*
X85784486Y-234634857D01*
X85784486Y-234492000D01*
X85813057Y-234377714D01*
X85841629Y-234320571D01*
X85870200Y-234292000D01*
X85927343Y-234263429D01*
X86384486Y-234863429D02*
X86384486Y-234263429D01*
X86727343Y-234863429D02*
X86470200Y-234520571D01*
X86727343Y-234263429D02*
X86384486Y-234606286D01*
D15*
X86249714Y-152097857D02*
X86249714Y-153069286D01*
X86306857Y-153183571D01*
X86364000Y-153240714D01*
X86478286Y-153297857D01*
X86706857Y-153297857D01*
X86821143Y-153240714D01*
X86878286Y-153183571D01*
X86935429Y-153069286D01*
X86935429Y-152097857D01*
X87392572Y-152097857D02*
X88135429Y-152097857D01*
X87735429Y-152555000D01*
X87906857Y-152555000D01*
X88021143Y-152612143D01*
X88078286Y-152669286D01*
X88135429Y-152783571D01*
X88135429Y-153069286D01*
X88078286Y-153183571D01*
X88021143Y-153240714D01*
X87906857Y-153297857D01*
X87564000Y-153297857D01*
X87449714Y-153240714D01*
X87392572Y-153183571D01*
X87706857Y-175831427D02*
X86506857Y-175831427D01*
X86506857Y-175374284D01*
X86564000Y-175259998D01*
X86621143Y-175202855D01*
X86735429Y-175145712D01*
X86906857Y-175145712D01*
X87021143Y-175202855D01*
X87078286Y-175259998D01*
X87135429Y-175374284D01*
X87135429Y-175831427D01*
X87706857Y-174117141D02*
X87078286Y-174117141D01*
X86964000Y-174174284D01*
X86906857Y-174288570D01*
X86906857Y-174517141D01*
X86964000Y-174631427D01*
X87649714Y-174117141D02*
X87706857Y-174231427D01*
X87706857Y-174517141D01*
X87649714Y-174631427D01*
X87535429Y-174688570D01*
X87421143Y-174688570D01*
X87306857Y-174631427D01*
X87249714Y-174517141D01*
X87249714Y-174231427D01*
X87192571Y-174117141D01*
X87706857Y-173545713D02*
X86906857Y-173545713D01*
X87135429Y-173545713D02*
X87021143Y-173488570D01*
X86964000Y-173431427D01*
X86906857Y-173317141D01*
X86906857Y-173202856D01*
X86906857Y-172974284D02*
X86906857Y-172517141D01*
X86506857Y-172802856D02*
X87535429Y-172802856D01*
X87649714Y-172745713D01*
X87706857Y-172631427D01*
X87706857Y-172517141D01*
X87706857Y-172117142D02*
X86906857Y-172117142D01*
X86506857Y-172117142D02*
X86564000Y-172174285D01*
X86621143Y-172117142D01*
X86564000Y-172059999D01*
X86506857Y-172117142D01*
X86621143Y-172117142D01*
X87649714Y-171031427D02*
X87706857Y-171145713D01*
X87706857Y-171374284D01*
X87649714Y-171488570D01*
X87592571Y-171545713D01*
X87478286Y-171602856D01*
X87135429Y-171602856D01*
X87021143Y-171545713D01*
X86964000Y-171488570D01*
X86906857Y-171374284D01*
X86906857Y-171145713D01*
X86964000Y-171031427D01*
X87706857Y-170345713D02*
X87649714Y-170459999D01*
X87535429Y-170517142D01*
X86506857Y-170517142D01*
X87649714Y-169431428D02*
X87706857Y-169545714D01*
X87706857Y-169774285D01*
X87649714Y-169888571D01*
X87535429Y-169945714D01*
X87078286Y-169945714D01*
X86964000Y-169888571D01*
X86906857Y-169774285D01*
X86906857Y-169545714D01*
X86964000Y-169431428D01*
X87078286Y-169374285D01*
X87192571Y-169374285D01*
X87306857Y-169945714D01*
X87821143Y-169145714D02*
X87821143Y-168231428D01*
X87706857Y-167945714D02*
X86506857Y-167945714D01*
X86506857Y-167488571D01*
X86564000Y-167374285D01*
X86621143Y-167317142D01*
X86735429Y-167259999D01*
X86906857Y-167259999D01*
X87021143Y-167317142D01*
X87078286Y-167374285D01*
X87135429Y-167488571D01*
X87135429Y-167945714D01*
X87706857Y-166745714D02*
X86506857Y-166745714D01*
X87706857Y-166231428D02*
X87078286Y-166231428D01*
X86964000Y-166288571D01*
X86906857Y-166402857D01*
X86906857Y-166574285D01*
X86964000Y-166688571D01*
X87021143Y-166745714D01*
X87706857Y-165488571D02*
X87649714Y-165602857D01*
X87592571Y-165660000D01*
X87478286Y-165717143D01*
X87135429Y-165717143D01*
X87021143Y-165660000D01*
X86964000Y-165602857D01*
X86906857Y-165488571D01*
X86906857Y-165317143D01*
X86964000Y-165202857D01*
X87021143Y-165145714D01*
X87135429Y-165088571D01*
X87478286Y-165088571D01*
X87592571Y-165145714D01*
X87649714Y-165202857D01*
X87706857Y-165317143D01*
X87706857Y-165488571D01*
X86906857Y-164745714D02*
X86906857Y-164288571D01*
X86506857Y-164574286D02*
X87535429Y-164574286D01*
X87649714Y-164517143D01*
X87706857Y-164402857D01*
X87706857Y-164288571D01*
X87706857Y-163717143D02*
X87649714Y-163831429D01*
X87592571Y-163888572D01*
X87478286Y-163945715D01*
X87135429Y-163945715D01*
X87021143Y-163888572D01*
X86964000Y-163831429D01*
X86906857Y-163717143D01*
X86906857Y-163545715D01*
X86964000Y-163431429D01*
X87021143Y-163374286D01*
X87135429Y-163317143D01*
X87478286Y-163317143D01*
X87592571Y-163374286D01*
X87649714Y-163431429D01*
X87706857Y-163545715D01*
X87706857Y-163717143D01*
X86906857Y-162802858D02*
X87706857Y-162802858D01*
X87021143Y-162802858D02*
X86964000Y-162745715D01*
X86906857Y-162631429D01*
X86906857Y-162460001D01*
X86964000Y-162345715D01*
X87078286Y-162288572D01*
X87706857Y-162288572D01*
X109871714Y-152097857D02*
X109871714Y-153069286D01*
X109928857Y-153183571D01*
X109986000Y-153240714D01*
X110100286Y-153297857D01*
X110328857Y-153297857D01*
X110443143Y-153240714D01*
X110500286Y-153183571D01*
X110557429Y-153069286D01*
X110557429Y-152097857D01*
X111014572Y-152097857D02*
X111757429Y-152097857D01*
X111357429Y-152555000D01*
X111528857Y-152555000D01*
X111643143Y-152612143D01*
X111700286Y-152669286D01*
X111757429Y-152783571D01*
X111757429Y-153069286D01*
X111700286Y-153183571D01*
X111643143Y-153240714D01*
X111528857Y-153297857D01*
X111186000Y-153297857D01*
X111071714Y-153240714D01*
X111014572Y-153183571D01*
X111328857Y-175831427D02*
X110128857Y-175831427D01*
X110128857Y-175374284D01*
X110186000Y-175259998D01*
X110243143Y-175202855D01*
X110357429Y-175145712D01*
X110528857Y-175145712D01*
X110643143Y-175202855D01*
X110700286Y-175259998D01*
X110757429Y-175374284D01*
X110757429Y-175831427D01*
X111328857Y-174117141D02*
X110700286Y-174117141D01*
X110586000Y-174174284D01*
X110528857Y-174288570D01*
X110528857Y-174517141D01*
X110586000Y-174631427D01*
X111271714Y-174117141D02*
X111328857Y-174231427D01*
X111328857Y-174517141D01*
X111271714Y-174631427D01*
X111157429Y-174688570D01*
X111043143Y-174688570D01*
X110928857Y-174631427D01*
X110871714Y-174517141D01*
X110871714Y-174231427D01*
X110814571Y-174117141D01*
X111328857Y-173545713D02*
X110528857Y-173545713D01*
X110757429Y-173545713D02*
X110643143Y-173488570D01*
X110586000Y-173431427D01*
X110528857Y-173317141D01*
X110528857Y-173202856D01*
X110528857Y-172974284D02*
X110528857Y-172517141D01*
X110128857Y-172802856D02*
X111157429Y-172802856D01*
X111271714Y-172745713D01*
X111328857Y-172631427D01*
X111328857Y-172517141D01*
X111328857Y-172117142D02*
X110528857Y-172117142D01*
X110128857Y-172117142D02*
X110186000Y-172174285D01*
X110243143Y-172117142D01*
X110186000Y-172059999D01*
X110128857Y-172117142D01*
X110243143Y-172117142D01*
X111271714Y-171031427D02*
X111328857Y-171145713D01*
X111328857Y-171374284D01*
X111271714Y-171488570D01*
X111214571Y-171545713D01*
X111100286Y-171602856D01*
X110757429Y-171602856D01*
X110643143Y-171545713D01*
X110586000Y-171488570D01*
X110528857Y-171374284D01*
X110528857Y-171145713D01*
X110586000Y-171031427D01*
X111328857Y-170345713D02*
X111271714Y-170459999D01*
X111157429Y-170517142D01*
X110128857Y-170517142D01*
X111271714Y-169431428D02*
X111328857Y-169545714D01*
X111328857Y-169774285D01*
X111271714Y-169888571D01*
X111157429Y-169945714D01*
X110700286Y-169945714D01*
X110586000Y-169888571D01*
X110528857Y-169774285D01*
X110528857Y-169545714D01*
X110586000Y-169431428D01*
X110700286Y-169374285D01*
X110814571Y-169374285D01*
X110928857Y-169945714D01*
X111443143Y-169145714D02*
X111443143Y-168231428D01*
X111328857Y-167945714D02*
X110128857Y-167945714D01*
X110128857Y-167488571D01*
X110186000Y-167374285D01*
X110243143Y-167317142D01*
X110357429Y-167259999D01*
X110528857Y-167259999D01*
X110643143Y-167317142D01*
X110700286Y-167374285D01*
X110757429Y-167488571D01*
X110757429Y-167945714D01*
X111328857Y-166745714D02*
X110128857Y-166745714D01*
X111328857Y-166231428D02*
X110700286Y-166231428D01*
X110586000Y-166288571D01*
X110528857Y-166402857D01*
X110528857Y-166574285D01*
X110586000Y-166688571D01*
X110643143Y-166745714D01*
X111328857Y-165488571D02*
X111271714Y-165602857D01*
X111214571Y-165660000D01*
X111100286Y-165717143D01*
X110757429Y-165717143D01*
X110643143Y-165660000D01*
X110586000Y-165602857D01*
X110528857Y-165488571D01*
X110528857Y-165317143D01*
X110586000Y-165202857D01*
X110643143Y-165145714D01*
X110757429Y-165088571D01*
X111100286Y-165088571D01*
X111214571Y-165145714D01*
X111271714Y-165202857D01*
X111328857Y-165317143D01*
X111328857Y-165488571D01*
X110528857Y-164745714D02*
X110528857Y-164288571D01*
X110128857Y-164574286D02*
X111157429Y-164574286D01*
X111271714Y-164517143D01*
X111328857Y-164402857D01*
X111328857Y-164288571D01*
X111328857Y-163717143D02*
X111271714Y-163831429D01*
X111214571Y-163888572D01*
X111100286Y-163945715D01*
X110757429Y-163945715D01*
X110643143Y-163888572D01*
X110586000Y-163831429D01*
X110528857Y-163717143D01*
X110528857Y-163545715D01*
X110586000Y-163431429D01*
X110643143Y-163374286D01*
X110757429Y-163317143D01*
X111100286Y-163317143D01*
X111214571Y-163374286D01*
X111271714Y-163431429D01*
X111328857Y-163545715D01*
X111328857Y-163717143D01*
X110528857Y-162802858D02*
X111328857Y-162802858D01*
X110643143Y-162802858D02*
X110586000Y-162745715D01*
X110528857Y-162631429D01*
X110528857Y-162460001D01*
X110586000Y-162345715D01*
X110700286Y-162288572D01*
X111328857Y-162288572D01*
D16*
X108835372Y-235293229D02*
X109178229Y-235293229D01*
X109006800Y-235893229D02*
X109006800Y-235293229D01*
X109378229Y-235893229D02*
X109378229Y-235293229D01*
X109378229Y-235578943D02*
X109721086Y-235578943D01*
X109721086Y-235893229D02*
X109721086Y-235293229D01*
X110321086Y-235893229D02*
X109978229Y-235893229D01*
X110149657Y-235893229D02*
X110149657Y-235293229D01*
X110092514Y-235378943D01*
X110035372Y-235436086D01*
X109978229Y-235464657D01*
X109177914Y-234863429D02*
X108835057Y-234863429D01*
X109006485Y-234863429D02*
X109006485Y-234263429D01*
X108949342Y-234349143D01*
X108892200Y-234406286D01*
X108835057Y-234434857D01*
X109549343Y-234263429D02*
X109606486Y-234263429D01*
X109663629Y-234292000D01*
X109692200Y-234320571D01*
X109720771Y-234377714D01*
X109749343Y-234492000D01*
X109749343Y-234634857D01*
X109720771Y-234749143D01*
X109692200Y-234806286D01*
X109663629Y-234834857D01*
X109606486Y-234863429D01*
X109549343Y-234863429D01*
X109492200Y-234834857D01*
X109463629Y-234806286D01*
X109435057Y-234749143D01*
X109406486Y-234634857D01*
X109406486Y-234492000D01*
X109435057Y-234377714D01*
X109463629Y-234320571D01*
X109492200Y-234292000D01*
X109549343Y-234263429D01*
X110006486Y-234863429D02*
X110006486Y-234263429D01*
X110349343Y-234863429D02*
X110092200Y-234520571D01*
X110349343Y-234263429D02*
X110006486Y-234606286D01*
X108835372Y-116548229D02*
X109178229Y-116548229D01*
X109006800Y-117148229D02*
X109006800Y-116548229D01*
X109378229Y-117148229D02*
X109378229Y-116548229D01*
X109378229Y-116833943D02*
X109721086Y-116833943D01*
X109721086Y-117148229D02*
X109721086Y-116548229D01*
X110321086Y-117148229D02*
X109978229Y-117148229D01*
X110149657Y-117148229D02*
X110149657Y-116548229D01*
X110092514Y-116633943D01*
X110035372Y-116691086D01*
X109978229Y-116719657D01*
X109177914Y-116118429D02*
X108835057Y-116118429D01*
X109006485Y-116118429D02*
X109006485Y-115518429D01*
X108949342Y-115604143D01*
X108892200Y-115661286D01*
X108835057Y-115689857D01*
X109549343Y-115518429D02*
X109606486Y-115518429D01*
X109663629Y-115547000D01*
X109692200Y-115575571D01*
X109720771Y-115632714D01*
X109749343Y-115747000D01*
X109749343Y-115889857D01*
X109720771Y-116004143D01*
X109692200Y-116061286D01*
X109663629Y-116089857D01*
X109606486Y-116118429D01*
X109549343Y-116118429D01*
X109492200Y-116089857D01*
X109463629Y-116061286D01*
X109435057Y-116004143D01*
X109406486Y-115889857D01*
X109406486Y-115747000D01*
X109435057Y-115632714D01*
X109463629Y-115575571D01*
X109492200Y-115547000D01*
X109549343Y-115518429D01*
X110006486Y-116118429D02*
X110006486Y-115518429D01*
X110349343Y-116118429D02*
X110092200Y-115775571D01*
X110349343Y-115518429D02*
X110006486Y-115861286D01*
D15*
X109871714Y-33352857D02*
X109871714Y-34324286D01*
X109928857Y-34438571D01*
X109986000Y-34495714D01*
X110100286Y-34552857D01*
X110328857Y-34552857D01*
X110443143Y-34495714D01*
X110500286Y-34438571D01*
X110557429Y-34324286D01*
X110557429Y-33352857D01*
X111014572Y-33352857D02*
X111757429Y-33352857D01*
X111357429Y-33810000D01*
X111528857Y-33810000D01*
X111643143Y-33867143D01*
X111700286Y-33924286D01*
X111757429Y-34038571D01*
X111757429Y-34324286D01*
X111700286Y-34438571D01*
X111643143Y-34495714D01*
X111528857Y-34552857D01*
X111186000Y-34552857D01*
X111071714Y-34495714D01*
X111014572Y-34438571D01*
X111328857Y-57086427D02*
X110128857Y-57086427D01*
X110128857Y-56629284D01*
X110186000Y-56514998D01*
X110243143Y-56457855D01*
X110357429Y-56400712D01*
X110528857Y-56400712D01*
X110643143Y-56457855D01*
X110700286Y-56514998D01*
X110757429Y-56629284D01*
X110757429Y-57086427D01*
X111328857Y-55372141D02*
X110700286Y-55372141D01*
X110586000Y-55429284D01*
X110528857Y-55543570D01*
X110528857Y-55772141D01*
X110586000Y-55886427D01*
X111271714Y-55372141D02*
X111328857Y-55486427D01*
X111328857Y-55772141D01*
X111271714Y-55886427D01*
X111157429Y-55943570D01*
X111043143Y-55943570D01*
X110928857Y-55886427D01*
X110871714Y-55772141D01*
X110871714Y-55486427D01*
X110814571Y-55372141D01*
X111328857Y-54800713D02*
X110528857Y-54800713D01*
X110757429Y-54800713D02*
X110643143Y-54743570D01*
X110586000Y-54686427D01*
X110528857Y-54572141D01*
X110528857Y-54457856D01*
X110528857Y-54229284D02*
X110528857Y-53772141D01*
X110128857Y-54057856D02*
X111157429Y-54057856D01*
X111271714Y-54000713D01*
X111328857Y-53886427D01*
X111328857Y-53772141D01*
X111328857Y-53372142D02*
X110528857Y-53372142D01*
X110128857Y-53372142D02*
X110186000Y-53429285D01*
X110243143Y-53372142D01*
X110186000Y-53314999D01*
X110128857Y-53372142D01*
X110243143Y-53372142D01*
X111271714Y-52286427D02*
X111328857Y-52400713D01*
X111328857Y-52629284D01*
X111271714Y-52743570D01*
X111214571Y-52800713D01*
X111100286Y-52857856D01*
X110757429Y-52857856D01*
X110643143Y-52800713D01*
X110586000Y-52743570D01*
X110528857Y-52629284D01*
X110528857Y-52400713D01*
X110586000Y-52286427D01*
X111328857Y-51600713D02*
X111271714Y-51714999D01*
X111157429Y-51772142D01*
X110128857Y-51772142D01*
X111271714Y-50686428D02*
X111328857Y-50800714D01*
X111328857Y-51029285D01*
X111271714Y-51143571D01*
X111157429Y-51200714D01*
X110700286Y-51200714D01*
X110586000Y-51143571D01*
X110528857Y-51029285D01*
X110528857Y-50800714D01*
X110586000Y-50686428D01*
X110700286Y-50629285D01*
X110814571Y-50629285D01*
X110928857Y-51200714D01*
X111443143Y-50400714D02*
X111443143Y-49486428D01*
X111328857Y-49200714D02*
X110128857Y-49200714D01*
X110128857Y-48743571D01*
X110186000Y-48629285D01*
X110243143Y-48572142D01*
X110357429Y-48514999D01*
X110528857Y-48514999D01*
X110643143Y-48572142D01*
X110700286Y-48629285D01*
X110757429Y-48743571D01*
X110757429Y-49200714D01*
X111328857Y-48000714D02*
X110128857Y-48000714D01*
X111328857Y-47486428D02*
X110700286Y-47486428D01*
X110586000Y-47543571D01*
X110528857Y-47657857D01*
X110528857Y-47829285D01*
X110586000Y-47943571D01*
X110643143Y-48000714D01*
X111328857Y-46743571D02*
X111271714Y-46857857D01*
X111214571Y-46915000D01*
X111100286Y-46972143D01*
X110757429Y-46972143D01*
X110643143Y-46915000D01*
X110586000Y-46857857D01*
X110528857Y-46743571D01*
X110528857Y-46572143D01*
X110586000Y-46457857D01*
X110643143Y-46400714D01*
X110757429Y-46343571D01*
X111100286Y-46343571D01*
X111214571Y-46400714D01*
X111271714Y-46457857D01*
X111328857Y-46572143D01*
X111328857Y-46743571D01*
X110528857Y-46000714D02*
X110528857Y-45543571D01*
X110128857Y-45829286D02*
X111157429Y-45829286D01*
X111271714Y-45772143D01*
X111328857Y-45657857D01*
X111328857Y-45543571D01*
X111328857Y-44972143D02*
X111271714Y-45086429D01*
X111214571Y-45143572D01*
X111100286Y-45200715D01*
X110757429Y-45200715D01*
X110643143Y-45143572D01*
X110586000Y-45086429D01*
X110528857Y-44972143D01*
X110528857Y-44800715D01*
X110586000Y-44686429D01*
X110643143Y-44629286D01*
X110757429Y-44572143D01*
X111100286Y-44572143D01*
X111214571Y-44629286D01*
X111271714Y-44686429D01*
X111328857Y-44800715D01*
X111328857Y-44972143D01*
X110528857Y-44057858D02*
X111328857Y-44057858D01*
X110643143Y-44057858D02*
X110586000Y-44000715D01*
X110528857Y-43886429D01*
X110528857Y-43715001D01*
X110586000Y-43600715D01*
X110700286Y-43543572D01*
X111328857Y-43543572D01*
X62627714Y-33352857D02*
X62627714Y-34324286D01*
X62684857Y-34438571D01*
X62742000Y-34495714D01*
X62856286Y-34552857D01*
X63084857Y-34552857D01*
X63199143Y-34495714D01*
X63256286Y-34438571D01*
X63313429Y-34324286D01*
X63313429Y-33352857D01*
X63770572Y-33352857D02*
X64513429Y-33352857D01*
X64113429Y-33810000D01*
X64284857Y-33810000D01*
X64399143Y-33867143D01*
X64456286Y-33924286D01*
X64513429Y-34038571D01*
X64513429Y-34324286D01*
X64456286Y-34438571D01*
X64399143Y-34495714D01*
X64284857Y-34552857D01*
X63942000Y-34552857D01*
X63827714Y-34495714D01*
X63770572Y-34438571D01*
X64084857Y-57086427D02*
X62884857Y-57086427D01*
X62884857Y-56629284D01*
X62942000Y-56514998D01*
X62999143Y-56457855D01*
X63113429Y-56400712D01*
X63284857Y-56400712D01*
X63399143Y-56457855D01*
X63456286Y-56514998D01*
X63513429Y-56629284D01*
X63513429Y-57086427D01*
X64084857Y-55372141D02*
X63456286Y-55372141D01*
X63342000Y-55429284D01*
X63284857Y-55543570D01*
X63284857Y-55772141D01*
X63342000Y-55886427D01*
X64027714Y-55372141D02*
X64084857Y-55486427D01*
X64084857Y-55772141D01*
X64027714Y-55886427D01*
X63913429Y-55943570D01*
X63799143Y-55943570D01*
X63684857Y-55886427D01*
X63627714Y-55772141D01*
X63627714Y-55486427D01*
X63570571Y-55372141D01*
X64084857Y-54800713D02*
X63284857Y-54800713D01*
X63513429Y-54800713D02*
X63399143Y-54743570D01*
X63342000Y-54686427D01*
X63284857Y-54572141D01*
X63284857Y-54457856D01*
X63284857Y-54229284D02*
X63284857Y-53772141D01*
X62884857Y-54057856D02*
X63913429Y-54057856D01*
X64027714Y-54000713D01*
X64084857Y-53886427D01*
X64084857Y-53772141D01*
X64084857Y-53372142D02*
X63284857Y-53372142D01*
X62884857Y-53372142D02*
X62942000Y-53429285D01*
X62999143Y-53372142D01*
X62942000Y-53314999D01*
X62884857Y-53372142D01*
X62999143Y-53372142D01*
X64027714Y-52286427D02*
X64084857Y-52400713D01*
X64084857Y-52629284D01*
X64027714Y-52743570D01*
X63970571Y-52800713D01*
X63856286Y-52857856D01*
X63513429Y-52857856D01*
X63399143Y-52800713D01*
X63342000Y-52743570D01*
X63284857Y-52629284D01*
X63284857Y-52400713D01*
X63342000Y-52286427D01*
X64084857Y-51600713D02*
X64027714Y-51714999D01*
X63913429Y-51772142D01*
X62884857Y-51772142D01*
X64027714Y-50686428D02*
X64084857Y-50800714D01*
X64084857Y-51029285D01*
X64027714Y-51143571D01*
X63913429Y-51200714D01*
X63456286Y-51200714D01*
X63342000Y-51143571D01*
X63284857Y-51029285D01*
X63284857Y-50800714D01*
X63342000Y-50686428D01*
X63456286Y-50629285D01*
X63570571Y-50629285D01*
X63684857Y-51200714D01*
X64199143Y-50400714D02*
X64199143Y-49486428D01*
X64084857Y-49200714D02*
X62884857Y-49200714D01*
X62884857Y-48743571D01*
X62942000Y-48629285D01*
X62999143Y-48572142D01*
X63113429Y-48514999D01*
X63284857Y-48514999D01*
X63399143Y-48572142D01*
X63456286Y-48629285D01*
X63513429Y-48743571D01*
X63513429Y-49200714D01*
X64084857Y-48000714D02*
X62884857Y-48000714D01*
X64084857Y-47486428D02*
X63456286Y-47486428D01*
X63342000Y-47543571D01*
X63284857Y-47657857D01*
X63284857Y-47829285D01*
X63342000Y-47943571D01*
X63399143Y-48000714D01*
X64084857Y-46743571D02*
X64027714Y-46857857D01*
X63970571Y-46915000D01*
X63856286Y-46972143D01*
X63513429Y-46972143D01*
X63399143Y-46915000D01*
X63342000Y-46857857D01*
X63284857Y-46743571D01*
X63284857Y-46572143D01*
X63342000Y-46457857D01*
X63399143Y-46400714D01*
X63513429Y-46343571D01*
X63856286Y-46343571D01*
X63970571Y-46400714D01*
X64027714Y-46457857D01*
X64084857Y-46572143D01*
X64084857Y-46743571D01*
X63284857Y-46000714D02*
X63284857Y-45543571D01*
X62884857Y-45829286D02*
X63913429Y-45829286D01*
X64027714Y-45772143D01*
X64084857Y-45657857D01*
X64084857Y-45543571D01*
X64084857Y-44972143D02*
X64027714Y-45086429D01*
X63970571Y-45143572D01*
X63856286Y-45200715D01*
X63513429Y-45200715D01*
X63399143Y-45143572D01*
X63342000Y-45086429D01*
X63284857Y-44972143D01*
X63284857Y-44800715D01*
X63342000Y-44686429D01*
X63399143Y-44629286D01*
X63513429Y-44572143D01*
X63856286Y-44572143D01*
X63970571Y-44629286D01*
X64027714Y-44686429D01*
X64084857Y-44800715D01*
X64084857Y-44972143D01*
X63284857Y-44057858D02*
X64084857Y-44057858D01*
X63399143Y-44057858D02*
X63342000Y-44000715D01*
X63284857Y-43886429D01*
X63284857Y-43715001D01*
X63342000Y-43600715D01*
X63456286Y-43543572D01*
X64084857Y-43543572D01*
D16*
X61591372Y-116548229D02*
X61934229Y-116548229D01*
X61762800Y-117148229D02*
X61762800Y-116548229D01*
X62134229Y-117148229D02*
X62134229Y-116548229D01*
X62134229Y-116833943D02*
X62477086Y-116833943D01*
X62477086Y-117148229D02*
X62477086Y-116548229D01*
X63077086Y-117148229D02*
X62734229Y-117148229D01*
X62905657Y-117148229D02*
X62905657Y-116548229D01*
X62848514Y-116633943D01*
X62791372Y-116691086D01*
X62734229Y-116719657D01*
X61933914Y-116118429D02*
X61591057Y-116118429D01*
X61762485Y-116118429D02*
X61762485Y-115518429D01*
X61705342Y-115604143D01*
X61648200Y-115661286D01*
X61591057Y-115689857D01*
X62305343Y-115518429D02*
X62362486Y-115518429D01*
X62419629Y-115547000D01*
X62448200Y-115575571D01*
X62476771Y-115632714D01*
X62505343Y-115747000D01*
X62505343Y-115889857D01*
X62476771Y-116004143D01*
X62448200Y-116061286D01*
X62419629Y-116089857D01*
X62362486Y-116118429D01*
X62305343Y-116118429D01*
X62248200Y-116089857D01*
X62219629Y-116061286D01*
X62191057Y-116004143D01*
X62162486Y-115889857D01*
X62162486Y-115747000D01*
X62191057Y-115632714D01*
X62219629Y-115575571D01*
X62248200Y-115547000D01*
X62305343Y-115518429D01*
X62762486Y-116118429D02*
X62762486Y-115518429D01*
X63105343Y-116118429D02*
X62848200Y-115775571D01*
X63105343Y-115518429D02*
X62762486Y-115861286D01*
X61591372Y-235293229D02*
X61934229Y-235293229D01*
X61762800Y-235893229D02*
X61762800Y-235293229D01*
X62134229Y-235893229D02*
X62134229Y-235293229D01*
X62134229Y-235578943D02*
X62477086Y-235578943D01*
X62477086Y-235893229D02*
X62477086Y-235293229D01*
X63077086Y-235893229D02*
X62734229Y-235893229D01*
X62905657Y-235893229D02*
X62905657Y-235293229D01*
X62848514Y-235378943D01*
X62791372Y-235436086D01*
X62734229Y-235464657D01*
X61933914Y-234863429D02*
X61591057Y-234863429D01*
X61762485Y-234863429D02*
X61762485Y-234263429D01*
X61705342Y-234349143D01*
X61648200Y-234406286D01*
X61591057Y-234434857D01*
X62305343Y-234263429D02*
X62362486Y-234263429D01*
X62419629Y-234292000D01*
X62448200Y-234320571D01*
X62476771Y-234377714D01*
X62505343Y-234492000D01*
X62505343Y-234634857D01*
X62476771Y-234749143D01*
X62448200Y-234806286D01*
X62419629Y-234834857D01*
X62362486Y-234863429D01*
X62305343Y-234863429D01*
X62248200Y-234834857D01*
X62219629Y-234806286D01*
X62191057Y-234749143D01*
X62162486Y-234634857D01*
X62162486Y-234492000D01*
X62191057Y-234377714D01*
X62219629Y-234320571D01*
X62248200Y-234292000D01*
X62305343Y-234263429D01*
X62762486Y-234863429D02*
X62762486Y-234263429D01*
X63105343Y-234863429D02*
X62848200Y-234520571D01*
X63105343Y-234263429D02*
X62762486Y-234606286D01*
D15*
X62627714Y-152097857D02*
X62627714Y-153069286D01*
X62684857Y-153183571D01*
X62742000Y-153240714D01*
X62856286Y-153297857D01*
X63084857Y-153297857D01*
X63199143Y-153240714D01*
X63256286Y-153183571D01*
X63313429Y-153069286D01*
X63313429Y-152097857D01*
X63770572Y-152097857D02*
X64513429Y-152097857D01*
X64113429Y-152555000D01*
X64284857Y-152555000D01*
X64399143Y-152612143D01*
X64456286Y-152669286D01*
X64513429Y-152783571D01*
X64513429Y-153069286D01*
X64456286Y-153183571D01*
X64399143Y-153240714D01*
X64284857Y-153297857D01*
X63942000Y-153297857D01*
X63827714Y-153240714D01*
X63770572Y-153183571D01*
X64084857Y-175831427D02*
X62884857Y-175831427D01*
X62884857Y-175374284D01*
X62942000Y-175259998D01*
X62999143Y-175202855D01*
X63113429Y-175145712D01*
X63284857Y-175145712D01*
X63399143Y-175202855D01*
X63456286Y-175259998D01*
X63513429Y-175374284D01*
X63513429Y-175831427D01*
X64084857Y-174117141D02*
X63456286Y-174117141D01*
X63342000Y-174174284D01*
X63284857Y-174288570D01*
X63284857Y-174517141D01*
X63342000Y-174631427D01*
X64027714Y-174117141D02*
X64084857Y-174231427D01*
X64084857Y-174517141D01*
X64027714Y-174631427D01*
X63913429Y-174688570D01*
X63799143Y-174688570D01*
X63684857Y-174631427D01*
X63627714Y-174517141D01*
X63627714Y-174231427D01*
X63570571Y-174117141D01*
X64084857Y-173545713D02*
X63284857Y-173545713D01*
X63513429Y-173545713D02*
X63399143Y-173488570D01*
X63342000Y-173431427D01*
X63284857Y-173317141D01*
X63284857Y-173202856D01*
X63284857Y-172974284D02*
X63284857Y-172517141D01*
X62884857Y-172802856D02*
X63913429Y-172802856D01*
X64027714Y-172745713D01*
X64084857Y-172631427D01*
X64084857Y-172517141D01*
X64084857Y-172117142D02*
X63284857Y-172117142D01*
X62884857Y-172117142D02*
X62942000Y-172174285D01*
X62999143Y-172117142D01*
X62942000Y-172059999D01*
X62884857Y-172117142D01*
X62999143Y-172117142D01*
X64027714Y-171031427D02*
X64084857Y-171145713D01*
X64084857Y-171374284D01*
X64027714Y-171488570D01*
X63970571Y-171545713D01*
X63856286Y-171602856D01*
X63513429Y-171602856D01*
X63399143Y-171545713D01*
X63342000Y-171488570D01*
X63284857Y-171374284D01*
X63284857Y-171145713D01*
X63342000Y-171031427D01*
X64084857Y-170345713D02*
X64027714Y-170459999D01*
X63913429Y-170517142D01*
X62884857Y-170517142D01*
X64027714Y-169431428D02*
X64084857Y-169545714D01*
X64084857Y-169774285D01*
X64027714Y-169888571D01*
X63913429Y-169945714D01*
X63456286Y-169945714D01*
X63342000Y-169888571D01*
X63284857Y-169774285D01*
X63284857Y-169545714D01*
X63342000Y-169431428D01*
X63456286Y-169374285D01*
X63570571Y-169374285D01*
X63684857Y-169945714D01*
X64199143Y-169145714D02*
X64199143Y-168231428D01*
X64084857Y-167945714D02*
X62884857Y-167945714D01*
X62884857Y-167488571D01*
X62942000Y-167374285D01*
X62999143Y-167317142D01*
X63113429Y-167259999D01*
X63284857Y-167259999D01*
X63399143Y-167317142D01*
X63456286Y-167374285D01*
X63513429Y-167488571D01*
X63513429Y-167945714D01*
X64084857Y-166745714D02*
X62884857Y-166745714D01*
X64084857Y-166231428D02*
X63456286Y-166231428D01*
X63342000Y-166288571D01*
X63284857Y-166402857D01*
X63284857Y-166574285D01*
X63342000Y-166688571D01*
X63399143Y-166745714D01*
X64084857Y-165488571D02*
X64027714Y-165602857D01*
X63970571Y-165660000D01*
X63856286Y-165717143D01*
X63513429Y-165717143D01*
X63399143Y-165660000D01*
X63342000Y-165602857D01*
X63284857Y-165488571D01*
X63284857Y-165317143D01*
X63342000Y-165202857D01*
X63399143Y-165145714D01*
X63513429Y-165088571D01*
X63856286Y-165088571D01*
X63970571Y-165145714D01*
X64027714Y-165202857D01*
X64084857Y-165317143D01*
X64084857Y-165488571D01*
X63284857Y-164745714D02*
X63284857Y-164288571D01*
X62884857Y-164574286D02*
X63913429Y-164574286D01*
X64027714Y-164517143D01*
X64084857Y-164402857D01*
X64084857Y-164288571D01*
X64084857Y-163717143D02*
X64027714Y-163831429D01*
X63970571Y-163888572D01*
X63856286Y-163945715D01*
X63513429Y-163945715D01*
X63399143Y-163888572D01*
X63342000Y-163831429D01*
X63284857Y-163717143D01*
X63284857Y-163545715D01*
X63342000Y-163431429D01*
X63399143Y-163374286D01*
X63513429Y-163317143D01*
X63856286Y-163317143D01*
X63970571Y-163374286D01*
X64027714Y-163431429D01*
X64084857Y-163545715D01*
X64084857Y-163717143D01*
X63284857Y-162802858D02*
X64084857Y-162802858D01*
X63399143Y-162802858D02*
X63342000Y-162745715D01*
X63284857Y-162631429D01*
X63284857Y-162460001D01*
X63342000Y-162345715D01*
X63456286Y-162288572D01*
X64084857Y-162288572D01*
X39005714Y-152097857D02*
X39005714Y-153069286D01*
X39062857Y-153183571D01*
X39120000Y-153240714D01*
X39234286Y-153297857D01*
X39462857Y-153297857D01*
X39577143Y-153240714D01*
X39634286Y-153183571D01*
X39691429Y-153069286D01*
X39691429Y-152097857D01*
X40148572Y-152097857D02*
X40891429Y-152097857D01*
X40491429Y-152555000D01*
X40662857Y-152555000D01*
X40777143Y-152612143D01*
X40834286Y-152669286D01*
X40891429Y-152783571D01*
X40891429Y-153069286D01*
X40834286Y-153183571D01*
X40777143Y-153240714D01*
X40662857Y-153297857D01*
X40320000Y-153297857D01*
X40205714Y-153240714D01*
X40148572Y-153183571D01*
X40462857Y-175831427D02*
X39262857Y-175831427D01*
X39262857Y-175374284D01*
X39320000Y-175259998D01*
X39377143Y-175202855D01*
X39491429Y-175145712D01*
X39662857Y-175145712D01*
X39777143Y-175202855D01*
X39834286Y-175259998D01*
X39891429Y-175374284D01*
X39891429Y-175831427D01*
X40462857Y-174117141D02*
X39834286Y-174117141D01*
X39720000Y-174174284D01*
X39662857Y-174288570D01*
X39662857Y-174517141D01*
X39720000Y-174631427D01*
X40405714Y-174117141D02*
X40462857Y-174231427D01*
X40462857Y-174517141D01*
X40405714Y-174631427D01*
X40291429Y-174688570D01*
X40177143Y-174688570D01*
X40062857Y-174631427D01*
X40005714Y-174517141D01*
X40005714Y-174231427D01*
X39948571Y-174117141D01*
X40462857Y-173545713D02*
X39662857Y-173545713D01*
X39891429Y-173545713D02*
X39777143Y-173488570D01*
X39720000Y-173431427D01*
X39662857Y-173317141D01*
X39662857Y-173202856D01*
X39662857Y-172974284D02*
X39662857Y-172517141D01*
X39262857Y-172802856D02*
X40291429Y-172802856D01*
X40405714Y-172745713D01*
X40462857Y-172631427D01*
X40462857Y-172517141D01*
X40462857Y-172117142D02*
X39662857Y-172117142D01*
X39262857Y-172117142D02*
X39320000Y-172174285D01*
X39377143Y-172117142D01*
X39320000Y-172059999D01*
X39262857Y-172117142D01*
X39377143Y-172117142D01*
X40405714Y-171031427D02*
X40462857Y-171145713D01*
X40462857Y-171374284D01*
X40405714Y-171488570D01*
X40348571Y-171545713D01*
X40234286Y-171602856D01*
X39891429Y-171602856D01*
X39777143Y-171545713D01*
X39720000Y-171488570D01*
X39662857Y-171374284D01*
X39662857Y-171145713D01*
X39720000Y-171031427D01*
X40462857Y-170345713D02*
X40405714Y-170459999D01*
X40291429Y-170517142D01*
X39262857Y-170517142D01*
X40405714Y-169431428D02*
X40462857Y-169545714D01*
X40462857Y-169774285D01*
X40405714Y-169888571D01*
X40291429Y-169945714D01*
X39834286Y-169945714D01*
X39720000Y-169888571D01*
X39662857Y-169774285D01*
X39662857Y-169545714D01*
X39720000Y-169431428D01*
X39834286Y-169374285D01*
X39948571Y-169374285D01*
X40062857Y-169945714D01*
X40577143Y-169145714D02*
X40577143Y-168231428D01*
X40462857Y-167945714D02*
X39262857Y-167945714D01*
X39262857Y-167488571D01*
X39320000Y-167374285D01*
X39377143Y-167317142D01*
X39491429Y-167259999D01*
X39662857Y-167259999D01*
X39777143Y-167317142D01*
X39834286Y-167374285D01*
X39891429Y-167488571D01*
X39891429Y-167945714D01*
X40462857Y-166745714D02*
X39262857Y-166745714D01*
X40462857Y-166231428D02*
X39834286Y-166231428D01*
X39720000Y-166288571D01*
X39662857Y-166402857D01*
X39662857Y-166574285D01*
X39720000Y-166688571D01*
X39777143Y-166745714D01*
X40462857Y-165488571D02*
X40405714Y-165602857D01*
X40348571Y-165660000D01*
X40234286Y-165717143D01*
X39891429Y-165717143D01*
X39777143Y-165660000D01*
X39720000Y-165602857D01*
X39662857Y-165488571D01*
X39662857Y-165317143D01*
X39720000Y-165202857D01*
X39777143Y-165145714D01*
X39891429Y-165088571D01*
X40234286Y-165088571D01*
X40348571Y-165145714D01*
X40405714Y-165202857D01*
X40462857Y-165317143D01*
X40462857Y-165488571D01*
X39662857Y-164745714D02*
X39662857Y-164288571D01*
X39262857Y-164574286D02*
X40291429Y-164574286D01*
X40405714Y-164517143D01*
X40462857Y-164402857D01*
X40462857Y-164288571D01*
X40462857Y-163717143D02*
X40405714Y-163831429D01*
X40348571Y-163888572D01*
X40234286Y-163945715D01*
X39891429Y-163945715D01*
X39777143Y-163888572D01*
X39720000Y-163831429D01*
X39662857Y-163717143D01*
X39662857Y-163545715D01*
X39720000Y-163431429D01*
X39777143Y-163374286D01*
X39891429Y-163317143D01*
X40234286Y-163317143D01*
X40348571Y-163374286D01*
X40405714Y-163431429D01*
X40462857Y-163545715D01*
X40462857Y-163717143D01*
X39662857Y-162802858D02*
X40462857Y-162802858D01*
X39777143Y-162802858D02*
X39720000Y-162745715D01*
X39662857Y-162631429D01*
X39662857Y-162460001D01*
X39720000Y-162345715D01*
X39834286Y-162288572D01*
X40462857Y-162288572D01*
D16*
X37969372Y-235293229D02*
X38312229Y-235293229D01*
X38140800Y-235893229D02*
X38140800Y-235293229D01*
X38512229Y-235893229D02*
X38512229Y-235293229D01*
X38512229Y-235578943D02*
X38855086Y-235578943D01*
X38855086Y-235893229D02*
X38855086Y-235293229D01*
X39455086Y-235893229D02*
X39112229Y-235893229D01*
X39283657Y-235893229D02*
X39283657Y-235293229D01*
X39226514Y-235378943D01*
X39169372Y-235436086D01*
X39112229Y-235464657D01*
X38311914Y-234863429D02*
X37969057Y-234863429D01*
X38140485Y-234863429D02*
X38140485Y-234263429D01*
X38083342Y-234349143D01*
X38026200Y-234406286D01*
X37969057Y-234434857D01*
X38683343Y-234263429D02*
X38740486Y-234263429D01*
X38797629Y-234292000D01*
X38826200Y-234320571D01*
X38854771Y-234377714D01*
X38883343Y-234492000D01*
X38883343Y-234634857D01*
X38854771Y-234749143D01*
X38826200Y-234806286D01*
X38797629Y-234834857D01*
X38740486Y-234863429D01*
X38683343Y-234863429D01*
X38626200Y-234834857D01*
X38597629Y-234806286D01*
X38569057Y-234749143D01*
X38540486Y-234634857D01*
X38540486Y-234492000D01*
X38569057Y-234377714D01*
X38597629Y-234320571D01*
X38626200Y-234292000D01*
X38683343Y-234263429D01*
X39140486Y-234863429D02*
X39140486Y-234263429D01*
X39483343Y-234863429D02*
X39226200Y-234520571D01*
X39483343Y-234263429D02*
X39140486Y-234606286D01*
X37969372Y-116548229D02*
X38312229Y-116548229D01*
X38140800Y-117148229D02*
X38140800Y-116548229D01*
X38512229Y-117148229D02*
X38512229Y-116548229D01*
X38512229Y-116833943D02*
X38855086Y-116833943D01*
X38855086Y-117148229D02*
X38855086Y-116548229D01*
X39455086Y-117148229D02*
X39112229Y-117148229D01*
X39283657Y-117148229D02*
X39283657Y-116548229D01*
X39226514Y-116633943D01*
X39169372Y-116691086D01*
X39112229Y-116719657D01*
X38311914Y-116118429D02*
X37969057Y-116118429D01*
X38140485Y-116118429D02*
X38140485Y-115518429D01*
X38083342Y-115604143D01*
X38026200Y-115661286D01*
X37969057Y-115689857D01*
X38683343Y-115518429D02*
X38740486Y-115518429D01*
X38797629Y-115547000D01*
X38826200Y-115575571D01*
X38854771Y-115632714D01*
X38883343Y-115747000D01*
X38883343Y-115889857D01*
X38854771Y-116004143D01*
X38826200Y-116061286D01*
X38797629Y-116089857D01*
X38740486Y-116118429D01*
X38683343Y-116118429D01*
X38626200Y-116089857D01*
X38597629Y-116061286D01*
X38569057Y-116004143D01*
X38540486Y-115889857D01*
X38540486Y-115747000D01*
X38569057Y-115632714D01*
X38597629Y-115575571D01*
X38626200Y-115547000D01*
X38683343Y-115518429D01*
X39140486Y-116118429D02*
X39140486Y-115518429D01*
X39483343Y-116118429D02*
X39226200Y-115775571D01*
X39483343Y-115518429D02*
X39140486Y-115861286D01*
D15*
X39005714Y-33352857D02*
X39005714Y-34324286D01*
X39062857Y-34438571D01*
X39120000Y-34495714D01*
X39234286Y-34552857D01*
X39462857Y-34552857D01*
X39577143Y-34495714D01*
X39634286Y-34438571D01*
X39691429Y-34324286D01*
X39691429Y-33352857D01*
X40148572Y-33352857D02*
X40891429Y-33352857D01*
X40491429Y-33810000D01*
X40662857Y-33810000D01*
X40777143Y-33867143D01*
X40834286Y-33924286D01*
X40891429Y-34038571D01*
X40891429Y-34324286D01*
X40834286Y-34438571D01*
X40777143Y-34495714D01*
X40662857Y-34552857D01*
X40320000Y-34552857D01*
X40205714Y-34495714D01*
X40148572Y-34438571D01*
X40462857Y-57086427D02*
X39262857Y-57086427D01*
X39262857Y-56629284D01*
X39320000Y-56514998D01*
X39377143Y-56457855D01*
X39491429Y-56400712D01*
X39662857Y-56400712D01*
X39777143Y-56457855D01*
X39834286Y-56514998D01*
X39891429Y-56629284D01*
X39891429Y-57086427D01*
X40462857Y-55372141D02*
X39834286Y-55372141D01*
X39720000Y-55429284D01*
X39662857Y-55543570D01*
X39662857Y-55772141D01*
X39720000Y-55886427D01*
X40405714Y-55372141D02*
X40462857Y-55486427D01*
X40462857Y-55772141D01*
X40405714Y-55886427D01*
X40291429Y-55943570D01*
X40177143Y-55943570D01*
X40062857Y-55886427D01*
X40005714Y-55772141D01*
X40005714Y-55486427D01*
X39948571Y-55372141D01*
X40462857Y-54800713D02*
X39662857Y-54800713D01*
X39891429Y-54800713D02*
X39777143Y-54743570D01*
X39720000Y-54686427D01*
X39662857Y-54572141D01*
X39662857Y-54457856D01*
X39662857Y-54229284D02*
X39662857Y-53772141D01*
X39262857Y-54057856D02*
X40291429Y-54057856D01*
X40405714Y-54000713D01*
X40462857Y-53886427D01*
X40462857Y-53772141D01*
X40462857Y-53372142D02*
X39662857Y-53372142D01*
X39262857Y-53372142D02*
X39320000Y-53429285D01*
X39377143Y-53372142D01*
X39320000Y-53314999D01*
X39262857Y-53372142D01*
X39377143Y-53372142D01*
X40405714Y-52286427D02*
X40462857Y-52400713D01*
X40462857Y-52629284D01*
X40405714Y-52743570D01*
X40348571Y-52800713D01*
X40234286Y-52857856D01*
X39891429Y-52857856D01*
X39777143Y-52800713D01*
X39720000Y-52743570D01*
X39662857Y-52629284D01*
X39662857Y-52400713D01*
X39720000Y-52286427D01*
X40462857Y-51600713D02*
X40405714Y-51714999D01*
X40291429Y-51772142D01*
X39262857Y-51772142D01*
X40405714Y-50686428D02*
X40462857Y-50800714D01*
X40462857Y-51029285D01*
X40405714Y-51143571D01*
X40291429Y-51200714D01*
X39834286Y-51200714D01*
X39720000Y-51143571D01*
X39662857Y-51029285D01*
X39662857Y-50800714D01*
X39720000Y-50686428D01*
X39834286Y-50629285D01*
X39948571Y-50629285D01*
X40062857Y-51200714D01*
X40577143Y-50400714D02*
X40577143Y-49486428D01*
X40462857Y-49200714D02*
X39262857Y-49200714D01*
X39262857Y-48743571D01*
X39320000Y-48629285D01*
X39377143Y-48572142D01*
X39491429Y-48514999D01*
X39662857Y-48514999D01*
X39777143Y-48572142D01*
X39834286Y-48629285D01*
X39891429Y-48743571D01*
X39891429Y-49200714D01*
X40462857Y-48000714D02*
X39262857Y-48000714D01*
X40462857Y-47486428D02*
X39834286Y-47486428D01*
X39720000Y-47543571D01*
X39662857Y-47657857D01*
X39662857Y-47829285D01*
X39720000Y-47943571D01*
X39777143Y-48000714D01*
X40462857Y-46743571D02*
X40405714Y-46857857D01*
X40348571Y-46915000D01*
X40234286Y-46972143D01*
X39891429Y-46972143D01*
X39777143Y-46915000D01*
X39720000Y-46857857D01*
X39662857Y-46743571D01*
X39662857Y-46572143D01*
X39720000Y-46457857D01*
X39777143Y-46400714D01*
X39891429Y-46343571D01*
X40234286Y-46343571D01*
X40348571Y-46400714D01*
X40405714Y-46457857D01*
X40462857Y-46572143D01*
X40462857Y-46743571D01*
X39662857Y-46000714D02*
X39662857Y-45543571D01*
X39262857Y-45829286D02*
X40291429Y-45829286D01*
X40405714Y-45772143D01*
X40462857Y-45657857D01*
X40462857Y-45543571D01*
X40462857Y-44972143D02*
X40405714Y-45086429D01*
X40348571Y-45143572D01*
X40234286Y-45200715D01*
X39891429Y-45200715D01*
X39777143Y-45143572D01*
X39720000Y-45086429D01*
X39662857Y-44972143D01*
X39662857Y-44800715D01*
X39720000Y-44686429D01*
X39777143Y-44629286D01*
X39891429Y-44572143D01*
X40234286Y-44572143D01*
X40348571Y-44629286D01*
X40405714Y-44686429D01*
X40462857Y-44800715D01*
X40462857Y-44972143D01*
X39662857Y-44057858D02*
X40462857Y-44057858D01*
X39777143Y-44057858D02*
X39720000Y-44000715D01*
X39662857Y-43886429D01*
X39662857Y-43715001D01*
X39720000Y-43600715D01*
X39834286Y-43543572D01*
X40462857Y-43543572D01*
M02*
