M48
;DRILL file {KiCad 4.0.1-stable} date 2/14/2017 10:50:26 AM
;FORMAT={-:-/ absolute / inch / decimal}
FMAT,2
INCH,TZ
T1C0.016
T2C0.040
%
G90
G05
M72
T1
X1.3247Y-1.9889
X1.3247Y-6.6639
X1.4532Y-1.3419
X1.4532Y-6.0169
X1.4547Y-1.8239
X1.4547Y-6.4989
X1.4947Y-1.6809
X1.4947Y-6.3559
X1.5627Y-2.1169
X1.5627Y-6.7919
X1.6097Y-1.5529
X1.6097Y-6.2279
X1.6292Y-1.4739
X1.6292Y-6.1489
X1.7567Y-1.8099
X1.7567Y-6.4849
X1.8137Y-2.0459
X1.8137Y-6.7209
X2.2547Y-1.9889
X2.2547Y-6.6639
X2.3832Y-1.3419
X2.3832Y-6.0169
X2.3847Y-1.8239
X2.3847Y-6.4989
X2.4247Y-1.6809
X2.4247Y-6.3559
X2.4927Y-2.1169
X2.4927Y-6.7919
X2.5397Y-1.5529
X2.5397Y-6.2279
X2.5592Y-1.4739
X2.5592Y-6.1489
X2.6867Y-1.8099
X2.6867Y-6.4849
X2.7437Y-2.0459
X2.7437Y-6.7209
X3.1847Y-1.9889
X3.1847Y-6.6639
X3.3132Y-1.3419
X3.3132Y-6.0169
X3.3147Y-1.8239
X3.3147Y-6.4989
X3.3547Y-1.6809
X3.3547Y-6.3559
X3.4227Y-2.1169
X3.4227Y-6.7919
X3.4697Y-1.5529
X3.4697Y-6.2279
X3.4892Y-1.4739
X3.4892Y-6.1489
X3.6167Y-1.8099
X3.6167Y-6.4849
X3.6737Y-2.0459
X3.6737Y-6.7209
X4.1147Y-1.9889
X4.1147Y-6.6639
X4.2432Y-1.3419
X4.2432Y-6.0169
X4.2447Y-1.8239
X4.2447Y-6.4989
X4.2847Y-1.6809
X4.2847Y-6.3559
X4.3527Y-2.1169
X4.3527Y-6.7919
X4.3997Y-1.5529
X4.3997Y-6.2279
X4.4192Y-1.4739
X4.4192Y-6.1489
X4.5467Y-1.8099
X4.5467Y-6.4849
X4.6037Y-2.0459
X4.6037Y-6.7209
X5.0447Y-1.9889
X5.0447Y-6.6639
X5.1732Y-1.3419
X5.1732Y-6.0169
X5.1747Y-1.8239
X5.1747Y-6.4989
X5.2147Y-1.6809
X5.2147Y-6.3559
X5.2827Y-2.1169
X5.2827Y-6.7919
X5.3297Y-1.5529
X5.3297Y-6.2279
X5.3492Y-1.4739
X5.3492Y-6.1489
X5.4767Y-1.8099
X5.4767Y-6.4849
X5.5337Y-2.0459
X5.5337Y-6.7209
X5.9747Y-1.9889
X5.9747Y-6.6639
X6.1032Y-1.3419
X6.1032Y-6.0169
X6.1047Y-1.8239
X6.1047Y-6.4989
X6.1447Y-1.6809
X6.1447Y-6.3559
X6.2127Y-2.1169
X6.2127Y-6.7919
X6.2597Y-1.5529
X6.2597Y-6.2279
X6.2792Y-1.4739
X6.2792Y-6.1489
X6.4067Y-1.8099
X6.4067Y-6.4849
X6.4637Y-2.0459
X6.4637Y-6.7209
X6.9047Y-1.9889
X6.9047Y-6.6639
X7.0332Y-1.3419
X7.0332Y-6.0169
X7.0347Y-1.8239
X7.0347Y-6.4989
X7.0747Y-1.6809
X7.0747Y-6.3559
X7.1427Y-2.1169
X7.1427Y-6.7919
X7.1897Y-1.5529
X7.1897Y-6.2279
X7.2092Y-1.4739
X7.2092Y-6.1489
X7.3367Y-1.8099
X7.3367Y-6.4849
X7.3937Y-2.0459
X7.3937Y-6.7209
T2
X1.2217Y-1.4309
X1.2217Y-1.5309
X1.2217Y-1.6309
X1.2217Y-1.7309
X1.2217Y-1.8309
X1.2217Y-1.9309
X1.2217Y-2.0309
X1.2217Y-2.1309
X1.2217Y-2.2309
X1.2217Y-2.3309
X1.2217Y-2.4309
X1.2217Y-2.5309
X1.2217Y-6.1059
X1.2217Y-6.2059
X1.2217Y-6.3059
X1.2217Y-6.4059
X1.2217Y-6.5059
X1.2217Y-6.6059
X1.2217Y-6.7059
X1.2217Y-6.8059
X1.2217Y-6.9059
X1.2217Y-7.0059
X1.2217Y-7.1059
X1.2217Y-7.2059
X1.3137Y-0.9329
X1.3137Y-1.1329
X1.3137Y-5.6079
X1.3137Y-5.8079
X1.4157Y-0.7089
X1.4157Y-5.3839
X1.5157Y-0.7089
X1.5157Y-5.3839
X1.6157Y-0.7089
X1.6157Y-5.3839
X1.7157Y-0.7089
X1.7157Y-5.3839
X1.8137Y-0.9329
X1.8137Y-1.1329
X1.8137Y-5.6079
X1.8137Y-5.8079
X1.9217Y-1.4309
X1.9217Y-1.5309
X1.9217Y-1.6309
X1.9217Y-1.7309
X1.9217Y-1.8309
X1.9217Y-1.9309
X1.9217Y-2.0309
X1.9217Y-2.1309
X1.9217Y-2.2309
X1.9217Y-2.3309
X1.9217Y-2.4309
X1.9217Y-2.5309
X1.9217Y-6.1059
X1.9217Y-6.2059
X1.9217Y-6.3059
X1.9217Y-6.4059
X1.9217Y-6.5059
X1.9217Y-6.6059
X1.9217Y-6.7059
X1.9217Y-6.8059
X1.9217Y-6.9059
X1.9217Y-7.0059
X1.9217Y-7.1059
X1.9217Y-7.2059
X2.1517Y-1.4309
X2.1517Y-1.5309
X2.1517Y-1.6309
X2.1517Y-1.7309
X2.1517Y-1.8309
X2.1517Y-1.9309
X2.1517Y-2.0309
X2.1517Y-2.1309
X2.1517Y-2.2309
X2.1517Y-2.3309
X2.1517Y-2.4309
X2.1517Y-2.5309
X2.1517Y-6.1059
X2.1517Y-6.2059
X2.1517Y-6.3059
X2.1517Y-6.4059
X2.1517Y-6.5059
X2.1517Y-6.6059
X2.1517Y-6.7059
X2.1517Y-6.8059
X2.1517Y-6.9059
X2.1517Y-7.0059
X2.1517Y-7.1059
X2.1517Y-7.2059
X2.2437Y-0.9329
X2.2437Y-1.1329
X2.2437Y-5.6079
X2.2437Y-5.8079
X2.3457Y-0.7089
X2.3457Y-5.3839
X2.4457Y-0.7089
X2.4457Y-5.3839
X2.5457Y-0.7089
X2.5457Y-5.3839
X2.6457Y-0.7089
X2.6457Y-5.3839
X2.7437Y-0.9329
X2.7437Y-1.1329
X2.7437Y-5.6079
X2.7437Y-5.8079
X2.8517Y-1.4309
X2.8517Y-1.5309
X2.8517Y-1.6309
X2.8517Y-1.7309
X2.8517Y-1.8309
X2.8517Y-1.9309
X2.8517Y-2.0309
X2.8517Y-2.1309
X2.8517Y-2.2309
X2.8517Y-2.3309
X2.8517Y-2.4309
X2.8517Y-2.5309
X2.8517Y-6.1059
X2.8517Y-6.2059
X2.8517Y-6.3059
X2.8517Y-6.4059
X2.8517Y-6.5059
X2.8517Y-6.6059
X2.8517Y-6.7059
X2.8517Y-6.8059
X2.8517Y-6.9059
X2.8517Y-7.0059
X2.8517Y-7.1059
X2.8517Y-7.2059
X3.0817Y-1.4309
X3.0817Y-1.5309
X3.0817Y-1.6309
X3.0817Y-1.7309
X3.0817Y-1.8309
X3.0817Y-1.9309
X3.0817Y-2.0309
X3.0817Y-2.1309
X3.0817Y-2.2309
X3.0817Y-2.3309
X3.0817Y-2.4309
X3.0817Y-2.5309
X3.0817Y-6.1059
X3.0817Y-6.2059
X3.0817Y-6.3059
X3.0817Y-6.4059
X3.0817Y-6.5059
X3.0817Y-6.6059
X3.0817Y-6.7059
X3.0817Y-6.8059
X3.0817Y-6.9059
X3.0817Y-7.0059
X3.0817Y-7.1059
X3.0817Y-7.2059
X3.1737Y-0.9329
X3.1737Y-1.1329
X3.1737Y-5.6079
X3.1737Y-5.8079
X3.2757Y-0.7089
X3.2757Y-5.3839
X3.3757Y-0.7089
X3.3757Y-5.3839
X3.4757Y-0.7089
X3.4757Y-5.3839
X3.5757Y-0.7089
X3.5757Y-5.3839
X3.6737Y-0.9329
X3.6737Y-1.1329
X3.6737Y-5.6079
X3.6737Y-5.8079
X3.7817Y-1.4309
X3.7817Y-1.5309
X3.7817Y-1.6309
X3.7817Y-1.7309
X3.7817Y-1.8309
X3.7817Y-1.9309
X3.7817Y-2.0309
X3.7817Y-2.1309
X3.7817Y-2.2309
X3.7817Y-2.3309
X3.7817Y-2.4309
X3.7817Y-2.5309
X3.7817Y-6.1059
X3.7817Y-6.2059
X3.7817Y-6.3059
X3.7817Y-6.4059
X3.7817Y-6.5059
X3.7817Y-6.6059
X3.7817Y-6.7059
X3.7817Y-6.8059
X3.7817Y-6.9059
X3.7817Y-7.0059
X3.7817Y-7.1059
X3.7817Y-7.2059
X4.0117Y-1.4309
X4.0117Y-1.5309
X4.0117Y-1.6309
X4.0117Y-1.7309
X4.0117Y-1.8309
X4.0117Y-1.9309
X4.0117Y-2.0309
X4.0117Y-2.1309
X4.0117Y-2.2309
X4.0117Y-2.3309
X4.0117Y-2.4309
X4.0117Y-2.5309
X4.0117Y-6.1059
X4.0117Y-6.2059
X4.0117Y-6.3059
X4.0117Y-6.4059
X4.0117Y-6.5059
X4.0117Y-6.6059
X4.0117Y-6.7059
X4.0117Y-6.8059
X4.0117Y-6.9059
X4.0117Y-7.0059
X4.0117Y-7.1059
X4.0117Y-7.2059
X4.1037Y-0.9329
X4.1037Y-1.1329
X4.1037Y-5.6079
X4.1037Y-5.8079
X4.2057Y-0.7089
X4.2057Y-5.3839
X4.3057Y-0.7089
X4.3057Y-5.3839
X4.4057Y-0.7089
X4.4057Y-5.3839
X4.5057Y-0.7089
X4.5057Y-5.3839
X4.6037Y-0.9329
X4.6037Y-1.1329
X4.6037Y-5.6079
X4.6037Y-5.8079
X4.7117Y-1.4309
X4.7117Y-1.5309
X4.7117Y-1.6309
X4.7117Y-1.7309
X4.7117Y-1.8309
X4.7117Y-1.9309
X4.7117Y-2.0309
X4.7117Y-2.1309
X4.7117Y-2.2309
X4.7117Y-2.3309
X4.7117Y-2.4309
X4.7117Y-2.5309
X4.7117Y-6.1059
X4.7117Y-6.2059
X4.7117Y-6.3059
X4.7117Y-6.4059
X4.7117Y-6.5059
X4.7117Y-6.6059
X4.7117Y-6.7059
X4.7117Y-6.8059
X4.7117Y-6.9059
X4.7117Y-7.0059
X4.7117Y-7.1059
X4.7117Y-7.2059
X4.9417Y-1.4309
X4.9417Y-1.5309
X4.9417Y-1.6309
X4.9417Y-1.7309
X4.9417Y-1.8309
X4.9417Y-1.9309
X4.9417Y-2.0309
X4.9417Y-2.1309
X4.9417Y-2.2309
X4.9417Y-2.3309
X4.9417Y-2.4309
X4.9417Y-2.5309
X4.9417Y-6.1059
X4.9417Y-6.2059
X4.9417Y-6.3059
X4.9417Y-6.4059
X4.9417Y-6.5059
X4.9417Y-6.6059
X4.9417Y-6.7059
X4.9417Y-6.8059
X4.9417Y-6.9059
X4.9417Y-7.0059
X4.9417Y-7.1059
X4.9417Y-7.2059
X5.0337Y-0.9329
X5.0337Y-1.1329
X5.0337Y-5.6079
X5.0337Y-5.8079
X5.1357Y-0.7089
X5.1357Y-5.3839
X5.2357Y-0.7089
X5.2357Y-5.3839
X5.3357Y-0.7089
X5.3357Y-5.3839
X5.4357Y-0.7089
X5.4357Y-5.3839
X5.5337Y-0.9329
X5.5337Y-1.1329
X5.5337Y-5.6079
X5.5337Y-5.8079
X5.6417Y-1.4309
X5.6417Y-1.5309
X5.6417Y-1.6309
X5.6417Y-1.7309
X5.6417Y-1.8309
X5.6417Y-1.9309
X5.6417Y-2.0309
X5.6417Y-2.1309
X5.6417Y-2.2309
X5.6417Y-2.3309
X5.6417Y-2.4309
X5.6417Y-2.5309
X5.6417Y-6.1059
X5.6417Y-6.2059
X5.6417Y-6.3059
X5.6417Y-6.4059
X5.6417Y-6.5059
X5.6417Y-6.6059
X5.6417Y-6.7059
X5.6417Y-6.8059
X5.6417Y-6.9059
X5.6417Y-7.0059
X5.6417Y-7.1059
X5.6417Y-7.2059
X5.8717Y-1.4309
X5.8717Y-1.5309
X5.8717Y-1.6309
X5.8717Y-1.7309
X5.8717Y-1.8309
X5.8717Y-1.9309
X5.8717Y-2.0309
X5.8717Y-2.1309
X5.8717Y-2.2309
X5.8717Y-2.3309
X5.8717Y-2.4309
X5.8717Y-2.5309
X5.8717Y-6.1059
X5.8717Y-6.2059
X5.8717Y-6.3059
X5.8717Y-6.4059
X5.8717Y-6.5059
X5.8717Y-6.6059
X5.8717Y-6.7059
X5.8717Y-6.8059
X5.8717Y-6.9059
X5.8717Y-7.0059
X5.8717Y-7.1059
X5.8717Y-7.2059
X5.9637Y-0.9329
X5.9637Y-1.1329
X5.9637Y-5.6079
X5.9637Y-5.8079
X6.0657Y-0.7089
X6.0657Y-5.3839
X6.1657Y-0.7089
X6.1657Y-5.3839
X6.2657Y-0.7089
X6.2657Y-5.3839
X6.3657Y-0.7089
X6.3657Y-5.3839
X6.4637Y-0.9329
X6.4637Y-1.1329
X6.4637Y-5.6079
X6.4637Y-5.8079
X6.5717Y-1.4309
X6.5717Y-1.5309
X6.5717Y-1.6309
X6.5717Y-1.7309
X6.5717Y-1.8309
X6.5717Y-1.9309
X6.5717Y-2.0309
X6.5717Y-2.1309
X6.5717Y-2.2309
X6.5717Y-2.3309
X6.5717Y-2.4309
X6.5717Y-2.5309
X6.5717Y-6.1059
X6.5717Y-6.2059
X6.5717Y-6.3059
X6.5717Y-6.4059
X6.5717Y-6.5059
X6.5717Y-6.6059
X6.5717Y-6.7059
X6.5717Y-6.8059
X6.5717Y-6.9059
X6.5717Y-7.0059
X6.5717Y-7.1059
X6.5717Y-7.2059
X6.8017Y-1.4309
X6.8017Y-1.5309
X6.8017Y-1.6309
X6.8017Y-1.7309
X6.8017Y-1.8309
X6.8017Y-1.9309
X6.8017Y-2.0309
X6.8017Y-2.1309
X6.8017Y-2.2309
X6.8017Y-2.3309
X6.8017Y-2.4309
X6.8017Y-2.5309
X6.8017Y-6.1059
X6.8017Y-6.2059
X6.8017Y-6.3059
X6.8017Y-6.4059
X6.8017Y-6.5059
X6.8017Y-6.6059
X6.8017Y-6.7059
X6.8017Y-6.8059
X6.8017Y-6.9059
X6.8017Y-7.0059
X6.8017Y-7.1059
X6.8017Y-7.2059
X6.8937Y-0.9329
X6.8937Y-1.1329
X6.8937Y-5.6079
X6.8937Y-5.8079
X6.9957Y-0.7089
X6.9957Y-5.3839
X7.0957Y-0.7089
X7.0957Y-5.3839
X7.1957Y-0.7089
X7.1957Y-5.3839
X7.2957Y-0.7089
X7.2957Y-5.3839
X7.3937Y-0.9329
X7.3937Y-1.1329
X7.3937Y-5.6079
X7.3937Y-5.8079
X7.5017Y-1.4309
X7.5017Y-1.5309
X7.5017Y-1.6309
X7.5017Y-1.7309
X7.5017Y-1.8309
X7.5017Y-1.9309
X7.5017Y-2.0309
X7.5017Y-2.1309
X7.5017Y-2.2309
X7.5017Y-2.3309
X7.5017Y-2.4309
X7.5017Y-2.5309
X7.5017Y-6.1059
X7.5017Y-6.2059
X7.5017Y-6.3059
X7.5017Y-6.4059
X7.5017Y-6.5059
X7.5017Y-6.6059
X7.5017Y-6.7059
X7.5017Y-6.8059
X7.5017Y-6.9059
X7.5017Y-7.0059
X7.5017Y-7.1059
X7.5017Y-7.2059
T0
M30
