G04 #@! TF.FileFunction,Profile,NP*
%FSLAX46Y46*%
G04 Gerber Fmt 4.6, Leading zero omitted, Abs format (unit mm)*
G04 Created by KiCad (PCBNEW 4.0.1-stable) date 2/13/2017 3:52:04 PM*
%MOMM*%
G01*
G04 APERTURE LIST*
%ADD10C,0.100000*%
%ADD11C,0.150000*%
G04 APERTURE END LIST*
D10*
D11*
X123333600Y-133982600D02*
X145279200Y-133982600D01*
X145279200Y-133982600D02*
X145279200Y-250975000D01*
X145279200Y-250975000D02*
X123333600Y-250975000D01*
X123333600Y-250975000D02*
X123333600Y-133982600D01*
X146954666Y-133985000D02*
G75*
G03X146954666Y-133985000I-1666666J0D01*
G01*
X142788000Y-133985000D02*
X147788000Y-133985000D01*
X145288000Y-131485000D02*
X145288000Y-136485000D01*
X146954666Y-15240000D02*
G75*
G03X146954666Y-15240000I-1666666J0D01*
G01*
X142788000Y-15240000D02*
X147788000Y-15240000D01*
X145288000Y-12740000D02*
X145288000Y-17740000D01*
X123333600Y-132230000D02*
X123333600Y-15237600D01*
X145279200Y-132230000D02*
X123333600Y-132230000D01*
X145279200Y-15237600D02*
X145279200Y-132230000D01*
X123333600Y-15237600D02*
X145279200Y-15237600D01*
X170577600Y-15237600D02*
X192523200Y-15237600D01*
X192523200Y-15237600D02*
X192523200Y-132230000D01*
X192523200Y-132230000D02*
X170577600Y-132230000D01*
X170577600Y-132230000D02*
X170577600Y-15237600D01*
X194198666Y-15240000D02*
G75*
G03X194198666Y-15240000I-1666666J0D01*
G01*
X190032000Y-15240000D02*
X195032000Y-15240000D01*
X192532000Y-12740000D02*
X192532000Y-17740000D01*
X194198666Y-133985000D02*
G75*
G03X194198666Y-133985000I-1666666J0D01*
G01*
X190032000Y-133985000D02*
X195032000Y-133985000D01*
X192532000Y-131485000D02*
X192532000Y-136485000D01*
X170577600Y-250975000D02*
X170577600Y-133982600D01*
X192523200Y-250975000D02*
X170577600Y-250975000D01*
X192523200Y-133982600D02*
X192523200Y-250975000D01*
X170577600Y-133982600D02*
X192523200Y-133982600D01*
X146955600Y-133982600D02*
X168901200Y-133982600D01*
X168901200Y-133982600D02*
X168901200Y-250975000D01*
X168901200Y-250975000D02*
X146955600Y-250975000D01*
X146955600Y-250975000D02*
X146955600Y-133982600D01*
X170576666Y-133985000D02*
G75*
G03X170576666Y-133985000I-1666666J0D01*
G01*
X166410000Y-133985000D02*
X171410000Y-133985000D01*
X168910000Y-131485000D02*
X168910000Y-136485000D01*
X170576666Y-15240000D02*
G75*
G03X170576666Y-15240000I-1666666J0D01*
G01*
X166410000Y-15240000D02*
X171410000Y-15240000D01*
X168910000Y-12740000D02*
X168910000Y-17740000D01*
X146955600Y-132230000D02*
X146955600Y-15237600D01*
X168901200Y-132230000D02*
X146955600Y-132230000D01*
X168901200Y-15237600D02*
X168901200Y-132230000D01*
X146955600Y-15237600D02*
X168901200Y-15237600D01*
X76089600Y-15237600D02*
X98035200Y-15237600D01*
X98035200Y-15237600D02*
X98035200Y-132230000D01*
X98035200Y-132230000D02*
X76089600Y-132230000D01*
X76089600Y-132230000D02*
X76089600Y-15237600D01*
X99710666Y-15240000D02*
G75*
G03X99710666Y-15240000I-1666666J0D01*
G01*
X95544000Y-15240000D02*
X100544000Y-15240000D01*
X98044000Y-12740000D02*
X98044000Y-17740000D01*
X99710666Y-133985000D02*
G75*
G03X99710666Y-133985000I-1666666J0D01*
G01*
X95544000Y-133985000D02*
X100544000Y-133985000D01*
X98044000Y-131485000D02*
X98044000Y-136485000D01*
X76089600Y-250975000D02*
X76089600Y-133982600D01*
X98035200Y-250975000D02*
X76089600Y-250975000D01*
X98035200Y-133982600D02*
X98035200Y-250975000D01*
X76089600Y-133982600D02*
X98035200Y-133982600D01*
X99711600Y-133982600D02*
X121657200Y-133982600D01*
X121657200Y-133982600D02*
X121657200Y-250975000D01*
X121657200Y-250975000D02*
X99711600Y-250975000D01*
X99711600Y-250975000D02*
X99711600Y-133982600D01*
X123332666Y-133985000D02*
G75*
G03X123332666Y-133985000I-1666666J0D01*
G01*
X119166000Y-133985000D02*
X124166000Y-133985000D01*
X121666000Y-131485000D02*
X121666000Y-136485000D01*
X123332666Y-15240000D02*
G75*
G03X123332666Y-15240000I-1666666J0D01*
G01*
X119166000Y-15240000D02*
X124166000Y-15240000D01*
X121666000Y-12740000D02*
X121666000Y-17740000D01*
X99711600Y-132230000D02*
X99711600Y-15237600D01*
X121657200Y-132230000D02*
X99711600Y-132230000D01*
X121657200Y-15237600D02*
X121657200Y-132230000D01*
X99711600Y-15237600D02*
X121657200Y-15237600D01*
X52467600Y-15237600D02*
X74413200Y-15237600D01*
X74413200Y-15237600D02*
X74413200Y-132230000D01*
X74413200Y-132230000D02*
X52467600Y-132230000D01*
X52467600Y-132230000D02*
X52467600Y-15237600D01*
X76088666Y-15240000D02*
G75*
G03X76088666Y-15240000I-1666666J0D01*
G01*
X71922000Y-15240000D02*
X76922000Y-15240000D01*
X74422000Y-12740000D02*
X74422000Y-17740000D01*
X76088666Y-133985000D02*
G75*
G03X76088666Y-133985000I-1666666J0D01*
G01*
X71922000Y-133985000D02*
X76922000Y-133985000D01*
X74422000Y-131485000D02*
X74422000Y-136485000D01*
X52467600Y-250975000D02*
X52467600Y-133982600D01*
X74413200Y-250975000D02*
X52467600Y-250975000D01*
X74413200Y-133982600D02*
X74413200Y-250975000D01*
X52467600Y-133982600D02*
X74413200Y-133982600D01*
X28845600Y-133982600D02*
X50791200Y-133982600D01*
X50791200Y-133982600D02*
X50791200Y-250975000D01*
X50791200Y-250975000D02*
X28845600Y-250975000D01*
X28845600Y-250975000D02*
X28845600Y-133982600D01*
X52466666Y-133985000D02*
G75*
G03X52466666Y-133985000I-1666666J0D01*
G01*
X48300000Y-133985000D02*
X53300000Y-133985000D01*
X50800000Y-131485000D02*
X50800000Y-136485000D01*
X52466666Y-15240000D02*
G75*
G03X52466666Y-15240000I-1666666J0D01*
G01*
X48300000Y-15240000D02*
X53300000Y-15240000D01*
X50800000Y-12740000D02*
X50800000Y-17740000D01*
X28845600Y-132230000D02*
X28845600Y-15237600D01*
X50791200Y-132230000D02*
X28845600Y-132230000D01*
X50791200Y-15237600D02*
X50791200Y-132230000D01*
X28845600Y-15237600D02*
X50791200Y-15237600D01*
M02*
