G04 #@! TF.FileFunction,Soldermask,Bot*
%FSLAX46Y46*%
G04 Gerber Fmt 4.6, Leading zero omitted, Abs format (unit mm)*
G04 Created by KiCad (PCBNEW 4.0.1-stable) date 2/13/2017 3:52:04 PM*
%MOMM*%
G01*
G04 APERTURE LIST*
%ADD10C,0.100000*%
%ADD11R,1.900000X1.900000*%
%ADD12O,2.400000X1.670000*%
%ADD13R,1.000000X0.800000*%
%ADD14R,0.900000X1.000000*%
%ADD15R,2.127200X2.432000*%
%ADD16O,2.127200X2.432000*%
%ADD17R,1.200100X1.200100*%
%ADD18R,0.800000X1.000000*%
%ADD19R,1.000000X1.900000*%
%ADD20O,3.448000X2.127200*%
G04 APERTURE END LIST*
D10*
D11*
X143298000Y-144930000D03*
X125518000Y-144930000D03*
D12*
X143298000Y-155090000D03*
X125518000Y-155090000D03*
X143298000Y-157630000D03*
X125518000Y-157630000D03*
X143298000Y-160170000D03*
X125518000Y-160170000D03*
X143298000Y-162710000D03*
X125518000Y-162710000D03*
X143298000Y-165250000D03*
X125518000Y-165250000D03*
X143298000Y-167790000D03*
X125518000Y-167790000D03*
X143298000Y-170330000D03*
X125518000Y-170330000D03*
X143298000Y-172870000D03*
X125518000Y-172870000D03*
X143298000Y-175410000D03*
X125518000Y-175410000D03*
X143298000Y-177950000D03*
X125518000Y-177950000D03*
X143298000Y-180490000D03*
X125518000Y-180490000D03*
X143298000Y-183030000D03*
X125518000Y-183030000D03*
D13*
X127296000Y-164430000D03*
X127296000Y-163530000D03*
X128693000Y-164430000D03*
X128693000Y-163530000D03*
D14*
X140580200Y-169584600D03*
X140580200Y-168484600D03*
D15*
X130445600Y-136751200D03*
D16*
X132985600Y-136751200D03*
X135525600Y-136751200D03*
X138065600Y-136751200D03*
D17*
X132805300Y-157856060D03*
X130905300Y-157856060D03*
X131855300Y-155857080D03*
D18*
X132254500Y-153934300D03*
X131354500Y-153934300D03*
D13*
X131512400Y-170667400D03*
X131512400Y-171567400D03*
X139107000Y-170667400D03*
X139107000Y-171567400D03*
D19*
X130217000Y-163210400D03*
X131487000Y-163210400D03*
X132757000Y-163210400D03*
X134027000Y-163210400D03*
X135297000Y-163210400D03*
X136567000Y-163210400D03*
X137837000Y-163210400D03*
X139107000Y-163210400D03*
X139107000Y-168610400D03*
X137837000Y-168610400D03*
X136567000Y-168610400D03*
X135297000Y-168610400D03*
X134027000Y-168610400D03*
X132757000Y-168610400D03*
X131487000Y-168610400D03*
X130217000Y-168610400D03*
D13*
X137278200Y-160366000D03*
X137278200Y-159466000D03*
D14*
X134027000Y-160567600D03*
X134027000Y-159467600D03*
D20*
X127854800Y-142440800D03*
X127854800Y-147520800D03*
X140554800Y-142440800D03*
X140554800Y-147520800D03*
X127854800Y-23695800D03*
X127854800Y-28775800D03*
X140554800Y-23695800D03*
X140554800Y-28775800D03*
D14*
X134027000Y-41822600D03*
X134027000Y-40722600D03*
D13*
X137278200Y-41621000D03*
X137278200Y-40721000D03*
D19*
X130217000Y-44465400D03*
X131487000Y-44465400D03*
X132757000Y-44465400D03*
X134027000Y-44465400D03*
X135297000Y-44465400D03*
X136567000Y-44465400D03*
X137837000Y-44465400D03*
X139107000Y-44465400D03*
X139107000Y-49865400D03*
X137837000Y-49865400D03*
X136567000Y-49865400D03*
X135297000Y-49865400D03*
X134027000Y-49865400D03*
X132757000Y-49865400D03*
X131487000Y-49865400D03*
X130217000Y-49865400D03*
D13*
X139107000Y-51922400D03*
X139107000Y-52822400D03*
X131512400Y-51922400D03*
X131512400Y-52822400D03*
D18*
X132254500Y-35189300D03*
X131354500Y-35189300D03*
D17*
X132805300Y-39111060D03*
X130905300Y-39111060D03*
X131855300Y-37112080D03*
D15*
X130445600Y-18006200D03*
D16*
X132985600Y-18006200D03*
X135525600Y-18006200D03*
X138065600Y-18006200D03*
D14*
X140580200Y-50839600D03*
X140580200Y-49739600D03*
D13*
X128693000Y-45685000D03*
X128693000Y-44785000D03*
X127296000Y-45685000D03*
X127296000Y-44785000D03*
D12*
X143298000Y-36345000D03*
X125518000Y-36345000D03*
X143298000Y-38885000D03*
X125518000Y-38885000D03*
X143298000Y-41425000D03*
X125518000Y-41425000D03*
X143298000Y-43965000D03*
X125518000Y-43965000D03*
X143298000Y-46505000D03*
X125518000Y-46505000D03*
X143298000Y-49045000D03*
X125518000Y-49045000D03*
X143298000Y-51585000D03*
X125518000Y-51585000D03*
X143298000Y-54125000D03*
X125518000Y-54125000D03*
X143298000Y-56665000D03*
X125518000Y-56665000D03*
X143298000Y-59205000D03*
X125518000Y-59205000D03*
X143298000Y-61745000D03*
X125518000Y-61745000D03*
X143298000Y-64285000D03*
X125518000Y-64285000D03*
D11*
X125518000Y-26185000D03*
X143298000Y-26185000D03*
X190542000Y-26185000D03*
X172762000Y-26185000D03*
D12*
X190542000Y-36345000D03*
X172762000Y-36345000D03*
X190542000Y-38885000D03*
X172762000Y-38885000D03*
X190542000Y-41425000D03*
X172762000Y-41425000D03*
X190542000Y-43965000D03*
X172762000Y-43965000D03*
X190542000Y-46505000D03*
X172762000Y-46505000D03*
X190542000Y-49045000D03*
X172762000Y-49045000D03*
X190542000Y-51585000D03*
X172762000Y-51585000D03*
X190542000Y-54125000D03*
X172762000Y-54125000D03*
X190542000Y-56665000D03*
X172762000Y-56665000D03*
X190542000Y-59205000D03*
X172762000Y-59205000D03*
X190542000Y-61745000D03*
X172762000Y-61745000D03*
X190542000Y-64285000D03*
X172762000Y-64285000D03*
D13*
X174540000Y-45685000D03*
X174540000Y-44785000D03*
X175937000Y-45685000D03*
X175937000Y-44785000D03*
D14*
X187824200Y-50839600D03*
X187824200Y-49739600D03*
D15*
X177689600Y-18006200D03*
D16*
X180229600Y-18006200D03*
X182769600Y-18006200D03*
X185309600Y-18006200D03*
D17*
X180049300Y-39111060D03*
X178149300Y-39111060D03*
X179099300Y-37112080D03*
D18*
X179498500Y-35189300D03*
X178598500Y-35189300D03*
D13*
X178756400Y-51922400D03*
X178756400Y-52822400D03*
X186351000Y-51922400D03*
X186351000Y-52822400D03*
D19*
X177461000Y-44465400D03*
X178731000Y-44465400D03*
X180001000Y-44465400D03*
X181271000Y-44465400D03*
X182541000Y-44465400D03*
X183811000Y-44465400D03*
X185081000Y-44465400D03*
X186351000Y-44465400D03*
X186351000Y-49865400D03*
X185081000Y-49865400D03*
X183811000Y-49865400D03*
X182541000Y-49865400D03*
X181271000Y-49865400D03*
X180001000Y-49865400D03*
X178731000Y-49865400D03*
X177461000Y-49865400D03*
D13*
X184522200Y-41621000D03*
X184522200Y-40721000D03*
D14*
X181271000Y-41822600D03*
X181271000Y-40722600D03*
D20*
X175098800Y-23695800D03*
X175098800Y-28775800D03*
X187798800Y-23695800D03*
X187798800Y-28775800D03*
X175098800Y-142440800D03*
X175098800Y-147520800D03*
X187798800Y-142440800D03*
X187798800Y-147520800D03*
D14*
X181271000Y-160567600D03*
X181271000Y-159467600D03*
D13*
X184522200Y-160366000D03*
X184522200Y-159466000D03*
D19*
X177461000Y-163210400D03*
X178731000Y-163210400D03*
X180001000Y-163210400D03*
X181271000Y-163210400D03*
X182541000Y-163210400D03*
X183811000Y-163210400D03*
X185081000Y-163210400D03*
X186351000Y-163210400D03*
X186351000Y-168610400D03*
X185081000Y-168610400D03*
X183811000Y-168610400D03*
X182541000Y-168610400D03*
X181271000Y-168610400D03*
X180001000Y-168610400D03*
X178731000Y-168610400D03*
X177461000Y-168610400D03*
D13*
X186351000Y-170667400D03*
X186351000Y-171567400D03*
X178756400Y-170667400D03*
X178756400Y-171567400D03*
D18*
X179498500Y-153934300D03*
X178598500Y-153934300D03*
D17*
X180049300Y-157856060D03*
X178149300Y-157856060D03*
X179099300Y-155857080D03*
D15*
X177689600Y-136751200D03*
D16*
X180229600Y-136751200D03*
X182769600Y-136751200D03*
X185309600Y-136751200D03*
D14*
X187824200Y-169584600D03*
X187824200Y-168484600D03*
D13*
X175937000Y-164430000D03*
X175937000Y-163530000D03*
X174540000Y-164430000D03*
X174540000Y-163530000D03*
D12*
X190542000Y-155090000D03*
X172762000Y-155090000D03*
X190542000Y-157630000D03*
X172762000Y-157630000D03*
X190542000Y-160170000D03*
X172762000Y-160170000D03*
X190542000Y-162710000D03*
X172762000Y-162710000D03*
X190542000Y-165250000D03*
X172762000Y-165250000D03*
X190542000Y-167790000D03*
X172762000Y-167790000D03*
X190542000Y-170330000D03*
X172762000Y-170330000D03*
X190542000Y-172870000D03*
X172762000Y-172870000D03*
X190542000Y-175410000D03*
X172762000Y-175410000D03*
X190542000Y-177950000D03*
X172762000Y-177950000D03*
X190542000Y-180490000D03*
X172762000Y-180490000D03*
X190542000Y-183030000D03*
X172762000Y-183030000D03*
D11*
X172762000Y-144930000D03*
X190542000Y-144930000D03*
X166920000Y-144930000D03*
X149140000Y-144930000D03*
D12*
X166920000Y-155090000D03*
X149140000Y-155090000D03*
X166920000Y-157630000D03*
X149140000Y-157630000D03*
X166920000Y-160170000D03*
X149140000Y-160170000D03*
X166920000Y-162710000D03*
X149140000Y-162710000D03*
X166920000Y-165250000D03*
X149140000Y-165250000D03*
X166920000Y-167790000D03*
X149140000Y-167790000D03*
X166920000Y-170330000D03*
X149140000Y-170330000D03*
X166920000Y-172870000D03*
X149140000Y-172870000D03*
X166920000Y-175410000D03*
X149140000Y-175410000D03*
X166920000Y-177950000D03*
X149140000Y-177950000D03*
X166920000Y-180490000D03*
X149140000Y-180490000D03*
X166920000Y-183030000D03*
X149140000Y-183030000D03*
D13*
X150918000Y-164430000D03*
X150918000Y-163530000D03*
X152315000Y-164430000D03*
X152315000Y-163530000D03*
D14*
X164202200Y-169584600D03*
X164202200Y-168484600D03*
D15*
X154067600Y-136751200D03*
D16*
X156607600Y-136751200D03*
X159147600Y-136751200D03*
X161687600Y-136751200D03*
D17*
X156427300Y-157856060D03*
X154527300Y-157856060D03*
X155477300Y-155857080D03*
D18*
X155876500Y-153934300D03*
X154976500Y-153934300D03*
D13*
X155134400Y-170667400D03*
X155134400Y-171567400D03*
X162729000Y-170667400D03*
X162729000Y-171567400D03*
D19*
X153839000Y-163210400D03*
X155109000Y-163210400D03*
X156379000Y-163210400D03*
X157649000Y-163210400D03*
X158919000Y-163210400D03*
X160189000Y-163210400D03*
X161459000Y-163210400D03*
X162729000Y-163210400D03*
X162729000Y-168610400D03*
X161459000Y-168610400D03*
X160189000Y-168610400D03*
X158919000Y-168610400D03*
X157649000Y-168610400D03*
X156379000Y-168610400D03*
X155109000Y-168610400D03*
X153839000Y-168610400D03*
D13*
X160900200Y-160366000D03*
X160900200Y-159466000D03*
D14*
X157649000Y-160567600D03*
X157649000Y-159467600D03*
D20*
X151476800Y-142440800D03*
X151476800Y-147520800D03*
X164176800Y-142440800D03*
X164176800Y-147520800D03*
X151476800Y-23695800D03*
X151476800Y-28775800D03*
X164176800Y-23695800D03*
X164176800Y-28775800D03*
D14*
X157649000Y-41822600D03*
X157649000Y-40722600D03*
D13*
X160900200Y-41621000D03*
X160900200Y-40721000D03*
D19*
X153839000Y-44465400D03*
X155109000Y-44465400D03*
X156379000Y-44465400D03*
X157649000Y-44465400D03*
X158919000Y-44465400D03*
X160189000Y-44465400D03*
X161459000Y-44465400D03*
X162729000Y-44465400D03*
X162729000Y-49865400D03*
X161459000Y-49865400D03*
X160189000Y-49865400D03*
X158919000Y-49865400D03*
X157649000Y-49865400D03*
X156379000Y-49865400D03*
X155109000Y-49865400D03*
X153839000Y-49865400D03*
D13*
X162729000Y-51922400D03*
X162729000Y-52822400D03*
X155134400Y-51922400D03*
X155134400Y-52822400D03*
D18*
X155876500Y-35189300D03*
X154976500Y-35189300D03*
D17*
X156427300Y-39111060D03*
X154527300Y-39111060D03*
X155477300Y-37112080D03*
D15*
X154067600Y-18006200D03*
D16*
X156607600Y-18006200D03*
X159147600Y-18006200D03*
X161687600Y-18006200D03*
D14*
X164202200Y-50839600D03*
X164202200Y-49739600D03*
D13*
X152315000Y-45685000D03*
X152315000Y-44785000D03*
X150918000Y-45685000D03*
X150918000Y-44785000D03*
D12*
X166920000Y-36345000D03*
X149140000Y-36345000D03*
X166920000Y-38885000D03*
X149140000Y-38885000D03*
X166920000Y-41425000D03*
X149140000Y-41425000D03*
X166920000Y-43965000D03*
X149140000Y-43965000D03*
X166920000Y-46505000D03*
X149140000Y-46505000D03*
X166920000Y-49045000D03*
X149140000Y-49045000D03*
X166920000Y-51585000D03*
X149140000Y-51585000D03*
X166920000Y-54125000D03*
X149140000Y-54125000D03*
X166920000Y-56665000D03*
X149140000Y-56665000D03*
X166920000Y-59205000D03*
X149140000Y-59205000D03*
X166920000Y-61745000D03*
X149140000Y-61745000D03*
X166920000Y-64285000D03*
X149140000Y-64285000D03*
D11*
X149140000Y-26185000D03*
X166920000Y-26185000D03*
X96054000Y-26185000D03*
X78274000Y-26185000D03*
D12*
X96054000Y-36345000D03*
X78274000Y-36345000D03*
X96054000Y-38885000D03*
X78274000Y-38885000D03*
X96054000Y-41425000D03*
X78274000Y-41425000D03*
X96054000Y-43965000D03*
X78274000Y-43965000D03*
X96054000Y-46505000D03*
X78274000Y-46505000D03*
X96054000Y-49045000D03*
X78274000Y-49045000D03*
X96054000Y-51585000D03*
X78274000Y-51585000D03*
X96054000Y-54125000D03*
X78274000Y-54125000D03*
X96054000Y-56665000D03*
X78274000Y-56665000D03*
X96054000Y-59205000D03*
X78274000Y-59205000D03*
X96054000Y-61745000D03*
X78274000Y-61745000D03*
X96054000Y-64285000D03*
X78274000Y-64285000D03*
D13*
X80052000Y-45685000D03*
X80052000Y-44785000D03*
X81449000Y-45685000D03*
X81449000Y-44785000D03*
D14*
X93336200Y-50839600D03*
X93336200Y-49739600D03*
D15*
X83201600Y-18006200D03*
D16*
X85741600Y-18006200D03*
X88281600Y-18006200D03*
X90821600Y-18006200D03*
D17*
X85561300Y-39111060D03*
X83661300Y-39111060D03*
X84611300Y-37112080D03*
D18*
X85010500Y-35189300D03*
X84110500Y-35189300D03*
D13*
X84268400Y-51922400D03*
X84268400Y-52822400D03*
X91863000Y-51922400D03*
X91863000Y-52822400D03*
D19*
X82973000Y-44465400D03*
X84243000Y-44465400D03*
X85513000Y-44465400D03*
X86783000Y-44465400D03*
X88053000Y-44465400D03*
X89323000Y-44465400D03*
X90593000Y-44465400D03*
X91863000Y-44465400D03*
X91863000Y-49865400D03*
X90593000Y-49865400D03*
X89323000Y-49865400D03*
X88053000Y-49865400D03*
X86783000Y-49865400D03*
X85513000Y-49865400D03*
X84243000Y-49865400D03*
X82973000Y-49865400D03*
D13*
X90034200Y-41621000D03*
X90034200Y-40721000D03*
D14*
X86783000Y-41822600D03*
X86783000Y-40722600D03*
D20*
X80610800Y-23695800D03*
X80610800Y-28775800D03*
X93310800Y-23695800D03*
X93310800Y-28775800D03*
X80610800Y-142440800D03*
X80610800Y-147520800D03*
X93310800Y-142440800D03*
X93310800Y-147520800D03*
D14*
X86783000Y-160567600D03*
X86783000Y-159467600D03*
D13*
X90034200Y-160366000D03*
X90034200Y-159466000D03*
D19*
X82973000Y-163210400D03*
X84243000Y-163210400D03*
X85513000Y-163210400D03*
X86783000Y-163210400D03*
X88053000Y-163210400D03*
X89323000Y-163210400D03*
X90593000Y-163210400D03*
X91863000Y-163210400D03*
X91863000Y-168610400D03*
X90593000Y-168610400D03*
X89323000Y-168610400D03*
X88053000Y-168610400D03*
X86783000Y-168610400D03*
X85513000Y-168610400D03*
X84243000Y-168610400D03*
X82973000Y-168610400D03*
D13*
X91863000Y-170667400D03*
X91863000Y-171567400D03*
X84268400Y-170667400D03*
X84268400Y-171567400D03*
D18*
X85010500Y-153934300D03*
X84110500Y-153934300D03*
D17*
X85561300Y-157856060D03*
X83661300Y-157856060D03*
X84611300Y-155857080D03*
D15*
X83201600Y-136751200D03*
D16*
X85741600Y-136751200D03*
X88281600Y-136751200D03*
X90821600Y-136751200D03*
D14*
X93336200Y-169584600D03*
X93336200Y-168484600D03*
D13*
X81449000Y-164430000D03*
X81449000Y-163530000D03*
X80052000Y-164430000D03*
X80052000Y-163530000D03*
D12*
X96054000Y-155090000D03*
X78274000Y-155090000D03*
X96054000Y-157630000D03*
X78274000Y-157630000D03*
X96054000Y-160170000D03*
X78274000Y-160170000D03*
X96054000Y-162710000D03*
X78274000Y-162710000D03*
X96054000Y-165250000D03*
X78274000Y-165250000D03*
X96054000Y-167790000D03*
X78274000Y-167790000D03*
X96054000Y-170330000D03*
X78274000Y-170330000D03*
X96054000Y-172870000D03*
X78274000Y-172870000D03*
X96054000Y-175410000D03*
X78274000Y-175410000D03*
X96054000Y-177950000D03*
X78274000Y-177950000D03*
X96054000Y-180490000D03*
X78274000Y-180490000D03*
X96054000Y-183030000D03*
X78274000Y-183030000D03*
D11*
X78274000Y-144930000D03*
X96054000Y-144930000D03*
X119676000Y-144930000D03*
X101896000Y-144930000D03*
D12*
X119676000Y-155090000D03*
X101896000Y-155090000D03*
X119676000Y-157630000D03*
X101896000Y-157630000D03*
X119676000Y-160170000D03*
X101896000Y-160170000D03*
X119676000Y-162710000D03*
X101896000Y-162710000D03*
X119676000Y-165250000D03*
X101896000Y-165250000D03*
X119676000Y-167790000D03*
X101896000Y-167790000D03*
X119676000Y-170330000D03*
X101896000Y-170330000D03*
X119676000Y-172870000D03*
X101896000Y-172870000D03*
X119676000Y-175410000D03*
X101896000Y-175410000D03*
X119676000Y-177950000D03*
X101896000Y-177950000D03*
X119676000Y-180490000D03*
X101896000Y-180490000D03*
X119676000Y-183030000D03*
X101896000Y-183030000D03*
D13*
X103674000Y-164430000D03*
X103674000Y-163530000D03*
X105071000Y-164430000D03*
X105071000Y-163530000D03*
D14*
X116958200Y-169584600D03*
X116958200Y-168484600D03*
D15*
X106823600Y-136751200D03*
D16*
X109363600Y-136751200D03*
X111903600Y-136751200D03*
X114443600Y-136751200D03*
D17*
X109183300Y-157856060D03*
X107283300Y-157856060D03*
X108233300Y-155857080D03*
D18*
X108632500Y-153934300D03*
X107732500Y-153934300D03*
D13*
X107890400Y-170667400D03*
X107890400Y-171567400D03*
X115485000Y-170667400D03*
X115485000Y-171567400D03*
D19*
X106595000Y-163210400D03*
X107865000Y-163210400D03*
X109135000Y-163210400D03*
X110405000Y-163210400D03*
X111675000Y-163210400D03*
X112945000Y-163210400D03*
X114215000Y-163210400D03*
X115485000Y-163210400D03*
X115485000Y-168610400D03*
X114215000Y-168610400D03*
X112945000Y-168610400D03*
X111675000Y-168610400D03*
X110405000Y-168610400D03*
X109135000Y-168610400D03*
X107865000Y-168610400D03*
X106595000Y-168610400D03*
D13*
X113656200Y-160366000D03*
X113656200Y-159466000D03*
D14*
X110405000Y-160567600D03*
X110405000Y-159467600D03*
D20*
X104232800Y-142440800D03*
X104232800Y-147520800D03*
X116932800Y-142440800D03*
X116932800Y-147520800D03*
X104232800Y-23695800D03*
X104232800Y-28775800D03*
X116932800Y-23695800D03*
X116932800Y-28775800D03*
D14*
X110405000Y-41822600D03*
X110405000Y-40722600D03*
D13*
X113656200Y-41621000D03*
X113656200Y-40721000D03*
D19*
X106595000Y-44465400D03*
X107865000Y-44465400D03*
X109135000Y-44465400D03*
X110405000Y-44465400D03*
X111675000Y-44465400D03*
X112945000Y-44465400D03*
X114215000Y-44465400D03*
X115485000Y-44465400D03*
X115485000Y-49865400D03*
X114215000Y-49865400D03*
X112945000Y-49865400D03*
X111675000Y-49865400D03*
X110405000Y-49865400D03*
X109135000Y-49865400D03*
X107865000Y-49865400D03*
X106595000Y-49865400D03*
D13*
X115485000Y-51922400D03*
X115485000Y-52822400D03*
X107890400Y-51922400D03*
X107890400Y-52822400D03*
D18*
X108632500Y-35189300D03*
X107732500Y-35189300D03*
D17*
X109183300Y-39111060D03*
X107283300Y-39111060D03*
X108233300Y-37112080D03*
D15*
X106823600Y-18006200D03*
D16*
X109363600Y-18006200D03*
X111903600Y-18006200D03*
X114443600Y-18006200D03*
D14*
X116958200Y-50839600D03*
X116958200Y-49739600D03*
D13*
X105071000Y-45685000D03*
X105071000Y-44785000D03*
X103674000Y-45685000D03*
X103674000Y-44785000D03*
D12*
X119676000Y-36345000D03*
X101896000Y-36345000D03*
X119676000Y-38885000D03*
X101896000Y-38885000D03*
X119676000Y-41425000D03*
X101896000Y-41425000D03*
X119676000Y-43965000D03*
X101896000Y-43965000D03*
X119676000Y-46505000D03*
X101896000Y-46505000D03*
X119676000Y-49045000D03*
X101896000Y-49045000D03*
X119676000Y-51585000D03*
X101896000Y-51585000D03*
X119676000Y-54125000D03*
X101896000Y-54125000D03*
X119676000Y-56665000D03*
X101896000Y-56665000D03*
X119676000Y-59205000D03*
X101896000Y-59205000D03*
X119676000Y-61745000D03*
X101896000Y-61745000D03*
X119676000Y-64285000D03*
X101896000Y-64285000D03*
D11*
X101896000Y-26185000D03*
X119676000Y-26185000D03*
X72432000Y-26185000D03*
X54652000Y-26185000D03*
D12*
X72432000Y-36345000D03*
X54652000Y-36345000D03*
X72432000Y-38885000D03*
X54652000Y-38885000D03*
X72432000Y-41425000D03*
X54652000Y-41425000D03*
X72432000Y-43965000D03*
X54652000Y-43965000D03*
X72432000Y-46505000D03*
X54652000Y-46505000D03*
X72432000Y-49045000D03*
X54652000Y-49045000D03*
X72432000Y-51585000D03*
X54652000Y-51585000D03*
X72432000Y-54125000D03*
X54652000Y-54125000D03*
X72432000Y-56665000D03*
X54652000Y-56665000D03*
X72432000Y-59205000D03*
X54652000Y-59205000D03*
X72432000Y-61745000D03*
X54652000Y-61745000D03*
X72432000Y-64285000D03*
X54652000Y-64285000D03*
D13*
X56430000Y-45685000D03*
X56430000Y-44785000D03*
X57827000Y-45685000D03*
X57827000Y-44785000D03*
D14*
X69714200Y-50839600D03*
X69714200Y-49739600D03*
D15*
X59579600Y-18006200D03*
D16*
X62119600Y-18006200D03*
X64659600Y-18006200D03*
X67199600Y-18006200D03*
D17*
X61939300Y-39111060D03*
X60039300Y-39111060D03*
X60989300Y-37112080D03*
D18*
X61388500Y-35189300D03*
X60488500Y-35189300D03*
D13*
X60646400Y-51922400D03*
X60646400Y-52822400D03*
X68241000Y-51922400D03*
X68241000Y-52822400D03*
D19*
X59351000Y-44465400D03*
X60621000Y-44465400D03*
X61891000Y-44465400D03*
X63161000Y-44465400D03*
X64431000Y-44465400D03*
X65701000Y-44465400D03*
X66971000Y-44465400D03*
X68241000Y-44465400D03*
X68241000Y-49865400D03*
X66971000Y-49865400D03*
X65701000Y-49865400D03*
X64431000Y-49865400D03*
X63161000Y-49865400D03*
X61891000Y-49865400D03*
X60621000Y-49865400D03*
X59351000Y-49865400D03*
D13*
X66412200Y-41621000D03*
X66412200Y-40721000D03*
D14*
X63161000Y-41822600D03*
X63161000Y-40722600D03*
D20*
X56988800Y-23695800D03*
X56988800Y-28775800D03*
X69688800Y-23695800D03*
X69688800Y-28775800D03*
X56988800Y-142440800D03*
X56988800Y-147520800D03*
X69688800Y-142440800D03*
X69688800Y-147520800D03*
D14*
X63161000Y-160567600D03*
X63161000Y-159467600D03*
D13*
X66412200Y-160366000D03*
X66412200Y-159466000D03*
D19*
X59351000Y-163210400D03*
X60621000Y-163210400D03*
X61891000Y-163210400D03*
X63161000Y-163210400D03*
X64431000Y-163210400D03*
X65701000Y-163210400D03*
X66971000Y-163210400D03*
X68241000Y-163210400D03*
X68241000Y-168610400D03*
X66971000Y-168610400D03*
X65701000Y-168610400D03*
X64431000Y-168610400D03*
X63161000Y-168610400D03*
X61891000Y-168610400D03*
X60621000Y-168610400D03*
X59351000Y-168610400D03*
D13*
X68241000Y-170667400D03*
X68241000Y-171567400D03*
X60646400Y-170667400D03*
X60646400Y-171567400D03*
D18*
X61388500Y-153934300D03*
X60488500Y-153934300D03*
D17*
X61939300Y-157856060D03*
X60039300Y-157856060D03*
X60989300Y-155857080D03*
D15*
X59579600Y-136751200D03*
D16*
X62119600Y-136751200D03*
X64659600Y-136751200D03*
X67199600Y-136751200D03*
D14*
X69714200Y-169584600D03*
X69714200Y-168484600D03*
D13*
X57827000Y-164430000D03*
X57827000Y-163530000D03*
X56430000Y-164430000D03*
X56430000Y-163530000D03*
D12*
X72432000Y-155090000D03*
X54652000Y-155090000D03*
X72432000Y-157630000D03*
X54652000Y-157630000D03*
X72432000Y-160170000D03*
X54652000Y-160170000D03*
X72432000Y-162710000D03*
X54652000Y-162710000D03*
X72432000Y-165250000D03*
X54652000Y-165250000D03*
X72432000Y-167790000D03*
X54652000Y-167790000D03*
X72432000Y-170330000D03*
X54652000Y-170330000D03*
X72432000Y-172870000D03*
X54652000Y-172870000D03*
X72432000Y-175410000D03*
X54652000Y-175410000D03*
X72432000Y-177950000D03*
X54652000Y-177950000D03*
X72432000Y-180490000D03*
X54652000Y-180490000D03*
X72432000Y-183030000D03*
X54652000Y-183030000D03*
D11*
X54652000Y-144930000D03*
X72432000Y-144930000D03*
X48810000Y-144930000D03*
X31030000Y-144930000D03*
D12*
X48810000Y-155090000D03*
X31030000Y-155090000D03*
X48810000Y-157630000D03*
X31030000Y-157630000D03*
X48810000Y-160170000D03*
X31030000Y-160170000D03*
X48810000Y-162710000D03*
X31030000Y-162710000D03*
X48810000Y-165250000D03*
X31030000Y-165250000D03*
X48810000Y-167790000D03*
X31030000Y-167790000D03*
X48810000Y-170330000D03*
X31030000Y-170330000D03*
X48810000Y-172870000D03*
X31030000Y-172870000D03*
X48810000Y-175410000D03*
X31030000Y-175410000D03*
X48810000Y-177950000D03*
X31030000Y-177950000D03*
X48810000Y-180490000D03*
X31030000Y-180490000D03*
X48810000Y-183030000D03*
X31030000Y-183030000D03*
D13*
X32808000Y-164430000D03*
X32808000Y-163530000D03*
X34205000Y-164430000D03*
X34205000Y-163530000D03*
D14*
X46092200Y-169584600D03*
X46092200Y-168484600D03*
D15*
X35957600Y-136751200D03*
D16*
X38497600Y-136751200D03*
X41037600Y-136751200D03*
X43577600Y-136751200D03*
D17*
X38317300Y-157856060D03*
X36417300Y-157856060D03*
X37367300Y-155857080D03*
D18*
X37766500Y-153934300D03*
X36866500Y-153934300D03*
D13*
X37024400Y-170667400D03*
X37024400Y-171567400D03*
X44619000Y-170667400D03*
X44619000Y-171567400D03*
D19*
X35729000Y-163210400D03*
X36999000Y-163210400D03*
X38269000Y-163210400D03*
X39539000Y-163210400D03*
X40809000Y-163210400D03*
X42079000Y-163210400D03*
X43349000Y-163210400D03*
X44619000Y-163210400D03*
X44619000Y-168610400D03*
X43349000Y-168610400D03*
X42079000Y-168610400D03*
X40809000Y-168610400D03*
X39539000Y-168610400D03*
X38269000Y-168610400D03*
X36999000Y-168610400D03*
X35729000Y-168610400D03*
D13*
X42790200Y-160366000D03*
X42790200Y-159466000D03*
D14*
X39539000Y-160567600D03*
X39539000Y-159467600D03*
D20*
X33366800Y-142440800D03*
X33366800Y-147520800D03*
X46066800Y-142440800D03*
X46066800Y-147520800D03*
X33366800Y-23695800D03*
X33366800Y-28775800D03*
X46066800Y-23695800D03*
X46066800Y-28775800D03*
D14*
X39539000Y-41822600D03*
X39539000Y-40722600D03*
D13*
X42790200Y-41621000D03*
X42790200Y-40721000D03*
D19*
X35729000Y-44465400D03*
X36999000Y-44465400D03*
X38269000Y-44465400D03*
X39539000Y-44465400D03*
X40809000Y-44465400D03*
X42079000Y-44465400D03*
X43349000Y-44465400D03*
X44619000Y-44465400D03*
X44619000Y-49865400D03*
X43349000Y-49865400D03*
X42079000Y-49865400D03*
X40809000Y-49865400D03*
X39539000Y-49865400D03*
X38269000Y-49865400D03*
X36999000Y-49865400D03*
X35729000Y-49865400D03*
D13*
X44619000Y-51922400D03*
X44619000Y-52822400D03*
X37024400Y-51922400D03*
X37024400Y-52822400D03*
D18*
X37766500Y-35189300D03*
X36866500Y-35189300D03*
D17*
X38317300Y-39111060D03*
X36417300Y-39111060D03*
X37367300Y-37112080D03*
D15*
X35957600Y-18006200D03*
D16*
X38497600Y-18006200D03*
X41037600Y-18006200D03*
X43577600Y-18006200D03*
D14*
X46092200Y-50839600D03*
X46092200Y-49739600D03*
D13*
X34205000Y-45685000D03*
X34205000Y-44785000D03*
X32808000Y-45685000D03*
X32808000Y-44785000D03*
D12*
X48810000Y-36345000D03*
X31030000Y-36345000D03*
X48810000Y-38885000D03*
X31030000Y-38885000D03*
X48810000Y-41425000D03*
X31030000Y-41425000D03*
X48810000Y-43965000D03*
X31030000Y-43965000D03*
X48810000Y-46505000D03*
X31030000Y-46505000D03*
X48810000Y-49045000D03*
X31030000Y-49045000D03*
X48810000Y-51585000D03*
X31030000Y-51585000D03*
X48810000Y-54125000D03*
X31030000Y-54125000D03*
X48810000Y-56665000D03*
X31030000Y-56665000D03*
X48810000Y-59205000D03*
X31030000Y-59205000D03*
X48810000Y-61745000D03*
X31030000Y-61745000D03*
X48810000Y-64285000D03*
X31030000Y-64285000D03*
D11*
X31030000Y-26185000D03*
X48810000Y-26185000D03*
M02*
