G04 #@! TF.FileFunction,Soldermask,Top*
%FSLAX46Y46*%
G04 Gerber Fmt 4.6, Leading zero omitted, Abs format (unit mm)*
G04 Created by KiCad (PCBNEW 4.0.1-stable) date 2/13/2017 3:52:04 PM*
%MOMM*%
G01*
G04 APERTURE LIST*
%ADD10C,0.100000*%
%ADD11O,2.400000X1.670000*%
%ADD12R,2.127200X2.432000*%
%ADD13O,2.127200X2.432000*%
%ADD14R,0.800000X1.000000*%
%ADD15O,3.448000X2.127200*%
G04 APERTURE END LIST*
D10*
D11*
X143298000Y-155090000D03*
X125518000Y-155090000D03*
X143298000Y-157630000D03*
X125518000Y-157630000D03*
X143298000Y-160170000D03*
X125518000Y-160170000D03*
X143298000Y-162710000D03*
X125518000Y-162710000D03*
X143298000Y-165250000D03*
X125518000Y-165250000D03*
X143298000Y-167790000D03*
X125518000Y-167790000D03*
X143298000Y-170330000D03*
X125518000Y-170330000D03*
X143298000Y-172870000D03*
X125518000Y-172870000D03*
X143298000Y-175410000D03*
X125518000Y-175410000D03*
X143298000Y-177950000D03*
X125518000Y-177950000D03*
X143298000Y-180490000D03*
X125518000Y-180490000D03*
X143298000Y-183030000D03*
X125518000Y-183030000D03*
D12*
X130445600Y-136751200D03*
D13*
X132985600Y-136751200D03*
X135525600Y-136751200D03*
X138065600Y-136751200D03*
D14*
X130198800Y-235531800D03*
X131098800Y-235531800D03*
D15*
X127854800Y-142440800D03*
X127854800Y-147520800D03*
X140554800Y-142440800D03*
X140554800Y-147520800D03*
X127854800Y-23695800D03*
X127854800Y-28775800D03*
X140554800Y-23695800D03*
X140554800Y-28775800D03*
D14*
X130198800Y-116786800D03*
X131098800Y-116786800D03*
D12*
X130445600Y-18006200D03*
D13*
X132985600Y-18006200D03*
X135525600Y-18006200D03*
X138065600Y-18006200D03*
D11*
X143298000Y-36345000D03*
X125518000Y-36345000D03*
X143298000Y-38885000D03*
X125518000Y-38885000D03*
X143298000Y-41425000D03*
X125518000Y-41425000D03*
X143298000Y-43965000D03*
X125518000Y-43965000D03*
X143298000Y-46505000D03*
X125518000Y-46505000D03*
X143298000Y-49045000D03*
X125518000Y-49045000D03*
X143298000Y-51585000D03*
X125518000Y-51585000D03*
X143298000Y-54125000D03*
X125518000Y-54125000D03*
X143298000Y-56665000D03*
X125518000Y-56665000D03*
X143298000Y-59205000D03*
X125518000Y-59205000D03*
X143298000Y-61745000D03*
X125518000Y-61745000D03*
X143298000Y-64285000D03*
X125518000Y-64285000D03*
X190542000Y-36345000D03*
X172762000Y-36345000D03*
X190542000Y-38885000D03*
X172762000Y-38885000D03*
X190542000Y-41425000D03*
X172762000Y-41425000D03*
X190542000Y-43965000D03*
X172762000Y-43965000D03*
X190542000Y-46505000D03*
X172762000Y-46505000D03*
X190542000Y-49045000D03*
X172762000Y-49045000D03*
X190542000Y-51585000D03*
X172762000Y-51585000D03*
X190542000Y-54125000D03*
X172762000Y-54125000D03*
X190542000Y-56665000D03*
X172762000Y-56665000D03*
X190542000Y-59205000D03*
X172762000Y-59205000D03*
X190542000Y-61745000D03*
X172762000Y-61745000D03*
X190542000Y-64285000D03*
X172762000Y-64285000D03*
D12*
X177689600Y-18006200D03*
D13*
X180229600Y-18006200D03*
X182769600Y-18006200D03*
X185309600Y-18006200D03*
D14*
X177442800Y-116786800D03*
X178342800Y-116786800D03*
D15*
X175098800Y-23695800D03*
X175098800Y-28775800D03*
X187798800Y-23695800D03*
X187798800Y-28775800D03*
X175098800Y-142440800D03*
X175098800Y-147520800D03*
X187798800Y-142440800D03*
X187798800Y-147520800D03*
D14*
X177442800Y-235531800D03*
X178342800Y-235531800D03*
D12*
X177689600Y-136751200D03*
D13*
X180229600Y-136751200D03*
X182769600Y-136751200D03*
X185309600Y-136751200D03*
D11*
X190542000Y-155090000D03*
X172762000Y-155090000D03*
X190542000Y-157630000D03*
X172762000Y-157630000D03*
X190542000Y-160170000D03*
X172762000Y-160170000D03*
X190542000Y-162710000D03*
X172762000Y-162710000D03*
X190542000Y-165250000D03*
X172762000Y-165250000D03*
X190542000Y-167790000D03*
X172762000Y-167790000D03*
X190542000Y-170330000D03*
X172762000Y-170330000D03*
X190542000Y-172870000D03*
X172762000Y-172870000D03*
X190542000Y-175410000D03*
X172762000Y-175410000D03*
X190542000Y-177950000D03*
X172762000Y-177950000D03*
X190542000Y-180490000D03*
X172762000Y-180490000D03*
X190542000Y-183030000D03*
X172762000Y-183030000D03*
X166920000Y-155090000D03*
X149140000Y-155090000D03*
X166920000Y-157630000D03*
X149140000Y-157630000D03*
X166920000Y-160170000D03*
X149140000Y-160170000D03*
X166920000Y-162710000D03*
X149140000Y-162710000D03*
X166920000Y-165250000D03*
X149140000Y-165250000D03*
X166920000Y-167790000D03*
X149140000Y-167790000D03*
X166920000Y-170330000D03*
X149140000Y-170330000D03*
X166920000Y-172870000D03*
X149140000Y-172870000D03*
X166920000Y-175410000D03*
X149140000Y-175410000D03*
X166920000Y-177950000D03*
X149140000Y-177950000D03*
X166920000Y-180490000D03*
X149140000Y-180490000D03*
X166920000Y-183030000D03*
X149140000Y-183030000D03*
D12*
X154067600Y-136751200D03*
D13*
X156607600Y-136751200D03*
X159147600Y-136751200D03*
X161687600Y-136751200D03*
D14*
X153820800Y-235531800D03*
X154720800Y-235531800D03*
D15*
X151476800Y-142440800D03*
X151476800Y-147520800D03*
X164176800Y-142440800D03*
X164176800Y-147520800D03*
X151476800Y-23695800D03*
X151476800Y-28775800D03*
X164176800Y-23695800D03*
X164176800Y-28775800D03*
D14*
X153820800Y-116786800D03*
X154720800Y-116786800D03*
D12*
X154067600Y-18006200D03*
D13*
X156607600Y-18006200D03*
X159147600Y-18006200D03*
X161687600Y-18006200D03*
D11*
X166920000Y-36345000D03*
X149140000Y-36345000D03*
X166920000Y-38885000D03*
X149140000Y-38885000D03*
X166920000Y-41425000D03*
X149140000Y-41425000D03*
X166920000Y-43965000D03*
X149140000Y-43965000D03*
X166920000Y-46505000D03*
X149140000Y-46505000D03*
X166920000Y-49045000D03*
X149140000Y-49045000D03*
X166920000Y-51585000D03*
X149140000Y-51585000D03*
X166920000Y-54125000D03*
X149140000Y-54125000D03*
X166920000Y-56665000D03*
X149140000Y-56665000D03*
X166920000Y-59205000D03*
X149140000Y-59205000D03*
X166920000Y-61745000D03*
X149140000Y-61745000D03*
X166920000Y-64285000D03*
X149140000Y-64285000D03*
X96054000Y-36345000D03*
X78274000Y-36345000D03*
X96054000Y-38885000D03*
X78274000Y-38885000D03*
X96054000Y-41425000D03*
X78274000Y-41425000D03*
X96054000Y-43965000D03*
X78274000Y-43965000D03*
X96054000Y-46505000D03*
X78274000Y-46505000D03*
X96054000Y-49045000D03*
X78274000Y-49045000D03*
X96054000Y-51585000D03*
X78274000Y-51585000D03*
X96054000Y-54125000D03*
X78274000Y-54125000D03*
X96054000Y-56665000D03*
X78274000Y-56665000D03*
X96054000Y-59205000D03*
X78274000Y-59205000D03*
X96054000Y-61745000D03*
X78274000Y-61745000D03*
X96054000Y-64285000D03*
X78274000Y-64285000D03*
D12*
X83201600Y-18006200D03*
D13*
X85741600Y-18006200D03*
X88281600Y-18006200D03*
X90821600Y-18006200D03*
D14*
X82954800Y-116786800D03*
X83854800Y-116786800D03*
D15*
X80610800Y-23695800D03*
X80610800Y-28775800D03*
X93310800Y-23695800D03*
X93310800Y-28775800D03*
X80610800Y-142440800D03*
X80610800Y-147520800D03*
X93310800Y-142440800D03*
X93310800Y-147520800D03*
D14*
X82954800Y-235531800D03*
X83854800Y-235531800D03*
D12*
X83201600Y-136751200D03*
D13*
X85741600Y-136751200D03*
X88281600Y-136751200D03*
X90821600Y-136751200D03*
D11*
X96054000Y-155090000D03*
X78274000Y-155090000D03*
X96054000Y-157630000D03*
X78274000Y-157630000D03*
X96054000Y-160170000D03*
X78274000Y-160170000D03*
X96054000Y-162710000D03*
X78274000Y-162710000D03*
X96054000Y-165250000D03*
X78274000Y-165250000D03*
X96054000Y-167790000D03*
X78274000Y-167790000D03*
X96054000Y-170330000D03*
X78274000Y-170330000D03*
X96054000Y-172870000D03*
X78274000Y-172870000D03*
X96054000Y-175410000D03*
X78274000Y-175410000D03*
X96054000Y-177950000D03*
X78274000Y-177950000D03*
X96054000Y-180490000D03*
X78274000Y-180490000D03*
X96054000Y-183030000D03*
X78274000Y-183030000D03*
X119676000Y-155090000D03*
X101896000Y-155090000D03*
X119676000Y-157630000D03*
X101896000Y-157630000D03*
X119676000Y-160170000D03*
X101896000Y-160170000D03*
X119676000Y-162710000D03*
X101896000Y-162710000D03*
X119676000Y-165250000D03*
X101896000Y-165250000D03*
X119676000Y-167790000D03*
X101896000Y-167790000D03*
X119676000Y-170330000D03*
X101896000Y-170330000D03*
X119676000Y-172870000D03*
X101896000Y-172870000D03*
X119676000Y-175410000D03*
X101896000Y-175410000D03*
X119676000Y-177950000D03*
X101896000Y-177950000D03*
X119676000Y-180490000D03*
X101896000Y-180490000D03*
X119676000Y-183030000D03*
X101896000Y-183030000D03*
D12*
X106823600Y-136751200D03*
D13*
X109363600Y-136751200D03*
X111903600Y-136751200D03*
X114443600Y-136751200D03*
D14*
X106576800Y-235531800D03*
X107476800Y-235531800D03*
D15*
X104232800Y-142440800D03*
X104232800Y-147520800D03*
X116932800Y-142440800D03*
X116932800Y-147520800D03*
X104232800Y-23695800D03*
X104232800Y-28775800D03*
X116932800Y-23695800D03*
X116932800Y-28775800D03*
D14*
X106576800Y-116786800D03*
X107476800Y-116786800D03*
D12*
X106823600Y-18006200D03*
D13*
X109363600Y-18006200D03*
X111903600Y-18006200D03*
X114443600Y-18006200D03*
D11*
X119676000Y-36345000D03*
X101896000Y-36345000D03*
X119676000Y-38885000D03*
X101896000Y-38885000D03*
X119676000Y-41425000D03*
X101896000Y-41425000D03*
X119676000Y-43965000D03*
X101896000Y-43965000D03*
X119676000Y-46505000D03*
X101896000Y-46505000D03*
X119676000Y-49045000D03*
X101896000Y-49045000D03*
X119676000Y-51585000D03*
X101896000Y-51585000D03*
X119676000Y-54125000D03*
X101896000Y-54125000D03*
X119676000Y-56665000D03*
X101896000Y-56665000D03*
X119676000Y-59205000D03*
X101896000Y-59205000D03*
X119676000Y-61745000D03*
X101896000Y-61745000D03*
X119676000Y-64285000D03*
X101896000Y-64285000D03*
X72432000Y-36345000D03*
X54652000Y-36345000D03*
X72432000Y-38885000D03*
X54652000Y-38885000D03*
X72432000Y-41425000D03*
X54652000Y-41425000D03*
X72432000Y-43965000D03*
X54652000Y-43965000D03*
X72432000Y-46505000D03*
X54652000Y-46505000D03*
X72432000Y-49045000D03*
X54652000Y-49045000D03*
X72432000Y-51585000D03*
X54652000Y-51585000D03*
X72432000Y-54125000D03*
X54652000Y-54125000D03*
X72432000Y-56665000D03*
X54652000Y-56665000D03*
X72432000Y-59205000D03*
X54652000Y-59205000D03*
X72432000Y-61745000D03*
X54652000Y-61745000D03*
X72432000Y-64285000D03*
X54652000Y-64285000D03*
D12*
X59579600Y-18006200D03*
D13*
X62119600Y-18006200D03*
X64659600Y-18006200D03*
X67199600Y-18006200D03*
D14*
X59332800Y-116786800D03*
X60232800Y-116786800D03*
D15*
X56988800Y-23695800D03*
X56988800Y-28775800D03*
X69688800Y-23695800D03*
X69688800Y-28775800D03*
X56988800Y-142440800D03*
X56988800Y-147520800D03*
X69688800Y-142440800D03*
X69688800Y-147520800D03*
D14*
X59332800Y-235531800D03*
X60232800Y-235531800D03*
D12*
X59579600Y-136751200D03*
D13*
X62119600Y-136751200D03*
X64659600Y-136751200D03*
X67199600Y-136751200D03*
D11*
X72432000Y-155090000D03*
X54652000Y-155090000D03*
X72432000Y-157630000D03*
X54652000Y-157630000D03*
X72432000Y-160170000D03*
X54652000Y-160170000D03*
X72432000Y-162710000D03*
X54652000Y-162710000D03*
X72432000Y-165250000D03*
X54652000Y-165250000D03*
X72432000Y-167790000D03*
X54652000Y-167790000D03*
X72432000Y-170330000D03*
X54652000Y-170330000D03*
X72432000Y-172870000D03*
X54652000Y-172870000D03*
X72432000Y-175410000D03*
X54652000Y-175410000D03*
X72432000Y-177950000D03*
X54652000Y-177950000D03*
X72432000Y-180490000D03*
X54652000Y-180490000D03*
X72432000Y-183030000D03*
X54652000Y-183030000D03*
X48810000Y-155090000D03*
X31030000Y-155090000D03*
X48810000Y-157630000D03*
X31030000Y-157630000D03*
X48810000Y-160170000D03*
X31030000Y-160170000D03*
X48810000Y-162710000D03*
X31030000Y-162710000D03*
X48810000Y-165250000D03*
X31030000Y-165250000D03*
X48810000Y-167790000D03*
X31030000Y-167790000D03*
X48810000Y-170330000D03*
X31030000Y-170330000D03*
X48810000Y-172870000D03*
X31030000Y-172870000D03*
X48810000Y-175410000D03*
X31030000Y-175410000D03*
X48810000Y-177950000D03*
X31030000Y-177950000D03*
X48810000Y-180490000D03*
X31030000Y-180490000D03*
X48810000Y-183030000D03*
X31030000Y-183030000D03*
D12*
X35957600Y-136751200D03*
D13*
X38497600Y-136751200D03*
X41037600Y-136751200D03*
X43577600Y-136751200D03*
D14*
X35710800Y-235531800D03*
X36610800Y-235531800D03*
D15*
X33366800Y-142440800D03*
X33366800Y-147520800D03*
X46066800Y-142440800D03*
X46066800Y-147520800D03*
X33366800Y-23695800D03*
X33366800Y-28775800D03*
X46066800Y-23695800D03*
X46066800Y-28775800D03*
D14*
X35710800Y-116786800D03*
X36610800Y-116786800D03*
D12*
X35957600Y-18006200D03*
D13*
X38497600Y-18006200D03*
X41037600Y-18006200D03*
X43577600Y-18006200D03*
D11*
X48810000Y-36345000D03*
X31030000Y-36345000D03*
X48810000Y-38885000D03*
X31030000Y-38885000D03*
X48810000Y-41425000D03*
X31030000Y-41425000D03*
X48810000Y-43965000D03*
X31030000Y-43965000D03*
X48810000Y-46505000D03*
X31030000Y-46505000D03*
X48810000Y-49045000D03*
X31030000Y-49045000D03*
X48810000Y-51585000D03*
X31030000Y-51585000D03*
X48810000Y-54125000D03*
X31030000Y-54125000D03*
X48810000Y-56665000D03*
X31030000Y-56665000D03*
X48810000Y-59205000D03*
X31030000Y-59205000D03*
X48810000Y-61745000D03*
X31030000Y-61745000D03*
X48810000Y-64285000D03*
X31030000Y-64285000D03*
M02*
