G04 #@! TF.FileFunction,Copper,L1,Top,Signal*
%FSLAX46Y46*%
G04 Gerber Fmt 4.6, Leading zero omitted, Abs format (unit mm)*
G04 Created by KiCad (PCBNEW 4.0.1-stable) date 2/13/2017 3:52:04 PM*
%MOMM*%
G01*
G04 APERTURE LIST*
%ADD10C,0.100000*%
%ADD11O,2.000000X1.270000*%
%ADD12R,1.727200X2.032000*%
%ADD13O,1.727200X2.032000*%
%ADD14R,0.400000X0.600000*%
%ADD15O,3.048000X1.727200*%
%ADD16C,0.600000*%
%ADD17C,0.152400*%
%ADD18C,0.250000*%
%ADD19C,0.500000*%
G04 APERTURE END LIST*
D10*
D11*
X143298000Y-155090000D03*
X125518000Y-155090000D03*
X143298000Y-157630000D03*
X125518000Y-157630000D03*
X143298000Y-160170000D03*
X125518000Y-160170000D03*
X143298000Y-162710000D03*
X125518000Y-162710000D03*
X143298000Y-165250000D03*
X125518000Y-165250000D03*
X143298000Y-167790000D03*
X125518000Y-167790000D03*
X143298000Y-170330000D03*
X125518000Y-170330000D03*
X143298000Y-172870000D03*
X125518000Y-172870000D03*
X143298000Y-175410000D03*
X125518000Y-175410000D03*
X143298000Y-177950000D03*
X125518000Y-177950000D03*
X143298000Y-180490000D03*
X125518000Y-180490000D03*
X143298000Y-183030000D03*
X125518000Y-183030000D03*
D12*
X130445600Y-136751200D03*
D13*
X132985600Y-136751200D03*
X135525600Y-136751200D03*
X138065600Y-136751200D03*
D14*
X130198800Y-235531800D03*
X131098800Y-235531800D03*
D15*
X127854800Y-142440800D03*
X127854800Y-147520800D03*
X140554800Y-142440800D03*
X140554800Y-147520800D03*
X127854800Y-23695800D03*
X127854800Y-28775800D03*
X140554800Y-23695800D03*
X140554800Y-28775800D03*
D14*
X130198800Y-116786800D03*
X131098800Y-116786800D03*
D12*
X130445600Y-18006200D03*
D13*
X132985600Y-18006200D03*
X135525600Y-18006200D03*
X138065600Y-18006200D03*
D11*
X143298000Y-36345000D03*
X125518000Y-36345000D03*
X143298000Y-38885000D03*
X125518000Y-38885000D03*
X143298000Y-41425000D03*
X125518000Y-41425000D03*
X143298000Y-43965000D03*
X125518000Y-43965000D03*
X143298000Y-46505000D03*
X125518000Y-46505000D03*
X143298000Y-49045000D03*
X125518000Y-49045000D03*
X143298000Y-51585000D03*
X125518000Y-51585000D03*
X143298000Y-54125000D03*
X125518000Y-54125000D03*
X143298000Y-56665000D03*
X125518000Y-56665000D03*
X143298000Y-59205000D03*
X125518000Y-59205000D03*
X143298000Y-61745000D03*
X125518000Y-61745000D03*
X143298000Y-64285000D03*
X125518000Y-64285000D03*
X190542000Y-36345000D03*
X172762000Y-36345000D03*
X190542000Y-38885000D03*
X172762000Y-38885000D03*
X190542000Y-41425000D03*
X172762000Y-41425000D03*
X190542000Y-43965000D03*
X172762000Y-43965000D03*
X190542000Y-46505000D03*
X172762000Y-46505000D03*
X190542000Y-49045000D03*
X172762000Y-49045000D03*
X190542000Y-51585000D03*
X172762000Y-51585000D03*
X190542000Y-54125000D03*
X172762000Y-54125000D03*
X190542000Y-56665000D03*
X172762000Y-56665000D03*
X190542000Y-59205000D03*
X172762000Y-59205000D03*
X190542000Y-61745000D03*
X172762000Y-61745000D03*
X190542000Y-64285000D03*
X172762000Y-64285000D03*
D12*
X177689600Y-18006200D03*
D13*
X180229600Y-18006200D03*
X182769600Y-18006200D03*
X185309600Y-18006200D03*
D14*
X177442800Y-116786800D03*
X178342800Y-116786800D03*
D15*
X175098800Y-23695800D03*
X175098800Y-28775800D03*
X187798800Y-23695800D03*
X187798800Y-28775800D03*
X175098800Y-142440800D03*
X175098800Y-147520800D03*
X187798800Y-142440800D03*
X187798800Y-147520800D03*
D14*
X177442800Y-235531800D03*
X178342800Y-235531800D03*
D12*
X177689600Y-136751200D03*
D13*
X180229600Y-136751200D03*
X182769600Y-136751200D03*
X185309600Y-136751200D03*
D11*
X190542000Y-155090000D03*
X172762000Y-155090000D03*
X190542000Y-157630000D03*
X172762000Y-157630000D03*
X190542000Y-160170000D03*
X172762000Y-160170000D03*
X190542000Y-162710000D03*
X172762000Y-162710000D03*
X190542000Y-165250000D03*
X172762000Y-165250000D03*
X190542000Y-167790000D03*
X172762000Y-167790000D03*
X190542000Y-170330000D03*
X172762000Y-170330000D03*
X190542000Y-172870000D03*
X172762000Y-172870000D03*
X190542000Y-175410000D03*
X172762000Y-175410000D03*
X190542000Y-177950000D03*
X172762000Y-177950000D03*
X190542000Y-180490000D03*
X172762000Y-180490000D03*
X190542000Y-183030000D03*
X172762000Y-183030000D03*
X166920000Y-155090000D03*
X149140000Y-155090000D03*
X166920000Y-157630000D03*
X149140000Y-157630000D03*
X166920000Y-160170000D03*
X149140000Y-160170000D03*
X166920000Y-162710000D03*
X149140000Y-162710000D03*
X166920000Y-165250000D03*
X149140000Y-165250000D03*
X166920000Y-167790000D03*
X149140000Y-167790000D03*
X166920000Y-170330000D03*
X149140000Y-170330000D03*
X166920000Y-172870000D03*
X149140000Y-172870000D03*
X166920000Y-175410000D03*
X149140000Y-175410000D03*
X166920000Y-177950000D03*
X149140000Y-177950000D03*
X166920000Y-180490000D03*
X149140000Y-180490000D03*
X166920000Y-183030000D03*
X149140000Y-183030000D03*
D12*
X154067600Y-136751200D03*
D13*
X156607600Y-136751200D03*
X159147600Y-136751200D03*
X161687600Y-136751200D03*
D14*
X153820800Y-235531800D03*
X154720800Y-235531800D03*
D15*
X151476800Y-142440800D03*
X151476800Y-147520800D03*
X164176800Y-142440800D03*
X164176800Y-147520800D03*
X151476800Y-23695800D03*
X151476800Y-28775800D03*
X164176800Y-23695800D03*
X164176800Y-28775800D03*
D14*
X153820800Y-116786800D03*
X154720800Y-116786800D03*
D12*
X154067600Y-18006200D03*
D13*
X156607600Y-18006200D03*
X159147600Y-18006200D03*
X161687600Y-18006200D03*
D11*
X166920000Y-36345000D03*
X149140000Y-36345000D03*
X166920000Y-38885000D03*
X149140000Y-38885000D03*
X166920000Y-41425000D03*
X149140000Y-41425000D03*
X166920000Y-43965000D03*
X149140000Y-43965000D03*
X166920000Y-46505000D03*
X149140000Y-46505000D03*
X166920000Y-49045000D03*
X149140000Y-49045000D03*
X166920000Y-51585000D03*
X149140000Y-51585000D03*
X166920000Y-54125000D03*
X149140000Y-54125000D03*
X166920000Y-56665000D03*
X149140000Y-56665000D03*
X166920000Y-59205000D03*
X149140000Y-59205000D03*
X166920000Y-61745000D03*
X149140000Y-61745000D03*
X166920000Y-64285000D03*
X149140000Y-64285000D03*
X96054000Y-36345000D03*
X78274000Y-36345000D03*
X96054000Y-38885000D03*
X78274000Y-38885000D03*
X96054000Y-41425000D03*
X78274000Y-41425000D03*
X96054000Y-43965000D03*
X78274000Y-43965000D03*
X96054000Y-46505000D03*
X78274000Y-46505000D03*
X96054000Y-49045000D03*
X78274000Y-49045000D03*
X96054000Y-51585000D03*
X78274000Y-51585000D03*
X96054000Y-54125000D03*
X78274000Y-54125000D03*
X96054000Y-56665000D03*
X78274000Y-56665000D03*
X96054000Y-59205000D03*
X78274000Y-59205000D03*
X96054000Y-61745000D03*
X78274000Y-61745000D03*
X96054000Y-64285000D03*
X78274000Y-64285000D03*
D12*
X83201600Y-18006200D03*
D13*
X85741600Y-18006200D03*
X88281600Y-18006200D03*
X90821600Y-18006200D03*
D14*
X82954800Y-116786800D03*
X83854800Y-116786800D03*
D15*
X80610800Y-23695800D03*
X80610800Y-28775800D03*
X93310800Y-23695800D03*
X93310800Y-28775800D03*
X80610800Y-142440800D03*
X80610800Y-147520800D03*
X93310800Y-142440800D03*
X93310800Y-147520800D03*
D14*
X82954800Y-235531800D03*
X83854800Y-235531800D03*
D12*
X83201600Y-136751200D03*
D13*
X85741600Y-136751200D03*
X88281600Y-136751200D03*
X90821600Y-136751200D03*
D11*
X96054000Y-155090000D03*
X78274000Y-155090000D03*
X96054000Y-157630000D03*
X78274000Y-157630000D03*
X96054000Y-160170000D03*
X78274000Y-160170000D03*
X96054000Y-162710000D03*
X78274000Y-162710000D03*
X96054000Y-165250000D03*
X78274000Y-165250000D03*
X96054000Y-167790000D03*
X78274000Y-167790000D03*
X96054000Y-170330000D03*
X78274000Y-170330000D03*
X96054000Y-172870000D03*
X78274000Y-172870000D03*
X96054000Y-175410000D03*
X78274000Y-175410000D03*
X96054000Y-177950000D03*
X78274000Y-177950000D03*
X96054000Y-180490000D03*
X78274000Y-180490000D03*
X96054000Y-183030000D03*
X78274000Y-183030000D03*
X119676000Y-155090000D03*
X101896000Y-155090000D03*
X119676000Y-157630000D03*
X101896000Y-157630000D03*
X119676000Y-160170000D03*
X101896000Y-160170000D03*
X119676000Y-162710000D03*
X101896000Y-162710000D03*
X119676000Y-165250000D03*
X101896000Y-165250000D03*
X119676000Y-167790000D03*
X101896000Y-167790000D03*
X119676000Y-170330000D03*
X101896000Y-170330000D03*
X119676000Y-172870000D03*
X101896000Y-172870000D03*
X119676000Y-175410000D03*
X101896000Y-175410000D03*
X119676000Y-177950000D03*
X101896000Y-177950000D03*
X119676000Y-180490000D03*
X101896000Y-180490000D03*
X119676000Y-183030000D03*
X101896000Y-183030000D03*
D12*
X106823600Y-136751200D03*
D13*
X109363600Y-136751200D03*
X111903600Y-136751200D03*
X114443600Y-136751200D03*
D14*
X106576800Y-235531800D03*
X107476800Y-235531800D03*
D15*
X104232800Y-142440800D03*
X104232800Y-147520800D03*
X116932800Y-142440800D03*
X116932800Y-147520800D03*
X104232800Y-23695800D03*
X104232800Y-28775800D03*
X116932800Y-23695800D03*
X116932800Y-28775800D03*
D14*
X106576800Y-116786800D03*
X107476800Y-116786800D03*
D12*
X106823600Y-18006200D03*
D13*
X109363600Y-18006200D03*
X111903600Y-18006200D03*
X114443600Y-18006200D03*
D11*
X119676000Y-36345000D03*
X101896000Y-36345000D03*
X119676000Y-38885000D03*
X101896000Y-38885000D03*
X119676000Y-41425000D03*
X101896000Y-41425000D03*
X119676000Y-43965000D03*
X101896000Y-43965000D03*
X119676000Y-46505000D03*
X101896000Y-46505000D03*
X119676000Y-49045000D03*
X101896000Y-49045000D03*
X119676000Y-51585000D03*
X101896000Y-51585000D03*
X119676000Y-54125000D03*
X101896000Y-54125000D03*
X119676000Y-56665000D03*
X101896000Y-56665000D03*
X119676000Y-59205000D03*
X101896000Y-59205000D03*
X119676000Y-61745000D03*
X101896000Y-61745000D03*
X119676000Y-64285000D03*
X101896000Y-64285000D03*
X72432000Y-36345000D03*
X54652000Y-36345000D03*
X72432000Y-38885000D03*
X54652000Y-38885000D03*
X72432000Y-41425000D03*
X54652000Y-41425000D03*
X72432000Y-43965000D03*
X54652000Y-43965000D03*
X72432000Y-46505000D03*
X54652000Y-46505000D03*
X72432000Y-49045000D03*
X54652000Y-49045000D03*
X72432000Y-51585000D03*
X54652000Y-51585000D03*
X72432000Y-54125000D03*
X54652000Y-54125000D03*
X72432000Y-56665000D03*
X54652000Y-56665000D03*
X72432000Y-59205000D03*
X54652000Y-59205000D03*
X72432000Y-61745000D03*
X54652000Y-61745000D03*
X72432000Y-64285000D03*
X54652000Y-64285000D03*
D12*
X59579600Y-18006200D03*
D13*
X62119600Y-18006200D03*
X64659600Y-18006200D03*
X67199600Y-18006200D03*
D14*
X59332800Y-116786800D03*
X60232800Y-116786800D03*
D15*
X56988800Y-23695800D03*
X56988800Y-28775800D03*
X69688800Y-23695800D03*
X69688800Y-28775800D03*
X56988800Y-142440800D03*
X56988800Y-147520800D03*
X69688800Y-142440800D03*
X69688800Y-147520800D03*
D14*
X59332800Y-235531800D03*
X60232800Y-235531800D03*
D12*
X59579600Y-136751200D03*
D13*
X62119600Y-136751200D03*
X64659600Y-136751200D03*
X67199600Y-136751200D03*
D11*
X72432000Y-155090000D03*
X54652000Y-155090000D03*
X72432000Y-157630000D03*
X54652000Y-157630000D03*
X72432000Y-160170000D03*
X54652000Y-160170000D03*
X72432000Y-162710000D03*
X54652000Y-162710000D03*
X72432000Y-165250000D03*
X54652000Y-165250000D03*
X72432000Y-167790000D03*
X54652000Y-167790000D03*
X72432000Y-170330000D03*
X54652000Y-170330000D03*
X72432000Y-172870000D03*
X54652000Y-172870000D03*
X72432000Y-175410000D03*
X54652000Y-175410000D03*
X72432000Y-177950000D03*
X54652000Y-177950000D03*
X72432000Y-180490000D03*
X54652000Y-180490000D03*
X72432000Y-183030000D03*
X54652000Y-183030000D03*
X48810000Y-155090000D03*
X31030000Y-155090000D03*
X48810000Y-157630000D03*
X31030000Y-157630000D03*
X48810000Y-160170000D03*
X31030000Y-160170000D03*
X48810000Y-162710000D03*
X31030000Y-162710000D03*
X48810000Y-165250000D03*
X31030000Y-165250000D03*
X48810000Y-167790000D03*
X31030000Y-167790000D03*
X48810000Y-170330000D03*
X31030000Y-170330000D03*
X48810000Y-172870000D03*
X31030000Y-172870000D03*
X48810000Y-175410000D03*
X31030000Y-175410000D03*
X48810000Y-177950000D03*
X31030000Y-177950000D03*
X48810000Y-180490000D03*
X31030000Y-180490000D03*
X48810000Y-183030000D03*
X31030000Y-183030000D03*
D12*
X35957600Y-136751200D03*
D13*
X38497600Y-136751200D03*
X41037600Y-136751200D03*
X43577600Y-136751200D03*
D14*
X35710800Y-235531800D03*
X36610800Y-235531800D03*
D15*
X33366800Y-142440800D03*
X33366800Y-147520800D03*
X46066800Y-142440800D03*
X46066800Y-147520800D03*
X33366800Y-23695800D03*
X33366800Y-28775800D03*
X46066800Y-23695800D03*
X46066800Y-28775800D03*
D14*
X35710800Y-116786800D03*
X36610800Y-116786800D03*
D12*
X35957600Y-18006200D03*
D13*
X38497600Y-18006200D03*
X41037600Y-18006200D03*
X43577600Y-18006200D03*
D11*
X48810000Y-36345000D03*
X31030000Y-36345000D03*
X48810000Y-38885000D03*
X31030000Y-38885000D03*
X48810000Y-41425000D03*
X31030000Y-41425000D03*
X48810000Y-43965000D03*
X31030000Y-43965000D03*
X48810000Y-46505000D03*
X31030000Y-46505000D03*
X48810000Y-49045000D03*
X31030000Y-49045000D03*
X48810000Y-51585000D03*
X31030000Y-51585000D03*
X48810000Y-54125000D03*
X31030000Y-54125000D03*
X48810000Y-56665000D03*
X31030000Y-56665000D03*
X48810000Y-59205000D03*
X31030000Y-59205000D03*
X48810000Y-61745000D03*
X31030000Y-61745000D03*
X48810000Y-64285000D03*
X31030000Y-64285000D03*
D16*
X132452200Y-161440000D03*
X132452200Y-42695000D03*
X179696200Y-42695000D03*
X179696200Y-161440000D03*
X156074200Y-161440000D03*
X156074200Y-42695000D03*
X85208200Y-42695000D03*
X85208200Y-161440000D03*
X108830200Y-161440000D03*
X108830200Y-42695000D03*
X61586200Y-42695000D03*
X61586200Y-161440000D03*
X37964200Y-161440000D03*
X37964200Y-42695000D03*
X135373200Y-158188800D03*
X140554800Y-170711000D03*
X139107000Y-164716600D03*
X139107000Y-45971600D03*
X140554800Y-51966000D03*
X135373200Y-39443800D03*
X182617200Y-39443800D03*
X187798800Y-51966000D03*
X186351000Y-45971600D03*
X186351000Y-164716600D03*
X187798800Y-170711000D03*
X182617200Y-158188800D03*
X158995200Y-158188800D03*
X164176800Y-170711000D03*
X162729000Y-164716600D03*
X162729000Y-45971600D03*
X164176800Y-51966000D03*
X158995200Y-39443800D03*
X88129200Y-39443800D03*
X93310800Y-51966000D03*
X91863000Y-45971600D03*
X91863000Y-164716600D03*
X93310800Y-170711000D03*
X88129200Y-158188800D03*
X111751200Y-158188800D03*
X116932800Y-170711000D03*
X115485000Y-164716600D03*
X115485000Y-45971600D03*
X116932800Y-51966000D03*
X111751200Y-39443800D03*
X64507200Y-39443800D03*
X69688800Y-51966000D03*
X68241000Y-45971600D03*
X68241000Y-164716600D03*
X69688800Y-170711000D03*
X64507200Y-158188800D03*
X40885200Y-158188800D03*
X46066800Y-170711000D03*
X44619000Y-164716600D03*
X44619000Y-45971600D03*
X46066800Y-51966000D03*
X40885200Y-39443800D03*
X131436200Y-165072200D03*
X131436200Y-46327200D03*
X178680200Y-46327200D03*
X178680200Y-165072200D03*
X155058200Y-165072200D03*
X155058200Y-46327200D03*
X84192200Y-46327200D03*
X84192200Y-165072200D03*
X107814200Y-165072200D03*
X107814200Y-46327200D03*
X60570200Y-46327200D03*
X60570200Y-165072200D03*
X36948200Y-165072200D03*
X36948200Y-46327200D03*
X134179400Y-172514400D03*
X134179400Y-53769400D03*
X181423400Y-53769400D03*
X181423400Y-172514400D03*
X157801400Y-172514400D03*
X157801400Y-53769400D03*
X86935400Y-53769400D03*
X86935400Y-172514400D03*
X110557400Y-172514400D03*
X110557400Y-53769400D03*
X63313400Y-53769400D03*
X63313400Y-172514400D03*
X39691400Y-172514400D03*
X39691400Y-53769400D03*
X128134200Y-169263200D03*
X128134200Y-50518200D03*
X175378200Y-50518200D03*
X175378200Y-169263200D03*
X151756200Y-169263200D03*
X151756200Y-50518200D03*
X80890200Y-50518200D03*
X80890200Y-169263200D03*
X104512200Y-169263200D03*
X104512200Y-50518200D03*
X57268200Y-50518200D03*
X57268200Y-169263200D03*
X33646200Y-169263200D03*
X33646200Y-50518200D03*
X135868500Y-156182200D03*
X135868500Y-37437200D03*
X183112500Y-37437200D03*
X183112500Y-156182200D03*
X159490500Y-156182200D03*
X159490500Y-37437200D03*
X88624500Y-37437200D03*
X88624500Y-156182200D03*
X112246500Y-156182200D03*
X112246500Y-37437200D03*
X65002500Y-37437200D03*
X65002500Y-156182200D03*
X41380500Y-156182200D03*
X41380500Y-37437200D03*
X131398100Y-152829400D03*
X131398100Y-34084400D03*
X178642100Y-34084400D03*
X178642100Y-152829400D03*
X155020100Y-152829400D03*
X155020100Y-34084400D03*
X84154100Y-34084400D03*
X84154100Y-152829400D03*
X107776100Y-152829400D03*
X107776100Y-34084400D03*
X60532100Y-34084400D03*
X60532100Y-152829400D03*
X36910100Y-152829400D03*
X36910100Y-34084400D03*
D17*
X139846200Y-248397400D02*
X127959000Y-248397400D01*
X139846200Y-248993000D02*
X139846200Y-248393000D01*
X139846200Y-248393000D02*
X139846200Y-237577000D01*
X139846200Y-249618640D02*
X139846200Y-248993000D01*
X139846200Y-249769000D02*
X139846200Y-249618640D01*
X139846200Y-238339000D02*
X127959000Y-238339000D01*
X127654200Y-238796200D02*
X139541400Y-238796200D01*
X139846200Y-239253400D02*
X127959000Y-239253400D01*
X127654200Y-239710600D02*
X139541400Y-239710600D01*
X139846200Y-240167800D02*
X127959000Y-240167800D01*
X127654200Y-240625000D02*
X139541400Y-240625000D01*
X139846200Y-241082200D02*
X127959000Y-241082200D01*
X127654200Y-241539400D02*
X139541400Y-241539400D01*
X139846200Y-241996600D02*
X127959000Y-241996600D01*
X127654200Y-242453800D02*
X139541400Y-242453800D01*
X139846200Y-242911000D02*
X127959000Y-242911000D01*
X127654200Y-243368200D02*
X139541400Y-243368200D01*
X139846200Y-243825400D02*
X127959000Y-243825400D01*
X139846200Y-244739800D02*
X127959000Y-244739800D01*
X127654200Y-245197000D02*
X139541400Y-245197000D01*
X139846200Y-245654200D02*
X127959000Y-245654200D01*
X127654200Y-246111400D02*
X139541400Y-246111400D01*
X139846200Y-246568600D02*
X127959000Y-246568600D01*
X127654200Y-247025800D02*
X139541400Y-247025800D01*
X139846200Y-247483000D02*
X127959000Y-247483000D01*
X127654200Y-247940200D02*
X139541400Y-247940200D01*
X127654200Y-248854600D02*
X139541400Y-248854600D01*
X139846200Y-249311800D02*
X127959000Y-249311800D01*
X139846200Y-237450000D02*
X127959000Y-237450000D01*
X127654200Y-244282600D02*
X139541400Y-244282600D01*
X127654200Y-249769000D02*
X139541400Y-249769000D01*
X127654200Y-244355820D02*
X127654200Y-249769000D01*
X127654200Y-237577000D02*
X127654200Y-244355820D01*
X127654200Y-118832000D02*
X127654200Y-125610820D01*
X127654200Y-125610820D02*
X127654200Y-131024000D01*
X127654200Y-131024000D02*
X139541400Y-131024000D01*
X127654200Y-125537600D02*
X139541400Y-125537600D01*
X139846200Y-118705000D02*
X127959000Y-118705000D01*
X139846200Y-130566800D02*
X127959000Y-130566800D01*
X127654200Y-130109600D02*
X139541400Y-130109600D01*
X127654200Y-129195200D02*
X139541400Y-129195200D01*
X139846200Y-128738000D02*
X127959000Y-128738000D01*
X127654200Y-128280800D02*
X139541400Y-128280800D01*
X139846200Y-127823600D02*
X127959000Y-127823600D01*
X127654200Y-127366400D02*
X139541400Y-127366400D01*
X139846200Y-126909200D02*
X127959000Y-126909200D01*
X127654200Y-126452000D02*
X139541400Y-126452000D01*
X139846200Y-125994800D02*
X127959000Y-125994800D01*
X139846200Y-125080400D02*
X127959000Y-125080400D01*
X127654200Y-124623200D02*
X139541400Y-124623200D01*
X139846200Y-124166000D02*
X127959000Y-124166000D01*
X127654200Y-123708800D02*
X139541400Y-123708800D01*
X139846200Y-123251600D02*
X127959000Y-123251600D01*
X127654200Y-122794400D02*
X139541400Y-122794400D01*
X139846200Y-122337200D02*
X127959000Y-122337200D01*
X127654200Y-121880000D02*
X139541400Y-121880000D01*
X139846200Y-121422800D02*
X127959000Y-121422800D01*
X127654200Y-120965600D02*
X139541400Y-120965600D01*
X139846200Y-120508400D02*
X127959000Y-120508400D01*
X127654200Y-120051200D02*
X139541400Y-120051200D01*
X139846200Y-119594000D02*
X127959000Y-119594000D01*
X139846200Y-131024000D02*
X139846200Y-130873640D01*
X139846200Y-130873640D02*
X139846200Y-130248000D01*
X139846200Y-129648000D02*
X139846200Y-118832000D01*
X139846200Y-130248000D02*
X139846200Y-129648000D01*
X139846200Y-129652400D02*
X127959000Y-129652400D01*
X187090200Y-129652400D02*
X175203000Y-129652400D01*
X187090200Y-130248000D02*
X187090200Y-129648000D01*
X187090200Y-129648000D02*
X187090200Y-118832000D01*
X187090200Y-130873640D02*
X187090200Y-130248000D01*
X187090200Y-131024000D02*
X187090200Y-130873640D01*
X187090200Y-119594000D02*
X175203000Y-119594000D01*
X174898200Y-120051200D02*
X186785400Y-120051200D01*
X187090200Y-120508400D02*
X175203000Y-120508400D01*
X174898200Y-120965600D02*
X186785400Y-120965600D01*
X187090200Y-121422800D02*
X175203000Y-121422800D01*
X174898200Y-121880000D02*
X186785400Y-121880000D01*
X187090200Y-122337200D02*
X175203000Y-122337200D01*
X174898200Y-122794400D02*
X186785400Y-122794400D01*
X187090200Y-123251600D02*
X175203000Y-123251600D01*
X174898200Y-123708800D02*
X186785400Y-123708800D01*
X187090200Y-124166000D02*
X175203000Y-124166000D01*
X174898200Y-124623200D02*
X186785400Y-124623200D01*
X187090200Y-125080400D02*
X175203000Y-125080400D01*
X187090200Y-125994800D02*
X175203000Y-125994800D01*
X174898200Y-126452000D02*
X186785400Y-126452000D01*
X187090200Y-126909200D02*
X175203000Y-126909200D01*
X174898200Y-127366400D02*
X186785400Y-127366400D01*
X187090200Y-127823600D02*
X175203000Y-127823600D01*
X174898200Y-128280800D02*
X186785400Y-128280800D01*
X187090200Y-128738000D02*
X175203000Y-128738000D01*
X174898200Y-129195200D02*
X186785400Y-129195200D01*
X174898200Y-130109600D02*
X186785400Y-130109600D01*
X187090200Y-130566800D02*
X175203000Y-130566800D01*
X187090200Y-118705000D02*
X175203000Y-118705000D01*
X174898200Y-125537600D02*
X186785400Y-125537600D01*
X174898200Y-131024000D02*
X186785400Y-131024000D01*
X174898200Y-125610820D02*
X174898200Y-131024000D01*
X174898200Y-118832000D02*
X174898200Y-125610820D01*
X174898200Y-237577000D02*
X174898200Y-244355820D01*
X174898200Y-244355820D02*
X174898200Y-249769000D01*
X174898200Y-249769000D02*
X186785400Y-249769000D01*
X174898200Y-244282600D02*
X186785400Y-244282600D01*
X187090200Y-237450000D02*
X175203000Y-237450000D01*
X187090200Y-249311800D02*
X175203000Y-249311800D01*
X174898200Y-248854600D02*
X186785400Y-248854600D01*
X174898200Y-247940200D02*
X186785400Y-247940200D01*
X187090200Y-247483000D02*
X175203000Y-247483000D01*
X174898200Y-247025800D02*
X186785400Y-247025800D01*
X187090200Y-246568600D02*
X175203000Y-246568600D01*
X174898200Y-246111400D02*
X186785400Y-246111400D01*
X187090200Y-245654200D02*
X175203000Y-245654200D01*
X174898200Y-245197000D02*
X186785400Y-245197000D01*
X187090200Y-244739800D02*
X175203000Y-244739800D01*
X187090200Y-243825400D02*
X175203000Y-243825400D01*
X174898200Y-243368200D02*
X186785400Y-243368200D01*
X187090200Y-242911000D02*
X175203000Y-242911000D01*
X174898200Y-242453800D02*
X186785400Y-242453800D01*
X187090200Y-241996600D02*
X175203000Y-241996600D01*
X174898200Y-241539400D02*
X186785400Y-241539400D01*
X187090200Y-241082200D02*
X175203000Y-241082200D01*
X174898200Y-240625000D02*
X186785400Y-240625000D01*
X187090200Y-240167800D02*
X175203000Y-240167800D01*
X174898200Y-239710600D02*
X186785400Y-239710600D01*
X187090200Y-239253400D02*
X175203000Y-239253400D01*
X174898200Y-238796200D02*
X186785400Y-238796200D01*
X187090200Y-238339000D02*
X175203000Y-238339000D01*
X187090200Y-249769000D02*
X187090200Y-249618640D01*
X187090200Y-249618640D02*
X187090200Y-248993000D01*
X187090200Y-248393000D02*
X187090200Y-237577000D01*
X187090200Y-248993000D02*
X187090200Y-248393000D01*
X187090200Y-248397400D02*
X175203000Y-248397400D01*
X163468200Y-248397400D02*
X151581000Y-248397400D01*
X163468200Y-248993000D02*
X163468200Y-248393000D01*
X163468200Y-248393000D02*
X163468200Y-237577000D01*
X163468200Y-249618640D02*
X163468200Y-248993000D01*
X163468200Y-249769000D02*
X163468200Y-249618640D01*
X163468200Y-238339000D02*
X151581000Y-238339000D01*
X151276200Y-238796200D02*
X163163400Y-238796200D01*
X163468200Y-239253400D02*
X151581000Y-239253400D01*
X151276200Y-239710600D02*
X163163400Y-239710600D01*
X163468200Y-240167800D02*
X151581000Y-240167800D01*
X151276200Y-240625000D02*
X163163400Y-240625000D01*
X163468200Y-241082200D02*
X151581000Y-241082200D01*
X151276200Y-241539400D02*
X163163400Y-241539400D01*
X163468200Y-241996600D02*
X151581000Y-241996600D01*
X151276200Y-242453800D02*
X163163400Y-242453800D01*
X163468200Y-242911000D02*
X151581000Y-242911000D01*
X151276200Y-243368200D02*
X163163400Y-243368200D01*
X163468200Y-243825400D02*
X151581000Y-243825400D01*
X163468200Y-244739800D02*
X151581000Y-244739800D01*
X151276200Y-245197000D02*
X163163400Y-245197000D01*
X163468200Y-245654200D02*
X151581000Y-245654200D01*
X151276200Y-246111400D02*
X163163400Y-246111400D01*
X163468200Y-246568600D02*
X151581000Y-246568600D01*
X151276200Y-247025800D02*
X163163400Y-247025800D01*
X163468200Y-247483000D02*
X151581000Y-247483000D01*
X151276200Y-247940200D02*
X163163400Y-247940200D01*
X151276200Y-248854600D02*
X163163400Y-248854600D01*
X163468200Y-249311800D02*
X151581000Y-249311800D01*
X163468200Y-237450000D02*
X151581000Y-237450000D01*
X151276200Y-244282600D02*
X163163400Y-244282600D01*
X151276200Y-249769000D02*
X163163400Y-249769000D01*
X151276200Y-244355820D02*
X151276200Y-249769000D01*
X151276200Y-237577000D02*
X151276200Y-244355820D01*
X151276200Y-118832000D02*
X151276200Y-125610820D01*
X151276200Y-125610820D02*
X151276200Y-131024000D01*
X151276200Y-131024000D02*
X163163400Y-131024000D01*
X151276200Y-125537600D02*
X163163400Y-125537600D01*
X163468200Y-118705000D02*
X151581000Y-118705000D01*
X163468200Y-130566800D02*
X151581000Y-130566800D01*
X151276200Y-130109600D02*
X163163400Y-130109600D01*
X151276200Y-129195200D02*
X163163400Y-129195200D01*
X163468200Y-128738000D02*
X151581000Y-128738000D01*
X151276200Y-128280800D02*
X163163400Y-128280800D01*
X163468200Y-127823600D02*
X151581000Y-127823600D01*
X151276200Y-127366400D02*
X163163400Y-127366400D01*
X163468200Y-126909200D02*
X151581000Y-126909200D01*
X151276200Y-126452000D02*
X163163400Y-126452000D01*
X163468200Y-125994800D02*
X151581000Y-125994800D01*
X163468200Y-125080400D02*
X151581000Y-125080400D01*
X151276200Y-124623200D02*
X163163400Y-124623200D01*
X163468200Y-124166000D02*
X151581000Y-124166000D01*
X151276200Y-123708800D02*
X163163400Y-123708800D01*
X163468200Y-123251600D02*
X151581000Y-123251600D01*
X151276200Y-122794400D02*
X163163400Y-122794400D01*
X163468200Y-122337200D02*
X151581000Y-122337200D01*
X151276200Y-121880000D02*
X163163400Y-121880000D01*
X163468200Y-121422800D02*
X151581000Y-121422800D01*
X151276200Y-120965600D02*
X163163400Y-120965600D01*
X163468200Y-120508400D02*
X151581000Y-120508400D01*
X151276200Y-120051200D02*
X163163400Y-120051200D01*
X163468200Y-119594000D02*
X151581000Y-119594000D01*
X163468200Y-131024000D02*
X163468200Y-130873640D01*
X163468200Y-130873640D02*
X163468200Y-130248000D01*
X163468200Y-129648000D02*
X163468200Y-118832000D01*
X163468200Y-130248000D02*
X163468200Y-129648000D01*
X163468200Y-129652400D02*
X151581000Y-129652400D01*
X92602200Y-129652400D02*
X80715000Y-129652400D01*
X92602200Y-130248000D02*
X92602200Y-129648000D01*
X92602200Y-129648000D02*
X92602200Y-118832000D01*
X92602200Y-130873640D02*
X92602200Y-130248000D01*
X92602200Y-131024000D02*
X92602200Y-130873640D01*
X92602200Y-119594000D02*
X80715000Y-119594000D01*
X80410200Y-120051200D02*
X92297400Y-120051200D01*
X92602200Y-120508400D02*
X80715000Y-120508400D01*
X80410200Y-120965600D02*
X92297400Y-120965600D01*
X92602200Y-121422800D02*
X80715000Y-121422800D01*
X80410200Y-121880000D02*
X92297400Y-121880000D01*
X92602200Y-122337200D02*
X80715000Y-122337200D01*
X80410200Y-122794400D02*
X92297400Y-122794400D01*
X92602200Y-123251600D02*
X80715000Y-123251600D01*
X80410200Y-123708800D02*
X92297400Y-123708800D01*
X92602200Y-124166000D02*
X80715000Y-124166000D01*
X80410200Y-124623200D02*
X92297400Y-124623200D01*
X92602200Y-125080400D02*
X80715000Y-125080400D01*
X92602200Y-125994800D02*
X80715000Y-125994800D01*
X80410200Y-126452000D02*
X92297400Y-126452000D01*
X92602200Y-126909200D02*
X80715000Y-126909200D01*
X80410200Y-127366400D02*
X92297400Y-127366400D01*
X92602200Y-127823600D02*
X80715000Y-127823600D01*
X80410200Y-128280800D02*
X92297400Y-128280800D01*
X92602200Y-128738000D02*
X80715000Y-128738000D01*
X80410200Y-129195200D02*
X92297400Y-129195200D01*
X80410200Y-130109600D02*
X92297400Y-130109600D01*
X92602200Y-130566800D02*
X80715000Y-130566800D01*
X92602200Y-118705000D02*
X80715000Y-118705000D01*
X80410200Y-125537600D02*
X92297400Y-125537600D01*
X80410200Y-131024000D02*
X92297400Y-131024000D01*
X80410200Y-125610820D02*
X80410200Y-131024000D01*
X80410200Y-118832000D02*
X80410200Y-125610820D01*
X80410200Y-237577000D02*
X80410200Y-244355820D01*
X80410200Y-244355820D02*
X80410200Y-249769000D01*
X80410200Y-249769000D02*
X92297400Y-249769000D01*
X80410200Y-244282600D02*
X92297400Y-244282600D01*
X92602200Y-237450000D02*
X80715000Y-237450000D01*
X92602200Y-249311800D02*
X80715000Y-249311800D01*
X80410200Y-248854600D02*
X92297400Y-248854600D01*
X80410200Y-247940200D02*
X92297400Y-247940200D01*
X92602200Y-247483000D02*
X80715000Y-247483000D01*
X80410200Y-247025800D02*
X92297400Y-247025800D01*
X92602200Y-246568600D02*
X80715000Y-246568600D01*
X80410200Y-246111400D02*
X92297400Y-246111400D01*
X92602200Y-245654200D02*
X80715000Y-245654200D01*
X80410200Y-245197000D02*
X92297400Y-245197000D01*
X92602200Y-244739800D02*
X80715000Y-244739800D01*
X92602200Y-243825400D02*
X80715000Y-243825400D01*
X80410200Y-243368200D02*
X92297400Y-243368200D01*
X92602200Y-242911000D02*
X80715000Y-242911000D01*
X80410200Y-242453800D02*
X92297400Y-242453800D01*
X92602200Y-241996600D02*
X80715000Y-241996600D01*
X80410200Y-241539400D02*
X92297400Y-241539400D01*
X92602200Y-241082200D02*
X80715000Y-241082200D01*
X80410200Y-240625000D02*
X92297400Y-240625000D01*
X92602200Y-240167800D02*
X80715000Y-240167800D01*
X80410200Y-239710600D02*
X92297400Y-239710600D01*
X92602200Y-239253400D02*
X80715000Y-239253400D01*
X80410200Y-238796200D02*
X92297400Y-238796200D01*
X92602200Y-238339000D02*
X80715000Y-238339000D01*
X92602200Y-249769000D02*
X92602200Y-249618640D01*
X92602200Y-249618640D02*
X92602200Y-248993000D01*
X92602200Y-248393000D02*
X92602200Y-237577000D01*
X92602200Y-248993000D02*
X92602200Y-248393000D01*
X92602200Y-248397400D02*
X80715000Y-248397400D01*
X116224200Y-248397400D02*
X104337000Y-248397400D01*
X116224200Y-248993000D02*
X116224200Y-248393000D01*
X116224200Y-248393000D02*
X116224200Y-237577000D01*
X116224200Y-249618640D02*
X116224200Y-248993000D01*
X116224200Y-249769000D02*
X116224200Y-249618640D01*
X116224200Y-238339000D02*
X104337000Y-238339000D01*
X104032200Y-238796200D02*
X115919400Y-238796200D01*
X116224200Y-239253400D02*
X104337000Y-239253400D01*
X104032200Y-239710600D02*
X115919400Y-239710600D01*
X116224200Y-240167800D02*
X104337000Y-240167800D01*
X104032200Y-240625000D02*
X115919400Y-240625000D01*
X116224200Y-241082200D02*
X104337000Y-241082200D01*
X104032200Y-241539400D02*
X115919400Y-241539400D01*
X116224200Y-241996600D02*
X104337000Y-241996600D01*
X104032200Y-242453800D02*
X115919400Y-242453800D01*
X116224200Y-242911000D02*
X104337000Y-242911000D01*
X104032200Y-243368200D02*
X115919400Y-243368200D01*
X116224200Y-243825400D02*
X104337000Y-243825400D01*
X116224200Y-244739800D02*
X104337000Y-244739800D01*
X104032200Y-245197000D02*
X115919400Y-245197000D01*
X116224200Y-245654200D02*
X104337000Y-245654200D01*
X104032200Y-246111400D02*
X115919400Y-246111400D01*
X116224200Y-246568600D02*
X104337000Y-246568600D01*
X104032200Y-247025800D02*
X115919400Y-247025800D01*
X116224200Y-247483000D02*
X104337000Y-247483000D01*
X104032200Y-247940200D02*
X115919400Y-247940200D01*
X104032200Y-248854600D02*
X115919400Y-248854600D01*
X116224200Y-249311800D02*
X104337000Y-249311800D01*
X116224200Y-237450000D02*
X104337000Y-237450000D01*
X104032200Y-244282600D02*
X115919400Y-244282600D01*
X104032200Y-249769000D02*
X115919400Y-249769000D01*
X104032200Y-244355820D02*
X104032200Y-249769000D01*
X104032200Y-237577000D02*
X104032200Y-244355820D01*
X104032200Y-118832000D02*
X104032200Y-125610820D01*
X104032200Y-125610820D02*
X104032200Y-131024000D01*
X104032200Y-131024000D02*
X115919400Y-131024000D01*
X104032200Y-125537600D02*
X115919400Y-125537600D01*
X116224200Y-118705000D02*
X104337000Y-118705000D01*
X116224200Y-130566800D02*
X104337000Y-130566800D01*
X104032200Y-130109600D02*
X115919400Y-130109600D01*
X104032200Y-129195200D02*
X115919400Y-129195200D01*
X116224200Y-128738000D02*
X104337000Y-128738000D01*
X104032200Y-128280800D02*
X115919400Y-128280800D01*
X116224200Y-127823600D02*
X104337000Y-127823600D01*
X104032200Y-127366400D02*
X115919400Y-127366400D01*
X116224200Y-126909200D02*
X104337000Y-126909200D01*
X104032200Y-126452000D02*
X115919400Y-126452000D01*
X116224200Y-125994800D02*
X104337000Y-125994800D01*
X116224200Y-125080400D02*
X104337000Y-125080400D01*
X104032200Y-124623200D02*
X115919400Y-124623200D01*
X116224200Y-124166000D02*
X104337000Y-124166000D01*
X104032200Y-123708800D02*
X115919400Y-123708800D01*
X116224200Y-123251600D02*
X104337000Y-123251600D01*
X104032200Y-122794400D02*
X115919400Y-122794400D01*
X116224200Y-122337200D02*
X104337000Y-122337200D01*
X104032200Y-121880000D02*
X115919400Y-121880000D01*
X116224200Y-121422800D02*
X104337000Y-121422800D01*
X104032200Y-120965600D02*
X115919400Y-120965600D01*
X116224200Y-120508400D02*
X104337000Y-120508400D01*
X104032200Y-120051200D02*
X115919400Y-120051200D01*
X116224200Y-119594000D02*
X104337000Y-119594000D01*
X116224200Y-131024000D02*
X116224200Y-130873640D01*
X116224200Y-130873640D02*
X116224200Y-130248000D01*
X116224200Y-129648000D02*
X116224200Y-118832000D01*
X116224200Y-130248000D02*
X116224200Y-129648000D01*
X116224200Y-129652400D02*
X104337000Y-129652400D01*
X68980200Y-129652400D02*
X57093000Y-129652400D01*
X68980200Y-130248000D02*
X68980200Y-129648000D01*
X68980200Y-129648000D02*
X68980200Y-118832000D01*
X68980200Y-130873640D02*
X68980200Y-130248000D01*
X68980200Y-131024000D02*
X68980200Y-130873640D01*
X68980200Y-119594000D02*
X57093000Y-119594000D01*
X56788200Y-120051200D02*
X68675400Y-120051200D01*
X68980200Y-120508400D02*
X57093000Y-120508400D01*
X56788200Y-120965600D02*
X68675400Y-120965600D01*
X68980200Y-121422800D02*
X57093000Y-121422800D01*
X56788200Y-121880000D02*
X68675400Y-121880000D01*
X68980200Y-122337200D02*
X57093000Y-122337200D01*
X56788200Y-122794400D02*
X68675400Y-122794400D01*
X68980200Y-123251600D02*
X57093000Y-123251600D01*
X56788200Y-123708800D02*
X68675400Y-123708800D01*
X68980200Y-124166000D02*
X57093000Y-124166000D01*
X56788200Y-124623200D02*
X68675400Y-124623200D01*
X68980200Y-125080400D02*
X57093000Y-125080400D01*
X68980200Y-125994800D02*
X57093000Y-125994800D01*
X56788200Y-126452000D02*
X68675400Y-126452000D01*
X68980200Y-126909200D02*
X57093000Y-126909200D01*
X56788200Y-127366400D02*
X68675400Y-127366400D01*
X68980200Y-127823600D02*
X57093000Y-127823600D01*
X56788200Y-128280800D02*
X68675400Y-128280800D01*
X68980200Y-128738000D02*
X57093000Y-128738000D01*
X56788200Y-129195200D02*
X68675400Y-129195200D01*
X56788200Y-130109600D02*
X68675400Y-130109600D01*
X68980200Y-130566800D02*
X57093000Y-130566800D01*
X68980200Y-118705000D02*
X57093000Y-118705000D01*
X56788200Y-125537600D02*
X68675400Y-125537600D01*
X56788200Y-131024000D02*
X68675400Y-131024000D01*
X56788200Y-125610820D02*
X56788200Y-131024000D01*
X56788200Y-118832000D02*
X56788200Y-125610820D01*
X56788200Y-237577000D02*
X56788200Y-244355820D01*
X56788200Y-244355820D02*
X56788200Y-249769000D01*
X56788200Y-249769000D02*
X68675400Y-249769000D01*
X56788200Y-244282600D02*
X68675400Y-244282600D01*
X68980200Y-237450000D02*
X57093000Y-237450000D01*
X68980200Y-249311800D02*
X57093000Y-249311800D01*
X56788200Y-248854600D02*
X68675400Y-248854600D01*
X56788200Y-247940200D02*
X68675400Y-247940200D01*
X68980200Y-247483000D02*
X57093000Y-247483000D01*
X56788200Y-247025800D02*
X68675400Y-247025800D01*
X68980200Y-246568600D02*
X57093000Y-246568600D01*
X56788200Y-246111400D02*
X68675400Y-246111400D01*
X68980200Y-245654200D02*
X57093000Y-245654200D01*
X56788200Y-245197000D02*
X68675400Y-245197000D01*
X68980200Y-244739800D02*
X57093000Y-244739800D01*
X68980200Y-243825400D02*
X57093000Y-243825400D01*
X56788200Y-243368200D02*
X68675400Y-243368200D01*
X68980200Y-242911000D02*
X57093000Y-242911000D01*
X56788200Y-242453800D02*
X68675400Y-242453800D01*
X68980200Y-241996600D02*
X57093000Y-241996600D01*
X56788200Y-241539400D02*
X68675400Y-241539400D01*
X68980200Y-241082200D02*
X57093000Y-241082200D01*
X56788200Y-240625000D02*
X68675400Y-240625000D01*
X68980200Y-240167800D02*
X57093000Y-240167800D01*
X56788200Y-239710600D02*
X68675400Y-239710600D01*
X68980200Y-239253400D02*
X57093000Y-239253400D01*
X56788200Y-238796200D02*
X68675400Y-238796200D01*
X68980200Y-238339000D02*
X57093000Y-238339000D01*
X68980200Y-249769000D02*
X68980200Y-249618640D01*
X68980200Y-249618640D02*
X68980200Y-248993000D01*
X68980200Y-248393000D02*
X68980200Y-237577000D01*
X68980200Y-248993000D02*
X68980200Y-248393000D01*
X68980200Y-248397400D02*
X57093000Y-248397400D01*
X45358200Y-248397400D02*
X33471000Y-248397400D01*
X45358200Y-248993000D02*
X45358200Y-248393000D01*
X45358200Y-248393000D02*
X45358200Y-237577000D01*
X45358200Y-249618640D02*
X45358200Y-248993000D01*
X45358200Y-249769000D02*
X45358200Y-249618640D01*
X45358200Y-238339000D02*
X33471000Y-238339000D01*
X33166200Y-238796200D02*
X45053400Y-238796200D01*
X45358200Y-239253400D02*
X33471000Y-239253400D01*
X33166200Y-239710600D02*
X45053400Y-239710600D01*
X45358200Y-240167800D02*
X33471000Y-240167800D01*
X33166200Y-240625000D02*
X45053400Y-240625000D01*
X45358200Y-241082200D02*
X33471000Y-241082200D01*
X33166200Y-241539400D02*
X45053400Y-241539400D01*
X45358200Y-241996600D02*
X33471000Y-241996600D01*
X33166200Y-242453800D02*
X45053400Y-242453800D01*
X45358200Y-242911000D02*
X33471000Y-242911000D01*
X33166200Y-243368200D02*
X45053400Y-243368200D01*
X45358200Y-243825400D02*
X33471000Y-243825400D01*
X45358200Y-244739800D02*
X33471000Y-244739800D01*
X33166200Y-245197000D02*
X45053400Y-245197000D01*
X45358200Y-245654200D02*
X33471000Y-245654200D01*
X33166200Y-246111400D02*
X45053400Y-246111400D01*
X45358200Y-246568600D02*
X33471000Y-246568600D01*
X33166200Y-247025800D02*
X45053400Y-247025800D01*
X45358200Y-247483000D02*
X33471000Y-247483000D01*
X33166200Y-247940200D02*
X45053400Y-247940200D01*
X33166200Y-248854600D02*
X45053400Y-248854600D01*
X45358200Y-249311800D02*
X33471000Y-249311800D01*
X45358200Y-237450000D02*
X33471000Y-237450000D01*
X33166200Y-244282600D02*
X45053400Y-244282600D01*
X33166200Y-249769000D02*
X45053400Y-249769000D01*
X33166200Y-244355820D02*
X33166200Y-249769000D01*
X33166200Y-237577000D02*
X33166200Y-244355820D01*
X33166200Y-118832000D02*
X33166200Y-125610820D01*
X33166200Y-125610820D02*
X33166200Y-131024000D01*
X33166200Y-131024000D02*
X45053400Y-131024000D01*
X33166200Y-125537600D02*
X45053400Y-125537600D01*
X45358200Y-118705000D02*
X33471000Y-118705000D01*
X45358200Y-130566800D02*
X33471000Y-130566800D01*
X33166200Y-130109600D02*
X45053400Y-130109600D01*
X33166200Y-129195200D02*
X45053400Y-129195200D01*
X45358200Y-128738000D02*
X33471000Y-128738000D01*
X33166200Y-128280800D02*
X45053400Y-128280800D01*
X45358200Y-127823600D02*
X33471000Y-127823600D01*
X33166200Y-127366400D02*
X45053400Y-127366400D01*
X45358200Y-126909200D02*
X33471000Y-126909200D01*
X33166200Y-126452000D02*
X45053400Y-126452000D01*
X45358200Y-125994800D02*
X33471000Y-125994800D01*
X45358200Y-125080400D02*
X33471000Y-125080400D01*
X33166200Y-124623200D02*
X45053400Y-124623200D01*
X45358200Y-124166000D02*
X33471000Y-124166000D01*
X33166200Y-123708800D02*
X45053400Y-123708800D01*
X45358200Y-123251600D02*
X33471000Y-123251600D01*
X33166200Y-122794400D02*
X45053400Y-122794400D01*
X45358200Y-122337200D02*
X33471000Y-122337200D01*
X33166200Y-121880000D02*
X45053400Y-121880000D01*
X45358200Y-121422800D02*
X33471000Y-121422800D01*
X33166200Y-120965600D02*
X45053400Y-120965600D01*
X45358200Y-120508400D02*
X33471000Y-120508400D01*
X33166200Y-120051200D02*
X45053400Y-120051200D01*
X45358200Y-119594000D02*
X33471000Y-119594000D01*
X45358200Y-131024000D02*
X45358200Y-130873640D01*
X45358200Y-130873640D02*
X45358200Y-130248000D01*
X45358200Y-129648000D02*
X45358200Y-118832000D01*
X45358200Y-130248000D02*
X45358200Y-129648000D01*
X45358200Y-129652400D02*
X33471000Y-129652400D01*
D18*
X132452200Y-161440000D02*
X132503000Y-161490800D01*
X132553800Y-161541600D02*
X132452200Y-161440000D01*
X130997200Y-235455600D02*
X132553800Y-233899000D01*
X132553800Y-186814600D02*
X132553800Y-233899000D01*
X132553800Y-186814600D02*
X132553800Y-161541600D01*
X132553800Y-68069600D02*
X132553800Y-42796600D01*
X132553800Y-68069600D02*
X132553800Y-115154000D01*
X130997200Y-116710600D02*
X132553800Y-115154000D01*
X132553800Y-42796600D02*
X132452200Y-42695000D01*
X132452200Y-42695000D02*
X132503000Y-42745800D01*
X179696200Y-42695000D02*
X179747000Y-42745800D01*
X179797800Y-42796600D02*
X179696200Y-42695000D01*
X178241200Y-116710600D02*
X179797800Y-115154000D01*
X179797800Y-68069600D02*
X179797800Y-115154000D01*
X179797800Y-68069600D02*
X179797800Y-42796600D01*
X179797800Y-186814600D02*
X179797800Y-161541600D01*
X179797800Y-186814600D02*
X179797800Y-233899000D01*
X178241200Y-235455600D02*
X179797800Y-233899000D01*
X179797800Y-161541600D02*
X179696200Y-161440000D01*
X179696200Y-161440000D02*
X179747000Y-161490800D01*
X156074200Y-161440000D02*
X156125000Y-161490800D01*
X156175800Y-161541600D02*
X156074200Y-161440000D01*
X154619200Y-235455600D02*
X156175800Y-233899000D01*
X156175800Y-186814600D02*
X156175800Y-233899000D01*
X156175800Y-186814600D02*
X156175800Y-161541600D01*
X156175800Y-68069600D02*
X156175800Y-42796600D01*
X156175800Y-68069600D02*
X156175800Y-115154000D01*
X154619200Y-116710600D02*
X156175800Y-115154000D01*
X156175800Y-42796600D02*
X156074200Y-42695000D01*
X156074200Y-42695000D02*
X156125000Y-42745800D01*
X85208200Y-42695000D02*
X85259000Y-42745800D01*
X85309800Y-42796600D02*
X85208200Y-42695000D01*
X83753200Y-116710600D02*
X85309800Y-115154000D01*
X85309800Y-68069600D02*
X85309800Y-115154000D01*
X85309800Y-68069600D02*
X85309800Y-42796600D01*
X85309800Y-186814600D02*
X85309800Y-161541600D01*
X85309800Y-186814600D02*
X85309800Y-233899000D01*
X83753200Y-235455600D02*
X85309800Y-233899000D01*
X85309800Y-161541600D02*
X85208200Y-161440000D01*
X85208200Y-161440000D02*
X85259000Y-161490800D01*
X108830200Y-161440000D02*
X108881000Y-161490800D01*
X108931800Y-161541600D02*
X108830200Y-161440000D01*
X107375200Y-235455600D02*
X108931800Y-233899000D01*
X108931800Y-186814600D02*
X108931800Y-233899000D01*
X108931800Y-186814600D02*
X108931800Y-161541600D01*
X108931800Y-68069600D02*
X108931800Y-42796600D01*
X108931800Y-68069600D02*
X108931800Y-115154000D01*
X107375200Y-116710600D02*
X108931800Y-115154000D01*
X108931800Y-42796600D02*
X108830200Y-42695000D01*
X108830200Y-42695000D02*
X108881000Y-42745800D01*
X61586200Y-42695000D02*
X61637000Y-42745800D01*
X61687800Y-42796600D02*
X61586200Y-42695000D01*
X60131200Y-116710600D02*
X61687800Y-115154000D01*
X61687800Y-68069600D02*
X61687800Y-115154000D01*
X61687800Y-68069600D02*
X61687800Y-42796600D01*
X61687800Y-186814600D02*
X61687800Y-161541600D01*
X61687800Y-186814600D02*
X61687800Y-233899000D01*
X60131200Y-235455600D02*
X61687800Y-233899000D01*
X61687800Y-161541600D02*
X61586200Y-161440000D01*
X61586200Y-161440000D02*
X61637000Y-161490800D01*
X37964200Y-161440000D02*
X38015000Y-161490800D01*
X38065800Y-161541600D02*
X37964200Y-161440000D01*
X36509200Y-235455600D02*
X38065800Y-233899000D01*
X38065800Y-186814600D02*
X38065800Y-233899000D01*
X38065800Y-186814600D02*
X38065800Y-161541600D01*
X38065800Y-68069600D02*
X38065800Y-42796600D01*
X38065800Y-68069600D02*
X38065800Y-115154000D01*
X36509200Y-116710600D02*
X38065800Y-115154000D01*
X38065800Y-42796600D02*
X37964200Y-42695000D01*
X37964200Y-42695000D02*
X38015000Y-42745800D01*
D19*
X135373200Y-158188800D02*
X134814400Y-157630000D01*
X134814400Y-157630000D02*
X125518000Y-157630000D01*
X140554800Y-170711000D02*
X139107000Y-169263200D01*
X139107000Y-169263200D02*
X139107000Y-164716600D01*
X139107000Y-50518200D02*
X139107000Y-45971600D01*
X140554800Y-51966000D02*
X139107000Y-50518200D01*
X134814400Y-38885000D02*
X125518000Y-38885000D01*
X135373200Y-39443800D02*
X134814400Y-38885000D01*
X182617200Y-39443800D02*
X182058400Y-38885000D01*
X182058400Y-38885000D02*
X172762000Y-38885000D01*
X187798800Y-51966000D02*
X186351000Y-50518200D01*
X186351000Y-50518200D02*
X186351000Y-45971600D01*
X186351000Y-169263200D02*
X186351000Y-164716600D01*
X187798800Y-170711000D02*
X186351000Y-169263200D01*
X182058400Y-157630000D02*
X172762000Y-157630000D01*
X182617200Y-158188800D02*
X182058400Y-157630000D01*
X158995200Y-158188800D02*
X158436400Y-157630000D01*
X158436400Y-157630000D02*
X149140000Y-157630000D01*
X164176800Y-170711000D02*
X162729000Y-169263200D01*
X162729000Y-169263200D02*
X162729000Y-164716600D01*
X162729000Y-50518200D02*
X162729000Y-45971600D01*
X164176800Y-51966000D02*
X162729000Y-50518200D01*
X158436400Y-38885000D02*
X149140000Y-38885000D01*
X158995200Y-39443800D02*
X158436400Y-38885000D01*
X88129200Y-39443800D02*
X87570400Y-38885000D01*
X87570400Y-38885000D02*
X78274000Y-38885000D01*
X93310800Y-51966000D02*
X91863000Y-50518200D01*
X91863000Y-50518200D02*
X91863000Y-45971600D01*
X91863000Y-169263200D02*
X91863000Y-164716600D01*
X93310800Y-170711000D02*
X91863000Y-169263200D01*
X87570400Y-157630000D02*
X78274000Y-157630000D01*
X88129200Y-158188800D02*
X87570400Y-157630000D01*
X111751200Y-158188800D02*
X111192400Y-157630000D01*
X111192400Y-157630000D02*
X101896000Y-157630000D01*
X116932800Y-170711000D02*
X115485000Y-169263200D01*
X115485000Y-169263200D02*
X115485000Y-164716600D01*
X115485000Y-50518200D02*
X115485000Y-45971600D01*
X116932800Y-51966000D02*
X115485000Y-50518200D01*
X111192400Y-38885000D02*
X101896000Y-38885000D01*
X111751200Y-39443800D02*
X111192400Y-38885000D01*
X64507200Y-39443800D02*
X63948400Y-38885000D01*
X63948400Y-38885000D02*
X54652000Y-38885000D01*
X69688800Y-51966000D02*
X68241000Y-50518200D01*
X68241000Y-50518200D02*
X68241000Y-45971600D01*
X68241000Y-169263200D02*
X68241000Y-164716600D01*
X69688800Y-170711000D02*
X68241000Y-169263200D01*
X63948400Y-157630000D02*
X54652000Y-157630000D01*
X64507200Y-158188800D02*
X63948400Y-157630000D01*
X40885200Y-158188800D02*
X40326400Y-157630000D01*
X40326400Y-157630000D02*
X31030000Y-157630000D01*
X46066800Y-170711000D02*
X44619000Y-169263200D01*
X44619000Y-169263200D02*
X44619000Y-164716600D01*
X44619000Y-50518200D02*
X44619000Y-45971600D01*
X46066800Y-51966000D02*
X44619000Y-50518200D01*
X40326400Y-38885000D02*
X31030000Y-38885000D01*
X40885200Y-39443800D02*
X40326400Y-38885000D01*
D18*
X130217000Y-235335800D02*
X130097200Y-235455600D01*
X130166200Y-191615200D02*
X130217000Y-191666000D01*
X130217000Y-235335800D02*
X130217000Y-191666000D01*
X131436200Y-165072200D02*
X130166200Y-166342200D01*
X130166200Y-166342200D02*
X130166200Y-191615200D01*
X130166200Y-47597200D02*
X130166200Y-72870200D01*
X131436200Y-46327200D02*
X130166200Y-47597200D01*
X130217000Y-116590800D02*
X130217000Y-72921000D01*
X130166200Y-72870200D02*
X130217000Y-72921000D01*
X130217000Y-116590800D02*
X130097200Y-116710600D01*
X177461000Y-116590800D02*
X177341200Y-116710600D01*
X177410200Y-72870200D02*
X177461000Y-72921000D01*
X177461000Y-116590800D02*
X177461000Y-72921000D01*
X178680200Y-46327200D02*
X177410200Y-47597200D01*
X177410200Y-47597200D02*
X177410200Y-72870200D01*
X177410200Y-166342200D02*
X177410200Y-191615200D01*
X178680200Y-165072200D02*
X177410200Y-166342200D01*
X177461000Y-235335800D02*
X177461000Y-191666000D01*
X177410200Y-191615200D02*
X177461000Y-191666000D01*
X177461000Y-235335800D02*
X177341200Y-235455600D01*
X153839000Y-235335800D02*
X153719200Y-235455600D01*
X153788200Y-191615200D02*
X153839000Y-191666000D01*
X153839000Y-235335800D02*
X153839000Y-191666000D01*
X155058200Y-165072200D02*
X153788200Y-166342200D01*
X153788200Y-166342200D02*
X153788200Y-191615200D01*
X153788200Y-47597200D02*
X153788200Y-72870200D01*
X155058200Y-46327200D02*
X153788200Y-47597200D01*
X153839000Y-116590800D02*
X153839000Y-72921000D01*
X153788200Y-72870200D02*
X153839000Y-72921000D01*
X153839000Y-116590800D02*
X153719200Y-116710600D01*
X82973000Y-116590800D02*
X82853200Y-116710600D01*
X82922200Y-72870200D02*
X82973000Y-72921000D01*
X82973000Y-116590800D02*
X82973000Y-72921000D01*
X84192200Y-46327200D02*
X82922200Y-47597200D01*
X82922200Y-47597200D02*
X82922200Y-72870200D01*
X82922200Y-166342200D02*
X82922200Y-191615200D01*
X84192200Y-165072200D02*
X82922200Y-166342200D01*
X82973000Y-235335800D02*
X82973000Y-191666000D01*
X82922200Y-191615200D02*
X82973000Y-191666000D01*
X82973000Y-235335800D02*
X82853200Y-235455600D01*
X106595000Y-235335800D02*
X106475200Y-235455600D01*
X106544200Y-191615200D02*
X106595000Y-191666000D01*
X106595000Y-235335800D02*
X106595000Y-191666000D01*
X107814200Y-165072200D02*
X106544200Y-166342200D01*
X106544200Y-166342200D02*
X106544200Y-191615200D01*
X106544200Y-47597200D02*
X106544200Y-72870200D01*
X107814200Y-46327200D02*
X106544200Y-47597200D01*
X106595000Y-116590800D02*
X106595000Y-72921000D01*
X106544200Y-72870200D02*
X106595000Y-72921000D01*
X106595000Y-116590800D02*
X106475200Y-116710600D01*
X59351000Y-116590800D02*
X59231200Y-116710600D01*
X59300200Y-72870200D02*
X59351000Y-72921000D01*
X59351000Y-116590800D02*
X59351000Y-72921000D01*
X60570200Y-46327200D02*
X59300200Y-47597200D01*
X59300200Y-47597200D02*
X59300200Y-72870200D01*
X59300200Y-166342200D02*
X59300200Y-191615200D01*
X60570200Y-165072200D02*
X59300200Y-166342200D01*
X59351000Y-235335800D02*
X59351000Y-191666000D01*
X59300200Y-191615200D02*
X59351000Y-191666000D01*
X59351000Y-235335800D02*
X59231200Y-235455600D01*
X35729000Y-235335800D02*
X35609200Y-235455600D01*
X35678200Y-191615200D02*
X35729000Y-191666000D01*
X35729000Y-235335800D02*
X35729000Y-191666000D01*
X36948200Y-165072200D02*
X35678200Y-166342200D01*
X35678200Y-166342200D02*
X35678200Y-191615200D01*
X35678200Y-47597200D02*
X35678200Y-72870200D01*
X36948200Y-46327200D02*
X35678200Y-47597200D01*
X35729000Y-116590800D02*
X35729000Y-72921000D01*
X35678200Y-72870200D02*
X35729000Y-72921000D01*
X35729000Y-116590800D02*
X35609200Y-116710600D01*
D17*
X139846200Y-236531200D02*
X139846200Y-225715200D01*
X139846200Y-237756840D02*
X139846200Y-237131200D01*
X139846200Y-237756840D02*
X139846200Y-237907200D01*
X139795400Y-200721600D02*
X139795400Y-225664400D01*
X139795400Y-225664400D02*
X139846200Y-225715200D01*
X139795400Y-199945600D02*
X139795400Y-199345600D01*
X139795400Y-199345600D02*
X139795400Y-193853000D01*
X139795400Y-200571240D02*
X139795400Y-199945600D01*
X139795400Y-200721600D02*
X139795400Y-200571240D01*
X134230200Y-188287800D02*
X139795400Y-193853000D01*
X134230200Y-172565200D02*
X134230200Y-188287800D01*
X134179400Y-172514400D02*
X134230200Y-172565200D01*
X139846200Y-237131200D02*
X139846200Y-236531200D01*
X139846200Y-118386200D02*
X139846200Y-117786200D01*
X134179400Y-53769400D02*
X134230200Y-53820200D01*
X134230200Y-53820200D02*
X134230200Y-69542800D01*
X134230200Y-69542800D02*
X139795400Y-75108000D01*
X139795400Y-81976600D02*
X139795400Y-81826240D01*
X139795400Y-81826240D02*
X139795400Y-81200600D01*
X139795400Y-80600600D02*
X139795400Y-75108000D01*
X139795400Y-81200600D02*
X139795400Y-80600600D01*
X139795400Y-106919400D02*
X139846200Y-106970200D01*
X139795400Y-81976600D02*
X139795400Y-106919400D01*
X139846200Y-119011840D02*
X139846200Y-119162200D01*
X139846200Y-119011840D02*
X139846200Y-118386200D01*
X139846200Y-117786200D02*
X139846200Y-106970200D01*
X187090200Y-117786200D02*
X187090200Y-106970200D01*
X187090200Y-119011840D02*
X187090200Y-118386200D01*
X187090200Y-119011840D02*
X187090200Y-119162200D01*
X187039400Y-81976600D02*
X187039400Y-106919400D01*
X187039400Y-106919400D02*
X187090200Y-106970200D01*
X187039400Y-81200600D02*
X187039400Y-80600600D01*
X187039400Y-80600600D02*
X187039400Y-75108000D01*
X187039400Y-81826240D02*
X187039400Y-81200600D01*
X187039400Y-81976600D02*
X187039400Y-81826240D01*
X181474200Y-69542800D02*
X187039400Y-75108000D01*
X181474200Y-53820200D02*
X181474200Y-69542800D01*
X181423400Y-53769400D02*
X181474200Y-53820200D01*
X187090200Y-118386200D02*
X187090200Y-117786200D01*
X187090200Y-237131200D02*
X187090200Y-236531200D01*
X181423400Y-172514400D02*
X181474200Y-172565200D01*
X181474200Y-172565200D02*
X181474200Y-188287800D01*
X181474200Y-188287800D02*
X187039400Y-193853000D01*
X187039400Y-200721600D02*
X187039400Y-200571240D01*
X187039400Y-200571240D02*
X187039400Y-199945600D01*
X187039400Y-199345600D02*
X187039400Y-193853000D01*
X187039400Y-199945600D02*
X187039400Y-199345600D01*
X187039400Y-225664400D02*
X187090200Y-225715200D01*
X187039400Y-200721600D02*
X187039400Y-225664400D01*
X187090200Y-237756840D02*
X187090200Y-237907200D01*
X187090200Y-237756840D02*
X187090200Y-237131200D01*
X187090200Y-236531200D02*
X187090200Y-225715200D01*
X163468200Y-236531200D02*
X163468200Y-225715200D01*
X163468200Y-237756840D02*
X163468200Y-237131200D01*
X163468200Y-237756840D02*
X163468200Y-237907200D01*
X163417400Y-200721600D02*
X163417400Y-225664400D01*
X163417400Y-225664400D02*
X163468200Y-225715200D01*
X163417400Y-199945600D02*
X163417400Y-199345600D01*
X163417400Y-199345600D02*
X163417400Y-193853000D01*
X163417400Y-200571240D02*
X163417400Y-199945600D01*
X163417400Y-200721600D02*
X163417400Y-200571240D01*
X157852200Y-188287800D02*
X163417400Y-193853000D01*
X157852200Y-172565200D02*
X157852200Y-188287800D01*
X157801400Y-172514400D02*
X157852200Y-172565200D01*
X163468200Y-237131200D02*
X163468200Y-236531200D01*
X163468200Y-118386200D02*
X163468200Y-117786200D01*
X157801400Y-53769400D02*
X157852200Y-53820200D01*
X157852200Y-53820200D02*
X157852200Y-69542800D01*
X157852200Y-69542800D02*
X163417400Y-75108000D01*
X163417400Y-81976600D02*
X163417400Y-81826240D01*
X163417400Y-81826240D02*
X163417400Y-81200600D01*
X163417400Y-80600600D02*
X163417400Y-75108000D01*
X163417400Y-81200600D02*
X163417400Y-80600600D01*
X163417400Y-106919400D02*
X163468200Y-106970200D01*
X163417400Y-81976600D02*
X163417400Y-106919400D01*
X163468200Y-119011840D02*
X163468200Y-119162200D01*
X163468200Y-119011840D02*
X163468200Y-118386200D01*
X163468200Y-117786200D02*
X163468200Y-106970200D01*
X92602200Y-117786200D02*
X92602200Y-106970200D01*
X92602200Y-119011840D02*
X92602200Y-118386200D01*
X92602200Y-119011840D02*
X92602200Y-119162200D01*
X92551400Y-81976600D02*
X92551400Y-106919400D01*
X92551400Y-106919400D02*
X92602200Y-106970200D01*
X92551400Y-81200600D02*
X92551400Y-80600600D01*
X92551400Y-80600600D02*
X92551400Y-75108000D01*
X92551400Y-81826240D02*
X92551400Y-81200600D01*
X92551400Y-81976600D02*
X92551400Y-81826240D01*
X86986200Y-69542800D02*
X92551400Y-75108000D01*
X86986200Y-53820200D02*
X86986200Y-69542800D01*
X86935400Y-53769400D02*
X86986200Y-53820200D01*
X92602200Y-118386200D02*
X92602200Y-117786200D01*
X92602200Y-237131200D02*
X92602200Y-236531200D01*
X86935400Y-172514400D02*
X86986200Y-172565200D01*
X86986200Y-172565200D02*
X86986200Y-188287800D01*
X86986200Y-188287800D02*
X92551400Y-193853000D01*
X92551400Y-200721600D02*
X92551400Y-200571240D01*
X92551400Y-200571240D02*
X92551400Y-199945600D01*
X92551400Y-199345600D02*
X92551400Y-193853000D01*
X92551400Y-199945600D02*
X92551400Y-199345600D01*
X92551400Y-225664400D02*
X92602200Y-225715200D01*
X92551400Y-200721600D02*
X92551400Y-225664400D01*
X92602200Y-237756840D02*
X92602200Y-237907200D01*
X92602200Y-237756840D02*
X92602200Y-237131200D01*
X92602200Y-236531200D02*
X92602200Y-225715200D01*
X116224200Y-236531200D02*
X116224200Y-225715200D01*
X116224200Y-237756840D02*
X116224200Y-237131200D01*
X116224200Y-237756840D02*
X116224200Y-237907200D01*
X116173400Y-200721600D02*
X116173400Y-225664400D01*
X116173400Y-225664400D02*
X116224200Y-225715200D01*
X116173400Y-199945600D02*
X116173400Y-199345600D01*
X116173400Y-199345600D02*
X116173400Y-193853000D01*
X116173400Y-200571240D02*
X116173400Y-199945600D01*
X116173400Y-200721600D02*
X116173400Y-200571240D01*
X110608200Y-188287800D02*
X116173400Y-193853000D01*
X110608200Y-172565200D02*
X110608200Y-188287800D01*
X110557400Y-172514400D02*
X110608200Y-172565200D01*
X116224200Y-237131200D02*
X116224200Y-236531200D01*
X116224200Y-118386200D02*
X116224200Y-117786200D01*
X110557400Y-53769400D02*
X110608200Y-53820200D01*
X110608200Y-53820200D02*
X110608200Y-69542800D01*
X110608200Y-69542800D02*
X116173400Y-75108000D01*
X116173400Y-81976600D02*
X116173400Y-81826240D01*
X116173400Y-81826240D02*
X116173400Y-81200600D01*
X116173400Y-80600600D02*
X116173400Y-75108000D01*
X116173400Y-81200600D02*
X116173400Y-80600600D01*
X116173400Y-106919400D02*
X116224200Y-106970200D01*
X116173400Y-81976600D02*
X116173400Y-106919400D01*
X116224200Y-119011840D02*
X116224200Y-119162200D01*
X116224200Y-119011840D02*
X116224200Y-118386200D01*
X116224200Y-117786200D02*
X116224200Y-106970200D01*
X68980200Y-117786200D02*
X68980200Y-106970200D01*
X68980200Y-119011840D02*
X68980200Y-118386200D01*
X68980200Y-119011840D02*
X68980200Y-119162200D01*
X68929400Y-81976600D02*
X68929400Y-106919400D01*
X68929400Y-106919400D02*
X68980200Y-106970200D01*
X68929400Y-81200600D02*
X68929400Y-80600600D01*
X68929400Y-80600600D02*
X68929400Y-75108000D01*
X68929400Y-81826240D02*
X68929400Y-81200600D01*
X68929400Y-81976600D02*
X68929400Y-81826240D01*
X63364200Y-69542800D02*
X68929400Y-75108000D01*
X63364200Y-53820200D02*
X63364200Y-69542800D01*
X63313400Y-53769400D02*
X63364200Y-53820200D01*
X68980200Y-118386200D02*
X68980200Y-117786200D01*
X68980200Y-237131200D02*
X68980200Y-236531200D01*
X63313400Y-172514400D02*
X63364200Y-172565200D01*
X63364200Y-172565200D02*
X63364200Y-188287800D01*
X63364200Y-188287800D02*
X68929400Y-193853000D01*
X68929400Y-200721600D02*
X68929400Y-200571240D01*
X68929400Y-200571240D02*
X68929400Y-199945600D01*
X68929400Y-199345600D02*
X68929400Y-193853000D01*
X68929400Y-199945600D02*
X68929400Y-199345600D01*
X68929400Y-225664400D02*
X68980200Y-225715200D01*
X68929400Y-200721600D02*
X68929400Y-225664400D01*
X68980200Y-237756840D02*
X68980200Y-237907200D01*
X68980200Y-237756840D02*
X68980200Y-237131200D01*
X68980200Y-236531200D02*
X68980200Y-225715200D01*
X45358200Y-236531200D02*
X45358200Y-225715200D01*
X45358200Y-237756840D02*
X45358200Y-237131200D01*
X45358200Y-237756840D02*
X45358200Y-237907200D01*
X45307400Y-200721600D02*
X45307400Y-225664400D01*
X45307400Y-225664400D02*
X45358200Y-225715200D01*
X45307400Y-199945600D02*
X45307400Y-199345600D01*
X45307400Y-199345600D02*
X45307400Y-193853000D01*
X45307400Y-200571240D02*
X45307400Y-199945600D01*
X45307400Y-200721600D02*
X45307400Y-200571240D01*
X39742200Y-188287800D02*
X45307400Y-193853000D01*
X39742200Y-172565200D02*
X39742200Y-188287800D01*
X39691400Y-172514400D02*
X39742200Y-172565200D01*
X45358200Y-237131200D02*
X45358200Y-236531200D01*
X45358200Y-118386200D02*
X45358200Y-117786200D01*
X39691400Y-53769400D02*
X39742200Y-53820200D01*
X39742200Y-53820200D02*
X39742200Y-69542800D01*
X39742200Y-69542800D02*
X45307400Y-75108000D01*
X45307400Y-81976600D02*
X45307400Y-81826240D01*
X45307400Y-81826240D02*
X45307400Y-81200600D01*
X45307400Y-80600600D02*
X45307400Y-75108000D01*
X45307400Y-81200600D02*
X45307400Y-80600600D01*
X45307400Y-106919400D02*
X45358200Y-106970200D01*
X45307400Y-81976600D02*
X45307400Y-106919400D01*
X45358200Y-119011840D02*
X45358200Y-119162200D01*
X45358200Y-119011840D02*
X45358200Y-118386200D01*
X45358200Y-117786200D02*
X45358200Y-106970200D01*
X127603400Y-188529600D02*
X127603400Y-188694200D01*
D18*
X127603400Y-169794000D02*
X128134200Y-169263200D01*
X127603400Y-188694200D02*
X127603400Y-169794000D01*
D17*
X127654200Y-237881800D02*
X139541400Y-237881800D01*
X127654200Y-232494020D02*
X127654200Y-237907200D01*
X127654200Y-225715200D02*
X127654200Y-232494020D01*
X127603400Y-200721600D02*
X127603400Y-225664400D01*
X127603400Y-225664400D02*
X127654200Y-225715200D01*
X127603400Y-195308420D02*
X127603400Y-200721600D01*
X127603400Y-195308420D02*
X127603400Y-188694200D01*
X139541400Y-237907200D02*
X127654200Y-237907200D01*
X139541400Y-119162200D02*
X127654200Y-119162200D01*
X127603400Y-76563420D02*
X127603400Y-69949200D01*
X127603400Y-76563420D02*
X127603400Y-81976600D01*
X127603400Y-106919400D02*
X127654200Y-106970200D01*
X127603400Y-81976600D02*
X127603400Y-106919400D01*
X127654200Y-106970200D02*
X127654200Y-113749020D01*
X127654200Y-113749020D02*
X127654200Y-119162200D01*
X127654200Y-119136800D02*
X139541400Y-119136800D01*
D18*
X127603400Y-69949200D02*
X127603400Y-51049000D01*
X127603400Y-51049000D02*
X128134200Y-50518200D01*
D17*
X127603400Y-69784600D02*
X127603400Y-69949200D01*
X174847400Y-69784600D02*
X174847400Y-69949200D01*
D18*
X174847400Y-51049000D02*
X175378200Y-50518200D01*
X174847400Y-69949200D02*
X174847400Y-51049000D01*
D17*
X174898200Y-119136800D02*
X186785400Y-119136800D01*
X174898200Y-113749020D02*
X174898200Y-119162200D01*
X174898200Y-106970200D02*
X174898200Y-113749020D01*
X174847400Y-81976600D02*
X174847400Y-106919400D01*
X174847400Y-106919400D02*
X174898200Y-106970200D01*
X174847400Y-76563420D02*
X174847400Y-81976600D01*
X174847400Y-76563420D02*
X174847400Y-69949200D01*
X186785400Y-119162200D02*
X174898200Y-119162200D01*
X186785400Y-237907200D02*
X174898200Y-237907200D01*
X174847400Y-195308420D02*
X174847400Y-188694200D01*
X174847400Y-195308420D02*
X174847400Y-200721600D01*
X174847400Y-225664400D02*
X174898200Y-225715200D01*
X174847400Y-200721600D02*
X174847400Y-225664400D01*
X174898200Y-225715200D02*
X174898200Y-232494020D01*
X174898200Y-232494020D02*
X174898200Y-237907200D01*
X174898200Y-237881800D02*
X186785400Y-237881800D01*
D18*
X174847400Y-188694200D02*
X174847400Y-169794000D01*
X174847400Y-169794000D02*
X175378200Y-169263200D01*
D17*
X174847400Y-188529600D02*
X174847400Y-188694200D01*
X151225400Y-188529600D02*
X151225400Y-188694200D01*
D18*
X151225400Y-169794000D02*
X151756200Y-169263200D01*
X151225400Y-188694200D02*
X151225400Y-169794000D01*
D17*
X151276200Y-237881800D02*
X163163400Y-237881800D01*
X151276200Y-232494020D02*
X151276200Y-237907200D01*
X151276200Y-225715200D02*
X151276200Y-232494020D01*
X151225400Y-200721600D02*
X151225400Y-225664400D01*
X151225400Y-225664400D02*
X151276200Y-225715200D01*
X151225400Y-195308420D02*
X151225400Y-200721600D01*
X151225400Y-195308420D02*
X151225400Y-188694200D01*
X163163400Y-237907200D02*
X151276200Y-237907200D01*
X163163400Y-119162200D02*
X151276200Y-119162200D01*
X151225400Y-76563420D02*
X151225400Y-69949200D01*
X151225400Y-76563420D02*
X151225400Y-81976600D01*
X151225400Y-106919400D02*
X151276200Y-106970200D01*
X151225400Y-81976600D02*
X151225400Y-106919400D01*
X151276200Y-106970200D02*
X151276200Y-113749020D01*
X151276200Y-113749020D02*
X151276200Y-119162200D01*
X151276200Y-119136800D02*
X163163400Y-119136800D01*
D18*
X151225400Y-69949200D02*
X151225400Y-51049000D01*
X151225400Y-51049000D02*
X151756200Y-50518200D01*
D17*
X151225400Y-69784600D02*
X151225400Y-69949200D01*
X80359400Y-69784600D02*
X80359400Y-69949200D01*
D18*
X80359400Y-51049000D02*
X80890200Y-50518200D01*
X80359400Y-69949200D02*
X80359400Y-51049000D01*
D17*
X80410200Y-119136800D02*
X92297400Y-119136800D01*
X80410200Y-113749020D02*
X80410200Y-119162200D01*
X80410200Y-106970200D02*
X80410200Y-113749020D01*
X80359400Y-81976600D02*
X80359400Y-106919400D01*
X80359400Y-106919400D02*
X80410200Y-106970200D01*
X80359400Y-76563420D02*
X80359400Y-81976600D01*
X80359400Y-76563420D02*
X80359400Y-69949200D01*
X92297400Y-119162200D02*
X80410200Y-119162200D01*
X92297400Y-237907200D02*
X80410200Y-237907200D01*
X80359400Y-195308420D02*
X80359400Y-188694200D01*
X80359400Y-195308420D02*
X80359400Y-200721600D01*
X80359400Y-225664400D02*
X80410200Y-225715200D01*
X80359400Y-200721600D02*
X80359400Y-225664400D01*
X80410200Y-225715200D02*
X80410200Y-232494020D01*
X80410200Y-232494020D02*
X80410200Y-237907200D01*
X80410200Y-237881800D02*
X92297400Y-237881800D01*
D18*
X80359400Y-188694200D02*
X80359400Y-169794000D01*
X80359400Y-169794000D02*
X80890200Y-169263200D01*
D17*
X80359400Y-188529600D02*
X80359400Y-188694200D01*
X103981400Y-188529600D02*
X103981400Y-188694200D01*
D18*
X103981400Y-169794000D02*
X104512200Y-169263200D01*
X103981400Y-188694200D02*
X103981400Y-169794000D01*
D17*
X104032200Y-237881800D02*
X115919400Y-237881800D01*
X104032200Y-232494020D02*
X104032200Y-237907200D01*
X104032200Y-225715200D02*
X104032200Y-232494020D01*
X103981400Y-200721600D02*
X103981400Y-225664400D01*
X103981400Y-225664400D02*
X104032200Y-225715200D01*
X103981400Y-195308420D02*
X103981400Y-200721600D01*
X103981400Y-195308420D02*
X103981400Y-188694200D01*
X115919400Y-237907200D02*
X104032200Y-237907200D01*
X115919400Y-119162200D02*
X104032200Y-119162200D01*
X103981400Y-76563420D02*
X103981400Y-69949200D01*
X103981400Y-76563420D02*
X103981400Y-81976600D01*
X103981400Y-106919400D02*
X104032200Y-106970200D01*
X103981400Y-81976600D02*
X103981400Y-106919400D01*
X104032200Y-106970200D02*
X104032200Y-113749020D01*
X104032200Y-113749020D02*
X104032200Y-119162200D01*
X104032200Y-119136800D02*
X115919400Y-119136800D01*
D18*
X103981400Y-69949200D02*
X103981400Y-51049000D01*
X103981400Y-51049000D02*
X104512200Y-50518200D01*
D17*
X103981400Y-69784600D02*
X103981400Y-69949200D01*
X56737400Y-69784600D02*
X56737400Y-69949200D01*
D18*
X56737400Y-51049000D02*
X57268200Y-50518200D01*
X56737400Y-69949200D02*
X56737400Y-51049000D01*
D17*
X56788200Y-119136800D02*
X68675400Y-119136800D01*
X56788200Y-113749020D02*
X56788200Y-119162200D01*
X56788200Y-106970200D02*
X56788200Y-113749020D01*
X56737400Y-81976600D02*
X56737400Y-106919400D01*
X56737400Y-106919400D02*
X56788200Y-106970200D01*
X56737400Y-76563420D02*
X56737400Y-81976600D01*
X56737400Y-76563420D02*
X56737400Y-69949200D01*
X68675400Y-119162200D02*
X56788200Y-119162200D01*
X68675400Y-237907200D02*
X56788200Y-237907200D01*
X56737400Y-195308420D02*
X56737400Y-188694200D01*
X56737400Y-195308420D02*
X56737400Y-200721600D01*
X56737400Y-225664400D02*
X56788200Y-225715200D01*
X56737400Y-200721600D02*
X56737400Y-225664400D01*
X56788200Y-225715200D02*
X56788200Y-232494020D01*
X56788200Y-232494020D02*
X56788200Y-237907200D01*
X56788200Y-237881800D02*
X68675400Y-237881800D01*
D18*
X56737400Y-188694200D02*
X56737400Y-169794000D01*
X56737400Y-169794000D02*
X57268200Y-169263200D01*
D17*
X56737400Y-188529600D02*
X56737400Y-188694200D01*
X33115400Y-188529600D02*
X33115400Y-188694200D01*
D18*
X33115400Y-169794000D02*
X33646200Y-169263200D01*
X33115400Y-188694200D02*
X33115400Y-169794000D01*
D17*
X33166200Y-237881800D02*
X45053400Y-237881800D01*
X33166200Y-232494020D02*
X33166200Y-237907200D01*
X33166200Y-225715200D02*
X33166200Y-232494020D01*
X33115400Y-200721600D02*
X33115400Y-225664400D01*
X33115400Y-225664400D02*
X33166200Y-225715200D01*
X33115400Y-195308420D02*
X33115400Y-200721600D01*
X33115400Y-195308420D02*
X33115400Y-188694200D01*
X45053400Y-237907200D02*
X33166200Y-237907200D01*
X45053400Y-119162200D02*
X33166200Y-119162200D01*
X33115400Y-76563420D02*
X33115400Y-69949200D01*
X33115400Y-76563420D02*
X33115400Y-81976600D01*
X33115400Y-106919400D02*
X33166200Y-106970200D01*
X33115400Y-81976600D02*
X33115400Y-106919400D01*
X33166200Y-106970200D02*
X33166200Y-113749020D01*
X33166200Y-113749020D02*
X33166200Y-119162200D01*
X33166200Y-119136800D02*
X45053400Y-119136800D01*
D18*
X33115400Y-69949200D02*
X33115400Y-51049000D01*
X33115400Y-51049000D02*
X33646200Y-50518200D01*
D17*
X33115400Y-69784600D02*
X33115400Y-69949200D01*
D18*
X143298000Y-167790000D02*
X143298000Y-167536000D01*
X140681800Y-164538800D02*
X140681800Y-159103200D01*
X140681800Y-159103200D02*
X137760800Y-156182200D01*
X137760800Y-156182200D02*
X135868500Y-156182200D01*
X143298000Y-167155000D02*
X140681800Y-164538800D01*
X143298000Y-167790000D02*
X143298000Y-167155000D01*
X143298000Y-49045000D02*
X143298000Y-48410000D01*
X143298000Y-48410000D02*
X140681800Y-45793800D01*
X137760800Y-37437200D02*
X135868500Y-37437200D01*
X140681800Y-40358200D02*
X137760800Y-37437200D01*
X140681800Y-45793800D02*
X140681800Y-40358200D01*
X143298000Y-49045000D02*
X143298000Y-48791000D01*
X190542000Y-49045000D02*
X190542000Y-48791000D01*
X187925800Y-45793800D02*
X187925800Y-40358200D01*
X187925800Y-40358200D02*
X185004800Y-37437200D01*
X185004800Y-37437200D02*
X183112500Y-37437200D01*
X190542000Y-48410000D02*
X187925800Y-45793800D01*
X190542000Y-49045000D02*
X190542000Y-48410000D01*
X190542000Y-167790000D02*
X190542000Y-167155000D01*
X190542000Y-167155000D02*
X187925800Y-164538800D01*
X185004800Y-156182200D02*
X183112500Y-156182200D01*
X187925800Y-159103200D02*
X185004800Y-156182200D01*
X187925800Y-164538800D02*
X187925800Y-159103200D01*
X190542000Y-167790000D02*
X190542000Y-167536000D01*
X166920000Y-167790000D02*
X166920000Y-167536000D01*
X164303800Y-164538800D02*
X164303800Y-159103200D01*
X164303800Y-159103200D02*
X161382800Y-156182200D01*
X161382800Y-156182200D02*
X159490500Y-156182200D01*
X166920000Y-167155000D02*
X164303800Y-164538800D01*
X166920000Y-167790000D02*
X166920000Y-167155000D01*
X166920000Y-49045000D02*
X166920000Y-48410000D01*
X166920000Y-48410000D02*
X164303800Y-45793800D01*
X161382800Y-37437200D02*
X159490500Y-37437200D01*
X164303800Y-40358200D02*
X161382800Y-37437200D01*
X164303800Y-45793800D02*
X164303800Y-40358200D01*
X166920000Y-49045000D02*
X166920000Y-48791000D01*
X96054000Y-49045000D02*
X96054000Y-48791000D01*
X93437800Y-45793800D02*
X93437800Y-40358200D01*
X93437800Y-40358200D02*
X90516800Y-37437200D01*
X90516800Y-37437200D02*
X88624500Y-37437200D01*
X96054000Y-48410000D02*
X93437800Y-45793800D01*
X96054000Y-49045000D02*
X96054000Y-48410000D01*
X96054000Y-167790000D02*
X96054000Y-167155000D01*
X96054000Y-167155000D02*
X93437800Y-164538800D01*
X90516800Y-156182200D02*
X88624500Y-156182200D01*
X93437800Y-159103200D02*
X90516800Y-156182200D01*
X93437800Y-164538800D02*
X93437800Y-159103200D01*
X96054000Y-167790000D02*
X96054000Y-167536000D01*
X119676000Y-167790000D02*
X119676000Y-167536000D01*
X117059800Y-164538800D02*
X117059800Y-159103200D01*
X117059800Y-159103200D02*
X114138800Y-156182200D01*
X114138800Y-156182200D02*
X112246500Y-156182200D01*
X119676000Y-167155000D02*
X117059800Y-164538800D01*
X119676000Y-167790000D02*
X119676000Y-167155000D01*
X119676000Y-49045000D02*
X119676000Y-48410000D01*
X119676000Y-48410000D02*
X117059800Y-45793800D01*
X114138800Y-37437200D02*
X112246500Y-37437200D01*
X117059800Y-40358200D02*
X114138800Y-37437200D01*
X117059800Y-45793800D02*
X117059800Y-40358200D01*
X119676000Y-49045000D02*
X119676000Y-48791000D01*
X72432000Y-49045000D02*
X72432000Y-48791000D01*
X69815800Y-45793800D02*
X69815800Y-40358200D01*
X69815800Y-40358200D02*
X66894800Y-37437200D01*
X66894800Y-37437200D02*
X65002500Y-37437200D01*
X72432000Y-48410000D02*
X69815800Y-45793800D01*
X72432000Y-49045000D02*
X72432000Y-48410000D01*
X72432000Y-167790000D02*
X72432000Y-167155000D01*
X72432000Y-167155000D02*
X69815800Y-164538800D01*
X66894800Y-156182200D02*
X65002500Y-156182200D01*
X69815800Y-159103200D02*
X66894800Y-156182200D01*
X69815800Y-164538800D02*
X69815800Y-159103200D01*
X72432000Y-167790000D02*
X72432000Y-167536000D01*
X48810000Y-167790000D02*
X48810000Y-167536000D01*
X46193800Y-164538800D02*
X46193800Y-159103200D01*
X46193800Y-159103200D02*
X43272800Y-156182200D01*
X43272800Y-156182200D02*
X41380500Y-156182200D01*
X48810000Y-167155000D02*
X46193800Y-164538800D01*
X48810000Y-167790000D02*
X48810000Y-167155000D01*
X48810000Y-49045000D02*
X48810000Y-48410000D01*
X48810000Y-48410000D02*
X46193800Y-45793800D01*
X43272800Y-37437200D02*
X41380500Y-37437200D01*
X46193800Y-40358200D02*
X43272800Y-37437200D01*
X46193800Y-45793800D02*
X46193800Y-40358200D01*
X48810000Y-49045000D02*
X48810000Y-48791000D01*
X136160600Y-155090000D02*
X133874600Y-152804000D01*
X133874600Y-152804000D02*
X131423500Y-152804000D01*
X131423500Y-152804000D02*
X131398100Y-152829400D01*
X143298000Y-155090000D02*
X136160600Y-155090000D01*
X143298000Y-36345000D02*
X136160600Y-36345000D01*
X131423500Y-34059000D02*
X131398100Y-34084400D01*
X133874600Y-34059000D02*
X131423500Y-34059000D01*
X136160600Y-36345000D02*
X133874600Y-34059000D01*
X183404600Y-36345000D02*
X181118600Y-34059000D01*
X181118600Y-34059000D02*
X178667500Y-34059000D01*
X178667500Y-34059000D02*
X178642100Y-34084400D01*
X190542000Y-36345000D02*
X183404600Y-36345000D01*
X190542000Y-155090000D02*
X183404600Y-155090000D01*
X178667500Y-152804000D02*
X178642100Y-152829400D01*
X181118600Y-152804000D02*
X178667500Y-152804000D01*
X183404600Y-155090000D02*
X181118600Y-152804000D01*
X159782600Y-155090000D02*
X157496600Y-152804000D01*
X157496600Y-152804000D02*
X155045500Y-152804000D01*
X155045500Y-152804000D02*
X155020100Y-152829400D01*
X166920000Y-155090000D02*
X159782600Y-155090000D01*
X166920000Y-36345000D02*
X159782600Y-36345000D01*
X155045500Y-34059000D02*
X155020100Y-34084400D01*
X157496600Y-34059000D02*
X155045500Y-34059000D01*
X159782600Y-36345000D02*
X157496600Y-34059000D01*
X88916600Y-36345000D02*
X86630600Y-34059000D01*
X86630600Y-34059000D02*
X84179500Y-34059000D01*
X84179500Y-34059000D02*
X84154100Y-34084400D01*
X96054000Y-36345000D02*
X88916600Y-36345000D01*
X96054000Y-155090000D02*
X88916600Y-155090000D01*
X84179500Y-152804000D02*
X84154100Y-152829400D01*
X86630600Y-152804000D02*
X84179500Y-152804000D01*
X88916600Y-155090000D02*
X86630600Y-152804000D01*
X112538600Y-155090000D02*
X110252600Y-152804000D01*
X110252600Y-152804000D02*
X107801500Y-152804000D01*
X107801500Y-152804000D02*
X107776100Y-152829400D01*
X119676000Y-155090000D02*
X112538600Y-155090000D01*
X119676000Y-36345000D02*
X112538600Y-36345000D01*
X107801500Y-34059000D02*
X107776100Y-34084400D01*
X110252600Y-34059000D02*
X107801500Y-34059000D01*
X112538600Y-36345000D02*
X110252600Y-34059000D01*
X65294600Y-36345000D02*
X63008600Y-34059000D01*
X63008600Y-34059000D02*
X60557500Y-34059000D01*
X60557500Y-34059000D02*
X60532100Y-34084400D01*
X72432000Y-36345000D02*
X65294600Y-36345000D01*
X72432000Y-155090000D02*
X65294600Y-155090000D01*
X60557500Y-152804000D02*
X60532100Y-152829400D01*
X63008600Y-152804000D02*
X60557500Y-152804000D01*
X65294600Y-155090000D02*
X63008600Y-152804000D01*
X41672600Y-155090000D02*
X39386600Y-152804000D01*
X39386600Y-152804000D02*
X36935500Y-152804000D01*
X36935500Y-152804000D02*
X36910100Y-152829400D01*
X48810000Y-155090000D02*
X41672600Y-155090000D01*
X48810000Y-36345000D02*
X41672600Y-36345000D01*
X36935500Y-34059000D02*
X36910100Y-34084400D01*
X39386600Y-34059000D02*
X36935500Y-34059000D01*
X41672600Y-36345000D02*
X39386600Y-34059000D01*
M02*
