G04 #@! TF.FileFunction,Soldermask,Bot*
%FSLAX46Y46*%
G04 Gerber Fmt 4.6, Leading zero omitted, Abs format (unit mm)*
G04 Created by KiCad (PCBNEW 4.0.3-stable) date 08/25/16 15:17:33*
%MOMM*%
%LPD*%
G01*
G04 APERTURE LIST*
%ADD10C,0.100000*%
%ADD11R,3.400000X3.400000*%
%ADD12R,1.200100X1.200100*%
%ADD13R,1.000000X0.800000*%
%ADD14R,1.000000X1.900000*%
%ADD15R,0.800000X1.000000*%
%ADD16R,0.900000X1.000000*%
G04 APERTURE END LIST*
D10*
D11*
X231673400Y-76039980D03*
X226644200Y-83990180D03*
X244152420Y-86441280D03*
X244208300Y-75963780D03*
X226644200Y-76116180D03*
X244180360Y-81691480D03*
D12*
X227446840Y-80799980D03*
X227446840Y-78899980D03*
X229445820Y-79849980D03*
D13*
X225933000Y-80833380D03*
X225933000Y-79933380D03*
X232506000Y-86491580D03*
X232506000Y-87391580D03*
X240136000Y-86491580D03*
X240136000Y-87391580D03*
D14*
X231211000Y-79161580D03*
X232481000Y-79161580D03*
X233751000Y-79161580D03*
X235021000Y-79161580D03*
X236291000Y-79161580D03*
X237561000Y-79161580D03*
X238831000Y-79161580D03*
X240101000Y-79161580D03*
X240101000Y-84561580D03*
X238831000Y-84561580D03*
X237561000Y-84561580D03*
X236291000Y-84561580D03*
X235021000Y-84561580D03*
X233751000Y-84561580D03*
X232481000Y-84561580D03*
X231211000Y-84561580D03*
D15*
X235008000Y-109220000D03*
X235908000Y-109220000D03*
D13*
X238806000Y-77021580D03*
X238806000Y-76121580D03*
D16*
X235036000Y-77201580D03*
X235036000Y-76101580D03*
X235036000Y-23869200D03*
X235036000Y-22769200D03*
D13*
X238806000Y-23689200D03*
X238806000Y-22789200D03*
D15*
X235008000Y-54864000D03*
X235908000Y-54864000D03*
D14*
X231211000Y-25829200D03*
X232481000Y-25829200D03*
X233751000Y-25829200D03*
X235021000Y-25829200D03*
X236291000Y-25829200D03*
X237561000Y-25829200D03*
X238831000Y-25829200D03*
X240101000Y-25829200D03*
X240101000Y-31229200D03*
X238831000Y-31229200D03*
X237561000Y-31229200D03*
X236291000Y-31229200D03*
X235021000Y-31229200D03*
X233751000Y-31229200D03*
X232481000Y-31229200D03*
X231211000Y-31229200D03*
D13*
X240136000Y-33159200D03*
X240136000Y-34059200D03*
X232506000Y-33159200D03*
X232506000Y-34059200D03*
X225933000Y-27501000D03*
X225933000Y-26601000D03*
D12*
X227446840Y-27467600D03*
X227446840Y-25567600D03*
X229445820Y-26517600D03*
D11*
X244180360Y-28359100D03*
X226644200Y-22783800D03*
X244208300Y-22631400D03*
X244152420Y-33108900D03*
X226644200Y-30657800D03*
X231673400Y-22707600D03*
X231673400Y-129387600D03*
X226644200Y-137337800D03*
X244152420Y-139788900D03*
X244208300Y-129311400D03*
X226644200Y-129463800D03*
X244180360Y-135039100D03*
D12*
X227446840Y-134147600D03*
X227446840Y-132247600D03*
X229445820Y-133197600D03*
D13*
X225933000Y-134181000D03*
X225933000Y-133281000D03*
X232506000Y-139839200D03*
X232506000Y-140739200D03*
X240136000Y-139839200D03*
X240136000Y-140739200D03*
D14*
X231211000Y-132509200D03*
X232481000Y-132509200D03*
X233751000Y-132509200D03*
X235021000Y-132509200D03*
X236291000Y-132509200D03*
X237561000Y-132509200D03*
X238831000Y-132509200D03*
X240101000Y-132509200D03*
X240101000Y-137909200D03*
X238831000Y-137909200D03*
X237561000Y-137909200D03*
X236291000Y-137909200D03*
X235021000Y-137909200D03*
X233751000Y-137909200D03*
X232481000Y-137909200D03*
X231211000Y-137909200D03*
D15*
X235008000Y-161544000D03*
X235908000Y-161544000D03*
D13*
X238806000Y-130369200D03*
X238806000Y-129469200D03*
D16*
X235036000Y-130549200D03*
X235036000Y-129449200D03*
D11*
X180873400Y-129387600D03*
X175844200Y-137337800D03*
X193352420Y-139788900D03*
X193408300Y-129311400D03*
X175844200Y-129463800D03*
X193380360Y-135039100D03*
D12*
X176646840Y-134147600D03*
X176646840Y-132247600D03*
X178645820Y-133197600D03*
D13*
X175133000Y-134181000D03*
X175133000Y-133281000D03*
X181706000Y-139839200D03*
X181706000Y-140739200D03*
X189336000Y-139839200D03*
X189336000Y-140739200D03*
D14*
X180411000Y-132509200D03*
X181681000Y-132509200D03*
X182951000Y-132509200D03*
X184221000Y-132509200D03*
X185491000Y-132509200D03*
X186761000Y-132509200D03*
X188031000Y-132509200D03*
X189301000Y-132509200D03*
X189301000Y-137909200D03*
X188031000Y-137909200D03*
X186761000Y-137909200D03*
X185491000Y-137909200D03*
X184221000Y-137909200D03*
X182951000Y-137909200D03*
X181681000Y-137909200D03*
X180411000Y-137909200D03*
D15*
X184208000Y-161544000D03*
X185108000Y-161544000D03*
D13*
X188006000Y-130369200D03*
X188006000Y-129469200D03*
D16*
X184236000Y-130549200D03*
X184236000Y-129449200D03*
X209636000Y-130549200D03*
X209636000Y-129449200D03*
D13*
X213406000Y-130369200D03*
X213406000Y-129469200D03*
D15*
X209608000Y-161544000D03*
X210508000Y-161544000D03*
D14*
X205811000Y-132509200D03*
X207081000Y-132509200D03*
X208351000Y-132509200D03*
X209621000Y-132509200D03*
X210891000Y-132509200D03*
X212161000Y-132509200D03*
X213431000Y-132509200D03*
X214701000Y-132509200D03*
X214701000Y-137909200D03*
X213431000Y-137909200D03*
X212161000Y-137909200D03*
X210891000Y-137909200D03*
X209621000Y-137909200D03*
X208351000Y-137909200D03*
X207081000Y-137909200D03*
X205811000Y-137909200D03*
D13*
X214736000Y-139839200D03*
X214736000Y-140739200D03*
X207106000Y-139839200D03*
X207106000Y-140739200D03*
X200533000Y-134181000D03*
X200533000Y-133281000D03*
D12*
X202046840Y-134147600D03*
X202046840Y-132247600D03*
X204045820Y-133197600D03*
D11*
X218780360Y-135039100D03*
X201244200Y-129463800D03*
X218808300Y-129311400D03*
X218752420Y-139788900D03*
X201244200Y-137337800D03*
X206273400Y-129387600D03*
X155473400Y-129387600D03*
X150444200Y-137337800D03*
X167952420Y-139788900D03*
X168008300Y-129311400D03*
X150444200Y-129463800D03*
X167980360Y-135039100D03*
D12*
X151246840Y-134147600D03*
X151246840Y-132247600D03*
X153245820Y-133197600D03*
D13*
X149733000Y-134181000D03*
X149733000Y-133281000D03*
X156306000Y-139839200D03*
X156306000Y-140739200D03*
X163936000Y-139839200D03*
X163936000Y-140739200D03*
D14*
X155011000Y-132509200D03*
X156281000Y-132509200D03*
X157551000Y-132509200D03*
X158821000Y-132509200D03*
X160091000Y-132509200D03*
X161361000Y-132509200D03*
X162631000Y-132509200D03*
X163901000Y-132509200D03*
X163901000Y-137909200D03*
X162631000Y-137909200D03*
X161361000Y-137909200D03*
X160091000Y-137909200D03*
X158821000Y-137909200D03*
X157551000Y-137909200D03*
X156281000Y-137909200D03*
X155011000Y-137909200D03*
D15*
X158808000Y-161544000D03*
X159708000Y-161544000D03*
D13*
X162606000Y-130369200D03*
X162606000Y-129469200D03*
D16*
X158836000Y-130549200D03*
X158836000Y-129449200D03*
X133436000Y-130549200D03*
X133436000Y-129449200D03*
D13*
X137206000Y-130369200D03*
X137206000Y-129469200D03*
D15*
X133408000Y-161544000D03*
X134308000Y-161544000D03*
D14*
X129611000Y-132509200D03*
X130881000Y-132509200D03*
X132151000Y-132509200D03*
X133421000Y-132509200D03*
X134691000Y-132509200D03*
X135961000Y-132509200D03*
X137231000Y-132509200D03*
X138501000Y-132509200D03*
X138501000Y-137909200D03*
X137231000Y-137909200D03*
X135961000Y-137909200D03*
X134691000Y-137909200D03*
X133421000Y-137909200D03*
X132151000Y-137909200D03*
X130881000Y-137909200D03*
X129611000Y-137909200D03*
D13*
X138536000Y-139839200D03*
X138536000Y-140739200D03*
X130906000Y-139839200D03*
X130906000Y-140739200D03*
X124333000Y-134181000D03*
X124333000Y-133281000D03*
D12*
X125846840Y-134147600D03*
X125846840Y-132247600D03*
X127845820Y-133197600D03*
D11*
X142580360Y-135039100D03*
X125044200Y-129463800D03*
X142608300Y-129311400D03*
X142552420Y-139788900D03*
X125044200Y-137337800D03*
X130073400Y-129387600D03*
D16*
X31836000Y-130541580D03*
X31836000Y-129441580D03*
D13*
X35606000Y-130361580D03*
X35606000Y-129461580D03*
D15*
X31808000Y-162560000D03*
X32708000Y-162560000D03*
D14*
X28011000Y-132501580D03*
X29281000Y-132501580D03*
X30551000Y-132501580D03*
X31821000Y-132501580D03*
X33091000Y-132501580D03*
X34361000Y-132501580D03*
X35631000Y-132501580D03*
X36901000Y-132501580D03*
X36901000Y-137901580D03*
X35631000Y-137901580D03*
X34361000Y-137901580D03*
X33091000Y-137901580D03*
X31821000Y-137901580D03*
X30551000Y-137901580D03*
X29281000Y-137901580D03*
X28011000Y-137901580D03*
D13*
X36936000Y-139831580D03*
X36936000Y-140731580D03*
X29306000Y-139831580D03*
X29306000Y-140731580D03*
X22733000Y-134173380D03*
X22733000Y-133273380D03*
D12*
X24246840Y-134139980D03*
X24246840Y-132239980D03*
X26245820Y-133189980D03*
D11*
X40980360Y-135031480D03*
X23444200Y-129456180D03*
X41008300Y-129303780D03*
X40952420Y-139781280D03*
X23444200Y-137330180D03*
X28473400Y-129379980D03*
X53873400Y-129379980D03*
X48844200Y-137330180D03*
X66352420Y-139781280D03*
X66408300Y-129303780D03*
X48844200Y-129456180D03*
X66380360Y-135031480D03*
D12*
X49646840Y-134139980D03*
X49646840Y-132239980D03*
X51645820Y-133189980D03*
D13*
X48133000Y-134173380D03*
X48133000Y-133273380D03*
X54706000Y-139831580D03*
X54706000Y-140731580D03*
X62336000Y-139831580D03*
X62336000Y-140731580D03*
D14*
X53411000Y-132501580D03*
X54681000Y-132501580D03*
X55951000Y-132501580D03*
X57221000Y-132501580D03*
X58491000Y-132501580D03*
X59761000Y-132501580D03*
X61031000Y-132501580D03*
X62301000Y-132501580D03*
X62301000Y-137901580D03*
X61031000Y-137901580D03*
X59761000Y-137901580D03*
X58491000Y-137901580D03*
X57221000Y-137901580D03*
X55951000Y-137901580D03*
X54681000Y-137901580D03*
X53411000Y-137901580D03*
D15*
X57208000Y-162560000D03*
X58108000Y-162560000D03*
D13*
X61006000Y-130361580D03*
X61006000Y-129461580D03*
D16*
X57236000Y-130541580D03*
X57236000Y-129441580D03*
X108036000Y-130541580D03*
X108036000Y-129441580D03*
D13*
X111806000Y-130361580D03*
X111806000Y-129461580D03*
D15*
X108008000Y-162560000D03*
X108908000Y-162560000D03*
D14*
X104211000Y-132501580D03*
X105481000Y-132501580D03*
X106751000Y-132501580D03*
X108021000Y-132501580D03*
X109291000Y-132501580D03*
X110561000Y-132501580D03*
X111831000Y-132501580D03*
X113101000Y-132501580D03*
X113101000Y-137901580D03*
X111831000Y-137901580D03*
X110561000Y-137901580D03*
X109291000Y-137901580D03*
X108021000Y-137901580D03*
X106751000Y-137901580D03*
X105481000Y-137901580D03*
X104211000Y-137901580D03*
D13*
X113136000Y-139831580D03*
X113136000Y-140731580D03*
X105506000Y-139831580D03*
X105506000Y-140731580D03*
X98933000Y-134173380D03*
X98933000Y-133273380D03*
D12*
X100446840Y-134139980D03*
X100446840Y-132239980D03*
X102445820Y-133189980D03*
D11*
X117180360Y-135031480D03*
X99644200Y-129456180D03*
X117208300Y-129303780D03*
X117152420Y-139781280D03*
X99644200Y-137330180D03*
X104673400Y-129379980D03*
X79273400Y-129379980D03*
X74244200Y-137330180D03*
X91752420Y-139781280D03*
X91808300Y-129303780D03*
X74244200Y-129456180D03*
X91780360Y-135031480D03*
D12*
X75046840Y-134139980D03*
X75046840Y-132239980D03*
X77045820Y-133189980D03*
D13*
X73533000Y-134173380D03*
X73533000Y-133273380D03*
X80106000Y-139831580D03*
X80106000Y-140731580D03*
X87736000Y-139831580D03*
X87736000Y-140731580D03*
D14*
X78811000Y-132501580D03*
X80081000Y-132501580D03*
X81351000Y-132501580D03*
X82621000Y-132501580D03*
X83891000Y-132501580D03*
X85161000Y-132501580D03*
X86431000Y-132501580D03*
X87701000Y-132501580D03*
X87701000Y-137901580D03*
X86431000Y-137901580D03*
X85161000Y-137901580D03*
X83891000Y-137901580D03*
X82621000Y-137901580D03*
X81351000Y-137901580D03*
X80081000Y-137901580D03*
X78811000Y-137901580D03*
D15*
X82608000Y-162560000D03*
X83508000Y-162560000D03*
D13*
X86406000Y-130361580D03*
X86406000Y-129461580D03*
D16*
X82636000Y-130541580D03*
X82636000Y-129441580D03*
D11*
X130073400Y-22707600D03*
X125044200Y-30657800D03*
X142552420Y-33108900D03*
X142608300Y-22631400D03*
X125044200Y-22783800D03*
X142580360Y-28359100D03*
D12*
X125846840Y-27467600D03*
X125846840Y-25567600D03*
X127845820Y-26517600D03*
D13*
X124333000Y-27501000D03*
X124333000Y-26601000D03*
X130906000Y-33159200D03*
X130906000Y-34059200D03*
X138536000Y-33159200D03*
X138536000Y-34059200D03*
D14*
X129611000Y-25829200D03*
X130881000Y-25829200D03*
X132151000Y-25829200D03*
X133421000Y-25829200D03*
X134691000Y-25829200D03*
X135961000Y-25829200D03*
X137231000Y-25829200D03*
X138501000Y-25829200D03*
X138501000Y-31229200D03*
X137231000Y-31229200D03*
X135961000Y-31229200D03*
X134691000Y-31229200D03*
X133421000Y-31229200D03*
X132151000Y-31229200D03*
X130881000Y-31229200D03*
X129611000Y-31229200D03*
D15*
X133408000Y-54864000D03*
X134308000Y-54864000D03*
D13*
X137206000Y-23689200D03*
X137206000Y-22789200D03*
D16*
X133436000Y-23869200D03*
X133436000Y-22769200D03*
X133436000Y-77201580D03*
X133436000Y-76101580D03*
D13*
X137206000Y-77021580D03*
X137206000Y-76121580D03*
D15*
X133408000Y-109220000D03*
X134308000Y-109220000D03*
D14*
X129611000Y-79161580D03*
X130881000Y-79161580D03*
X132151000Y-79161580D03*
X133421000Y-79161580D03*
X134691000Y-79161580D03*
X135961000Y-79161580D03*
X137231000Y-79161580D03*
X138501000Y-79161580D03*
X138501000Y-84561580D03*
X137231000Y-84561580D03*
X135961000Y-84561580D03*
X134691000Y-84561580D03*
X133421000Y-84561580D03*
X132151000Y-84561580D03*
X130881000Y-84561580D03*
X129611000Y-84561580D03*
D13*
X138536000Y-86491580D03*
X138536000Y-87391580D03*
X130906000Y-86491580D03*
X130906000Y-87391580D03*
X124333000Y-80833380D03*
X124333000Y-79933380D03*
D12*
X125846840Y-80799980D03*
X125846840Y-78899980D03*
X127845820Y-79849980D03*
D11*
X142580360Y-81691480D03*
X125044200Y-76116180D03*
X142608300Y-75963780D03*
X142552420Y-86441280D03*
X125044200Y-83990180D03*
X130073400Y-76039980D03*
X155473400Y-76039980D03*
X150444200Y-83990180D03*
X167952420Y-86441280D03*
X168008300Y-75963780D03*
X150444200Y-76116180D03*
X167980360Y-81691480D03*
D12*
X151246840Y-80799980D03*
X151246840Y-78899980D03*
X153245820Y-79849980D03*
D13*
X149733000Y-80833380D03*
X149733000Y-79933380D03*
X156306000Y-86491580D03*
X156306000Y-87391580D03*
X163936000Y-86491580D03*
X163936000Y-87391580D03*
D14*
X155011000Y-79161580D03*
X156281000Y-79161580D03*
X157551000Y-79161580D03*
X158821000Y-79161580D03*
X160091000Y-79161580D03*
X161361000Y-79161580D03*
X162631000Y-79161580D03*
X163901000Y-79161580D03*
X163901000Y-84561580D03*
X162631000Y-84561580D03*
X161361000Y-84561580D03*
X160091000Y-84561580D03*
X158821000Y-84561580D03*
X157551000Y-84561580D03*
X156281000Y-84561580D03*
X155011000Y-84561580D03*
D15*
X158808000Y-109220000D03*
X159708000Y-109220000D03*
D13*
X162606000Y-77021580D03*
X162606000Y-76121580D03*
D16*
X158836000Y-77201580D03*
X158836000Y-76101580D03*
X158836000Y-23869200D03*
X158836000Y-22769200D03*
D13*
X162606000Y-23689200D03*
X162606000Y-22789200D03*
D15*
X158808000Y-54864000D03*
X159708000Y-54864000D03*
D14*
X155011000Y-25829200D03*
X156281000Y-25829200D03*
X157551000Y-25829200D03*
X158821000Y-25829200D03*
X160091000Y-25829200D03*
X161361000Y-25829200D03*
X162631000Y-25829200D03*
X163901000Y-25829200D03*
X163901000Y-31229200D03*
X162631000Y-31229200D03*
X161361000Y-31229200D03*
X160091000Y-31229200D03*
X158821000Y-31229200D03*
X157551000Y-31229200D03*
X156281000Y-31229200D03*
X155011000Y-31229200D03*
D13*
X163936000Y-33159200D03*
X163936000Y-34059200D03*
X156306000Y-33159200D03*
X156306000Y-34059200D03*
X149733000Y-27501000D03*
X149733000Y-26601000D03*
D12*
X151246840Y-27467600D03*
X151246840Y-25567600D03*
X153245820Y-26517600D03*
D11*
X167980360Y-28359100D03*
X150444200Y-22783800D03*
X168008300Y-22631400D03*
X167952420Y-33108900D03*
X150444200Y-30657800D03*
X155473400Y-22707600D03*
X206273400Y-22707600D03*
X201244200Y-30657800D03*
X218752420Y-33108900D03*
X218808300Y-22631400D03*
X201244200Y-22783800D03*
X218780360Y-28359100D03*
D12*
X202046840Y-27467600D03*
X202046840Y-25567600D03*
X204045820Y-26517600D03*
D13*
X200533000Y-27501000D03*
X200533000Y-26601000D03*
X207106000Y-33159200D03*
X207106000Y-34059200D03*
X214736000Y-33159200D03*
X214736000Y-34059200D03*
D14*
X205811000Y-25829200D03*
X207081000Y-25829200D03*
X208351000Y-25829200D03*
X209621000Y-25829200D03*
X210891000Y-25829200D03*
X212161000Y-25829200D03*
X213431000Y-25829200D03*
X214701000Y-25829200D03*
X214701000Y-31229200D03*
X213431000Y-31229200D03*
X212161000Y-31229200D03*
X210891000Y-31229200D03*
X209621000Y-31229200D03*
X208351000Y-31229200D03*
X207081000Y-31229200D03*
X205811000Y-31229200D03*
D15*
X209608000Y-54864000D03*
X210508000Y-54864000D03*
D13*
X213406000Y-23689200D03*
X213406000Y-22789200D03*
D16*
X209636000Y-23869200D03*
X209636000Y-22769200D03*
X209636000Y-77201580D03*
X209636000Y-76101580D03*
D13*
X213406000Y-77021580D03*
X213406000Y-76121580D03*
D15*
X209608000Y-109220000D03*
X210508000Y-109220000D03*
D14*
X205811000Y-79161580D03*
X207081000Y-79161580D03*
X208351000Y-79161580D03*
X209621000Y-79161580D03*
X210891000Y-79161580D03*
X212161000Y-79161580D03*
X213431000Y-79161580D03*
X214701000Y-79161580D03*
X214701000Y-84561580D03*
X213431000Y-84561580D03*
X212161000Y-84561580D03*
X210891000Y-84561580D03*
X209621000Y-84561580D03*
X208351000Y-84561580D03*
X207081000Y-84561580D03*
X205811000Y-84561580D03*
D13*
X214736000Y-86491580D03*
X214736000Y-87391580D03*
X207106000Y-86491580D03*
X207106000Y-87391580D03*
X200533000Y-80833380D03*
X200533000Y-79933380D03*
D12*
X202046840Y-80799980D03*
X202046840Y-78899980D03*
X204045820Y-79849980D03*
D11*
X218780360Y-81691480D03*
X201244200Y-76116180D03*
X218808300Y-75963780D03*
X218752420Y-86441280D03*
X201244200Y-83990180D03*
X206273400Y-76039980D03*
X180873400Y-76039980D03*
X175844200Y-83990180D03*
X193352420Y-86441280D03*
X193408300Y-75963780D03*
X175844200Y-76116180D03*
X193380360Y-81691480D03*
D12*
X176646840Y-80799980D03*
X176646840Y-78899980D03*
X178645820Y-79849980D03*
D13*
X175133000Y-80833380D03*
X175133000Y-79933380D03*
X181706000Y-86491580D03*
X181706000Y-87391580D03*
X189336000Y-86491580D03*
X189336000Y-87391580D03*
D14*
X180411000Y-79161580D03*
X181681000Y-79161580D03*
X182951000Y-79161580D03*
X184221000Y-79161580D03*
X185491000Y-79161580D03*
X186761000Y-79161580D03*
X188031000Y-79161580D03*
X189301000Y-79161580D03*
X189301000Y-84561580D03*
X188031000Y-84561580D03*
X186761000Y-84561580D03*
X185491000Y-84561580D03*
X184221000Y-84561580D03*
X182951000Y-84561580D03*
X181681000Y-84561580D03*
X180411000Y-84561580D03*
D15*
X184208000Y-109220000D03*
X185108000Y-109220000D03*
D13*
X188006000Y-77021580D03*
X188006000Y-76121580D03*
D16*
X184236000Y-77201580D03*
X184236000Y-76101580D03*
X184236000Y-23869200D03*
X184236000Y-22769200D03*
D13*
X188006000Y-23689200D03*
X188006000Y-22789200D03*
D15*
X184208000Y-54864000D03*
X185108000Y-54864000D03*
D14*
X180411000Y-25829200D03*
X181681000Y-25829200D03*
X182951000Y-25829200D03*
X184221000Y-25829200D03*
X185491000Y-25829200D03*
X186761000Y-25829200D03*
X188031000Y-25829200D03*
X189301000Y-25829200D03*
X189301000Y-31229200D03*
X188031000Y-31229200D03*
X186761000Y-31229200D03*
X185491000Y-31229200D03*
X184221000Y-31229200D03*
X182951000Y-31229200D03*
X181681000Y-31229200D03*
X180411000Y-31229200D03*
D13*
X189336000Y-33159200D03*
X189336000Y-34059200D03*
X181706000Y-33159200D03*
X181706000Y-34059200D03*
X175133000Y-27501000D03*
X175133000Y-26601000D03*
D12*
X176646840Y-27467600D03*
X176646840Y-25567600D03*
X178645820Y-26517600D03*
D11*
X193380360Y-28359100D03*
X175844200Y-22783800D03*
X193408300Y-22631400D03*
X193352420Y-33108900D03*
X175844200Y-30657800D03*
X180873400Y-22707600D03*
X79273400Y-22707600D03*
X74244200Y-30657800D03*
X91752420Y-33108900D03*
X91808300Y-22631400D03*
X74244200Y-22783800D03*
X91780360Y-28359100D03*
D12*
X75046840Y-27467600D03*
X75046840Y-25567600D03*
X77045820Y-26517600D03*
D13*
X73533000Y-27501000D03*
X73533000Y-26601000D03*
X80106000Y-33159200D03*
X80106000Y-34059200D03*
X87736000Y-33159200D03*
X87736000Y-34059200D03*
D14*
X78811000Y-25829200D03*
X80081000Y-25829200D03*
X81351000Y-25829200D03*
X82621000Y-25829200D03*
X83891000Y-25829200D03*
X85161000Y-25829200D03*
X86431000Y-25829200D03*
X87701000Y-25829200D03*
X87701000Y-31229200D03*
X86431000Y-31229200D03*
X85161000Y-31229200D03*
X83891000Y-31229200D03*
X82621000Y-31229200D03*
X81351000Y-31229200D03*
X80081000Y-31229200D03*
X78811000Y-31229200D03*
D15*
X82608000Y-54864000D03*
X83508000Y-54864000D03*
D13*
X86406000Y-23689200D03*
X86406000Y-22789200D03*
D16*
X82636000Y-23869200D03*
X82636000Y-22769200D03*
X82636000Y-77201580D03*
X82636000Y-76101580D03*
D13*
X86406000Y-77021580D03*
X86406000Y-76121580D03*
D15*
X82608000Y-109220000D03*
X83508000Y-109220000D03*
D14*
X78811000Y-79161580D03*
X80081000Y-79161580D03*
X81351000Y-79161580D03*
X82621000Y-79161580D03*
X83891000Y-79161580D03*
X85161000Y-79161580D03*
X86431000Y-79161580D03*
X87701000Y-79161580D03*
X87701000Y-84561580D03*
X86431000Y-84561580D03*
X85161000Y-84561580D03*
X83891000Y-84561580D03*
X82621000Y-84561580D03*
X81351000Y-84561580D03*
X80081000Y-84561580D03*
X78811000Y-84561580D03*
D13*
X87736000Y-86491580D03*
X87736000Y-87391580D03*
X80106000Y-86491580D03*
X80106000Y-87391580D03*
X73533000Y-80833380D03*
X73533000Y-79933380D03*
D12*
X75046840Y-80799980D03*
X75046840Y-78899980D03*
X77045820Y-79849980D03*
D11*
X91780360Y-81691480D03*
X74244200Y-76116180D03*
X91808300Y-75963780D03*
X91752420Y-86441280D03*
X74244200Y-83990180D03*
X79273400Y-76039980D03*
X104673400Y-76039980D03*
X99644200Y-83990180D03*
X117152420Y-86441280D03*
X117208300Y-75963780D03*
X99644200Y-76116180D03*
X117180360Y-81691480D03*
D12*
X100446840Y-80799980D03*
X100446840Y-78899980D03*
X102445820Y-79849980D03*
D13*
X98933000Y-80833380D03*
X98933000Y-79933380D03*
X105506000Y-86491580D03*
X105506000Y-87391580D03*
X113136000Y-86491580D03*
X113136000Y-87391580D03*
D14*
X104211000Y-79161580D03*
X105481000Y-79161580D03*
X106751000Y-79161580D03*
X108021000Y-79161580D03*
X109291000Y-79161580D03*
X110561000Y-79161580D03*
X111831000Y-79161580D03*
X113101000Y-79161580D03*
X113101000Y-84561580D03*
X111831000Y-84561580D03*
X110561000Y-84561580D03*
X109291000Y-84561580D03*
X108021000Y-84561580D03*
X106751000Y-84561580D03*
X105481000Y-84561580D03*
X104211000Y-84561580D03*
D15*
X108008000Y-109220000D03*
X108908000Y-109220000D03*
D13*
X111806000Y-77021580D03*
X111806000Y-76121580D03*
D16*
X108036000Y-77201580D03*
X108036000Y-76101580D03*
X108036000Y-23869200D03*
X108036000Y-22769200D03*
D13*
X111806000Y-23689200D03*
X111806000Y-22789200D03*
D15*
X108008000Y-54864000D03*
X108908000Y-54864000D03*
D14*
X104211000Y-25829200D03*
X105481000Y-25829200D03*
X106751000Y-25829200D03*
X108021000Y-25829200D03*
X109291000Y-25829200D03*
X110561000Y-25829200D03*
X111831000Y-25829200D03*
X113101000Y-25829200D03*
X113101000Y-31229200D03*
X111831000Y-31229200D03*
X110561000Y-31229200D03*
X109291000Y-31229200D03*
X108021000Y-31229200D03*
X106751000Y-31229200D03*
X105481000Y-31229200D03*
X104211000Y-31229200D03*
D13*
X113136000Y-33159200D03*
X113136000Y-34059200D03*
X105506000Y-33159200D03*
X105506000Y-34059200D03*
X98933000Y-27501000D03*
X98933000Y-26601000D03*
D12*
X100446840Y-27467600D03*
X100446840Y-25567600D03*
X102445820Y-26517600D03*
D11*
X117180360Y-28359100D03*
X99644200Y-22783800D03*
X117208300Y-22631400D03*
X117152420Y-33108900D03*
X99644200Y-30657800D03*
X104673400Y-22707600D03*
X53873400Y-22707600D03*
X48844200Y-30657800D03*
X66352420Y-33108900D03*
X66408300Y-22631400D03*
X48844200Y-22783800D03*
X66380360Y-28359100D03*
D12*
X49646840Y-27467600D03*
X49646840Y-25567600D03*
X51645820Y-26517600D03*
D13*
X48133000Y-27501000D03*
X48133000Y-26601000D03*
X54706000Y-33159200D03*
X54706000Y-34059200D03*
X62336000Y-33159200D03*
X62336000Y-34059200D03*
D14*
X53411000Y-25829200D03*
X54681000Y-25829200D03*
X55951000Y-25829200D03*
X57221000Y-25829200D03*
X58491000Y-25829200D03*
X59761000Y-25829200D03*
X61031000Y-25829200D03*
X62301000Y-25829200D03*
X62301000Y-31229200D03*
X61031000Y-31229200D03*
X59761000Y-31229200D03*
X58491000Y-31229200D03*
X57221000Y-31229200D03*
X55951000Y-31229200D03*
X54681000Y-31229200D03*
X53411000Y-31229200D03*
D15*
X57208000Y-54864000D03*
X58108000Y-54864000D03*
D13*
X61006000Y-23689200D03*
X61006000Y-22789200D03*
D16*
X57236000Y-23869200D03*
X57236000Y-22769200D03*
X57236000Y-77201580D03*
X57236000Y-76101580D03*
D13*
X61006000Y-77021580D03*
X61006000Y-76121580D03*
D15*
X57208000Y-109220000D03*
X58108000Y-109220000D03*
D14*
X53411000Y-79161580D03*
X54681000Y-79161580D03*
X55951000Y-79161580D03*
X57221000Y-79161580D03*
X58491000Y-79161580D03*
X59761000Y-79161580D03*
X61031000Y-79161580D03*
X62301000Y-79161580D03*
X62301000Y-84561580D03*
X61031000Y-84561580D03*
X59761000Y-84561580D03*
X58491000Y-84561580D03*
X57221000Y-84561580D03*
X55951000Y-84561580D03*
X54681000Y-84561580D03*
X53411000Y-84561580D03*
D13*
X62336000Y-86491580D03*
X62336000Y-87391580D03*
X54706000Y-86491580D03*
X54706000Y-87391580D03*
X48133000Y-80833380D03*
X48133000Y-79933380D03*
D12*
X49646840Y-80799980D03*
X49646840Y-78899980D03*
X51645820Y-79849980D03*
D11*
X66380360Y-81691480D03*
X48844200Y-76116180D03*
X66408300Y-75963780D03*
X66352420Y-86441280D03*
X48844200Y-83990180D03*
X53873400Y-76039980D03*
X28473400Y-76039980D03*
X23444200Y-83990180D03*
X40952420Y-86441280D03*
X41008300Y-75963780D03*
X23444200Y-76116180D03*
X40980360Y-81691480D03*
D12*
X24246840Y-80799980D03*
X24246840Y-78899980D03*
X26245820Y-79849980D03*
D13*
X22733000Y-80833380D03*
X22733000Y-79933380D03*
X29306000Y-86491580D03*
X29306000Y-87391580D03*
X36936000Y-86491580D03*
X36936000Y-87391580D03*
D14*
X28011000Y-79161580D03*
X29281000Y-79161580D03*
X30551000Y-79161580D03*
X31821000Y-79161580D03*
X33091000Y-79161580D03*
X34361000Y-79161580D03*
X35631000Y-79161580D03*
X36901000Y-79161580D03*
X36901000Y-84561580D03*
X35631000Y-84561580D03*
X34361000Y-84561580D03*
X33091000Y-84561580D03*
X31821000Y-84561580D03*
X30551000Y-84561580D03*
X29281000Y-84561580D03*
X28011000Y-84561580D03*
D15*
X31808000Y-109220000D03*
X32708000Y-109220000D03*
D13*
X35606000Y-77021580D03*
X35606000Y-76121580D03*
D16*
X31836000Y-77201580D03*
X31836000Y-76101580D03*
X31836000Y-23869200D03*
X31836000Y-22769200D03*
D13*
X35606000Y-23689200D03*
X35606000Y-22789200D03*
D15*
X31808000Y-54864000D03*
X32708000Y-54864000D03*
D14*
X28011000Y-25829200D03*
X29281000Y-25829200D03*
X30551000Y-25829200D03*
X31821000Y-25829200D03*
X33091000Y-25829200D03*
X34361000Y-25829200D03*
X35631000Y-25829200D03*
X36901000Y-25829200D03*
X36901000Y-31229200D03*
X35631000Y-31229200D03*
X34361000Y-31229200D03*
X33091000Y-31229200D03*
X31821000Y-31229200D03*
X30551000Y-31229200D03*
X29281000Y-31229200D03*
X28011000Y-31229200D03*
D13*
X36936000Y-33159200D03*
X36936000Y-34059200D03*
X29306000Y-33159200D03*
X29306000Y-34059200D03*
X22733000Y-27501000D03*
X22733000Y-26601000D03*
D12*
X24246840Y-27467600D03*
X24246840Y-25567600D03*
X26245820Y-26517600D03*
D11*
X40980360Y-28359100D03*
X23444200Y-22783800D03*
X41008300Y-22631400D03*
X40952420Y-33108900D03*
X23444200Y-30657800D03*
X28473400Y-22707600D03*
M02*
