G04 #@! TF.FileFunction,Legend,Top*
%FSLAX46Y46*%
G04 Gerber Fmt 4.6, Leading zero omitted, Abs format (unit mm)*
G04 Created by KiCad (PCBNEW 4.0.3-stable) date 08/25/16 15:17:33*
%MOMM*%
%LPD*%
G01*
G04 APERTURE LIST*
%ADD10C,0.100000*%
%ADD11C,0.152400*%
%ADD12C,0.200000*%
%ADD13C,0.304800*%
G04 APERTURE END LIST*
D10*
D11*
X243564229Y-165709601D02*
X244173829Y-165709601D01*
X243883543Y-165709601D02*
X243883543Y-166057944D01*
X243564229Y-166057944D02*
X244173829Y-166057944D01*
X243564229Y-166609487D02*
X243883543Y-166609487D01*
X243941600Y-166580458D01*
X243970629Y-166522401D01*
X243970629Y-166406287D01*
X243941600Y-166348230D01*
X243593257Y-166609487D02*
X243564229Y-166551430D01*
X243564229Y-166406287D01*
X243593257Y-166348230D01*
X243651314Y-166319201D01*
X243709371Y-166319201D01*
X243767429Y-166348230D01*
X243796457Y-166406287D01*
X243796457Y-166551430D01*
X243825486Y-166609487D01*
X243970629Y-166841716D02*
X243564229Y-166986859D01*
X243970629Y-167132001D02*
X243564229Y-166986859D01*
X243419086Y-166928801D01*
X243390057Y-166899773D01*
X243361029Y-166841716D01*
X243883543Y-168031887D02*
X243854514Y-168118973D01*
X243825486Y-168148001D01*
X243767429Y-168177030D01*
X243680343Y-168177030D01*
X243622286Y-168148001D01*
X243593257Y-168118973D01*
X243564229Y-168060915D01*
X243564229Y-167828687D01*
X244173829Y-167828687D01*
X244173829Y-168031887D01*
X244144800Y-168089944D01*
X244115771Y-168118973D01*
X244057714Y-168148001D01*
X243999657Y-168148001D01*
X243941600Y-168118973D01*
X243912571Y-168089944D01*
X243883543Y-168031887D01*
X243883543Y-167828687D01*
X243564229Y-168699544D02*
X243883543Y-168699544D01*
X243941600Y-168670515D01*
X243970629Y-168612458D01*
X243970629Y-168496344D01*
X243941600Y-168438287D01*
X243593257Y-168699544D02*
X243564229Y-168641487D01*
X243564229Y-168496344D01*
X243593257Y-168438287D01*
X243651314Y-168409258D01*
X243709371Y-168409258D01*
X243767429Y-168438287D01*
X243796457Y-168496344D01*
X243796457Y-168641487D01*
X243825486Y-168699544D01*
X243564229Y-169076916D02*
X243593257Y-169018858D01*
X243651314Y-168989830D01*
X244173829Y-168989830D01*
X243593257Y-169541372D02*
X243564229Y-169483315D01*
X243564229Y-169367201D01*
X243593257Y-169309144D01*
X243651314Y-169280115D01*
X243883543Y-169280115D01*
X243941600Y-169309144D01*
X243970629Y-169367201D01*
X243970629Y-169483315D01*
X243941600Y-169541372D01*
X243883543Y-169570401D01*
X243825486Y-169570401D01*
X243767429Y-169280115D01*
X243593257Y-170267086D02*
X243564229Y-170354172D01*
X243564229Y-170499315D01*
X243593257Y-170557372D01*
X243622286Y-170586401D01*
X243680343Y-170615429D01*
X243738400Y-170615429D01*
X243796457Y-170586401D01*
X243825486Y-170557372D01*
X243854514Y-170499315D01*
X243883543Y-170383201D01*
X243912571Y-170325143D01*
X243941600Y-170296115D01*
X243999657Y-170267086D01*
X244057714Y-170267086D01*
X244115771Y-170296115D01*
X244144800Y-170325143D01*
X244173829Y-170383201D01*
X244173829Y-170528343D01*
X244144800Y-170615429D01*
X243593257Y-171108914D02*
X243564229Y-171050857D01*
X243564229Y-170934743D01*
X243593257Y-170876686D01*
X243651314Y-170847657D01*
X243883543Y-170847657D01*
X243941600Y-170876686D01*
X243970629Y-170934743D01*
X243970629Y-171050857D01*
X243941600Y-171108914D01*
X243883543Y-171137943D01*
X243825486Y-171137943D01*
X243767429Y-170847657D01*
X243970629Y-171399200D02*
X243564229Y-171399200D01*
X243912571Y-171399200D02*
X243941600Y-171428228D01*
X243970629Y-171486286D01*
X243970629Y-171573371D01*
X243941600Y-171631428D01*
X243883543Y-171660457D01*
X243564229Y-171660457D01*
X243593257Y-171921714D02*
X243564229Y-171979771D01*
X243564229Y-172095886D01*
X243593257Y-172153943D01*
X243651314Y-172182971D01*
X243680343Y-172182971D01*
X243738400Y-172153943D01*
X243767429Y-172095886D01*
X243767429Y-172008800D01*
X243796457Y-171950743D01*
X243854514Y-171921714D01*
X243883543Y-171921714D01*
X243941600Y-171950743D01*
X243970629Y-172008800D01*
X243970629Y-172095886D01*
X243941600Y-172153943D01*
X243564229Y-172531315D02*
X243593257Y-172473257D01*
X243622286Y-172444229D01*
X243680343Y-172415200D01*
X243854514Y-172415200D01*
X243912571Y-172444229D01*
X243941600Y-172473257D01*
X243970629Y-172531315D01*
X243970629Y-172618400D01*
X243941600Y-172676457D01*
X243912571Y-172705486D01*
X243854514Y-172734515D01*
X243680343Y-172734515D01*
X243622286Y-172705486D01*
X243593257Y-172676457D01*
X243564229Y-172618400D01*
X243564229Y-172531315D01*
X243564229Y-172995772D02*
X243970629Y-172995772D01*
X243854514Y-172995772D02*
X243912571Y-173024800D01*
X243941600Y-173053829D01*
X243970629Y-173111886D01*
X243970629Y-173169943D01*
X244173829Y-173750514D02*
X243564229Y-173953714D01*
X244173829Y-174156914D01*
X244115771Y-174331085D02*
X244144800Y-174360114D01*
X244173829Y-174418171D01*
X244173829Y-174563314D01*
X244144800Y-174621371D01*
X244115771Y-174650400D01*
X244057714Y-174679428D01*
X243999657Y-174679428D01*
X243912571Y-174650400D01*
X243564229Y-174302057D01*
X243564229Y-174679428D01*
X218164229Y-165709601D02*
X218773829Y-165709601D01*
X218483543Y-165709601D02*
X218483543Y-166057944D01*
X218164229Y-166057944D02*
X218773829Y-166057944D01*
X218164229Y-166609487D02*
X218483543Y-166609487D01*
X218541600Y-166580458D01*
X218570629Y-166522401D01*
X218570629Y-166406287D01*
X218541600Y-166348230D01*
X218193257Y-166609487D02*
X218164229Y-166551430D01*
X218164229Y-166406287D01*
X218193257Y-166348230D01*
X218251314Y-166319201D01*
X218309371Y-166319201D01*
X218367429Y-166348230D01*
X218396457Y-166406287D01*
X218396457Y-166551430D01*
X218425486Y-166609487D01*
X218570629Y-166841716D02*
X218164229Y-166986859D01*
X218570629Y-167132001D02*
X218164229Y-166986859D01*
X218019086Y-166928801D01*
X217990057Y-166899773D01*
X217961029Y-166841716D01*
X218483543Y-168031887D02*
X218454514Y-168118973D01*
X218425486Y-168148001D01*
X218367429Y-168177030D01*
X218280343Y-168177030D01*
X218222286Y-168148001D01*
X218193257Y-168118973D01*
X218164229Y-168060915D01*
X218164229Y-167828687D01*
X218773829Y-167828687D01*
X218773829Y-168031887D01*
X218744800Y-168089944D01*
X218715771Y-168118973D01*
X218657714Y-168148001D01*
X218599657Y-168148001D01*
X218541600Y-168118973D01*
X218512571Y-168089944D01*
X218483543Y-168031887D01*
X218483543Y-167828687D01*
X218164229Y-168699544D02*
X218483543Y-168699544D01*
X218541600Y-168670515D01*
X218570629Y-168612458D01*
X218570629Y-168496344D01*
X218541600Y-168438287D01*
X218193257Y-168699544D02*
X218164229Y-168641487D01*
X218164229Y-168496344D01*
X218193257Y-168438287D01*
X218251314Y-168409258D01*
X218309371Y-168409258D01*
X218367429Y-168438287D01*
X218396457Y-168496344D01*
X218396457Y-168641487D01*
X218425486Y-168699544D01*
X218164229Y-169076916D02*
X218193257Y-169018858D01*
X218251314Y-168989830D01*
X218773829Y-168989830D01*
X218193257Y-169541372D02*
X218164229Y-169483315D01*
X218164229Y-169367201D01*
X218193257Y-169309144D01*
X218251314Y-169280115D01*
X218483543Y-169280115D01*
X218541600Y-169309144D01*
X218570629Y-169367201D01*
X218570629Y-169483315D01*
X218541600Y-169541372D01*
X218483543Y-169570401D01*
X218425486Y-169570401D01*
X218367429Y-169280115D01*
X218193257Y-170267086D02*
X218164229Y-170354172D01*
X218164229Y-170499315D01*
X218193257Y-170557372D01*
X218222286Y-170586401D01*
X218280343Y-170615429D01*
X218338400Y-170615429D01*
X218396457Y-170586401D01*
X218425486Y-170557372D01*
X218454514Y-170499315D01*
X218483543Y-170383201D01*
X218512571Y-170325143D01*
X218541600Y-170296115D01*
X218599657Y-170267086D01*
X218657714Y-170267086D01*
X218715771Y-170296115D01*
X218744800Y-170325143D01*
X218773829Y-170383201D01*
X218773829Y-170528343D01*
X218744800Y-170615429D01*
X218193257Y-171108914D02*
X218164229Y-171050857D01*
X218164229Y-170934743D01*
X218193257Y-170876686D01*
X218251314Y-170847657D01*
X218483543Y-170847657D01*
X218541600Y-170876686D01*
X218570629Y-170934743D01*
X218570629Y-171050857D01*
X218541600Y-171108914D01*
X218483543Y-171137943D01*
X218425486Y-171137943D01*
X218367429Y-170847657D01*
X218570629Y-171399200D02*
X218164229Y-171399200D01*
X218512571Y-171399200D02*
X218541600Y-171428228D01*
X218570629Y-171486286D01*
X218570629Y-171573371D01*
X218541600Y-171631428D01*
X218483543Y-171660457D01*
X218164229Y-171660457D01*
X218193257Y-171921714D02*
X218164229Y-171979771D01*
X218164229Y-172095886D01*
X218193257Y-172153943D01*
X218251314Y-172182971D01*
X218280343Y-172182971D01*
X218338400Y-172153943D01*
X218367429Y-172095886D01*
X218367429Y-172008800D01*
X218396457Y-171950743D01*
X218454514Y-171921714D01*
X218483543Y-171921714D01*
X218541600Y-171950743D01*
X218570629Y-172008800D01*
X218570629Y-172095886D01*
X218541600Y-172153943D01*
X218164229Y-172531315D02*
X218193257Y-172473257D01*
X218222286Y-172444229D01*
X218280343Y-172415200D01*
X218454514Y-172415200D01*
X218512571Y-172444229D01*
X218541600Y-172473257D01*
X218570629Y-172531315D01*
X218570629Y-172618400D01*
X218541600Y-172676457D01*
X218512571Y-172705486D01*
X218454514Y-172734515D01*
X218280343Y-172734515D01*
X218222286Y-172705486D01*
X218193257Y-172676457D01*
X218164229Y-172618400D01*
X218164229Y-172531315D01*
X218164229Y-172995772D02*
X218570629Y-172995772D01*
X218454514Y-172995772D02*
X218512571Y-173024800D01*
X218541600Y-173053829D01*
X218570629Y-173111886D01*
X218570629Y-173169943D01*
X218773829Y-173750514D02*
X218164229Y-173953714D01*
X218773829Y-174156914D01*
X218715771Y-174331085D02*
X218744800Y-174360114D01*
X218773829Y-174418171D01*
X218773829Y-174563314D01*
X218744800Y-174621371D01*
X218715771Y-174650400D01*
X218657714Y-174679428D01*
X218599657Y-174679428D01*
X218512571Y-174650400D01*
X218164229Y-174302057D01*
X218164229Y-174679428D01*
X116564229Y-165709601D02*
X117173829Y-165709601D01*
X116883543Y-165709601D02*
X116883543Y-166057944D01*
X116564229Y-166057944D02*
X117173829Y-166057944D01*
X116564229Y-166609487D02*
X116883543Y-166609487D01*
X116941600Y-166580458D01*
X116970629Y-166522401D01*
X116970629Y-166406287D01*
X116941600Y-166348230D01*
X116593257Y-166609487D02*
X116564229Y-166551430D01*
X116564229Y-166406287D01*
X116593257Y-166348230D01*
X116651314Y-166319201D01*
X116709371Y-166319201D01*
X116767429Y-166348230D01*
X116796457Y-166406287D01*
X116796457Y-166551430D01*
X116825486Y-166609487D01*
X116970629Y-166841716D02*
X116564229Y-166986859D01*
X116970629Y-167132001D02*
X116564229Y-166986859D01*
X116419086Y-166928801D01*
X116390057Y-166899773D01*
X116361029Y-166841716D01*
X116883543Y-168031887D02*
X116854514Y-168118973D01*
X116825486Y-168148001D01*
X116767429Y-168177030D01*
X116680343Y-168177030D01*
X116622286Y-168148001D01*
X116593257Y-168118973D01*
X116564229Y-168060915D01*
X116564229Y-167828687D01*
X117173829Y-167828687D01*
X117173829Y-168031887D01*
X117144800Y-168089944D01*
X117115771Y-168118973D01*
X117057714Y-168148001D01*
X116999657Y-168148001D01*
X116941600Y-168118973D01*
X116912571Y-168089944D01*
X116883543Y-168031887D01*
X116883543Y-167828687D01*
X116564229Y-168699544D02*
X116883543Y-168699544D01*
X116941600Y-168670515D01*
X116970629Y-168612458D01*
X116970629Y-168496344D01*
X116941600Y-168438287D01*
X116593257Y-168699544D02*
X116564229Y-168641487D01*
X116564229Y-168496344D01*
X116593257Y-168438287D01*
X116651314Y-168409258D01*
X116709371Y-168409258D01*
X116767429Y-168438287D01*
X116796457Y-168496344D01*
X116796457Y-168641487D01*
X116825486Y-168699544D01*
X116564229Y-169076916D02*
X116593257Y-169018858D01*
X116651314Y-168989830D01*
X117173829Y-168989830D01*
X116593257Y-169541372D02*
X116564229Y-169483315D01*
X116564229Y-169367201D01*
X116593257Y-169309144D01*
X116651314Y-169280115D01*
X116883543Y-169280115D01*
X116941600Y-169309144D01*
X116970629Y-169367201D01*
X116970629Y-169483315D01*
X116941600Y-169541372D01*
X116883543Y-169570401D01*
X116825486Y-169570401D01*
X116767429Y-169280115D01*
X116593257Y-170267086D02*
X116564229Y-170354172D01*
X116564229Y-170499315D01*
X116593257Y-170557372D01*
X116622286Y-170586401D01*
X116680343Y-170615429D01*
X116738400Y-170615429D01*
X116796457Y-170586401D01*
X116825486Y-170557372D01*
X116854514Y-170499315D01*
X116883543Y-170383201D01*
X116912571Y-170325143D01*
X116941600Y-170296115D01*
X116999657Y-170267086D01*
X117057714Y-170267086D01*
X117115771Y-170296115D01*
X117144800Y-170325143D01*
X117173829Y-170383201D01*
X117173829Y-170528343D01*
X117144800Y-170615429D01*
X116593257Y-171108914D02*
X116564229Y-171050857D01*
X116564229Y-170934743D01*
X116593257Y-170876686D01*
X116651314Y-170847657D01*
X116883543Y-170847657D01*
X116941600Y-170876686D01*
X116970629Y-170934743D01*
X116970629Y-171050857D01*
X116941600Y-171108914D01*
X116883543Y-171137943D01*
X116825486Y-171137943D01*
X116767429Y-170847657D01*
X116970629Y-171399200D02*
X116564229Y-171399200D01*
X116912571Y-171399200D02*
X116941600Y-171428228D01*
X116970629Y-171486286D01*
X116970629Y-171573371D01*
X116941600Y-171631428D01*
X116883543Y-171660457D01*
X116564229Y-171660457D01*
X116593257Y-171921714D02*
X116564229Y-171979771D01*
X116564229Y-172095886D01*
X116593257Y-172153943D01*
X116651314Y-172182971D01*
X116680343Y-172182971D01*
X116738400Y-172153943D01*
X116767429Y-172095886D01*
X116767429Y-172008800D01*
X116796457Y-171950743D01*
X116854514Y-171921714D01*
X116883543Y-171921714D01*
X116941600Y-171950743D01*
X116970629Y-172008800D01*
X116970629Y-172095886D01*
X116941600Y-172153943D01*
X116564229Y-172531315D02*
X116593257Y-172473257D01*
X116622286Y-172444229D01*
X116680343Y-172415200D01*
X116854514Y-172415200D01*
X116912571Y-172444229D01*
X116941600Y-172473257D01*
X116970629Y-172531315D01*
X116970629Y-172618400D01*
X116941600Y-172676457D01*
X116912571Y-172705486D01*
X116854514Y-172734515D01*
X116680343Y-172734515D01*
X116622286Y-172705486D01*
X116593257Y-172676457D01*
X116564229Y-172618400D01*
X116564229Y-172531315D01*
X116564229Y-172995772D02*
X116970629Y-172995772D01*
X116854514Y-172995772D02*
X116912571Y-173024800D01*
X116941600Y-173053829D01*
X116970629Y-173111886D01*
X116970629Y-173169943D01*
X117173829Y-173750514D02*
X116564229Y-173953714D01*
X117173829Y-174156914D01*
X117115771Y-174331085D02*
X117144800Y-174360114D01*
X117173829Y-174418171D01*
X117173829Y-174563314D01*
X117144800Y-174621371D01*
X117115771Y-174650400D01*
X117057714Y-174679428D01*
X116999657Y-174679428D01*
X116912571Y-174650400D01*
X116564229Y-174302057D01*
X116564229Y-174679428D01*
X243564229Y-112369601D02*
X244173829Y-112369601D01*
X243883543Y-112369601D02*
X243883543Y-112717944D01*
X243564229Y-112717944D02*
X244173829Y-112717944D01*
X243564229Y-113269487D02*
X243883543Y-113269487D01*
X243941600Y-113240458D01*
X243970629Y-113182401D01*
X243970629Y-113066287D01*
X243941600Y-113008230D01*
X243593257Y-113269487D02*
X243564229Y-113211430D01*
X243564229Y-113066287D01*
X243593257Y-113008230D01*
X243651314Y-112979201D01*
X243709371Y-112979201D01*
X243767429Y-113008230D01*
X243796457Y-113066287D01*
X243796457Y-113211430D01*
X243825486Y-113269487D01*
X243970629Y-113501716D02*
X243564229Y-113646859D01*
X243970629Y-113792001D02*
X243564229Y-113646859D01*
X243419086Y-113588801D01*
X243390057Y-113559773D01*
X243361029Y-113501716D01*
X243883543Y-114691887D02*
X243854514Y-114778973D01*
X243825486Y-114808001D01*
X243767429Y-114837030D01*
X243680343Y-114837030D01*
X243622286Y-114808001D01*
X243593257Y-114778973D01*
X243564229Y-114720915D01*
X243564229Y-114488687D01*
X244173829Y-114488687D01*
X244173829Y-114691887D01*
X244144800Y-114749944D01*
X244115771Y-114778973D01*
X244057714Y-114808001D01*
X243999657Y-114808001D01*
X243941600Y-114778973D01*
X243912571Y-114749944D01*
X243883543Y-114691887D01*
X243883543Y-114488687D01*
X243564229Y-115359544D02*
X243883543Y-115359544D01*
X243941600Y-115330515D01*
X243970629Y-115272458D01*
X243970629Y-115156344D01*
X243941600Y-115098287D01*
X243593257Y-115359544D02*
X243564229Y-115301487D01*
X243564229Y-115156344D01*
X243593257Y-115098287D01*
X243651314Y-115069258D01*
X243709371Y-115069258D01*
X243767429Y-115098287D01*
X243796457Y-115156344D01*
X243796457Y-115301487D01*
X243825486Y-115359544D01*
X243564229Y-115736916D02*
X243593257Y-115678858D01*
X243651314Y-115649830D01*
X244173829Y-115649830D01*
X243593257Y-116201372D02*
X243564229Y-116143315D01*
X243564229Y-116027201D01*
X243593257Y-115969144D01*
X243651314Y-115940115D01*
X243883543Y-115940115D01*
X243941600Y-115969144D01*
X243970629Y-116027201D01*
X243970629Y-116143315D01*
X243941600Y-116201372D01*
X243883543Y-116230401D01*
X243825486Y-116230401D01*
X243767429Y-115940115D01*
X243593257Y-116927086D02*
X243564229Y-117014172D01*
X243564229Y-117159315D01*
X243593257Y-117217372D01*
X243622286Y-117246401D01*
X243680343Y-117275429D01*
X243738400Y-117275429D01*
X243796457Y-117246401D01*
X243825486Y-117217372D01*
X243854514Y-117159315D01*
X243883543Y-117043201D01*
X243912571Y-116985143D01*
X243941600Y-116956115D01*
X243999657Y-116927086D01*
X244057714Y-116927086D01*
X244115771Y-116956115D01*
X244144800Y-116985143D01*
X244173829Y-117043201D01*
X244173829Y-117188343D01*
X244144800Y-117275429D01*
X243593257Y-117768914D02*
X243564229Y-117710857D01*
X243564229Y-117594743D01*
X243593257Y-117536686D01*
X243651314Y-117507657D01*
X243883543Y-117507657D01*
X243941600Y-117536686D01*
X243970629Y-117594743D01*
X243970629Y-117710857D01*
X243941600Y-117768914D01*
X243883543Y-117797943D01*
X243825486Y-117797943D01*
X243767429Y-117507657D01*
X243970629Y-118059200D02*
X243564229Y-118059200D01*
X243912571Y-118059200D02*
X243941600Y-118088228D01*
X243970629Y-118146286D01*
X243970629Y-118233371D01*
X243941600Y-118291428D01*
X243883543Y-118320457D01*
X243564229Y-118320457D01*
X243593257Y-118581714D02*
X243564229Y-118639771D01*
X243564229Y-118755886D01*
X243593257Y-118813943D01*
X243651314Y-118842971D01*
X243680343Y-118842971D01*
X243738400Y-118813943D01*
X243767429Y-118755886D01*
X243767429Y-118668800D01*
X243796457Y-118610743D01*
X243854514Y-118581714D01*
X243883543Y-118581714D01*
X243941600Y-118610743D01*
X243970629Y-118668800D01*
X243970629Y-118755886D01*
X243941600Y-118813943D01*
X243564229Y-119191315D02*
X243593257Y-119133257D01*
X243622286Y-119104229D01*
X243680343Y-119075200D01*
X243854514Y-119075200D01*
X243912571Y-119104229D01*
X243941600Y-119133257D01*
X243970629Y-119191315D01*
X243970629Y-119278400D01*
X243941600Y-119336457D01*
X243912571Y-119365486D01*
X243854514Y-119394515D01*
X243680343Y-119394515D01*
X243622286Y-119365486D01*
X243593257Y-119336457D01*
X243564229Y-119278400D01*
X243564229Y-119191315D01*
X243564229Y-119655772D02*
X243970629Y-119655772D01*
X243854514Y-119655772D02*
X243912571Y-119684800D01*
X243941600Y-119713829D01*
X243970629Y-119771886D01*
X243970629Y-119829943D01*
X244173829Y-120410514D02*
X243564229Y-120613714D01*
X244173829Y-120816914D01*
X244115771Y-120991085D02*
X244144800Y-121020114D01*
X244173829Y-121078171D01*
X244173829Y-121223314D01*
X244144800Y-121281371D01*
X244115771Y-121310400D01*
X244057714Y-121339428D01*
X243999657Y-121339428D01*
X243912571Y-121310400D01*
X243564229Y-120962057D01*
X243564229Y-121339428D01*
X218164229Y-112369601D02*
X218773829Y-112369601D01*
X218483543Y-112369601D02*
X218483543Y-112717944D01*
X218164229Y-112717944D02*
X218773829Y-112717944D01*
X218164229Y-113269487D02*
X218483543Y-113269487D01*
X218541600Y-113240458D01*
X218570629Y-113182401D01*
X218570629Y-113066287D01*
X218541600Y-113008230D01*
X218193257Y-113269487D02*
X218164229Y-113211430D01*
X218164229Y-113066287D01*
X218193257Y-113008230D01*
X218251314Y-112979201D01*
X218309371Y-112979201D01*
X218367429Y-113008230D01*
X218396457Y-113066287D01*
X218396457Y-113211430D01*
X218425486Y-113269487D01*
X218570629Y-113501716D02*
X218164229Y-113646859D01*
X218570629Y-113792001D02*
X218164229Y-113646859D01*
X218019086Y-113588801D01*
X217990057Y-113559773D01*
X217961029Y-113501716D01*
X218483543Y-114691887D02*
X218454514Y-114778973D01*
X218425486Y-114808001D01*
X218367429Y-114837030D01*
X218280343Y-114837030D01*
X218222286Y-114808001D01*
X218193257Y-114778973D01*
X218164229Y-114720915D01*
X218164229Y-114488687D01*
X218773829Y-114488687D01*
X218773829Y-114691887D01*
X218744800Y-114749944D01*
X218715771Y-114778973D01*
X218657714Y-114808001D01*
X218599657Y-114808001D01*
X218541600Y-114778973D01*
X218512571Y-114749944D01*
X218483543Y-114691887D01*
X218483543Y-114488687D01*
X218164229Y-115359544D02*
X218483543Y-115359544D01*
X218541600Y-115330515D01*
X218570629Y-115272458D01*
X218570629Y-115156344D01*
X218541600Y-115098287D01*
X218193257Y-115359544D02*
X218164229Y-115301487D01*
X218164229Y-115156344D01*
X218193257Y-115098287D01*
X218251314Y-115069258D01*
X218309371Y-115069258D01*
X218367429Y-115098287D01*
X218396457Y-115156344D01*
X218396457Y-115301487D01*
X218425486Y-115359544D01*
X218164229Y-115736916D02*
X218193257Y-115678858D01*
X218251314Y-115649830D01*
X218773829Y-115649830D01*
X218193257Y-116201372D02*
X218164229Y-116143315D01*
X218164229Y-116027201D01*
X218193257Y-115969144D01*
X218251314Y-115940115D01*
X218483543Y-115940115D01*
X218541600Y-115969144D01*
X218570629Y-116027201D01*
X218570629Y-116143315D01*
X218541600Y-116201372D01*
X218483543Y-116230401D01*
X218425486Y-116230401D01*
X218367429Y-115940115D01*
X218193257Y-116927086D02*
X218164229Y-117014172D01*
X218164229Y-117159315D01*
X218193257Y-117217372D01*
X218222286Y-117246401D01*
X218280343Y-117275429D01*
X218338400Y-117275429D01*
X218396457Y-117246401D01*
X218425486Y-117217372D01*
X218454514Y-117159315D01*
X218483543Y-117043201D01*
X218512571Y-116985143D01*
X218541600Y-116956115D01*
X218599657Y-116927086D01*
X218657714Y-116927086D01*
X218715771Y-116956115D01*
X218744800Y-116985143D01*
X218773829Y-117043201D01*
X218773829Y-117188343D01*
X218744800Y-117275429D01*
X218193257Y-117768914D02*
X218164229Y-117710857D01*
X218164229Y-117594743D01*
X218193257Y-117536686D01*
X218251314Y-117507657D01*
X218483543Y-117507657D01*
X218541600Y-117536686D01*
X218570629Y-117594743D01*
X218570629Y-117710857D01*
X218541600Y-117768914D01*
X218483543Y-117797943D01*
X218425486Y-117797943D01*
X218367429Y-117507657D01*
X218570629Y-118059200D02*
X218164229Y-118059200D01*
X218512571Y-118059200D02*
X218541600Y-118088228D01*
X218570629Y-118146286D01*
X218570629Y-118233371D01*
X218541600Y-118291428D01*
X218483543Y-118320457D01*
X218164229Y-118320457D01*
X218193257Y-118581714D02*
X218164229Y-118639771D01*
X218164229Y-118755886D01*
X218193257Y-118813943D01*
X218251314Y-118842971D01*
X218280343Y-118842971D01*
X218338400Y-118813943D01*
X218367429Y-118755886D01*
X218367429Y-118668800D01*
X218396457Y-118610743D01*
X218454514Y-118581714D01*
X218483543Y-118581714D01*
X218541600Y-118610743D01*
X218570629Y-118668800D01*
X218570629Y-118755886D01*
X218541600Y-118813943D01*
X218164229Y-119191315D02*
X218193257Y-119133257D01*
X218222286Y-119104229D01*
X218280343Y-119075200D01*
X218454514Y-119075200D01*
X218512571Y-119104229D01*
X218541600Y-119133257D01*
X218570629Y-119191315D01*
X218570629Y-119278400D01*
X218541600Y-119336457D01*
X218512571Y-119365486D01*
X218454514Y-119394515D01*
X218280343Y-119394515D01*
X218222286Y-119365486D01*
X218193257Y-119336457D01*
X218164229Y-119278400D01*
X218164229Y-119191315D01*
X218164229Y-119655772D02*
X218570629Y-119655772D01*
X218454514Y-119655772D02*
X218512571Y-119684800D01*
X218541600Y-119713829D01*
X218570629Y-119771886D01*
X218570629Y-119829943D01*
X218773829Y-120410514D02*
X218164229Y-120613714D01*
X218773829Y-120816914D01*
X218715771Y-120991085D02*
X218744800Y-121020114D01*
X218773829Y-121078171D01*
X218773829Y-121223314D01*
X218744800Y-121281371D01*
X218715771Y-121310400D01*
X218657714Y-121339428D01*
X218599657Y-121339428D01*
X218512571Y-121310400D01*
X218164229Y-120962057D01*
X218164229Y-121339428D01*
X243564229Y-59029601D02*
X244173829Y-59029601D01*
X243883543Y-59029601D02*
X243883543Y-59377944D01*
X243564229Y-59377944D02*
X244173829Y-59377944D01*
X243564229Y-59929487D02*
X243883543Y-59929487D01*
X243941600Y-59900458D01*
X243970629Y-59842401D01*
X243970629Y-59726287D01*
X243941600Y-59668230D01*
X243593257Y-59929487D02*
X243564229Y-59871430D01*
X243564229Y-59726287D01*
X243593257Y-59668230D01*
X243651314Y-59639201D01*
X243709371Y-59639201D01*
X243767429Y-59668230D01*
X243796457Y-59726287D01*
X243796457Y-59871430D01*
X243825486Y-59929487D01*
X243970629Y-60161716D02*
X243564229Y-60306859D01*
X243970629Y-60452001D02*
X243564229Y-60306859D01*
X243419086Y-60248801D01*
X243390057Y-60219773D01*
X243361029Y-60161716D01*
X243883543Y-61351887D02*
X243854514Y-61438973D01*
X243825486Y-61468001D01*
X243767429Y-61497030D01*
X243680343Y-61497030D01*
X243622286Y-61468001D01*
X243593257Y-61438973D01*
X243564229Y-61380915D01*
X243564229Y-61148687D01*
X244173829Y-61148687D01*
X244173829Y-61351887D01*
X244144800Y-61409944D01*
X244115771Y-61438973D01*
X244057714Y-61468001D01*
X243999657Y-61468001D01*
X243941600Y-61438973D01*
X243912571Y-61409944D01*
X243883543Y-61351887D01*
X243883543Y-61148687D01*
X243564229Y-62019544D02*
X243883543Y-62019544D01*
X243941600Y-61990515D01*
X243970629Y-61932458D01*
X243970629Y-61816344D01*
X243941600Y-61758287D01*
X243593257Y-62019544D02*
X243564229Y-61961487D01*
X243564229Y-61816344D01*
X243593257Y-61758287D01*
X243651314Y-61729258D01*
X243709371Y-61729258D01*
X243767429Y-61758287D01*
X243796457Y-61816344D01*
X243796457Y-61961487D01*
X243825486Y-62019544D01*
X243564229Y-62396916D02*
X243593257Y-62338858D01*
X243651314Y-62309830D01*
X244173829Y-62309830D01*
X243593257Y-62861372D02*
X243564229Y-62803315D01*
X243564229Y-62687201D01*
X243593257Y-62629144D01*
X243651314Y-62600115D01*
X243883543Y-62600115D01*
X243941600Y-62629144D01*
X243970629Y-62687201D01*
X243970629Y-62803315D01*
X243941600Y-62861372D01*
X243883543Y-62890401D01*
X243825486Y-62890401D01*
X243767429Y-62600115D01*
X243593257Y-63587086D02*
X243564229Y-63674172D01*
X243564229Y-63819315D01*
X243593257Y-63877372D01*
X243622286Y-63906401D01*
X243680343Y-63935429D01*
X243738400Y-63935429D01*
X243796457Y-63906401D01*
X243825486Y-63877372D01*
X243854514Y-63819315D01*
X243883543Y-63703201D01*
X243912571Y-63645143D01*
X243941600Y-63616115D01*
X243999657Y-63587086D01*
X244057714Y-63587086D01*
X244115771Y-63616115D01*
X244144800Y-63645143D01*
X244173829Y-63703201D01*
X244173829Y-63848343D01*
X244144800Y-63935429D01*
X243593257Y-64428914D02*
X243564229Y-64370857D01*
X243564229Y-64254743D01*
X243593257Y-64196686D01*
X243651314Y-64167657D01*
X243883543Y-64167657D01*
X243941600Y-64196686D01*
X243970629Y-64254743D01*
X243970629Y-64370857D01*
X243941600Y-64428914D01*
X243883543Y-64457943D01*
X243825486Y-64457943D01*
X243767429Y-64167657D01*
X243970629Y-64719200D02*
X243564229Y-64719200D01*
X243912571Y-64719200D02*
X243941600Y-64748228D01*
X243970629Y-64806286D01*
X243970629Y-64893371D01*
X243941600Y-64951428D01*
X243883543Y-64980457D01*
X243564229Y-64980457D01*
X243593257Y-65241714D02*
X243564229Y-65299771D01*
X243564229Y-65415886D01*
X243593257Y-65473943D01*
X243651314Y-65502971D01*
X243680343Y-65502971D01*
X243738400Y-65473943D01*
X243767429Y-65415886D01*
X243767429Y-65328800D01*
X243796457Y-65270743D01*
X243854514Y-65241714D01*
X243883543Y-65241714D01*
X243941600Y-65270743D01*
X243970629Y-65328800D01*
X243970629Y-65415886D01*
X243941600Y-65473943D01*
X243564229Y-65851315D02*
X243593257Y-65793257D01*
X243622286Y-65764229D01*
X243680343Y-65735200D01*
X243854514Y-65735200D01*
X243912571Y-65764229D01*
X243941600Y-65793257D01*
X243970629Y-65851315D01*
X243970629Y-65938400D01*
X243941600Y-65996457D01*
X243912571Y-66025486D01*
X243854514Y-66054515D01*
X243680343Y-66054515D01*
X243622286Y-66025486D01*
X243593257Y-65996457D01*
X243564229Y-65938400D01*
X243564229Y-65851315D01*
X243564229Y-66315772D02*
X243970629Y-66315772D01*
X243854514Y-66315772D02*
X243912571Y-66344800D01*
X243941600Y-66373829D01*
X243970629Y-66431886D01*
X243970629Y-66489943D01*
X244173829Y-67070514D02*
X243564229Y-67273714D01*
X244173829Y-67476914D01*
X244115771Y-67651085D02*
X244144800Y-67680114D01*
X244173829Y-67738171D01*
X244173829Y-67883314D01*
X244144800Y-67941371D01*
X244115771Y-67970400D01*
X244057714Y-67999428D01*
X243999657Y-67999428D01*
X243912571Y-67970400D01*
X243564229Y-67622057D01*
X243564229Y-67999428D01*
X218164229Y-59029601D02*
X218773829Y-59029601D01*
X218483543Y-59029601D02*
X218483543Y-59377944D01*
X218164229Y-59377944D02*
X218773829Y-59377944D01*
X218164229Y-59929487D02*
X218483543Y-59929487D01*
X218541600Y-59900458D01*
X218570629Y-59842401D01*
X218570629Y-59726287D01*
X218541600Y-59668230D01*
X218193257Y-59929487D02*
X218164229Y-59871430D01*
X218164229Y-59726287D01*
X218193257Y-59668230D01*
X218251314Y-59639201D01*
X218309371Y-59639201D01*
X218367429Y-59668230D01*
X218396457Y-59726287D01*
X218396457Y-59871430D01*
X218425486Y-59929487D01*
X218570629Y-60161716D02*
X218164229Y-60306859D01*
X218570629Y-60452001D02*
X218164229Y-60306859D01*
X218019086Y-60248801D01*
X217990057Y-60219773D01*
X217961029Y-60161716D01*
X218483543Y-61351887D02*
X218454514Y-61438973D01*
X218425486Y-61468001D01*
X218367429Y-61497030D01*
X218280343Y-61497030D01*
X218222286Y-61468001D01*
X218193257Y-61438973D01*
X218164229Y-61380915D01*
X218164229Y-61148687D01*
X218773829Y-61148687D01*
X218773829Y-61351887D01*
X218744800Y-61409944D01*
X218715771Y-61438973D01*
X218657714Y-61468001D01*
X218599657Y-61468001D01*
X218541600Y-61438973D01*
X218512571Y-61409944D01*
X218483543Y-61351887D01*
X218483543Y-61148687D01*
X218164229Y-62019544D02*
X218483543Y-62019544D01*
X218541600Y-61990515D01*
X218570629Y-61932458D01*
X218570629Y-61816344D01*
X218541600Y-61758287D01*
X218193257Y-62019544D02*
X218164229Y-61961487D01*
X218164229Y-61816344D01*
X218193257Y-61758287D01*
X218251314Y-61729258D01*
X218309371Y-61729258D01*
X218367429Y-61758287D01*
X218396457Y-61816344D01*
X218396457Y-61961487D01*
X218425486Y-62019544D01*
X218164229Y-62396916D02*
X218193257Y-62338858D01*
X218251314Y-62309830D01*
X218773829Y-62309830D01*
X218193257Y-62861372D02*
X218164229Y-62803315D01*
X218164229Y-62687201D01*
X218193257Y-62629144D01*
X218251314Y-62600115D01*
X218483543Y-62600115D01*
X218541600Y-62629144D01*
X218570629Y-62687201D01*
X218570629Y-62803315D01*
X218541600Y-62861372D01*
X218483543Y-62890401D01*
X218425486Y-62890401D01*
X218367429Y-62600115D01*
X218193257Y-63587086D02*
X218164229Y-63674172D01*
X218164229Y-63819315D01*
X218193257Y-63877372D01*
X218222286Y-63906401D01*
X218280343Y-63935429D01*
X218338400Y-63935429D01*
X218396457Y-63906401D01*
X218425486Y-63877372D01*
X218454514Y-63819315D01*
X218483543Y-63703201D01*
X218512571Y-63645143D01*
X218541600Y-63616115D01*
X218599657Y-63587086D01*
X218657714Y-63587086D01*
X218715771Y-63616115D01*
X218744800Y-63645143D01*
X218773829Y-63703201D01*
X218773829Y-63848343D01*
X218744800Y-63935429D01*
X218193257Y-64428914D02*
X218164229Y-64370857D01*
X218164229Y-64254743D01*
X218193257Y-64196686D01*
X218251314Y-64167657D01*
X218483543Y-64167657D01*
X218541600Y-64196686D01*
X218570629Y-64254743D01*
X218570629Y-64370857D01*
X218541600Y-64428914D01*
X218483543Y-64457943D01*
X218425486Y-64457943D01*
X218367429Y-64167657D01*
X218570629Y-64719200D02*
X218164229Y-64719200D01*
X218512571Y-64719200D02*
X218541600Y-64748228D01*
X218570629Y-64806286D01*
X218570629Y-64893371D01*
X218541600Y-64951428D01*
X218483543Y-64980457D01*
X218164229Y-64980457D01*
X218193257Y-65241714D02*
X218164229Y-65299771D01*
X218164229Y-65415886D01*
X218193257Y-65473943D01*
X218251314Y-65502971D01*
X218280343Y-65502971D01*
X218338400Y-65473943D01*
X218367429Y-65415886D01*
X218367429Y-65328800D01*
X218396457Y-65270743D01*
X218454514Y-65241714D01*
X218483543Y-65241714D01*
X218541600Y-65270743D01*
X218570629Y-65328800D01*
X218570629Y-65415886D01*
X218541600Y-65473943D01*
X218164229Y-65851315D02*
X218193257Y-65793257D01*
X218222286Y-65764229D01*
X218280343Y-65735200D01*
X218454514Y-65735200D01*
X218512571Y-65764229D01*
X218541600Y-65793257D01*
X218570629Y-65851315D01*
X218570629Y-65938400D01*
X218541600Y-65996457D01*
X218512571Y-66025486D01*
X218454514Y-66054515D01*
X218280343Y-66054515D01*
X218222286Y-66025486D01*
X218193257Y-65996457D01*
X218164229Y-65938400D01*
X218164229Y-65851315D01*
X218164229Y-66315772D02*
X218570629Y-66315772D01*
X218454514Y-66315772D02*
X218512571Y-66344800D01*
X218541600Y-66373829D01*
X218570629Y-66431886D01*
X218570629Y-66489943D01*
X218773829Y-67070514D02*
X218164229Y-67273714D01*
X218773829Y-67476914D01*
X218715771Y-67651085D02*
X218744800Y-67680114D01*
X218773829Y-67738171D01*
X218773829Y-67883314D01*
X218744800Y-67941371D01*
X218715771Y-67970400D01*
X218657714Y-67999428D01*
X218599657Y-67999428D01*
X218512571Y-67970400D01*
X218164229Y-67622057D01*
X218164229Y-67999428D01*
D12*
X20828000Y-125984000D02*
X246888000Y-125984000D01*
X241884200Y-70789800D02*
X241884200Y-70281800D01*
X241858800Y-70789800D02*
X241884200Y-70789800D01*
X241909600Y-70789800D02*
X241858800Y-70789800D01*
X241782600Y-70789800D02*
X241909600Y-70789800D01*
X241782600Y-70332600D02*
X241782600Y-70789800D01*
X229209600Y-70739000D02*
X229209600Y-70383400D01*
X229260400Y-70739000D02*
X229209600Y-70739000D01*
X229108000Y-70739000D02*
X229260400Y-70739000D01*
X229108000Y-70383400D02*
X229108000Y-70739000D01*
X229184200Y-69977000D02*
X229184200Y-70739000D01*
D13*
X241836000Y-57671200D02*
X241836000Y-70371200D01*
X241861400Y-70726800D02*
X229161400Y-70726800D01*
X241836000Y-57722000D02*
X229136000Y-57722000D01*
X229161400Y-57747400D02*
X229161400Y-70447400D01*
X229161400Y-164427400D02*
X229161400Y-177127400D01*
X241836000Y-164402000D02*
X229136000Y-164402000D01*
X241861400Y-177406800D02*
X229161400Y-177406800D01*
X241836000Y-164351200D02*
X241836000Y-177051200D01*
D12*
X229184200Y-176657000D02*
X229184200Y-177419000D01*
X229108000Y-177063400D02*
X229108000Y-177419000D01*
X229108000Y-177419000D02*
X229260400Y-177419000D01*
X229260400Y-177419000D02*
X229209600Y-177419000D01*
X229209600Y-177419000D02*
X229209600Y-177063400D01*
X241782600Y-177012600D02*
X241782600Y-177469800D01*
X241782600Y-177469800D02*
X241909600Y-177469800D01*
X241909600Y-177469800D02*
X241858800Y-177469800D01*
X241858800Y-177469800D02*
X241884200Y-177469800D01*
X241884200Y-177469800D02*
X241884200Y-176961800D01*
D13*
X178361400Y-164427400D02*
X178361400Y-177127400D01*
X191036000Y-164402000D02*
X178336000Y-164402000D01*
X191061400Y-177406800D02*
X178361400Y-177406800D01*
X191036000Y-164351200D02*
X191036000Y-177051200D01*
D11*
X192637229Y-166293801D02*
X193246829Y-166293801D01*
X192956543Y-166293801D02*
X192956543Y-166642144D01*
X192637229Y-166642144D02*
X193246829Y-166642144D01*
X192637229Y-167193687D02*
X192956543Y-167193687D01*
X193014600Y-167164658D01*
X193043629Y-167106601D01*
X193043629Y-166990487D01*
X193014600Y-166932430D01*
X192666257Y-167193687D02*
X192637229Y-167135630D01*
X192637229Y-166990487D01*
X192666257Y-166932430D01*
X192724314Y-166903401D01*
X192782371Y-166903401D01*
X192840429Y-166932430D01*
X192869457Y-166990487D01*
X192869457Y-167135630D01*
X192898486Y-167193687D01*
X193043629Y-167425916D02*
X192637229Y-167571059D01*
X193043629Y-167716201D02*
X192637229Y-167571059D01*
X192492086Y-167513001D01*
X192463057Y-167483973D01*
X192434029Y-167425916D01*
X192956543Y-168616087D02*
X192927514Y-168703173D01*
X192898486Y-168732201D01*
X192840429Y-168761230D01*
X192753343Y-168761230D01*
X192695286Y-168732201D01*
X192666257Y-168703173D01*
X192637229Y-168645115D01*
X192637229Y-168412887D01*
X193246829Y-168412887D01*
X193246829Y-168616087D01*
X193217800Y-168674144D01*
X193188771Y-168703173D01*
X193130714Y-168732201D01*
X193072657Y-168732201D01*
X193014600Y-168703173D01*
X192985571Y-168674144D01*
X192956543Y-168616087D01*
X192956543Y-168412887D01*
X192637229Y-169283744D02*
X192956543Y-169283744D01*
X193014600Y-169254715D01*
X193043629Y-169196658D01*
X193043629Y-169080544D01*
X193014600Y-169022487D01*
X192666257Y-169283744D02*
X192637229Y-169225687D01*
X192637229Y-169080544D01*
X192666257Y-169022487D01*
X192724314Y-168993458D01*
X192782371Y-168993458D01*
X192840429Y-169022487D01*
X192869457Y-169080544D01*
X192869457Y-169225687D01*
X192898486Y-169283744D01*
X192637229Y-169661116D02*
X192666257Y-169603058D01*
X192724314Y-169574030D01*
X193246829Y-169574030D01*
X192666257Y-170125572D02*
X192637229Y-170067515D01*
X192637229Y-169951401D01*
X192666257Y-169893344D01*
X192724314Y-169864315D01*
X192956543Y-169864315D01*
X193014600Y-169893344D01*
X193043629Y-169951401D01*
X193043629Y-170067515D01*
X193014600Y-170125572D01*
X192956543Y-170154601D01*
X192898486Y-170154601D01*
X192840429Y-169864315D01*
X192666257Y-170851286D02*
X192637229Y-170938372D01*
X192637229Y-171083515D01*
X192666257Y-171141572D01*
X192695286Y-171170601D01*
X192753343Y-171199629D01*
X192811400Y-171199629D01*
X192869457Y-171170601D01*
X192898486Y-171141572D01*
X192927514Y-171083515D01*
X192956543Y-170967401D01*
X192985571Y-170909343D01*
X193014600Y-170880315D01*
X193072657Y-170851286D01*
X193130714Y-170851286D01*
X193188771Y-170880315D01*
X193217800Y-170909343D01*
X193246829Y-170967401D01*
X193246829Y-171112543D01*
X193217800Y-171199629D01*
X192666257Y-171693114D02*
X192637229Y-171635057D01*
X192637229Y-171518943D01*
X192666257Y-171460886D01*
X192724314Y-171431857D01*
X192956543Y-171431857D01*
X193014600Y-171460886D01*
X193043629Y-171518943D01*
X193043629Y-171635057D01*
X193014600Y-171693114D01*
X192956543Y-171722143D01*
X192898486Y-171722143D01*
X192840429Y-171431857D01*
X193043629Y-171983400D02*
X192637229Y-171983400D01*
X192985571Y-171983400D02*
X193014600Y-172012428D01*
X193043629Y-172070486D01*
X193043629Y-172157571D01*
X193014600Y-172215628D01*
X192956543Y-172244657D01*
X192637229Y-172244657D01*
X192666257Y-172505914D02*
X192637229Y-172563971D01*
X192637229Y-172680086D01*
X192666257Y-172738143D01*
X192724314Y-172767171D01*
X192753343Y-172767171D01*
X192811400Y-172738143D01*
X192840429Y-172680086D01*
X192840429Y-172593000D01*
X192869457Y-172534943D01*
X192927514Y-172505914D01*
X192956543Y-172505914D01*
X193014600Y-172534943D01*
X193043629Y-172593000D01*
X193043629Y-172680086D01*
X193014600Y-172738143D01*
X192637229Y-173115515D02*
X192666257Y-173057457D01*
X192695286Y-173028429D01*
X192753343Y-172999400D01*
X192927514Y-172999400D01*
X192985571Y-173028429D01*
X193014600Y-173057457D01*
X193043629Y-173115515D01*
X193043629Y-173202600D01*
X193014600Y-173260657D01*
X192985571Y-173289686D01*
X192927514Y-173318715D01*
X192753343Y-173318715D01*
X192695286Y-173289686D01*
X192666257Y-173260657D01*
X192637229Y-173202600D01*
X192637229Y-173115515D01*
X192637229Y-173579972D02*
X193043629Y-173579972D01*
X192927514Y-173579972D02*
X192985571Y-173609000D01*
X193014600Y-173638029D01*
X193043629Y-173696086D01*
X193043629Y-173754143D01*
X193246829Y-174334714D02*
X192637229Y-174537914D01*
X193246829Y-174741114D01*
X193188771Y-174915285D02*
X193217800Y-174944314D01*
X193246829Y-175002371D01*
X193246829Y-175147514D01*
X193217800Y-175205571D01*
X193188771Y-175234600D01*
X193130714Y-175263628D01*
X193072657Y-175263628D01*
X192985571Y-175234600D01*
X192637229Y-174886257D01*
X192637229Y-175263628D01*
D12*
X178384200Y-176657000D02*
X178384200Y-177419000D01*
X178308000Y-177063400D02*
X178308000Y-177419000D01*
X178308000Y-177419000D02*
X178460400Y-177419000D01*
X178460400Y-177419000D02*
X178409600Y-177419000D01*
X178409600Y-177419000D02*
X178409600Y-177063400D01*
X190982600Y-177012600D02*
X190982600Y-177469800D01*
X190982600Y-177469800D02*
X191109600Y-177469800D01*
X191109600Y-177469800D02*
X191058800Y-177469800D01*
X191058800Y-177469800D02*
X191084200Y-177469800D01*
X191084200Y-177469800D02*
X191084200Y-176961800D01*
X216484200Y-177469800D02*
X216484200Y-176961800D01*
X216458800Y-177469800D02*
X216484200Y-177469800D01*
X216509600Y-177469800D02*
X216458800Y-177469800D01*
X216382600Y-177469800D02*
X216509600Y-177469800D01*
X216382600Y-177012600D02*
X216382600Y-177469800D01*
X203809600Y-177419000D02*
X203809600Y-177063400D01*
X203860400Y-177419000D02*
X203809600Y-177419000D01*
X203708000Y-177419000D02*
X203860400Y-177419000D01*
X203708000Y-177063400D02*
X203708000Y-177419000D01*
X203784200Y-176657000D02*
X203784200Y-177419000D01*
D13*
X216436000Y-164351200D02*
X216436000Y-177051200D01*
X216461400Y-177406800D02*
X203761400Y-177406800D01*
X216436000Y-164402000D02*
X203736000Y-164402000D01*
X203761400Y-164427400D02*
X203761400Y-177127400D01*
X152961400Y-164427400D02*
X152961400Y-177127400D01*
X165636000Y-164402000D02*
X152936000Y-164402000D01*
X165661400Y-177406800D02*
X152961400Y-177406800D01*
X165636000Y-164351200D02*
X165636000Y-177051200D01*
D11*
X167237229Y-166293801D02*
X167846829Y-166293801D01*
X167556543Y-166293801D02*
X167556543Y-166642144D01*
X167237229Y-166642144D02*
X167846829Y-166642144D01*
X167237229Y-167193687D02*
X167556543Y-167193687D01*
X167614600Y-167164658D01*
X167643629Y-167106601D01*
X167643629Y-166990487D01*
X167614600Y-166932430D01*
X167266257Y-167193687D02*
X167237229Y-167135630D01*
X167237229Y-166990487D01*
X167266257Y-166932430D01*
X167324314Y-166903401D01*
X167382371Y-166903401D01*
X167440429Y-166932430D01*
X167469457Y-166990487D01*
X167469457Y-167135630D01*
X167498486Y-167193687D01*
X167643629Y-167425916D02*
X167237229Y-167571059D01*
X167643629Y-167716201D02*
X167237229Y-167571059D01*
X167092086Y-167513001D01*
X167063057Y-167483973D01*
X167034029Y-167425916D01*
X167556543Y-168616087D02*
X167527514Y-168703173D01*
X167498486Y-168732201D01*
X167440429Y-168761230D01*
X167353343Y-168761230D01*
X167295286Y-168732201D01*
X167266257Y-168703173D01*
X167237229Y-168645115D01*
X167237229Y-168412887D01*
X167846829Y-168412887D01*
X167846829Y-168616087D01*
X167817800Y-168674144D01*
X167788771Y-168703173D01*
X167730714Y-168732201D01*
X167672657Y-168732201D01*
X167614600Y-168703173D01*
X167585571Y-168674144D01*
X167556543Y-168616087D01*
X167556543Y-168412887D01*
X167237229Y-169283744D02*
X167556543Y-169283744D01*
X167614600Y-169254715D01*
X167643629Y-169196658D01*
X167643629Y-169080544D01*
X167614600Y-169022487D01*
X167266257Y-169283744D02*
X167237229Y-169225687D01*
X167237229Y-169080544D01*
X167266257Y-169022487D01*
X167324314Y-168993458D01*
X167382371Y-168993458D01*
X167440429Y-169022487D01*
X167469457Y-169080544D01*
X167469457Y-169225687D01*
X167498486Y-169283744D01*
X167237229Y-169661116D02*
X167266257Y-169603058D01*
X167324314Y-169574030D01*
X167846829Y-169574030D01*
X167266257Y-170125572D02*
X167237229Y-170067515D01*
X167237229Y-169951401D01*
X167266257Y-169893344D01*
X167324314Y-169864315D01*
X167556543Y-169864315D01*
X167614600Y-169893344D01*
X167643629Y-169951401D01*
X167643629Y-170067515D01*
X167614600Y-170125572D01*
X167556543Y-170154601D01*
X167498486Y-170154601D01*
X167440429Y-169864315D01*
X167266257Y-170851286D02*
X167237229Y-170938372D01*
X167237229Y-171083515D01*
X167266257Y-171141572D01*
X167295286Y-171170601D01*
X167353343Y-171199629D01*
X167411400Y-171199629D01*
X167469457Y-171170601D01*
X167498486Y-171141572D01*
X167527514Y-171083515D01*
X167556543Y-170967401D01*
X167585571Y-170909343D01*
X167614600Y-170880315D01*
X167672657Y-170851286D01*
X167730714Y-170851286D01*
X167788771Y-170880315D01*
X167817800Y-170909343D01*
X167846829Y-170967401D01*
X167846829Y-171112543D01*
X167817800Y-171199629D01*
X167266257Y-171693114D02*
X167237229Y-171635057D01*
X167237229Y-171518943D01*
X167266257Y-171460886D01*
X167324314Y-171431857D01*
X167556543Y-171431857D01*
X167614600Y-171460886D01*
X167643629Y-171518943D01*
X167643629Y-171635057D01*
X167614600Y-171693114D01*
X167556543Y-171722143D01*
X167498486Y-171722143D01*
X167440429Y-171431857D01*
X167643629Y-171983400D02*
X167237229Y-171983400D01*
X167585571Y-171983400D02*
X167614600Y-172012428D01*
X167643629Y-172070486D01*
X167643629Y-172157571D01*
X167614600Y-172215628D01*
X167556543Y-172244657D01*
X167237229Y-172244657D01*
X167266257Y-172505914D02*
X167237229Y-172563971D01*
X167237229Y-172680086D01*
X167266257Y-172738143D01*
X167324314Y-172767171D01*
X167353343Y-172767171D01*
X167411400Y-172738143D01*
X167440429Y-172680086D01*
X167440429Y-172593000D01*
X167469457Y-172534943D01*
X167527514Y-172505914D01*
X167556543Y-172505914D01*
X167614600Y-172534943D01*
X167643629Y-172593000D01*
X167643629Y-172680086D01*
X167614600Y-172738143D01*
X167237229Y-173115515D02*
X167266257Y-173057457D01*
X167295286Y-173028429D01*
X167353343Y-172999400D01*
X167527514Y-172999400D01*
X167585571Y-173028429D01*
X167614600Y-173057457D01*
X167643629Y-173115515D01*
X167643629Y-173202600D01*
X167614600Y-173260657D01*
X167585571Y-173289686D01*
X167527514Y-173318715D01*
X167353343Y-173318715D01*
X167295286Y-173289686D01*
X167266257Y-173260657D01*
X167237229Y-173202600D01*
X167237229Y-173115515D01*
X167237229Y-173579972D02*
X167643629Y-173579972D01*
X167527514Y-173579972D02*
X167585571Y-173609000D01*
X167614600Y-173638029D01*
X167643629Y-173696086D01*
X167643629Y-173754143D01*
X167846829Y-174334714D02*
X167237229Y-174537914D01*
X167846829Y-174741114D01*
X167788771Y-174915285D02*
X167817800Y-174944314D01*
X167846829Y-175002371D01*
X167846829Y-175147514D01*
X167817800Y-175205571D01*
X167788771Y-175234600D01*
X167730714Y-175263628D01*
X167672657Y-175263628D01*
X167585571Y-175234600D01*
X167237229Y-174886257D01*
X167237229Y-175263628D01*
D12*
X152984200Y-176657000D02*
X152984200Y-177419000D01*
X152908000Y-177063400D02*
X152908000Y-177419000D01*
X152908000Y-177419000D02*
X153060400Y-177419000D01*
X153060400Y-177419000D02*
X153009600Y-177419000D01*
X153009600Y-177419000D02*
X153009600Y-177063400D01*
X165582600Y-177012600D02*
X165582600Y-177469800D01*
X165582600Y-177469800D02*
X165709600Y-177469800D01*
X165709600Y-177469800D02*
X165658800Y-177469800D01*
X165658800Y-177469800D02*
X165684200Y-177469800D01*
X165684200Y-177469800D02*
X165684200Y-176961800D01*
X140284200Y-177469800D02*
X140284200Y-176961800D01*
X140258800Y-177469800D02*
X140284200Y-177469800D01*
X140309600Y-177469800D02*
X140258800Y-177469800D01*
X140182600Y-177469800D02*
X140309600Y-177469800D01*
X140182600Y-177012600D02*
X140182600Y-177469800D01*
X127609600Y-177419000D02*
X127609600Y-177063400D01*
X127660400Y-177419000D02*
X127609600Y-177419000D01*
X127508000Y-177419000D02*
X127660400Y-177419000D01*
X127508000Y-177063400D02*
X127508000Y-177419000D01*
X127584200Y-176657000D02*
X127584200Y-177419000D01*
D11*
X141837229Y-166293801D02*
X142446829Y-166293801D01*
X142156543Y-166293801D02*
X142156543Y-166642144D01*
X141837229Y-166642144D02*
X142446829Y-166642144D01*
X141837229Y-167193687D02*
X142156543Y-167193687D01*
X142214600Y-167164658D01*
X142243629Y-167106601D01*
X142243629Y-166990487D01*
X142214600Y-166932430D01*
X141866257Y-167193687D02*
X141837229Y-167135630D01*
X141837229Y-166990487D01*
X141866257Y-166932430D01*
X141924314Y-166903401D01*
X141982371Y-166903401D01*
X142040429Y-166932430D01*
X142069457Y-166990487D01*
X142069457Y-167135630D01*
X142098486Y-167193687D01*
X142243629Y-167425916D02*
X141837229Y-167571059D01*
X142243629Y-167716201D02*
X141837229Y-167571059D01*
X141692086Y-167513001D01*
X141663057Y-167483973D01*
X141634029Y-167425916D01*
X142156543Y-168616087D02*
X142127514Y-168703173D01*
X142098486Y-168732201D01*
X142040429Y-168761230D01*
X141953343Y-168761230D01*
X141895286Y-168732201D01*
X141866257Y-168703173D01*
X141837229Y-168645115D01*
X141837229Y-168412887D01*
X142446829Y-168412887D01*
X142446829Y-168616087D01*
X142417800Y-168674144D01*
X142388771Y-168703173D01*
X142330714Y-168732201D01*
X142272657Y-168732201D01*
X142214600Y-168703173D01*
X142185571Y-168674144D01*
X142156543Y-168616087D01*
X142156543Y-168412887D01*
X141837229Y-169283744D02*
X142156543Y-169283744D01*
X142214600Y-169254715D01*
X142243629Y-169196658D01*
X142243629Y-169080544D01*
X142214600Y-169022487D01*
X141866257Y-169283744D02*
X141837229Y-169225687D01*
X141837229Y-169080544D01*
X141866257Y-169022487D01*
X141924314Y-168993458D01*
X141982371Y-168993458D01*
X142040429Y-169022487D01*
X142069457Y-169080544D01*
X142069457Y-169225687D01*
X142098486Y-169283744D01*
X141837229Y-169661116D02*
X141866257Y-169603058D01*
X141924314Y-169574030D01*
X142446829Y-169574030D01*
X141866257Y-170125572D02*
X141837229Y-170067515D01*
X141837229Y-169951401D01*
X141866257Y-169893344D01*
X141924314Y-169864315D01*
X142156543Y-169864315D01*
X142214600Y-169893344D01*
X142243629Y-169951401D01*
X142243629Y-170067515D01*
X142214600Y-170125572D01*
X142156543Y-170154601D01*
X142098486Y-170154601D01*
X142040429Y-169864315D01*
X141866257Y-170851286D02*
X141837229Y-170938372D01*
X141837229Y-171083515D01*
X141866257Y-171141572D01*
X141895286Y-171170601D01*
X141953343Y-171199629D01*
X142011400Y-171199629D01*
X142069457Y-171170601D01*
X142098486Y-171141572D01*
X142127514Y-171083515D01*
X142156543Y-170967401D01*
X142185571Y-170909343D01*
X142214600Y-170880315D01*
X142272657Y-170851286D01*
X142330714Y-170851286D01*
X142388771Y-170880315D01*
X142417800Y-170909343D01*
X142446829Y-170967401D01*
X142446829Y-171112543D01*
X142417800Y-171199629D01*
X141866257Y-171693114D02*
X141837229Y-171635057D01*
X141837229Y-171518943D01*
X141866257Y-171460886D01*
X141924314Y-171431857D01*
X142156543Y-171431857D01*
X142214600Y-171460886D01*
X142243629Y-171518943D01*
X142243629Y-171635057D01*
X142214600Y-171693114D01*
X142156543Y-171722143D01*
X142098486Y-171722143D01*
X142040429Y-171431857D01*
X142243629Y-171983400D02*
X141837229Y-171983400D01*
X142185571Y-171983400D02*
X142214600Y-172012428D01*
X142243629Y-172070486D01*
X142243629Y-172157571D01*
X142214600Y-172215628D01*
X142156543Y-172244657D01*
X141837229Y-172244657D01*
X141866257Y-172505914D02*
X141837229Y-172563971D01*
X141837229Y-172680086D01*
X141866257Y-172738143D01*
X141924314Y-172767171D01*
X141953343Y-172767171D01*
X142011400Y-172738143D01*
X142040429Y-172680086D01*
X142040429Y-172593000D01*
X142069457Y-172534943D01*
X142127514Y-172505914D01*
X142156543Y-172505914D01*
X142214600Y-172534943D01*
X142243629Y-172593000D01*
X142243629Y-172680086D01*
X142214600Y-172738143D01*
X141837229Y-173115515D02*
X141866257Y-173057457D01*
X141895286Y-173028429D01*
X141953343Y-172999400D01*
X142127514Y-172999400D01*
X142185571Y-173028429D01*
X142214600Y-173057457D01*
X142243629Y-173115515D01*
X142243629Y-173202600D01*
X142214600Y-173260657D01*
X142185571Y-173289686D01*
X142127514Y-173318715D01*
X141953343Y-173318715D01*
X141895286Y-173289686D01*
X141866257Y-173260657D01*
X141837229Y-173202600D01*
X141837229Y-173115515D01*
X141837229Y-173579972D02*
X142243629Y-173579972D01*
X142127514Y-173579972D02*
X142185571Y-173609000D01*
X142214600Y-173638029D01*
X142243629Y-173696086D01*
X142243629Y-173754143D01*
X142446829Y-174334714D02*
X141837229Y-174537914D01*
X142446829Y-174741114D01*
X142388771Y-174915285D02*
X142417800Y-174944314D01*
X142446829Y-175002371D01*
X142446829Y-175147514D01*
X142417800Y-175205571D01*
X142388771Y-175234600D01*
X142330714Y-175263628D01*
X142272657Y-175263628D01*
X142185571Y-175234600D01*
X141837229Y-174886257D01*
X141837229Y-175263628D01*
D13*
X140236000Y-164351200D02*
X140236000Y-177051200D01*
X140261400Y-177406800D02*
X127561400Y-177406800D01*
X140236000Y-164402000D02*
X127536000Y-164402000D01*
X127561400Y-164427400D02*
X127561400Y-177127400D01*
D11*
X40211829Y-165455601D02*
X40821429Y-165455601D01*
X40531143Y-165455601D02*
X40531143Y-165803944D01*
X40211829Y-165803944D02*
X40821429Y-165803944D01*
X40211829Y-166355487D02*
X40531143Y-166355487D01*
X40589200Y-166326458D01*
X40618229Y-166268401D01*
X40618229Y-166152287D01*
X40589200Y-166094230D01*
X40240857Y-166355487D02*
X40211829Y-166297430D01*
X40211829Y-166152287D01*
X40240857Y-166094230D01*
X40298914Y-166065201D01*
X40356971Y-166065201D01*
X40415029Y-166094230D01*
X40444057Y-166152287D01*
X40444057Y-166297430D01*
X40473086Y-166355487D01*
X40618229Y-166587716D02*
X40211829Y-166732859D01*
X40618229Y-166878001D02*
X40211829Y-166732859D01*
X40066686Y-166674801D01*
X40037657Y-166645773D01*
X40008629Y-166587716D01*
X40531143Y-167777887D02*
X40502114Y-167864973D01*
X40473086Y-167894001D01*
X40415029Y-167923030D01*
X40327943Y-167923030D01*
X40269886Y-167894001D01*
X40240857Y-167864973D01*
X40211829Y-167806915D01*
X40211829Y-167574687D01*
X40821429Y-167574687D01*
X40821429Y-167777887D01*
X40792400Y-167835944D01*
X40763371Y-167864973D01*
X40705314Y-167894001D01*
X40647257Y-167894001D01*
X40589200Y-167864973D01*
X40560171Y-167835944D01*
X40531143Y-167777887D01*
X40531143Y-167574687D01*
X40211829Y-168445544D02*
X40531143Y-168445544D01*
X40589200Y-168416515D01*
X40618229Y-168358458D01*
X40618229Y-168242344D01*
X40589200Y-168184287D01*
X40240857Y-168445544D02*
X40211829Y-168387487D01*
X40211829Y-168242344D01*
X40240857Y-168184287D01*
X40298914Y-168155258D01*
X40356971Y-168155258D01*
X40415029Y-168184287D01*
X40444057Y-168242344D01*
X40444057Y-168387487D01*
X40473086Y-168445544D01*
X40211829Y-168822916D02*
X40240857Y-168764858D01*
X40298914Y-168735830D01*
X40821429Y-168735830D01*
X40240857Y-169287372D02*
X40211829Y-169229315D01*
X40211829Y-169113201D01*
X40240857Y-169055144D01*
X40298914Y-169026115D01*
X40531143Y-169026115D01*
X40589200Y-169055144D01*
X40618229Y-169113201D01*
X40618229Y-169229315D01*
X40589200Y-169287372D01*
X40531143Y-169316401D01*
X40473086Y-169316401D01*
X40415029Y-169026115D01*
X40240857Y-170013086D02*
X40211829Y-170100172D01*
X40211829Y-170245315D01*
X40240857Y-170303372D01*
X40269886Y-170332401D01*
X40327943Y-170361429D01*
X40386000Y-170361429D01*
X40444057Y-170332401D01*
X40473086Y-170303372D01*
X40502114Y-170245315D01*
X40531143Y-170129201D01*
X40560171Y-170071143D01*
X40589200Y-170042115D01*
X40647257Y-170013086D01*
X40705314Y-170013086D01*
X40763371Y-170042115D01*
X40792400Y-170071143D01*
X40821429Y-170129201D01*
X40821429Y-170274343D01*
X40792400Y-170361429D01*
X40240857Y-170854914D02*
X40211829Y-170796857D01*
X40211829Y-170680743D01*
X40240857Y-170622686D01*
X40298914Y-170593657D01*
X40531143Y-170593657D01*
X40589200Y-170622686D01*
X40618229Y-170680743D01*
X40618229Y-170796857D01*
X40589200Y-170854914D01*
X40531143Y-170883943D01*
X40473086Y-170883943D01*
X40415029Y-170593657D01*
X40618229Y-171145200D02*
X40211829Y-171145200D01*
X40560171Y-171145200D02*
X40589200Y-171174228D01*
X40618229Y-171232286D01*
X40618229Y-171319371D01*
X40589200Y-171377428D01*
X40531143Y-171406457D01*
X40211829Y-171406457D01*
X40240857Y-171667714D02*
X40211829Y-171725771D01*
X40211829Y-171841886D01*
X40240857Y-171899943D01*
X40298914Y-171928971D01*
X40327943Y-171928971D01*
X40386000Y-171899943D01*
X40415029Y-171841886D01*
X40415029Y-171754800D01*
X40444057Y-171696743D01*
X40502114Y-171667714D01*
X40531143Y-171667714D01*
X40589200Y-171696743D01*
X40618229Y-171754800D01*
X40618229Y-171841886D01*
X40589200Y-171899943D01*
X40211829Y-172277315D02*
X40240857Y-172219257D01*
X40269886Y-172190229D01*
X40327943Y-172161200D01*
X40502114Y-172161200D01*
X40560171Y-172190229D01*
X40589200Y-172219257D01*
X40618229Y-172277315D01*
X40618229Y-172364400D01*
X40589200Y-172422457D01*
X40560171Y-172451486D01*
X40502114Y-172480515D01*
X40327943Y-172480515D01*
X40269886Y-172451486D01*
X40240857Y-172422457D01*
X40211829Y-172364400D01*
X40211829Y-172277315D01*
X40211829Y-172741772D02*
X40618229Y-172741772D01*
X40502114Y-172741772D02*
X40560171Y-172770800D01*
X40589200Y-172799829D01*
X40618229Y-172857886D01*
X40618229Y-172915943D01*
X40821429Y-173496514D02*
X40211829Y-173699714D01*
X40821429Y-173902914D01*
X40763371Y-174077085D02*
X40792400Y-174106114D01*
X40821429Y-174164171D01*
X40821429Y-174309314D01*
X40792400Y-174367371D01*
X40763371Y-174396400D01*
X40705314Y-174425428D01*
X40647257Y-174425428D01*
X40560171Y-174396400D01*
X40211829Y-174048057D01*
X40211829Y-174425428D01*
D12*
X44831000Y-178231800D02*
X44831000Y-178206400D01*
X70231000Y-178231800D02*
X70231000Y-178206400D01*
D11*
X65611829Y-165455601D02*
X66221429Y-165455601D01*
X65931143Y-165455601D02*
X65931143Y-165803944D01*
X65611829Y-165803944D02*
X66221429Y-165803944D01*
X65611829Y-166355487D02*
X65931143Y-166355487D01*
X65989200Y-166326458D01*
X66018229Y-166268401D01*
X66018229Y-166152287D01*
X65989200Y-166094230D01*
X65640857Y-166355487D02*
X65611829Y-166297430D01*
X65611829Y-166152287D01*
X65640857Y-166094230D01*
X65698914Y-166065201D01*
X65756971Y-166065201D01*
X65815029Y-166094230D01*
X65844057Y-166152287D01*
X65844057Y-166297430D01*
X65873086Y-166355487D01*
X66018229Y-166587716D02*
X65611829Y-166732859D01*
X66018229Y-166878001D02*
X65611829Y-166732859D01*
X65466686Y-166674801D01*
X65437657Y-166645773D01*
X65408629Y-166587716D01*
X65931143Y-167777887D02*
X65902114Y-167864973D01*
X65873086Y-167894001D01*
X65815029Y-167923030D01*
X65727943Y-167923030D01*
X65669886Y-167894001D01*
X65640857Y-167864973D01*
X65611829Y-167806915D01*
X65611829Y-167574687D01*
X66221429Y-167574687D01*
X66221429Y-167777887D01*
X66192400Y-167835944D01*
X66163371Y-167864973D01*
X66105314Y-167894001D01*
X66047257Y-167894001D01*
X65989200Y-167864973D01*
X65960171Y-167835944D01*
X65931143Y-167777887D01*
X65931143Y-167574687D01*
X65611829Y-168445544D02*
X65931143Y-168445544D01*
X65989200Y-168416515D01*
X66018229Y-168358458D01*
X66018229Y-168242344D01*
X65989200Y-168184287D01*
X65640857Y-168445544D02*
X65611829Y-168387487D01*
X65611829Y-168242344D01*
X65640857Y-168184287D01*
X65698914Y-168155258D01*
X65756971Y-168155258D01*
X65815029Y-168184287D01*
X65844057Y-168242344D01*
X65844057Y-168387487D01*
X65873086Y-168445544D01*
X65611829Y-168822916D02*
X65640857Y-168764858D01*
X65698914Y-168735830D01*
X66221429Y-168735830D01*
X65640857Y-169287372D02*
X65611829Y-169229315D01*
X65611829Y-169113201D01*
X65640857Y-169055144D01*
X65698914Y-169026115D01*
X65931143Y-169026115D01*
X65989200Y-169055144D01*
X66018229Y-169113201D01*
X66018229Y-169229315D01*
X65989200Y-169287372D01*
X65931143Y-169316401D01*
X65873086Y-169316401D01*
X65815029Y-169026115D01*
X65640857Y-170013086D02*
X65611829Y-170100172D01*
X65611829Y-170245315D01*
X65640857Y-170303372D01*
X65669886Y-170332401D01*
X65727943Y-170361429D01*
X65786000Y-170361429D01*
X65844057Y-170332401D01*
X65873086Y-170303372D01*
X65902114Y-170245315D01*
X65931143Y-170129201D01*
X65960171Y-170071143D01*
X65989200Y-170042115D01*
X66047257Y-170013086D01*
X66105314Y-170013086D01*
X66163371Y-170042115D01*
X66192400Y-170071143D01*
X66221429Y-170129201D01*
X66221429Y-170274343D01*
X66192400Y-170361429D01*
X65640857Y-170854914D02*
X65611829Y-170796857D01*
X65611829Y-170680743D01*
X65640857Y-170622686D01*
X65698914Y-170593657D01*
X65931143Y-170593657D01*
X65989200Y-170622686D01*
X66018229Y-170680743D01*
X66018229Y-170796857D01*
X65989200Y-170854914D01*
X65931143Y-170883943D01*
X65873086Y-170883943D01*
X65815029Y-170593657D01*
X66018229Y-171145200D02*
X65611829Y-171145200D01*
X65960171Y-171145200D02*
X65989200Y-171174228D01*
X66018229Y-171232286D01*
X66018229Y-171319371D01*
X65989200Y-171377428D01*
X65931143Y-171406457D01*
X65611829Y-171406457D01*
X65640857Y-171667714D02*
X65611829Y-171725771D01*
X65611829Y-171841886D01*
X65640857Y-171899943D01*
X65698914Y-171928971D01*
X65727943Y-171928971D01*
X65786000Y-171899943D01*
X65815029Y-171841886D01*
X65815029Y-171754800D01*
X65844057Y-171696743D01*
X65902114Y-171667714D01*
X65931143Y-171667714D01*
X65989200Y-171696743D01*
X66018229Y-171754800D01*
X66018229Y-171841886D01*
X65989200Y-171899943D01*
X65611829Y-172277315D02*
X65640857Y-172219257D01*
X65669886Y-172190229D01*
X65727943Y-172161200D01*
X65902114Y-172161200D01*
X65960171Y-172190229D01*
X65989200Y-172219257D01*
X66018229Y-172277315D01*
X66018229Y-172364400D01*
X65989200Y-172422457D01*
X65960171Y-172451486D01*
X65902114Y-172480515D01*
X65727943Y-172480515D01*
X65669886Y-172451486D01*
X65640857Y-172422457D01*
X65611829Y-172364400D01*
X65611829Y-172277315D01*
X65611829Y-172741772D02*
X66018229Y-172741772D01*
X65902114Y-172741772D02*
X65960171Y-172770800D01*
X65989200Y-172799829D01*
X66018229Y-172857886D01*
X66018229Y-172915943D01*
X66221429Y-173496514D02*
X65611829Y-173699714D01*
X66221429Y-173902914D01*
X66163371Y-174077085D02*
X66192400Y-174106114D01*
X66221429Y-174164171D01*
X66221429Y-174309314D01*
X66192400Y-174367371D01*
X66163371Y-174396400D01*
X66105314Y-174425428D01*
X66047257Y-174425428D01*
X65960171Y-174396400D01*
X65611829Y-174048057D01*
X65611829Y-174425428D01*
D12*
X95631000Y-178231800D02*
X95631000Y-178206400D01*
D11*
X91011829Y-165455601D02*
X91621429Y-165455601D01*
X91331143Y-165455601D02*
X91331143Y-165803944D01*
X91011829Y-165803944D02*
X91621429Y-165803944D01*
X91011829Y-166355487D02*
X91331143Y-166355487D01*
X91389200Y-166326458D01*
X91418229Y-166268401D01*
X91418229Y-166152287D01*
X91389200Y-166094230D01*
X91040857Y-166355487D02*
X91011829Y-166297430D01*
X91011829Y-166152287D01*
X91040857Y-166094230D01*
X91098914Y-166065201D01*
X91156971Y-166065201D01*
X91215029Y-166094230D01*
X91244057Y-166152287D01*
X91244057Y-166297430D01*
X91273086Y-166355487D01*
X91418229Y-166587716D02*
X91011829Y-166732859D01*
X91418229Y-166878001D02*
X91011829Y-166732859D01*
X90866686Y-166674801D01*
X90837657Y-166645773D01*
X90808629Y-166587716D01*
X91331143Y-167777887D02*
X91302114Y-167864973D01*
X91273086Y-167894001D01*
X91215029Y-167923030D01*
X91127943Y-167923030D01*
X91069886Y-167894001D01*
X91040857Y-167864973D01*
X91011829Y-167806915D01*
X91011829Y-167574687D01*
X91621429Y-167574687D01*
X91621429Y-167777887D01*
X91592400Y-167835944D01*
X91563371Y-167864973D01*
X91505314Y-167894001D01*
X91447257Y-167894001D01*
X91389200Y-167864973D01*
X91360171Y-167835944D01*
X91331143Y-167777887D01*
X91331143Y-167574687D01*
X91011829Y-168445544D02*
X91331143Y-168445544D01*
X91389200Y-168416515D01*
X91418229Y-168358458D01*
X91418229Y-168242344D01*
X91389200Y-168184287D01*
X91040857Y-168445544D02*
X91011829Y-168387487D01*
X91011829Y-168242344D01*
X91040857Y-168184287D01*
X91098914Y-168155258D01*
X91156971Y-168155258D01*
X91215029Y-168184287D01*
X91244057Y-168242344D01*
X91244057Y-168387487D01*
X91273086Y-168445544D01*
X91011829Y-168822916D02*
X91040857Y-168764858D01*
X91098914Y-168735830D01*
X91621429Y-168735830D01*
X91040857Y-169287372D02*
X91011829Y-169229315D01*
X91011829Y-169113201D01*
X91040857Y-169055144D01*
X91098914Y-169026115D01*
X91331143Y-169026115D01*
X91389200Y-169055144D01*
X91418229Y-169113201D01*
X91418229Y-169229315D01*
X91389200Y-169287372D01*
X91331143Y-169316401D01*
X91273086Y-169316401D01*
X91215029Y-169026115D01*
X91040857Y-170013086D02*
X91011829Y-170100172D01*
X91011829Y-170245315D01*
X91040857Y-170303372D01*
X91069886Y-170332401D01*
X91127943Y-170361429D01*
X91186000Y-170361429D01*
X91244057Y-170332401D01*
X91273086Y-170303372D01*
X91302114Y-170245315D01*
X91331143Y-170129201D01*
X91360171Y-170071143D01*
X91389200Y-170042115D01*
X91447257Y-170013086D01*
X91505314Y-170013086D01*
X91563371Y-170042115D01*
X91592400Y-170071143D01*
X91621429Y-170129201D01*
X91621429Y-170274343D01*
X91592400Y-170361429D01*
X91040857Y-170854914D02*
X91011829Y-170796857D01*
X91011829Y-170680743D01*
X91040857Y-170622686D01*
X91098914Y-170593657D01*
X91331143Y-170593657D01*
X91389200Y-170622686D01*
X91418229Y-170680743D01*
X91418229Y-170796857D01*
X91389200Y-170854914D01*
X91331143Y-170883943D01*
X91273086Y-170883943D01*
X91215029Y-170593657D01*
X91418229Y-171145200D02*
X91011829Y-171145200D01*
X91360171Y-171145200D02*
X91389200Y-171174228D01*
X91418229Y-171232286D01*
X91418229Y-171319371D01*
X91389200Y-171377428D01*
X91331143Y-171406457D01*
X91011829Y-171406457D01*
X91040857Y-171667714D02*
X91011829Y-171725771D01*
X91011829Y-171841886D01*
X91040857Y-171899943D01*
X91098914Y-171928971D01*
X91127943Y-171928971D01*
X91186000Y-171899943D01*
X91215029Y-171841886D01*
X91215029Y-171754800D01*
X91244057Y-171696743D01*
X91302114Y-171667714D01*
X91331143Y-171667714D01*
X91389200Y-171696743D01*
X91418229Y-171754800D01*
X91418229Y-171841886D01*
X91389200Y-171899943D01*
X91011829Y-172277315D02*
X91040857Y-172219257D01*
X91069886Y-172190229D01*
X91127943Y-172161200D01*
X91302114Y-172161200D01*
X91360171Y-172190229D01*
X91389200Y-172219257D01*
X91418229Y-172277315D01*
X91418229Y-172364400D01*
X91389200Y-172422457D01*
X91360171Y-172451486D01*
X91302114Y-172480515D01*
X91127943Y-172480515D01*
X91069886Y-172451486D01*
X91040857Y-172422457D01*
X91011829Y-172364400D01*
X91011829Y-172277315D01*
X91011829Y-172741772D02*
X91418229Y-172741772D01*
X91302114Y-172741772D02*
X91360171Y-172770800D01*
X91389200Y-172799829D01*
X91418229Y-172857886D01*
X91418229Y-172915943D01*
X91621429Y-173496514D02*
X91011829Y-173699714D01*
X91621429Y-173902914D01*
X91563371Y-174077085D02*
X91592400Y-174106114D01*
X91621429Y-174164171D01*
X91621429Y-174309314D01*
X91592400Y-174367371D01*
X91563371Y-174396400D01*
X91505314Y-174425428D01*
X91447257Y-174425428D01*
X91360171Y-174396400D01*
X91011829Y-174048057D01*
X91011829Y-174425428D01*
D13*
X127561400Y-57747400D02*
X127561400Y-70447400D01*
X140236000Y-57722000D02*
X127536000Y-57722000D01*
X140261400Y-70726800D02*
X127561400Y-70726800D01*
X140236000Y-57671200D02*
X140236000Y-70371200D01*
D11*
X141837229Y-59613801D02*
X142446829Y-59613801D01*
X142156543Y-59613801D02*
X142156543Y-59962144D01*
X141837229Y-59962144D02*
X142446829Y-59962144D01*
X141837229Y-60513687D02*
X142156543Y-60513687D01*
X142214600Y-60484658D01*
X142243629Y-60426601D01*
X142243629Y-60310487D01*
X142214600Y-60252430D01*
X141866257Y-60513687D02*
X141837229Y-60455630D01*
X141837229Y-60310487D01*
X141866257Y-60252430D01*
X141924314Y-60223401D01*
X141982371Y-60223401D01*
X142040429Y-60252430D01*
X142069457Y-60310487D01*
X142069457Y-60455630D01*
X142098486Y-60513687D01*
X142243629Y-60745916D02*
X141837229Y-60891059D01*
X142243629Y-61036201D02*
X141837229Y-60891059D01*
X141692086Y-60833001D01*
X141663057Y-60803973D01*
X141634029Y-60745916D01*
X142156543Y-61936087D02*
X142127514Y-62023173D01*
X142098486Y-62052201D01*
X142040429Y-62081230D01*
X141953343Y-62081230D01*
X141895286Y-62052201D01*
X141866257Y-62023173D01*
X141837229Y-61965115D01*
X141837229Y-61732887D01*
X142446829Y-61732887D01*
X142446829Y-61936087D01*
X142417800Y-61994144D01*
X142388771Y-62023173D01*
X142330714Y-62052201D01*
X142272657Y-62052201D01*
X142214600Y-62023173D01*
X142185571Y-61994144D01*
X142156543Y-61936087D01*
X142156543Y-61732887D01*
X141837229Y-62603744D02*
X142156543Y-62603744D01*
X142214600Y-62574715D01*
X142243629Y-62516658D01*
X142243629Y-62400544D01*
X142214600Y-62342487D01*
X141866257Y-62603744D02*
X141837229Y-62545687D01*
X141837229Y-62400544D01*
X141866257Y-62342487D01*
X141924314Y-62313458D01*
X141982371Y-62313458D01*
X142040429Y-62342487D01*
X142069457Y-62400544D01*
X142069457Y-62545687D01*
X142098486Y-62603744D01*
X141837229Y-62981116D02*
X141866257Y-62923058D01*
X141924314Y-62894030D01*
X142446829Y-62894030D01*
X141866257Y-63445572D02*
X141837229Y-63387515D01*
X141837229Y-63271401D01*
X141866257Y-63213344D01*
X141924314Y-63184315D01*
X142156543Y-63184315D01*
X142214600Y-63213344D01*
X142243629Y-63271401D01*
X142243629Y-63387515D01*
X142214600Y-63445572D01*
X142156543Y-63474601D01*
X142098486Y-63474601D01*
X142040429Y-63184315D01*
X141866257Y-64171286D02*
X141837229Y-64258372D01*
X141837229Y-64403515D01*
X141866257Y-64461572D01*
X141895286Y-64490601D01*
X141953343Y-64519629D01*
X142011400Y-64519629D01*
X142069457Y-64490601D01*
X142098486Y-64461572D01*
X142127514Y-64403515D01*
X142156543Y-64287401D01*
X142185571Y-64229343D01*
X142214600Y-64200315D01*
X142272657Y-64171286D01*
X142330714Y-64171286D01*
X142388771Y-64200315D01*
X142417800Y-64229343D01*
X142446829Y-64287401D01*
X142446829Y-64432543D01*
X142417800Y-64519629D01*
X141866257Y-65013114D02*
X141837229Y-64955057D01*
X141837229Y-64838943D01*
X141866257Y-64780886D01*
X141924314Y-64751857D01*
X142156543Y-64751857D01*
X142214600Y-64780886D01*
X142243629Y-64838943D01*
X142243629Y-64955057D01*
X142214600Y-65013114D01*
X142156543Y-65042143D01*
X142098486Y-65042143D01*
X142040429Y-64751857D01*
X142243629Y-65303400D02*
X141837229Y-65303400D01*
X142185571Y-65303400D02*
X142214600Y-65332428D01*
X142243629Y-65390486D01*
X142243629Y-65477571D01*
X142214600Y-65535628D01*
X142156543Y-65564657D01*
X141837229Y-65564657D01*
X141866257Y-65825914D02*
X141837229Y-65883971D01*
X141837229Y-66000086D01*
X141866257Y-66058143D01*
X141924314Y-66087171D01*
X141953343Y-66087171D01*
X142011400Y-66058143D01*
X142040429Y-66000086D01*
X142040429Y-65913000D01*
X142069457Y-65854943D01*
X142127514Y-65825914D01*
X142156543Y-65825914D01*
X142214600Y-65854943D01*
X142243629Y-65913000D01*
X142243629Y-66000086D01*
X142214600Y-66058143D01*
X141837229Y-66435515D02*
X141866257Y-66377457D01*
X141895286Y-66348429D01*
X141953343Y-66319400D01*
X142127514Y-66319400D01*
X142185571Y-66348429D01*
X142214600Y-66377457D01*
X142243629Y-66435515D01*
X142243629Y-66522600D01*
X142214600Y-66580657D01*
X142185571Y-66609686D01*
X142127514Y-66638715D01*
X141953343Y-66638715D01*
X141895286Y-66609686D01*
X141866257Y-66580657D01*
X141837229Y-66522600D01*
X141837229Y-66435515D01*
X141837229Y-66899972D02*
X142243629Y-66899972D01*
X142127514Y-66899972D02*
X142185571Y-66929000D01*
X142214600Y-66958029D01*
X142243629Y-67016086D01*
X142243629Y-67074143D01*
X142446829Y-67654714D02*
X141837229Y-67857914D01*
X142446829Y-68061114D01*
X142388771Y-68235285D02*
X142417800Y-68264314D01*
X142446829Y-68322371D01*
X142446829Y-68467514D01*
X142417800Y-68525571D01*
X142388771Y-68554600D01*
X142330714Y-68583628D01*
X142272657Y-68583628D01*
X142185571Y-68554600D01*
X141837229Y-68206257D01*
X141837229Y-68583628D01*
D12*
X127584200Y-69977000D02*
X127584200Y-70739000D01*
X127508000Y-70383400D02*
X127508000Y-70739000D01*
X127508000Y-70739000D02*
X127660400Y-70739000D01*
X127660400Y-70739000D02*
X127609600Y-70739000D01*
X127609600Y-70739000D02*
X127609600Y-70383400D01*
X140182600Y-70332600D02*
X140182600Y-70789800D01*
X140182600Y-70789800D02*
X140309600Y-70789800D01*
X140309600Y-70789800D02*
X140258800Y-70789800D01*
X140258800Y-70789800D02*
X140284200Y-70789800D01*
X140284200Y-70789800D02*
X140284200Y-70281800D01*
D11*
X141811829Y-112115601D02*
X142421429Y-112115601D01*
X142131143Y-112115601D02*
X142131143Y-112463944D01*
X141811829Y-112463944D02*
X142421429Y-112463944D01*
X141811829Y-113015487D02*
X142131143Y-113015487D01*
X142189200Y-112986458D01*
X142218229Y-112928401D01*
X142218229Y-112812287D01*
X142189200Y-112754230D01*
X141840857Y-113015487D02*
X141811829Y-112957430D01*
X141811829Y-112812287D01*
X141840857Y-112754230D01*
X141898914Y-112725201D01*
X141956971Y-112725201D01*
X142015029Y-112754230D01*
X142044057Y-112812287D01*
X142044057Y-112957430D01*
X142073086Y-113015487D01*
X142218229Y-113247716D02*
X141811829Y-113392859D01*
X142218229Y-113538001D02*
X141811829Y-113392859D01*
X141666686Y-113334801D01*
X141637657Y-113305773D01*
X141608629Y-113247716D01*
X142131143Y-114437887D02*
X142102114Y-114524973D01*
X142073086Y-114554001D01*
X142015029Y-114583030D01*
X141927943Y-114583030D01*
X141869886Y-114554001D01*
X141840857Y-114524973D01*
X141811829Y-114466915D01*
X141811829Y-114234687D01*
X142421429Y-114234687D01*
X142421429Y-114437887D01*
X142392400Y-114495944D01*
X142363371Y-114524973D01*
X142305314Y-114554001D01*
X142247257Y-114554001D01*
X142189200Y-114524973D01*
X142160171Y-114495944D01*
X142131143Y-114437887D01*
X142131143Y-114234687D01*
X141811829Y-115105544D02*
X142131143Y-115105544D01*
X142189200Y-115076515D01*
X142218229Y-115018458D01*
X142218229Y-114902344D01*
X142189200Y-114844287D01*
X141840857Y-115105544D02*
X141811829Y-115047487D01*
X141811829Y-114902344D01*
X141840857Y-114844287D01*
X141898914Y-114815258D01*
X141956971Y-114815258D01*
X142015029Y-114844287D01*
X142044057Y-114902344D01*
X142044057Y-115047487D01*
X142073086Y-115105544D01*
X141811829Y-115482916D02*
X141840857Y-115424858D01*
X141898914Y-115395830D01*
X142421429Y-115395830D01*
X141840857Y-115947372D02*
X141811829Y-115889315D01*
X141811829Y-115773201D01*
X141840857Y-115715144D01*
X141898914Y-115686115D01*
X142131143Y-115686115D01*
X142189200Y-115715144D01*
X142218229Y-115773201D01*
X142218229Y-115889315D01*
X142189200Y-115947372D01*
X142131143Y-115976401D01*
X142073086Y-115976401D01*
X142015029Y-115686115D01*
X141840857Y-116673086D02*
X141811829Y-116760172D01*
X141811829Y-116905315D01*
X141840857Y-116963372D01*
X141869886Y-116992401D01*
X141927943Y-117021429D01*
X141986000Y-117021429D01*
X142044057Y-116992401D01*
X142073086Y-116963372D01*
X142102114Y-116905315D01*
X142131143Y-116789201D01*
X142160171Y-116731143D01*
X142189200Y-116702115D01*
X142247257Y-116673086D01*
X142305314Y-116673086D01*
X142363371Y-116702115D01*
X142392400Y-116731143D01*
X142421429Y-116789201D01*
X142421429Y-116934343D01*
X142392400Y-117021429D01*
X141840857Y-117514914D02*
X141811829Y-117456857D01*
X141811829Y-117340743D01*
X141840857Y-117282686D01*
X141898914Y-117253657D01*
X142131143Y-117253657D01*
X142189200Y-117282686D01*
X142218229Y-117340743D01*
X142218229Y-117456857D01*
X142189200Y-117514914D01*
X142131143Y-117543943D01*
X142073086Y-117543943D01*
X142015029Y-117253657D01*
X142218229Y-117805200D02*
X141811829Y-117805200D01*
X142160171Y-117805200D02*
X142189200Y-117834228D01*
X142218229Y-117892286D01*
X142218229Y-117979371D01*
X142189200Y-118037428D01*
X142131143Y-118066457D01*
X141811829Y-118066457D01*
X141840857Y-118327714D02*
X141811829Y-118385771D01*
X141811829Y-118501886D01*
X141840857Y-118559943D01*
X141898914Y-118588971D01*
X141927943Y-118588971D01*
X141986000Y-118559943D01*
X142015029Y-118501886D01*
X142015029Y-118414800D01*
X142044057Y-118356743D01*
X142102114Y-118327714D01*
X142131143Y-118327714D01*
X142189200Y-118356743D01*
X142218229Y-118414800D01*
X142218229Y-118501886D01*
X142189200Y-118559943D01*
X141811829Y-118937315D02*
X141840857Y-118879257D01*
X141869886Y-118850229D01*
X141927943Y-118821200D01*
X142102114Y-118821200D01*
X142160171Y-118850229D01*
X142189200Y-118879257D01*
X142218229Y-118937315D01*
X142218229Y-119024400D01*
X142189200Y-119082457D01*
X142160171Y-119111486D01*
X142102114Y-119140515D01*
X141927943Y-119140515D01*
X141869886Y-119111486D01*
X141840857Y-119082457D01*
X141811829Y-119024400D01*
X141811829Y-118937315D01*
X141811829Y-119401772D02*
X142218229Y-119401772D01*
X142102114Y-119401772D02*
X142160171Y-119430800D01*
X142189200Y-119459829D01*
X142218229Y-119517886D01*
X142218229Y-119575943D01*
X142421429Y-120156514D02*
X141811829Y-120359714D01*
X142421429Y-120562914D01*
X142363371Y-120737085D02*
X142392400Y-120766114D01*
X142421429Y-120824171D01*
X142421429Y-120969314D01*
X142392400Y-121027371D01*
X142363371Y-121056400D01*
X142305314Y-121085428D01*
X142247257Y-121085428D01*
X142160171Y-121056400D01*
X141811829Y-120708057D01*
X141811829Y-121085428D01*
D12*
X146431000Y-20294600D02*
X146431000Y-124891800D01*
X146431000Y-124891800D02*
X146431000Y-124866400D01*
X171831000Y-20294600D02*
X171831000Y-124891800D01*
X197231000Y-20294600D02*
X197231000Y-124891800D01*
X171831000Y-124891800D02*
X171831000Y-124866400D01*
X171831000Y-20294600D02*
X171831000Y-124891800D01*
D11*
X167211829Y-112115601D02*
X167821429Y-112115601D01*
X167531143Y-112115601D02*
X167531143Y-112463944D01*
X167211829Y-112463944D02*
X167821429Y-112463944D01*
X167211829Y-113015487D02*
X167531143Y-113015487D01*
X167589200Y-112986458D01*
X167618229Y-112928401D01*
X167618229Y-112812287D01*
X167589200Y-112754230D01*
X167240857Y-113015487D02*
X167211829Y-112957430D01*
X167211829Y-112812287D01*
X167240857Y-112754230D01*
X167298914Y-112725201D01*
X167356971Y-112725201D01*
X167415029Y-112754230D01*
X167444057Y-112812287D01*
X167444057Y-112957430D01*
X167473086Y-113015487D01*
X167618229Y-113247716D02*
X167211829Y-113392859D01*
X167618229Y-113538001D02*
X167211829Y-113392859D01*
X167066686Y-113334801D01*
X167037657Y-113305773D01*
X167008629Y-113247716D01*
X167531143Y-114437887D02*
X167502114Y-114524973D01*
X167473086Y-114554001D01*
X167415029Y-114583030D01*
X167327943Y-114583030D01*
X167269886Y-114554001D01*
X167240857Y-114524973D01*
X167211829Y-114466915D01*
X167211829Y-114234687D01*
X167821429Y-114234687D01*
X167821429Y-114437887D01*
X167792400Y-114495944D01*
X167763371Y-114524973D01*
X167705314Y-114554001D01*
X167647257Y-114554001D01*
X167589200Y-114524973D01*
X167560171Y-114495944D01*
X167531143Y-114437887D01*
X167531143Y-114234687D01*
X167211829Y-115105544D02*
X167531143Y-115105544D01*
X167589200Y-115076515D01*
X167618229Y-115018458D01*
X167618229Y-114902344D01*
X167589200Y-114844287D01*
X167240857Y-115105544D02*
X167211829Y-115047487D01*
X167211829Y-114902344D01*
X167240857Y-114844287D01*
X167298914Y-114815258D01*
X167356971Y-114815258D01*
X167415029Y-114844287D01*
X167444057Y-114902344D01*
X167444057Y-115047487D01*
X167473086Y-115105544D01*
X167211829Y-115482916D02*
X167240857Y-115424858D01*
X167298914Y-115395830D01*
X167821429Y-115395830D01*
X167240857Y-115947372D02*
X167211829Y-115889315D01*
X167211829Y-115773201D01*
X167240857Y-115715144D01*
X167298914Y-115686115D01*
X167531143Y-115686115D01*
X167589200Y-115715144D01*
X167618229Y-115773201D01*
X167618229Y-115889315D01*
X167589200Y-115947372D01*
X167531143Y-115976401D01*
X167473086Y-115976401D01*
X167415029Y-115686115D01*
X167240857Y-116673086D02*
X167211829Y-116760172D01*
X167211829Y-116905315D01*
X167240857Y-116963372D01*
X167269886Y-116992401D01*
X167327943Y-117021429D01*
X167386000Y-117021429D01*
X167444057Y-116992401D01*
X167473086Y-116963372D01*
X167502114Y-116905315D01*
X167531143Y-116789201D01*
X167560171Y-116731143D01*
X167589200Y-116702115D01*
X167647257Y-116673086D01*
X167705314Y-116673086D01*
X167763371Y-116702115D01*
X167792400Y-116731143D01*
X167821429Y-116789201D01*
X167821429Y-116934343D01*
X167792400Y-117021429D01*
X167240857Y-117514914D02*
X167211829Y-117456857D01*
X167211829Y-117340743D01*
X167240857Y-117282686D01*
X167298914Y-117253657D01*
X167531143Y-117253657D01*
X167589200Y-117282686D01*
X167618229Y-117340743D01*
X167618229Y-117456857D01*
X167589200Y-117514914D01*
X167531143Y-117543943D01*
X167473086Y-117543943D01*
X167415029Y-117253657D01*
X167618229Y-117805200D02*
X167211829Y-117805200D01*
X167560171Y-117805200D02*
X167589200Y-117834228D01*
X167618229Y-117892286D01*
X167618229Y-117979371D01*
X167589200Y-118037428D01*
X167531143Y-118066457D01*
X167211829Y-118066457D01*
X167240857Y-118327714D02*
X167211829Y-118385771D01*
X167211829Y-118501886D01*
X167240857Y-118559943D01*
X167298914Y-118588971D01*
X167327943Y-118588971D01*
X167386000Y-118559943D01*
X167415029Y-118501886D01*
X167415029Y-118414800D01*
X167444057Y-118356743D01*
X167502114Y-118327714D01*
X167531143Y-118327714D01*
X167589200Y-118356743D01*
X167618229Y-118414800D01*
X167618229Y-118501886D01*
X167589200Y-118559943D01*
X167211829Y-118937315D02*
X167240857Y-118879257D01*
X167269886Y-118850229D01*
X167327943Y-118821200D01*
X167502114Y-118821200D01*
X167560171Y-118850229D01*
X167589200Y-118879257D01*
X167618229Y-118937315D01*
X167618229Y-119024400D01*
X167589200Y-119082457D01*
X167560171Y-119111486D01*
X167502114Y-119140515D01*
X167327943Y-119140515D01*
X167269886Y-119111486D01*
X167240857Y-119082457D01*
X167211829Y-119024400D01*
X167211829Y-118937315D01*
X167211829Y-119401772D02*
X167618229Y-119401772D01*
X167502114Y-119401772D02*
X167560171Y-119430800D01*
X167589200Y-119459829D01*
X167618229Y-119517886D01*
X167618229Y-119575943D01*
X167821429Y-120156514D02*
X167211829Y-120359714D01*
X167821429Y-120562914D01*
X167763371Y-120737085D02*
X167792400Y-120766114D01*
X167821429Y-120824171D01*
X167821429Y-120969314D01*
X167792400Y-121027371D01*
X167763371Y-121056400D01*
X167705314Y-121085428D01*
X167647257Y-121085428D01*
X167560171Y-121056400D01*
X167211829Y-120708057D01*
X167211829Y-121085428D01*
D12*
X165684200Y-70789800D02*
X165684200Y-70281800D01*
X165658800Y-70789800D02*
X165684200Y-70789800D01*
X165709600Y-70789800D02*
X165658800Y-70789800D01*
X165582600Y-70789800D02*
X165709600Y-70789800D01*
X165582600Y-70332600D02*
X165582600Y-70789800D01*
X153009600Y-70739000D02*
X153009600Y-70383400D01*
X153060400Y-70739000D02*
X153009600Y-70739000D01*
X152908000Y-70739000D02*
X153060400Y-70739000D01*
X152908000Y-70383400D02*
X152908000Y-70739000D01*
X152984200Y-69977000D02*
X152984200Y-70739000D01*
D11*
X167237229Y-59613801D02*
X167846829Y-59613801D01*
X167556543Y-59613801D02*
X167556543Y-59962144D01*
X167237229Y-59962144D02*
X167846829Y-59962144D01*
X167237229Y-60513687D02*
X167556543Y-60513687D01*
X167614600Y-60484658D01*
X167643629Y-60426601D01*
X167643629Y-60310487D01*
X167614600Y-60252430D01*
X167266257Y-60513687D02*
X167237229Y-60455630D01*
X167237229Y-60310487D01*
X167266257Y-60252430D01*
X167324314Y-60223401D01*
X167382371Y-60223401D01*
X167440429Y-60252430D01*
X167469457Y-60310487D01*
X167469457Y-60455630D01*
X167498486Y-60513687D01*
X167643629Y-60745916D02*
X167237229Y-60891059D01*
X167643629Y-61036201D02*
X167237229Y-60891059D01*
X167092086Y-60833001D01*
X167063057Y-60803973D01*
X167034029Y-60745916D01*
X167556543Y-61936087D02*
X167527514Y-62023173D01*
X167498486Y-62052201D01*
X167440429Y-62081230D01*
X167353343Y-62081230D01*
X167295286Y-62052201D01*
X167266257Y-62023173D01*
X167237229Y-61965115D01*
X167237229Y-61732887D01*
X167846829Y-61732887D01*
X167846829Y-61936087D01*
X167817800Y-61994144D01*
X167788771Y-62023173D01*
X167730714Y-62052201D01*
X167672657Y-62052201D01*
X167614600Y-62023173D01*
X167585571Y-61994144D01*
X167556543Y-61936087D01*
X167556543Y-61732887D01*
X167237229Y-62603744D02*
X167556543Y-62603744D01*
X167614600Y-62574715D01*
X167643629Y-62516658D01*
X167643629Y-62400544D01*
X167614600Y-62342487D01*
X167266257Y-62603744D02*
X167237229Y-62545687D01*
X167237229Y-62400544D01*
X167266257Y-62342487D01*
X167324314Y-62313458D01*
X167382371Y-62313458D01*
X167440429Y-62342487D01*
X167469457Y-62400544D01*
X167469457Y-62545687D01*
X167498486Y-62603744D01*
X167237229Y-62981116D02*
X167266257Y-62923058D01*
X167324314Y-62894030D01*
X167846829Y-62894030D01*
X167266257Y-63445572D02*
X167237229Y-63387515D01*
X167237229Y-63271401D01*
X167266257Y-63213344D01*
X167324314Y-63184315D01*
X167556543Y-63184315D01*
X167614600Y-63213344D01*
X167643629Y-63271401D01*
X167643629Y-63387515D01*
X167614600Y-63445572D01*
X167556543Y-63474601D01*
X167498486Y-63474601D01*
X167440429Y-63184315D01*
X167266257Y-64171286D02*
X167237229Y-64258372D01*
X167237229Y-64403515D01*
X167266257Y-64461572D01*
X167295286Y-64490601D01*
X167353343Y-64519629D01*
X167411400Y-64519629D01*
X167469457Y-64490601D01*
X167498486Y-64461572D01*
X167527514Y-64403515D01*
X167556543Y-64287401D01*
X167585571Y-64229343D01*
X167614600Y-64200315D01*
X167672657Y-64171286D01*
X167730714Y-64171286D01*
X167788771Y-64200315D01*
X167817800Y-64229343D01*
X167846829Y-64287401D01*
X167846829Y-64432543D01*
X167817800Y-64519629D01*
X167266257Y-65013114D02*
X167237229Y-64955057D01*
X167237229Y-64838943D01*
X167266257Y-64780886D01*
X167324314Y-64751857D01*
X167556543Y-64751857D01*
X167614600Y-64780886D01*
X167643629Y-64838943D01*
X167643629Y-64955057D01*
X167614600Y-65013114D01*
X167556543Y-65042143D01*
X167498486Y-65042143D01*
X167440429Y-64751857D01*
X167643629Y-65303400D02*
X167237229Y-65303400D01*
X167585571Y-65303400D02*
X167614600Y-65332428D01*
X167643629Y-65390486D01*
X167643629Y-65477571D01*
X167614600Y-65535628D01*
X167556543Y-65564657D01*
X167237229Y-65564657D01*
X167266257Y-65825914D02*
X167237229Y-65883971D01*
X167237229Y-66000086D01*
X167266257Y-66058143D01*
X167324314Y-66087171D01*
X167353343Y-66087171D01*
X167411400Y-66058143D01*
X167440429Y-66000086D01*
X167440429Y-65913000D01*
X167469457Y-65854943D01*
X167527514Y-65825914D01*
X167556543Y-65825914D01*
X167614600Y-65854943D01*
X167643629Y-65913000D01*
X167643629Y-66000086D01*
X167614600Y-66058143D01*
X167237229Y-66435515D02*
X167266257Y-66377457D01*
X167295286Y-66348429D01*
X167353343Y-66319400D01*
X167527514Y-66319400D01*
X167585571Y-66348429D01*
X167614600Y-66377457D01*
X167643629Y-66435515D01*
X167643629Y-66522600D01*
X167614600Y-66580657D01*
X167585571Y-66609686D01*
X167527514Y-66638715D01*
X167353343Y-66638715D01*
X167295286Y-66609686D01*
X167266257Y-66580657D01*
X167237229Y-66522600D01*
X167237229Y-66435515D01*
X167237229Y-66899972D02*
X167643629Y-66899972D01*
X167527514Y-66899972D02*
X167585571Y-66929000D01*
X167614600Y-66958029D01*
X167643629Y-67016086D01*
X167643629Y-67074143D01*
X167846829Y-67654714D02*
X167237229Y-67857914D01*
X167846829Y-68061114D01*
X167788771Y-68235285D02*
X167817800Y-68264314D01*
X167846829Y-68322371D01*
X167846829Y-68467514D01*
X167817800Y-68525571D01*
X167788771Y-68554600D01*
X167730714Y-68583628D01*
X167672657Y-68583628D01*
X167585571Y-68554600D01*
X167237229Y-68206257D01*
X167237229Y-68583628D01*
D13*
X165636000Y-57671200D02*
X165636000Y-70371200D01*
X165661400Y-70726800D02*
X152961400Y-70726800D01*
X165636000Y-57722000D02*
X152936000Y-57722000D01*
X152961400Y-57747400D02*
X152961400Y-70447400D01*
X203761400Y-57747400D02*
X203761400Y-70447400D01*
X216436000Y-57722000D02*
X203736000Y-57722000D01*
X216461400Y-70726800D02*
X203761400Y-70726800D01*
X216436000Y-57671200D02*
X216436000Y-70371200D01*
D12*
X203784200Y-69977000D02*
X203784200Y-70739000D01*
X203708000Y-70383400D02*
X203708000Y-70739000D01*
X203708000Y-70739000D02*
X203860400Y-70739000D01*
X203860400Y-70739000D02*
X203809600Y-70739000D01*
X203809600Y-70739000D02*
X203809600Y-70383400D01*
X216382600Y-70332600D02*
X216382600Y-70789800D01*
X216382600Y-70789800D02*
X216509600Y-70789800D01*
X216509600Y-70789800D02*
X216458800Y-70789800D01*
X216458800Y-70789800D02*
X216484200Y-70789800D01*
X216484200Y-70789800D02*
X216484200Y-70281800D01*
X197231000Y-124891800D02*
X197231000Y-124866400D01*
X197231000Y-20294600D02*
X197231000Y-124891800D01*
D11*
X192611829Y-112115601D02*
X193221429Y-112115601D01*
X192931143Y-112115601D02*
X192931143Y-112463944D01*
X192611829Y-112463944D02*
X193221429Y-112463944D01*
X192611829Y-113015487D02*
X192931143Y-113015487D01*
X192989200Y-112986458D01*
X193018229Y-112928401D01*
X193018229Y-112812287D01*
X192989200Y-112754230D01*
X192640857Y-113015487D02*
X192611829Y-112957430D01*
X192611829Y-112812287D01*
X192640857Y-112754230D01*
X192698914Y-112725201D01*
X192756971Y-112725201D01*
X192815029Y-112754230D01*
X192844057Y-112812287D01*
X192844057Y-112957430D01*
X192873086Y-113015487D01*
X193018229Y-113247716D02*
X192611829Y-113392859D01*
X193018229Y-113538001D02*
X192611829Y-113392859D01*
X192466686Y-113334801D01*
X192437657Y-113305773D01*
X192408629Y-113247716D01*
X192931143Y-114437887D02*
X192902114Y-114524973D01*
X192873086Y-114554001D01*
X192815029Y-114583030D01*
X192727943Y-114583030D01*
X192669886Y-114554001D01*
X192640857Y-114524973D01*
X192611829Y-114466915D01*
X192611829Y-114234687D01*
X193221429Y-114234687D01*
X193221429Y-114437887D01*
X193192400Y-114495944D01*
X193163371Y-114524973D01*
X193105314Y-114554001D01*
X193047257Y-114554001D01*
X192989200Y-114524973D01*
X192960171Y-114495944D01*
X192931143Y-114437887D01*
X192931143Y-114234687D01*
X192611829Y-115105544D02*
X192931143Y-115105544D01*
X192989200Y-115076515D01*
X193018229Y-115018458D01*
X193018229Y-114902344D01*
X192989200Y-114844287D01*
X192640857Y-115105544D02*
X192611829Y-115047487D01*
X192611829Y-114902344D01*
X192640857Y-114844287D01*
X192698914Y-114815258D01*
X192756971Y-114815258D01*
X192815029Y-114844287D01*
X192844057Y-114902344D01*
X192844057Y-115047487D01*
X192873086Y-115105544D01*
X192611829Y-115482916D02*
X192640857Y-115424858D01*
X192698914Y-115395830D01*
X193221429Y-115395830D01*
X192640857Y-115947372D02*
X192611829Y-115889315D01*
X192611829Y-115773201D01*
X192640857Y-115715144D01*
X192698914Y-115686115D01*
X192931143Y-115686115D01*
X192989200Y-115715144D01*
X193018229Y-115773201D01*
X193018229Y-115889315D01*
X192989200Y-115947372D01*
X192931143Y-115976401D01*
X192873086Y-115976401D01*
X192815029Y-115686115D01*
X192640857Y-116673086D02*
X192611829Y-116760172D01*
X192611829Y-116905315D01*
X192640857Y-116963372D01*
X192669886Y-116992401D01*
X192727943Y-117021429D01*
X192786000Y-117021429D01*
X192844057Y-116992401D01*
X192873086Y-116963372D01*
X192902114Y-116905315D01*
X192931143Y-116789201D01*
X192960171Y-116731143D01*
X192989200Y-116702115D01*
X193047257Y-116673086D01*
X193105314Y-116673086D01*
X193163371Y-116702115D01*
X193192400Y-116731143D01*
X193221429Y-116789201D01*
X193221429Y-116934343D01*
X193192400Y-117021429D01*
X192640857Y-117514914D02*
X192611829Y-117456857D01*
X192611829Y-117340743D01*
X192640857Y-117282686D01*
X192698914Y-117253657D01*
X192931143Y-117253657D01*
X192989200Y-117282686D01*
X193018229Y-117340743D01*
X193018229Y-117456857D01*
X192989200Y-117514914D01*
X192931143Y-117543943D01*
X192873086Y-117543943D01*
X192815029Y-117253657D01*
X193018229Y-117805200D02*
X192611829Y-117805200D01*
X192960171Y-117805200D02*
X192989200Y-117834228D01*
X193018229Y-117892286D01*
X193018229Y-117979371D01*
X192989200Y-118037428D01*
X192931143Y-118066457D01*
X192611829Y-118066457D01*
X192640857Y-118327714D02*
X192611829Y-118385771D01*
X192611829Y-118501886D01*
X192640857Y-118559943D01*
X192698914Y-118588971D01*
X192727943Y-118588971D01*
X192786000Y-118559943D01*
X192815029Y-118501886D01*
X192815029Y-118414800D01*
X192844057Y-118356743D01*
X192902114Y-118327714D01*
X192931143Y-118327714D01*
X192989200Y-118356743D01*
X193018229Y-118414800D01*
X193018229Y-118501886D01*
X192989200Y-118559943D01*
X192611829Y-118937315D02*
X192640857Y-118879257D01*
X192669886Y-118850229D01*
X192727943Y-118821200D01*
X192902114Y-118821200D01*
X192960171Y-118850229D01*
X192989200Y-118879257D01*
X193018229Y-118937315D01*
X193018229Y-119024400D01*
X192989200Y-119082457D01*
X192960171Y-119111486D01*
X192902114Y-119140515D01*
X192727943Y-119140515D01*
X192669886Y-119111486D01*
X192640857Y-119082457D01*
X192611829Y-119024400D01*
X192611829Y-118937315D01*
X192611829Y-119401772D02*
X193018229Y-119401772D01*
X192902114Y-119401772D02*
X192960171Y-119430800D01*
X192989200Y-119459829D01*
X193018229Y-119517886D01*
X193018229Y-119575943D01*
X193221429Y-120156514D02*
X192611829Y-120359714D01*
X193221429Y-120562914D01*
X193163371Y-120737085D02*
X193192400Y-120766114D01*
X193221429Y-120824171D01*
X193221429Y-120969314D01*
X193192400Y-121027371D01*
X193163371Y-121056400D01*
X193105314Y-121085428D01*
X193047257Y-121085428D01*
X192960171Y-121056400D01*
X192611829Y-120708057D01*
X192611829Y-121085428D01*
D12*
X191084200Y-70789800D02*
X191084200Y-70281800D01*
X191058800Y-70789800D02*
X191084200Y-70789800D01*
X191109600Y-70789800D02*
X191058800Y-70789800D01*
X190982600Y-70789800D02*
X191109600Y-70789800D01*
X190982600Y-70332600D02*
X190982600Y-70789800D01*
X178409600Y-70739000D02*
X178409600Y-70383400D01*
X178460400Y-70739000D02*
X178409600Y-70739000D01*
X178308000Y-70739000D02*
X178460400Y-70739000D01*
X178308000Y-70383400D02*
X178308000Y-70739000D01*
X178384200Y-69977000D02*
X178384200Y-70739000D01*
D11*
X192637229Y-59613801D02*
X193246829Y-59613801D01*
X192956543Y-59613801D02*
X192956543Y-59962144D01*
X192637229Y-59962144D02*
X193246829Y-59962144D01*
X192637229Y-60513687D02*
X192956543Y-60513687D01*
X193014600Y-60484658D01*
X193043629Y-60426601D01*
X193043629Y-60310487D01*
X193014600Y-60252430D01*
X192666257Y-60513687D02*
X192637229Y-60455630D01*
X192637229Y-60310487D01*
X192666257Y-60252430D01*
X192724314Y-60223401D01*
X192782371Y-60223401D01*
X192840429Y-60252430D01*
X192869457Y-60310487D01*
X192869457Y-60455630D01*
X192898486Y-60513687D01*
X193043629Y-60745916D02*
X192637229Y-60891059D01*
X193043629Y-61036201D02*
X192637229Y-60891059D01*
X192492086Y-60833001D01*
X192463057Y-60803973D01*
X192434029Y-60745916D01*
X192956543Y-61936087D02*
X192927514Y-62023173D01*
X192898486Y-62052201D01*
X192840429Y-62081230D01*
X192753343Y-62081230D01*
X192695286Y-62052201D01*
X192666257Y-62023173D01*
X192637229Y-61965115D01*
X192637229Y-61732887D01*
X193246829Y-61732887D01*
X193246829Y-61936087D01*
X193217800Y-61994144D01*
X193188771Y-62023173D01*
X193130714Y-62052201D01*
X193072657Y-62052201D01*
X193014600Y-62023173D01*
X192985571Y-61994144D01*
X192956543Y-61936087D01*
X192956543Y-61732887D01*
X192637229Y-62603744D02*
X192956543Y-62603744D01*
X193014600Y-62574715D01*
X193043629Y-62516658D01*
X193043629Y-62400544D01*
X193014600Y-62342487D01*
X192666257Y-62603744D02*
X192637229Y-62545687D01*
X192637229Y-62400544D01*
X192666257Y-62342487D01*
X192724314Y-62313458D01*
X192782371Y-62313458D01*
X192840429Y-62342487D01*
X192869457Y-62400544D01*
X192869457Y-62545687D01*
X192898486Y-62603744D01*
X192637229Y-62981116D02*
X192666257Y-62923058D01*
X192724314Y-62894030D01*
X193246829Y-62894030D01*
X192666257Y-63445572D02*
X192637229Y-63387515D01*
X192637229Y-63271401D01*
X192666257Y-63213344D01*
X192724314Y-63184315D01*
X192956543Y-63184315D01*
X193014600Y-63213344D01*
X193043629Y-63271401D01*
X193043629Y-63387515D01*
X193014600Y-63445572D01*
X192956543Y-63474601D01*
X192898486Y-63474601D01*
X192840429Y-63184315D01*
X192666257Y-64171286D02*
X192637229Y-64258372D01*
X192637229Y-64403515D01*
X192666257Y-64461572D01*
X192695286Y-64490601D01*
X192753343Y-64519629D01*
X192811400Y-64519629D01*
X192869457Y-64490601D01*
X192898486Y-64461572D01*
X192927514Y-64403515D01*
X192956543Y-64287401D01*
X192985571Y-64229343D01*
X193014600Y-64200315D01*
X193072657Y-64171286D01*
X193130714Y-64171286D01*
X193188771Y-64200315D01*
X193217800Y-64229343D01*
X193246829Y-64287401D01*
X193246829Y-64432543D01*
X193217800Y-64519629D01*
X192666257Y-65013114D02*
X192637229Y-64955057D01*
X192637229Y-64838943D01*
X192666257Y-64780886D01*
X192724314Y-64751857D01*
X192956543Y-64751857D01*
X193014600Y-64780886D01*
X193043629Y-64838943D01*
X193043629Y-64955057D01*
X193014600Y-65013114D01*
X192956543Y-65042143D01*
X192898486Y-65042143D01*
X192840429Y-64751857D01*
X193043629Y-65303400D02*
X192637229Y-65303400D01*
X192985571Y-65303400D02*
X193014600Y-65332428D01*
X193043629Y-65390486D01*
X193043629Y-65477571D01*
X193014600Y-65535628D01*
X192956543Y-65564657D01*
X192637229Y-65564657D01*
X192666257Y-65825914D02*
X192637229Y-65883971D01*
X192637229Y-66000086D01*
X192666257Y-66058143D01*
X192724314Y-66087171D01*
X192753343Y-66087171D01*
X192811400Y-66058143D01*
X192840429Y-66000086D01*
X192840429Y-65913000D01*
X192869457Y-65854943D01*
X192927514Y-65825914D01*
X192956543Y-65825914D01*
X193014600Y-65854943D01*
X193043629Y-65913000D01*
X193043629Y-66000086D01*
X193014600Y-66058143D01*
X192637229Y-66435515D02*
X192666257Y-66377457D01*
X192695286Y-66348429D01*
X192753343Y-66319400D01*
X192927514Y-66319400D01*
X192985571Y-66348429D01*
X193014600Y-66377457D01*
X193043629Y-66435515D01*
X193043629Y-66522600D01*
X193014600Y-66580657D01*
X192985571Y-66609686D01*
X192927514Y-66638715D01*
X192753343Y-66638715D01*
X192695286Y-66609686D01*
X192666257Y-66580657D01*
X192637229Y-66522600D01*
X192637229Y-66435515D01*
X192637229Y-66899972D02*
X193043629Y-66899972D01*
X192927514Y-66899972D02*
X192985571Y-66929000D01*
X193014600Y-66958029D01*
X193043629Y-67016086D01*
X193043629Y-67074143D01*
X193246829Y-67654714D02*
X192637229Y-67857914D01*
X193246829Y-68061114D01*
X193188771Y-68235285D02*
X193217800Y-68264314D01*
X193246829Y-68322371D01*
X193246829Y-68467514D01*
X193217800Y-68525571D01*
X193188771Y-68554600D01*
X193130714Y-68583628D01*
X193072657Y-68583628D01*
X192985571Y-68554600D01*
X192637229Y-68206257D01*
X192637229Y-68583628D01*
D13*
X191036000Y-57671200D02*
X191036000Y-70371200D01*
X191061400Y-70726800D02*
X178361400Y-70726800D01*
X191036000Y-57722000D02*
X178336000Y-57722000D01*
X178361400Y-57747400D02*
X178361400Y-70447400D01*
X76761400Y-57747400D02*
X76761400Y-70447400D01*
X89436000Y-57722000D02*
X76736000Y-57722000D01*
X89461400Y-70726800D02*
X76761400Y-70726800D01*
X89436000Y-57671200D02*
X89436000Y-70371200D01*
D11*
X91037229Y-59613801D02*
X91646829Y-59613801D01*
X91356543Y-59613801D02*
X91356543Y-59962144D01*
X91037229Y-59962144D02*
X91646829Y-59962144D01*
X91037229Y-60513687D02*
X91356543Y-60513687D01*
X91414600Y-60484658D01*
X91443629Y-60426601D01*
X91443629Y-60310487D01*
X91414600Y-60252430D01*
X91066257Y-60513687D02*
X91037229Y-60455630D01*
X91037229Y-60310487D01*
X91066257Y-60252430D01*
X91124314Y-60223401D01*
X91182371Y-60223401D01*
X91240429Y-60252430D01*
X91269457Y-60310487D01*
X91269457Y-60455630D01*
X91298486Y-60513687D01*
X91443629Y-60745916D02*
X91037229Y-60891059D01*
X91443629Y-61036201D02*
X91037229Y-60891059D01*
X90892086Y-60833001D01*
X90863057Y-60803973D01*
X90834029Y-60745916D01*
X91356543Y-61936087D02*
X91327514Y-62023173D01*
X91298486Y-62052201D01*
X91240429Y-62081230D01*
X91153343Y-62081230D01*
X91095286Y-62052201D01*
X91066257Y-62023173D01*
X91037229Y-61965115D01*
X91037229Y-61732887D01*
X91646829Y-61732887D01*
X91646829Y-61936087D01*
X91617800Y-61994144D01*
X91588771Y-62023173D01*
X91530714Y-62052201D01*
X91472657Y-62052201D01*
X91414600Y-62023173D01*
X91385571Y-61994144D01*
X91356543Y-61936087D01*
X91356543Y-61732887D01*
X91037229Y-62603744D02*
X91356543Y-62603744D01*
X91414600Y-62574715D01*
X91443629Y-62516658D01*
X91443629Y-62400544D01*
X91414600Y-62342487D01*
X91066257Y-62603744D02*
X91037229Y-62545687D01*
X91037229Y-62400544D01*
X91066257Y-62342487D01*
X91124314Y-62313458D01*
X91182371Y-62313458D01*
X91240429Y-62342487D01*
X91269457Y-62400544D01*
X91269457Y-62545687D01*
X91298486Y-62603744D01*
X91037229Y-62981116D02*
X91066257Y-62923058D01*
X91124314Y-62894030D01*
X91646829Y-62894030D01*
X91066257Y-63445572D02*
X91037229Y-63387515D01*
X91037229Y-63271401D01*
X91066257Y-63213344D01*
X91124314Y-63184315D01*
X91356543Y-63184315D01*
X91414600Y-63213344D01*
X91443629Y-63271401D01*
X91443629Y-63387515D01*
X91414600Y-63445572D01*
X91356543Y-63474601D01*
X91298486Y-63474601D01*
X91240429Y-63184315D01*
X91066257Y-64171286D02*
X91037229Y-64258372D01*
X91037229Y-64403515D01*
X91066257Y-64461572D01*
X91095286Y-64490601D01*
X91153343Y-64519629D01*
X91211400Y-64519629D01*
X91269457Y-64490601D01*
X91298486Y-64461572D01*
X91327514Y-64403515D01*
X91356543Y-64287401D01*
X91385571Y-64229343D01*
X91414600Y-64200315D01*
X91472657Y-64171286D01*
X91530714Y-64171286D01*
X91588771Y-64200315D01*
X91617800Y-64229343D01*
X91646829Y-64287401D01*
X91646829Y-64432543D01*
X91617800Y-64519629D01*
X91066257Y-65013114D02*
X91037229Y-64955057D01*
X91037229Y-64838943D01*
X91066257Y-64780886D01*
X91124314Y-64751857D01*
X91356543Y-64751857D01*
X91414600Y-64780886D01*
X91443629Y-64838943D01*
X91443629Y-64955057D01*
X91414600Y-65013114D01*
X91356543Y-65042143D01*
X91298486Y-65042143D01*
X91240429Y-64751857D01*
X91443629Y-65303400D02*
X91037229Y-65303400D01*
X91385571Y-65303400D02*
X91414600Y-65332428D01*
X91443629Y-65390486D01*
X91443629Y-65477571D01*
X91414600Y-65535628D01*
X91356543Y-65564657D01*
X91037229Y-65564657D01*
X91066257Y-65825914D02*
X91037229Y-65883971D01*
X91037229Y-66000086D01*
X91066257Y-66058143D01*
X91124314Y-66087171D01*
X91153343Y-66087171D01*
X91211400Y-66058143D01*
X91240429Y-66000086D01*
X91240429Y-65913000D01*
X91269457Y-65854943D01*
X91327514Y-65825914D01*
X91356543Y-65825914D01*
X91414600Y-65854943D01*
X91443629Y-65913000D01*
X91443629Y-66000086D01*
X91414600Y-66058143D01*
X91037229Y-66435515D02*
X91066257Y-66377457D01*
X91095286Y-66348429D01*
X91153343Y-66319400D01*
X91327514Y-66319400D01*
X91385571Y-66348429D01*
X91414600Y-66377457D01*
X91443629Y-66435515D01*
X91443629Y-66522600D01*
X91414600Y-66580657D01*
X91385571Y-66609686D01*
X91327514Y-66638715D01*
X91153343Y-66638715D01*
X91095286Y-66609686D01*
X91066257Y-66580657D01*
X91037229Y-66522600D01*
X91037229Y-66435515D01*
X91037229Y-66899972D02*
X91443629Y-66899972D01*
X91327514Y-66899972D02*
X91385571Y-66929000D01*
X91414600Y-66958029D01*
X91443629Y-67016086D01*
X91443629Y-67074143D01*
X91646829Y-67654714D02*
X91037229Y-67857914D01*
X91646829Y-68061114D01*
X91588771Y-68235285D02*
X91617800Y-68264314D01*
X91646829Y-68322371D01*
X91646829Y-68467514D01*
X91617800Y-68525571D01*
X91588771Y-68554600D01*
X91530714Y-68583628D01*
X91472657Y-68583628D01*
X91385571Y-68554600D01*
X91037229Y-68206257D01*
X91037229Y-68583628D01*
D12*
X76784200Y-69977000D02*
X76784200Y-70739000D01*
X76708000Y-70383400D02*
X76708000Y-70739000D01*
X76708000Y-70739000D02*
X76860400Y-70739000D01*
X76860400Y-70739000D02*
X76809600Y-70739000D01*
X76809600Y-70739000D02*
X76809600Y-70383400D01*
X89382600Y-70332600D02*
X89382600Y-70789800D01*
X89382600Y-70789800D02*
X89509600Y-70789800D01*
X89509600Y-70789800D02*
X89458800Y-70789800D01*
X89458800Y-70789800D02*
X89484200Y-70789800D01*
X89484200Y-70789800D02*
X89484200Y-70281800D01*
D11*
X91011829Y-112115601D02*
X91621429Y-112115601D01*
X91331143Y-112115601D02*
X91331143Y-112463944D01*
X91011829Y-112463944D02*
X91621429Y-112463944D01*
X91011829Y-113015487D02*
X91331143Y-113015487D01*
X91389200Y-112986458D01*
X91418229Y-112928401D01*
X91418229Y-112812287D01*
X91389200Y-112754230D01*
X91040857Y-113015487D02*
X91011829Y-112957430D01*
X91011829Y-112812287D01*
X91040857Y-112754230D01*
X91098914Y-112725201D01*
X91156971Y-112725201D01*
X91215029Y-112754230D01*
X91244057Y-112812287D01*
X91244057Y-112957430D01*
X91273086Y-113015487D01*
X91418229Y-113247716D02*
X91011829Y-113392859D01*
X91418229Y-113538001D02*
X91011829Y-113392859D01*
X90866686Y-113334801D01*
X90837657Y-113305773D01*
X90808629Y-113247716D01*
X91331143Y-114437887D02*
X91302114Y-114524973D01*
X91273086Y-114554001D01*
X91215029Y-114583030D01*
X91127943Y-114583030D01*
X91069886Y-114554001D01*
X91040857Y-114524973D01*
X91011829Y-114466915D01*
X91011829Y-114234687D01*
X91621429Y-114234687D01*
X91621429Y-114437887D01*
X91592400Y-114495944D01*
X91563371Y-114524973D01*
X91505314Y-114554001D01*
X91447257Y-114554001D01*
X91389200Y-114524973D01*
X91360171Y-114495944D01*
X91331143Y-114437887D01*
X91331143Y-114234687D01*
X91011829Y-115105544D02*
X91331143Y-115105544D01*
X91389200Y-115076515D01*
X91418229Y-115018458D01*
X91418229Y-114902344D01*
X91389200Y-114844287D01*
X91040857Y-115105544D02*
X91011829Y-115047487D01*
X91011829Y-114902344D01*
X91040857Y-114844287D01*
X91098914Y-114815258D01*
X91156971Y-114815258D01*
X91215029Y-114844287D01*
X91244057Y-114902344D01*
X91244057Y-115047487D01*
X91273086Y-115105544D01*
X91011829Y-115482916D02*
X91040857Y-115424858D01*
X91098914Y-115395830D01*
X91621429Y-115395830D01*
X91040857Y-115947372D02*
X91011829Y-115889315D01*
X91011829Y-115773201D01*
X91040857Y-115715144D01*
X91098914Y-115686115D01*
X91331143Y-115686115D01*
X91389200Y-115715144D01*
X91418229Y-115773201D01*
X91418229Y-115889315D01*
X91389200Y-115947372D01*
X91331143Y-115976401D01*
X91273086Y-115976401D01*
X91215029Y-115686115D01*
X91040857Y-116673086D02*
X91011829Y-116760172D01*
X91011829Y-116905315D01*
X91040857Y-116963372D01*
X91069886Y-116992401D01*
X91127943Y-117021429D01*
X91186000Y-117021429D01*
X91244057Y-116992401D01*
X91273086Y-116963372D01*
X91302114Y-116905315D01*
X91331143Y-116789201D01*
X91360171Y-116731143D01*
X91389200Y-116702115D01*
X91447257Y-116673086D01*
X91505314Y-116673086D01*
X91563371Y-116702115D01*
X91592400Y-116731143D01*
X91621429Y-116789201D01*
X91621429Y-116934343D01*
X91592400Y-117021429D01*
X91040857Y-117514914D02*
X91011829Y-117456857D01*
X91011829Y-117340743D01*
X91040857Y-117282686D01*
X91098914Y-117253657D01*
X91331143Y-117253657D01*
X91389200Y-117282686D01*
X91418229Y-117340743D01*
X91418229Y-117456857D01*
X91389200Y-117514914D01*
X91331143Y-117543943D01*
X91273086Y-117543943D01*
X91215029Y-117253657D01*
X91418229Y-117805200D02*
X91011829Y-117805200D01*
X91360171Y-117805200D02*
X91389200Y-117834228D01*
X91418229Y-117892286D01*
X91418229Y-117979371D01*
X91389200Y-118037428D01*
X91331143Y-118066457D01*
X91011829Y-118066457D01*
X91040857Y-118327714D02*
X91011829Y-118385771D01*
X91011829Y-118501886D01*
X91040857Y-118559943D01*
X91098914Y-118588971D01*
X91127943Y-118588971D01*
X91186000Y-118559943D01*
X91215029Y-118501886D01*
X91215029Y-118414800D01*
X91244057Y-118356743D01*
X91302114Y-118327714D01*
X91331143Y-118327714D01*
X91389200Y-118356743D01*
X91418229Y-118414800D01*
X91418229Y-118501886D01*
X91389200Y-118559943D01*
X91011829Y-118937315D02*
X91040857Y-118879257D01*
X91069886Y-118850229D01*
X91127943Y-118821200D01*
X91302114Y-118821200D01*
X91360171Y-118850229D01*
X91389200Y-118879257D01*
X91418229Y-118937315D01*
X91418229Y-119024400D01*
X91389200Y-119082457D01*
X91360171Y-119111486D01*
X91302114Y-119140515D01*
X91127943Y-119140515D01*
X91069886Y-119111486D01*
X91040857Y-119082457D01*
X91011829Y-119024400D01*
X91011829Y-118937315D01*
X91011829Y-119401772D02*
X91418229Y-119401772D01*
X91302114Y-119401772D02*
X91360171Y-119430800D01*
X91389200Y-119459829D01*
X91418229Y-119517886D01*
X91418229Y-119575943D01*
X91621429Y-120156514D02*
X91011829Y-120359714D01*
X91621429Y-120562914D01*
X91563371Y-120737085D02*
X91592400Y-120766114D01*
X91621429Y-120824171D01*
X91621429Y-120969314D01*
X91592400Y-121027371D01*
X91563371Y-121056400D01*
X91505314Y-121085428D01*
X91447257Y-121085428D01*
X91360171Y-121056400D01*
X91011829Y-120708057D01*
X91011829Y-121085428D01*
D12*
X95631000Y-20294600D02*
X95631000Y-124891800D01*
X95631000Y-124891800D02*
X95631000Y-124866400D01*
X121031000Y-20294600D02*
X121031000Y-124891800D01*
X121031000Y-124891800D02*
X121031000Y-124866400D01*
X121031000Y-20294600D02*
X121031000Y-124891800D01*
D11*
X116411829Y-112115601D02*
X117021429Y-112115601D01*
X116731143Y-112115601D02*
X116731143Y-112463944D01*
X116411829Y-112463944D02*
X117021429Y-112463944D01*
X116411829Y-113015487D02*
X116731143Y-113015487D01*
X116789200Y-112986458D01*
X116818229Y-112928401D01*
X116818229Y-112812287D01*
X116789200Y-112754230D01*
X116440857Y-113015487D02*
X116411829Y-112957430D01*
X116411829Y-112812287D01*
X116440857Y-112754230D01*
X116498914Y-112725201D01*
X116556971Y-112725201D01*
X116615029Y-112754230D01*
X116644057Y-112812287D01*
X116644057Y-112957430D01*
X116673086Y-113015487D01*
X116818229Y-113247716D02*
X116411829Y-113392859D01*
X116818229Y-113538001D02*
X116411829Y-113392859D01*
X116266686Y-113334801D01*
X116237657Y-113305773D01*
X116208629Y-113247716D01*
X116731143Y-114437887D02*
X116702114Y-114524973D01*
X116673086Y-114554001D01*
X116615029Y-114583030D01*
X116527943Y-114583030D01*
X116469886Y-114554001D01*
X116440857Y-114524973D01*
X116411829Y-114466915D01*
X116411829Y-114234687D01*
X117021429Y-114234687D01*
X117021429Y-114437887D01*
X116992400Y-114495944D01*
X116963371Y-114524973D01*
X116905314Y-114554001D01*
X116847257Y-114554001D01*
X116789200Y-114524973D01*
X116760171Y-114495944D01*
X116731143Y-114437887D01*
X116731143Y-114234687D01*
X116411829Y-115105544D02*
X116731143Y-115105544D01*
X116789200Y-115076515D01*
X116818229Y-115018458D01*
X116818229Y-114902344D01*
X116789200Y-114844287D01*
X116440857Y-115105544D02*
X116411829Y-115047487D01*
X116411829Y-114902344D01*
X116440857Y-114844287D01*
X116498914Y-114815258D01*
X116556971Y-114815258D01*
X116615029Y-114844287D01*
X116644057Y-114902344D01*
X116644057Y-115047487D01*
X116673086Y-115105544D01*
X116411829Y-115482916D02*
X116440857Y-115424858D01*
X116498914Y-115395830D01*
X117021429Y-115395830D01*
X116440857Y-115947372D02*
X116411829Y-115889315D01*
X116411829Y-115773201D01*
X116440857Y-115715144D01*
X116498914Y-115686115D01*
X116731143Y-115686115D01*
X116789200Y-115715144D01*
X116818229Y-115773201D01*
X116818229Y-115889315D01*
X116789200Y-115947372D01*
X116731143Y-115976401D01*
X116673086Y-115976401D01*
X116615029Y-115686115D01*
X116440857Y-116673086D02*
X116411829Y-116760172D01*
X116411829Y-116905315D01*
X116440857Y-116963372D01*
X116469886Y-116992401D01*
X116527943Y-117021429D01*
X116586000Y-117021429D01*
X116644057Y-116992401D01*
X116673086Y-116963372D01*
X116702114Y-116905315D01*
X116731143Y-116789201D01*
X116760171Y-116731143D01*
X116789200Y-116702115D01*
X116847257Y-116673086D01*
X116905314Y-116673086D01*
X116963371Y-116702115D01*
X116992400Y-116731143D01*
X117021429Y-116789201D01*
X117021429Y-116934343D01*
X116992400Y-117021429D01*
X116440857Y-117514914D02*
X116411829Y-117456857D01*
X116411829Y-117340743D01*
X116440857Y-117282686D01*
X116498914Y-117253657D01*
X116731143Y-117253657D01*
X116789200Y-117282686D01*
X116818229Y-117340743D01*
X116818229Y-117456857D01*
X116789200Y-117514914D01*
X116731143Y-117543943D01*
X116673086Y-117543943D01*
X116615029Y-117253657D01*
X116818229Y-117805200D02*
X116411829Y-117805200D01*
X116760171Y-117805200D02*
X116789200Y-117834228D01*
X116818229Y-117892286D01*
X116818229Y-117979371D01*
X116789200Y-118037428D01*
X116731143Y-118066457D01*
X116411829Y-118066457D01*
X116440857Y-118327714D02*
X116411829Y-118385771D01*
X116411829Y-118501886D01*
X116440857Y-118559943D01*
X116498914Y-118588971D01*
X116527943Y-118588971D01*
X116586000Y-118559943D01*
X116615029Y-118501886D01*
X116615029Y-118414800D01*
X116644057Y-118356743D01*
X116702114Y-118327714D01*
X116731143Y-118327714D01*
X116789200Y-118356743D01*
X116818229Y-118414800D01*
X116818229Y-118501886D01*
X116789200Y-118559943D01*
X116411829Y-118937315D02*
X116440857Y-118879257D01*
X116469886Y-118850229D01*
X116527943Y-118821200D01*
X116702114Y-118821200D01*
X116760171Y-118850229D01*
X116789200Y-118879257D01*
X116818229Y-118937315D01*
X116818229Y-119024400D01*
X116789200Y-119082457D01*
X116760171Y-119111486D01*
X116702114Y-119140515D01*
X116527943Y-119140515D01*
X116469886Y-119111486D01*
X116440857Y-119082457D01*
X116411829Y-119024400D01*
X116411829Y-118937315D01*
X116411829Y-119401772D02*
X116818229Y-119401772D01*
X116702114Y-119401772D02*
X116760171Y-119430800D01*
X116789200Y-119459829D01*
X116818229Y-119517886D01*
X116818229Y-119575943D01*
X117021429Y-120156514D02*
X116411829Y-120359714D01*
X117021429Y-120562914D01*
X116963371Y-120737085D02*
X116992400Y-120766114D01*
X117021429Y-120824171D01*
X117021429Y-120969314D01*
X116992400Y-121027371D01*
X116963371Y-121056400D01*
X116905314Y-121085428D01*
X116847257Y-121085428D01*
X116760171Y-121056400D01*
X116411829Y-120708057D01*
X116411829Y-121085428D01*
D12*
X114884200Y-70789800D02*
X114884200Y-70281800D01*
X114858800Y-70789800D02*
X114884200Y-70789800D01*
X114909600Y-70789800D02*
X114858800Y-70789800D01*
X114782600Y-70789800D02*
X114909600Y-70789800D01*
X114782600Y-70332600D02*
X114782600Y-70789800D01*
X102209600Y-70739000D02*
X102209600Y-70383400D01*
X102260400Y-70739000D02*
X102209600Y-70739000D01*
X102108000Y-70739000D02*
X102260400Y-70739000D01*
X102108000Y-70383400D02*
X102108000Y-70739000D01*
X102184200Y-69977000D02*
X102184200Y-70739000D01*
D11*
X116437229Y-59613801D02*
X117046829Y-59613801D01*
X116756543Y-59613801D02*
X116756543Y-59962144D01*
X116437229Y-59962144D02*
X117046829Y-59962144D01*
X116437229Y-60513687D02*
X116756543Y-60513687D01*
X116814600Y-60484658D01*
X116843629Y-60426601D01*
X116843629Y-60310487D01*
X116814600Y-60252430D01*
X116466257Y-60513687D02*
X116437229Y-60455630D01*
X116437229Y-60310487D01*
X116466257Y-60252430D01*
X116524314Y-60223401D01*
X116582371Y-60223401D01*
X116640429Y-60252430D01*
X116669457Y-60310487D01*
X116669457Y-60455630D01*
X116698486Y-60513687D01*
X116843629Y-60745916D02*
X116437229Y-60891059D01*
X116843629Y-61036201D02*
X116437229Y-60891059D01*
X116292086Y-60833001D01*
X116263057Y-60803973D01*
X116234029Y-60745916D01*
X116756543Y-61936087D02*
X116727514Y-62023173D01*
X116698486Y-62052201D01*
X116640429Y-62081230D01*
X116553343Y-62081230D01*
X116495286Y-62052201D01*
X116466257Y-62023173D01*
X116437229Y-61965115D01*
X116437229Y-61732887D01*
X117046829Y-61732887D01*
X117046829Y-61936087D01*
X117017800Y-61994144D01*
X116988771Y-62023173D01*
X116930714Y-62052201D01*
X116872657Y-62052201D01*
X116814600Y-62023173D01*
X116785571Y-61994144D01*
X116756543Y-61936087D01*
X116756543Y-61732887D01*
X116437229Y-62603744D02*
X116756543Y-62603744D01*
X116814600Y-62574715D01*
X116843629Y-62516658D01*
X116843629Y-62400544D01*
X116814600Y-62342487D01*
X116466257Y-62603744D02*
X116437229Y-62545687D01*
X116437229Y-62400544D01*
X116466257Y-62342487D01*
X116524314Y-62313458D01*
X116582371Y-62313458D01*
X116640429Y-62342487D01*
X116669457Y-62400544D01*
X116669457Y-62545687D01*
X116698486Y-62603744D01*
X116437229Y-62981116D02*
X116466257Y-62923058D01*
X116524314Y-62894030D01*
X117046829Y-62894030D01*
X116466257Y-63445572D02*
X116437229Y-63387515D01*
X116437229Y-63271401D01*
X116466257Y-63213344D01*
X116524314Y-63184315D01*
X116756543Y-63184315D01*
X116814600Y-63213344D01*
X116843629Y-63271401D01*
X116843629Y-63387515D01*
X116814600Y-63445572D01*
X116756543Y-63474601D01*
X116698486Y-63474601D01*
X116640429Y-63184315D01*
X116466257Y-64171286D02*
X116437229Y-64258372D01*
X116437229Y-64403515D01*
X116466257Y-64461572D01*
X116495286Y-64490601D01*
X116553343Y-64519629D01*
X116611400Y-64519629D01*
X116669457Y-64490601D01*
X116698486Y-64461572D01*
X116727514Y-64403515D01*
X116756543Y-64287401D01*
X116785571Y-64229343D01*
X116814600Y-64200315D01*
X116872657Y-64171286D01*
X116930714Y-64171286D01*
X116988771Y-64200315D01*
X117017800Y-64229343D01*
X117046829Y-64287401D01*
X117046829Y-64432543D01*
X117017800Y-64519629D01*
X116466257Y-65013114D02*
X116437229Y-64955057D01*
X116437229Y-64838943D01*
X116466257Y-64780886D01*
X116524314Y-64751857D01*
X116756543Y-64751857D01*
X116814600Y-64780886D01*
X116843629Y-64838943D01*
X116843629Y-64955057D01*
X116814600Y-65013114D01*
X116756543Y-65042143D01*
X116698486Y-65042143D01*
X116640429Y-64751857D01*
X116843629Y-65303400D02*
X116437229Y-65303400D01*
X116785571Y-65303400D02*
X116814600Y-65332428D01*
X116843629Y-65390486D01*
X116843629Y-65477571D01*
X116814600Y-65535628D01*
X116756543Y-65564657D01*
X116437229Y-65564657D01*
X116466257Y-65825914D02*
X116437229Y-65883971D01*
X116437229Y-66000086D01*
X116466257Y-66058143D01*
X116524314Y-66087171D01*
X116553343Y-66087171D01*
X116611400Y-66058143D01*
X116640429Y-66000086D01*
X116640429Y-65913000D01*
X116669457Y-65854943D01*
X116727514Y-65825914D01*
X116756543Y-65825914D01*
X116814600Y-65854943D01*
X116843629Y-65913000D01*
X116843629Y-66000086D01*
X116814600Y-66058143D01*
X116437229Y-66435515D02*
X116466257Y-66377457D01*
X116495286Y-66348429D01*
X116553343Y-66319400D01*
X116727514Y-66319400D01*
X116785571Y-66348429D01*
X116814600Y-66377457D01*
X116843629Y-66435515D01*
X116843629Y-66522600D01*
X116814600Y-66580657D01*
X116785571Y-66609686D01*
X116727514Y-66638715D01*
X116553343Y-66638715D01*
X116495286Y-66609686D01*
X116466257Y-66580657D01*
X116437229Y-66522600D01*
X116437229Y-66435515D01*
X116437229Y-66899972D02*
X116843629Y-66899972D01*
X116727514Y-66899972D02*
X116785571Y-66929000D01*
X116814600Y-66958029D01*
X116843629Y-67016086D01*
X116843629Y-67074143D01*
X117046829Y-67654714D02*
X116437229Y-67857914D01*
X117046829Y-68061114D01*
X116988771Y-68235285D02*
X117017800Y-68264314D01*
X117046829Y-68322371D01*
X117046829Y-68467514D01*
X117017800Y-68525571D01*
X116988771Y-68554600D01*
X116930714Y-68583628D01*
X116872657Y-68583628D01*
X116785571Y-68554600D01*
X116437229Y-68206257D01*
X116437229Y-68583628D01*
D13*
X114836000Y-57671200D02*
X114836000Y-70371200D01*
X114861400Y-70726800D02*
X102161400Y-70726800D01*
X114836000Y-57722000D02*
X102136000Y-57722000D01*
X102161400Y-57747400D02*
X102161400Y-70447400D01*
X51361400Y-57747400D02*
X51361400Y-70447400D01*
X64036000Y-57722000D02*
X51336000Y-57722000D01*
X64061400Y-70726800D02*
X51361400Y-70726800D01*
X64036000Y-57671200D02*
X64036000Y-70371200D01*
D11*
X65637229Y-59613801D02*
X66246829Y-59613801D01*
X65956543Y-59613801D02*
X65956543Y-59962144D01*
X65637229Y-59962144D02*
X66246829Y-59962144D01*
X65637229Y-60513687D02*
X65956543Y-60513687D01*
X66014600Y-60484658D01*
X66043629Y-60426601D01*
X66043629Y-60310487D01*
X66014600Y-60252430D01*
X65666257Y-60513687D02*
X65637229Y-60455630D01*
X65637229Y-60310487D01*
X65666257Y-60252430D01*
X65724314Y-60223401D01*
X65782371Y-60223401D01*
X65840429Y-60252430D01*
X65869457Y-60310487D01*
X65869457Y-60455630D01*
X65898486Y-60513687D01*
X66043629Y-60745916D02*
X65637229Y-60891059D01*
X66043629Y-61036201D02*
X65637229Y-60891059D01*
X65492086Y-60833001D01*
X65463057Y-60803973D01*
X65434029Y-60745916D01*
X65956543Y-61936087D02*
X65927514Y-62023173D01*
X65898486Y-62052201D01*
X65840429Y-62081230D01*
X65753343Y-62081230D01*
X65695286Y-62052201D01*
X65666257Y-62023173D01*
X65637229Y-61965115D01*
X65637229Y-61732887D01*
X66246829Y-61732887D01*
X66246829Y-61936087D01*
X66217800Y-61994144D01*
X66188771Y-62023173D01*
X66130714Y-62052201D01*
X66072657Y-62052201D01*
X66014600Y-62023173D01*
X65985571Y-61994144D01*
X65956543Y-61936087D01*
X65956543Y-61732887D01*
X65637229Y-62603744D02*
X65956543Y-62603744D01*
X66014600Y-62574715D01*
X66043629Y-62516658D01*
X66043629Y-62400544D01*
X66014600Y-62342487D01*
X65666257Y-62603744D02*
X65637229Y-62545687D01*
X65637229Y-62400544D01*
X65666257Y-62342487D01*
X65724314Y-62313458D01*
X65782371Y-62313458D01*
X65840429Y-62342487D01*
X65869457Y-62400544D01*
X65869457Y-62545687D01*
X65898486Y-62603744D01*
X65637229Y-62981116D02*
X65666257Y-62923058D01*
X65724314Y-62894030D01*
X66246829Y-62894030D01*
X65666257Y-63445572D02*
X65637229Y-63387515D01*
X65637229Y-63271401D01*
X65666257Y-63213344D01*
X65724314Y-63184315D01*
X65956543Y-63184315D01*
X66014600Y-63213344D01*
X66043629Y-63271401D01*
X66043629Y-63387515D01*
X66014600Y-63445572D01*
X65956543Y-63474601D01*
X65898486Y-63474601D01*
X65840429Y-63184315D01*
X65666257Y-64171286D02*
X65637229Y-64258372D01*
X65637229Y-64403515D01*
X65666257Y-64461572D01*
X65695286Y-64490601D01*
X65753343Y-64519629D01*
X65811400Y-64519629D01*
X65869457Y-64490601D01*
X65898486Y-64461572D01*
X65927514Y-64403515D01*
X65956543Y-64287401D01*
X65985571Y-64229343D01*
X66014600Y-64200315D01*
X66072657Y-64171286D01*
X66130714Y-64171286D01*
X66188771Y-64200315D01*
X66217800Y-64229343D01*
X66246829Y-64287401D01*
X66246829Y-64432543D01*
X66217800Y-64519629D01*
X65666257Y-65013114D02*
X65637229Y-64955057D01*
X65637229Y-64838943D01*
X65666257Y-64780886D01*
X65724314Y-64751857D01*
X65956543Y-64751857D01*
X66014600Y-64780886D01*
X66043629Y-64838943D01*
X66043629Y-64955057D01*
X66014600Y-65013114D01*
X65956543Y-65042143D01*
X65898486Y-65042143D01*
X65840429Y-64751857D01*
X66043629Y-65303400D02*
X65637229Y-65303400D01*
X65985571Y-65303400D02*
X66014600Y-65332428D01*
X66043629Y-65390486D01*
X66043629Y-65477571D01*
X66014600Y-65535628D01*
X65956543Y-65564657D01*
X65637229Y-65564657D01*
X65666257Y-65825914D02*
X65637229Y-65883971D01*
X65637229Y-66000086D01*
X65666257Y-66058143D01*
X65724314Y-66087171D01*
X65753343Y-66087171D01*
X65811400Y-66058143D01*
X65840429Y-66000086D01*
X65840429Y-65913000D01*
X65869457Y-65854943D01*
X65927514Y-65825914D01*
X65956543Y-65825914D01*
X66014600Y-65854943D01*
X66043629Y-65913000D01*
X66043629Y-66000086D01*
X66014600Y-66058143D01*
X65637229Y-66435515D02*
X65666257Y-66377457D01*
X65695286Y-66348429D01*
X65753343Y-66319400D01*
X65927514Y-66319400D01*
X65985571Y-66348429D01*
X66014600Y-66377457D01*
X66043629Y-66435515D01*
X66043629Y-66522600D01*
X66014600Y-66580657D01*
X65985571Y-66609686D01*
X65927514Y-66638715D01*
X65753343Y-66638715D01*
X65695286Y-66609686D01*
X65666257Y-66580657D01*
X65637229Y-66522600D01*
X65637229Y-66435515D01*
X65637229Y-66899972D02*
X66043629Y-66899972D01*
X65927514Y-66899972D02*
X65985571Y-66929000D01*
X66014600Y-66958029D01*
X66043629Y-67016086D01*
X66043629Y-67074143D01*
X66246829Y-67654714D02*
X65637229Y-67857914D01*
X66246829Y-68061114D01*
X66188771Y-68235285D02*
X66217800Y-68264314D01*
X66246829Y-68322371D01*
X66246829Y-68467514D01*
X66217800Y-68525571D01*
X66188771Y-68554600D01*
X66130714Y-68583628D01*
X66072657Y-68583628D01*
X65985571Y-68554600D01*
X65637229Y-68206257D01*
X65637229Y-68583628D01*
D12*
X51384200Y-69977000D02*
X51384200Y-70739000D01*
X51308000Y-70383400D02*
X51308000Y-70739000D01*
X51308000Y-70739000D02*
X51460400Y-70739000D01*
X51460400Y-70739000D02*
X51409600Y-70739000D01*
X51409600Y-70739000D02*
X51409600Y-70383400D01*
X63982600Y-70332600D02*
X63982600Y-70789800D01*
X63982600Y-70789800D02*
X64109600Y-70789800D01*
X64109600Y-70789800D02*
X64058800Y-70789800D01*
X64058800Y-70789800D02*
X64084200Y-70789800D01*
X64084200Y-70789800D02*
X64084200Y-70281800D01*
D11*
X65611829Y-112115601D02*
X66221429Y-112115601D01*
X65931143Y-112115601D02*
X65931143Y-112463944D01*
X65611829Y-112463944D02*
X66221429Y-112463944D01*
X65611829Y-113015487D02*
X65931143Y-113015487D01*
X65989200Y-112986458D01*
X66018229Y-112928401D01*
X66018229Y-112812287D01*
X65989200Y-112754230D01*
X65640857Y-113015487D02*
X65611829Y-112957430D01*
X65611829Y-112812287D01*
X65640857Y-112754230D01*
X65698914Y-112725201D01*
X65756971Y-112725201D01*
X65815029Y-112754230D01*
X65844057Y-112812287D01*
X65844057Y-112957430D01*
X65873086Y-113015487D01*
X66018229Y-113247716D02*
X65611829Y-113392859D01*
X66018229Y-113538001D02*
X65611829Y-113392859D01*
X65466686Y-113334801D01*
X65437657Y-113305773D01*
X65408629Y-113247716D01*
X65931143Y-114437887D02*
X65902114Y-114524973D01*
X65873086Y-114554001D01*
X65815029Y-114583030D01*
X65727943Y-114583030D01*
X65669886Y-114554001D01*
X65640857Y-114524973D01*
X65611829Y-114466915D01*
X65611829Y-114234687D01*
X66221429Y-114234687D01*
X66221429Y-114437887D01*
X66192400Y-114495944D01*
X66163371Y-114524973D01*
X66105314Y-114554001D01*
X66047257Y-114554001D01*
X65989200Y-114524973D01*
X65960171Y-114495944D01*
X65931143Y-114437887D01*
X65931143Y-114234687D01*
X65611829Y-115105544D02*
X65931143Y-115105544D01*
X65989200Y-115076515D01*
X66018229Y-115018458D01*
X66018229Y-114902344D01*
X65989200Y-114844287D01*
X65640857Y-115105544D02*
X65611829Y-115047487D01*
X65611829Y-114902344D01*
X65640857Y-114844287D01*
X65698914Y-114815258D01*
X65756971Y-114815258D01*
X65815029Y-114844287D01*
X65844057Y-114902344D01*
X65844057Y-115047487D01*
X65873086Y-115105544D01*
X65611829Y-115482916D02*
X65640857Y-115424858D01*
X65698914Y-115395830D01*
X66221429Y-115395830D01*
X65640857Y-115947372D02*
X65611829Y-115889315D01*
X65611829Y-115773201D01*
X65640857Y-115715144D01*
X65698914Y-115686115D01*
X65931143Y-115686115D01*
X65989200Y-115715144D01*
X66018229Y-115773201D01*
X66018229Y-115889315D01*
X65989200Y-115947372D01*
X65931143Y-115976401D01*
X65873086Y-115976401D01*
X65815029Y-115686115D01*
X65640857Y-116673086D02*
X65611829Y-116760172D01*
X65611829Y-116905315D01*
X65640857Y-116963372D01*
X65669886Y-116992401D01*
X65727943Y-117021429D01*
X65786000Y-117021429D01*
X65844057Y-116992401D01*
X65873086Y-116963372D01*
X65902114Y-116905315D01*
X65931143Y-116789201D01*
X65960171Y-116731143D01*
X65989200Y-116702115D01*
X66047257Y-116673086D01*
X66105314Y-116673086D01*
X66163371Y-116702115D01*
X66192400Y-116731143D01*
X66221429Y-116789201D01*
X66221429Y-116934343D01*
X66192400Y-117021429D01*
X65640857Y-117514914D02*
X65611829Y-117456857D01*
X65611829Y-117340743D01*
X65640857Y-117282686D01*
X65698914Y-117253657D01*
X65931143Y-117253657D01*
X65989200Y-117282686D01*
X66018229Y-117340743D01*
X66018229Y-117456857D01*
X65989200Y-117514914D01*
X65931143Y-117543943D01*
X65873086Y-117543943D01*
X65815029Y-117253657D01*
X66018229Y-117805200D02*
X65611829Y-117805200D01*
X65960171Y-117805200D02*
X65989200Y-117834228D01*
X66018229Y-117892286D01*
X66018229Y-117979371D01*
X65989200Y-118037428D01*
X65931143Y-118066457D01*
X65611829Y-118066457D01*
X65640857Y-118327714D02*
X65611829Y-118385771D01*
X65611829Y-118501886D01*
X65640857Y-118559943D01*
X65698914Y-118588971D01*
X65727943Y-118588971D01*
X65786000Y-118559943D01*
X65815029Y-118501886D01*
X65815029Y-118414800D01*
X65844057Y-118356743D01*
X65902114Y-118327714D01*
X65931143Y-118327714D01*
X65989200Y-118356743D01*
X66018229Y-118414800D01*
X66018229Y-118501886D01*
X65989200Y-118559943D01*
X65611829Y-118937315D02*
X65640857Y-118879257D01*
X65669886Y-118850229D01*
X65727943Y-118821200D01*
X65902114Y-118821200D01*
X65960171Y-118850229D01*
X65989200Y-118879257D01*
X66018229Y-118937315D01*
X66018229Y-119024400D01*
X65989200Y-119082457D01*
X65960171Y-119111486D01*
X65902114Y-119140515D01*
X65727943Y-119140515D01*
X65669886Y-119111486D01*
X65640857Y-119082457D01*
X65611829Y-119024400D01*
X65611829Y-118937315D01*
X65611829Y-119401772D02*
X66018229Y-119401772D01*
X65902114Y-119401772D02*
X65960171Y-119430800D01*
X65989200Y-119459829D01*
X66018229Y-119517886D01*
X66018229Y-119575943D01*
X66221429Y-120156514D02*
X65611829Y-120359714D01*
X66221429Y-120562914D01*
X66163371Y-120737085D02*
X66192400Y-120766114D01*
X66221429Y-120824171D01*
X66221429Y-120969314D01*
X66192400Y-121027371D01*
X66163371Y-121056400D01*
X66105314Y-121085428D01*
X66047257Y-121085428D01*
X65960171Y-121056400D01*
X65611829Y-120708057D01*
X65611829Y-121085428D01*
D12*
X70231000Y-20294600D02*
X70231000Y-124891800D01*
X70231000Y-124891800D02*
X70231000Y-124866400D01*
X20828000Y-72644000D02*
X246888000Y-72644000D01*
X222631000Y-73380600D02*
X222631000Y-177977800D01*
X197231000Y-73380600D02*
X197231000Y-177977800D01*
X197231000Y-71856600D02*
X197231000Y-176453800D01*
X171831000Y-73634600D02*
X171831000Y-178231800D01*
X146431000Y-73380600D02*
X146431000Y-177977800D01*
X121031000Y-73634600D02*
X121031000Y-178231800D01*
X95631000Y-73634600D02*
X95631000Y-178231800D01*
X146431000Y-20294600D02*
X146431000Y-124891800D01*
X171831000Y-20294600D02*
X171831000Y-124891800D01*
X222631000Y-20294600D02*
X222631000Y-124891800D01*
X197231000Y-20294600D02*
X197231000Y-124891800D01*
X95631000Y-20294600D02*
X95631000Y-124891800D01*
X121031000Y-20294600D02*
X121031000Y-124891800D01*
X70231000Y-20294600D02*
X70231000Y-124891800D01*
X70231000Y-124942600D02*
X70231000Y-178206400D01*
X44831000Y-124942600D02*
X44831000Y-178206400D01*
X44831000Y-124891800D02*
X44831000Y-124866400D01*
X44831000Y-20294600D02*
X44831000Y-124891800D01*
D11*
X40211829Y-112115601D02*
X40821429Y-112115601D01*
X40531143Y-112115601D02*
X40531143Y-112463944D01*
X40211829Y-112463944D02*
X40821429Y-112463944D01*
X40211829Y-113015487D02*
X40531143Y-113015487D01*
X40589200Y-112986458D01*
X40618229Y-112928401D01*
X40618229Y-112812287D01*
X40589200Y-112754230D01*
X40240857Y-113015487D02*
X40211829Y-112957430D01*
X40211829Y-112812287D01*
X40240857Y-112754230D01*
X40298914Y-112725201D01*
X40356971Y-112725201D01*
X40415029Y-112754230D01*
X40444057Y-112812287D01*
X40444057Y-112957430D01*
X40473086Y-113015487D01*
X40618229Y-113247716D02*
X40211829Y-113392859D01*
X40618229Y-113538001D02*
X40211829Y-113392859D01*
X40066686Y-113334801D01*
X40037657Y-113305773D01*
X40008629Y-113247716D01*
X40531143Y-114437887D02*
X40502114Y-114524973D01*
X40473086Y-114554001D01*
X40415029Y-114583030D01*
X40327943Y-114583030D01*
X40269886Y-114554001D01*
X40240857Y-114524973D01*
X40211829Y-114466915D01*
X40211829Y-114234687D01*
X40821429Y-114234687D01*
X40821429Y-114437887D01*
X40792400Y-114495944D01*
X40763371Y-114524973D01*
X40705314Y-114554001D01*
X40647257Y-114554001D01*
X40589200Y-114524973D01*
X40560171Y-114495944D01*
X40531143Y-114437887D01*
X40531143Y-114234687D01*
X40211829Y-115105544D02*
X40531143Y-115105544D01*
X40589200Y-115076515D01*
X40618229Y-115018458D01*
X40618229Y-114902344D01*
X40589200Y-114844287D01*
X40240857Y-115105544D02*
X40211829Y-115047487D01*
X40211829Y-114902344D01*
X40240857Y-114844287D01*
X40298914Y-114815258D01*
X40356971Y-114815258D01*
X40415029Y-114844287D01*
X40444057Y-114902344D01*
X40444057Y-115047487D01*
X40473086Y-115105544D01*
X40211829Y-115482916D02*
X40240857Y-115424858D01*
X40298914Y-115395830D01*
X40821429Y-115395830D01*
X40240857Y-115947372D02*
X40211829Y-115889315D01*
X40211829Y-115773201D01*
X40240857Y-115715144D01*
X40298914Y-115686115D01*
X40531143Y-115686115D01*
X40589200Y-115715144D01*
X40618229Y-115773201D01*
X40618229Y-115889315D01*
X40589200Y-115947372D01*
X40531143Y-115976401D01*
X40473086Y-115976401D01*
X40415029Y-115686115D01*
X40240857Y-116673086D02*
X40211829Y-116760172D01*
X40211829Y-116905315D01*
X40240857Y-116963372D01*
X40269886Y-116992401D01*
X40327943Y-117021429D01*
X40386000Y-117021429D01*
X40444057Y-116992401D01*
X40473086Y-116963372D01*
X40502114Y-116905315D01*
X40531143Y-116789201D01*
X40560171Y-116731143D01*
X40589200Y-116702115D01*
X40647257Y-116673086D01*
X40705314Y-116673086D01*
X40763371Y-116702115D01*
X40792400Y-116731143D01*
X40821429Y-116789201D01*
X40821429Y-116934343D01*
X40792400Y-117021429D01*
X40240857Y-117514914D02*
X40211829Y-117456857D01*
X40211829Y-117340743D01*
X40240857Y-117282686D01*
X40298914Y-117253657D01*
X40531143Y-117253657D01*
X40589200Y-117282686D01*
X40618229Y-117340743D01*
X40618229Y-117456857D01*
X40589200Y-117514914D01*
X40531143Y-117543943D01*
X40473086Y-117543943D01*
X40415029Y-117253657D01*
X40618229Y-117805200D02*
X40211829Y-117805200D01*
X40560171Y-117805200D02*
X40589200Y-117834228D01*
X40618229Y-117892286D01*
X40618229Y-117979371D01*
X40589200Y-118037428D01*
X40531143Y-118066457D01*
X40211829Y-118066457D01*
X40240857Y-118327714D02*
X40211829Y-118385771D01*
X40211829Y-118501886D01*
X40240857Y-118559943D01*
X40298914Y-118588971D01*
X40327943Y-118588971D01*
X40386000Y-118559943D01*
X40415029Y-118501886D01*
X40415029Y-118414800D01*
X40444057Y-118356743D01*
X40502114Y-118327714D01*
X40531143Y-118327714D01*
X40589200Y-118356743D01*
X40618229Y-118414800D01*
X40618229Y-118501886D01*
X40589200Y-118559943D01*
X40211829Y-118937315D02*
X40240857Y-118879257D01*
X40269886Y-118850229D01*
X40327943Y-118821200D01*
X40502114Y-118821200D01*
X40560171Y-118850229D01*
X40589200Y-118879257D01*
X40618229Y-118937315D01*
X40618229Y-119024400D01*
X40589200Y-119082457D01*
X40560171Y-119111486D01*
X40502114Y-119140515D01*
X40327943Y-119140515D01*
X40269886Y-119111486D01*
X40240857Y-119082457D01*
X40211829Y-119024400D01*
X40211829Y-118937315D01*
X40211829Y-119401772D02*
X40618229Y-119401772D01*
X40502114Y-119401772D02*
X40560171Y-119430800D01*
X40589200Y-119459829D01*
X40618229Y-119517886D01*
X40618229Y-119575943D01*
X40821429Y-120156514D02*
X40211829Y-120359714D01*
X40821429Y-120562914D01*
X40763371Y-120737085D02*
X40792400Y-120766114D01*
X40821429Y-120824171D01*
X40821429Y-120969314D01*
X40792400Y-121027371D01*
X40763371Y-121056400D01*
X40705314Y-121085428D01*
X40647257Y-121085428D01*
X40560171Y-121056400D01*
X40211829Y-120708057D01*
X40211829Y-121085428D01*
D12*
X38684200Y-70789800D02*
X38684200Y-70281800D01*
X38658800Y-70789800D02*
X38684200Y-70789800D01*
X38709600Y-70789800D02*
X38658800Y-70789800D01*
X38582600Y-70789800D02*
X38709600Y-70789800D01*
X38582600Y-70332600D02*
X38582600Y-70789800D01*
X26009600Y-70739000D02*
X26009600Y-70383400D01*
X26060400Y-70739000D02*
X26009600Y-70739000D01*
X25908000Y-70739000D02*
X26060400Y-70739000D01*
X25908000Y-70383400D02*
X25908000Y-70739000D01*
X25984200Y-69977000D02*
X25984200Y-70739000D01*
D11*
X40237229Y-59613801D02*
X40846829Y-59613801D01*
X40556543Y-59613801D02*
X40556543Y-59962144D01*
X40237229Y-59962144D02*
X40846829Y-59962144D01*
X40237229Y-60513687D02*
X40556543Y-60513687D01*
X40614600Y-60484658D01*
X40643629Y-60426601D01*
X40643629Y-60310487D01*
X40614600Y-60252430D01*
X40266257Y-60513687D02*
X40237229Y-60455630D01*
X40237229Y-60310487D01*
X40266257Y-60252430D01*
X40324314Y-60223401D01*
X40382371Y-60223401D01*
X40440429Y-60252430D01*
X40469457Y-60310487D01*
X40469457Y-60455630D01*
X40498486Y-60513687D01*
X40643629Y-60745916D02*
X40237229Y-60891059D01*
X40643629Y-61036201D02*
X40237229Y-60891059D01*
X40092086Y-60833001D01*
X40063057Y-60803973D01*
X40034029Y-60745916D01*
X40556543Y-61936087D02*
X40527514Y-62023173D01*
X40498486Y-62052201D01*
X40440429Y-62081230D01*
X40353343Y-62081230D01*
X40295286Y-62052201D01*
X40266257Y-62023173D01*
X40237229Y-61965115D01*
X40237229Y-61732887D01*
X40846829Y-61732887D01*
X40846829Y-61936087D01*
X40817800Y-61994144D01*
X40788771Y-62023173D01*
X40730714Y-62052201D01*
X40672657Y-62052201D01*
X40614600Y-62023173D01*
X40585571Y-61994144D01*
X40556543Y-61936087D01*
X40556543Y-61732887D01*
X40237229Y-62603744D02*
X40556543Y-62603744D01*
X40614600Y-62574715D01*
X40643629Y-62516658D01*
X40643629Y-62400544D01*
X40614600Y-62342487D01*
X40266257Y-62603744D02*
X40237229Y-62545687D01*
X40237229Y-62400544D01*
X40266257Y-62342487D01*
X40324314Y-62313458D01*
X40382371Y-62313458D01*
X40440429Y-62342487D01*
X40469457Y-62400544D01*
X40469457Y-62545687D01*
X40498486Y-62603744D01*
X40237229Y-62981116D02*
X40266257Y-62923058D01*
X40324314Y-62894030D01*
X40846829Y-62894030D01*
X40266257Y-63445572D02*
X40237229Y-63387515D01*
X40237229Y-63271401D01*
X40266257Y-63213344D01*
X40324314Y-63184315D01*
X40556543Y-63184315D01*
X40614600Y-63213344D01*
X40643629Y-63271401D01*
X40643629Y-63387515D01*
X40614600Y-63445572D01*
X40556543Y-63474601D01*
X40498486Y-63474601D01*
X40440429Y-63184315D01*
X40266257Y-64171286D02*
X40237229Y-64258372D01*
X40237229Y-64403515D01*
X40266257Y-64461572D01*
X40295286Y-64490601D01*
X40353343Y-64519629D01*
X40411400Y-64519629D01*
X40469457Y-64490601D01*
X40498486Y-64461572D01*
X40527514Y-64403515D01*
X40556543Y-64287401D01*
X40585571Y-64229343D01*
X40614600Y-64200315D01*
X40672657Y-64171286D01*
X40730714Y-64171286D01*
X40788771Y-64200315D01*
X40817800Y-64229343D01*
X40846829Y-64287401D01*
X40846829Y-64432543D01*
X40817800Y-64519629D01*
X40266257Y-65013114D02*
X40237229Y-64955057D01*
X40237229Y-64838943D01*
X40266257Y-64780886D01*
X40324314Y-64751857D01*
X40556543Y-64751857D01*
X40614600Y-64780886D01*
X40643629Y-64838943D01*
X40643629Y-64955057D01*
X40614600Y-65013114D01*
X40556543Y-65042143D01*
X40498486Y-65042143D01*
X40440429Y-64751857D01*
X40643629Y-65303400D02*
X40237229Y-65303400D01*
X40585571Y-65303400D02*
X40614600Y-65332428D01*
X40643629Y-65390486D01*
X40643629Y-65477571D01*
X40614600Y-65535628D01*
X40556543Y-65564657D01*
X40237229Y-65564657D01*
X40266257Y-65825914D02*
X40237229Y-65883971D01*
X40237229Y-66000086D01*
X40266257Y-66058143D01*
X40324314Y-66087171D01*
X40353343Y-66087171D01*
X40411400Y-66058143D01*
X40440429Y-66000086D01*
X40440429Y-65913000D01*
X40469457Y-65854943D01*
X40527514Y-65825914D01*
X40556543Y-65825914D01*
X40614600Y-65854943D01*
X40643629Y-65913000D01*
X40643629Y-66000086D01*
X40614600Y-66058143D01*
X40237229Y-66435515D02*
X40266257Y-66377457D01*
X40295286Y-66348429D01*
X40353343Y-66319400D01*
X40527514Y-66319400D01*
X40585571Y-66348429D01*
X40614600Y-66377457D01*
X40643629Y-66435515D01*
X40643629Y-66522600D01*
X40614600Y-66580657D01*
X40585571Y-66609686D01*
X40527514Y-66638715D01*
X40353343Y-66638715D01*
X40295286Y-66609686D01*
X40266257Y-66580657D01*
X40237229Y-66522600D01*
X40237229Y-66435515D01*
X40237229Y-66899972D02*
X40643629Y-66899972D01*
X40527514Y-66899972D02*
X40585571Y-66929000D01*
X40614600Y-66958029D01*
X40643629Y-67016086D01*
X40643629Y-67074143D01*
X40846829Y-67654714D02*
X40237229Y-67857914D01*
X40846829Y-68061114D01*
X40788771Y-68235285D02*
X40817800Y-68264314D01*
X40846829Y-68322371D01*
X40846829Y-68467514D01*
X40817800Y-68525571D01*
X40788771Y-68554600D01*
X40730714Y-68583628D01*
X40672657Y-68583628D01*
X40585571Y-68554600D01*
X40237229Y-68206257D01*
X40237229Y-68583628D01*
D13*
X38636000Y-57671200D02*
X38636000Y-70371200D01*
X38661400Y-70726800D02*
X25961400Y-70726800D01*
X38636000Y-57722000D02*
X25936000Y-57722000D01*
X25961400Y-57747400D02*
X25961400Y-70447400D01*
M02*
