M48
;DRILL file {KiCad 4.0.3-stable} date 08/25/16 15:17:34
;FORMAT={-:-/ absolute / inch / decimal}
FMAT,2
INCH,TZ
T1C0.020
%
G90
G05
M72
T1
X1.046Y-1.164
X1.052Y-3.2637
X1.052Y-5.3637
X1.155Y-1.069
X1.155Y-3.1687
X1.155Y-5.2687
X1.222Y-1.484
X1.222Y-3.5837
X1.222Y-5.6837
X1.306Y-0.934
X1.306Y-3.0337
X1.306Y-5.1337
X1.323Y-1.484
X1.323Y-3.5837
X1.323Y-5.6837
X1.5289Y-1.3875
X1.5289Y-3.4872
X1.5289Y-5.5872
X2.046Y-1.164
X2.052Y-3.2637
X2.052Y-5.3637
X2.155Y-1.069
X2.155Y-3.1687
X2.155Y-5.2687
X2.222Y-1.484
X2.222Y-3.5837
X2.222Y-5.6837
X2.306Y-0.934
X2.306Y-3.0337
X2.306Y-5.1337
X2.323Y-1.484
X2.323Y-3.5837
X2.323Y-5.6837
X2.5289Y-1.3875
X2.5289Y-3.4872
X2.5289Y-5.5872
X3.046Y-1.164
X3.052Y-3.2637
X3.052Y-5.3637
X3.155Y-1.069
X3.155Y-3.1687
X3.155Y-5.2687
X3.222Y-1.484
X3.222Y-3.5837
X3.222Y-5.6837
X3.306Y-0.934
X3.306Y-3.0337
X3.306Y-5.1337
X3.323Y-1.484
X3.323Y-3.5837
X3.323Y-5.6837
X3.5289Y-1.3875
X3.5289Y-3.4872
X3.5289Y-5.5872
X4.046Y-1.164
X4.052Y-3.2637
X4.052Y-5.3637
X4.155Y-1.069
X4.155Y-3.1687
X4.155Y-5.2687
X4.222Y-1.484
X4.222Y-3.5837
X4.222Y-5.6837
X4.306Y-0.934
X4.306Y-3.0337
X4.306Y-5.1337
X4.323Y-1.484
X4.323Y-3.5837
X4.323Y-5.6837
X4.5289Y-1.3875
X4.5289Y-3.4872
X4.5289Y-5.5872
X5.046Y-1.164
X5.046Y-5.364
X5.052Y-3.2637
X5.155Y-1.069
X5.155Y-3.1687
X5.155Y-5.269
X5.222Y-1.484
X5.222Y-3.5837
X5.222Y-5.684
X5.306Y-0.934
X5.306Y-3.0337
X5.306Y-5.134
X5.323Y-1.484
X5.323Y-3.5837
X5.323Y-5.684
X5.5289Y-1.3875
X5.5289Y-3.4872
X5.5289Y-5.5875
X6.046Y-1.164
X6.046Y-5.364
X6.052Y-3.2637
X6.155Y-1.069
X6.155Y-3.1687
X6.155Y-5.269
X6.222Y-1.484
X6.222Y-3.5837
X6.222Y-5.684
X6.306Y-0.934
X6.306Y-3.0337
X6.306Y-5.134
X6.323Y-1.484
X6.323Y-3.5837
X6.323Y-5.684
X6.5289Y-1.3875
X6.5289Y-3.4872
X6.5289Y-5.5875
X7.046Y-1.164
X7.046Y-5.364
X7.052Y-3.2637
X7.155Y-1.069
X7.155Y-3.1687
X7.155Y-5.269
X7.222Y-1.484
X7.222Y-3.5837
X7.222Y-5.684
X7.306Y-0.934
X7.306Y-3.0337
X7.306Y-5.134
X7.323Y-1.484
X7.323Y-3.5837
X7.323Y-5.684
X7.5289Y-1.3875
X7.5289Y-3.4872
X7.5289Y-5.5875
X8.046Y-1.164
X8.046Y-5.364
X8.052Y-3.2637
X8.155Y-1.069
X8.155Y-3.1687
X8.155Y-5.269
X8.222Y-1.484
X8.222Y-3.5837
X8.222Y-5.684
X8.306Y-0.934
X8.306Y-3.0337
X8.306Y-5.134
X8.323Y-1.484
X8.323Y-3.5837
X8.323Y-5.684
X8.5289Y-1.3875
X8.5289Y-3.4872
X8.5289Y-5.5875
X9.046Y-1.164
X9.046Y-5.364
X9.052Y-3.2637
X9.155Y-1.069
X9.155Y-3.1687
X9.155Y-5.269
X9.222Y-1.484
X9.222Y-3.5837
X9.222Y-5.684
X9.306Y-0.934
X9.306Y-3.0337
X9.306Y-5.134
X9.323Y-1.484
X9.323Y-3.5837
X9.323Y-5.684
X9.5289Y-1.3875
X9.5289Y-3.4872
X9.5289Y-5.5875
T0
M30
