G04 #@! TF.FileFunction,Copper,L2,Bot,Signal*
%FSLAX46Y46*%
G04 Gerber Fmt 4.6, Leading zero omitted, Abs format (unit mm)*
G04 Created by KiCad (PCBNEW 4.0.3-stable) date 08/25/16 15:17:33*
%MOMM*%
%LPD*%
G01*
G04 APERTURE LIST*
%ADD10C,0.100000*%
%ADD11R,3.000000X3.000000*%
%ADD12R,0.800100X0.800100*%
%ADD13R,0.600000X0.400000*%
%ADD14R,0.600000X1.500000*%
%ADD15R,0.400000X0.600000*%
%ADD16R,0.500000X0.600000*%
%ADD17C,0.762000*%
%ADD18C,0.250000*%
%ADD19C,0.152400*%
%ADD20C,0.254000*%
G04 APERTURE END LIST*
D10*
D11*
X231673400Y-76039980D03*
X226644200Y-83990180D03*
X244152420Y-86441280D03*
X244208300Y-75963780D03*
X226644200Y-76116180D03*
X244180360Y-81691480D03*
D12*
X227446840Y-80799980D03*
X227446840Y-78899980D03*
X229445820Y-79849980D03*
D13*
X225933000Y-80833380D03*
X225933000Y-79933380D03*
X232506000Y-86491580D03*
X232506000Y-87391580D03*
X240136000Y-86491580D03*
X240136000Y-87391580D03*
D14*
X231211000Y-79161580D03*
X232481000Y-79161580D03*
X233751000Y-79161580D03*
X235021000Y-79161580D03*
X236291000Y-79161580D03*
X237561000Y-79161580D03*
X238831000Y-79161580D03*
X240101000Y-79161580D03*
X240101000Y-84561580D03*
X238831000Y-84561580D03*
X237561000Y-84561580D03*
X236291000Y-84561580D03*
X235021000Y-84561580D03*
X233751000Y-84561580D03*
X232481000Y-84561580D03*
X231211000Y-84561580D03*
D15*
X235008000Y-109220000D03*
X235908000Y-109220000D03*
D13*
X238806000Y-77021580D03*
X238806000Y-76121580D03*
D16*
X235036000Y-77201580D03*
X235036000Y-76101580D03*
X235036000Y-23869200D03*
X235036000Y-22769200D03*
D13*
X238806000Y-23689200D03*
X238806000Y-22789200D03*
D15*
X235008000Y-54864000D03*
X235908000Y-54864000D03*
D14*
X231211000Y-25829200D03*
X232481000Y-25829200D03*
X233751000Y-25829200D03*
X235021000Y-25829200D03*
X236291000Y-25829200D03*
X237561000Y-25829200D03*
X238831000Y-25829200D03*
X240101000Y-25829200D03*
X240101000Y-31229200D03*
X238831000Y-31229200D03*
X237561000Y-31229200D03*
X236291000Y-31229200D03*
X235021000Y-31229200D03*
X233751000Y-31229200D03*
X232481000Y-31229200D03*
X231211000Y-31229200D03*
D13*
X240136000Y-33159200D03*
X240136000Y-34059200D03*
X232506000Y-33159200D03*
X232506000Y-34059200D03*
X225933000Y-27501000D03*
X225933000Y-26601000D03*
D12*
X227446840Y-27467600D03*
X227446840Y-25567600D03*
X229445820Y-26517600D03*
D11*
X244180360Y-28359100D03*
X226644200Y-22783800D03*
X244208300Y-22631400D03*
X244152420Y-33108900D03*
X226644200Y-30657800D03*
X231673400Y-22707600D03*
X231673400Y-129387600D03*
X226644200Y-137337800D03*
X244152420Y-139788900D03*
X244208300Y-129311400D03*
X226644200Y-129463800D03*
X244180360Y-135039100D03*
D12*
X227446840Y-134147600D03*
X227446840Y-132247600D03*
X229445820Y-133197600D03*
D13*
X225933000Y-134181000D03*
X225933000Y-133281000D03*
X232506000Y-139839200D03*
X232506000Y-140739200D03*
X240136000Y-139839200D03*
X240136000Y-140739200D03*
D14*
X231211000Y-132509200D03*
X232481000Y-132509200D03*
X233751000Y-132509200D03*
X235021000Y-132509200D03*
X236291000Y-132509200D03*
X237561000Y-132509200D03*
X238831000Y-132509200D03*
X240101000Y-132509200D03*
X240101000Y-137909200D03*
X238831000Y-137909200D03*
X237561000Y-137909200D03*
X236291000Y-137909200D03*
X235021000Y-137909200D03*
X233751000Y-137909200D03*
X232481000Y-137909200D03*
X231211000Y-137909200D03*
D15*
X235008000Y-161544000D03*
X235908000Y-161544000D03*
D13*
X238806000Y-130369200D03*
X238806000Y-129469200D03*
D16*
X235036000Y-130549200D03*
X235036000Y-129449200D03*
D11*
X180873400Y-129387600D03*
X175844200Y-137337800D03*
X193352420Y-139788900D03*
X193408300Y-129311400D03*
X175844200Y-129463800D03*
X193380360Y-135039100D03*
D12*
X176646840Y-134147600D03*
X176646840Y-132247600D03*
X178645820Y-133197600D03*
D13*
X175133000Y-134181000D03*
X175133000Y-133281000D03*
X181706000Y-139839200D03*
X181706000Y-140739200D03*
X189336000Y-139839200D03*
X189336000Y-140739200D03*
D14*
X180411000Y-132509200D03*
X181681000Y-132509200D03*
X182951000Y-132509200D03*
X184221000Y-132509200D03*
X185491000Y-132509200D03*
X186761000Y-132509200D03*
X188031000Y-132509200D03*
X189301000Y-132509200D03*
X189301000Y-137909200D03*
X188031000Y-137909200D03*
X186761000Y-137909200D03*
X185491000Y-137909200D03*
X184221000Y-137909200D03*
X182951000Y-137909200D03*
X181681000Y-137909200D03*
X180411000Y-137909200D03*
D15*
X184208000Y-161544000D03*
X185108000Y-161544000D03*
D13*
X188006000Y-130369200D03*
X188006000Y-129469200D03*
D16*
X184236000Y-130549200D03*
X184236000Y-129449200D03*
X209636000Y-130549200D03*
X209636000Y-129449200D03*
D13*
X213406000Y-130369200D03*
X213406000Y-129469200D03*
D15*
X209608000Y-161544000D03*
X210508000Y-161544000D03*
D14*
X205811000Y-132509200D03*
X207081000Y-132509200D03*
X208351000Y-132509200D03*
X209621000Y-132509200D03*
X210891000Y-132509200D03*
X212161000Y-132509200D03*
X213431000Y-132509200D03*
X214701000Y-132509200D03*
X214701000Y-137909200D03*
X213431000Y-137909200D03*
X212161000Y-137909200D03*
X210891000Y-137909200D03*
X209621000Y-137909200D03*
X208351000Y-137909200D03*
X207081000Y-137909200D03*
X205811000Y-137909200D03*
D13*
X214736000Y-139839200D03*
X214736000Y-140739200D03*
X207106000Y-139839200D03*
X207106000Y-140739200D03*
X200533000Y-134181000D03*
X200533000Y-133281000D03*
D12*
X202046840Y-134147600D03*
X202046840Y-132247600D03*
X204045820Y-133197600D03*
D11*
X218780360Y-135039100D03*
X201244200Y-129463800D03*
X218808300Y-129311400D03*
X218752420Y-139788900D03*
X201244200Y-137337800D03*
X206273400Y-129387600D03*
X155473400Y-129387600D03*
X150444200Y-137337800D03*
X167952420Y-139788900D03*
X168008300Y-129311400D03*
X150444200Y-129463800D03*
X167980360Y-135039100D03*
D12*
X151246840Y-134147600D03*
X151246840Y-132247600D03*
X153245820Y-133197600D03*
D13*
X149733000Y-134181000D03*
X149733000Y-133281000D03*
X156306000Y-139839200D03*
X156306000Y-140739200D03*
X163936000Y-139839200D03*
X163936000Y-140739200D03*
D14*
X155011000Y-132509200D03*
X156281000Y-132509200D03*
X157551000Y-132509200D03*
X158821000Y-132509200D03*
X160091000Y-132509200D03*
X161361000Y-132509200D03*
X162631000Y-132509200D03*
X163901000Y-132509200D03*
X163901000Y-137909200D03*
X162631000Y-137909200D03*
X161361000Y-137909200D03*
X160091000Y-137909200D03*
X158821000Y-137909200D03*
X157551000Y-137909200D03*
X156281000Y-137909200D03*
X155011000Y-137909200D03*
D15*
X158808000Y-161544000D03*
X159708000Y-161544000D03*
D13*
X162606000Y-130369200D03*
X162606000Y-129469200D03*
D16*
X158836000Y-130549200D03*
X158836000Y-129449200D03*
X133436000Y-130549200D03*
X133436000Y-129449200D03*
D13*
X137206000Y-130369200D03*
X137206000Y-129469200D03*
D15*
X133408000Y-161544000D03*
X134308000Y-161544000D03*
D14*
X129611000Y-132509200D03*
X130881000Y-132509200D03*
X132151000Y-132509200D03*
X133421000Y-132509200D03*
X134691000Y-132509200D03*
X135961000Y-132509200D03*
X137231000Y-132509200D03*
X138501000Y-132509200D03*
X138501000Y-137909200D03*
X137231000Y-137909200D03*
X135961000Y-137909200D03*
X134691000Y-137909200D03*
X133421000Y-137909200D03*
X132151000Y-137909200D03*
X130881000Y-137909200D03*
X129611000Y-137909200D03*
D13*
X138536000Y-139839200D03*
X138536000Y-140739200D03*
X130906000Y-139839200D03*
X130906000Y-140739200D03*
X124333000Y-134181000D03*
X124333000Y-133281000D03*
D12*
X125846840Y-134147600D03*
X125846840Y-132247600D03*
X127845820Y-133197600D03*
D11*
X142580360Y-135039100D03*
X125044200Y-129463800D03*
X142608300Y-129311400D03*
X142552420Y-139788900D03*
X125044200Y-137337800D03*
X130073400Y-129387600D03*
D16*
X31836000Y-130541580D03*
X31836000Y-129441580D03*
D13*
X35606000Y-130361580D03*
X35606000Y-129461580D03*
D15*
X31808000Y-162560000D03*
X32708000Y-162560000D03*
D14*
X28011000Y-132501580D03*
X29281000Y-132501580D03*
X30551000Y-132501580D03*
X31821000Y-132501580D03*
X33091000Y-132501580D03*
X34361000Y-132501580D03*
X35631000Y-132501580D03*
X36901000Y-132501580D03*
X36901000Y-137901580D03*
X35631000Y-137901580D03*
X34361000Y-137901580D03*
X33091000Y-137901580D03*
X31821000Y-137901580D03*
X30551000Y-137901580D03*
X29281000Y-137901580D03*
X28011000Y-137901580D03*
D13*
X36936000Y-139831580D03*
X36936000Y-140731580D03*
X29306000Y-139831580D03*
X29306000Y-140731580D03*
X22733000Y-134173380D03*
X22733000Y-133273380D03*
D12*
X24246840Y-134139980D03*
X24246840Y-132239980D03*
X26245820Y-133189980D03*
D11*
X40980360Y-135031480D03*
X23444200Y-129456180D03*
X41008300Y-129303780D03*
X40952420Y-139781280D03*
X23444200Y-137330180D03*
X28473400Y-129379980D03*
X53873400Y-129379980D03*
X48844200Y-137330180D03*
X66352420Y-139781280D03*
X66408300Y-129303780D03*
X48844200Y-129456180D03*
X66380360Y-135031480D03*
D12*
X49646840Y-134139980D03*
X49646840Y-132239980D03*
X51645820Y-133189980D03*
D13*
X48133000Y-134173380D03*
X48133000Y-133273380D03*
X54706000Y-139831580D03*
X54706000Y-140731580D03*
X62336000Y-139831580D03*
X62336000Y-140731580D03*
D14*
X53411000Y-132501580D03*
X54681000Y-132501580D03*
X55951000Y-132501580D03*
X57221000Y-132501580D03*
X58491000Y-132501580D03*
X59761000Y-132501580D03*
X61031000Y-132501580D03*
X62301000Y-132501580D03*
X62301000Y-137901580D03*
X61031000Y-137901580D03*
X59761000Y-137901580D03*
X58491000Y-137901580D03*
X57221000Y-137901580D03*
X55951000Y-137901580D03*
X54681000Y-137901580D03*
X53411000Y-137901580D03*
D15*
X57208000Y-162560000D03*
X58108000Y-162560000D03*
D13*
X61006000Y-130361580D03*
X61006000Y-129461580D03*
D16*
X57236000Y-130541580D03*
X57236000Y-129441580D03*
X108036000Y-130541580D03*
X108036000Y-129441580D03*
D13*
X111806000Y-130361580D03*
X111806000Y-129461580D03*
D15*
X108008000Y-162560000D03*
X108908000Y-162560000D03*
D14*
X104211000Y-132501580D03*
X105481000Y-132501580D03*
X106751000Y-132501580D03*
X108021000Y-132501580D03*
X109291000Y-132501580D03*
X110561000Y-132501580D03*
X111831000Y-132501580D03*
X113101000Y-132501580D03*
X113101000Y-137901580D03*
X111831000Y-137901580D03*
X110561000Y-137901580D03*
X109291000Y-137901580D03*
X108021000Y-137901580D03*
X106751000Y-137901580D03*
X105481000Y-137901580D03*
X104211000Y-137901580D03*
D13*
X113136000Y-139831580D03*
X113136000Y-140731580D03*
X105506000Y-139831580D03*
X105506000Y-140731580D03*
X98933000Y-134173380D03*
X98933000Y-133273380D03*
D12*
X100446840Y-134139980D03*
X100446840Y-132239980D03*
X102445820Y-133189980D03*
D11*
X117180360Y-135031480D03*
X99644200Y-129456180D03*
X117208300Y-129303780D03*
X117152420Y-139781280D03*
X99644200Y-137330180D03*
X104673400Y-129379980D03*
X79273400Y-129379980D03*
X74244200Y-137330180D03*
X91752420Y-139781280D03*
X91808300Y-129303780D03*
X74244200Y-129456180D03*
X91780360Y-135031480D03*
D12*
X75046840Y-134139980D03*
X75046840Y-132239980D03*
X77045820Y-133189980D03*
D13*
X73533000Y-134173380D03*
X73533000Y-133273380D03*
X80106000Y-139831580D03*
X80106000Y-140731580D03*
X87736000Y-139831580D03*
X87736000Y-140731580D03*
D14*
X78811000Y-132501580D03*
X80081000Y-132501580D03*
X81351000Y-132501580D03*
X82621000Y-132501580D03*
X83891000Y-132501580D03*
X85161000Y-132501580D03*
X86431000Y-132501580D03*
X87701000Y-132501580D03*
X87701000Y-137901580D03*
X86431000Y-137901580D03*
X85161000Y-137901580D03*
X83891000Y-137901580D03*
X82621000Y-137901580D03*
X81351000Y-137901580D03*
X80081000Y-137901580D03*
X78811000Y-137901580D03*
D15*
X82608000Y-162560000D03*
X83508000Y-162560000D03*
D13*
X86406000Y-130361580D03*
X86406000Y-129461580D03*
D16*
X82636000Y-130541580D03*
X82636000Y-129441580D03*
D11*
X130073400Y-22707600D03*
X125044200Y-30657800D03*
X142552420Y-33108900D03*
X142608300Y-22631400D03*
X125044200Y-22783800D03*
X142580360Y-28359100D03*
D12*
X125846840Y-27467600D03*
X125846840Y-25567600D03*
X127845820Y-26517600D03*
D13*
X124333000Y-27501000D03*
X124333000Y-26601000D03*
X130906000Y-33159200D03*
X130906000Y-34059200D03*
X138536000Y-33159200D03*
X138536000Y-34059200D03*
D14*
X129611000Y-25829200D03*
X130881000Y-25829200D03*
X132151000Y-25829200D03*
X133421000Y-25829200D03*
X134691000Y-25829200D03*
X135961000Y-25829200D03*
X137231000Y-25829200D03*
X138501000Y-25829200D03*
X138501000Y-31229200D03*
X137231000Y-31229200D03*
X135961000Y-31229200D03*
X134691000Y-31229200D03*
X133421000Y-31229200D03*
X132151000Y-31229200D03*
X130881000Y-31229200D03*
X129611000Y-31229200D03*
D15*
X133408000Y-54864000D03*
X134308000Y-54864000D03*
D13*
X137206000Y-23689200D03*
X137206000Y-22789200D03*
D16*
X133436000Y-23869200D03*
X133436000Y-22769200D03*
X133436000Y-77201580D03*
X133436000Y-76101580D03*
D13*
X137206000Y-77021580D03*
X137206000Y-76121580D03*
D15*
X133408000Y-109220000D03*
X134308000Y-109220000D03*
D14*
X129611000Y-79161580D03*
X130881000Y-79161580D03*
X132151000Y-79161580D03*
X133421000Y-79161580D03*
X134691000Y-79161580D03*
X135961000Y-79161580D03*
X137231000Y-79161580D03*
X138501000Y-79161580D03*
X138501000Y-84561580D03*
X137231000Y-84561580D03*
X135961000Y-84561580D03*
X134691000Y-84561580D03*
X133421000Y-84561580D03*
X132151000Y-84561580D03*
X130881000Y-84561580D03*
X129611000Y-84561580D03*
D13*
X138536000Y-86491580D03*
X138536000Y-87391580D03*
X130906000Y-86491580D03*
X130906000Y-87391580D03*
X124333000Y-80833380D03*
X124333000Y-79933380D03*
D12*
X125846840Y-80799980D03*
X125846840Y-78899980D03*
X127845820Y-79849980D03*
D11*
X142580360Y-81691480D03*
X125044200Y-76116180D03*
X142608300Y-75963780D03*
X142552420Y-86441280D03*
X125044200Y-83990180D03*
X130073400Y-76039980D03*
X155473400Y-76039980D03*
X150444200Y-83990180D03*
X167952420Y-86441280D03*
X168008300Y-75963780D03*
X150444200Y-76116180D03*
X167980360Y-81691480D03*
D12*
X151246840Y-80799980D03*
X151246840Y-78899980D03*
X153245820Y-79849980D03*
D13*
X149733000Y-80833380D03*
X149733000Y-79933380D03*
X156306000Y-86491580D03*
X156306000Y-87391580D03*
X163936000Y-86491580D03*
X163936000Y-87391580D03*
D14*
X155011000Y-79161580D03*
X156281000Y-79161580D03*
X157551000Y-79161580D03*
X158821000Y-79161580D03*
X160091000Y-79161580D03*
X161361000Y-79161580D03*
X162631000Y-79161580D03*
X163901000Y-79161580D03*
X163901000Y-84561580D03*
X162631000Y-84561580D03*
X161361000Y-84561580D03*
X160091000Y-84561580D03*
X158821000Y-84561580D03*
X157551000Y-84561580D03*
X156281000Y-84561580D03*
X155011000Y-84561580D03*
D15*
X158808000Y-109220000D03*
X159708000Y-109220000D03*
D13*
X162606000Y-77021580D03*
X162606000Y-76121580D03*
D16*
X158836000Y-77201580D03*
X158836000Y-76101580D03*
X158836000Y-23869200D03*
X158836000Y-22769200D03*
D13*
X162606000Y-23689200D03*
X162606000Y-22789200D03*
D15*
X158808000Y-54864000D03*
X159708000Y-54864000D03*
D14*
X155011000Y-25829200D03*
X156281000Y-25829200D03*
X157551000Y-25829200D03*
X158821000Y-25829200D03*
X160091000Y-25829200D03*
X161361000Y-25829200D03*
X162631000Y-25829200D03*
X163901000Y-25829200D03*
X163901000Y-31229200D03*
X162631000Y-31229200D03*
X161361000Y-31229200D03*
X160091000Y-31229200D03*
X158821000Y-31229200D03*
X157551000Y-31229200D03*
X156281000Y-31229200D03*
X155011000Y-31229200D03*
D13*
X163936000Y-33159200D03*
X163936000Y-34059200D03*
X156306000Y-33159200D03*
X156306000Y-34059200D03*
X149733000Y-27501000D03*
X149733000Y-26601000D03*
D12*
X151246840Y-27467600D03*
X151246840Y-25567600D03*
X153245820Y-26517600D03*
D11*
X167980360Y-28359100D03*
X150444200Y-22783800D03*
X168008300Y-22631400D03*
X167952420Y-33108900D03*
X150444200Y-30657800D03*
X155473400Y-22707600D03*
X206273400Y-22707600D03*
X201244200Y-30657800D03*
X218752420Y-33108900D03*
X218808300Y-22631400D03*
X201244200Y-22783800D03*
X218780360Y-28359100D03*
D12*
X202046840Y-27467600D03*
X202046840Y-25567600D03*
X204045820Y-26517600D03*
D13*
X200533000Y-27501000D03*
X200533000Y-26601000D03*
X207106000Y-33159200D03*
X207106000Y-34059200D03*
X214736000Y-33159200D03*
X214736000Y-34059200D03*
D14*
X205811000Y-25829200D03*
X207081000Y-25829200D03*
X208351000Y-25829200D03*
X209621000Y-25829200D03*
X210891000Y-25829200D03*
X212161000Y-25829200D03*
X213431000Y-25829200D03*
X214701000Y-25829200D03*
X214701000Y-31229200D03*
X213431000Y-31229200D03*
X212161000Y-31229200D03*
X210891000Y-31229200D03*
X209621000Y-31229200D03*
X208351000Y-31229200D03*
X207081000Y-31229200D03*
X205811000Y-31229200D03*
D15*
X209608000Y-54864000D03*
X210508000Y-54864000D03*
D13*
X213406000Y-23689200D03*
X213406000Y-22789200D03*
D16*
X209636000Y-23869200D03*
X209636000Y-22769200D03*
X209636000Y-77201580D03*
X209636000Y-76101580D03*
D13*
X213406000Y-77021580D03*
X213406000Y-76121580D03*
D15*
X209608000Y-109220000D03*
X210508000Y-109220000D03*
D14*
X205811000Y-79161580D03*
X207081000Y-79161580D03*
X208351000Y-79161580D03*
X209621000Y-79161580D03*
X210891000Y-79161580D03*
X212161000Y-79161580D03*
X213431000Y-79161580D03*
X214701000Y-79161580D03*
X214701000Y-84561580D03*
X213431000Y-84561580D03*
X212161000Y-84561580D03*
X210891000Y-84561580D03*
X209621000Y-84561580D03*
X208351000Y-84561580D03*
X207081000Y-84561580D03*
X205811000Y-84561580D03*
D13*
X214736000Y-86491580D03*
X214736000Y-87391580D03*
X207106000Y-86491580D03*
X207106000Y-87391580D03*
X200533000Y-80833380D03*
X200533000Y-79933380D03*
D12*
X202046840Y-80799980D03*
X202046840Y-78899980D03*
X204045820Y-79849980D03*
D11*
X218780360Y-81691480D03*
X201244200Y-76116180D03*
X218808300Y-75963780D03*
X218752420Y-86441280D03*
X201244200Y-83990180D03*
X206273400Y-76039980D03*
X180873400Y-76039980D03*
X175844200Y-83990180D03*
X193352420Y-86441280D03*
X193408300Y-75963780D03*
X175844200Y-76116180D03*
X193380360Y-81691480D03*
D12*
X176646840Y-80799980D03*
X176646840Y-78899980D03*
X178645820Y-79849980D03*
D13*
X175133000Y-80833380D03*
X175133000Y-79933380D03*
X181706000Y-86491580D03*
X181706000Y-87391580D03*
X189336000Y-86491580D03*
X189336000Y-87391580D03*
D14*
X180411000Y-79161580D03*
X181681000Y-79161580D03*
X182951000Y-79161580D03*
X184221000Y-79161580D03*
X185491000Y-79161580D03*
X186761000Y-79161580D03*
X188031000Y-79161580D03*
X189301000Y-79161580D03*
X189301000Y-84561580D03*
X188031000Y-84561580D03*
X186761000Y-84561580D03*
X185491000Y-84561580D03*
X184221000Y-84561580D03*
X182951000Y-84561580D03*
X181681000Y-84561580D03*
X180411000Y-84561580D03*
D15*
X184208000Y-109220000D03*
X185108000Y-109220000D03*
D13*
X188006000Y-77021580D03*
X188006000Y-76121580D03*
D16*
X184236000Y-77201580D03*
X184236000Y-76101580D03*
X184236000Y-23869200D03*
X184236000Y-22769200D03*
D13*
X188006000Y-23689200D03*
X188006000Y-22789200D03*
D15*
X184208000Y-54864000D03*
X185108000Y-54864000D03*
D14*
X180411000Y-25829200D03*
X181681000Y-25829200D03*
X182951000Y-25829200D03*
X184221000Y-25829200D03*
X185491000Y-25829200D03*
X186761000Y-25829200D03*
X188031000Y-25829200D03*
X189301000Y-25829200D03*
X189301000Y-31229200D03*
X188031000Y-31229200D03*
X186761000Y-31229200D03*
X185491000Y-31229200D03*
X184221000Y-31229200D03*
X182951000Y-31229200D03*
X181681000Y-31229200D03*
X180411000Y-31229200D03*
D13*
X189336000Y-33159200D03*
X189336000Y-34059200D03*
X181706000Y-33159200D03*
X181706000Y-34059200D03*
X175133000Y-27501000D03*
X175133000Y-26601000D03*
D12*
X176646840Y-27467600D03*
X176646840Y-25567600D03*
X178645820Y-26517600D03*
D11*
X193380360Y-28359100D03*
X175844200Y-22783800D03*
X193408300Y-22631400D03*
X193352420Y-33108900D03*
X175844200Y-30657800D03*
X180873400Y-22707600D03*
X79273400Y-22707600D03*
X74244200Y-30657800D03*
X91752420Y-33108900D03*
X91808300Y-22631400D03*
X74244200Y-22783800D03*
X91780360Y-28359100D03*
D12*
X75046840Y-27467600D03*
X75046840Y-25567600D03*
X77045820Y-26517600D03*
D13*
X73533000Y-27501000D03*
X73533000Y-26601000D03*
X80106000Y-33159200D03*
X80106000Y-34059200D03*
X87736000Y-33159200D03*
X87736000Y-34059200D03*
D14*
X78811000Y-25829200D03*
X80081000Y-25829200D03*
X81351000Y-25829200D03*
X82621000Y-25829200D03*
X83891000Y-25829200D03*
X85161000Y-25829200D03*
X86431000Y-25829200D03*
X87701000Y-25829200D03*
X87701000Y-31229200D03*
X86431000Y-31229200D03*
X85161000Y-31229200D03*
X83891000Y-31229200D03*
X82621000Y-31229200D03*
X81351000Y-31229200D03*
X80081000Y-31229200D03*
X78811000Y-31229200D03*
D15*
X82608000Y-54864000D03*
X83508000Y-54864000D03*
D13*
X86406000Y-23689200D03*
X86406000Y-22789200D03*
D16*
X82636000Y-23869200D03*
X82636000Y-22769200D03*
X82636000Y-77201580D03*
X82636000Y-76101580D03*
D13*
X86406000Y-77021580D03*
X86406000Y-76121580D03*
D15*
X82608000Y-109220000D03*
X83508000Y-109220000D03*
D14*
X78811000Y-79161580D03*
X80081000Y-79161580D03*
X81351000Y-79161580D03*
X82621000Y-79161580D03*
X83891000Y-79161580D03*
X85161000Y-79161580D03*
X86431000Y-79161580D03*
X87701000Y-79161580D03*
X87701000Y-84561580D03*
X86431000Y-84561580D03*
X85161000Y-84561580D03*
X83891000Y-84561580D03*
X82621000Y-84561580D03*
X81351000Y-84561580D03*
X80081000Y-84561580D03*
X78811000Y-84561580D03*
D13*
X87736000Y-86491580D03*
X87736000Y-87391580D03*
X80106000Y-86491580D03*
X80106000Y-87391580D03*
X73533000Y-80833380D03*
X73533000Y-79933380D03*
D12*
X75046840Y-80799980D03*
X75046840Y-78899980D03*
X77045820Y-79849980D03*
D11*
X91780360Y-81691480D03*
X74244200Y-76116180D03*
X91808300Y-75963780D03*
X91752420Y-86441280D03*
X74244200Y-83990180D03*
X79273400Y-76039980D03*
X104673400Y-76039980D03*
X99644200Y-83990180D03*
X117152420Y-86441280D03*
X117208300Y-75963780D03*
X99644200Y-76116180D03*
X117180360Y-81691480D03*
D12*
X100446840Y-80799980D03*
X100446840Y-78899980D03*
X102445820Y-79849980D03*
D13*
X98933000Y-80833380D03*
X98933000Y-79933380D03*
X105506000Y-86491580D03*
X105506000Y-87391580D03*
X113136000Y-86491580D03*
X113136000Y-87391580D03*
D14*
X104211000Y-79161580D03*
X105481000Y-79161580D03*
X106751000Y-79161580D03*
X108021000Y-79161580D03*
X109291000Y-79161580D03*
X110561000Y-79161580D03*
X111831000Y-79161580D03*
X113101000Y-79161580D03*
X113101000Y-84561580D03*
X111831000Y-84561580D03*
X110561000Y-84561580D03*
X109291000Y-84561580D03*
X108021000Y-84561580D03*
X106751000Y-84561580D03*
X105481000Y-84561580D03*
X104211000Y-84561580D03*
D15*
X108008000Y-109220000D03*
X108908000Y-109220000D03*
D13*
X111806000Y-77021580D03*
X111806000Y-76121580D03*
D16*
X108036000Y-77201580D03*
X108036000Y-76101580D03*
X108036000Y-23869200D03*
X108036000Y-22769200D03*
D13*
X111806000Y-23689200D03*
X111806000Y-22789200D03*
D15*
X108008000Y-54864000D03*
X108908000Y-54864000D03*
D14*
X104211000Y-25829200D03*
X105481000Y-25829200D03*
X106751000Y-25829200D03*
X108021000Y-25829200D03*
X109291000Y-25829200D03*
X110561000Y-25829200D03*
X111831000Y-25829200D03*
X113101000Y-25829200D03*
X113101000Y-31229200D03*
X111831000Y-31229200D03*
X110561000Y-31229200D03*
X109291000Y-31229200D03*
X108021000Y-31229200D03*
X106751000Y-31229200D03*
X105481000Y-31229200D03*
X104211000Y-31229200D03*
D13*
X113136000Y-33159200D03*
X113136000Y-34059200D03*
X105506000Y-33159200D03*
X105506000Y-34059200D03*
X98933000Y-27501000D03*
X98933000Y-26601000D03*
D12*
X100446840Y-27467600D03*
X100446840Y-25567600D03*
X102445820Y-26517600D03*
D11*
X117180360Y-28359100D03*
X99644200Y-22783800D03*
X117208300Y-22631400D03*
X117152420Y-33108900D03*
X99644200Y-30657800D03*
X104673400Y-22707600D03*
X53873400Y-22707600D03*
X48844200Y-30657800D03*
X66352420Y-33108900D03*
X66408300Y-22631400D03*
X48844200Y-22783800D03*
X66380360Y-28359100D03*
D12*
X49646840Y-27467600D03*
X49646840Y-25567600D03*
X51645820Y-26517600D03*
D13*
X48133000Y-27501000D03*
X48133000Y-26601000D03*
X54706000Y-33159200D03*
X54706000Y-34059200D03*
X62336000Y-33159200D03*
X62336000Y-34059200D03*
D14*
X53411000Y-25829200D03*
X54681000Y-25829200D03*
X55951000Y-25829200D03*
X57221000Y-25829200D03*
X58491000Y-25829200D03*
X59761000Y-25829200D03*
X61031000Y-25829200D03*
X62301000Y-25829200D03*
X62301000Y-31229200D03*
X61031000Y-31229200D03*
X59761000Y-31229200D03*
X58491000Y-31229200D03*
X57221000Y-31229200D03*
X55951000Y-31229200D03*
X54681000Y-31229200D03*
X53411000Y-31229200D03*
D15*
X57208000Y-54864000D03*
X58108000Y-54864000D03*
D13*
X61006000Y-23689200D03*
X61006000Y-22789200D03*
D16*
X57236000Y-23869200D03*
X57236000Y-22769200D03*
X57236000Y-77201580D03*
X57236000Y-76101580D03*
D13*
X61006000Y-77021580D03*
X61006000Y-76121580D03*
D15*
X57208000Y-109220000D03*
X58108000Y-109220000D03*
D14*
X53411000Y-79161580D03*
X54681000Y-79161580D03*
X55951000Y-79161580D03*
X57221000Y-79161580D03*
X58491000Y-79161580D03*
X59761000Y-79161580D03*
X61031000Y-79161580D03*
X62301000Y-79161580D03*
X62301000Y-84561580D03*
X61031000Y-84561580D03*
X59761000Y-84561580D03*
X58491000Y-84561580D03*
X57221000Y-84561580D03*
X55951000Y-84561580D03*
X54681000Y-84561580D03*
X53411000Y-84561580D03*
D13*
X62336000Y-86491580D03*
X62336000Y-87391580D03*
X54706000Y-86491580D03*
X54706000Y-87391580D03*
X48133000Y-80833380D03*
X48133000Y-79933380D03*
D12*
X49646840Y-80799980D03*
X49646840Y-78899980D03*
X51645820Y-79849980D03*
D11*
X66380360Y-81691480D03*
X48844200Y-76116180D03*
X66408300Y-75963780D03*
X66352420Y-86441280D03*
X48844200Y-83990180D03*
X53873400Y-76039980D03*
X28473400Y-76039980D03*
X23444200Y-83990180D03*
X40952420Y-86441280D03*
X41008300Y-75963780D03*
X23444200Y-76116180D03*
X40980360Y-81691480D03*
D12*
X24246840Y-80799980D03*
X24246840Y-78899980D03*
X26245820Y-79849980D03*
D13*
X22733000Y-80833380D03*
X22733000Y-79933380D03*
X29306000Y-86491580D03*
X29306000Y-87391580D03*
X36936000Y-86491580D03*
X36936000Y-87391580D03*
D14*
X28011000Y-79161580D03*
X29281000Y-79161580D03*
X30551000Y-79161580D03*
X31821000Y-79161580D03*
X33091000Y-79161580D03*
X34361000Y-79161580D03*
X35631000Y-79161580D03*
X36901000Y-79161580D03*
X36901000Y-84561580D03*
X35631000Y-84561580D03*
X34361000Y-84561580D03*
X33091000Y-84561580D03*
X31821000Y-84561580D03*
X30551000Y-84561580D03*
X29281000Y-84561580D03*
X28011000Y-84561580D03*
D15*
X31808000Y-109220000D03*
X32708000Y-109220000D03*
D13*
X35606000Y-77021580D03*
X35606000Y-76121580D03*
D16*
X31836000Y-77201580D03*
X31836000Y-76101580D03*
X31836000Y-23869200D03*
X31836000Y-22769200D03*
D13*
X35606000Y-23689200D03*
X35606000Y-22789200D03*
D15*
X31808000Y-54864000D03*
X32708000Y-54864000D03*
D14*
X28011000Y-25829200D03*
X29281000Y-25829200D03*
X30551000Y-25829200D03*
X31821000Y-25829200D03*
X33091000Y-25829200D03*
X34361000Y-25829200D03*
X35631000Y-25829200D03*
X36901000Y-25829200D03*
X36901000Y-31229200D03*
X35631000Y-31229200D03*
X34361000Y-31229200D03*
X33091000Y-31229200D03*
X31821000Y-31229200D03*
X30551000Y-31229200D03*
X29281000Y-31229200D03*
X28011000Y-31229200D03*
D13*
X36936000Y-33159200D03*
X36936000Y-34059200D03*
X29306000Y-33159200D03*
X29306000Y-34059200D03*
X22733000Y-27501000D03*
X22733000Y-26601000D03*
D12*
X24246840Y-27467600D03*
X24246840Y-25567600D03*
X26245820Y-26517600D03*
D11*
X40980360Y-28359100D03*
X23444200Y-22783800D03*
X41008300Y-22631400D03*
X40952420Y-33108900D03*
X23444200Y-30657800D03*
X28473400Y-22707600D03*
D17*
X236372400Y-77055980D03*
X236804200Y-91025980D03*
X236804200Y-37693600D03*
X236372400Y-23723600D03*
X236372400Y-130403600D03*
X236804200Y-144373600D03*
X185572400Y-130403600D03*
X186004200Y-144373600D03*
X211404200Y-144373600D03*
X210972400Y-130403600D03*
X160172400Y-130403600D03*
X160604200Y-144373600D03*
X135204200Y-144373600D03*
X134772400Y-130403600D03*
X33604200Y-144365980D03*
X33172400Y-130395980D03*
X58572400Y-130395980D03*
X59004200Y-144365980D03*
X109804200Y-144365980D03*
X109372400Y-130395980D03*
X83972400Y-130395980D03*
X84404200Y-144365980D03*
X134772400Y-23723600D03*
X135204200Y-37693600D03*
X135204200Y-91025980D03*
X134772400Y-77055980D03*
X160172400Y-77055980D03*
X160604200Y-91025980D03*
X160604200Y-37693600D03*
X160172400Y-23723600D03*
X210972400Y-23723600D03*
X211404200Y-37693600D03*
X211404200Y-91025980D03*
X210972400Y-77055980D03*
X185572400Y-77055980D03*
X186004200Y-91025980D03*
X186004200Y-37693600D03*
X185572400Y-23723600D03*
X83972400Y-23723600D03*
X84404200Y-37693600D03*
X84404200Y-91025980D03*
X83972400Y-77055980D03*
X109372400Y-77055980D03*
X109804200Y-91025980D03*
X109804200Y-37693600D03*
X109372400Y-23723600D03*
X58572400Y-23723600D03*
X59004200Y-37693600D03*
X59004200Y-91025980D03*
X58572400Y-77055980D03*
X33172400Y-77055980D03*
X33604200Y-91025980D03*
X33604200Y-37693600D03*
X33172400Y-23723600D03*
X234238800Y-91025980D03*
X232537000Y-80484980D03*
X234238800Y-37693600D03*
X232537000Y-27152600D03*
X232537000Y-133832600D03*
X234238800Y-144373600D03*
X181737000Y-133832600D03*
X183438800Y-144373600D03*
X208838800Y-144373600D03*
X207137000Y-133832600D03*
X156337000Y-133832600D03*
X158038800Y-144373600D03*
X132638800Y-144373600D03*
X130937000Y-133832600D03*
X29337000Y-133824980D03*
X31038800Y-144365980D03*
X56438800Y-144365980D03*
X54737000Y-133824980D03*
X105537000Y-133824980D03*
X107238800Y-144365980D03*
X81838800Y-144365980D03*
X80137000Y-133824980D03*
X130937000Y-27152600D03*
X132638800Y-37693600D03*
X130937000Y-80484980D03*
X132638800Y-91025980D03*
X158038800Y-91025980D03*
X156337000Y-80484980D03*
X158038800Y-37693600D03*
X156337000Y-27152600D03*
X207137000Y-27152600D03*
X208838800Y-37693600D03*
X207137000Y-80484980D03*
X208838800Y-91025980D03*
X183438800Y-91025980D03*
X181737000Y-80484980D03*
X183438800Y-37693600D03*
X181737000Y-27152600D03*
X80137000Y-27152600D03*
X81838800Y-37693600D03*
X80137000Y-80484980D03*
X81838800Y-91025980D03*
X107238800Y-91025980D03*
X105537000Y-80484980D03*
X107238800Y-37693600D03*
X105537000Y-27152600D03*
X54737000Y-27152600D03*
X56438800Y-37693600D03*
X54737000Y-80484980D03*
X56438800Y-91025980D03*
X31038800Y-91025980D03*
X29337000Y-80484980D03*
X31038800Y-37693600D03*
X29337000Y-27152600D03*
X242034060Y-88574880D03*
X242034060Y-35242500D03*
X242034060Y-141922500D03*
X191234060Y-141922500D03*
X216634060Y-141922500D03*
X165834060Y-141922500D03*
X140434060Y-141922500D03*
X38834060Y-141914880D03*
X64234060Y-141914880D03*
X115034060Y-141914880D03*
X89634060Y-141914880D03*
X140434060Y-35242500D03*
X140434060Y-88574880D03*
X165834060Y-88574880D03*
X165834060Y-35242500D03*
X216634060Y-35242500D03*
X216634060Y-88574880D03*
X191234060Y-88574880D03*
X191234060Y-35242500D03*
X89634060Y-35242500D03*
X89634060Y-88574880D03*
X115034060Y-88574880D03*
X115034060Y-35242500D03*
X64234060Y-35242500D03*
X64234060Y-88574880D03*
X38834060Y-88574880D03*
X38834060Y-35242500D03*
X229768400Y-29565600D03*
X229920800Y-82897980D03*
X229768400Y-136245600D03*
X178968400Y-136245600D03*
X204368400Y-136245600D03*
X153568400Y-136245600D03*
X128168400Y-136245600D03*
X26720800Y-136237980D03*
X52120800Y-136237980D03*
X102920800Y-136237980D03*
X77520800Y-136237980D03*
X128320800Y-82897980D03*
X128168400Y-29565600D03*
X153568400Y-29565600D03*
X153720800Y-82897980D03*
X204520800Y-82897980D03*
X204368400Y-29565600D03*
X178968400Y-29565600D03*
X179120800Y-82897980D03*
X77520800Y-82897980D03*
X77368400Y-29565600D03*
X102768400Y-29565600D03*
X102920800Y-82897980D03*
X52120800Y-82897980D03*
X51968400Y-29565600D03*
X26568400Y-29565600D03*
X26720800Y-82897980D03*
D18*
X233751000Y-79161580D02*
X235021000Y-79161580D01*
X235021000Y-77216580D02*
X235036000Y-77201580D01*
X235021000Y-79161580D02*
X235021000Y-77216580D01*
X235021000Y-25829200D02*
X235021000Y-23884200D01*
X235021000Y-23884200D02*
X235036000Y-23869200D01*
X233751000Y-25829200D02*
X235021000Y-25829200D01*
X233751000Y-132509200D02*
X235021000Y-132509200D01*
X235021000Y-130564200D02*
X235036000Y-130549200D01*
X235021000Y-132509200D02*
X235021000Y-130564200D01*
X182951000Y-132509200D02*
X184221000Y-132509200D01*
X184221000Y-130564200D02*
X184236000Y-130549200D01*
X184221000Y-132509200D02*
X184221000Y-130564200D01*
X209621000Y-132509200D02*
X209621000Y-130564200D01*
X209621000Y-130564200D02*
X209636000Y-130549200D01*
X208351000Y-132509200D02*
X209621000Y-132509200D01*
X157551000Y-132509200D02*
X158821000Y-132509200D01*
X158821000Y-130564200D02*
X158836000Y-130549200D01*
X158821000Y-132509200D02*
X158821000Y-130564200D01*
X133421000Y-132509200D02*
X133421000Y-130564200D01*
X133421000Y-130564200D02*
X133436000Y-130549200D01*
X132151000Y-132509200D02*
X133421000Y-132509200D01*
X31821000Y-132501580D02*
X31821000Y-130556580D01*
X31821000Y-130556580D02*
X31836000Y-130541580D01*
X30551000Y-132501580D02*
X31821000Y-132501580D01*
X55951000Y-132501580D02*
X57221000Y-132501580D01*
X57221000Y-130556580D02*
X57236000Y-130541580D01*
X57221000Y-132501580D02*
X57221000Y-130556580D01*
X108021000Y-132501580D02*
X108021000Y-130556580D01*
X108021000Y-130556580D02*
X108036000Y-130541580D01*
X106751000Y-132501580D02*
X108021000Y-132501580D01*
X81351000Y-132501580D02*
X82621000Y-132501580D01*
X82621000Y-130556580D02*
X82636000Y-130541580D01*
X82621000Y-132501580D02*
X82621000Y-130556580D01*
X132151000Y-25829200D02*
X133421000Y-25829200D01*
X133421000Y-23884200D02*
X133436000Y-23869200D01*
X133421000Y-25829200D02*
X133421000Y-23884200D01*
X133421000Y-79161580D02*
X133421000Y-77216580D01*
X133421000Y-77216580D02*
X133436000Y-77201580D01*
X132151000Y-79161580D02*
X133421000Y-79161580D01*
X157551000Y-79161580D02*
X158821000Y-79161580D01*
X158821000Y-77216580D02*
X158836000Y-77201580D01*
X158821000Y-79161580D02*
X158821000Y-77216580D01*
X158821000Y-25829200D02*
X158821000Y-23884200D01*
X158821000Y-23884200D02*
X158836000Y-23869200D01*
X157551000Y-25829200D02*
X158821000Y-25829200D01*
X208351000Y-25829200D02*
X209621000Y-25829200D01*
X209621000Y-23884200D02*
X209636000Y-23869200D01*
X209621000Y-25829200D02*
X209621000Y-23884200D01*
X209621000Y-79161580D02*
X209621000Y-77216580D01*
X209621000Y-77216580D02*
X209636000Y-77201580D01*
X208351000Y-79161580D02*
X209621000Y-79161580D01*
X182951000Y-79161580D02*
X184221000Y-79161580D01*
X184221000Y-77216580D02*
X184236000Y-77201580D01*
X184221000Y-79161580D02*
X184221000Y-77216580D01*
X184221000Y-25829200D02*
X184221000Y-23884200D01*
X184221000Y-23884200D02*
X184236000Y-23869200D01*
X182951000Y-25829200D02*
X184221000Y-25829200D01*
X81351000Y-25829200D02*
X82621000Y-25829200D01*
X82621000Y-23884200D02*
X82636000Y-23869200D01*
X82621000Y-25829200D02*
X82621000Y-23884200D01*
X82621000Y-79161580D02*
X82621000Y-77216580D01*
X82621000Y-77216580D02*
X82636000Y-77201580D01*
X81351000Y-79161580D02*
X82621000Y-79161580D01*
X106751000Y-79161580D02*
X108021000Y-79161580D01*
X108021000Y-77216580D02*
X108036000Y-77201580D01*
X108021000Y-79161580D02*
X108021000Y-77216580D01*
X108021000Y-25829200D02*
X108021000Y-23884200D01*
X108021000Y-23884200D02*
X108036000Y-23869200D01*
X106751000Y-25829200D02*
X108021000Y-25829200D01*
X55951000Y-25829200D02*
X57221000Y-25829200D01*
X57221000Y-23884200D02*
X57236000Y-23869200D01*
X57221000Y-25829200D02*
X57221000Y-23884200D01*
X57221000Y-79161580D02*
X57221000Y-77216580D01*
X57221000Y-77216580D02*
X57236000Y-77201580D01*
X55951000Y-79161580D02*
X57221000Y-79161580D01*
X30551000Y-79161580D02*
X31821000Y-79161580D01*
X31821000Y-77216580D02*
X31836000Y-77201580D01*
X31821000Y-79161580D02*
X31821000Y-77216580D01*
X31821000Y-25829200D02*
X31821000Y-23884200D01*
X31821000Y-23884200D02*
X31836000Y-23869200D01*
X30551000Y-25829200D02*
X31821000Y-25829200D01*
X235908000Y-109220000D02*
X235966000Y-109220000D01*
X235966000Y-109220000D02*
X236804200Y-108381800D01*
X235908000Y-54864000D02*
X235966000Y-54864000D01*
X235966000Y-54864000D02*
X236804200Y-54025800D01*
X236804200Y-108381800D02*
X236804200Y-91025980D01*
X238786000Y-76101580D02*
X238806000Y-76121580D01*
X235036000Y-76101580D02*
X238786000Y-76101580D01*
X236510200Y-76101580D02*
X236372400Y-76239380D01*
X236372400Y-76239380D02*
X236372400Y-77055980D01*
X235036000Y-76101580D02*
X236510200Y-76101580D01*
X236804200Y-54025800D02*
X236804200Y-37693600D01*
X235036000Y-22769200D02*
X236510200Y-22769200D01*
X236372400Y-22907000D02*
X236372400Y-23723600D01*
X236510200Y-22769200D02*
X236372400Y-22907000D01*
X235036000Y-22769200D02*
X238786000Y-22769200D01*
X238786000Y-22769200D02*
X238806000Y-22789200D01*
X238786000Y-129449200D02*
X238806000Y-129469200D01*
X235036000Y-129449200D02*
X238786000Y-129449200D01*
X236510200Y-129449200D02*
X236372400Y-129587000D01*
X236372400Y-129587000D02*
X236372400Y-130403600D01*
X235036000Y-129449200D02*
X236510200Y-129449200D01*
X236804200Y-160705800D02*
X236804200Y-144373600D01*
X235966000Y-161544000D02*
X236804200Y-160705800D01*
X235908000Y-161544000D02*
X235966000Y-161544000D01*
X187986000Y-129449200D02*
X188006000Y-129469200D01*
X184236000Y-129449200D02*
X187986000Y-129449200D01*
X185710200Y-129449200D02*
X185572400Y-129587000D01*
X185572400Y-129587000D02*
X185572400Y-130403600D01*
X184236000Y-129449200D02*
X185710200Y-129449200D01*
X186004200Y-160705800D02*
X186004200Y-144373600D01*
X185166000Y-161544000D02*
X186004200Y-160705800D01*
X185108000Y-161544000D02*
X185166000Y-161544000D01*
X210508000Y-161544000D02*
X210566000Y-161544000D01*
X210566000Y-161544000D02*
X211404200Y-160705800D01*
X211404200Y-160705800D02*
X211404200Y-144373600D01*
X209636000Y-129449200D02*
X211110200Y-129449200D01*
X210972400Y-129587000D02*
X210972400Y-130403600D01*
X211110200Y-129449200D02*
X210972400Y-129587000D01*
X209636000Y-129449200D02*
X213386000Y-129449200D01*
X213386000Y-129449200D02*
X213406000Y-129469200D01*
X162586000Y-129449200D02*
X162606000Y-129469200D01*
X158836000Y-129449200D02*
X162586000Y-129449200D01*
X160310200Y-129449200D02*
X160172400Y-129587000D01*
X160172400Y-129587000D02*
X160172400Y-130403600D01*
X158836000Y-129449200D02*
X160310200Y-129449200D01*
X160604200Y-160705800D02*
X160604200Y-144373600D01*
X159766000Y-161544000D02*
X160604200Y-160705800D01*
X159708000Y-161544000D02*
X159766000Y-161544000D01*
X134308000Y-161544000D02*
X134366000Y-161544000D01*
X134366000Y-161544000D02*
X135204200Y-160705800D01*
X135204200Y-160705800D02*
X135204200Y-144373600D01*
X133436000Y-129449200D02*
X134910200Y-129449200D01*
X134772400Y-129587000D02*
X134772400Y-130403600D01*
X134910200Y-129449200D02*
X134772400Y-129587000D01*
X133436000Y-129449200D02*
X137186000Y-129449200D01*
X137186000Y-129449200D02*
X137206000Y-129469200D01*
X31836000Y-129441580D02*
X33310200Y-129441580D01*
X33172400Y-129579380D02*
X33172400Y-130395980D01*
X33310200Y-129441580D02*
X33172400Y-129579380D01*
X31836000Y-129441580D02*
X35586000Y-129441580D01*
X35586000Y-129441580D02*
X35606000Y-129461580D01*
X33604200Y-161721800D02*
X33604200Y-144365980D01*
X32766000Y-162560000D02*
X33604200Y-161721800D01*
X32708000Y-162560000D02*
X32766000Y-162560000D01*
X58108000Y-162560000D02*
X58166000Y-162560000D01*
X58166000Y-162560000D02*
X59004200Y-161721800D01*
X59004200Y-161721800D02*
X59004200Y-144365980D01*
X60986000Y-129441580D02*
X61006000Y-129461580D01*
X57236000Y-129441580D02*
X60986000Y-129441580D01*
X58710200Y-129441580D02*
X58572400Y-129579380D01*
X58572400Y-129579380D02*
X58572400Y-130395980D01*
X57236000Y-129441580D02*
X58710200Y-129441580D01*
X108036000Y-129441580D02*
X109510200Y-129441580D01*
X109372400Y-129579380D02*
X109372400Y-130395980D01*
X109510200Y-129441580D02*
X109372400Y-129579380D01*
X108036000Y-129441580D02*
X111786000Y-129441580D01*
X111786000Y-129441580D02*
X111806000Y-129461580D01*
X109804200Y-161721800D02*
X109804200Y-144365980D01*
X108966000Y-162560000D02*
X109804200Y-161721800D01*
X108908000Y-162560000D02*
X108966000Y-162560000D01*
X83508000Y-162560000D02*
X83566000Y-162560000D01*
X83566000Y-162560000D02*
X84404200Y-161721800D01*
X84404200Y-161721800D02*
X84404200Y-144365980D01*
X86386000Y-129441580D02*
X86406000Y-129461580D01*
X82636000Y-129441580D02*
X86386000Y-129441580D01*
X84110200Y-129441580D02*
X83972400Y-129579380D01*
X83972400Y-129579380D02*
X83972400Y-130395980D01*
X82636000Y-129441580D02*
X84110200Y-129441580D01*
X137186000Y-22769200D02*
X137206000Y-22789200D01*
X133436000Y-22769200D02*
X137186000Y-22769200D01*
X134910200Y-22769200D02*
X134772400Y-22907000D01*
X134772400Y-22907000D02*
X134772400Y-23723600D01*
X133436000Y-22769200D02*
X134910200Y-22769200D01*
X135204200Y-54025800D02*
X135204200Y-37693600D01*
X133436000Y-76101580D02*
X134910200Y-76101580D01*
X134772400Y-76239380D02*
X134772400Y-77055980D01*
X134910200Y-76101580D02*
X134772400Y-76239380D01*
X133436000Y-76101580D02*
X137186000Y-76101580D01*
X137186000Y-76101580D02*
X137206000Y-76121580D01*
X135204200Y-108381800D02*
X135204200Y-91025980D01*
X134366000Y-54864000D02*
X135204200Y-54025800D01*
X134308000Y-54864000D02*
X134366000Y-54864000D01*
X134366000Y-109220000D02*
X135204200Y-108381800D01*
X134308000Y-109220000D02*
X134366000Y-109220000D01*
X159708000Y-109220000D02*
X159766000Y-109220000D01*
X159766000Y-109220000D02*
X160604200Y-108381800D01*
X159708000Y-54864000D02*
X159766000Y-54864000D01*
X159766000Y-54864000D02*
X160604200Y-54025800D01*
X160604200Y-108381800D02*
X160604200Y-91025980D01*
X162586000Y-76101580D02*
X162606000Y-76121580D01*
X158836000Y-76101580D02*
X162586000Y-76101580D01*
X160310200Y-76101580D02*
X160172400Y-76239380D01*
X160172400Y-76239380D02*
X160172400Y-77055980D01*
X158836000Y-76101580D02*
X160310200Y-76101580D01*
X160604200Y-54025800D02*
X160604200Y-37693600D01*
X158836000Y-22769200D02*
X160310200Y-22769200D01*
X160172400Y-22907000D02*
X160172400Y-23723600D01*
X160310200Y-22769200D02*
X160172400Y-22907000D01*
X158836000Y-22769200D02*
X162586000Y-22769200D01*
X162586000Y-22769200D02*
X162606000Y-22789200D01*
X213386000Y-22769200D02*
X213406000Y-22789200D01*
X209636000Y-22769200D02*
X213386000Y-22769200D01*
X211110200Y-22769200D02*
X210972400Y-22907000D01*
X210972400Y-22907000D02*
X210972400Y-23723600D01*
X209636000Y-22769200D02*
X211110200Y-22769200D01*
X211404200Y-54025800D02*
X211404200Y-37693600D01*
X209636000Y-76101580D02*
X211110200Y-76101580D01*
X210972400Y-76239380D02*
X210972400Y-77055980D01*
X211110200Y-76101580D02*
X210972400Y-76239380D01*
X209636000Y-76101580D02*
X213386000Y-76101580D01*
X213386000Y-76101580D02*
X213406000Y-76121580D01*
X211404200Y-108381800D02*
X211404200Y-91025980D01*
X210566000Y-54864000D02*
X211404200Y-54025800D01*
X210508000Y-54864000D02*
X210566000Y-54864000D01*
X210566000Y-109220000D02*
X211404200Y-108381800D01*
X210508000Y-109220000D02*
X210566000Y-109220000D01*
X185108000Y-109220000D02*
X185166000Y-109220000D01*
X185166000Y-109220000D02*
X186004200Y-108381800D01*
X185108000Y-54864000D02*
X185166000Y-54864000D01*
X185166000Y-54864000D02*
X186004200Y-54025800D01*
X186004200Y-108381800D02*
X186004200Y-91025980D01*
X187986000Y-76101580D02*
X188006000Y-76121580D01*
X184236000Y-76101580D02*
X187986000Y-76101580D01*
X185710200Y-76101580D02*
X185572400Y-76239380D01*
X185572400Y-76239380D02*
X185572400Y-77055980D01*
X184236000Y-76101580D02*
X185710200Y-76101580D01*
X186004200Y-54025800D02*
X186004200Y-37693600D01*
X184236000Y-22769200D02*
X185710200Y-22769200D01*
X185572400Y-22907000D02*
X185572400Y-23723600D01*
X185710200Y-22769200D02*
X185572400Y-22907000D01*
X184236000Y-22769200D02*
X187986000Y-22769200D01*
X187986000Y-22769200D02*
X188006000Y-22789200D01*
X86386000Y-22769200D02*
X86406000Y-22789200D01*
X82636000Y-22769200D02*
X86386000Y-22769200D01*
X84110200Y-22769200D02*
X83972400Y-22907000D01*
X83972400Y-22907000D02*
X83972400Y-23723600D01*
X82636000Y-22769200D02*
X84110200Y-22769200D01*
X84404200Y-54025800D02*
X84404200Y-37693600D01*
X82636000Y-76101580D02*
X84110200Y-76101580D01*
X83972400Y-76239380D02*
X83972400Y-77055980D01*
X84110200Y-76101580D02*
X83972400Y-76239380D01*
X82636000Y-76101580D02*
X86386000Y-76101580D01*
X86386000Y-76101580D02*
X86406000Y-76121580D01*
X84404200Y-108381800D02*
X84404200Y-91025980D01*
X83566000Y-54864000D02*
X84404200Y-54025800D01*
X83508000Y-54864000D02*
X83566000Y-54864000D01*
X83566000Y-109220000D02*
X84404200Y-108381800D01*
X83508000Y-109220000D02*
X83566000Y-109220000D01*
X108908000Y-109220000D02*
X108966000Y-109220000D01*
X108966000Y-109220000D02*
X109804200Y-108381800D01*
X108908000Y-54864000D02*
X108966000Y-54864000D01*
X108966000Y-54864000D02*
X109804200Y-54025800D01*
X109804200Y-108381800D02*
X109804200Y-91025980D01*
X111786000Y-76101580D02*
X111806000Y-76121580D01*
X108036000Y-76101580D02*
X111786000Y-76101580D01*
X109510200Y-76101580D02*
X109372400Y-76239380D01*
X109372400Y-76239380D02*
X109372400Y-77055980D01*
X108036000Y-76101580D02*
X109510200Y-76101580D01*
X109804200Y-54025800D02*
X109804200Y-37693600D01*
X108036000Y-22769200D02*
X109510200Y-22769200D01*
X109372400Y-22907000D02*
X109372400Y-23723600D01*
X109510200Y-22769200D02*
X109372400Y-22907000D01*
X108036000Y-22769200D02*
X111786000Y-22769200D01*
X111786000Y-22769200D02*
X111806000Y-22789200D01*
X60986000Y-22769200D02*
X61006000Y-22789200D01*
X57236000Y-22769200D02*
X60986000Y-22769200D01*
X58710200Y-22769200D02*
X58572400Y-22907000D01*
X58572400Y-22907000D02*
X58572400Y-23723600D01*
X57236000Y-22769200D02*
X58710200Y-22769200D01*
X59004200Y-54025800D02*
X59004200Y-37693600D01*
X57236000Y-76101580D02*
X58710200Y-76101580D01*
X58572400Y-76239380D02*
X58572400Y-77055980D01*
X58710200Y-76101580D02*
X58572400Y-76239380D01*
X57236000Y-76101580D02*
X60986000Y-76101580D01*
X60986000Y-76101580D02*
X61006000Y-76121580D01*
X59004200Y-108381800D02*
X59004200Y-91025980D01*
X58166000Y-54864000D02*
X59004200Y-54025800D01*
X58108000Y-54864000D02*
X58166000Y-54864000D01*
X58166000Y-109220000D02*
X59004200Y-108381800D01*
X58108000Y-109220000D02*
X58166000Y-109220000D01*
X32708000Y-109220000D02*
X32766000Y-109220000D01*
X32766000Y-109220000D02*
X33604200Y-108381800D01*
X32708000Y-54864000D02*
X32766000Y-54864000D01*
X32766000Y-54864000D02*
X33604200Y-54025800D01*
X33604200Y-108381800D02*
X33604200Y-91025980D01*
X35586000Y-76101580D02*
X35606000Y-76121580D01*
X31836000Y-76101580D02*
X35586000Y-76101580D01*
X33310200Y-76101580D02*
X33172400Y-76239380D01*
X33172400Y-76239380D02*
X33172400Y-77055980D01*
X31836000Y-76101580D02*
X33310200Y-76101580D01*
X33604200Y-54025800D02*
X33604200Y-37693600D01*
X31836000Y-22769200D02*
X33310200Y-22769200D01*
X33172400Y-22907000D02*
X33172400Y-23723600D01*
X33310200Y-22769200D02*
X33172400Y-22907000D01*
X31836000Y-22769200D02*
X35586000Y-22769200D01*
X35586000Y-22769200D02*
X35606000Y-22789200D01*
X236291000Y-79161580D02*
X237561000Y-79161580D01*
X243405660Y-80916780D02*
X244180360Y-81691480D01*
X237561000Y-80611860D02*
X237865920Y-80916780D01*
X237865920Y-80916780D02*
X243405660Y-80916780D01*
X237561000Y-79161580D02*
X237561000Y-80611860D01*
X237561000Y-25829200D02*
X237561000Y-27279480D01*
X237865920Y-27584400D02*
X243405660Y-27584400D01*
X237561000Y-27279480D02*
X237865920Y-27584400D01*
X243405660Y-27584400D02*
X244180360Y-28359100D01*
X236291000Y-25829200D02*
X237561000Y-25829200D01*
X236291000Y-132509200D02*
X237561000Y-132509200D01*
X243405660Y-134264400D02*
X244180360Y-135039100D01*
X237561000Y-133959480D02*
X237865920Y-134264400D01*
X237865920Y-134264400D02*
X243405660Y-134264400D01*
X237561000Y-132509200D02*
X237561000Y-133959480D01*
X185491000Y-132509200D02*
X186761000Y-132509200D01*
X192605660Y-134264400D02*
X193380360Y-135039100D01*
X186761000Y-133959480D02*
X187065920Y-134264400D01*
X187065920Y-134264400D02*
X192605660Y-134264400D01*
X186761000Y-132509200D02*
X186761000Y-133959480D01*
X212161000Y-132509200D02*
X212161000Y-133959480D01*
X212465920Y-134264400D02*
X218005660Y-134264400D01*
X212161000Y-133959480D02*
X212465920Y-134264400D01*
X218005660Y-134264400D02*
X218780360Y-135039100D01*
X210891000Y-132509200D02*
X212161000Y-132509200D01*
X160091000Y-132509200D02*
X161361000Y-132509200D01*
X167205660Y-134264400D02*
X167980360Y-135039100D01*
X161361000Y-133959480D02*
X161665920Y-134264400D01*
X161665920Y-134264400D02*
X167205660Y-134264400D01*
X161361000Y-132509200D02*
X161361000Y-133959480D01*
X135961000Y-132509200D02*
X135961000Y-133959480D01*
X136265920Y-134264400D02*
X141805660Y-134264400D01*
X135961000Y-133959480D02*
X136265920Y-134264400D01*
X141805660Y-134264400D02*
X142580360Y-135039100D01*
X134691000Y-132509200D02*
X135961000Y-132509200D01*
X34361000Y-132501580D02*
X34361000Y-133951860D01*
X34665920Y-134256780D02*
X40205660Y-134256780D01*
X34361000Y-133951860D02*
X34665920Y-134256780D01*
X40205660Y-134256780D02*
X40980360Y-135031480D01*
X33091000Y-132501580D02*
X34361000Y-132501580D01*
X58491000Y-132501580D02*
X59761000Y-132501580D01*
X65605660Y-134256780D02*
X66380360Y-135031480D01*
X59761000Y-133951860D02*
X60065920Y-134256780D01*
X60065920Y-134256780D02*
X65605660Y-134256780D01*
X59761000Y-132501580D02*
X59761000Y-133951860D01*
X110561000Y-132501580D02*
X110561000Y-133951860D01*
X110865920Y-134256780D02*
X116405660Y-134256780D01*
X110561000Y-133951860D02*
X110865920Y-134256780D01*
X116405660Y-134256780D02*
X117180360Y-135031480D01*
X109291000Y-132501580D02*
X110561000Y-132501580D01*
X83891000Y-132501580D02*
X85161000Y-132501580D01*
X91005660Y-134256780D02*
X91780360Y-135031480D01*
X85161000Y-133951860D02*
X85465920Y-134256780D01*
X85465920Y-134256780D02*
X91005660Y-134256780D01*
X85161000Y-132501580D02*
X85161000Y-133951860D01*
X134691000Y-25829200D02*
X135961000Y-25829200D01*
X141805660Y-27584400D02*
X142580360Y-28359100D01*
X135961000Y-27279480D02*
X136265920Y-27584400D01*
X136265920Y-27584400D02*
X141805660Y-27584400D01*
X135961000Y-25829200D02*
X135961000Y-27279480D01*
X135961000Y-79161580D02*
X135961000Y-80611860D01*
X136265920Y-80916780D02*
X141805660Y-80916780D01*
X135961000Y-80611860D02*
X136265920Y-80916780D01*
X141805660Y-80916780D02*
X142580360Y-81691480D01*
X134691000Y-79161580D02*
X135961000Y-79161580D01*
X160091000Y-79161580D02*
X161361000Y-79161580D01*
X167205660Y-80916780D02*
X167980360Y-81691480D01*
X161361000Y-80611860D02*
X161665920Y-80916780D01*
X161665920Y-80916780D02*
X167205660Y-80916780D01*
X161361000Y-79161580D02*
X161361000Y-80611860D01*
X161361000Y-25829200D02*
X161361000Y-27279480D01*
X161665920Y-27584400D02*
X167205660Y-27584400D01*
X161361000Y-27279480D02*
X161665920Y-27584400D01*
X167205660Y-27584400D02*
X167980360Y-28359100D01*
X160091000Y-25829200D02*
X161361000Y-25829200D01*
X210891000Y-25829200D02*
X212161000Y-25829200D01*
X218005660Y-27584400D02*
X218780360Y-28359100D01*
X212161000Y-27279480D02*
X212465920Y-27584400D01*
X212465920Y-27584400D02*
X218005660Y-27584400D01*
X212161000Y-25829200D02*
X212161000Y-27279480D01*
X212161000Y-79161580D02*
X212161000Y-80611860D01*
X212465920Y-80916780D02*
X218005660Y-80916780D01*
X212161000Y-80611860D02*
X212465920Y-80916780D01*
X218005660Y-80916780D02*
X218780360Y-81691480D01*
X210891000Y-79161580D02*
X212161000Y-79161580D01*
X185491000Y-79161580D02*
X186761000Y-79161580D01*
X192605660Y-80916780D02*
X193380360Y-81691480D01*
X186761000Y-80611860D02*
X187065920Y-80916780D01*
X187065920Y-80916780D02*
X192605660Y-80916780D01*
X186761000Y-79161580D02*
X186761000Y-80611860D01*
X186761000Y-25829200D02*
X186761000Y-27279480D01*
X187065920Y-27584400D02*
X192605660Y-27584400D01*
X186761000Y-27279480D02*
X187065920Y-27584400D01*
X192605660Y-27584400D02*
X193380360Y-28359100D01*
X185491000Y-25829200D02*
X186761000Y-25829200D01*
X83891000Y-25829200D02*
X85161000Y-25829200D01*
X91005660Y-27584400D02*
X91780360Y-28359100D01*
X85161000Y-27279480D02*
X85465920Y-27584400D01*
X85465920Y-27584400D02*
X91005660Y-27584400D01*
X85161000Y-25829200D02*
X85161000Y-27279480D01*
X85161000Y-79161580D02*
X85161000Y-80611860D01*
X85465920Y-80916780D02*
X91005660Y-80916780D01*
X85161000Y-80611860D02*
X85465920Y-80916780D01*
X91005660Y-80916780D02*
X91780360Y-81691480D01*
X83891000Y-79161580D02*
X85161000Y-79161580D01*
X109291000Y-79161580D02*
X110561000Y-79161580D01*
X116405660Y-80916780D02*
X117180360Y-81691480D01*
X110561000Y-80611860D02*
X110865920Y-80916780D01*
X110865920Y-80916780D02*
X116405660Y-80916780D01*
X110561000Y-79161580D02*
X110561000Y-80611860D01*
X110561000Y-25829200D02*
X110561000Y-27279480D01*
X110865920Y-27584400D02*
X116405660Y-27584400D01*
X110561000Y-27279480D02*
X110865920Y-27584400D01*
X116405660Y-27584400D02*
X117180360Y-28359100D01*
X109291000Y-25829200D02*
X110561000Y-25829200D01*
X58491000Y-25829200D02*
X59761000Y-25829200D01*
X65605660Y-27584400D02*
X66380360Y-28359100D01*
X59761000Y-27279480D02*
X60065920Y-27584400D01*
X60065920Y-27584400D02*
X65605660Y-27584400D01*
X59761000Y-25829200D02*
X59761000Y-27279480D01*
X59761000Y-79161580D02*
X59761000Y-80611860D01*
X60065920Y-80916780D02*
X65605660Y-80916780D01*
X59761000Y-80611860D02*
X60065920Y-80916780D01*
X65605660Y-80916780D02*
X66380360Y-81691480D01*
X58491000Y-79161580D02*
X59761000Y-79161580D01*
X33091000Y-79161580D02*
X34361000Y-79161580D01*
X40205660Y-80916780D02*
X40980360Y-81691480D01*
X34361000Y-80611860D02*
X34665920Y-80916780D01*
X34665920Y-80916780D02*
X40205660Y-80916780D01*
X34361000Y-79161580D02*
X34361000Y-80611860D01*
X34361000Y-25829200D02*
X34361000Y-27279480D01*
X34665920Y-27584400D02*
X40205660Y-27584400D01*
X34361000Y-27279480D02*
X34665920Y-27584400D01*
X40205660Y-27584400D02*
X40980360Y-28359100D01*
X33091000Y-25829200D02*
X34361000Y-25829200D01*
X226413440Y-79933380D02*
X227446840Y-78899980D01*
X225933000Y-79933380D02*
X226413440Y-79933380D01*
X227446840Y-78899980D02*
X227446840Y-78646020D01*
X227446840Y-78874620D02*
X227446840Y-78899980D01*
X226644200Y-78071980D02*
X227446840Y-78874620D01*
X226644200Y-76116180D02*
X226644200Y-78071980D01*
X226644200Y-22783800D02*
X226644200Y-24739600D01*
X226644200Y-24739600D02*
X227446840Y-25542240D01*
X227446840Y-25542240D02*
X227446840Y-25567600D01*
X227446840Y-25567600D02*
X227446840Y-25313640D01*
X225933000Y-26601000D02*
X226413440Y-26601000D01*
X226413440Y-26601000D02*
X227446840Y-25567600D01*
X226413440Y-133281000D02*
X227446840Y-132247600D01*
X225933000Y-133281000D02*
X226413440Y-133281000D01*
X227446840Y-132247600D02*
X227446840Y-131993640D01*
X227446840Y-132222240D02*
X227446840Y-132247600D01*
X226644200Y-131419600D02*
X227446840Y-132222240D01*
X226644200Y-129463800D02*
X226644200Y-131419600D01*
X175613440Y-133281000D02*
X176646840Y-132247600D01*
X175133000Y-133281000D02*
X175613440Y-133281000D01*
X176646840Y-132247600D02*
X176646840Y-131993640D01*
X176646840Y-132222240D02*
X176646840Y-132247600D01*
X175844200Y-131419600D02*
X176646840Y-132222240D01*
X175844200Y-129463800D02*
X175844200Y-131419600D01*
X201244200Y-129463800D02*
X201244200Y-131419600D01*
X201244200Y-131419600D02*
X202046840Y-132222240D01*
X202046840Y-132222240D02*
X202046840Y-132247600D01*
X202046840Y-132247600D02*
X202046840Y-131993640D01*
X200533000Y-133281000D02*
X201013440Y-133281000D01*
X201013440Y-133281000D02*
X202046840Y-132247600D01*
X150213440Y-133281000D02*
X151246840Y-132247600D01*
X149733000Y-133281000D02*
X150213440Y-133281000D01*
X151246840Y-132247600D02*
X151246840Y-131993640D01*
X151246840Y-132222240D02*
X151246840Y-132247600D01*
X150444200Y-131419600D02*
X151246840Y-132222240D01*
X150444200Y-129463800D02*
X150444200Y-131419600D01*
X125044200Y-129463800D02*
X125044200Y-131419600D01*
X125044200Y-131419600D02*
X125846840Y-132222240D01*
X125846840Y-132222240D02*
X125846840Y-132247600D01*
X125846840Y-132247600D02*
X125846840Y-131993640D01*
X124333000Y-133281000D02*
X124813440Y-133281000D01*
X124813440Y-133281000D02*
X125846840Y-132247600D01*
X23444200Y-129456180D02*
X23444200Y-131411980D01*
X23444200Y-131411980D02*
X24246840Y-132214620D01*
X24246840Y-132214620D02*
X24246840Y-132239980D01*
X24246840Y-132239980D02*
X24246840Y-131986020D01*
X22733000Y-133273380D02*
X23213440Y-133273380D01*
X23213440Y-133273380D02*
X24246840Y-132239980D01*
X48613440Y-133273380D02*
X49646840Y-132239980D01*
X48133000Y-133273380D02*
X48613440Y-133273380D01*
X49646840Y-132239980D02*
X49646840Y-131986020D01*
X49646840Y-132214620D02*
X49646840Y-132239980D01*
X48844200Y-131411980D02*
X49646840Y-132214620D01*
X48844200Y-129456180D02*
X48844200Y-131411980D01*
X99644200Y-129456180D02*
X99644200Y-131411980D01*
X99644200Y-131411980D02*
X100446840Y-132214620D01*
X100446840Y-132214620D02*
X100446840Y-132239980D01*
X100446840Y-132239980D02*
X100446840Y-131986020D01*
X98933000Y-133273380D02*
X99413440Y-133273380D01*
X99413440Y-133273380D02*
X100446840Y-132239980D01*
X74013440Y-133273380D02*
X75046840Y-132239980D01*
X73533000Y-133273380D02*
X74013440Y-133273380D01*
X75046840Y-132239980D02*
X75046840Y-131986020D01*
X75046840Y-132214620D02*
X75046840Y-132239980D01*
X74244200Y-131411980D02*
X75046840Y-132214620D01*
X74244200Y-129456180D02*
X74244200Y-131411980D01*
X124813440Y-26601000D02*
X125846840Y-25567600D01*
X124333000Y-26601000D02*
X124813440Y-26601000D01*
X125846840Y-25567600D02*
X125846840Y-25313640D01*
X125846840Y-25542240D02*
X125846840Y-25567600D01*
X125044200Y-24739600D02*
X125846840Y-25542240D01*
X125044200Y-22783800D02*
X125044200Y-24739600D01*
X125044200Y-76116180D02*
X125044200Y-78071980D01*
X125044200Y-78071980D02*
X125846840Y-78874620D01*
X125846840Y-78874620D02*
X125846840Y-78899980D01*
X125846840Y-78899980D02*
X125846840Y-78646020D01*
X124333000Y-79933380D02*
X124813440Y-79933380D01*
X124813440Y-79933380D02*
X125846840Y-78899980D01*
X150213440Y-79933380D02*
X151246840Y-78899980D01*
X149733000Y-79933380D02*
X150213440Y-79933380D01*
X151246840Y-78899980D02*
X151246840Y-78646020D01*
X151246840Y-78874620D02*
X151246840Y-78899980D01*
X150444200Y-78071980D02*
X151246840Y-78874620D01*
X150444200Y-76116180D02*
X150444200Y-78071980D01*
X150444200Y-22783800D02*
X150444200Y-24739600D01*
X150444200Y-24739600D02*
X151246840Y-25542240D01*
X151246840Y-25542240D02*
X151246840Y-25567600D01*
X151246840Y-25567600D02*
X151246840Y-25313640D01*
X149733000Y-26601000D02*
X150213440Y-26601000D01*
X150213440Y-26601000D02*
X151246840Y-25567600D01*
X201013440Y-26601000D02*
X202046840Y-25567600D01*
X200533000Y-26601000D02*
X201013440Y-26601000D01*
X202046840Y-25567600D02*
X202046840Y-25313640D01*
X202046840Y-25542240D02*
X202046840Y-25567600D01*
X201244200Y-24739600D02*
X202046840Y-25542240D01*
X201244200Y-22783800D02*
X201244200Y-24739600D01*
X201244200Y-76116180D02*
X201244200Y-78071980D01*
X201244200Y-78071980D02*
X202046840Y-78874620D01*
X202046840Y-78874620D02*
X202046840Y-78899980D01*
X202046840Y-78899980D02*
X202046840Y-78646020D01*
X200533000Y-79933380D02*
X201013440Y-79933380D01*
X201013440Y-79933380D02*
X202046840Y-78899980D01*
X175613440Y-79933380D02*
X176646840Y-78899980D01*
X175133000Y-79933380D02*
X175613440Y-79933380D01*
X176646840Y-78899980D02*
X176646840Y-78646020D01*
X176646840Y-78874620D02*
X176646840Y-78899980D01*
X175844200Y-78071980D02*
X176646840Y-78874620D01*
X175844200Y-76116180D02*
X175844200Y-78071980D01*
X175844200Y-22783800D02*
X175844200Y-24739600D01*
X175844200Y-24739600D02*
X176646840Y-25542240D01*
X176646840Y-25542240D02*
X176646840Y-25567600D01*
X176646840Y-25567600D02*
X176646840Y-25313640D01*
X175133000Y-26601000D02*
X175613440Y-26601000D01*
X175613440Y-26601000D02*
X176646840Y-25567600D01*
X74013440Y-26601000D02*
X75046840Y-25567600D01*
X73533000Y-26601000D02*
X74013440Y-26601000D01*
X75046840Y-25567600D02*
X75046840Y-25313640D01*
X75046840Y-25542240D02*
X75046840Y-25567600D01*
X74244200Y-24739600D02*
X75046840Y-25542240D01*
X74244200Y-22783800D02*
X74244200Y-24739600D01*
X74244200Y-76116180D02*
X74244200Y-78071980D01*
X74244200Y-78071980D02*
X75046840Y-78874620D01*
X75046840Y-78874620D02*
X75046840Y-78899980D01*
X75046840Y-78899980D02*
X75046840Y-78646020D01*
X73533000Y-79933380D02*
X74013440Y-79933380D01*
X74013440Y-79933380D02*
X75046840Y-78899980D01*
X99413440Y-79933380D02*
X100446840Y-78899980D01*
X98933000Y-79933380D02*
X99413440Y-79933380D01*
X100446840Y-78899980D02*
X100446840Y-78646020D01*
X100446840Y-78874620D02*
X100446840Y-78899980D01*
X99644200Y-78071980D02*
X100446840Y-78874620D01*
X99644200Y-76116180D02*
X99644200Y-78071980D01*
X99644200Y-22783800D02*
X99644200Y-24739600D01*
X99644200Y-24739600D02*
X100446840Y-25542240D01*
X100446840Y-25542240D02*
X100446840Y-25567600D01*
X100446840Y-25567600D02*
X100446840Y-25313640D01*
X98933000Y-26601000D02*
X99413440Y-26601000D01*
X99413440Y-26601000D02*
X100446840Y-25567600D01*
X48613440Y-26601000D02*
X49646840Y-25567600D01*
X48133000Y-26601000D02*
X48613440Y-26601000D01*
X49646840Y-25567600D02*
X49646840Y-25313640D01*
X49646840Y-25542240D02*
X49646840Y-25567600D01*
X48844200Y-24739600D02*
X49646840Y-25542240D01*
X48844200Y-22783800D02*
X48844200Y-24739600D01*
X48844200Y-76116180D02*
X48844200Y-78071980D01*
X48844200Y-78071980D02*
X49646840Y-78874620D01*
X49646840Y-78874620D02*
X49646840Y-78899980D01*
X49646840Y-78899980D02*
X49646840Y-78646020D01*
X48133000Y-79933380D02*
X48613440Y-79933380D01*
X48613440Y-79933380D02*
X49646840Y-78899980D01*
X23213440Y-79933380D02*
X24246840Y-78899980D01*
X22733000Y-79933380D02*
X23213440Y-79933380D01*
X24246840Y-78899980D02*
X24246840Y-78646020D01*
X24246840Y-78874620D02*
X24246840Y-78899980D01*
X23444200Y-78071980D02*
X24246840Y-78874620D01*
X23444200Y-76116180D02*
X23444200Y-78071980D01*
X23444200Y-22783800D02*
X23444200Y-24739600D01*
X23444200Y-24739600D02*
X24246840Y-25542240D01*
X24246840Y-25542240D02*
X24246840Y-25567600D01*
X24246840Y-25567600D02*
X24246840Y-25313640D01*
X22733000Y-26601000D02*
X23213440Y-26601000D01*
X23213440Y-26601000D02*
X24246840Y-25567600D01*
X244205760Y-75963780D02*
X244208300Y-75963780D01*
X244208300Y-76179680D02*
X244208300Y-75963780D01*
X242989100Y-74744580D02*
X244208300Y-75963780D01*
X240538000Y-74744580D02*
X242989100Y-74744580D01*
X233705400Y-74744580D02*
X240538000Y-74744580D01*
X232410000Y-76039980D02*
X233705400Y-74744580D01*
X231673400Y-76039980D02*
X232410000Y-76039980D01*
X240538000Y-78724580D02*
X240101000Y-79161580D01*
X240538000Y-74744580D02*
X240538000Y-78724580D01*
X240538000Y-21412200D02*
X240538000Y-25392200D01*
X240538000Y-25392200D02*
X240101000Y-25829200D01*
X231673400Y-22707600D02*
X232410000Y-22707600D01*
X232410000Y-22707600D02*
X233705400Y-21412200D01*
X233705400Y-21412200D02*
X240538000Y-21412200D01*
X240538000Y-21412200D02*
X242989100Y-21412200D01*
X242989100Y-21412200D02*
X244208300Y-22631400D01*
X244208300Y-22847300D02*
X244208300Y-22631400D01*
X244205760Y-22631400D02*
X244208300Y-22631400D01*
X244205760Y-129311400D02*
X244208300Y-129311400D01*
X244208300Y-129527300D02*
X244208300Y-129311400D01*
X242989100Y-128092200D02*
X244208300Y-129311400D01*
X240538000Y-128092200D02*
X242989100Y-128092200D01*
X233705400Y-128092200D02*
X240538000Y-128092200D01*
X232410000Y-129387600D02*
X233705400Y-128092200D01*
X231673400Y-129387600D02*
X232410000Y-129387600D01*
X240538000Y-132072200D02*
X240101000Y-132509200D01*
X240538000Y-128092200D02*
X240538000Y-132072200D01*
X193405760Y-129311400D02*
X193408300Y-129311400D01*
X193408300Y-129527300D02*
X193408300Y-129311400D01*
X192189100Y-128092200D02*
X193408300Y-129311400D01*
X189738000Y-128092200D02*
X192189100Y-128092200D01*
X182905400Y-128092200D02*
X189738000Y-128092200D01*
X181610000Y-129387600D02*
X182905400Y-128092200D01*
X180873400Y-129387600D02*
X181610000Y-129387600D01*
X189738000Y-132072200D02*
X189301000Y-132509200D01*
X189738000Y-128092200D02*
X189738000Y-132072200D01*
X215138000Y-128092200D02*
X215138000Y-132072200D01*
X215138000Y-132072200D02*
X214701000Y-132509200D01*
X206273400Y-129387600D02*
X207010000Y-129387600D01*
X207010000Y-129387600D02*
X208305400Y-128092200D01*
X208305400Y-128092200D02*
X215138000Y-128092200D01*
X215138000Y-128092200D02*
X217589100Y-128092200D01*
X217589100Y-128092200D02*
X218808300Y-129311400D01*
X218808300Y-129527300D02*
X218808300Y-129311400D01*
X218805760Y-129311400D02*
X218808300Y-129311400D01*
X168005760Y-129311400D02*
X168008300Y-129311400D01*
X168008300Y-129527300D02*
X168008300Y-129311400D01*
X166789100Y-128092200D02*
X168008300Y-129311400D01*
X164338000Y-128092200D02*
X166789100Y-128092200D01*
X157505400Y-128092200D02*
X164338000Y-128092200D01*
X156210000Y-129387600D02*
X157505400Y-128092200D01*
X155473400Y-129387600D02*
X156210000Y-129387600D01*
X164338000Y-132072200D02*
X163901000Y-132509200D01*
X164338000Y-128092200D02*
X164338000Y-132072200D01*
X138938000Y-128092200D02*
X138938000Y-132072200D01*
X138938000Y-132072200D02*
X138501000Y-132509200D01*
X130073400Y-129387600D02*
X130810000Y-129387600D01*
X130810000Y-129387600D02*
X132105400Y-128092200D01*
X132105400Y-128092200D02*
X138938000Y-128092200D01*
X138938000Y-128092200D02*
X141389100Y-128092200D01*
X141389100Y-128092200D02*
X142608300Y-129311400D01*
X142608300Y-129527300D02*
X142608300Y-129311400D01*
X142605760Y-129311400D02*
X142608300Y-129311400D01*
X37338000Y-128084580D02*
X37338000Y-132064580D01*
X37338000Y-132064580D02*
X36901000Y-132501580D01*
X28473400Y-129379980D02*
X29210000Y-129379980D01*
X29210000Y-129379980D02*
X30505400Y-128084580D01*
X30505400Y-128084580D02*
X37338000Y-128084580D01*
X37338000Y-128084580D02*
X39789100Y-128084580D01*
X39789100Y-128084580D02*
X41008300Y-129303780D01*
X41008300Y-129519680D02*
X41008300Y-129303780D01*
X41005760Y-129303780D02*
X41008300Y-129303780D01*
X66405760Y-129303780D02*
X66408300Y-129303780D01*
X66408300Y-129519680D02*
X66408300Y-129303780D01*
X65189100Y-128084580D02*
X66408300Y-129303780D01*
X62738000Y-128084580D02*
X65189100Y-128084580D01*
X55905400Y-128084580D02*
X62738000Y-128084580D01*
X54610000Y-129379980D02*
X55905400Y-128084580D01*
X53873400Y-129379980D02*
X54610000Y-129379980D01*
X62738000Y-132064580D02*
X62301000Y-132501580D01*
X62738000Y-128084580D02*
X62738000Y-132064580D01*
X113538000Y-128084580D02*
X113538000Y-132064580D01*
X113538000Y-132064580D02*
X113101000Y-132501580D01*
X104673400Y-129379980D02*
X105410000Y-129379980D01*
X105410000Y-129379980D02*
X106705400Y-128084580D01*
X106705400Y-128084580D02*
X113538000Y-128084580D01*
X113538000Y-128084580D02*
X115989100Y-128084580D01*
X115989100Y-128084580D02*
X117208300Y-129303780D01*
X117208300Y-129519680D02*
X117208300Y-129303780D01*
X117205760Y-129303780D02*
X117208300Y-129303780D01*
X91805760Y-129303780D02*
X91808300Y-129303780D01*
X91808300Y-129519680D02*
X91808300Y-129303780D01*
X90589100Y-128084580D02*
X91808300Y-129303780D01*
X88138000Y-128084580D02*
X90589100Y-128084580D01*
X81305400Y-128084580D02*
X88138000Y-128084580D01*
X80010000Y-129379980D02*
X81305400Y-128084580D01*
X79273400Y-129379980D02*
X80010000Y-129379980D01*
X88138000Y-132064580D02*
X87701000Y-132501580D01*
X88138000Y-128084580D02*
X88138000Y-132064580D01*
X142605760Y-22631400D02*
X142608300Y-22631400D01*
X142608300Y-22847300D02*
X142608300Y-22631400D01*
X141389100Y-21412200D02*
X142608300Y-22631400D01*
X138938000Y-21412200D02*
X141389100Y-21412200D01*
X132105400Y-21412200D02*
X138938000Y-21412200D01*
X130810000Y-22707600D02*
X132105400Y-21412200D01*
X130073400Y-22707600D02*
X130810000Y-22707600D01*
X138938000Y-25392200D02*
X138501000Y-25829200D01*
X138938000Y-21412200D02*
X138938000Y-25392200D01*
X138938000Y-74744580D02*
X138938000Y-78724580D01*
X138938000Y-78724580D02*
X138501000Y-79161580D01*
X130073400Y-76039980D02*
X130810000Y-76039980D01*
X130810000Y-76039980D02*
X132105400Y-74744580D01*
X132105400Y-74744580D02*
X138938000Y-74744580D01*
X138938000Y-74744580D02*
X141389100Y-74744580D01*
X141389100Y-74744580D02*
X142608300Y-75963780D01*
X142608300Y-76179680D02*
X142608300Y-75963780D01*
X142605760Y-75963780D02*
X142608300Y-75963780D01*
X168005760Y-75963780D02*
X168008300Y-75963780D01*
X168008300Y-76179680D02*
X168008300Y-75963780D01*
X166789100Y-74744580D02*
X168008300Y-75963780D01*
X164338000Y-74744580D02*
X166789100Y-74744580D01*
X157505400Y-74744580D02*
X164338000Y-74744580D01*
X156210000Y-76039980D02*
X157505400Y-74744580D01*
X155473400Y-76039980D02*
X156210000Y-76039980D01*
X164338000Y-78724580D02*
X163901000Y-79161580D01*
X164338000Y-74744580D02*
X164338000Y-78724580D01*
X164338000Y-21412200D02*
X164338000Y-25392200D01*
X164338000Y-25392200D02*
X163901000Y-25829200D01*
X155473400Y-22707600D02*
X156210000Y-22707600D01*
X156210000Y-22707600D02*
X157505400Y-21412200D01*
X157505400Y-21412200D02*
X164338000Y-21412200D01*
X164338000Y-21412200D02*
X166789100Y-21412200D01*
X166789100Y-21412200D02*
X168008300Y-22631400D01*
X168008300Y-22847300D02*
X168008300Y-22631400D01*
X168005760Y-22631400D02*
X168008300Y-22631400D01*
X218805760Y-22631400D02*
X218808300Y-22631400D01*
X218808300Y-22847300D02*
X218808300Y-22631400D01*
X217589100Y-21412200D02*
X218808300Y-22631400D01*
X215138000Y-21412200D02*
X217589100Y-21412200D01*
X208305400Y-21412200D02*
X215138000Y-21412200D01*
X207010000Y-22707600D02*
X208305400Y-21412200D01*
X206273400Y-22707600D02*
X207010000Y-22707600D01*
X215138000Y-25392200D02*
X214701000Y-25829200D01*
X215138000Y-21412200D02*
X215138000Y-25392200D01*
X215138000Y-74744580D02*
X215138000Y-78724580D01*
X215138000Y-78724580D02*
X214701000Y-79161580D01*
X206273400Y-76039980D02*
X207010000Y-76039980D01*
X207010000Y-76039980D02*
X208305400Y-74744580D01*
X208305400Y-74744580D02*
X215138000Y-74744580D01*
X215138000Y-74744580D02*
X217589100Y-74744580D01*
X217589100Y-74744580D02*
X218808300Y-75963780D01*
X218808300Y-76179680D02*
X218808300Y-75963780D01*
X218805760Y-75963780D02*
X218808300Y-75963780D01*
X193405760Y-75963780D02*
X193408300Y-75963780D01*
X193408300Y-76179680D02*
X193408300Y-75963780D01*
X192189100Y-74744580D02*
X193408300Y-75963780D01*
X189738000Y-74744580D02*
X192189100Y-74744580D01*
X182905400Y-74744580D02*
X189738000Y-74744580D01*
X181610000Y-76039980D02*
X182905400Y-74744580D01*
X180873400Y-76039980D02*
X181610000Y-76039980D01*
X189738000Y-78724580D02*
X189301000Y-79161580D01*
X189738000Y-74744580D02*
X189738000Y-78724580D01*
X189738000Y-21412200D02*
X189738000Y-25392200D01*
X189738000Y-25392200D02*
X189301000Y-25829200D01*
X180873400Y-22707600D02*
X181610000Y-22707600D01*
X181610000Y-22707600D02*
X182905400Y-21412200D01*
X182905400Y-21412200D02*
X189738000Y-21412200D01*
X189738000Y-21412200D02*
X192189100Y-21412200D01*
X192189100Y-21412200D02*
X193408300Y-22631400D01*
X193408300Y-22847300D02*
X193408300Y-22631400D01*
X193405760Y-22631400D02*
X193408300Y-22631400D01*
X91805760Y-22631400D02*
X91808300Y-22631400D01*
X91808300Y-22847300D02*
X91808300Y-22631400D01*
X90589100Y-21412200D02*
X91808300Y-22631400D01*
X88138000Y-21412200D02*
X90589100Y-21412200D01*
X81305400Y-21412200D02*
X88138000Y-21412200D01*
X80010000Y-22707600D02*
X81305400Y-21412200D01*
X79273400Y-22707600D02*
X80010000Y-22707600D01*
X88138000Y-25392200D02*
X87701000Y-25829200D01*
X88138000Y-21412200D02*
X88138000Y-25392200D01*
X88138000Y-74744580D02*
X88138000Y-78724580D01*
X88138000Y-78724580D02*
X87701000Y-79161580D01*
X79273400Y-76039980D02*
X80010000Y-76039980D01*
X80010000Y-76039980D02*
X81305400Y-74744580D01*
X81305400Y-74744580D02*
X88138000Y-74744580D01*
X88138000Y-74744580D02*
X90589100Y-74744580D01*
X90589100Y-74744580D02*
X91808300Y-75963780D01*
X91808300Y-76179680D02*
X91808300Y-75963780D01*
X91805760Y-75963780D02*
X91808300Y-75963780D01*
X117205760Y-75963780D02*
X117208300Y-75963780D01*
X117208300Y-76179680D02*
X117208300Y-75963780D01*
X115989100Y-74744580D02*
X117208300Y-75963780D01*
X113538000Y-74744580D02*
X115989100Y-74744580D01*
X106705400Y-74744580D02*
X113538000Y-74744580D01*
X105410000Y-76039980D02*
X106705400Y-74744580D01*
X104673400Y-76039980D02*
X105410000Y-76039980D01*
X113538000Y-78724580D02*
X113101000Y-79161580D01*
X113538000Y-74744580D02*
X113538000Y-78724580D01*
X113538000Y-21412200D02*
X113538000Y-25392200D01*
X113538000Y-25392200D02*
X113101000Y-25829200D01*
X104673400Y-22707600D02*
X105410000Y-22707600D01*
X105410000Y-22707600D02*
X106705400Y-21412200D01*
X106705400Y-21412200D02*
X113538000Y-21412200D01*
X113538000Y-21412200D02*
X115989100Y-21412200D01*
X115989100Y-21412200D02*
X117208300Y-22631400D01*
X117208300Y-22847300D02*
X117208300Y-22631400D01*
X117205760Y-22631400D02*
X117208300Y-22631400D01*
X66405760Y-22631400D02*
X66408300Y-22631400D01*
X66408300Y-22847300D02*
X66408300Y-22631400D01*
X65189100Y-21412200D02*
X66408300Y-22631400D01*
X62738000Y-21412200D02*
X65189100Y-21412200D01*
X55905400Y-21412200D02*
X62738000Y-21412200D01*
X54610000Y-22707600D02*
X55905400Y-21412200D01*
X53873400Y-22707600D02*
X54610000Y-22707600D01*
X62738000Y-25392200D02*
X62301000Y-25829200D01*
X62738000Y-21412200D02*
X62738000Y-25392200D01*
X62738000Y-74744580D02*
X62738000Y-78724580D01*
X62738000Y-78724580D02*
X62301000Y-79161580D01*
X53873400Y-76039980D02*
X54610000Y-76039980D01*
X54610000Y-76039980D02*
X55905400Y-74744580D01*
X55905400Y-74744580D02*
X62738000Y-74744580D01*
X62738000Y-74744580D02*
X65189100Y-74744580D01*
X65189100Y-74744580D02*
X66408300Y-75963780D01*
X66408300Y-76179680D02*
X66408300Y-75963780D01*
X66405760Y-75963780D02*
X66408300Y-75963780D01*
X41005760Y-75963780D02*
X41008300Y-75963780D01*
X41008300Y-76179680D02*
X41008300Y-75963780D01*
X39789100Y-74744580D02*
X41008300Y-75963780D01*
X37338000Y-74744580D02*
X39789100Y-74744580D01*
X30505400Y-74744580D02*
X37338000Y-74744580D01*
X29210000Y-76039980D02*
X30505400Y-74744580D01*
X28473400Y-76039980D02*
X29210000Y-76039980D01*
X37338000Y-78724580D02*
X36901000Y-79161580D01*
X37338000Y-74744580D02*
X37338000Y-78724580D01*
X37338000Y-21412200D02*
X37338000Y-25392200D01*
X37338000Y-25392200D02*
X36901000Y-25829200D01*
X28473400Y-22707600D02*
X29210000Y-22707600D01*
X29210000Y-22707600D02*
X30505400Y-21412200D01*
X30505400Y-21412200D02*
X37338000Y-21412200D01*
X37338000Y-21412200D02*
X39789100Y-21412200D01*
X39789100Y-21412200D02*
X41008300Y-22631400D01*
X41008300Y-22847300D02*
X41008300Y-22631400D01*
X41005760Y-22631400D02*
X41008300Y-22631400D01*
X238831000Y-77046580D02*
X238806000Y-77021580D01*
X238831000Y-79161580D02*
X238831000Y-77046580D01*
X238831000Y-25829200D02*
X238831000Y-23714200D01*
X238831000Y-23714200D02*
X238806000Y-23689200D01*
X238831000Y-130394200D02*
X238806000Y-130369200D01*
X238831000Y-132509200D02*
X238831000Y-130394200D01*
X188031000Y-130394200D02*
X188006000Y-130369200D01*
X188031000Y-132509200D02*
X188031000Y-130394200D01*
X213431000Y-132509200D02*
X213431000Y-130394200D01*
X213431000Y-130394200D02*
X213406000Y-130369200D01*
X162631000Y-130394200D02*
X162606000Y-130369200D01*
X162631000Y-132509200D02*
X162631000Y-130394200D01*
X137231000Y-132509200D02*
X137231000Y-130394200D01*
X137231000Y-130394200D02*
X137206000Y-130369200D01*
X35631000Y-132501580D02*
X35631000Y-130386580D01*
X35631000Y-130386580D02*
X35606000Y-130361580D01*
X61031000Y-130386580D02*
X61006000Y-130361580D01*
X61031000Y-132501580D02*
X61031000Y-130386580D01*
X111831000Y-132501580D02*
X111831000Y-130386580D01*
X111831000Y-130386580D02*
X111806000Y-130361580D01*
X86431000Y-130386580D02*
X86406000Y-130361580D01*
X86431000Y-132501580D02*
X86431000Y-130386580D01*
X137231000Y-23714200D02*
X137206000Y-23689200D01*
X137231000Y-25829200D02*
X137231000Y-23714200D01*
X137231000Y-79161580D02*
X137231000Y-77046580D01*
X137231000Y-77046580D02*
X137206000Y-77021580D01*
X162631000Y-77046580D02*
X162606000Y-77021580D01*
X162631000Y-79161580D02*
X162631000Y-77046580D01*
X162631000Y-25829200D02*
X162631000Y-23714200D01*
X162631000Y-23714200D02*
X162606000Y-23689200D01*
X213431000Y-23714200D02*
X213406000Y-23689200D01*
X213431000Y-25829200D02*
X213431000Y-23714200D01*
X213431000Y-79161580D02*
X213431000Y-77046580D01*
X213431000Y-77046580D02*
X213406000Y-77021580D01*
X188031000Y-77046580D02*
X188006000Y-77021580D01*
X188031000Y-79161580D02*
X188031000Y-77046580D01*
X188031000Y-25829200D02*
X188031000Y-23714200D01*
X188031000Y-23714200D02*
X188006000Y-23689200D01*
X86431000Y-23714200D02*
X86406000Y-23689200D01*
X86431000Y-25829200D02*
X86431000Y-23714200D01*
X86431000Y-79161580D02*
X86431000Y-77046580D01*
X86431000Y-77046580D02*
X86406000Y-77021580D01*
X111831000Y-77046580D02*
X111806000Y-77021580D01*
X111831000Y-79161580D02*
X111831000Y-77046580D01*
X111831000Y-25829200D02*
X111831000Y-23714200D01*
X111831000Y-23714200D02*
X111806000Y-23689200D01*
X61031000Y-23714200D02*
X61006000Y-23689200D01*
X61031000Y-25829200D02*
X61031000Y-23714200D01*
X61031000Y-79161580D02*
X61031000Y-77046580D01*
X61031000Y-77046580D02*
X61006000Y-77021580D01*
X35631000Y-77046580D02*
X35606000Y-77021580D01*
X35631000Y-79161580D02*
X35631000Y-77046580D01*
X35631000Y-25829200D02*
X35631000Y-23714200D01*
X35631000Y-23714200D02*
X35606000Y-23689200D01*
X235008000Y-109220000D02*
X234696000Y-109220000D01*
X234696000Y-109220000D02*
X234238800Y-108762800D01*
X235008000Y-54864000D02*
X234950000Y-54864000D01*
X234950000Y-54864000D02*
X234238800Y-54152800D01*
X232481000Y-80428980D02*
X232481000Y-79161580D01*
X232481000Y-80428980D02*
X232537000Y-80484980D01*
X234238800Y-108762800D02*
X234238800Y-91025980D01*
X234238800Y-54152800D02*
X234238800Y-37693600D01*
X232481000Y-25829200D02*
X232481000Y-27096600D01*
X232481000Y-27096600D02*
X232537000Y-27152600D01*
X232481000Y-133776600D02*
X232537000Y-133832600D01*
X232481000Y-132509200D02*
X232481000Y-133776600D01*
X234238800Y-160832800D02*
X234238800Y-144373600D01*
X234950000Y-161544000D02*
X234238800Y-160832800D01*
X235008000Y-161544000D02*
X234950000Y-161544000D01*
X181681000Y-133776600D02*
X181737000Y-133832600D01*
X181681000Y-132509200D02*
X181681000Y-133776600D01*
X183438800Y-160832800D02*
X183438800Y-144373600D01*
X184150000Y-161544000D02*
X183438800Y-160832800D01*
X184208000Y-161544000D02*
X184150000Y-161544000D01*
X209608000Y-161544000D02*
X209550000Y-161544000D01*
X209550000Y-161544000D02*
X208838800Y-160832800D01*
X208838800Y-160832800D02*
X208838800Y-144373600D01*
X207081000Y-132509200D02*
X207081000Y-133776600D01*
X207081000Y-133776600D02*
X207137000Y-133832600D01*
X156281000Y-133776600D02*
X156337000Y-133832600D01*
X156281000Y-132509200D02*
X156281000Y-133776600D01*
X158038800Y-160832800D02*
X158038800Y-144373600D01*
X158750000Y-161544000D02*
X158038800Y-160832800D01*
X158808000Y-161544000D02*
X158750000Y-161544000D01*
X133408000Y-161544000D02*
X133350000Y-161544000D01*
X133350000Y-161544000D02*
X132638800Y-160832800D01*
X132638800Y-160832800D02*
X132638800Y-144373600D01*
X130881000Y-132509200D02*
X130881000Y-133776600D01*
X130881000Y-133776600D02*
X130937000Y-133832600D01*
X31038800Y-162102800D02*
X31038800Y-144365980D01*
X29281000Y-133768980D02*
X29337000Y-133824980D01*
X29281000Y-133768980D02*
X29281000Y-132501580D01*
X31496000Y-162560000D02*
X31038800Y-162102800D01*
X31808000Y-162560000D02*
X31496000Y-162560000D01*
X57208000Y-162560000D02*
X56896000Y-162560000D01*
X56896000Y-162560000D02*
X56438800Y-162102800D01*
X54681000Y-133768980D02*
X54681000Y-132501580D01*
X54681000Y-133768980D02*
X54737000Y-133824980D01*
X56438800Y-162102800D02*
X56438800Y-144365980D01*
X107238800Y-162102800D02*
X107238800Y-144365980D01*
X105481000Y-133768980D02*
X105537000Y-133824980D01*
X105481000Y-133768980D02*
X105481000Y-132501580D01*
X107696000Y-162560000D02*
X107238800Y-162102800D01*
X108008000Y-162560000D02*
X107696000Y-162560000D01*
X82608000Y-162560000D02*
X82296000Y-162560000D01*
X82296000Y-162560000D02*
X81838800Y-162102800D01*
X80081000Y-133768980D02*
X80081000Y-132501580D01*
X80081000Y-133768980D02*
X80137000Y-133824980D01*
X81838800Y-162102800D02*
X81838800Y-144365980D01*
X130881000Y-27096600D02*
X130937000Y-27152600D01*
X130881000Y-25829200D02*
X130881000Y-27096600D01*
X132638800Y-54152800D02*
X132638800Y-37693600D01*
X132638800Y-108762800D02*
X132638800Y-91025980D01*
X130881000Y-80428980D02*
X130937000Y-80484980D01*
X130881000Y-80428980D02*
X130881000Y-79161580D01*
X133350000Y-54864000D02*
X132638800Y-54152800D01*
X133408000Y-54864000D02*
X133350000Y-54864000D01*
X133096000Y-109220000D02*
X132638800Y-108762800D01*
X133408000Y-109220000D02*
X133096000Y-109220000D01*
X158808000Y-109220000D02*
X158496000Y-109220000D01*
X158496000Y-109220000D02*
X158038800Y-108762800D01*
X158808000Y-54864000D02*
X158750000Y-54864000D01*
X158750000Y-54864000D02*
X158038800Y-54152800D01*
X156281000Y-80428980D02*
X156281000Y-79161580D01*
X156281000Y-80428980D02*
X156337000Y-80484980D01*
X158038800Y-108762800D02*
X158038800Y-91025980D01*
X158038800Y-54152800D02*
X158038800Y-37693600D01*
X156281000Y-25829200D02*
X156281000Y-27096600D01*
X156281000Y-27096600D02*
X156337000Y-27152600D01*
X207081000Y-27096600D02*
X207137000Y-27152600D01*
X207081000Y-25829200D02*
X207081000Y-27096600D01*
X208838800Y-54152800D02*
X208838800Y-37693600D01*
X208838800Y-108762800D02*
X208838800Y-91025980D01*
X207081000Y-80428980D02*
X207137000Y-80484980D01*
X207081000Y-80428980D02*
X207081000Y-79161580D01*
X209550000Y-54864000D02*
X208838800Y-54152800D01*
X209608000Y-54864000D02*
X209550000Y-54864000D01*
X209296000Y-109220000D02*
X208838800Y-108762800D01*
X209608000Y-109220000D02*
X209296000Y-109220000D01*
X184208000Y-109220000D02*
X183896000Y-109220000D01*
X183896000Y-109220000D02*
X183438800Y-108762800D01*
X184208000Y-54864000D02*
X184150000Y-54864000D01*
X184150000Y-54864000D02*
X183438800Y-54152800D01*
X181681000Y-80428980D02*
X181681000Y-79161580D01*
X181681000Y-80428980D02*
X181737000Y-80484980D01*
X183438800Y-108762800D02*
X183438800Y-91025980D01*
X183438800Y-54152800D02*
X183438800Y-37693600D01*
X181681000Y-25829200D02*
X181681000Y-27096600D01*
X181681000Y-27096600D02*
X181737000Y-27152600D01*
X80081000Y-27096600D02*
X80137000Y-27152600D01*
X80081000Y-25829200D02*
X80081000Y-27096600D01*
X81838800Y-54152800D02*
X81838800Y-37693600D01*
X81838800Y-108762800D02*
X81838800Y-91025980D01*
X80081000Y-80428980D02*
X80137000Y-80484980D01*
X80081000Y-80428980D02*
X80081000Y-79161580D01*
X82550000Y-54864000D02*
X81838800Y-54152800D01*
X82608000Y-54864000D02*
X82550000Y-54864000D01*
X82296000Y-109220000D02*
X81838800Y-108762800D01*
X82608000Y-109220000D02*
X82296000Y-109220000D01*
X108008000Y-109220000D02*
X107696000Y-109220000D01*
X107696000Y-109220000D02*
X107238800Y-108762800D01*
X108008000Y-54864000D02*
X107950000Y-54864000D01*
X107950000Y-54864000D02*
X107238800Y-54152800D01*
X105481000Y-80428980D02*
X105481000Y-79161580D01*
X105481000Y-80428980D02*
X105537000Y-80484980D01*
X107238800Y-108762800D02*
X107238800Y-91025980D01*
X107238800Y-54152800D02*
X107238800Y-37693600D01*
X105481000Y-25829200D02*
X105481000Y-27096600D01*
X105481000Y-27096600D02*
X105537000Y-27152600D01*
X54681000Y-27096600D02*
X54737000Y-27152600D01*
X54681000Y-25829200D02*
X54681000Y-27096600D01*
X56438800Y-54152800D02*
X56438800Y-37693600D01*
X56438800Y-108762800D02*
X56438800Y-91025980D01*
X54681000Y-80428980D02*
X54737000Y-80484980D01*
X54681000Y-80428980D02*
X54681000Y-79161580D01*
X57150000Y-54864000D02*
X56438800Y-54152800D01*
X57208000Y-54864000D02*
X57150000Y-54864000D01*
X56896000Y-109220000D02*
X56438800Y-108762800D01*
X57208000Y-109220000D02*
X56896000Y-109220000D01*
X31808000Y-109220000D02*
X31496000Y-109220000D01*
X31496000Y-109220000D02*
X31038800Y-108762800D01*
X31808000Y-54864000D02*
X31750000Y-54864000D01*
X31750000Y-54864000D02*
X31038800Y-54152800D01*
X29281000Y-80428980D02*
X29281000Y-79161580D01*
X29281000Y-80428980D02*
X29337000Y-80484980D01*
X31038800Y-108762800D02*
X31038800Y-91025980D01*
X31038800Y-54152800D02*
X31038800Y-37693600D01*
X29281000Y-25829200D02*
X29281000Y-27096600D01*
X29281000Y-27096600D02*
X29337000Y-27152600D01*
X240101000Y-86456580D02*
X240136000Y-86491580D01*
X240101000Y-84561580D02*
X240101000Y-86456580D01*
X240101000Y-31229200D02*
X240101000Y-33124200D01*
X240101000Y-33124200D02*
X240136000Y-33159200D01*
X240101000Y-139804200D02*
X240136000Y-139839200D01*
X240101000Y-137909200D02*
X240101000Y-139804200D01*
X189301000Y-139804200D02*
X189336000Y-139839200D01*
X189301000Y-137909200D02*
X189301000Y-139804200D01*
X214701000Y-137909200D02*
X214701000Y-139804200D01*
X214701000Y-139804200D02*
X214736000Y-139839200D01*
X163901000Y-139804200D02*
X163936000Y-139839200D01*
X163901000Y-137909200D02*
X163901000Y-139804200D01*
X138501000Y-137909200D02*
X138501000Y-139804200D01*
X138501000Y-139804200D02*
X138536000Y-139839200D01*
X36901000Y-137901580D02*
X36901000Y-139796580D01*
X36901000Y-139796580D02*
X36936000Y-139831580D01*
X62301000Y-139796580D02*
X62336000Y-139831580D01*
X62301000Y-137901580D02*
X62301000Y-139796580D01*
X113101000Y-137901580D02*
X113101000Y-139796580D01*
X113101000Y-139796580D02*
X113136000Y-139831580D01*
X87701000Y-139796580D02*
X87736000Y-139831580D01*
X87701000Y-137901580D02*
X87701000Y-139796580D01*
X138501000Y-33124200D02*
X138536000Y-33159200D01*
X138501000Y-31229200D02*
X138501000Y-33124200D01*
X138501000Y-84561580D02*
X138501000Y-86456580D01*
X138501000Y-86456580D02*
X138536000Y-86491580D01*
X163901000Y-86456580D02*
X163936000Y-86491580D01*
X163901000Y-84561580D02*
X163901000Y-86456580D01*
X163901000Y-31229200D02*
X163901000Y-33124200D01*
X163901000Y-33124200D02*
X163936000Y-33159200D01*
X214701000Y-33124200D02*
X214736000Y-33159200D01*
X214701000Y-31229200D02*
X214701000Y-33124200D01*
X214701000Y-84561580D02*
X214701000Y-86456580D01*
X214701000Y-86456580D02*
X214736000Y-86491580D01*
X189301000Y-86456580D02*
X189336000Y-86491580D01*
X189301000Y-84561580D02*
X189301000Y-86456580D01*
X189301000Y-31229200D02*
X189301000Y-33124200D01*
X189301000Y-33124200D02*
X189336000Y-33159200D01*
X87701000Y-33124200D02*
X87736000Y-33159200D01*
X87701000Y-31229200D02*
X87701000Y-33124200D01*
X87701000Y-84561580D02*
X87701000Y-86456580D01*
X87701000Y-86456580D02*
X87736000Y-86491580D01*
X113101000Y-86456580D02*
X113136000Y-86491580D01*
X113101000Y-84561580D02*
X113101000Y-86456580D01*
X113101000Y-31229200D02*
X113101000Y-33124200D01*
X113101000Y-33124200D02*
X113136000Y-33159200D01*
X62301000Y-33124200D02*
X62336000Y-33159200D01*
X62301000Y-31229200D02*
X62301000Y-33124200D01*
X62301000Y-84561580D02*
X62301000Y-86456580D01*
X62301000Y-86456580D02*
X62336000Y-86491580D01*
X36901000Y-86456580D02*
X36936000Y-86491580D01*
X36901000Y-84561580D02*
X36901000Y-86456580D01*
X36901000Y-31229200D02*
X36901000Y-33124200D01*
X36901000Y-33124200D02*
X36936000Y-33159200D01*
X232481000Y-86466580D02*
X232506000Y-86491580D01*
X232481000Y-84561580D02*
X232481000Y-86466580D01*
X232481000Y-31229200D02*
X232481000Y-33134200D01*
X232481000Y-33134200D02*
X232506000Y-33159200D01*
X232481000Y-139814200D02*
X232506000Y-139839200D01*
X232481000Y-137909200D02*
X232481000Y-139814200D01*
X181681000Y-139814200D02*
X181706000Y-139839200D01*
X181681000Y-137909200D02*
X181681000Y-139814200D01*
X207081000Y-137909200D02*
X207081000Y-139814200D01*
X207081000Y-139814200D02*
X207106000Y-139839200D01*
X156281000Y-139814200D02*
X156306000Y-139839200D01*
X156281000Y-137909200D02*
X156281000Y-139814200D01*
X130881000Y-137909200D02*
X130881000Y-139814200D01*
X130881000Y-139814200D02*
X130906000Y-139839200D01*
X29281000Y-137901580D02*
X29281000Y-139806580D01*
X29281000Y-139806580D02*
X29306000Y-139831580D01*
X54681000Y-139806580D02*
X54706000Y-139831580D01*
X54681000Y-137901580D02*
X54681000Y-139806580D01*
X105481000Y-137901580D02*
X105481000Y-139806580D01*
X105481000Y-139806580D02*
X105506000Y-139831580D01*
X80081000Y-139806580D02*
X80106000Y-139831580D01*
X80081000Y-137901580D02*
X80081000Y-139806580D01*
X130881000Y-33134200D02*
X130906000Y-33159200D01*
X130881000Y-31229200D02*
X130881000Y-33134200D01*
X130881000Y-84561580D02*
X130881000Y-86466580D01*
X130881000Y-86466580D02*
X130906000Y-86491580D01*
X156281000Y-86466580D02*
X156306000Y-86491580D01*
X156281000Y-84561580D02*
X156281000Y-86466580D01*
X156281000Y-31229200D02*
X156281000Y-33134200D01*
X156281000Y-33134200D02*
X156306000Y-33159200D01*
X207081000Y-33134200D02*
X207106000Y-33159200D01*
X207081000Y-31229200D02*
X207081000Y-33134200D01*
X207081000Y-84561580D02*
X207081000Y-86466580D01*
X207081000Y-86466580D02*
X207106000Y-86491580D01*
X181681000Y-86466580D02*
X181706000Y-86491580D01*
X181681000Y-84561580D02*
X181681000Y-86466580D01*
X181681000Y-31229200D02*
X181681000Y-33134200D01*
X181681000Y-33134200D02*
X181706000Y-33159200D01*
X80081000Y-33134200D02*
X80106000Y-33159200D01*
X80081000Y-31229200D02*
X80081000Y-33134200D01*
X80081000Y-84561580D02*
X80081000Y-86466580D01*
X80081000Y-86466580D02*
X80106000Y-86491580D01*
X105481000Y-86466580D02*
X105506000Y-86491580D01*
X105481000Y-84561580D02*
X105481000Y-86466580D01*
X105481000Y-31229200D02*
X105481000Y-33134200D01*
X105481000Y-33134200D02*
X105506000Y-33159200D01*
X54681000Y-33134200D02*
X54706000Y-33159200D01*
X54681000Y-31229200D02*
X54681000Y-33134200D01*
X54681000Y-84561580D02*
X54681000Y-86466580D01*
X54681000Y-86466580D02*
X54706000Y-86491580D01*
X29281000Y-86466580D02*
X29306000Y-86491580D01*
X29281000Y-84561580D02*
X29281000Y-86466580D01*
X29281000Y-31229200D02*
X29281000Y-33134200D01*
X29281000Y-33134200D02*
X29306000Y-33159200D01*
X232506000Y-87391580D02*
X240136000Y-87391580D01*
D19*
X240850760Y-87391580D02*
X242034060Y-88574880D01*
X240136000Y-87391580D02*
X240850760Y-87391580D01*
X240136000Y-34059200D02*
X240850760Y-34059200D01*
X240850760Y-34059200D02*
X242034060Y-35242500D01*
D18*
X232506000Y-34059200D02*
X240136000Y-34059200D01*
X232506000Y-140739200D02*
X240136000Y-140739200D01*
D19*
X240850760Y-140739200D02*
X242034060Y-141922500D01*
X240136000Y-140739200D02*
X240850760Y-140739200D01*
D18*
X181706000Y-140739200D02*
X189336000Y-140739200D01*
D19*
X190050760Y-140739200D02*
X191234060Y-141922500D01*
X189336000Y-140739200D02*
X190050760Y-140739200D01*
X214736000Y-140739200D02*
X215450760Y-140739200D01*
X215450760Y-140739200D02*
X216634060Y-141922500D01*
D18*
X207106000Y-140739200D02*
X214736000Y-140739200D01*
X156306000Y-140739200D02*
X163936000Y-140739200D01*
D19*
X164650760Y-140739200D02*
X165834060Y-141922500D01*
X163936000Y-140739200D02*
X164650760Y-140739200D01*
X138536000Y-140739200D02*
X139250760Y-140739200D01*
X139250760Y-140739200D02*
X140434060Y-141922500D01*
D18*
X130906000Y-140739200D02*
X138536000Y-140739200D01*
D19*
X36936000Y-140731580D02*
X37650760Y-140731580D01*
X37650760Y-140731580D02*
X38834060Y-141914880D01*
D18*
X29306000Y-140731580D02*
X36936000Y-140731580D01*
X54706000Y-140731580D02*
X62336000Y-140731580D01*
D19*
X63050760Y-140731580D02*
X64234060Y-141914880D01*
X62336000Y-140731580D02*
X63050760Y-140731580D01*
X113136000Y-140731580D02*
X113850760Y-140731580D01*
X113850760Y-140731580D02*
X115034060Y-141914880D01*
D18*
X105506000Y-140731580D02*
X113136000Y-140731580D01*
X80106000Y-140731580D02*
X87736000Y-140731580D01*
D19*
X88450760Y-140731580D02*
X89634060Y-141914880D01*
X87736000Y-140731580D02*
X88450760Y-140731580D01*
D18*
X130906000Y-34059200D02*
X138536000Y-34059200D01*
D19*
X139250760Y-34059200D02*
X140434060Y-35242500D01*
X138536000Y-34059200D02*
X139250760Y-34059200D01*
X138536000Y-87391580D02*
X139250760Y-87391580D01*
X139250760Y-87391580D02*
X140434060Y-88574880D01*
D18*
X130906000Y-87391580D02*
X138536000Y-87391580D01*
X156306000Y-87391580D02*
X163936000Y-87391580D01*
D19*
X164650760Y-87391580D02*
X165834060Y-88574880D01*
X163936000Y-87391580D02*
X164650760Y-87391580D01*
X163936000Y-34059200D02*
X164650760Y-34059200D01*
X164650760Y-34059200D02*
X165834060Y-35242500D01*
D18*
X156306000Y-34059200D02*
X163936000Y-34059200D01*
X207106000Y-34059200D02*
X214736000Y-34059200D01*
D19*
X215450760Y-34059200D02*
X216634060Y-35242500D01*
X214736000Y-34059200D02*
X215450760Y-34059200D01*
X214736000Y-87391580D02*
X215450760Y-87391580D01*
X215450760Y-87391580D02*
X216634060Y-88574880D01*
D18*
X207106000Y-87391580D02*
X214736000Y-87391580D01*
X181706000Y-87391580D02*
X189336000Y-87391580D01*
D19*
X190050760Y-87391580D02*
X191234060Y-88574880D01*
X189336000Y-87391580D02*
X190050760Y-87391580D01*
X189336000Y-34059200D02*
X190050760Y-34059200D01*
X190050760Y-34059200D02*
X191234060Y-35242500D01*
D18*
X181706000Y-34059200D02*
X189336000Y-34059200D01*
X80106000Y-34059200D02*
X87736000Y-34059200D01*
D19*
X88450760Y-34059200D02*
X89634060Y-35242500D01*
X87736000Y-34059200D02*
X88450760Y-34059200D01*
X87736000Y-87391580D02*
X88450760Y-87391580D01*
X88450760Y-87391580D02*
X89634060Y-88574880D01*
D18*
X80106000Y-87391580D02*
X87736000Y-87391580D01*
X105506000Y-87391580D02*
X113136000Y-87391580D01*
D19*
X113850760Y-87391580D02*
X115034060Y-88574880D01*
X113136000Y-87391580D02*
X113850760Y-87391580D01*
X113136000Y-34059200D02*
X113850760Y-34059200D01*
X113850760Y-34059200D02*
X115034060Y-35242500D01*
D18*
X105506000Y-34059200D02*
X113136000Y-34059200D01*
X54706000Y-34059200D02*
X62336000Y-34059200D01*
D19*
X63050760Y-34059200D02*
X64234060Y-35242500D01*
X62336000Y-34059200D02*
X63050760Y-34059200D01*
X62336000Y-87391580D02*
X63050760Y-87391580D01*
X63050760Y-87391580D02*
X64234060Y-88574880D01*
D18*
X54706000Y-87391580D02*
X62336000Y-87391580D01*
X29306000Y-87391580D02*
X36936000Y-87391580D01*
D19*
X37650760Y-87391580D02*
X38834060Y-88574880D01*
X36936000Y-87391580D02*
X37650760Y-87391580D01*
X36936000Y-34059200D02*
X37650760Y-34059200D01*
X37650760Y-34059200D02*
X38834060Y-35242500D01*
D18*
X29306000Y-34059200D02*
X36936000Y-34059200D01*
D19*
X233751000Y-30251400D02*
X233751000Y-30144600D01*
X233172000Y-29565600D02*
X229768400Y-29565600D01*
X233751000Y-30144600D02*
X233172000Y-29565600D01*
X233751000Y-83526580D02*
X234146000Y-83131580D01*
X234146000Y-83131580D02*
X235646000Y-83131580D01*
X235646000Y-83131580D02*
X236291000Y-83776580D01*
X236291000Y-83776580D02*
X236291000Y-84561580D01*
X233751000Y-83583780D02*
X233751000Y-83526580D01*
X233751000Y-84561580D02*
X233751000Y-83583780D01*
X233751000Y-83583780D02*
X233751000Y-83476980D01*
X233172000Y-82897980D02*
X229920800Y-82897980D01*
X233751000Y-83476980D02*
X233172000Y-82897980D01*
X233751000Y-31229200D02*
X233751000Y-30251400D01*
X233751000Y-30251400D02*
X233751000Y-30194200D01*
X236291000Y-30444200D02*
X236291000Y-31229200D01*
X235646000Y-29799200D02*
X236291000Y-30444200D01*
X234146000Y-29799200D02*
X235646000Y-29799200D01*
X233751000Y-30194200D02*
X234146000Y-29799200D01*
X233751000Y-136874200D02*
X234146000Y-136479200D01*
X234146000Y-136479200D02*
X235646000Y-136479200D01*
X235646000Y-136479200D02*
X236291000Y-137124200D01*
X236291000Y-137124200D02*
X236291000Y-137909200D01*
X233751000Y-136931400D02*
X233751000Y-136874200D01*
X233751000Y-137909200D02*
X233751000Y-136931400D01*
X233751000Y-136824600D02*
X233172000Y-136245600D01*
X233172000Y-136245600D02*
X229768400Y-136245600D01*
X233751000Y-136931400D02*
X233751000Y-136824600D01*
X182951000Y-136874200D02*
X183346000Y-136479200D01*
X183346000Y-136479200D02*
X184846000Y-136479200D01*
X184846000Y-136479200D02*
X185491000Y-137124200D01*
X185491000Y-137124200D02*
X185491000Y-137909200D01*
X182951000Y-136931400D02*
X182951000Y-136874200D01*
X182951000Y-137909200D02*
X182951000Y-136931400D01*
X182951000Y-136824600D02*
X182372000Y-136245600D01*
X182372000Y-136245600D02*
X178968400Y-136245600D01*
X182951000Y-136931400D02*
X182951000Y-136824600D01*
X208351000Y-136931400D02*
X208351000Y-136824600D01*
X207772000Y-136245600D02*
X204368400Y-136245600D01*
X208351000Y-136824600D02*
X207772000Y-136245600D01*
X208351000Y-137909200D02*
X208351000Y-136931400D01*
X208351000Y-136931400D02*
X208351000Y-136874200D01*
X210891000Y-137124200D02*
X210891000Y-137909200D01*
X210246000Y-136479200D02*
X210891000Y-137124200D01*
X208746000Y-136479200D02*
X210246000Y-136479200D01*
X208351000Y-136874200D02*
X208746000Y-136479200D01*
X157551000Y-136874200D02*
X157946000Y-136479200D01*
X157946000Y-136479200D02*
X159446000Y-136479200D01*
X159446000Y-136479200D02*
X160091000Y-137124200D01*
X160091000Y-137124200D02*
X160091000Y-137909200D01*
X157551000Y-136931400D02*
X157551000Y-136874200D01*
X157551000Y-137909200D02*
X157551000Y-136931400D01*
X157551000Y-136824600D02*
X156972000Y-136245600D01*
X156972000Y-136245600D02*
X153568400Y-136245600D01*
X157551000Y-136931400D02*
X157551000Y-136824600D01*
X132151000Y-136931400D02*
X132151000Y-136824600D01*
X131572000Y-136245600D02*
X128168400Y-136245600D01*
X132151000Y-136824600D02*
X131572000Y-136245600D01*
X132151000Y-137909200D02*
X132151000Y-136931400D01*
X132151000Y-136931400D02*
X132151000Y-136874200D01*
X134691000Y-137124200D02*
X134691000Y-137909200D01*
X134046000Y-136479200D02*
X134691000Y-137124200D01*
X132546000Y-136479200D02*
X134046000Y-136479200D01*
X132151000Y-136874200D02*
X132546000Y-136479200D01*
X30551000Y-136816980D02*
X29972000Y-136237980D01*
X29972000Y-136237980D02*
X26720800Y-136237980D01*
X30551000Y-136923780D02*
X30551000Y-136816980D01*
X30551000Y-137901580D02*
X30551000Y-136923780D01*
X30551000Y-136923780D02*
X30551000Y-136866580D01*
X33091000Y-137116580D02*
X33091000Y-137901580D01*
X32446000Y-136471580D02*
X33091000Y-137116580D01*
X30946000Y-136471580D02*
X32446000Y-136471580D01*
X30551000Y-136866580D02*
X30946000Y-136471580D01*
X55951000Y-136866580D02*
X56346000Y-136471580D01*
X56346000Y-136471580D02*
X57846000Y-136471580D01*
X57846000Y-136471580D02*
X58491000Y-137116580D01*
X58491000Y-137116580D02*
X58491000Y-137901580D01*
X55951000Y-136923780D02*
X55951000Y-136866580D01*
X55951000Y-137901580D02*
X55951000Y-136923780D01*
X55951000Y-136923780D02*
X55951000Y-136816980D01*
X55372000Y-136237980D02*
X52120800Y-136237980D01*
X55951000Y-136816980D02*
X55372000Y-136237980D01*
X106751000Y-136816980D02*
X106172000Y-136237980D01*
X106172000Y-136237980D02*
X102920800Y-136237980D01*
X106751000Y-136923780D02*
X106751000Y-136816980D01*
X106751000Y-137901580D02*
X106751000Y-136923780D01*
X106751000Y-136923780D02*
X106751000Y-136866580D01*
X109291000Y-137116580D02*
X109291000Y-137901580D01*
X108646000Y-136471580D02*
X109291000Y-137116580D01*
X107146000Y-136471580D02*
X108646000Y-136471580D01*
X106751000Y-136866580D02*
X107146000Y-136471580D01*
X81351000Y-136866580D02*
X81746000Y-136471580D01*
X81746000Y-136471580D02*
X83246000Y-136471580D01*
X83246000Y-136471580D02*
X83891000Y-137116580D01*
X83891000Y-137116580D02*
X83891000Y-137901580D01*
X81351000Y-136923780D02*
X81351000Y-136866580D01*
X81351000Y-137901580D02*
X81351000Y-136923780D01*
X81351000Y-136923780D02*
X81351000Y-136816980D01*
X80772000Y-136237980D02*
X77520800Y-136237980D01*
X81351000Y-136816980D02*
X80772000Y-136237980D01*
X132151000Y-30194200D02*
X132546000Y-29799200D01*
X132546000Y-29799200D02*
X134046000Y-29799200D01*
X134046000Y-29799200D02*
X134691000Y-30444200D01*
X134691000Y-30444200D02*
X134691000Y-31229200D01*
X132151000Y-30251400D02*
X132151000Y-30194200D01*
X132151000Y-31229200D02*
X132151000Y-30251400D01*
X132151000Y-83476980D02*
X131572000Y-82897980D01*
X131572000Y-82897980D02*
X128320800Y-82897980D01*
X132151000Y-83583780D02*
X132151000Y-83476980D01*
X132151000Y-84561580D02*
X132151000Y-83583780D01*
X132151000Y-83583780D02*
X132151000Y-83526580D01*
X134691000Y-83776580D02*
X134691000Y-84561580D01*
X134046000Y-83131580D02*
X134691000Y-83776580D01*
X132546000Y-83131580D02*
X134046000Y-83131580D01*
X132151000Y-83526580D02*
X132546000Y-83131580D01*
X132151000Y-30144600D02*
X131572000Y-29565600D01*
X131572000Y-29565600D02*
X128168400Y-29565600D01*
X132151000Y-30251400D02*
X132151000Y-30144600D01*
X157551000Y-30251400D02*
X157551000Y-30144600D01*
X156972000Y-29565600D02*
X153568400Y-29565600D01*
X157551000Y-30144600D02*
X156972000Y-29565600D01*
X157551000Y-83526580D02*
X157946000Y-83131580D01*
X157946000Y-83131580D02*
X159446000Y-83131580D01*
X159446000Y-83131580D02*
X160091000Y-83776580D01*
X160091000Y-83776580D02*
X160091000Y-84561580D01*
X157551000Y-83583780D02*
X157551000Y-83526580D01*
X157551000Y-84561580D02*
X157551000Y-83583780D01*
X157551000Y-83583780D02*
X157551000Y-83476980D01*
X156972000Y-82897980D02*
X153720800Y-82897980D01*
X157551000Y-83476980D02*
X156972000Y-82897980D01*
X157551000Y-31229200D02*
X157551000Y-30251400D01*
X157551000Y-30251400D02*
X157551000Y-30194200D01*
X160091000Y-30444200D02*
X160091000Y-31229200D01*
X159446000Y-29799200D02*
X160091000Y-30444200D01*
X157946000Y-29799200D02*
X159446000Y-29799200D01*
X157551000Y-30194200D02*
X157946000Y-29799200D01*
X208351000Y-30194200D02*
X208746000Y-29799200D01*
X208746000Y-29799200D02*
X210246000Y-29799200D01*
X210246000Y-29799200D02*
X210891000Y-30444200D01*
X210891000Y-30444200D02*
X210891000Y-31229200D01*
X208351000Y-30251400D02*
X208351000Y-30194200D01*
X208351000Y-31229200D02*
X208351000Y-30251400D01*
X208351000Y-83476980D02*
X207772000Y-82897980D01*
X207772000Y-82897980D02*
X204520800Y-82897980D01*
X208351000Y-83583780D02*
X208351000Y-83476980D01*
X208351000Y-84561580D02*
X208351000Y-83583780D01*
X208351000Y-83583780D02*
X208351000Y-83526580D01*
X210891000Y-83776580D02*
X210891000Y-84561580D01*
X210246000Y-83131580D02*
X210891000Y-83776580D01*
X208746000Y-83131580D02*
X210246000Y-83131580D01*
X208351000Y-83526580D02*
X208746000Y-83131580D01*
X208351000Y-30144600D02*
X207772000Y-29565600D01*
X207772000Y-29565600D02*
X204368400Y-29565600D01*
X208351000Y-30251400D02*
X208351000Y-30144600D01*
X182951000Y-30251400D02*
X182951000Y-30144600D01*
X182372000Y-29565600D02*
X178968400Y-29565600D01*
X182951000Y-30144600D02*
X182372000Y-29565600D01*
X182951000Y-83526580D02*
X183346000Y-83131580D01*
X183346000Y-83131580D02*
X184846000Y-83131580D01*
X184846000Y-83131580D02*
X185491000Y-83776580D01*
X185491000Y-83776580D02*
X185491000Y-84561580D01*
X182951000Y-83583780D02*
X182951000Y-83526580D01*
X182951000Y-84561580D02*
X182951000Y-83583780D01*
X182951000Y-83583780D02*
X182951000Y-83476980D01*
X182372000Y-82897980D02*
X179120800Y-82897980D01*
X182951000Y-83476980D02*
X182372000Y-82897980D01*
X182951000Y-31229200D02*
X182951000Y-30251400D01*
X182951000Y-30251400D02*
X182951000Y-30194200D01*
X185491000Y-30444200D02*
X185491000Y-31229200D01*
X184846000Y-29799200D02*
X185491000Y-30444200D01*
X183346000Y-29799200D02*
X184846000Y-29799200D01*
X182951000Y-30194200D02*
X183346000Y-29799200D01*
X81351000Y-30194200D02*
X81746000Y-29799200D01*
X81746000Y-29799200D02*
X83246000Y-29799200D01*
X83246000Y-29799200D02*
X83891000Y-30444200D01*
X83891000Y-30444200D02*
X83891000Y-31229200D01*
X81351000Y-30251400D02*
X81351000Y-30194200D01*
X81351000Y-31229200D02*
X81351000Y-30251400D01*
X81351000Y-83476980D02*
X80772000Y-82897980D01*
X80772000Y-82897980D02*
X77520800Y-82897980D01*
X81351000Y-83583780D02*
X81351000Y-83476980D01*
X81351000Y-84561580D02*
X81351000Y-83583780D01*
X81351000Y-83583780D02*
X81351000Y-83526580D01*
X83891000Y-83776580D02*
X83891000Y-84561580D01*
X83246000Y-83131580D02*
X83891000Y-83776580D01*
X81746000Y-83131580D02*
X83246000Y-83131580D01*
X81351000Y-83526580D02*
X81746000Y-83131580D01*
X81351000Y-30144600D02*
X80772000Y-29565600D01*
X80772000Y-29565600D02*
X77368400Y-29565600D01*
X81351000Y-30251400D02*
X81351000Y-30144600D01*
X106751000Y-30251400D02*
X106751000Y-30144600D01*
X106172000Y-29565600D02*
X102768400Y-29565600D01*
X106751000Y-30144600D02*
X106172000Y-29565600D01*
X106751000Y-83526580D02*
X107146000Y-83131580D01*
X107146000Y-83131580D02*
X108646000Y-83131580D01*
X108646000Y-83131580D02*
X109291000Y-83776580D01*
X109291000Y-83776580D02*
X109291000Y-84561580D01*
X106751000Y-83583780D02*
X106751000Y-83526580D01*
X106751000Y-84561580D02*
X106751000Y-83583780D01*
X106751000Y-83583780D02*
X106751000Y-83476980D01*
X106172000Y-82897980D02*
X102920800Y-82897980D01*
X106751000Y-83476980D02*
X106172000Y-82897980D01*
X106751000Y-31229200D02*
X106751000Y-30251400D01*
X106751000Y-30251400D02*
X106751000Y-30194200D01*
X109291000Y-30444200D02*
X109291000Y-31229200D01*
X108646000Y-29799200D02*
X109291000Y-30444200D01*
X107146000Y-29799200D02*
X108646000Y-29799200D01*
X106751000Y-30194200D02*
X107146000Y-29799200D01*
X55951000Y-30194200D02*
X56346000Y-29799200D01*
X56346000Y-29799200D02*
X57846000Y-29799200D01*
X57846000Y-29799200D02*
X58491000Y-30444200D01*
X58491000Y-30444200D02*
X58491000Y-31229200D01*
X55951000Y-30251400D02*
X55951000Y-30194200D01*
X55951000Y-31229200D02*
X55951000Y-30251400D01*
X55951000Y-83476980D02*
X55372000Y-82897980D01*
X55372000Y-82897980D02*
X52120800Y-82897980D01*
X55951000Y-83583780D02*
X55951000Y-83476980D01*
X55951000Y-84561580D02*
X55951000Y-83583780D01*
X55951000Y-83583780D02*
X55951000Y-83526580D01*
X58491000Y-83776580D02*
X58491000Y-84561580D01*
X57846000Y-83131580D02*
X58491000Y-83776580D01*
X56346000Y-83131580D02*
X57846000Y-83131580D01*
X55951000Y-83526580D02*
X56346000Y-83131580D01*
X55951000Y-30144600D02*
X55372000Y-29565600D01*
X55372000Y-29565600D02*
X51968400Y-29565600D01*
X55951000Y-30251400D02*
X55951000Y-30144600D01*
X30551000Y-30251400D02*
X30551000Y-30144600D01*
X29972000Y-29565600D02*
X26568400Y-29565600D01*
X30551000Y-30144600D02*
X29972000Y-29565600D01*
X30551000Y-83526580D02*
X30946000Y-83131580D01*
X30946000Y-83131580D02*
X32446000Y-83131580D01*
X32446000Y-83131580D02*
X33091000Y-83776580D01*
X33091000Y-83776580D02*
X33091000Y-84561580D01*
X30551000Y-83583780D02*
X30551000Y-83526580D01*
X30551000Y-84561580D02*
X30551000Y-83583780D01*
X30551000Y-83583780D02*
X30551000Y-83476980D01*
X29972000Y-82897980D02*
X26720800Y-82897980D01*
X30551000Y-83476980D02*
X29972000Y-82897980D01*
X30551000Y-31229200D02*
X30551000Y-30251400D01*
X30551000Y-30251400D02*
X30551000Y-30194200D01*
X33091000Y-30444200D02*
X33091000Y-31229200D01*
X32446000Y-29799200D02*
X33091000Y-30444200D01*
X30946000Y-29799200D02*
X32446000Y-29799200D01*
X30551000Y-30194200D02*
X30946000Y-29799200D01*
D18*
X237561000Y-84561580D02*
X238831000Y-84561580D01*
X244152420Y-86441280D02*
X244152420Y-85633560D01*
X238831000Y-83893780D02*
X238831000Y-84561580D01*
X241046000Y-82974180D02*
X239750600Y-82974180D01*
X239750600Y-82974180D02*
X238831000Y-83893780D01*
X244152420Y-86080600D02*
X241046000Y-82974180D01*
X244152420Y-86441280D02*
X244152420Y-86080600D01*
X244152420Y-33108900D02*
X244152420Y-32748220D01*
X244152420Y-32748220D02*
X241046000Y-29641800D01*
X239750600Y-29641800D02*
X238831000Y-30561400D01*
X241046000Y-29641800D02*
X239750600Y-29641800D01*
X238831000Y-30561400D02*
X238831000Y-31229200D01*
X244152420Y-33108900D02*
X244152420Y-32301180D01*
X237561000Y-31229200D02*
X238831000Y-31229200D01*
X237561000Y-137909200D02*
X238831000Y-137909200D01*
X244152420Y-139788900D02*
X244152420Y-138981180D01*
X238831000Y-137241400D02*
X238831000Y-137909200D01*
X241046000Y-136321800D02*
X239750600Y-136321800D01*
X239750600Y-136321800D02*
X238831000Y-137241400D01*
X244152420Y-139428220D02*
X241046000Y-136321800D01*
X244152420Y-139788900D02*
X244152420Y-139428220D01*
X186761000Y-137909200D02*
X188031000Y-137909200D01*
X193352420Y-139788900D02*
X193352420Y-138981180D01*
X188031000Y-137241400D02*
X188031000Y-137909200D01*
X190246000Y-136321800D02*
X188950600Y-136321800D01*
X188950600Y-136321800D02*
X188031000Y-137241400D01*
X193352420Y-139428220D02*
X190246000Y-136321800D01*
X193352420Y-139788900D02*
X193352420Y-139428220D01*
X218752420Y-139788900D02*
X218752420Y-139428220D01*
X218752420Y-139428220D02*
X215646000Y-136321800D01*
X214350600Y-136321800D02*
X213431000Y-137241400D01*
X215646000Y-136321800D02*
X214350600Y-136321800D01*
X213431000Y-137241400D02*
X213431000Y-137909200D01*
X218752420Y-139788900D02*
X218752420Y-138981180D01*
X212161000Y-137909200D02*
X213431000Y-137909200D01*
X161361000Y-137909200D02*
X162631000Y-137909200D01*
X167952420Y-139788900D02*
X167952420Y-138981180D01*
X162631000Y-137241400D02*
X162631000Y-137909200D01*
X164846000Y-136321800D02*
X163550600Y-136321800D01*
X163550600Y-136321800D02*
X162631000Y-137241400D01*
X167952420Y-139428220D02*
X164846000Y-136321800D01*
X167952420Y-139788900D02*
X167952420Y-139428220D01*
X142552420Y-139788900D02*
X142552420Y-139428220D01*
X142552420Y-139428220D02*
X139446000Y-136321800D01*
X138150600Y-136321800D02*
X137231000Y-137241400D01*
X139446000Y-136321800D02*
X138150600Y-136321800D01*
X137231000Y-137241400D02*
X137231000Y-137909200D01*
X142552420Y-139788900D02*
X142552420Y-138981180D01*
X135961000Y-137909200D02*
X137231000Y-137909200D01*
X40952420Y-139781280D02*
X40952420Y-139420600D01*
X40952420Y-139420600D02*
X37846000Y-136314180D01*
X36550600Y-136314180D02*
X35631000Y-137233780D01*
X37846000Y-136314180D02*
X36550600Y-136314180D01*
X35631000Y-137233780D02*
X35631000Y-137901580D01*
X40952420Y-139781280D02*
X40952420Y-138973560D01*
X34361000Y-137901580D02*
X35631000Y-137901580D01*
X59761000Y-137901580D02*
X61031000Y-137901580D01*
X66352420Y-139781280D02*
X66352420Y-138973560D01*
X61031000Y-137233780D02*
X61031000Y-137901580D01*
X63246000Y-136314180D02*
X61950600Y-136314180D01*
X61950600Y-136314180D02*
X61031000Y-137233780D01*
X66352420Y-139420600D02*
X63246000Y-136314180D01*
X66352420Y-139781280D02*
X66352420Y-139420600D01*
X117152420Y-139781280D02*
X117152420Y-139420600D01*
X117152420Y-139420600D02*
X114046000Y-136314180D01*
X112750600Y-136314180D02*
X111831000Y-137233780D01*
X114046000Y-136314180D02*
X112750600Y-136314180D01*
X111831000Y-137233780D02*
X111831000Y-137901580D01*
X117152420Y-139781280D02*
X117152420Y-138973560D01*
X110561000Y-137901580D02*
X111831000Y-137901580D01*
X85161000Y-137901580D02*
X86431000Y-137901580D01*
X91752420Y-139781280D02*
X91752420Y-138973560D01*
X86431000Y-137233780D02*
X86431000Y-137901580D01*
X88646000Y-136314180D02*
X87350600Y-136314180D01*
X87350600Y-136314180D02*
X86431000Y-137233780D01*
X91752420Y-139420600D02*
X88646000Y-136314180D01*
X91752420Y-139781280D02*
X91752420Y-139420600D01*
X135961000Y-31229200D02*
X137231000Y-31229200D01*
X142552420Y-33108900D02*
X142552420Y-32301180D01*
X137231000Y-30561400D02*
X137231000Y-31229200D01*
X139446000Y-29641800D02*
X138150600Y-29641800D01*
X138150600Y-29641800D02*
X137231000Y-30561400D01*
X142552420Y-32748220D02*
X139446000Y-29641800D01*
X142552420Y-33108900D02*
X142552420Y-32748220D01*
X142552420Y-86441280D02*
X142552420Y-86080600D01*
X142552420Y-86080600D02*
X139446000Y-82974180D01*
X138150600Y-82974180D02*
X137231000Y-83893780D01*
X139446000Y-82974180D02*
X138150600Y-82974180D01*
X137231000Y-83893780D02*
X137231000Y-84561580D01*
X142552420Y-86441280D02*
X142552420Y-85633560D01*
X135961000Y-84561580D02*
X137231000Y-84561580D01*
X161361000Y-84561580D02*
X162631000Y-84561580D01*
X167952420Y-86441280D02*
X167952420Y-85633560D01*
X162631000Y-83893780D02*
X162631000Y-84561580D01*
X164846000Y-82974180D02*
X163550600Y-82974180D01*
X163550600Y-82974180D02*
X162631000Y-83893780D01*
X167952420Y-86080600D02*
X164846000Y-82974180D01*
X167952420Y-86441280D02*
X167952420Y-86080600D01*
X167952420Y-33108900D02*
X167952420Y-32748220D01*
X167952420Y-32748220D02*
X164846000Y-29641800D01*
X163550600Y-29641800D02*
X162631000Y-30561400D01*
X164846000Y-29641800D02*
X163550600Y-29641800D01*
X162631000Y-30561400D02*
X162631000Y-31229200D01*
X167952420Y-33108900D02*
X167952420Y-32301180D01*
X161361000Y-31229200D02*
X162631000Y-31229200D01*
X212161000Y-31229200D02*
X213431000Y-31229200D01*
X218752420Y-33108900D02*
X218752420Y-32301180D01*
X213431000Y-30561400D02*
X213431000Y-31229200D01*
X215646000Y-29641800D02*
X214350600Y-29641800D01*
X214350600Y-29641800D02*
X213431000Y-30561400D01*
X218752420Y-32748220D02*
X215646000Y-29641800D01*
X218752420Y-33108900D02*
X218752420Y-32748220D01*
X218752420Y-86441280D02*
X218752420Y-86080600D01*
X218752420Y-86080600D02*
X215646000Y-82974180D01*
X214350600Y-82974180D02*
X213431000Y-83893780D01*
X215646000Y-82974180D02*
X214350600Y-82974180D01*
X213431000Y-83893780D02*
X213431000Y-84561580D01*
X218752420Y-86441280D02*
X218752420Y-85633560D01*
X212161000Y-84561580D02*
X213431000Y-84561580D01*
X186761000Y-84561580D02*
X188031000Y-84561580D01*
X193352420Y-86441280D02*
X193352420Y-85633560D01*
X188031000Y-83893780D02*
X188031000Y-84561580D01*
X190246000Y-82974180D02*
X188950600Y-82974180D01*
X188950600Y-82974180D02*
X188031000Y-83893780D01*
X193352420Y-86080600D02*
X190246000Y-82974180D01*
X193352420Y-86441280D02*
X193352420Y-86080600D01*
X193352420Y-33108900D02*
X193352420Y-32748220D01*
X193352420Y-32748220D02*
X190246000Y-29641800D01*
X188950600Y-29641800D02*
X188031000Y-30561400D01*
X190246000Y-29641800D02*
X188950600Y-29641800D01*
X188031000Y-30561400D02*
X188031000Y-31229200D01*
X193352420Y-33108900D02*
X193352420Y-32301180D01*
X186761000Y-31229200D02*
X188031000Y-31229200D01*
X85161000Y-31229200D02*
X86431000Y-31229200D01*
X91752420Y-33108900D02*
X91752420Y-32301180D01*
X86431000Y-30561400D02*
X86431000Y-31229200D01*
X88646000Y-29641800D02*
X87350600Y-29641800D01*
X87350600Y-29641800D02*
X86431000Y-30561400D01*
X91752420Y-32748220D02*
X88646000Y-29641800D01*
X91752420Y-33108900D02*
X91752420Y-32748220D01*
X91752420Y-86441280D02*
X91752420Y-86080600D01*
X91752420Y-86080600D02*
X88646000Y-82974180D01*
X87350600Y-82974180D02*
X86431000Y-83893780D01*
X88646000Y-82974180D02*
X87350600Y-82974180D01*
X86431000Y-83893780D02*
X86431000Y-84561580D01*
X91752420Y-86441280D02*
X91752420Y-85633560D01*
X85161000Y-84561580D02*
X86431000Y-84561580D01*
X110561000Y-84561580D02*
X111831000Y-84561580D01*
X117152420Y-86441280D02*
X117152420Y-85633560D01*
X111831000Y-83893780D02*
X111831000Y-84561580D01*
X114046000Y-82974180D02*
X112750600Y-82974180D01*
X112750600Y-82974180D02*
X111831000Y-83893780D01*
X117152420Y-86080600D02*
X114046000Y-82974180D01*
X117152420Y-86441280D02*
X117152420Y-86080600D01*
X117152420Y-33108900D02*
X117152420Y-32748220D01*
X117152420Y-32748220D02*
X114046000Y-29641800D01*
X112750600Y-29641800D02*
X111831000Y-30561400D01*
X114046000Y-29641800D02*
X112750600Y-29641800D01*
X111831000Y-30561400D02*
X111831000Y-31229200D01*
X117152420Y-33108900D02*
X117152420Y-32301180D01*
X110561000Y-31229200D02*
X111831000Y-31229200D01*
X59761000Y-31229200D02*
X61031000Y-31229200D01*
X66352420Y-33108900D02*
X66352420Y-32301180D01*
X61031000Y-30561400D02*
X61031000Y-31229200D01*
X63246000Y-29641800D02*
X61950600Y-29641800D01*
X61950600Y-29641800D02*
X61031000Y-30561400D01*
X66352420Y-32748220D02*
X63246000Y-29641800D01*
X66352420Y-33108900D02*
X66352420Y-32748220D01*
X66352420Y-86441280D02*
X66352420Y-86080600D01*
X66352420Y-86080600D02*
X63246000Y-82974180D01*
X61950600Y-82974180D02*
X61031000Y-83893780D01*
X63246000Y-82974180D02*
X61950600Y-82974180D01*
X61031000Y-83893780D02*
X61031000Y-84561580D01*
X66352420Y-86441280D02*
X66352420Y-85633560D01*
X59761000Y-84561580D02*
X61031000Y-84561580D01*
X34361000Y-84561580D02*
X35631000Y-84561580D01*
X40952420Y-86441280D02*
X40952420Y-85633560D01*
X35631000Y-83893780D02*
X35631000Y-84561580D01*
X37846000Y-82974180D02*
X36550600Y-82974180D01*
X36550600Y-82974180D02*
X35631000Y-83893780D01*
X40952420Y-86080600D02*
X37846000Y-82974180D01*
X40952420Y-86441280D02*
X40952420Y-86080600D01*
X40952420Y-33108900D02*
X40952420Y-32748220D01*
X40952420Y-32748220D02*
X37846000Y-29641800D01*
X36550600Y-29641800D02*
X35631000Y-30561400D01*
X37846000Y-29641800D02*
X36550600Y-29641800D01*
X35631000Y-30561400D02*
X35631000Y-31229200D01*
X40952420Y-33108900D02*
X40952420Y-32301180D01*
X34361000Y-31229200D02*
X35631000Y-31229200D01*
X230522600Y-79849980D02*
X231211000Y-79161580D01*
X229445820Y-79849980D02*
X230522600Y-79849980D01*
X229445820Y-26517600D02*
X230522600Y-26517600D01*
X230522600Y-26517600D02*
X231211000Y-25829200D01*
X230522600Y-133197600D02*
X231211000Y-132509200D01*
X229445820Y-133197600D02*
X230522600Y-133197600D01*
X179722600Y-133197600D02*
X180411000Y-132509200D01*
X178645820Y-133197600D02*
X179722600Y-133197600D01*
X204045820Y-133197600D02*
X205122600Y-133197600D01*
X205122600Y-133197600D02*
X205811000Y-132509200D01*
X154322600Y-133197600D02*
X155011000Y-132509200D01*
X153245820Y-133197600D02*
X154322600Y-133197600D01*
X127845820Y-133197600D02*
X128922600Y-133197600D01*
X128922600Y-133197600D02*
X129611000Y-132509200D01*
X26245820Y-133189980D02*
X27322600Y-133189980D01*
X27322600Y-133189980D02*
X28011000Y-132501580D01*
X52722600Y-133189980D02*
X53411000Y-132501580D01*
X51645820Y-133189980D02*
X52722600Y-133189980D01*
X102445820Y-133189980D02*
X103522600Y-133189980D01*
X103522600Y-133189980D02*
X104211000Y-132501580D01*
X78122600Y-133189980D02*
X78811000Y-132501580D01*
X77045820Y-133189980D02*
X78122600Y-133189980D01*
X128922600Y-26517600D02*
X129611000Y-25829200D01*
X127845820Y-26517600D02*
X128922600Y-26517600D01*
X127845820Y-79849980D02*
X128922600Y-79849980D01*
X128922600Y-79849980D02*
X129611000Y-79161580D01*
X154322600Y-79849980D02*
X155011000Y-79161580D01*
X153245820Y-79849980D02*
X154322600Y-79849980D01*
X153245820Y-26517600D02*
X154322600Y-26517600D01*
X154322600Y-26517600D02*
X155011000Y-25829200D01*
X205122600Y-26517600D02*
X205811000Y-25829200D01*
X204045820Y-26517600D02*
X205122600Y-26517600D01*
X204045820Y-79849980D02*
X205122600Y-79849980D01*
X205122600Y-79849980D02*
X205811000Y-79161580D01*
X179722600Y-79849980D02*
X180411000Y-79161580D01*
X178645820Y-79849980D02*
X179722600Y-79849980D01*
X178645820Y-26517600D02*
X179722600Y-26517600D01*
X179722600Y-26517600D02*
X180411000Y-25829200D01*
X78122600Y-26517600D02*
X78811000Y-25829200D01*
X77045820Y-26517600D02*
X78122600Y-26517600D01*
X77045820Y-79849980D02*
X78122600Y-79849980D01*
X78122600Y-79849980D02*
X78811000Y-79161580D01*
X103522600Y-79849980D02*
X104211000Y-79161580D01*
X102445820Y-79849980D02*
X103522600Y-79849980D01*
X102445820Y-26517600D02*
X103522600Y-26517600D01*
X103522600Y-26517600D02*
X104211000Y-25829200D01*
X52722600Y-26517600D02*
X53411000Y-25829200D01*
X51645820Y-26517600D02*
X52722600Y-26517600D01*
X51645820Y-79849980D02*
X52722600Y-79849980D01*
X52722600Y-79849980D02*
X53411000Y-79161580D01*
X27322600Y-79849980D02*
X28011000Y-79161580D01*
X26245820Y-79849980D02*
X27322600Y-79849980D01*
X26245820Y-26517600D02*
X27322600Y-26517600D01*
X27322600Y-26517600D02*
X28011000Y-25829200D01*
X226013860Y-80741520D02*
X225999040Y-80726700D01*
X227413440Y-80833380D02*
X227446840Y-80799980D01*
X225933000Y-80833380D02*
X227413440Y-80833380D01*
X225933000Y-83609180D02*
X226263200Y-83939380D01*
X225933000Y-80833380D02*
X225933000Y-83609180D01*
X226644200Y-83990180D02*
X226644200Y-83964780D01*
X226644200Y-30657800D02*
X226644200Y-30632400D01*
X225933000Y-27501000D02*
X225933000Y-30276800D01*
X225933000Y-30276800D02*
X226263200Y-30607000D01*
X225933000Y-27501000D02*
X227413440Y-27501000D01*
X227413440Y-27501000D02*
X227446840Y-27467600D01*
X226013860Y-27409140D02*
X225999040Y-27394320D01*
X226013860Y-134089140D02*
X225999040Y-134074320D01*
X227413440Y-134181000D02*
X227446840Y-134147600D01*
X225933000Y-134181000D02*
X227413440Y-134181000D01*
X225933000Y-136956800D02*
X226263200Y-137287000D01*
X225933000Y-134181000D02*
X225933000Y-136956800D01*
X226644200Y-137337800D02*
X226644200Y-137312400D01*
X175213860Y-134089140D02*
X175199040Y-134074320D01*
X176613440Y-134181000D02*
X176646840Y-134147600D01*
X175133000Y-134181000D02*
X176613440Y-134181000D01*
X175133000Y-136956800D02*
X175463200Y-137287000D01*
X175133000Y-134181000D02*
X175133000Y-136956800D01*
X175844200Y-137337800D02*
X175844200Y-137312400D01*
X201244200Y-137337800D02*
X201244200Y-137312400D01*
X200533000Y-134181000D02*
X200533000Y-136956800D01*
X200533000Y-136956800D02*
X200863200Y-137287000D01*
X200533000Y-134181000D02*
X202013440Y-134181000D01*
X202013440Y-134181000D02*
X202046840Y-134147600D01*
X200613860Y-134089140D02*
X200599040Y-134074320D01*
X149813860Y-134089140D02*
X149799040Y-134074320D01*
X151213440Y-134181000D02*
X151246840Y-134147600D01*
X149733000Y-134181000D02*
X151213440Y-134181000D01*
X149733000Y-136956800D02*
X150063200Y-137287000D01*
X149733000Y-134181000D02*
X149733000Y-136956800D01*
X150444200Y-137337800D02*
X150444200Y-137312400D01*
X125044200Y-137337800D02*
X125044200Y-137312400D01*
X124333000Y-134181000D02*
X124333000Y-136956800D01*
X124333000Y-136956800D02*
X124663200Y-137287000D01*
X124333000Y-134181000D02*
X125813440Y-134181000D01*
X125813440Y-134181000D02*
X125846840Y-134147600D01*
X124413860Y-134089140D02*
X124399040Y-134074320D01*
X23444200Y-137330180D02*
X23444200Y-137304780D01*
X22733000Y-134173380D02*
X22733000Y-136949180D01*
X22733000Y-136949180D02*
X23063200Y-137279380D01*
X22733000Y-134173380D02*
X24213440Y-134173380D01*
X24213440Y-134173380D02*
X24246840Y-134139980D01*
X22813860Y-134081520D02*
X22799040Y-134066700D01*
X48213860Y-134081520D02*
X48199040Y-134066700D01*
X49613440Y-134173380D02*
X49646840Y-134139980D01*
X48133000Y-134173380D02*
X49613440Y-134173380D01*
X48133000Y-136949180D02*
X48463200Y-137279380D01*
X48133000Y-134173380D02*
X48133000Y-136949180D01*
X48844200Y-137330180D02*
X48844200Y-137304780D01*
X99644200Y-137330180D02*
X99644200Y-137304780D01*
X98933000Y-134173380D02*
X98933000Y-136949180D01*
X98933000Y-136949180D02*
X99263200Y-137279380D01*
X98933000Y-134173380D02*
X100413440Y-134173380D01*
X100413440Y-134173380D02*
X100446840Y-134139980D01*
X99013860Y-134081520D02*
X98999040Y-134066700D01*
X73613860Y-134081520D02*
X73599040Y-134066700D01*
X75013440Y-134173380D02*
X75046840Y-134139980D01*
X73533000Y-134173380D02*
X75013440Y-134173380D01*
X73533000Y-136949180D02*
X73863200Y-137279380D01*
X73533000Y-134173380D02*
X73533000Y-136949180D01*
X74244200Y-137330180D02*
X74244200Y-137304780D01*
X124413860Y-27409140D02*
X124399040Y-27394320D01*
X125813440Y-27501000D02*
X125846840Y-27467600D01*
X124333000Y-27501000D02*
X125813440Y-27501000D01*
X124333000Y-30276800D02*
X124663200Y-30607000D01*
X124333000Y-27501000D02*
X124333000Y-30276800D01*
X125044200Y-30657800D02*
X125044200Y-30632400D01*
X125044200Y-83990180D02*
X125044200Y-83964780D01*
X124333000Y-80833380D02*
X124333000Y-83609180D01*
X124333000Y-83609180D02*
X124663200Y-83939380D01*
X124333000Y-80833380D02*
X125813440Y-80833380D01*
X125813440Y-80833380D02*
X125846840Y-80799980D01*
X124413860Y-80741520D02*
X124399040Y-80726700D01*
X149813860Y-80741520D02*
X149799040Y-80726700D01*
X151213440Y-80833380D02*
X151246840Y-80799980D01*
X149733000Y-80833380D02*
X151213440Y-80833380D01*
X149733000Y-83609180D02*
X150063200Y-83939380D01*
X149733000Y-80833380D02*
X149733000Y-83609180D01*
X150444200Y-83990180D02*
X150444200Y-83964780D01*
X150444200Y-30657800D02*
X150444200Y-30632400D01*
X149733000Y-27501000D02*
X149733000Y-30276800D01*
X149733000Y-30276800D02*
X150063200Y-30607000D01*
X149733000Y-27501000D02*
X151213440Y-27501000D01*
X151213440Y-27501000D02*
X151246840Y-27467600D01*
X149813860Y-27409140D02*
X149799040Y-27394320D01*
X200613860Y-27409140D02*
X200599040Y-27394320D01*
X202013440Y-27501000D02*
X202046840Y-27467600D01*
X200533000Y-27501000D02*
X202013440Y-27501000D01*
X200533000Y-30276800D02*
X200863200Y-30607000D01*
X200533000Y-27501000D02*
X200533000Y-30276800D01*
X201244200Y-30657800D02*
X201244200Y-30632400D01*
X201244200Y-83990180D02*
X201244200Y-83964780D01*
X200533000Y-80833380D02*
X200533000Y-83609180D01*
X200533000Y-83609180D02*
X200863200Y-83939380D01*
X200533000Y-80833380D02*
X202013440Y-80833380D01*
X202013440Y-80833380D02*
X202046840Y-80799980D01*
X200613860Y-80741520D02*
X200599040Y-80726700D01*
X175213860Y-80741520D02*
X175199040Y-80726700D01*
X176613440Y-80833380D02*
X176646840Y-80799980D01*
X175133000Y-80833380D02*
X176613440Y-80833380D01*
X175133000Y-83609180D02*
X175463200Y-83939380D01*
X175133000Y-80833380D02*
X175133000Y-83609180D01*
X175844200Y-83990180D02*
X175844200Y-83964780D01*
X175844200Y-30657800D02*
X175844200Y-30632400D01*
X175133000Y-27501000D02*
X175133000Y-30276800D01*
X175133000Y-30276800D02*
X175463200Y-30607000D01*
X175133000Y-27501000D02*
X176613440Y-27501000D01*
X176613440Y-27501000D02*
X176646840Y-27467600D01*
X175213860Y-27409140D02*
X175199040Y-27394320D01*
X73613860Y-27409140D02*
X73599040Y-27394320D01*
X75013440Y-27501000D02*
X75046840Y-27467600D01*
X73533000Y-27501000D02*
X75013440Y-27501000D01*
X73533000Y-30276800D02*
X73863200Y-30607000D01*
X73533000Y-27501000D02*
X73533000Y-30276800D01*
X74244200Y-30657800D02*
X74244200Y-30632400D01*
X74244200Y-83990180D02*
X74244200Y-83964780D01*
X73533000Y-80833380D02*
X73533000Y-83609180D01*
X73533000Y-83609180D02*
X73863200Y-83939380D01*
X73533000Y-80833380D02*
X75013440Y-80833380D01*
X75013440Y-80833380D02*
X75046840Y-80799980D01*
X73613860Y-80741520D02*
X73599040Y-80726700D01*
X99013860Y-80741520D02*
X98999040Y-80726700D01*
X100413440Y-80833380D02*
X100446840Y-80799980D01*
X98933000Y-80833380D02*
X100413440Y-80833380D01*
X98933000Y-83609180D02*
X99263200Y-83939380D01*
X98933000Y-80833380D02*
X98933000Y-83609180D01*
X99644200Y-83990180D02*
X99644200Y-83964780D01*
X99644200Y-30657800D02*
X99644200Y-30632400D01*
X98933000Y-27501000D02*
X98933000Y-30276800D01*
X98933000Y-30276800D02*
X99263200Y-30607000D01*
X98933000Y-27501000D02*
X100413440Y-27501000D01*
X100413440Y-27501000D02*
X100446840Y-27467600D01*
X99013860Y-27409140D02*
X98999040Y-27394320D01*
X48213860Y-27409140D02*
X48199040Y-27394320D01*
X49613440Y-27501000D02*
X49646840Y-27467600D01*
X48133000Y-27501000D02*
X49613440Y-27501000D01*
X48133000Y-30276800D02*
X48463200Y-30607000D01*
X48133000Y-27501000D02*
X48133000Y-30276800D01*
X48844200Y-30657800D02*
X48844200Y-30632400D01*
X48844200Y-83990180D02*
X48844200Y-83964780D01*
X48133000Y-80833380D02*
X48133000Y-83609180D01*
X48133000Y-83609180D02*
X48463200Y-83939380D01*
X48133000Y-80833380D02*
X49613440Y-80833380D01*
X49613440Y-80833380D02*
X49646840Y-80799980D01*
X48213860Y-80741520D02*
X48199040Y-80726700D01*
X22813860Y-80741520D02*
X22799040Y-80726700D01*
X24213440Y-80833380D02*
X24246840Y-80799980D01*
X22733000Y-80833380D02*
X24213440Y-80833380D01*
X22733000Y-83609180D02*
X23063200Y-83939380D01*
X22733000Y-80833380D02*
X22733000Y-83609180D01*
X23444200Y-83990180D02*
X23444200Y-83964780D01*
X23444200Y-30657800D02*
X23444200Y-30632400D01*
X22733000Y-27501000D02*
X22733000Y-30276800D01*
X22733000Y-30276800D02*
X23063200Y-30607000D01*
X22733000Y-27501000D02*
X24213440Y-27501000D01*
X24213440Y-27501000D02*
X24246840Y-27467600D01*
X22813860Y-27409140D02*
X22799040Y-27394320D01*
D20*
G36*
X37973000Y-123825000D02*
X26289000Y-123825000D01*
X26289000Y-111633000D01*
X37973000Y-111633000D01*
X37973000Y-123825000D01*
X37973000Y-123825000D01*
G37*
X37973000Y-123825000D02*
X26289000Y-123825000D01*
X26289000Y-111633000D01*
X37973000Y-111633000D01*
X37973000Y-123825000D01*
G36*
X38989000Y-70968800D02*
X25781000Y-70968800D01*
X25781000Y-57531000D01*
X38989000Y-57531000D01*
X38989000Y-70968800D01*
X38989000Y-70968800D01*
G37*
X38989000Y-70968800D02*
X25781000Y-70968800D01*
X25781000Y-57531000D01*
X38989000Y-57531000D01*
X38989000Y-70968800D01*
G36*
X63373000Y-123825000D02*
X51689000Y-123825000D01*
X51689000Y-111633000D01*
X63373000Y-111633000D01*
X63373000Y-123825000D01*
X63373000Y-123825000D01*
G37*
X63373000Y-123825000D02*
X51689000Y-123825000D01*
X51689000Y-111633000D01*
X63373000Y-111633000D01*
X63373000Y-123825000D01*
G36*
X64389000Y-70968800D02*
X51181000Y-70968800D01*
X51181000Y-57531000D01*
X64389000Y-57531000D01*
X64389000Y-70968800D01*
X64389000Y-70968800D01*
G37*
X64389000Y-70968800D02*
X51181000Y-70968800D01*
X51181000Y-57531000D01*
X64389000Y-57531000D01*
X64389000Y-70968800D01*
G36*
X88773000Y-123825000D02*
X77089000Y-123825000D01*
X77089000Y-111633000D01*
X88773000Y-111633000D01*
X88773000Y-123825000D01*
X88773000Y-123825000D01*
G37*
X88773000Y-123825000D02*
X77089000Y-123825000D01*
X77089000Y-111633000D01*
X88773000Y-111633000D01*
X88773000Y-123825000D01*
G36*
X89789000Y-70968800D02*
X76581000Y-70968800D01*
X76581000Y-57531000D01*
X89789000Y-57531000D01*
X89789000Y-70968800D01*
X89789000Y-70968800D01*
G37*
X89789000Y-70968800D02*
X76581000Y-70968800D01*
X76581000Y-57531000D01*
X89789000Y-57531000D01*
X89789000Y-70968800D01*
G36*
X114173000Y-123825000D02*
X102489000Y-123825000D01*
X102489000Y-111633000D01*
X114173000Y-111633000D01*
X114173000Y-123825000D01*
X114173000Y-123825000D01*
G37*
X114173000Y-123825000D02*
X102489000Y-123825000D01*
X102489000Y-111633000D01*
X114173000Y-111633000D01*
X114173000Y-123825000D01*
G36*
X115189000Y-70968800D02*
X101981000Y-70968800D01*
X101981000Y-57531000D01*
X115189000Y-57531000D01*
X115189000Y-70968800D01*
X115189000Y-70968800D01*
G37*
X115189000Y-70968800D02*
X101981000Y-70968800D01*
X101981000Y-57531000D01*
X115189000Y-57531000D01*
X115189000Y-70968800D01*
G36*
X139573000Y-123825000D02*
X127889000Y-123825000D01*
X127889000Y-111633000D01*
X139573000Y-111633000D01*
X139573000Y-123825000D01*
X139573000Y-123825000D01*
G37*
X139573000Y-123825000D02*
X127889000Y-123825000D01*
X127889000Y-111633000D01*
X139573000Y-111633000D01*
X139573000Y-123825000D01*
G36*
X140589000Y-70968800D02*
X127381000Y-70968800D01*
X127381000Y-57531000D01*
X140589000Y-57531000D01*
X140589000Y-70968800D01*
X140589000Y-70968800D01*
G37*
X140589000Y-70968800D02*
X127381000Y-70968800D01*
X127381000Y-57531000D01*
X140589000Y-57531000D01*
X140589000Y-70968800D01*
G36*
X164973000Y-123825000D02*
X153289000Y-123825000D01*
X153289000Y-111633000D01*
X164973000Y-111633000D01*
X164973000Y-123825000D01*
X164973000Y-123825000D01*
G37*
X164973000Y-123825000D02*
X153289000Y-123825000D01*
X153289000Y-111633000D01*
X164973000Y-111633000D01*
X164973000Y-123825000D01*
G36*
X165989000Y-70968800D02*
X152781000Y-70968800D01*
X152781000Y-57531000D01*
X165989000Y-57531000D01*
X165989000Y-70968800D01*
X165989000Y-70968800D01*
G37*
X165989000Y-70968800D02*
X152781000Y-70968800D01*
X152781000Y-57531000D01*
X165989000Y-57531000D01*
X165989000Y-70968800D01*
G36*
X190373000Y-123825000D02*
X178689000Y-123825000D01*
X178689000Y-111633000D01*
X190373000Y-111633000D01*
X190373000Y-123825000D01*
X190373000Y-123825000D01*
G37*
X190373000Y-123825000D02*
X178689000Y-123825000D01*
X178689000Y-111633000D01*
X190373000Y-111633000D01*
X190373000Y-123825000D01*
G36*
X191389000Y-70968800D02*
X178181000Y-70968800D01*
X178181000Y-57531000D01*
X191389000Y-57531000D01*
X191389000Y-70968800D01*
X191389000Y-70968800D01*
G37*
X191389000Y-70968800D02*
X178181000Y-70968800D01*
X178181000Y-57531000D01*
X191389000Y-57531000D01*
X191389000Y-70968800D01*
G36*
X215773000Y-123825000D02*
X204089000Y-123825000D01*
X204089000Y-111633000D01*
X215773000Y-111633000D01*
X215773000Y-123825000D01*
X215773000Y-123825000D01*
G37*
X215773000Y-123825000D02*
X204089000Y-123825000D01*
X204089000Y-111633000D01*
X215773000Y-111633000D01*
X215773000Y-123825000D01*
G36*
X216789000Y-70968800D02*
X203581000Y-70968800D01*
X203581000Y-57531000D01*
X216789000Y-57531000D01*
X216789000Y-70968800D01*
X216789000Y-70968800D01*
G37*
X216789000Y-70968800D02*
X203581000Y-70968800D01*
X203581000Y-57531000D01*
X216789000Y-57531000D01*
X216789000Y-70968800D01*
G36*
X37973000Y-177165000D02*
X26289000Y-177165000D01*
X26289000Y-164973000D01*
X37973000Y-164973000D01*
X37973000Y-177165000D01*
X37973000Y-177165000D01*
G37*
X37973000Y-177165000D02*
X26289000Y-177165000D01*
X26289000Y-164973000D01*
X37973000Y-164973000D01*
X37973000Y-177165000D01*
G36*
X63373000Y-177165000D02*
X51689000Y-177165000D01*
X51689000Y-164973000D01*
X63373000Y-164973000D01*
X63373000Y-177165000D01*
X63373000Y-177165000D01*
G37*
X63373000Y-177165000D02*
X51689000Y-177165000D01*
X51689000Y-164973000D01*
X63373000Y-164973000D01*
X63373000Y-177165000D01*
G36*
X88773000Y-177165000D02*
X77089000Y-177165000D01*
X77089000Y-164973000D01*
X88773000Y-164973000D01*
X88773000Y-177165000D01*
X88773000Y-177165000D01*
G37*
X88773000Y-177165000D02*
X77089000Y-177165000D01*
X77089000Y-164973000D01*
X88773000Y-164973000D01*
X88773000Y-177165000D01*
G36*
X114173000Y-177165000D02*
X102489000Y-177165000D01*
X102489000Y-164973000D01*
X114173000Y-164973000D01*
X114173000Y-177165000D01*
X114173000Y-177165000D01*
G37*
X114173000Y-177165000D02*
X102489000Y-177165000D01*
X102489000Y-164973000D01*
X114173000Y-164973000D01*
X114173000Y-177165000D01*
G36*
X140589000Y-177648800D02*
X127381000Y-177648800D01*
X127381000Y-164211000D01*
X140589000Y-164211000D01*
X140589000Y-177648800D01*
X140589000Y-177648800D01*
G37*
X140589000Y-177648800D02*
X127381000Y-177648800D01*
X127381000Y-164211000D01*
X140589000Y-164211000D01*
X140589000Y-177648800D01*
G36*
X165989000Y-177648800D02*
X152781000Y-177648800D01*
X152781000Y-164211000D01*
X165989000Y-164211000D01*
X165989000Y-177648800D01*
X165989000Y-177648800D01*
G37*
X165989000Y-177648800D02*
X152781000Y-177648800D01*
X152781000Y-164211000D01*
X165989000Y-164211000D01*
X165989000Y-177648800D01*
G36*
X191389000Y-177648800D02*
X178181000Y-177648800D01*
X178181000Y-164211000D01*
X191389000Y-164211000D01*
X191389000Y-177648800D01*
X191389000Y-177648800D01*
G37*
X191389000Y-177648800D02*
X178181000Y-177648800D01*
X178181000Y-164211000D01*
X191389000Y-164211000D01*
X191389000Y-177648800D01*
G36*
X216789000Y-177648800D02*
X203581000Y-177648800D01*
X203581000Y-164211000D01*
X216789000Y-164211000D01*
X216789000Y-177648800D01*
X216789000Y-177648800D01*
G37*
X216789000Y-177648800D02*
X203581000Y-177648800D01*
X203581000Y-164211000D01*
X216789000Y-164211000D01*
X216789000Y-177648800D01*
G36*
X241173000Y-123825000D02*
X229489000Y-123825000D01*
X229489000Y-111633000D01*
X241173000Y-111633000D01*
X241173000Y-123825000D01*
X241173000Y-123825000D01*
G37*
X241173000Y-123825000D02*
X229489000Y-123825000D01*
X229489000Y-111633000D01*
X241173000Y-111633000D01*
X241173000Y-123825000D01*
G36*
X242189000Y-70968800D02*
X228981000Y-70968800D01*
X228981000Y-57531000D01*
X242189000Y-57531000D01*
X242189000Y-70968800D01*
X242189000Y-70968800D01*
G37*
X242189000Y-70968800D02*
X228981000Y-70968800D01*
X228981000Y-57531000D01*
X242189000Y-57531000D01*
X242189000Y-70968800D01*
G36*
X242189000Y-177648800D02*
X228981000Y-177648800D01*
X228981000Y-164211000D01*
X242189000Y-164211000D01*
X242189000Y-177648800D01*
X242189000Y-177648800D01*
G37*
X242189000Y-177648800D02*
X228981000Y-177648800D01*
X228981000Y-164211000D01*
X242189000Y-164211000D01*
X242189000Y-177648800D01*
M02*
