G04 #@! TF.FileFunction,Profile,NP*
%FSLAX46Y46*%
G04 Gerber Fmt 4.6, Leading zero omitted, Abs format (unit mm)*
G04 Created by KiCad (PCBNEW 4.0.3-stable) date 08/25/16 15:17:33*
%MOMM*%
%LPD*%
G01*
G04 APERTURE LIST*
%ADD10C,0.100000*%
%ADD11C,0.150000*%
G04 APERTURE END LIST*
D10*
D11*
X224307400Y-125018800D02*
X224307400Y-124993400D01*
X224307400Y-125018800D02*
X246380000Y-125018800D01*
X224891600Y-73652380D02*
X246380000Y-73652380D01*
X246380000Y-73652380D02*
X246380000Y-125011180D01*
X224942400Y-73652380D02*
X224663000Y-73652380D01*
X224663000Y-73652380D02*
X224307400Y-73652380D01*
X224307400Y-73652380D02*
X224307400Y-125011180D01*
X224307400Y-125011180D02*
X224307400Y-124985780D01*
X224307400Y-125011180D02*
X246380000Y-125011180D01*
X224307400Y-71678800D02*
X246380000Y-71678800D01*
X224307400Y-71678800D02*
X224307400Y-71653400D01*
X224307400Y-20320000D02*
X224307400Y-71678800D01*
X224663000Y-20320000D02*
X224307400Y-20320000D01*
X224942400Y-20320000D02*
X224663000Y-20320000D01*
X246380000Y-20320000D02*
X246380000Y-71678800D01*
X224891600Y-20320000D02*
X246380000Y-20320000D01*
X224891600Y-127000000D02*
X246380000Y-127000000D01*
X246380000Y-127000000D02*
X246380000Y-178358800D01*
X224942400Y-127000000D02*
X224663000Y-127000000D01*
X224663000Y-127000000D02*
X224307400Y-127000000D01*
X224307400Y-127000000D02*
X224307400Y-178358800D01*
X224307400Y-178358800D02*
X224307400Y-178333400D01*
X224307400Y-178358800D02*
X246380000Y-178358800D01*
X174091600Y-127000000D02*
X195580000Y-127000000D01*
X195580000Y-127000000D02*
X195580000Y-178358800D01*
X174142400Y-127000000D02*
X173863000Y-127000000D01*
X173863000Y-127000000D02*
X173507400Y-127000000D01*
X173507400Y-127000000D02*
X173507400Y-178358800D01*
X173507400Y-178358800D02*
X173507400Y-178333400D01*
X173507400Y-178358800D02*
X195580000Y-178358800D01*
X198907400Y-178358800D02*
X220980000Y-178358800D01*
X198907400Y-178358800D02*
X198907400Y-178333400D01*
X198907400Y-127000000D02*
X198907400Y-178358800D01*
X199263000Y-127000000D02*
X198907400Y-127000000D01*
X199542400Y-127000000D02*
X199263000Y-127000000D01*
X220980000Y-127000000D02*
X220980000Y-178358800D01*
X199491600Y-127000000D02*
X220980000Y-127000000D01*
X148691600Y-127000000D02*
X170180000Y-127000000D01*
X170180000Y-127000000D02*
X170180000Y-178358800D01*
X148742400Y-127000000D02*
X148463000Y-127000000D01*
X148463000Y-127000000D02*
X148107400Y-127000000D01*
X148107400Y-127000000D02*
X148107400Y-178358800D01*
X148107400Y-178358800D02*
X148107400Y-178333400D01*
X148107400Y-178358800D02*
X170180000Y-178358800D01*
X122707400Y-178358800D02*
X144780000Y-178358800D01*
X122707400Y-178358800D02*
X122707400Y-178333400D01*
X122707400Y-127000000D02*
X122707400Y-178358800D01*
X123063000Y-127000000D02*
X122707400Y-127000000D01*
X123342400Y-127000000D02*
X123063000Y-127000000D01*
X144780000Y-127000000D02*
X144780000Y-178358800D01*
X123291600Y-127000000D02*
X144780000Y-127000000D01*
X21107400Y-178351180D02*
X43180000Y-178351180D01*
X21107400Y-178351180D02*
X21107400Y-178325780D01*
X21107400Y-126992380D02*
X21107400Y-178351180D01*
X21463000Y-126992380D02*
X21107400Y-126992380D01*
X21742400Y-126992380D02*
X21463000Y-126992380D01*
X43180000Y-126992380D02*
X43180000Y-178351180D01*
X21691600Y-126992380D02*
X43180000Y-126992380D01*
X21107400Y-178358800D02*
X43180000Y-178358800D01*
X21107400Y-178358800D02*
X21107400Y-178333400D01*
X46507400Y-178358800D02*
X46507400Y-178333400D01*
X46507400Y-178358800D02*
X68580000Y-178358800D01*
X47091600Y-126992380D02*
X68580000Y-126992380D01*
X68580000Y-126992380D02*
X68580000Y-178351180D01*
X47142400Y-126992380D02*
X46863000Y-126992380D01*
X46863000Y-126992380D02*
X46507400Y-126992380D01*
X46507400Y-126992380D02*
X46507400Y-178351180D01*
X46507400Y-178351180D02*
X46507400Y-178325780D01*
X46507400Y-178351180D02*
X68580000Y-178351180D01*
X97307400Y-178351180D02*
X119380000Y-178351180D01*
X97307400Y-178351180D02*
X97307400Y-178325780D01*
X97307400Y-126992380D02*
X97307400Y-178351180D01*
X97663000Y-126992380D02*
X97307400Y-126992380D01*
X97942400Y-126992380D02*
X97663000Y-126992380D01*
X119380000Y-126992380D02*
X119380000Y-178351180D01*
X97891600Y-126992380D02*
X119380000Y-126992380D01*
X97307400Y-178358800D02*
X119380000Y-178358800D01*
X97307400Y-178358800D02*
X97307400Y-178333400D01*
X71907400Y-178358800D02*
X71907400Y-178333400D01*
X71907400Y-178358800D02*
X93980000Y-178358800D01*
X72491600Y-126992380D02*
X93980000Y-126992380D01*
X93980000Y-126992380D02*
X93980000Y-178351180D01*
X72542400Y-126992380D02*
X72263000Y-126992380D01*
X72263000Y-126992380D02*
X71907400Y-126992380D01*
X71907400Y-126992380D02*
X71907400Y-178351180D01*
X71907400Y-178351180D02*
X71907400Y-178325780D01*
X71907400Y-178351180D02*
X93980000Y-178351180D01*
X123291600Y-20320000D02*
X144780000Y-20320000D01*
X144780000Y-20320000D02*
X144780000Y-71678800D01*
X123342400Y-20320000D02*
X123063000Y-20320000D01*
X123063000Y-20320000D02*
X122707400Y-20320000D01*
X122707400Y-20320000D02*
X122707400Y-71678800D01*
X122707400Y-71678800D02*
X122707400Y-71653400D01*
X122707400Y-71678800D02*
X144780000Y-71678800D01*
X122707400Y-125011180D02*
X144780000Y-125011180D01*
X122707400Y-125011180D02*
X122707400Y-124985780D01*
X122707400Y-73652380D02*
X122707400Y-125011180D01*
X123063000Y-73652380D02*
X122707400Y-73652380D01*
X123342400Y-73652380D02*
X123063000Y-73652380D01*
X144780000Y-73652380D02*
X144780000Y-125011180D01*
X123291600Y-73652380D02*
X144780000Y-73652380D01*
X146446666Y-73660000D02*
G75*
G03X146446666Y-73660000I-1666666J0D01*
G01*
X142280000Y-73660000D02*
X147280000Y-73660000D01*
X144780000Y-71160000D02*
X144780000Y-76160000D01*
X122707400Y-125018800D02*
X144780000Y-125018800D01*
X122707400Y-125018800D02*
X122707400Y-124993400D01*
X171846666Y-73660000D02*
G75*
G03X171846666Y-73660000I-1666666J0D01*
G01*
X167680000Y-73660000D02*
X172680000Y-73660000D01*
X170180000Y-71160000D02*
X170180000Y-76160000D01*
X197246666Y-73660000D02*
G75*
G03X197246666Y-73660000I-1666666J0D01*
G01*
X193080000Y-73660000D02*
X198080000Y-73660000D01*
X195580000Y-71160000D02*
X195580000Y-76160000D01*
X171846666Y-73660000D02*
G75*
G03X171846666Y-73660000I-1666666J0D01*
G01*
X167680000Y-73660000D02*
X172680000Y-73660000D01*
X170180000Y-71160000D02*
X170180000Y-76160000D01*
X197246666Y-73660000D02*
G75*
G03X197246666Y-73660000I-1666666J0D01*
G01*
X193080000Y-73660000D02*
X198080000Y-73660000D01*
X195580000Y-71160000D02*
X195580000Y-76160000D01*
X171846666Y-73660000D02*
G75*
G03X171846666Y-73660000I-1666666J0D01*
G01*
X167680000Y-73660000D02*
X172680000Y-73660000D01*
X170180000Y-71160000D02*
X170180000Y-76160000D01*
X171846666Y-73660000D02*
G75*
G03X171846666Y-73660000I-1666666J0D01*
G01*
X167680000Y-73660000D02*
X172680000Y-73660000D01*
X170180000Y-71160000D02*
X170180000Y-76160000D01*
X197246666Y-73660000D02*
G75*
G03X197246666Y-73660000I-1666666J0D01*
G01*
X193080000Y-73660000D02*
X198080000Y-73660000D01*
X195580000Y-71160000D02*
X195580000Y-76160000D01*
X171846666Y-73660000D02*
G75*
G03X171846666Y-73660000I-1666666J0D01*
G01*
X167680000Y-73660000D02*
X172680000Y-73660000D01*
X170180000Y-71160000D02*
X170180000Y-76160000D01*
X148107400Y-125018800D02*
X148107400Y-124993400D01*
X148107400Y-125018800D02*
X170180000Y-125018800D01*
X148691600Y-73652380D02*
X170180000Y-73652380D01*
X170180000Y-73652380D02*
X170180000Y-125011180D01*
X148742400Y-73652380D02*
X148463000Y-73652380D01*
X148463000Y-73652380D02*
X148107400Y-73652380D01*
X148107400Y-73652380D02*
X148107400Y-125011180D01*
X148107400Y-125011180D02*
X148107400Y-124985780D01*
X148107400Y-125011180D02*
X170180000Y-125011180D01*
X148107400Y-71678800D02*
X170180000Y-71678800D01*
X148107400Y-71678800D02*
X148107400Y-71653400D01*
X148107400Y-20320000D02*
X148107400Y-71678800D01*
X148463000Y-20320000D02*
X148107400Y-20320000D01*
X148742400Y-20320000D02*
X148463000Y-20320000D01*
X170180000Y-20320000D02*
X170180000Y-71678800D01*
X148691600Y-20320000D02*
X170180000Y-20320000D01*
X199491600Y-20320000D02*
X220980000Y-20320000D01*
X220980000Y-20320000D02*
X220980000Y-71678800D01*
X199542400Y-20320000D02*
X199263000Y-20320000D01*
X199263000Y-20320000D02*
X198907400Y-20320000D01*
X198907400Y-20320000D02*
X198907400Y-71678800D01*
X198907400Y-71678800D02*
X198907400Y-71653400D01*
X198907400Y-71678800D02*
X220980000Y-71678800D01*
X198907400Y-125011180D02*
X220980000Y-125011180D01*
X198907400Y-125011180D02*
X198907400Y-124985780D01*
X198907400Y-73652380D02*
X198907400Y-125011180D01*
X199263000Y-73652380D02*
X198907400Y-73652380D01*
X199542400Y-73652380D02*
X199263000Y-73652380D01*
X220980000Y-73652380D02*
X220980000Y-125011180D01*
X199491600Y-73652380D02*
X220980000Y-73652380D01*
X198907400Y-125018800D02*
X220980000Y-125018800D01*
X198907400Y-125018800D02*
X198907400Y-124993400D01*
X173507400Y-125018800D02*
X173507400Y-124993400D01*
X173507400Y-125018800D02*
X195580000Y-125018800D01*
X197246666Y-73660000D02*
G75*
G03X197246666Y-73660000I-1666666J0D01*
G01*
X193080000Y-73660000D02*
X198080000Y-73660000D01*
X195580000Y-71160000D02*
X195580000Y-76160000D01*
X174091600Y-73652380D02*
X195580000Y-73652380D01*
X195580000Y-73652380D02*
X195580000Y-125011180D01*
X174142400Y-73652380D02*
X173863000Y-73652380D01*
X173863000Y-73652380D02*
X173507400Y-73652380D01*
X173507400Y-73652380D02*
X173507400Y-125011180D01*
X173507400Y-125011180D02*
X173507400Y-124985780D01*
X173507400Y-125011180D02*
X195580000Y-125011180D01*
X173507400Y-71678800D02*
X195580000Y-71678800D01*
X173507400Y-71678800D02*
X173507400Y-71653400D01*
X173507400Y-20320000D02*
X173507400Y-71678800D01*
X173863000Y-20320000D02*
X173507400Y-20320000D01*
X174142400Y-20320000D02*
X173863000Y-20320000D01*
X195580000Y-20320000D02*
X195580000Y-71678800D01*
X174091600Y-20320000D02*
X195580000Y-20320000D01*
X72491600Y-20320000D02*
X93980000Y-20320000D01*
X93980000Y-20320000D02*
X93980000Y-71678800D01*
X72542400Y-20320000D02*
X72263000Y-20320000D01*
X72263000Y-20320000D02*
X71907400Y-20320000D01*
X71907400Y-20320000D02*
X71907400Y-71678800D01*
X71907400Y-71678800D02*
X71907400Y-71653400D01*
X71907400Y-71678800D02*
X93980000Y-71678800D01*
X71907400Y-125011180D02*
X93980000Y-125011180D01*
X71907400Y-125011180D02*
X71907400Y-124985780D01*
X71907400Y-73652380D02*
X71907400Y-125011180D01*
X72263000Y-73652380D02*
X71907400Y-73652380D01*
X72542400Y-73652380D02*
X72263000Y-73652380D01*
X93980000Y-73652380D02*
X93980000Y-125011180D01*
X72491600Y-73652380D02*
X93980000Y-73652380D01*
X95646666Y-73660000D02*
G75*
G03X95646666Y-73660000I-1666666J0D01*
G01*
X91480000Y-73660000D02*
X96480000Y-73660000D01*
X93980000Y-71160000D02*
X93980000Y-76160000D01*
X71907400Y-125018800D02*
X93980000Y-125018800D01*
X71907400Y-125018800D02*
X71907400Y-124993400D01*
X97307400Y-125018800D02*
X97307400Y-124993400D01*
X97307400Y-125018800D02*
X119380000Y-125018800D01*
X97891600Y-73652380D02*
X119380000Y-73652380D01*
X119380000Y-73652380D02*
X119380000Y-125011180D01*
X97942400Y-73652380D02*
X97663000Y-73652380D01*
X97663000Y-73652380D02*
X97307400Y-73652380D01*
X97307400Y-73652380D02*
X97307400Y-125011180D01*
X97307400Y-125011180D02*
X97307400Y-124985780D01*
X97307400Y-125011180D02*
X119380000Y-125011180D01*
X97307400Y-71678800D02*
X119380000Y-71678800D01*
X97307400Y-71678800D02*
X97307400Y-71653400D01*
X97307400Y-20320000D02*
X97307400Y-71678800D01*
X97663000Y-20320000D02*
X97307400Y-20320000D01*
X97942400Y-20320000D02*
X97663000Y-20320000D01*
X119380000Y-20320000D02*
X119380000Y-71678800D01*
X97891600Y-20320000D02*
X119380000Y-20320000D01*
X47091600Y-20320000D02*
X68580000Y-20320000D01*
X68580000Y-20320000D02*
X68580000Y-71678800D01*
X47142400Y-20320000D02*
X46863000Y-20320000D01*
X46863000Y-20320000D02*
X46507400Y-20320000D01*
X46507400Y-20320000D02*
X46507400Y-71678800D01*
X46507400Y-71678800D02*
X46507400Y-71653400D01*
X46507400Y-71678800D02*
X68580000Y-71678800D01*
X46507400Y-125011180D02*
X68580000Y-125011180D01*
X46507400Y-125011180D02*
X46507400Y-124985780D01*
X46507400Y-73652380D02*
X46507400Y-125011180D01*
X46863000Y-73652380D02*
X46507400Y-73652380D01*
X47142400Y-73652380D02*
X46863000Y-73652380D01*
X68580000Y-73652380D02*
X68580000Y-125011180D01*
X47091600Y-73652380D02*
X68580000Y-73652380D01*
X46507400Y-125018800D02*
X68580000Y-125018800D01*
X46507400Y-125018800D02*
X46507400Y-124993400D01*
X247650000Y-179070000D02*
X20320000Y-179070000D01*
X70246666Y-73660000D02*
G75*
G03X70246666Y-73660000I-1666666J0D01*
G01*
X66080000Y-73660000D02*
X71080000Y-73660000D01*
X68580000Y-71160000D02*
X68580000Y-76160000D01*
X248046666Y-73660000D02*
G75*
G03X248046666Y-73660000I-1666666J0D01*
G01*
X243880000Y-73660000D02*
X248880000Y-73660000D01*
X246380000Y-71160000D02*
X246380000Y-76160000D01*
X222646666Y-73660000D02*
G75*
G03X222646666Y-73660000I-1666666J0D01*
G01*
X218480000Y-73660000D02*
X223480000Y-73660000D01*
X220980000Y-71160000D02*
X220980000Y-76160000D01*
X197246666Y-73660000D02*
G75*
G03X197246666Y-73660000I-1666666J0D01*
G01*
X193080000Y-73660000D02*
X198080000Y-73660000D01*
X195580000Y-71160000D02*
X195580000Y-76160000D01*
X171846666Y-73660000D02*
G75*
G03X171846666Y-73660000I-1666666J0D01*
G01*
X167680000Y-73660000D02*
X172680000Y-73660000D01*
X170180000Y-71160000D02*
X170180000Y-76160000D01*
X146446666Y-73660000D02*
G75*
G03X146446666Y-73660000I-1666666J0D01*
G01*
X142280000Y-73660000D02*
X147280000Y-73660000D01*
X144780000Y-71160000D02*
X144780000Y-76160000D01*
X121046666Y-73660000D02*
G75*
G03X121046666Y-73660000I-1666666J0D01*
G01*
X116880000Y-73660000D02*
X121880000Y-73660000D01*
X119380000Y-71160000D02*
X119380000Y-76160000D01*
X95646666Y-73660000D02*
G75*
G03X95646666Y-73660000I-1666666J0D01*
G01*
X91480000Y-73660000D02*
X96480000Y-73660000D01*
X93980000Y-71160000D02*
X93980000Y-76160000D01*
X70246666Y-73660000D02*
G75*
G03X70246666Y-73660000I-1666666J0D01*
G01*
X66080000Y-73660000D02*
X71080000Y-73660000D01*
X68580000Y-71160000D02*
X68580000Y-76160000D01*
X70246666Y-73660000D02*
G75*
G03X70246666Y-73660000I-1666666J0D01*
G01*
X66080000Y-73660000D02*
X71080000Y-73660000D01*
X68580000Y-71160000D02*
X68580000Y-76160000D01*
X95646666Y-73660000D02*
G75*
G03X95646666Y-73660000I-1666666J0D01*
G01*
X91480000Y-73660000D02*
X96480000Y-73660000D01*
X93980000Y-71160000D02*
X93980000Y-76160000D01*
X121046666Y-73660000D02*
G75*
G03X121046666Y-73660000I-1666666J0D01*
G01*
X116880000Y-73660000D02*
X121880000Y-73660000D01*
X119380000Y-71160000D02*
X119380000Y-76160000D01*
X121046666Y-73660000D02*
G75*
G03X121046666Y-73660000I-1666666J0D01*
G01*
X116880000Y-73660000D02*
X121880000Y-73660000D01*
X119380000Y-71160000D02*
X119380000Y-76160000D01*
X70246666Y-73660000D02*
G75*
G03X70246666Y-73660000I-1666666J0D01*
G01*
X66080000Y-73660000D02*
X71080000Y-73660000D01*
X68580000Y-71160000D02*
X68580000Y-76160000D01*
X121046666Y-73660000D02*
G75*
G03X121046666Y-73660000I-1666666J0D01*
G01*
X116880000Y-73660000D02*
X121880000Y-73660000D01*
X119380000Y-71160000D02*
X119380000Y-76160000D01*
X95646666Y-73660000D02*
G75*
G03X95646666Y-73660000I-1666666J0D01*
G01*
X91480000Y-73660000D02*
X96480000Y-73660000D01*
X93980000Y-71160000D02*
X93980000Y-76160000D01*
X70246666Y-73660000D02*
G75*
G03X70246666Y-73660000I-1666666J0D01*
G01*
X66080000Y-73660000D02*
X71080000Y-73660000D01*
X68580000Y-71160000D02*
X68580000Y-76160000D01*
X21107400Y-125018800D02*
X21107400Y-124993400D01*
X21107400Y-125018800D02*
X43180000Y-125018800D01*
X44846666Y-127000000D02*
G75*
G03X44846666Y-127000000I-1666666J0D01*
G01*
X40680000Y-127000000D02*
X45680000Y-127000000D01*
X43180000Y-124500000D02*
X43180000Y-129500000D01*
X70246666Y-127000000D02*
G75*
G03X70246666Y-127000000I-1666666J0D01*
G01*
X66080000Y-127000000D02*
X71080000Y-127000000D01*
X68580000Y-124500000D02*
X68580000Y-129500000D01*
X95646666Y-127000000D02*
G75*
G03X95646666Y-127000000I-1666666J0D01*
G01*
X91480000Y-127000000D02*
X96480000Y-127000000D01*
X93980000Y-124500000D02*
X93980000Y-129500000D01*
X121046666Y-127000000D02*
G75*
G03X121046666Y-127000000I-1666666J0D01*
G01*
X116880000Y-127000000D02*
X121880000Y-127000000D01*
X119380000Y-124500000D02*
X119380000Y-129500000D01*
X70246666Y-127000000D02*
G75*
G03X70246666Y-127000000I-1666666J0D01*
G01*
X66080000Y-127000000D02*
X71080000Y-127000000D01*
X68580000Y-124500000D02*
X68580000Y-129500000D01*
X121046666Y-127000000D02*
G75*
G03X121046666Y-127000000I-1666666J0D01*
G01*
X116880000Y-127000000D02*
X121880000Y-127000000D01*
X119380000Y-124500000D02*
X119380000Y-129500000D01*
X121046666Y-127000000D02*
G75*
G03X121046666Y-127000000I-1666666J0D01*
G01*
X116880000Y-127000000D02*
X121880000Y-127000000D01*
X119380000Y-124500000D02*
X119380000Y-129500000D01*
X95646666Y-127000000D02*
G75*
G03X95646666Y-127000000I-1666666J0D01*
G01*
X91480000Y-127000000D02*
X96480000Y-127000000D01*
X93980000Y-124500000D02*
X93980000Y-129500000D01*
X146446666Y-20320000D02*
G75*
G03X146446666Y-20320000I-1666666J0D01*
G01*
X142280000Y-20320000D02*
X147280000Y-20320000D01*
X144780000Y-17820000D02*
X144780000Y-22820000D01*
X197246666Y-20320000D02*
G75*
G03X197246666Y-20320000I-1666666J0D01*
G01*
X193080000Y-20320000D02*
X198080000Y-20320000D01*
X195580000Y-17820000D02*
X195580000Y-22820000D01*
X222646666Y-20320000D02*
G75*
G03X222646666Y-20320000I-1666666J0D01*
G01*
X218480000Y-20320000D02*
X223480000Y-20320000D01*
X220980000Y-17820000D02*
X220980000Y-22820000D01*
X171846666Y-20320000D02*
G75*
G03X171846666Y-20320000I-1666666J0D01*
G01*
X167680000Y-20320000D02*
X172680000Y-20320000D01*
X170180000Y-17820000D02*
X170180000Y-22820000D01*
X171846666Y-20320000D02*
G75*
G03X171846666Y-20320000I-1666666J0D01*
G01*
X167680000Y-20320000D02*
X172680000Y-20320000D01*
X170180000Y-17820000D02*
X170180000Y-22820000D01*
X222646666Y-20320000D02*
G75*
G03X222646666Y-20320000I-1666666J0D01*
G01*
X218480000Y-20320000D02*
X223480000Y-20320000D01*
X220980000Y-17820000D02*
X220980000Y-22820000D01*
X222646666Y-20320000D02*
G75*
G03X222646666Y-20320000I-1666666J0D01*
G01*
X218480000Y-20320000D02*
X223480000Y-20320000D01*
X220980000Y-17820000D02*
X220980000Y-22820000D01*
X197246666Y-20320000D02*
G75*
G03X197246666Y-20320000I-1666666J0D01*
G01*
X193080000Y-20320000D02*
X198080000Y-20320000D01*
X195580000Y-17820000D02*
X195580000Y-22820000D01*
X95646666Y-20320000D02*
G75*
G03X95646666Y-20320000I-1666666J0D01*
G01*
X91480000Y-20320000D02*
X96480000Y-20320000D01*
X93980000Y-17820000D02*
X93980000Y-22820000D01*
X121046666Y-20320000D02*
G75*
G03X121046666Y-20320000I-1666666J0D01*
G01*
X116880000Y-20320000D02*
X121880000Y-20320000D01*
X119380000Y-17820000D02*
X119380000Y-22820000D01*
X121046666Y-20320000D02*
G75*
G03X121046666Y-20320000I-1666666J0D01*
G01*
X116880000Y-20320000D02*
X121880000Y-20320000D01*
X119380000Y-17820000D02*
X119380000Y-22820000D01*
X70246666Y-20320000D02*
G75*
G03X70246666Y-20320000I-1666666J0D01*
G01*
X66080000Y-20320000D02*
X71080000Y-20320000D01*
X68580000Y-17820000D02*
X68580000Y-22820000D01*
X70246666Y-127000000D02*
G75*
G03X70246666Y-127000000I-1666666J0D01*
G01*
X66080000Y-127000000D02*
X71080000Y-127000000D01*
X68580000Y-124500000D02*
X68580000Y-129500000D01*
X70246666Y-127000000D02*
G75*
G03X70246666Y-127000000I-1666666J0D01*
G01*
X66080000Y-127000000D02*
X71080000Y-127000000D01*
X68580000Y-124500000D02*
X68580000Y-129500000D01*
X95646666Y-127000000D02*
G75*
G03X95646666Y-127000000I-1666666J0D01*
G01*
X91480000Y-127000000D02*
X96480000Y-127000000D01*
X93980000Y-124500000D02*
X93980000Y-129500000D01*
X121046666Y-127000000D02*
G75*
G03X121046666Y-127000000I-1666666J0D01*
G01*
X116880000Y-127000000D02*
X121880000Y-127000000D01*
X119380000Y-124500000D02*
X119380000Y-129500000D01*
X146446666Y-127000000D02*
G75*
G03X146446666Y-127000000I-1666666J0D01*
G01*
X142280000Y-127000000D02*
X147280000Y-127000000D01*
X144780000Y-124500000D02*
X144780000Y-129500000D01*
X171846666Y-127000000D02*
G75*
G03X171846666Y-127000000I-1666666J0D01*
G01*
X167680000Y-127000000D02*
X172680000Y-127000000D01*
X170180000Y-124500000D02*
X170180000Y-129500000D01*
X197246666Y-127000000D02*
G75*
G03X197246666Y-127000000I-1666666J0D01*
G01*
X193080000Y-127000000D02*
X198080000Y-127000000D01*
X195580000Y-124500000D02*
X195580000Y-129500000D01*
X222646666Y-127000000D02*
G75*
G03X222646666Y-127000000I-1666666J0D01*
G01*
X218480000Y-127000000D02*
X223480000Y-127000000D01*
X220980000Y-124500000D02*
X220980000Y-129500000D01*
X248046666Y-127000000D02*
G75*
G03X248046666Y-127000000I-1666666J0D01*
G01*
X243880000Y-127000000D02*
X248880000Y-127000000D01*
X246380000Y-124500000D02*
X246380000Y-129500000D01*
X248046666Y-20320000D02*
G75*
G03X248046666Y-20320000I-1666666J0D01*
G01*
X243880000Y-20320000D02*
X248880000Y-20320000D01*
X246380000Y-17820000D02*
X246380000Y-22820000D01*
X248046666Y-73660000D02*
G75*
G03X248046666Y-73660000I-1666666J0D01*
G01*
X243880000Y-73660000D02*
X248880000Y-73660000D01*
X246380000Y-71160000D02*
X246380000Y-76160000D01*
X44846666Y-127000000D02*
G75*
G03X44846666Y-127000000I-1666666J0D01*
G01*
X40680000Y-127000000D02*
X45680000Y-127000000D01*
X43180000Y-124500000D02*
X43180000Y-129500000D01*
X70246666Y-127000000D02*
G75*
G03X70246666Y-127000000I-1666666J0D01*
G01*
X66080000Y-127000000D02*
X71080000Y-127000000D01*
X68580000Y-124500000D02*
X68580000Y-129500000D01*
X70246666Y-20320000D02*
G75*
G03X70246666Y-20320000I-1666666J0D01*
G01*
X66080000Y-20320000D02*
X71080000Y-20320000D01*
X68580000Y-17820000D02*
X68580000Y-22820000D01*
X146446666Y-20320000D02*
G75*
G03X146446666Y-20320000I-1666666J0D01*
G01*
X142280000Y-20320000D02*
X147280000Y-20320000D01*
X144780000Y-17820000D02*
X144780000Y-22820000D01*
X171846666Y-20320000D02*
G75*
G03X171846666Y-20320000I-1666666J0D01*
G01*
X167680000Y-20320000D02*
X172680000Y-20320000D01*
X170180000Y-17820000D02*
X170180000Y-22820000D01*
X197246666Y-20320000D02*
G75*
G03X197246666Y-20320000I-1666666J0D01*
G01*
X193080000Y-20320000D02*
X198080000Y-20320000D01*
X195580000Y-17820000D02*
X195580000Y-22820000D01*
X171821266Y-20345400D02*
G75*
G03X171821266Y-20345400I-1666666J0D01*
G01*
X167654600Y-20345400D02*
X172654600Y-20345400D01*
X170154600Y-17845400D02*
X170154600Y-22845400D01*
X222646666Y-20320000D02*
G75*
G03X222646666Y-20320000I-1666666J0D01*
G01*
X218480000Y-20320000D02*
X223480000Y-20320000D01*
X220980000Y-17820000D02*
X220980000Y-22820000D01*
X121046666Y-20320000D02*
G75*
G03X121046666Y-20320000I-1666666J0D01*
G01*
X116880000Y-20320000D02*
X121880000Y-20320000D01*
X119380000Y-17820000D02*
X119380000Y-22820000D01*
X20320000Y-19050000D02*
X20320000Y-179070000D01*
X247650000Y-19050000D02*
X20320000Y-19050000D01*
X247650000Y-179070000D02*
X247650000Y-19050000D01*
X146446666Y-20320000D02*
G75*
G03X146446666Y-20320000I-1666666J0D01*
G01*
X142280000Y-20320000D02*
X147280000Y-20320000D01*
X144780000Y-17820000D02*
X144780000Y-22820000D01*
X171846666Y-20320000D02*
G75*
G03X171846666Y-20320000I-1666666J0D01*
G01*
X167680000Y-20320000D02*
X172680000Y-20320000D01*
X170180000Y-17820000D02*
X170180000Y-22820000D01*
X95646666Y-20320000D02*
G75*
G03X95646666Y-20320000I-1666666J0D01*
G01*
X91480000Y-20320000D02*
X96480000Y-20320000D01*
X93980000Y-17820000D02*
X93980000Y-22820000D01*
X44846666Y-73660000D02*
G75*
G03X44846666Y-73660000I-1666666J0D01*
G01*
X40680000Y-73660000D02*
X45680000Y-73660000D01*
X43180000Y-71160000D02*
X43180000Y-76160000D01*
X44846666Y-20320000D02*
G75*
G03X44846666Y-20320000I-1666666J0D01*
G01*
X40680000Y-20320000D02*
X45680000Y-20320000D01*
X43180000Y-17820000D02*
X43180000Y-22820000D01*
X21691600Y-73652380D02*
X43180000Y-73652380D01*
X43180000Y-73652380D02*
X43180000Y-125011180D01*
X21742400Y-73652380D02*
X21463000Y-73652380D01*
X21463000Y-73652380D02*
X21107400Y-73652380D01*
X21107400Y-73652380D02*
X21107400Y-125011180D01*
X21107400Y-125011180D02*
X21107400Y-124985780D01*
X21107400Y-125011180D02*
X43180000Y-125011180D01*
X21107400Y-71678800D02*
X43180000Y-71678800D01*
X21107400Y-71678800D02*
X21107400Y-71653400D01*
X21107400Y-20320000D02*
X21107400Y-71678800D01*
X21463000Y-20320000D02*
X21107400Y-20320000D01*
X21742400Y-20320000D02*
X21463000Y-20320000D01*
X43180000Y-20320000D02*
X43180000Y-71678800D01*
X21691600Y-20320000D02*
X43180000Y-20320000D01*
M02*
