G04 #@! TF.FileFunction,Copper,L4,Bot,Signal*
%FSLAX46Y46*%
G04 Gerber Fmt 4.6, Leading zero omitted, Abs format (unit mm)*
G04 Created by KiCad (PCBNEW 4.0.1-stable) date 10/3/2016 3:23:18 PM*
%MOMM*%
G01*
G04 APERTURE LIST*
%ADD10C,0.100000*%
%ADD11O,3.048000X1.727200*%
%ADD12R,0.500000X0.600000*%
%ADD13R,0.600000X0.400000*%
%ADD14R,0.600000X1.500000*%
%ADD15R,0.400000X0.600000*%
%ADD16R,0.800100X0.800100*%
%ADD17R,1.727200X2.032000*%
%ADD18O,1.727200X2.032000*%
%ADD19O,2.000000X1.270000*%
%ADD20R,1.500000X1.500000*%
%ADD21C,0.600000*%
%ADD22C,0.250000*%
%ADD23C,0.500000*%
%ADD24C,0.152400*%
%ADD25C,0.254000*%
G04 APERTURE END LIST*
D10*
D11*
X128066800Y-71170800D03*
X128066800Y-76250800D03*
X140766800Y-71170800D03*
X140766800Y-76250800D03*
D12*
X134239000Y-89297600D03*
X134239000Y-88197600D03*
D13*
X137490200Y-89096000D03*
X137490200Y-88196000D03*
D14*
X130429000Y-91940400D03*
X131699000Y-91940400D03*
X132969000Y-91940400D03*
X134239000Y-91940400D03*
X135509000Y-91940400D03*
X136779000Y-91940400D03*
X138049000Y-91940400D03*
X139319000Y-91940400D03*
X139319000Y-97340400D03*
X138049000Y-97340400D03*
X136779000Y-97340400D03*
X135509000Y-97340400D03*
X134239000Y-97340400D03*
X132969000Y-97340400D03*
X131699000Y-97340400D03*
X130429000Y-97340400D03*
D13*
X139319000Y-99397400D03*
X139319000Y-100297400D03*
X131724400Y-99397400D03*
X131724400Y-100297400D03*
D15*
X130828200Y-84429600D03*
X129928200Y-84429600D03*
D16*
X131379000Y-88351360D03*
X129479000Y-88351360D03*
X130429000Y-86352380D03*
D17*
X130657600Y-65481200D03*
D18*
X133197600Y-65481200D03*
X135737600Y-65481200D03*
X138277600Y-65481200D03*
D12*
X140792200Y-98314600D03*
X140792200Y-97214600D03*
D13*
X128905000Y-93160000D03*
X128905000Y-92260000D03*
X127508000Y-93160000D03*
X127508000Y-92260000D03*
D19*
X143510000Y-83820000D03*
X125730000Y-83820000D03*
X143510000Y-86360000D03*
X125730000Y-86360000D03*
X143510000Y-88900000D03*
X125730000Y-88900000D03*
X143510000Y-91440000D03*
X125730000Y-91440000D03*
X143510000Y-93980000D03*
X125730000Y-93980000D03*
X143510000Y-96520000D03*
X125730000Y-96520000D03*
X143510000Y-99060000D03*
X125730000Y-99060000D03*
X143510000Y-101600000D03*
X125730000Y-101600000D03*
X143510000Y-104140000D03*
X125730000Y-104140000D03*
X143510000Y-106680000D03*
X125730000Y-106680000D03*
X143510000Y-109220000D03*
X125730000Y-109220000D03*
X143510000Y-111760000D03*
X125730000Y-111760000D03*
D20*
X125730000Y-73660000D03*
X143510000Y-73660000D03*
D21*
X132664200Y-90170000D03*
X139319000Y-93446600D03*
X140766800Y-99441000D03*
X135585200Y-86918800D03*
X131648200Y-93802200D03*
X134391400Y-101244400D03*
X128346200Y-97993200D03*
X138252200Y-85979000D03*
D22*
X134239000Y-91940400D02*
X134239000Y-89297600D01*
X132969000Y-91940400D02*
X134239000Y-91940400D01*
X134239000Y-88197600D02*
X133544400Y-88197600D01*
X132664200Y-89077800D02*
X132664200Y-90170000D01*
X133544400Y-88197600D02*
X132664200Y-89077800D01*
X134239000Y-88197600D02*
X137488600Y-88197600D01*
X137488600Y-88197600D02*
X137490200Y-88196000D01*
D23*
X127685800Y-83820000D02*
X127685800Y-83718400D01*
X128193800Y-83210400D02*
X128066800Y-83210400D01*
X127685800Y-83718400D02*
X128193800Y-83210400D01*
X125730000Y-83820000D02*
X127685800Y-83820000D01*
X127685800Y-83820000D02*
X128803400Y-83820000D01*
X128803400Y-83820000D02*
X129413000Y-84429600D01*
X128905000Y-92260000D02*
X128905000Y-88925360D01*
X128905000Y-88925360D02*
X129479000Y-88351360D01*
D22*
X129479000Y-88351360D02*
X129194560Y-88351360D01*
D23*
X129194560Y-88351360D02*
X128549400Y-87706200D01*
X128549400Y-87706200D02*
X128549400Y-85808400D01*
X128549400Y-85808400D02*
X129928200Y-84429600D01*
X128066800Y-76250800D02*
X128066800Y-83210400D01*
X128066800Y-83210400D02*
X128066800Y-83083400D01*
X128066800Y-83083400D02*
X129413000Y-84429600D01*
D22*
X129413000Y-84429600D02*
X129928200Y-84429600D01*
D23*
X128066800Y-76250800D02*
X140766800Y-76250800D01*
X140792200Y-98314600D02*
X140792200Y-99415600D01*
X139319000Y-93446600D02*
X139319000Y-91940400D01*
X140792200Y-99415600D02*
X140766800Y-99441000D01*
X139319000Y-91940400D02*
X143009600Y-91940400D01*
X143009600Y-91940400D02*
X143510000Y-91440000D01*
X127508000Y-92260000D02*
X127508000Y-87782400D01*
X127508000Y-87782400D02*
X126085600Y-86360000D01*
X126085600Y-86360000D02*
X125730000Y-86360000D01*
X141655800Y-86995000D02*
X135661400Y-86995000D01*
X135661400Y-86995000D02*
X135585200Y-86918800D01*
X143510000Y-73660000D02*
X143510000Y-81203800D01*
X141655800Y-89916000D02*
X143179800Y-91440000D01*
X141655800Y-83058000D02*
X141655800Y-86995000D01*
X141655800Y-86995000D02*
X141655800Y-89916000D01*
X143510000Y-81203800D02*
X141655800Y-83058000D01*
X143179800Y-91440000D02*
X143510000Y-91440000D01*
X130657600Y-65481200D02*
X130708400Y-65481200D01*
X130708400Y-65481200D02*
X132130800Y-64058800D01*
D22*
X132130800Y-64058800D02*
X136855200Y-64058800D01*
D23*
X136855200Y-64058800D02*
X138277600Y-65481200D01*
X138277600Y-65481200D02*
X138430000Y-65481200D01*
X138430000Y-65481200D02*
X143510000Y-71120000D01*
X143510000Y-71120000D02*
X143510000Y-73660000D01*
D22*
X137490200Y-89096000D02*
X137490200Y-90170000D01*
X138049000Y-90728800D02*
X138049000Y-91940400D01*
X137490200Y-90170000D02*
X138049000Y-90728800D01*
X131699000Y-93751400D02*
X131648200Y-93802200D01*
X131699000Y-93751400D02*
X131699000Y-91940400D01*
X139319000Y-99397400D02*
X139319000Y-97340400D01*
X131699000Y-97340400D02*
X131699000Y-99372000D01*
X131699000Y-99372000D02*
X131724400Y-99397400D01*
D24*
X135338400Y-100297400D02*
X134391400Y-101244400D01*
X135686800Y-100297400D02*
X135338400Y-100297400D01*
X131724400Y-100297400D02*
X135686800Y-100297400D01*
X135686800Y-100297400D02*
X139319000Y-100297400D01*
D22*
X128346200Y-97993200D02*
X128346200Y-96926400D01*
X132969000Y-96570800D02*
X132969000Y-97340400D01*
X132232400Y-95834200D02*
X132969000Y-96570800D01*
X129438400Y-95834200D02*
X132232400Y-95834200D01*
X128346200Y-96926400D02*
X129438400Y-95834200D01*
X128346200Y-97993200D02*
X128371600Y-98018600D01*
D24*
X132969000Y-97340400D02*
X132969000Y-96520000D01*
X134747000Y-95986600D02*
X135509000Y-96748600D01*
X133502400Y-95986600D02*
X134747000Y-95986600D01*
X132969000Y-96520000D02*
X133502400Y-95986600D01*
X135509000Y-96748600D02*
X135509000Y-97340400D01*
D22*
X130429000Y-86352380D02*
X130429000Y-91940400D01*
D23*
X133197600Y-65481200D02*
X133197600Y-66040000D01*
X133197600Y-66040000D02*
X128066800Y-71170800D01*
X133197600Y-65481200D02*
X135737600Y-65481200D01*
X135737600Y-65481200D02*
X140766800Y-70510400D01*
D22*
X140766800Y-70510400D02*
X140766800Y-71170800D01*
D23*
X125577600Y-73660000D02*
X128066800Y-71170800D01*
X128066800Y-71170800D02*
X140766800Y-71170800D01*
D22*
X138252200Y-85979000D02*
X138176000Y-86055200D01*
X138176000Y-86055200D02*
X132359400Y-86055200D01*
X132359400Y-87370960D02*
X131379000Y-88351360D01*
X130828200Y-84429600D02*
X131876800Y-84429600D01*
X132359400Y-84912200D02*
X132359400Y-85928200D01*
X132359400Y-85928200D02*
X132359400Y-86055200D01*
X132359400Y-86055200D02*
X132359400Y-87370960D01*
X131876800Y-84429600D02*
X132359400Y-84912200D01*
X136779000Y-91940400D02*
X136779000Y-92659200D01*
X136779000Y-92659200D02*
X138658600Y-94538800D01*
X141884400Y-97434400D02*
X143510000Y-99060000D01*
X141884400Y-95935800D02*
X141884400Y-97434400D01*
X140487400Y-94538800D02*
X141884400Y-95935800D01*
X138658600Y-94538800D02*
X140487400Y-94538800D01*
X135509000Y-91940400D02*
X136779000Y-91940400D01*
X140792200Y-97214600D02*
X140902600Y-97214600D01*
X140902600Y-97214600D02*
X141681200Y-97993200D01*
X141681200Y-99847400D02*
X143433800Y-101600000D01*
X141681200Y-97993200D02*
X141681200Y-99847400D01*
X143433800Y-101600000D02*
X143510000Y-101600000D01*
X138049000Y-97340400D02*
X138049000Y-96240600D01*
X140792200Y-96545400D02*
X140792200Y-97214600D01*
X139979400Y-95732600D02*
X140792200Y-96545400D01*
X138557000Y-95732600D02*
X139979400Y-95732600D01*
X138049000Y-96240600D02*
X138557000Y-95732600D01*
X136779000Y-97340400D02*
X138049000Y-97340400D01*
X125730000Y-99060000D02*
X125755400Y-99060000D01*
X125755400Y-99060000D02*
X127508000Y-97307400D01*
X127508000Y-97307400D02*
X127508000Y-93160000D01*
X127508000Y-93160000D02*
X128905000Y-93160000D01*
D25*
G36*
X140589000Y-178943000D02*
X127355600Y-178943000D01*
X127355600Y-165404800D01*
X140589000Y-165404800D01*
X140589000Y-178943000D01*
X140589000Y-178943000D01*
G37*
X140589000Y-178943000D02*
X127355600Y-178943000D01*
X127355600Y-165404800D01*
X140589000Y-165404800D01*
X140589000Y-178943000D01*
M02*
