M48
;DRILL file {KiCad 4.0.1-stable} date 10/3/2016 3:23:24 PM
;FORMAT={-:-/ absolute / inch / decimal}
FMAT,2
INCH,TZ
T1C0.016
T2C0.040
%
G90
G05
M72
T1
X5.053Y-3.858
X5.183Y-3.693
X5.223Y-3.55
X5.291Y-3.986
X5.338Y-3.422
X5.443Y-3.385
X5.485Y-3.679
X5.542Y-3.915
T2
X4.95Y-3.3
X4.95Y-3.4
X4.95Y-3.5
X4.95Y-3.6
X4.95Y-3.7
X4.95Y-3.8
X4.95Y-3.9
X4.95Y-4.
X4.95Y-4.1
X4.95Y-4.2
X4.95Y-4.3
X4.95Y-4.4
X5.042Y-2.802
X5.042Y-3.002
X5.144Y-2.578
X5.244Y-2.578
X5.344Y-2.578
X5.444Y-2.578
X5.542Y-2.802
X5.542Y-3.002
X5.65Y-3.3
X5.65Y-3.4
X5.65Y-3.5
X5.65Y-3.6
X5.65Y-3.7
X5.65Y-3.8
X5.65Y-3.9
X5.65Y-4.
X5.65Y-4.1
X5.65Y-4.2
X5.65Y-4.3
X5.65Y-4.4
T0
M30
