G04 #@! TF.FileFunction,Soldermask,Bot*
%FSLAX46Y46*%
G04 Gerber Fmt 4.6, Leading zero omitted, Abs format (unit mm)*
G04 Created by KiCad (PCBNEW 4.0.1-stable) date 10/3/2016 3:23:19 PM*
%MOMM*%
G01*
G04 APERTURE LIST*
%ADD10C,0.100000*%
%ADD11O,3.448000X2.127200*%
%ADD12R,0.900000X1.000000*%
%ADD13R,1.000000X0.800000*%
%ADD14R,1.000000X1.900000*%
%ADD15R,0.800000X1.000000*%
%ADD16R,1.200100X1.200100*%
%ADD17R,2.127200X2.432000*%
%ADD18O,2.127200X2.432000*%
%ADD19O,2.400000X1.670000*%
%ADD20R,1.900000X1.900000*%
G04 APERTURE END LIST*
D10*
D11*
X128066800Y-71170800D03*
X128066800Y-76250800D03*
X140766800Y-71170800D03*
X140766800Y-76250800D03*
D12*
X134239000Y-89297600D03*
X134239000Y-88197600D03*
D13*
X137490200Y-89096000D03*
X137490200Y-88196000D03*
D14*
X130429000Y-91940400D03*
X131699000Y-91940400D03*
X132969000Y-91940400D03*
X134239000Y-91940400D03*
X135509000Y-91940400D03*
X136779000Y-91940400D03*
X138049000Y-91940400D03*
X139319000Y-91940400D03*
X139319000Y-97340400D03*
X138049000Y-97340400D03*
X136779000Y-97340400D03*
X135509000Y-97340400D03*
X134239000Y-97340400D03*
X132969000Y-97340400D03*
X131699000Y-97340400D03*
X130429000Y-97340400D03*
D13*
X139319000Y-99397400D03*
X139319000Y-100297400D03*
X131724400Y-99397400D03*
X131724400Y-100297400D03*
D15*
X130828200Y-84429600D03*
X129928200Y-84429600D03*
D16*
X131379000Y-88351360D03*
X129479000Y-88351360D03*
X130429000Y-86352380D03*
D17*
X130657600Y-65481200D03*
D18*
X133197600Y-65481200D03*
X135737600Y-65481200D03*
X138277600Y-65481200D03*
D12*
X140792200Y-98314600D03*
X140792200Y-97214600D03*
D13*
X128905000Y-93160000D03*
X128905000Y-92260000D03*
X127508000Y-93160000D03*
X127508000Y-92260000D03*
D19*
X143510000Y-83820000D03*
X125730000Y-83820000D03*
X143510000Y-86360000D03*
X125730000Y-86360000D03*
X143510000Y-88900000D03*
X125730000Y-88900000D03*
X143510000Y-91440000D03*
X125730000Y-91440000D03*
X143510000Y-93980000D03*
X125730000Y-93980000D03*
X143510000Y-96520000D03*
X125730000Y-96520000D03*
X143510000Y-99060000D03*
X125730000Y-99060000D03*
X143510000Y-101600000D03*
X125730000Y-101600000D03*
X143510000Y-104140000D03*
X125730000Y-104140000D03*
X143510000Y-106680000D03*
X125730000Y-106680000D03*
X143510000Y-109220000D03*
X125730000Y-109220000D03*
X143510000Y-111760000D03*
X125730000Y-111760000D03*
D20*
X125730000Y-73660000D03*
X143510000Y-73660000D03*
M02*
