G04 #@! TF.FileFunction,Copper,L1,Top,Signal*
%FSLAX46Y46*%
G04 Gerber Fmt 4.6, Leading zero omitted, Abs format (unit mm)*
G04 Created by KiCad (PCBNEW 4.0.1-stable) date 10/3/2016 3:23:18 PM*
%MOMM*%
G01*
G04 APERTURE LIST*
%ADD10C,0.100000*%
%ADD11O,3.048000X1.727200*%
%ADD12R,0.400000X0.600000*%
%ADD13R,1.727200X2.032000*%
%ADD14O,1.727200X2.032000*%
%ADD15O,2.000000X1.270000*%
%ADD16C,0.600000*%
%ADD17C,0.152400*%
%ADD18C,0.250000*%
%ADD19C,0.500000*%
G04 APERTURE END LIST*
D10*
D11*
X128066800Y-71170800D03*
X128066800Y-76250800D03*
X140766800Y-71170800D03*
X140766800Y-76250800D03*
D12*
X130410800Y-164261800D03*
X131310800Y-164261800D03*
D13*
X130657600Y-65481200D03*
D14*
X133197600Y-65481200D03*
X135737600Y-65481200D03*
X138277600Y-65481200D03*
D15*
X143510000Y-83820000D03*
X125730000Y-83820000D03*
X143510000Y-86360000D03*
X125730000Y-86360000D03*
X143510000Y-88900000D03*
X125730000Y-88900000D03*
X143510000Y-91440000D03*
X125730000Y-91440000D03*
X143510000Y-93980000D03*
X125730000Y-93980000D03*
X143510000Y-96520000D03*
X125730000Y-96520000D03*
X143510000Y-99060000D03*
X125730000Y-99060000D03*
X143510000Y-101600000D03*
X125730000Y-101600000D03*
X143510000Y-104140000D03*
X125730000Y-104140000D03*
X143510000Y-106680000D03*
X125730000Y-106680000D03*
X143510000Y-109220000D03*
X125730000Y-109220000D03*
X143510000Y-111760000D03*
X125730000Y-111760000D03*
D16*
X132664200Y-90170000D03*
X139319000Y-93446600D03*
X140766800Y-99441000D03*
X135585200Y-86918800D03*
X131648200Y-93802200D03*
X134391400Y-101244400D03*
X128346200Y-97993200D03*
X138252200Y-85979000D03*
D17*
X127866200Y-166307000D02*
X127866200Y-173085820D01*
X127866200Y-173085820D02*
X127866200Y-178499000D01*
X127866200Y-178499000D02*
X139753400Y-178499000D01*
X127866200Y-173012600D02*
X139753400Y-173012600D01*
X140058200Y-166180000D02*
X128171000Y-166180000D01*
X140058200Y-178041800D02*
X128171000Y-178041800D01*
X127866200Y-177584600D02*
X139753400Y-177584600D01*
X127866200Y-176670200D02*
X139753400Y-176670200D01*
X140058200Y-176213000D02*
X128171000Y-176213000D01*
X127866200Y-175755800D02*
X139753400Y-175755800D01*
X140058200Y-175298600D02*
X128171000Y-175298600D01*
X127866200Y-174841400D02*
X139753400Y-174841400D01*
X140058200Y-174384200D02*
X128171000Y-174384200D01*
X127866200Y-173927000D02*
X139753400Y-173927000D01*
X140058200Y-173469800D02*
X128171000Y-173469800D01*
X140058200Y-172555400D02*
X128171000Y-172555400D01*
X127866200Y-172098200D02*
X139753400Y-172098200D01*
X140058200Y-171641000D02*
X128171000Y-171641000D01*
X127866200Y-171183800D02*
X139753400Y-171183800D01*
X140058200Y-170726600D02*
X128171000Y-170726600D01*
X127866200Y-170269400D02*
X139753400Y-170269400D01*
X140058200Y-169812200D02*
X128171000Y-169812200D01*
X127866200Y-169355000D02*
X139753400Y-169355000D01*
X140058200Y-168897800D02*
X128171000Y-168897800D01*
X127866200Y-168440600D02*
X139753400Y-168440600D01*
X140058200Y-167983400D02*
X128171000Y-167983400D01*
X127866200Y-167526200D02*
X139753400Y-167526200D01*
X140058200Y-167069000D02*
X128171000Y-167069000D01*
X140058200Y-178499000D02*
X140058200Y-178348640D01*
X140058200Y-178348640D02*
X140058200Y-177723000D01*
X140058200Y-177123000D02*
X140058200Y-166307000D01*
X140058200Y-177723000D02*
X140058200Y-177123000D01*
X140058200Y-177127400D02*
X128171000Y-177127400D01*
D18*
X132765800Y-115544600D02*
X132765800Y-90271600D01*
X132765800Y-115544600D02*
X132765800Y-162629000D01*
X131209200Y-164185600D02*
X132765800Y-162629000D01*
X132765800Y-90271600D02*
X132664200Y-90170000D01*
X132664200Y-90170000D02*
X132715000Y-90220800D01*
D19*
X139319000Y-97993200D02*
X139319000Y-93446600D01*
X140766800Y-99441000D02*
X139319000Y-97993200D01*
X135026400Y-86360000D02*
X125730000Y-86360000D01*
X135585200Y-86918800D02*
X135026400Y-86360000D01*
D18*
X130378200Y-95072200D02*
X130378200Y-120345200D01*
X131648200Y-93802200D02*
X130378200Y-95072200D01*
X130429000Y-164065800D02*
X130429000Y-120396000D01*
X130378200Y-120345200D02*
X130429000Y-120396000D01*
X130429000Y-164065800D02*
X130309200Y-164185600D01*
D17*
X140058200Y-165861200D02*
X140058200Y-165261200D01*
X134391400Y-101244400D02*
X134442200Y-101295200D01*
X134442200Y-101295200D02*
X134442200Y-117017800D01*
X134442200Y-117017800D02*
X140007400Y-122583000D01*
X140007400Y-129451600D02*
X140007400Y-129301240D01*
X140007400Y-129301240D02*
X140007400Y-128675600D01*
X140007400Y-128075600D02*
X140007400Y-122583000D01*
X140007400Y-128675600D02*
X140007400Y-128075600D01*
X140007400Y-154394400D02*
X140058200Y-154445200D01*
X140007400Y-129451600D02*
X140007400Y-154394400D01*
X140058200Y-166486840D02*
X140058200Y-166637200D01*
X140058200Y-166486840D02*
X140058200Y-165861200D01*
X140058200Y-165261200D02*
X140058200Y-154445200D01*
X139753400Y-166637200D02*
X127866200Y-166637200D01*
X127815400Y-124038420D02*
X127815400Y-117424200D01*
X127815400Y-124038420D02*
X127815400Y-129451600D01*
X127815400Y-154394400D02*
X127866200Y-154445200D01*
X127815400Y-129451600D02*
X127815400Y-154394400D01*
X127866200Y-154445200D02*
X127866200Y-161224020D01*
X127866200Y-161224020D02*
X127866200Y-166637200D01*
X127866200Y-166611800D02*
X139753400Y-166611800D01*
D18*
X127815400Y-117424200D02*
X127815400Y-98524000D01*
X127815400Y-98524000D02*
X128346200Y-97993200D01*
D17*
X127815400Y-117259600D02*
X127815400Y-117424200D01*
D18*
X143510000Y-96520000D02*
X143510000Y-96266000D01*
X143510000Y-96266000D02*
X140716000Y-93472000D01*
X140716000Y-93472000D02*
X140716000Y-88442800D01*
X140716000Y-88442800D02*
X138252200Y-85979000D01*
M02*
